<svg id="Layer_1" data-name="Layer 1" xmlns="http://www.w3.org/2000/svg" viewBox="0 0 829 1950"><defs><style>.cls-1{fill:#e7e9ea;}</style></defs><title>Abs</title><polygon class="cls-1" points="299.79 557.87 327.39 573.2 324.2 536.86 299.79 557.87"/><polygon class="cls-1" points="322.25 523.05 269.35 501.09 289.27 554.7 322.25 523.05"/><polygon class="cls-1" points="289.58 559.99 325.63 581.98 331.79 625.95 296.61 603.09 289.58 559.99"/><polygon class="cls-1" points="298.37 613.66 330.03 635.64 334.43 680.49 299.25 652.35 298.37 613.66"/><polygon class="cls-1" points="333.54 704.33 294.84 675.31 291.48 714.3 264.03 764.77 306.29 822.96 328.27 826.48 336.19 743.81 333.54 704.33"/><polygon class="cls-1" points="529.35 557.87 501.74 573.2 504.93 536.86 529.35 557.87"/><polygon class="cls-1" points="506.88 523.05 559.78 501.09 539.86 554.7 506.88 523.05"/><polygon class="cls-1" points="539.55 559.99 503.5 581.98 497.34 625.95 532.52 603.09 539.55 559.99"/><polygon class="cls-1" points="530.76 613.66 499.1 635.64 494.7 680.49 529.88 652.35 530.76 613.66"/><polygon class="cls-1" points="495.59 704.33 534.29 675.31 537.65 714.3 565.1 764.77 522.84 822.96 500.86 826.48 492.94 743.81 495.59 704.33"/><polygon class="cls-1" points="341.07 522.38 407.48 492.5 405.48 540.98 345.71 571.52 341.07 522.38"/><polygon class="cls-1" points="351.69 583.48 353.02 618.01 402.16 607.38 404.82 560.24 351.69 583.48"/><polygon class="cls-1" points="410.13 921.5 397.19 795.77 396.87 713.91 350.26 691.05 344.98 840.55 410.13 921.5"/><polygon class="cls-1" points="355.01 634.61 354.35 677.11 401.5 689.73 402.16 623.32 355.01 634.61"/><polygon class="cls-1" points="488.06 522.38 421.65 492.5 423.65 540.98 483.42 571.52 488.06 522.38"/><polygon class="cls-1" points="477.44 583.48 476.11 618.01 426.97 607.38 424.31 560.24 477.44 583.48"/><polygon class="cls-1" points="419 921.5 431.94 795.77 432.26 713.91 478.87 691.05 484.15 840.55 419 921.5"/><polygon class="cls-1" points="474.12 634.61 474.78 677.11 427.63 689.73 426.97 623.32 474.12 634.61"/></svg>