<svg id="Layer_1" data-name="Layer 1" xmlns="http://www.w3.org/2000/svg" viewBox="0 0 829 1950"><defs><style>.cls-1{fill:#e7e9ea;}</style></defs><title>Front Full</title><polygon class="cls-1" points="363.89 232.61 395.98 281.23 411.85 337.1 374.87 307.62 360.03 254.88 363.89 232.61"/><polygon class="cls-1" points="348.5 268.04 356.41 304.98 309.8 316.41 279.9 305.86 348.5 268.04"/><polygon class="cls-1" points="318.6 329.6 281.66 395.56 241.21 415.79 265.83 435.13 285.18 491.42 330.03 509.88 401.5 474.57 383.68 335.76 318.6 329.6"/><path class="cls-1" d="M246,575.06a7,7,0,0,1,1.62-1L262.31,465l-28.14-40.45-29,42.21L180.53,614.54l2.26,19.83C202.63,613.29,223.34,593.11,246,575.06Z"/><path class="cls-1" d="M186.41,649.89a6.75,6.75,0,0,1-1.7,1.32l3.73,32.8,51.89-55.4,4.8-35.74C224.27,610.5,205,629.85,186.41,649.89Z"/><path class="cls-1" d="M170.85,624.21,181.41,699,142.32,804.51c-3.79-1.75-20.76-8-24.55-9.78,9.26-49,1.53-12,10.79-61Z"/><polygon class="cls-1" points="191.96 699.84 151.43 808.33 179.37 820.37 219.22 742.93 233.29 654.99 191.96 699.84"/><polygon class="cls-1" points="100.77 880.73 112.15 885.98 138.31 815.32 115.03 805.37 100.77 880.73"/><polygon class="cls-1" points="191.08 459.76 177.89 600.47 169.09 495.81 191.08 459.76"/><polygon class="cls-1" points="499.27 120.06 499.27 68.29 471.98 21.23 413.59 2.28 355.27 21.23 327.97 68.29 327.97 120.06 314.8 122.88 320.44 168.06 342.09 175.59 365.62 224.53 413.85 245.13 461.62 224.53 485.15 175.59 506.8 168.06 512.45 122.88 499.27 120.06"/><polygon class="cls-1" points="480.63 268.04 472.72 304.98 519.33 316.41 549.23 305.86 480.63 268.04"/><polygon class="cls-1" points="510.53 329.6 547.47 395.56 587.92 415.79 563.3 435.13 543.95 491.42 499.1 509.88 427.63 474.57 445.45 335.76 510.53 329.6"/><path class="cls-1" d="M583.1,575.06a6.83,6.83,0,0,0-1.63-1L566.82,465,595,424.58l29,42.21L648.6,614.54l-2.26,19.83C626.5,613.29,605.79,593.11,583.1,575.06Z"/><path class="cls-1" d="M642.72,649.89a6.75,6.75,0,0,0,1.7,1.32L640.69,684l-51.89-55.4L584,592.87C604.86,610.5,624.14,629.85,642.72,649.89Z"/><polygon class="cls-1" points="638.05 459.76 651.24 600.47 660.03 495.81 638.05 459.76"/><path class="cls-1" d="M565.59,310.21l16.18-8.75,50.62,56,.28,21.32S566.57,310.71,565.59,310.21Z"/><path class="cls-1" d="M560.45,312.53c0,1.12,71.06,75.71,71.06,75.71l2.14,66.24L609,412.27,561.54,392l-33.42-61.56Z"/><path class="cls-1" d="M263.54,310.21l-16.18-8.75-50.62,56-.28,21.32S262.56,310.71,263.54,310.21Z"/><path class="cls-1" d="M268.68,312.53c0,1.12-71.06,75.71-71.06,75.71l-2.14,66.24,24.62-42.21L267.59,392,301,330.48Z"/><polygon class="cls-1" points="464.42 232.61 432.33 281.23 416.47 337.1 453.44 307.62 466.28 254.03 464.42 232.61"/><polygon class="cls-1" points="295.91 1338.54 293.25 1362.45 311.85 1385.47 318.05 1421.77 330.44 1427.09 341.07 1372.19 348.15 1352.71 341.95 1340.31 295.91 1338.54"/><polygon class="cls-1" points="533.22 1338.54 535.88 1362.45 517.28 1385.47 511.08 1421.77 498.69 1427.09 488.06 1372.19 480.98 1352.71 487.18 1340.31 533.22 1338.54"/><polygon class="cls-1" points="277.12 897.38 335.32 1025.52 348.55 1129.29 323.74 1275.27 269.98 1126.65 266.67 973.63 276.44 897.48 277.12 897.38"/><polygon class="cls-1" points="269.69 1171.09 262.24 1135.44 313.52 1276.15 305.78 1296.07 282.99 1234.78 269.69 1171.09"/><polygon class="cls-1" points="351.19 1083.31 352.57 1086.6 378.45 1148.38 361.74 1301.4 335.36 1287.33 358.23 1144.87 351.19 1083.31"/><polygon class="cls-1" points="477.94 1083.31 476.56 1086.6 450.68 1148.38 467.38 1301.4 493.77 1287.33 470.9 1144.87 477.94 1083.31"/><polygon class="cls-1" points="551.67 899.39 493.47 1027.53 480.24 1131.3 505.05 1277.28 558.81 1128.66 562.12 975.64 552.35 899.49 551.67 899.39"/><polygon class="cls-1" points="559.11 1173.1 566.55 1137.45 515.27 1278.16 523.01 1298.08 545.8 1236.78 559.11 1173.1"/><polygon class="cls-1" points="261.97 782.86 231.15 895.5 246.29 897.96 276.06 891.32 316.52 887.55 336.76 862.6 326.81 837.75 302.12 830.34 261.97 782.86"/><polygon class="cls-1" points="566.82 784.87 597.64 897.51 582.5 899.97 552.73 893.33 512.27 889.56 492.03 864.61 501.98 839.76 526.67 832.35 566.82 784.87"/><polygon class="cls-1" points="319.36 893.33 286.44 896.24 344.71 1011.19 384.41 1134.31 380.27 1049.01 319.36 893.33"/><polygon class="cls-1" points="383.84 918.21 384.31 917.62 381.14 909.54 342.61 867.37 329.5 885.62 353.92 948.57 383.84 918.21"/><polygon class="cls-1" points="358.81 961.18 386.06 1031.42 395.16 945.24 389.78 931.55 358.81 961.18"/><polygon class="cls-1" points="470.32 961.18 443.06 1031.42 433.97 945.24 439.35 931.55 470.32 961.18"/><polygon class="cls-1" points="509.44 895.34 542.35 898.25 484.08 1013.2 444.38 1136.32 448.52 1051.02 509.44 895.34"/><polygon class="cls-1" points="444.95 920.22 444.48 919.63 447.65 911.55 486.18 869.38 499.3 887.63 474.87 950.58 444.95 920.22"/><polygon class="cls-1" points="244.87 906.4 265.13 900.25 257.44 965.9 256.21 1134.31 282.87 1263.9 282.58 1325.33 290.55 1399.76 280.2 1395.91 269.29 1421.48 269.73 1249.72 244.34 1134.31 227.26 903.02 244.87 906.4"/><polygon class="cls-1" points="583.92 908.41 563.66 902.26 571.35 967.91 572.58 1136.32 545.92 1265.9 546.22 1327.34 538.24 1401.77 548.59 1397.92 559.5 1423.49 559.06 1251.73 584.46 1136.32 601.53 905.03 583.92 908.41"/><polygon class="cls-1" points="299.79 557.87 327.39 573.2 324.2 536.86 299.79 557.87"/><polygon class="cls-1" points="322.25 523.05 269.35 501.09 289.27 554.7 322.25 523.05"/><polygon class="cls-1" points="289.58 559.99 325.63 581.98 331.79 625.95 296.61 603.09 289.58 559.99"/><polygon class="cls-1" points="298.37 613.66 330.03 635.64 334.43 680.49 299.25 652.35 298.37 613.66"/><polygon class="cls-1" points="333.54 704.33 294.84 675.31 291.48 714.3 264.03 764.77 306.29 822.96 328.27 826.48 336.19 743.81 333.54 704.33"/><polygon class="cls-1" points="529.35 557.87 501.74 573.2 504.93 536.86 529.35 557.87"/><polygon class="cls-1" points="506.88 523.05 559.78 501.09 539.86 554.7 506.88 523.05"/><polygon class="cls-1" points="539.55 559.99 503.5 581.98 497.34 625.95 532.52 603.09 539.55 559.99"/><polygon class="cls-1" points="530.76 613.66 499.1 635.64 494.7 680.49 529.88 652.35 530.76 613.66"/><polygon class="cls-1" points="495.59 704.33 534.29 675.31 537.65 714.3 565.1 764.77 522.84 822.96 500.86 826.48 492.94 743.81 495.59 704.33"/><polygon class="cls-1" points="341.07 522.38 407.48 492.5 405.48 540.98 345.71 571.52 341.07 522.38"/><polygon class="cls-1" points="351.69 583.48 353.02 618.01 402.16 607.38 404.82 560.24 351.69 583.48"/><polygon class="cls-1" points="410.13 921.5 397.19 795.77 396.87 713.91 350.26 691.05 344.98 840.55 410.13 921.5"/><polygon class="cls-1" points="355.01 634.61 354.35 677.11 401.5 689.73 402.16 623.32 355.01 634.61"/><polygon class="cls-1" points="488.06 522.38 421.65 492.5 423.65 540.98 483.42 571.52 488.06 522.38"/><polygon class="cls-1" points="477.44 583.48 476.11 618.01 426.97 607.38 424.31 560.24 477.44 583.48"/><polygon class="cls-1" points="419 921.5 431.94 795.77 432.26 713.91 478.87 691.05 484.15 840.55 419 921.5"/><polygon class="cls-1" points="474.12 634.61 474.78 677.11 427.63 689.73 426.97 623.32 474.12 634.61"/><path class="cls-1" d="M131.78,957.42l1.33,24.84-17.7,70.84-11.52-.89,11.18-47.15-11.95-.33-18.71,50.14-14.16-1.77,17.6-50.7-12.29-2.32L51.65,1054l-17.71-1.77L58.29,996.1l-8.41-5-30.1,47.81-15.06-1.77,45.16-85.89-4.43-7.08L3,961.9.3,952.16l34.53-31,27.53-11.59L84.23,953Z"/><polygon class="cls-1" points="74.49 905.08 91.69 938.37 131.29 941.27 131.29 919.25 112.78 900.72 92.89 892.96 74.49 905.08"/><path class="cls-1" d="M697.71,957.42l-1.33,24.84,17.71,70.84,11.51-.89-11.17-47.15,12-.33,18.7,50.14,14.17-1.77-17.6-50.7,12.29-2.32,23.91,53.9,17.7-1.77L771.2,996.1l8.42-5,30.1,47.81,15-1.77-45.15-85.89,4.42-7.08,42.51,17.71,2.65-9.74-34.53-31-27.53-11.59L745.27,953Z"/><polygon class="cls-1" points="120.17 892 135.42 905.82 174.22 830.38 147.6 818.57 120.17 892"/><path class="cls-1" d="M659.3,626.14l-10.55,74.75,39.09,105.54c3.79-1.75,20.75-8,24.54-9.77-9.26-49-1.52-12-10.78-60.95Z"/><polygon class="cls-1" points="638.2 701.77 678.73 810.25 650.79 822.3 610.93 744.86 596.86 656.91 638.2 701.77"/><polygon class="cls-1" points="729.38 882.66 718.01 887.91 691.84 817.25 715.13 807.29 729.38 882.66"/><polygon class="cls-1" points="755.66 907.01 738.46 940.29 698.86 943.2 698.86 921.18 717.38 902.64 737.27 894.89 755.66 907.01"/><polygon class="cls-1" points="709.99 893.92 694.73 907.75 655.94 832.3 682.56 820.5 709.99 893.92"/><polygon class="cls-1" points="365.61 1857.58 363.74 1909.2 358.82 1929.6 344.06 1929.6 339.84 1915.53 334.91 1914.83 335.97 1928.89 317.33 1923.27 312.41 1920.45 291.32 1915.88 290.61 1899.36 311.01 1864.9 321.82 1851.39 344.77 1864.44 365.61 1857.58"/><polygon class="cls-1" points="461.39 1856.58 463.26 1908.2 468.18 1928.6 482.95 1928.6 487.17 1914.53 492.09 1913.83 491.04 1927.89 509.67 1922.27 514.59 1919.45 535.69 1914.88 536.39 1898.36 516 1863.9 505.19 1850.39 482.24 1863.44 461.39 1856.58"/><polygon class="cls-1" points="316.31 1815.12 315.51 1823.26 324.85 1841.53 344.31 1854.24 364.3 1847.68 358.01 1828.64 316.31 1815.12"/><polygon class="cls-1" points="510.7 1814.12 511.49 1822.26 502.16 1840.53 482.7 1853.24 462.71 1846.68 469 1827.64 510.7 1814.12"/><polygon class="cls-1" points="363.22 1482.74 357.02 1502.22 343.74 1584.57 341.97 1694.37 360.56 1801.51 359.68 1664.26 379.16 1609.36 381.81 1549.15 363.22 1482.74"/><polygon class="cls-1" points="465.94 1482.74 472.14 1502.22 485.42 1584.57 487.19 1694.37 468.6 1801.51 469.49 1664.26 450.01 1609.36 447.35 1549.15 465.94 1482.74"/><polygon class="cls-1" points="320.72 1532.33 325.15 1697.02 357 1816.48 320.26 1805.26 257.85 1581.03 279.99 1435.82 320.72 1532.33"/><polygon class="cls-1" points="507.78 1532.33 503.35 1697.02 471.5 1816.48 508.24 1805.26 570.65 1581.03 548.51 1435.82 507.78 1532.33"/><polygon class="cls-1" points="378.27 1364.09 364.99 1401.28 336.66 1456.18 343.74 1506.65 364.11 1449.98 380.93 1418.11 378.27 1364.09"/><polygon class="cls-1" points="450.89 1364.09 464.17 1401.28 492.51 1456.18 485.42 1506.65 465.06 1449.98 448.24 1418.11 450.89 1364.09"/></svg>