<svg id="Layer_1" data-name="Layer 1" xmlns="http://www.w3.org/2000/svg" viewBox="0 0 829 1950"><defs><style>.cls-1{fill:#e7e9ea;}</style></defs><title>Lower Back</title><polygon class="cls-1" points="302.13 656.77 340.71 714.98 328.53 740.7 285.89 745.43 302.13 656.77"/><polygon class="cls-1" points="339.36 753.55 389.45 807.7 372.52 806.35 312.29 808.38 244.6 859.14 279.8 759.65 339.36 753.55"/><polygon class="cls-1" points="528.2 656.77 489.62 714.98 501.8 740.7 544.45 745.43 528.2 656.77"/><polygon class="cls-1" points="433.28 678.42 415.68 626.98 396.73 677.97 366.74 752.88 417.5 813.06 465.56 752.88 433.28 678.42"/><polygon class="cls-1" points="490.97 753.55 440.89 807.7 457.81 806.35 518.05 808.38 585.73 859.14 550.54 759.65 490.97 753.55"/></svg>