<svg xmlns="http://www.w3.org/2000/svg" xmlns:xlink="http://www.w3.org/1999/xlink" viewBox="0 0 874.68 874.68"><defs><style>.cls-1{fill:none;}.cls-2{clip-path:url(#clip-path);}.cls-3{fill:#f7f7f7;}.cls-4{fill:#d9dadb;}.cls-5{fill:#e0af12;}</style><clipPath id="clip-path"><circle class="cls-1" cx="437.34" cy="437.34" r="437.34"/></clipPath></defs><title>Abs</title><g id="Front_Abs" data-name="Front Abs"><g class="cls-2"><circle class="cls-3" cx="437.34" cy="437.34" r="437.34"/><polygon class="cls-4" points="342.77 -41.34 306.01 24.31 265.75 44.44 290.26 63.69 309.51 119.7 354.15 138.08 425.27 102.94 407.54 -35.21 342.77 -41.34"/><path class="cls-4" d="M270.55,203a6.77,6.77,0,0,1,1.62-1L286.76,93.45l-28-40.26-28.88,42-24.51,147L207.61,262C227.36,241,248,220.91,270.55,203Z"/><path class="cls-4" d="M211.21,277.42a6.76,6.76,0,0,1-1.69,1.32l3.72,32.64,51.63-55.14,4.78-35.56C248.89,238.22,229.71,257.47,211.21,277.42Z"/><polygon class="cls-4" points="216.74 327.13 144.83 521.29 167.74 526.58 243.87 370.02 257.87 282.5 216.74 327.13"/><polygon class="cls-4" points="195.73 251.86 206.24 326.26 137.78 508.95 127.2 501.91 153.64 360.91 195.73 251.86"/><polygon class="cls-4" points="215.86 88.2 202.73 228.23 193.98 124.08 215.86 88.2"/><polygon class="cls-4" points="114.92 506.75 126.38 534.07 159.86 539.35 162.51 588.7 144.88 659.2 133.43 658.32 144.55 611.39 132.66 611.06 114.04 660.96 99.94 659.2 117.45 608.75 105.23 606.44 81.44 660.08 63.81 658.32 88.04 602.47 79.67 597.51 49.71 645.1 34.73 643.34 79.67 557.86 75.27 550.81 32.97 568.43 30.32 558.74 64.69 527.9 114.92 506.75"/><polygon class="cls-4" points="533.78 -41.34 570.54 24.31 610.8 44.44 586.3 63.69 567.04 119.7 522.41 138.08 451.28 102.94 469.02 -35.21 533.78 -41.34"/><path class="cls-4" d="M606,203a7.19,7.19,0,0,0-1.62-1L589.8,93.45l28-40.26,28.88,42,24.5,147L669,262C649.19,241,628.59,220.91,606,203Z"/><path class="cls-4" d="M665.34,277.42a6.8,6.8,0,0,0,1.7,1.32l-3.72,32.64-51.64-55.14-4.78-35.56C627.67,238.22,646.85,257.47,665.34,277.42Z"/><polygon class="cls-4" points="659.82 327.13 731.73 521.29 708.82 526.58 632.68 370.02 618.68 282.5 659.82 327.13"/><polygon class="cls-4" points="680.82 251.86 670.32 326.26 738.78 508.95 749.35 501.91 722.91 360.91 680.82 251.86"/><polygon class="cls-4" points="660.69 88.2 673.82 228.23 682.57 124.08 660.69 88.2"/><polygon class="cls-4" points="761.63 506.75 750.18 534.07 716.69 539.35 714.05 588.7 731.67 659.2 743.13 658.32 732 611.39 743.9 611.06 762.51 660.96 776.61 659.2 759.1 608.75 771.33 606.44 795.12 660.08 812.74 658.32 788.51 602.47 796.88 597.51 826.84 645.1 841.82 643.34 796.88 557.86 801.29 550.81 843.59 568.43 846.23 558.74 811.86 527.9 761.63 506.75"/><path class="cls-4" d="M588.58-60.63l16.1-8.71L655.06-13.6l.28,21.22S589.55-60.14,588.58-60.63Z"/><path class="cls-4" d="M583.46-58.33c0,1.12,70.72,75.35,70.72,75.35L656.32,83l-24.51-42L584.55,20.8,551.29-40.46Z"/><path class="cls-4" d="M288-60.63l-16.09-8.71L221.49-13.6l-.27,21.22S287-60.14,288-60.63Z"/><path class="cls-4" d="M293.09-58.33c0,1.12-70.72,75.35-70.72,75.35L220.24,83l24.5-42L292,20.8l33.25-61.26Z"/><polygon class="cls-4" points="301.49 523.73 359.41 651.25 372.58 754.52 347.89 899.81 294.38 751.9 291.09 599.61 300.81 523.82 301.49 523.73"/><polygon class="cls-4" points="294.09 796.12 286.68 760.65 337.72 900.68 330.02 920.51 307.33 859.51 294.09 796.12"/><polygon class="cls-4" points="375.21 708.76 376.58 712.04 402.34 773.53 385.71 925.82 359.45 911.81 382.21 770.03 375.21 708.76"/><polygon class="cls-4" points="501.35 708.76 499.97 712.04 474.22 773.53 490.85 925.82 517.1 911.81 494.35 770.03 501.35 708.76"/><polygon class="cls-4" points="574.73 525.73 516.81 653.25 503.64 756.52 528.33 901.81 581.83 753.9 585.13 601.61 575.41 525.82 574.73 525.73"/><polygon class="cls-4" points="582.13 798.12 589.53 762.65 538.5 902.68 546.2 922.51 568.89 861.51 582.13 798.12"/><polygon class="cls-4" points="286.41 409.75 255.74 521.85 270.81 524.3 300.44 517.69 340.7 513.94 360.84 489.11 350.94 464.38 326.37 457.01 286.41 409.75"/><polygon class="cls-4" points="589.8 411.75 620.48 523.85 605.41 526.3 575.78 519.69 535.52 515.94 515.37 491.11 525.28 466.38 549.85 459.01 589.8 411.75"/><polygon class="cls-4" points="343.52 519.7 310.76 522.59 368.76 637 408.27 759.52 404.15 674.63 343.52 519.7"/><polygon class="cls-4" points="407.7 544.46 408.17 543.87 405.01 535.83 366.67 493.86 353.61 512.02 377.92 574.67 407.7 544.46"/><polygon class="cls-4" points="382.79 587.22 409.91 657.12 418.97 571.35 413.61 557.73 382.79 587.22"/><polygon class="cls-4" points="493.76 587.22 466.64 657.12 457.59 571.35 462.94 557.73 493.76 587.22"/><polygon class="cls-4" points="532.69 521.7 565.45 524.59 507.46 639 467.95 761.52 472.07 676.63 532.69 521.7"/><polygon class="cls-4" points="468.52 546.46 468.05 545.87 471.21 537.83 509.55 495.86 522.6 514.02 498.3 576.67 468.52 546.46"/><polygon class="cls-4" points="269.39 532.7 289.56 526.58 281.91 591.92 280.68 759.52 307.21 888.49 306.92 949.63 314.86 1023.7 304.56 1019.87 293.69 1045.32 294.13 874.38 268.86 759.52 251.87 529.34 269.39 532.7"/><polygon class="cls-4" points="606.83 534.7 586.66 528.58 594.31 593.92 595.54 761.52 569 890.49 569.3 951.63 561.36 1025.7 571.66 1021.87 582.52 1047.32 582.08 876.38 607.35 761.52 624.34 531.34 606.83 534.7"/><polygon class="cls-5" points="324.05 185.84 351.52 201.1 348.35 164.93 324.05 185.84"/><polygon class="cls-5" points="346.4 151.18 293.76 129.33 313.58 182.69 346.4 151.18"/><polygon class="cls-5" points="313.89 187.95 349.77 209.83 355.9 253.59 320.89 230.84 313.89 187.95"/><polygon class="cls-5" points="322.64 241.36 354.15 263.24 358.52 307.88 323.51 279.87 322.64 241.36"/><polygon class="cls-5" points="357.64 331.6 319.13 302.72 315.78 341.52 288.46 391.75 330.52 449.66 352.4 453.16 360.27 370.89 357.64 331.6"/><polygon class="cls-5" points="552.51 185.84 525.03 201.1 528.21 164.93 552.51 185.84"/><polygon class="cls-5" points="530.15 151.18 582.8 129.33 562.98 182.69 530.15 151.18"/><polygon class="cls-5" points="562.67 187.95 526.78 209.83 520.66 253.59 555.67 230.84 562.67 187.95"/><polygon class="cls-5" points="553.91 241.36 522.41 263.24 518.03 307.88 553.04 279.87 553.91 241.36"/><polygon class="cls-5" points="518.92 331.6 557.43 302.72 560.77 341.52 588.09 391.75 546.04 449.66 524.16 453.16 516.28 370.89 518.92 331.6"/><polygon class="cls-5" points="365.13 150.52 431.22 120.78 429.24 169.03 369.76 199.43 365.13 150.52"/><polygon class="cls-5" points="375.7 211.33 377.03 245.69 425.93 235.12 428.58 188.19 375.7 211.33"/><polygon class="cls-5" points="433.87 547.73 420.99 422.6 420.66 341.13 374.28 318.38 369.03 467.17 433.87 547.73"/><polygon class="cls-5" points="379.01 262.22 378.35 304.51 425.27 317.07 425.93 250.98 379.01 262.22"/><polygon class="cls-5" points="511.42 150.52 445.33 120.78 447.32 169.03 506.8 199.43 511.42 150.52"/><polygon class="cls-5" points="500.85 211.33 499.53 245.69 450.62 235.12 447.98 188.19 500.85 211.33"/><polygon class="cls-5" points="442.69 547.73 455.57 422.6 455.89 341.13 502.28 318.38 507.53 467.17 442.69 547.73"/><polygon class="cls-5" points="497.55 262.22 498.21 304.51 451.28 317.07 450.62 250.98 497.55 262.22"/></g></g></svg>