<svg xmlns="http://www.w3.org/2000/svg" xmlns:xlink="http://www.w3.org/1999/xlink" viewBox="0 0 874.68 861.07"><defs><style>.cls-1{fill:none;}.cls-2{clip-path:url(#clip-path);}.cls-3{fill:#f7f7f7;}.cls-4{fill:#d9dadb;}.cls-5{fill:#e0af12;}.cls-6{clip-path:url(#clip-path-2);}.cls-7{clip-path:url(#clip-path-3);}</style><clipPath id="clip-path"><circle class="cls-1" cx="441.02" cy="430.53" r="430.53"/></clipPath><clipPath id="clip-path-2"><circle class="cls-1" cx="-50.92" cy="-519.42" r="430.53"/></clipPath><clipPath id="clip-path-3"><circle class="cls-1" cx="908.25" cy="-519.42" r="437.34"/></clipPath></defs><title>Both Ankle</title><g id="Front_Left_Ankle" data-name="Front Left Ankle"><g class="cls-2"><circle class="cls-3" cx="360.73" cy="336.46" r="721.44"/><polygon class="cls-4" points="352.31 -176.1 340.91 -140.26 316.48 11.22 313.22 213.2 347.42 410.3 345.8 157.82 381.63 56.83 386.52 -53.93 352.31 -176.1"/><polygon class="cls-4" points="541.28 -176.1 552.68 -140.26 577.12 11.22 580.37 213.2 546.17 410.3 547.8 157.82 511.96 56.83 507.07 -53.93 541.28 -176.1"/><polygon class="cls-4" points="390.84 522.02 386.52 641.6 375.12 688.84 340.91 688.84 331.13 656.26 319.73 654.63 322.18 687.21 279.01 674.18 267.61 667.66 218.74 657.07 217.11 618.79 264.35 538.98 289.4 507.67 342.56 537.91 390.84 522.02"/><polygon class="cls-4" points="501.53 522.02 505.85 641.6 517.25 688.84 551.46 688.84 561.23 656.26 572.63 654.63 570.19 687.21 613.36 674.18 624.76 667.66 673.63 657.07 675.25 618.79 628.02 538.98 602.97 507.67 549.81 537.91 501.53 522.02"/><polygon class="cls-5" points="276.63 432.92 274.79 451.78 296.41 494.1 341.49 523.54 387.8 508.36 373.23 464.25 276.63 432.92"/><polygon class="cls-5" points="615.74 432.92 617.58 451.78 595.96 494.1 550.88 523.54 504.57 508.36 519.14 464.25 615.74 432.92"/><polygon class="cls-4" points="274.12 -84.88 282.27 218.09 340.87 437.85 273.28 417.21 158.47 4.71 199.2 -262.43 274.12 -84.88"/><polygon class="cls-4" points="618.24 -84.88 610.1 218.09 551.5 437.85 619.09 417.21 733.89 4.71 693.17 -262.43 618.24 -84.88"/></g><g class="cls-6"><circle class="cls-3" cx="-131.21" cy="-613.5" r="721.44"/></g></g><g id="Front_Right_Ankle" data-name="Front Right Ankle"><g class="cls-7"><circle class="cls-3" cx="864.1" cy="-607.63" r="732.85"/></g></g></svg>