<svg xmlns="http://www.w3.org/2000/svg" xmlns:xlink="http://www.w3.org/1999/xlink" viewBox="0 0 875.43 877.94"><defs><style>.cls-1{fill:none;}.cls-2{fill:#f7f7f7;}.cls-3{clip-path:url(#clip-path);}.cls-4{fill:#d9dadb;}.cls-5{fill:#e0af12;}.cls-6{clip-path:url(#clip-path-2);}.cls-7{clip-path:url(#clip-path-3);}.cls-8{clip-path:url(#clip-path-4);}.cls-9{clip-path:url(#clip-path-5);}</style><clipPath id="clip-path"><circle class="cls-1" cx="438.09" cy="438.49" r="437.34"/></clipPath><clipPath id="clip-path-2"><circle class="cls-1" cx="0.75" cy="1346.5" r="437.34"/></clipPath><clipPath id="clip-path-3"><circle class="cls-1" cx="903.5" cy="1345.12" r="437.34"/></clipPath><clipPath id="clip-path-4"><circle class="cls-1" cx="901.16" cy="-926.09" r="437.34"/></clipPath><clipPath id="clip-path-5"><circle class="cls-1" cx="0.37" cy="-925.07" r="437.34"/></clipPath></defs><title>v</title><g id="Back_Low_Back" data-name="Back Low Back"><circle class="cls-2" cx="438.09" cy="441.49" r="437.34"/><g class="cls-3"><polygon class="cls-4" points="326.09 337.54 364.14 394.94 352.12 420.3 310.07 424.97 326.09 337.54"/><polygon class="cls-4" points="362.8 432.98 412.19 486.38 395.51 485.05 336.1 487.05 269.36 537.11 304.06 438.99 362.8 432.98"/><polygon class="cls-4" points="549.03 337.54 510.98 394.94 523 420.3 565.04 424.97 549.03 337.54"/><polygon class="cls-4" points="455.42 358.89 438.06 308.17 419.38 358.45 389.8 432.31 439.86 491.66 487.25 432.31 455.42 358.89"/><polygon class="cls-4" points="512.32 432.98 462.92 486.38 479.61 485.05 539.01 487.05 605.76 537.11 571.05 438.99 512.32 432.98"/><polygon class="cls-4" points="398.85 -100.99 392.84 -38.25 313.41 -0.87 396.84 9.14 433.55 -18.89 426.21 -123.02 398.85 -100.99"/><polygon class="cls-4" points="302.73 165.33 301.39 206.04 328.09 315.51 374.15 370.91 367.47 423.64 372.81 426.98 406.86 357.56 412.86 282.8 369.48 184.02 327.43 182.01 306.07 164.66 302.73 165.33"/><polygon class="cls-4" points="476.27 -100.99 482.28 -38.25 561.71 -0.87 478.27 9.14 441.56 -18.89 448.91 -123.02 476.27 -100.99"/><polygon class="cls-4" points="335.44 39.84 330.1 55.86 305.4 67.21 292.72 111.93 234.65 159.99 233.98 64.54 268.69 11.14 297.39 4.47 335.44 39.84"/><polygon class="cls-4" points="320.08 13.15 353.46 41.85 377.49 181.35 426.88 280.8 426.88 49.86 389.5 21.82 320.08 13.15"/><polygon class="cls-4" points="346.78 57.2 368.81 171.34 320.08 167.33 288.71 129.95 308.07 109.26 312.74 81.23 346.78 57.2"/><polygon class="cls-4" points="539.68 39.84 545.02 55.86 569.72 67.21 582.4 111.93 640.47 159.99 641.14 64.54 606.43 11.14 577.73 4.47 539.68 39.84"/><polygon class="cls-4" points="555.03 13.15 521.66 41.85 497.63 181.35 448.24 280.8 448.24 49.86 485.62 21.82 555.03 13.15"/><polygon class="cls-4" points="528.34 57.2 506.31 171.34 555.03 167.33 586.4 129.95 567.05 109.26 562.38 81.23 528.34 57.2"/><polygon class="cls-4" points="600.42 140.63 582.4 159.32 585.74 283.47 618.12 346.91 639.65 356.43 664.82 313.23 664.82 313.23 665.16 269.45 649.15 174.01 600.42 140.63"/><polygon class="cls-4" points="572.39 165.33 573.72 206.04 547.02 315.51 500.97 370.91 507.64 423.64 502.3 426.98 468.26 357.56 462.25 282.8 505.64 184.02 547.69 182.01 569.05 164.66 572.39 165.33"/><polygon class="cls-4" points="129.71 564.48 141.44 592.45 175.72 597.86 178.42 648.38 160.38 720.55 148.65 719.64 160.04 671.61 147.86 671.27 128.81 722.35 114.37 720.55 132.3 668.9 119.78 666.53 95.43 721.45 77.39 719.64 102.19 662.47 93.62 657.4 62.95 706.11 47.62 704.31 93.62 616.8 89.11 609.59 45.81 627.63 43.1 617.7 78.29 586.13 129.71 564.48"/><polygon class="cls-4" points="748.08 564.48 736.35 592.45 702.07 597.86 699.36 648.38 717.41 720.55 729.13 719.64 717.75 671.61 729.92 671.27 748.98 722.35 763.41 720.55 745.49 668.9 758 666.53 782.36 721.45 800.4 719.64 775.59 662.47 784.16 657.4 814.84 706.11 830.17 704.31 784.16 616.8 788.67 609.59 831.98 627.63 834.68 617.7 799.5 586.13 748.08 564.48"/><polygon class="cls-4" points="617.77 385.91 618.44 442.99 696.11 557.35 651.82 406.64 617.77 385.91"/><polygon class="cls-4" points="681.51 354.2 659.16 402.28 717.46 585.83 728.73 576.97 721.02 502.18 713.9 454.12 681.51 354.2"/><polygon class="cls-4" points="287.38 724 335.44 697.97 409.52 679.28 424.21 637.23 422.87 529.76 396.84 494.39 349.45 493.72 279.37 552.46 278.7 583.48 265.23 647.27 269.36 705.64 287.38 724"/><polygon class="cls-4" points="587.74 724 539.68 697.97 465.59 679.28 450.91 637.23 452.24 529.76 478.27 494.39 525.66 493.72 595.75 552.46 596.41 583.48 609.88 647.27 605.76 705.64 587.74 724"/><polygon class="cls-4" points="337.44 718.66 327.43 883.52 343.45 958.28 312.07 1048.39 278.7 890.2 295.39 730.67 337.44 718.66"/><polygon class="cls-4" points="374.82 709.31 395.51 764.05 403.52 908.22 426.21 769.38 423.54 681.95 374.82 709.31"/><polygon class="cls-4" points="359.46 714.65 334.77 881.52 362.8 1022.35 400.85 1101.78 404.85 932.91 378.15 864.16 376.82 759.37 359.46 714.65"/><polygon class="cls-4" points="278.7 828.98 287.48 733.06 265.23 717.3 265.23 743.57 278.7 828.98"/><polygon class="cls-4" points="537.68 718.66 547.69 883.52 531.67 958.28 563.04 1048.39 596.42 890.2 579.73 730.67 537.68 718.66"/><polygon class="cls-4" points="516.39 714.65 541.09 881.52 513.06 1022.35 475.01 1101.78 471.01 932.91 497.7 864.16 499.04 759.37 516.39 714.65"/><polygon class="cls-4" points="500.3 709.31 479.61 764.05 471.6 908.22 448.91 769.38 451.58 681.95 500.3 709.31"/><polygon class="cls-4" points="597.81 828.98 589.04 733.06 611.28 717.3 611.28 743.57 597.81 828.98"/><polygon class="cls-4" points="273.69 142.91 291.71 161.59 288.38 285.74 255.99 349.18 234.47 358.71 209.29 315.5 209.29 315.5 208.95 271.73 224.97 176.28 273.69 142.91"/><polygon class="cls-4" points="256.34 388.18 255.67 445.27 178.01 559.63 222.29 408.92 256.34 388.18"/><polygon class="cls-4" points="192.6 356.47 214.96 404.55 156.65 588.11 145.38 579.25 153.09 504.45 160.21 456.39 192.6 356.47"/><polygon class="cls-5" points="620.31 357.51 616.04 374.67 652.22 396.65 677.34 345.25 665.23 328.08 642.47 368.12 620.31 357.51"/><polygon class="cls-5" points="253.87 360.06 258.14 377.22 221.95 399.2 196.83 347.81 208.95 330.63 231.71 370.67 253.87 360.06"/></g></g><g id="Front_Abs" data-name="Front Abs"><g class="cls-6"><polygon class="cls-4" points="87.73 722.92 86.4 650.17 51.69 608.79 2.3 599.44 -49.77 608.79 -84.47 650.17 -85.81 722.92 -103.83 728.26 -97.16 766.31 -82.47 774.99 -64.45 772.98 -48.43 809.03 -27.07 780.99 2.3 772.29 28.99 780.99 50.35 809.03 66.37 772.98 84.39 774.99 99.08 766.31 105.75 728.26 87.73 722.92"/><polygon class="cls-4" points="38.93 807.02 44.94 869.77 124.37 907.14 40.94 917.16 4.22 889.12 11.57 785 38.93 807.02"/></g><g class="cls-7"><polygon class="cls-4" points="864.25 805.64 858.25 868.38 778.82 905.76 862.25 915.77 898.96 887.74 891.62 783.61 864.25 805.64"/><polygon class="cls-4" points="990.48 721.54 989.14 648.78 954.43 607.4 905.04 598.05 852.98 607.4 818.27 648.78 816.94 721.54 798.92 726.88 805.59 764.92 820.27 773.6 838.3 771.6 854.32 807.64 875.67 779.61 905.04 770.9 931.74 779.61 953.1 807.64 969.12 771.6 987.14 773.6 1001.83 764.92 1008.5 726.88 990.48 721.54"/></g></g><g id="Left_Shoulder" data-name="Left Shoulder"><g class="cls-8"><polygon class="cls-4" points="809.18 647.19 825.7 661.24 823.22 683.54 789.66 640.21 794.02 635.07 809.18 647.19"/><polygon class="cls-4" points="794.68 632.67 816.24 625.45 823.74 641.53 827.64 657.1 826.28 658.87 794.68 632.67"/><polygon class="cls-4" points="849.62 657.5 849.62 654.92 851.25 647.52 861.22 655.5 862.78 664.83 861.63 675.72 849.62 657.5"/><polygon class="cls-4" points="800.51 -209.45 790.5 -44.59 806.52 30.17 775.14 120.27 741.77 -37.91 758.46 -197.44 800.51 -209.45"/><polygon class="cls-4" points="822.53 -213.46 797.84 -46.59 825.87 94.24 863.92 173.67 867.92 4.8 841.22 -63.95 839.89 -168.74 822.53 -213.46"/><polygon class="cls-4" points="827.55 684.73 861.22 682.54 846.05 658.58 855.23 611.05 835.2 617.5 818.23 615.8 831.19 661.6 827.55 684.73"/><polygon class="cls-4" points="825.22 139.76 829.56 363.41 867.97 406.77 886.55 378.9 887.79 318.8 871.06 228.97 825.22 139.76"/><polygon class="cls-4" points="813.45 126.75 810.97 309.51 821.5 378.9 803.54 393.76 771.94 329.33 780 204.81 795.48 154.01 796.72 117.46 813.45 126.75"/><polygon class="cls-4" points="826.46 386.95 808.49 403.06 835.75 532.54 837.59 611.05 855.67 605.93 857.43 533.77 870.45 442.09 866.73 421.02 826.46 386.95"/><polygon class="cls-4" points="812.21 477.4 828.94 560.41 829.84 578.85 833.2 612.16 818.23 611.05 809.99 579.18 804.16 544.93 804.16 467.49 812.21 477.4"/></g></g><g id="Right_Shoulder" data-name="Right Shoulder"><g class="cls-9"><polygon class="cls-4" points="92.41 648.97 75.89 663.01 78.36 685.31 111.93 641.98 107.57 636.84 92.41 648.97"/><polygon class="cls-4" points="106.91 634.44 85.34 627.22 77.84 643.31 73.94 658.87 75.31 660.65 106.91 634.44"/><polygon class="cls-4" points="51.97 659.27 51.97 656.69 50.34 649.29 40.37 657.28 38.8 666.61 39.96 677.49 51.97 659.27"/><polygon class="cls-4" points="99.97 -208.43 109.98 -43.57 93.96 31.19 125.33 121.29 158.7 -36.9 142.02 -196.42 99.97 -208.43"/><polygon class="cls-4" points="78.68 -212.44 103.38 -45.57 75.34 95.26 37.3 174.69 33.29 5.82 59.99 -62.93 61.33 -167.72 78.68 -212.44"/><polygon class="cls-4" points="73.63 685.75 39.96 683.56 55.13 659.6 45.95 612.07 65.97 618.52 82.94 616.82 69.99 662.62 73.63 685.75"/><polygon class="cls-4" points="76.8 140.78 72.46 364.43 34.05 407.79 15.47 379.92 14.23 319.82 30.95 229.99 76.8 140.78"/><polygon class="cls-4" points="88.57 127.77 91.05 310.53 80.52 379.92 98.48 394.78 130.08 330.36 122.02 205.83 106.54 155.03 105.3 118.48 88.57 127.77"/><polygon class="cls-4" points="74.72 387.97 92.68 404.08 65.42 533.56 63.58 612.07 45.5 606.95 43.74 534.79 30.73 443.11 34.45 422.04 74.72 387.97"/><polygon class="cls-4" points="88.97 478.42 72.24 561.43 71.33 579.87 67.97 613.18 82.94 612.07 91.19 580.2 97.02 545.95 97.02 468.51 88.97 478.42"/></g></g></svg>