<svg xmlns="http://www.w3.org/2000/svg" xmlns:xlink="http://www.w3.org/1999/xlink" viewBox="0 0 874.68 874.68"><defs><style>.cls-1{fill:none;}.cls-2{clip-path:url(#clip-path);}.cls-3{fill:#f7f7f7;}.cls-4{fill:#d9dadb;}.cls-5{fill:#e0af12;}.cls-6{clip-path:url(#clip-path-2);}.cls-7{clip-path:url(#clip-path-3);}</style><clipPath id="clip-path"><circle class="cls-1" cx="437.34" cy="437.34" r="437.34"/></clipPath><clipPath id="clip-path-2"><circle class="cls-1" cy="-512.62" r="437.34"/></clipPath><clipPath id="clip-path-3"><circle class="cls-1" cx="929.64" cy="-512.62" r="437.34"/></clipPath></defs><title>Both Foot</title><g id="Front_Left_Foot" data-name="Front Left Foot"><g class="cls-2"><circle class="cls-3" cx="376.95" cy="355.22" r="732.84"/><polygon class="cls-4" points="337.81 -186.31 326.23 -149.91 301.41 3.96 298.1 209.14 332.85 409.34 331.19 152.88 367.59 50.29 372.56 -62.22 337.81 -186.31"/><polygon class="cls-4" points="529.76 -186.31 541.35 -149.91 566.17 3.96 569.48 209.14 534.73 409.34 536.38 152.88 499.98 50.29 495.02 -62.22 529.76 -186.31"/><polygon class="cls-5" points="376.95 522.84 372.56 644.3 360.97 692.28 326.23 692.28 316.3 659.19 304.72 657.53 307.2 690.63 263.35 677.39 251.77 670.77 202.13 660.02 200.48 621.13 248.46 540.06 273.9 508.25 327.91 538.97 376.95 522.84"/><polygon class="cls-5" points="489.38 522.84 493.78 644.3 505.36 692.28 540.1 692.28 550.03 659.19 561.61 657.53 559.13 690.63 602.98 677.39 614.56 670.77 664.2 660.02 665.86 621.13 617.87 540.06 592.43 508.25 538.43 538.97 489.38 522.84"/><polygon class="cls-4" points="260.93 432.32 259.06 451.48 281.03 494.47 326.82 524.37 373.86 508.95 359.06 464.14 260.93 432.32"/><polygon class="cls-4" points="605.4 432.32 607.27 451.48 585.3 494.47 539.51 524.37 492.47 508.95 507.27 464.14 605.4 432.32"/><polygon class="cls-4" points="258.39 -93.66 266.66 214.1 326.19 437.33 257.53 416.36 140.91 -2.65 182.28 -274.01 258.39 -93.66"/><polygon class="cls-4" points="607.94 -93.66 599.67 214.1 540.14 437.33 608.8 416.36 725.42 -2.65 684.05 -274.01 607.94 -93.66"/></g><g class="cls-6"><circle class="cls-3" cx="-60.39" cy="-594.74" r="732.84"/></g></g><g id="Front_Right_Foot" data-name="Front Right Foot"><g class="cls-7"><circle class="cls-3" cx="843.23" cy="-634.62" r="732.85"/></g></g></svg>