<svg xmlns="http://www.w3.org/2000/svg" xmlns:xlink="http://www.w3.org/1999/xlink" viewBox="0 0 876.43 875.76"><defs><style>.cls-1{fill:none;}.cls-2{fill:#f7f7f7;}.cls-3{clip-path:url(#clip-path);}.cls-4{fill:#d9dadb;}.cls-5{fill:#e0af12;}.cls-6{clip-path:url(#clip-path-2);}.cls-7{clip-path:url(#clip-path-3);}.cls-8{clip-path:url(#clip-path-4);}.cls-9{clip-path:url(#clip-path-5);}</style><clipPath id="clip-path"><circle class="cls-1" cx="426.57" cy="437.12" r="437.34"/></clipPath><clipPath id="clip-path-2"><circle class="cls-1" cx="-20.52" cy="-495.87" r="437.34"/></clipPath><clipPath id="clip-path-3"><circle class="cls-1" cx="875.56" cy="-494.57" r="437.34"/></clipPath><clipPath id="clip-path-4"><circle class="cls-1" cx="-173.42" cy="1602.73" r="437.34"/></clipPath><clipPath id="clip-path-5"><circle class="cls-1" cx="749.34" cy="1602.73" r="437.34"/></clipPath></defs><title>Both Glute</title><g id="Back_Left_Glutes" data-name="Back Left Glutes"><circle class="cls-2" cx="435.6" cy="437.12" r="437.34"/><g class="cls-3"><polygon class="cls-4" points="259.71 -52.78 277.73 -34.09 274.39 90.06 233.01 179.5 204.31 166.82 194.96 76.04 210.98 -19.41 259.71 -52.78"/><polygon class="cls-4" points="287.74 -28.08 286.4 12.63 313.1 122.1 359.16 177.5 352.48 230.23 357.82 233.56 391.87 164.15 397.87 89.39 354.49 -9.39 312.44 -11.4 291.08 -28.75 287.74 -28.08"/><polygon class="cls-4" points="245.02 179.5 244.35 249.58 166.69 363.94 204.97 234.23 245.02 179.5"/><polygon class="cls-4" points="188.29 142.79 203.64 208.87 145.33 392.42 134.06 383.56 141.77 308.76 148.89 260.71 188.29 142.79"/><polygon class="cls-4" points="305.09 -180.27 338.47 -151.56 362.5 -12.06 411.89 87.39 411.89 -143.56 374.51 -171.59 305.09 -180.27"/><polygon class="cls-4" points="540.04 -180.27 506.67 -151.56 482.64 -12.06 433.25 87.39 433.25 -143.56 470.63 -171.59 540.04 -180.27"/><polygon class="cls-4" points="585.43 -52.78 567.41 -34.09 570.75 90.06 612.13 179.5 640.83 166.82 650.17 76.04 634.15 -19.41 585.43 -52.78"/><polygon class="cls-4" points="557.4 -28.08 558.73 12.63 532.03 122.1 485.98 177.5 492.65 230.23 487.31 233.56 453.27 164.15 447.26 89.39 490.65 -9.39 532.7 -11.4 554.06 -28.75 557.4 -28.08"/><polygon class="cls-4" points="114.72 371.07 126.45 399.03 160.73 404.44 163.43 454.96 145.39 527.13 133.66 526.23 145.05 478.19 132.87 477.86 113.82 528.94 99.38 527.13 117.31 475.49 104.8 473.12 80.44 528.04 62.4 526.23 87.2 469.06 78.63 463.99 47.96 512.7 32.63 510.9 78.63 423.39 74.12 416.17 30.82 434.21 28.11 424.29 63.3 392.72 114.72 371.07"/><polygon class="cls-4" points="733.09 371.07 721.36 399.03 687.08 404.44 684.37 454.96 702.42 527.13 714.14 526.23 702.75 478.19 714.93 477.86 733.99 528.94 748.42 527.13 730.5 475.49 743.01 473.12 767.37 528.04 785.41 526.23 760.6 469.06 769.17 463.99 799.85 512.7 815.18 510.9 769.17 423.39 773.68 416.17 816.99 434.21 819.69 424.29 784.51 392.72 733.09 371.07"/><polygon class="cls-4" points="602.78 179.5 603.45 249.58 681.12 363.94 642.83 234.23 602.78 179.5"/><polygon class="cls-4" points="659.52 142.79 644.17 208.87 702.47 392.42 713.74 383.56 706.03 308.76 698.91 260.71 659.52 142.79"/><polygon class="cls-4" points="311.1 144.12 349.15 201.53 337.13 226.89 295.08 231.56 311.1 144.12"/><polygon class="cls-4" points="347.81 239.57 397.2 292.97 380.52 291.63 321.11 293.63 254.37 343.69 289.07 245.58 347.81 239.57"/><polygon class="cls-4" points="534.04 144.12 495.99 201.53 508 226.89 550.05 231.56 534.04 144.12"/><polygon class="cls-4" points="440.43 165.48 423.07 114.75 404.38 165.04 374.81 238.9 424.87 298.25 472.26 238.9 440.43 165.48"/><polygon class="cls-4" points="497.32 239.57 447.93 292.97 464.62 291.63 524.02 293.63 590.77 343.69 556.06 245.58 497.32 239.57"/><polygon class="cls-5" points="272.39 530.59 320.45 504.55 394.53 485.87 409.22 443.81 407.88 336.35 381.85 300.98 334.46 300.31 264.38 359.05 263.71 390.06 250.24 453.86 254.37 512.23 272.39 530.59"/><polygon class="cls-5" points="572.75 530.59 524.69 504.55 450.6 485.87 435.92 443.81 437.25 336.35 463.28 300.98 510.67 300.31 580.76 359.05 581.42 390.06 594.89 453.86 590.77 512.23 572.75 530.59"/><polygon class="cls-4" points="322.45 525.25 312.44 690.11 328.45 764.87 297.08 854.97 263.71 696.78 280.4 537.26 322.45 525.25"/><polygon class="cls-4" points="359.83 515.9 380.52 570.63 388.53 714.81 411.22 575.97 408.55 488.54 359.83 515.9"/><polygon class="cls-4" points="344.47 521.24 319.78 688.11 347.81 828.94 385.86 908.37 389.86 739.5 363.16 670.75 361.83 565.96 344.47 521.24"/><polygon class="cls-4" points="263.71 635.57 272.49 539.65 250.24 523.88 250.24 550.16 263.71 635.57"/><polygon class="cls-4" points="522.69 525.25 532.7 690.11 516.68 764.87 548.05 854.97 581.43 696.78 564.74 537.26 522.69 525.25"/><polygon class="cls-4" points="501.4 521.24 526.1 688.11 498.07 828.94 460.02 908.37 456.02 739.5 482.71 670.75 484.05 565.96 501.4 521.24"/><polygon class="cls-4" points="485.31 515.9 464.62 570.63 456.61 714.81 433.92 575.97 436.59 488.54 485.31 515.9"/><polygon class="cls-4" points="582.82 635.57 574.05 539.65 596.29 523.88 596.29 550.16 582.82 635.57"/><polygon class="cls-4" points="347.16 874.46 351.5 1098.11 389.91 1141.47 408.49 1113.6 409.73 1053.5 393 963.67 347.16 874.46"/><polygon class="cls-4" points="335.39 861.45 332.91 1044.21 343.44 1113.6 325.48 1128.46 293.88 1064.04 301.94 939.51 317.42 888.71 318.66 852.16 335.39 861.45"/><polygon class="cls-4" points="499.52 874.46 495.19 1098.11 456.77 1141.47 438.19 1113.6 436.95 1053.5 453.68 963.67 499.52 874.46"/><polygon class="cls-4" points="511.29 861.45 513.77 1044.21 503.24 1113.6 521.21 1128.46 552.8 1064.04 544.75 939.51 529.26 888.71 528.02 852.16 511.29 861.45"/></g><g class="cls-6"><polygon class="cls-4" points="68.03 449.65 51.51 463.69 53.99 486 87.55 442.66 83.19 437.52 68.03 449.65"/><polygon class="cls-4" points="82.53 435.13 60.97 427.9 53.47 443.99 49.57 459.56 50.93 461.33 82.53 435.13"/><polygon class="cls-4" points="27.59 459.96 27.59 457.37 25.96 449.97 15.99 457.96 14.43 467.29 15.58 478.18 27.59 459.96"/><polygon class="cls-4" points="49.25 486.44 15.58 484.25 30.75 460.28 21.57 412.76 41.6 419.21 58.57 417.51 45.61 463.31 49.25 486.44"/><polygon class="cls-4" points="52.42 -58.53 48.09 165.11 9.68 208.48 -8.91 180.6 -10.15 120.51 6.58 30.68 52.42 -58.53"/><polygon class="cls-4" points="64.19 -71.54 66.67 111.22 56.14 180.6 74.11 195.47 105.7 131.04 97.65 6.52 82.16 -44.28 80.92 -80.83 64.19 -71.54"/><polygon class="cls-4" points="50.34 188.66 68.31 204.76 41.05 334.24 39.21 412.76 21.13 407.64 19.36 335.48 6.36 243.79 10.07 222.73 50.34 188.66"/><polygon class="cls-4" points="64.59 279.1 47.86 362.12 46.96 380.56 43.6 413.87 58.57 412.76 66.81 380.88 72.64 346.63 72.64 269.19 64.59 279.1"/></g></g><g id="Back_Right_Glutes" data-name="Back Right Glutes"><g class="cls-7"><polygon class="cls-4" points="783.37 448.9 799.89 462.94 797.41 485.24 763.84 441.91 768.21 436.77 783.37 448.9"/><polygon class="cls-4" points="768.86 434.38 790.43 427.15 797.93 443.24 801.83 458.81 800.46 460.58 768.86 434.38"/><polygon class="cls-4" points="823.8 459.2 823.8 456.62 825.43 449.22 835.4 457.21 836.97 466.54 835.81 477.42 823.8 459.2"/><polygon class="cls-4" points="801.73 486.44 835.4 484.25 820.23 460.28 829.41 412.76 809.39 419.21 792.42 417.51 805.37 463.31 801.73 486.44"/><polygon class="cls-4" points="799.4 -58.53 803.74 165.11 842.15 208.48 860.74 180.6 861.98 120.51 845.25 30.68 799.4 -58.53"/><polygon class="cls-4" points="787.63 -71.54 785.16 111.22 795.69 180.6 777.72 195.47 746.13 131.04 754.18 6.52 769.67 -44.28 770.91 -80.83 787.63 -71.54"/><polygon class="cls-4" points="800.64 188.66 782.68 204.76 809.94 334.24 811.77 412.76 829.86 407.64 831.62 335.48 844.63 243.79 840.91 222.73 800.64 188.66"/><polygon class="cls-4" points="786.39 279.1 803.12 362.12 804.02 380.56 807.39 413.87 792.42 412.76 784.17 380.88 778.34 346.63 778.34 269.19 786.39 279.1"/></g></g><g id="Front_Abs" data-name="Front Abs"><g class="cls-9"><polygon class="cls-4" points="836.35 917.79 836.35 866.27 809.18 819.44 751.08 800.57 693.03 819.44 665.87 866.27 665.87 917.79 652.75 920.6 658.37 965.56 679.92 973.06 703.34 1021.76 751.33 1042.27 798.88 1021.76 822.29 973.06 843.84 965.56 849.46 920.6 836.35 917.79"/></g></g></svg>