<svg xmlns="http://www.w3.org/2000/svg" xmlns:xlink="http://www.w3.org/1999/xlink" viewBox="0 0 874.68 874.68"><defs><style>.cls-1{fill:none;}.cls-2{clip-path:url(#clip-path);}.cls-3{fill:#d9dadb;}.cls-4{clip-path:url(#clip-path-2);}.cls-5{clip-path:url(#clip-path-3);}.cls-6{clip-path:url(#clip-path-4);}.cls-7{fill:#f7f7f7;}.cls-8{fill:#e0af12;}.cls-9{clip-path:url(#clip-path-5);}.cls-10{clip-path:url(#clip-path-6);}</style><clipPath id="clip-path"><circle class="cls-1" cx="-149.53" cy="3296.08" r="437.34"/></clipPath><clipPath id="clip-path-2"><circle class="cls-1" cx="-586.87" cy="2346.12" r="437.34"/></clipPath><clipPath id="clip-path-3"><circle class="cls-1" cx="342.76" cy="2346.12" r="437.34"/></clipPath><clipPath id="clip-path-4"><circle class="cls-1" cx="437.34" cy="437.34" r="437.34"/></clipPath><clipPath id="clip-path-5"><circle class="cls-1" cy="-487.17" r="437.34"/></clipPath><clipPath id="clip-path-6"><circle class="cls-1" cx="951.39" cy="-487.17" r="437.34"/></clipPath></defs><title>Both IT Band</title><g id="Front_Left_Foot" data-name="Front Left Foot"><g class="cls-2"><polygon class="cls-3" points="5.2 170.47 5.2 73.74 -45.8 -14.2 -154.9 -49.62 -263.89 -14.2 -314.9 73.74 -314.9 170.47 -339.52 175.75 -328.97 260.17 -288.51 274.24 -244.54 365.69 -154.42 404.2 -65.15 365.69 -21.18 274.24 19.27 260.17 29.82 175.75 5.2 170.47"/><polygon class="cls-3" points="-29.63 447 -44.42 516.02 42.68 537.39 98.55 517.67 -29.63 447"/><polygon class="cls-3" points="26.24 562.04 95.27 685.29 170.86 723.08 124.84 759.24 88.69 864.41 4.88 898.92 -128.67 832.93 -95.36 573.54 26.24 562.04"/><path class="cls-3" d="M161.85,1020.71a13.6,13.6,0,0,0-3-1.79L131.42,815.11,184,739.52l54.23,78.88,46,276.08L280,1131.54C242.94,1092.16,204.25,1054.44,161.85,1020.71Z"/><polygon class="cls-3" points="264.53 805.25 289.18 1068.19 305.61 872.63 264.53 805.25"/><path class="cls-3" d="M129.13,525.8l30.23-16.35L254,614.11l.52,39.85S131,526.73,129.13,525.8Z"/><path class="cls-3" d="M119.52,530.14c0,2.08,132.78,141.46,132.78,141.46l4,123.79-46-78.88-88.74-37.8-62.45-115Z"/></g><g class="cls-4"><polygon class="cls-3" points="16.72 641.19 -4.79 692.48 -67.66 702.41 -72.63 795.07 -39.53 927.43 -18.02 925.78 -38.91 837.67 -16.58 837.05 18.38 930.74 44.85 927.43 11.96 832.71 34.92 828.37 79.6 929.09 112.69 925.78 67.19 820.92 82.91 811.61 139.16 900.96 167.29 897.65 82.91 737.15 91.18 723.92 170.6 757.01 175.56 738.81 111.03 680.9 16.72 641.19"/></g></g><g id="Front_Right_Foot" data-name="Front Right Foot"><g class="cls-5"><path class="cls-3" d="M29.58,70.73a13.44,13.44,0,0,1,3-1.79L60-134.87,7.43-210.47-46.8-131.58l-46,276.08,4.22,37.06C-51.51,142.18-12.81,104.46,29.58,70.73Z"/><path class="cls-3" d="M-81.83,210.58A12.68,12.68,0,0,1-85,213l7,61.29,97-103.53,9-66.78C-11.09,137-47.1,173.11-81.83,210.58Z"/><polygon class="cls-3" points="-71.45 303.91 -206.48 668.48 -163.46 678.41 -20.51 384.43 5.79 220.1 -71.45 303.91"/><path class="cls-3" d="M659.47,70.73a13.66,13.66,0,0,0-3-1.79L629-134.87l52.59-75.6,54.23,78.89,46,276.08-4.23,37.06C740.56,142.18,701.86,104.46,659.47,70.73Z"/><path class="cls-3" d="M770.88,210.58a12.51,12.51,0,0,0,3.18,2.46l-7,61.29-97-103.53-9-66.78C700.13,137,736.15,173.11,770.88,210.58Z"/><polygon class="cls-3" points="760.5 303.91 895.53 668.48 852.51 678.41 709.56 384.43 683.26 220.1 760.5 303.91"/><polygon class="cls-3" points="799.94 162.58 780.22 302.27 908.76 645.32 928.62 632.08 878.98 367.34 799.94 162.58"/><polygon class="cls-3" points="762.14 -144.73 786.8 118.21 803.23 -77.35 762.14 -144.73"/><polygon class="cls-3" points="951.68 641.17 930.17 692.47 867.29 702.39 862.33 795.05 895.42 927.42 916.93 925.77 896.04 837.66 918.38 837.04 953.33 930.73 979.81 927.42 946.92 832.69 969.88 828.35 1014.55 929.08 1047.65 925.77 1002.14 820.9 1017.86 811.6 1074.12 900.95 1102.25 897.64 1017.86 737.14 1026.14 723.9 1105.56 757 1110.52 738.79 1045.99 680.88 951.68 641.17"/><polygon class="cls-3" points="87.67 673.06 196.44 912.49 221.17 1106.41 174.8 1379.21 74.34 1101.48 68.16 815.53 86.41 673.23 87.67 673.06"/><polygon class="cls-3" points="600.74 676.81 491.98 916.25 467.25 1110.16 513.62 1382.96 614.08 1105.23 620.26 819.29 602.01 676.99 600.74 676.81"/><polygon class="cls-3" points="59.37 459.05 1.78 669.53 30.07 674.14 85.7 661.72 161.31 654.68 199.13 608.06 180.53 561.62 134.4 547.78 59.37 459.05"/><polygon class="cls-3" points="629.04 462.8 686.63 673.29 658.34 677.89 602.71 665.47 527.11 658.43 489.28 611.82 507.88 565.37 554.01 551.53 629.04 462.8"/><polygon class="cls-3" points="166.61 665.48 105.09 670.92 213.99 885.73 288.18 1115.8 280.45 956.39 166.61 665.48"/><polygon class="cls-3" points="287.1 711.98 287.99 710.87 282.06 695.78 210.06 616.96 185.56 651.08 231.19 768.7 287.1 711.98"/><polygon class="cls-3" points="240.34 792.26 291.27 923.53 308.27 762.48 298.21 736.9 240.34 792.26"/><polygon class="cls-3" points="448.71 792.26 397.78 923.53 380.78 762.48 390.83 736.9 448.71 792.26"/><polygon class="cls-3" points="521.81 669.24 583.32 674.67 474.43 889.49 400.24 1119.56 407.97 960.15 521.81 669.24"/><polygon class="cls-3" points="401.31 715.74 400.43 714.63 406.36 699.54 478.35 620.72 502.86 654.83 457.22 772.46 401.31 715.74"/><polygon class="cls-3" points="27.41 689.9 65.28 678.41 50.91 801.1 48.61 1115.8 98.43 1357.95 97.88 1472.75 112.78 1611.83 93.44 1604.64 73.04 1652.42 73.87 1331.47 26.42 1115.8 -5.48 683.6 27.41 689.9"/><polygon class="cls-3" points="661 693.66 623.13 682.16 637.5 804.85 639.81 1119.56 589.98 1361.71 590.54 1476.5 575.63 1615.59 594.98 1608.4 615.37 1656.18 614.55 1335.22 662 1119.56 693.9 687.35 661 693.66"/><polygon class="cls-3" points="130.04 38.6 181.63 67.26 175.67 -0.65 130.04 38.6"/><polygon class="cls-3" points="172.02 -26.46 73.16 -67.49 110.38 32.69 172.02 -26.46"/><polygon class="cls-3" points="110.96 42.58 178.34 83.66 189.84 165.83 124.11 123.1 110.96 42.58"/><polygon class="cls-3" points="127.39 142.86 186.56 183.94 194.77 267.75 129.04 215.17 127.39 142.86"/><polygon class="cls-3" points="193.11 312.31 120.8 258.07 114.52 330.94 63.23 425.25 142.19 533.98 183.27 540.55 198.06 386.08 193.11 312.31"/><polygon class="cls-3" points="559.01 38.6 507.42 67.26 513.38 -0.65 559.01 38.6"/><polygon class="cls-3" points="517.03 -26.46 615.88 -67.49 578.66 32.69 517.03 -26.46"/><polygon class="cls-3" points="578.09 42.58 510.71 83.66 499.21 165.83 564.94 123.1 578.09 42.58"/><polygon class="cls-3" points="561.65 142.86 502.49 183.94 494.28 267.75 560.01 215.17 561.65 142.86"/><polygon class="cls-3" points="495.94 312.31 568.25 258.07 574.53 330.94 625.82 425.25 546.86 533.98 505.78 540.55 490.99 386.08 495.94 312.31"/><polygon class="cls-3" points="207.18 -27.7 331.27 -83.55 327.55 7.04 215.87 64.13 207.18 -27.7"/><polygon class="cls-3" points="227.03 86.47 229.52 151 321.35 131.14 326.31 43.03 227.03 86.47"/><polygon class="cls-3" points="336.24 718.12 312.06 483.17 311.45 330.2 224.35 287.48 214.49 566.85 336.24 718.12"/><polygon class="cls-3" points="233.24 182.02 232 261.44 320.11 285.02 321.35 160.92 233.24 182.02"/><polygon class="cls-3" points="481.87 -27.7 357.77 -83.55 361.5 7.04 473.18 64.13 481.87 -27.7"/><polygon class="cls-3" points="462.01 86.47 459.53 151 367.7 131.14 362.74 43.03 462.01 86.47"/><polygon class="cls-3" points="352.81 718.12 376.99 483.17 377.6 330.2 464.69 287.48 474.56 566.85 352.81 718.12"/><polygon class="cls-3" points="455.81 182.02 457.05 261.44 368.94 285.02 367.7 160.92 455.81 182.02"/></g></g><g id="Front_Abs" data-name="Front Abs"><g class="cls-6"><circle class="cls-7" cx="437.73" cy="437.34" r="437.34"/><path class="cls-3" d="M268.1-56.67a7.19,7.19,0,0,1,1.62-1l14.59-108.54-28-40.26-28.88,42-24.5,147,2.24,19.74C224.92-18.62,245.52-38.71,268.1-56.67Z"/><path class="cls-3" d="M208.77,17.8a6.8,6.8,0,0,1-1.7,1.32l3.72,32.64L262.43-3.38l4.78-35.56C246.44-21.4,227.26-2.15,208.77,17.8Z"/><polygon class="cls-3" points="214.29 67.51 142.38 261.67 165.29 266.96 241.43 110.4 255.43 22.87 214.29 67.51"/><polygon class="cls-3" points="193.29 -7.76 203.79 66.64 135.33 249.34 124.76 242.28 151.19 101.29 193.29 -7.76"/><polygon class="cls-3" points="112.48 247.13 123.93 274.45 157.42 279.73 160.06 329.08 142.44 399.58 130.98 398.7 142.11 351.77 130.21 351.44 111.6 401.34 97.5 399.58 115.01 349.13 102.78 346.81 78.99 400.46 61.37 398.7 85.6 342.85 77.23 337.89 47.27 385.48 32.29 383.72 77.23 298.24 72.82 291.19 30.52 308.81 27.88 299.12 62.25 268.28 112.48 247.13"/><path class="cls-3" d="M603.56-56.67a6.77,6.77,0,0,0-1.62-1L587.35-166.17l28-40.26,28.88,42,24.51,147L666.5,2.35C646.75-18.62,626.14-38.71,603.56-56.67Z"/><path class="cls-3" d="M662.9,17.8a6.76,6.76,0,0,0,1.69,1.32l-3.72,32.64L609.24-3.38l-4.78-35.56C625.22-21.4,644.4-2.15,662.9,17.8Z"/><polygon class="cls-3" points="657.37 67.51 729.28 261.67 706.37 266.96 630.24 110.4 616.24 22.87 657.37 67.51"/><polygon class="cls-3" points="678.38 -7.76 667.88 66.64 736.33 249.34 746.91 242.28 720.47 101.29 678.38 -7.76"/><polygon class="cls-3" points="759.19 247.13 747.73 274.45 714.25 279.73 711.6 329.08 729.23 399.58 740.68 398.7 729.56 351.77 741.45 351.44 760.07 401.34 774.17 399.58 756.65 349.13 768.88 346.81 792.67 400.46 810.3 398.7 786.07 342.85 794.44 337.89 824.4 385.48 839.38 383.72 794.44 298.24 798.84 291.19 841.14 308.81 843.78 299.12 809.42 268.28 759.19 247.13"/><polygon class="cls-3" points="384.72 823 378.55 842.39 365.33 924.34 363.57 1033.61 382.07 1140.24 381.19 1003.65 400.58 949.01 403.22 889.09 384.72 823"/><polygon class="cls-3" points="486.95 823 493.12 842.39 506.34 924.34 508.1 1033.61 489.59 1140.24 490.47 1003.65 471.09 949.01 468.44 889.09 486.95 823"/><polygon class="cls-3" points="342.42 872.35 346.82 1036.25 378.53 1155.14 341.96 1143.98 279.85 920.82 301.88 776.3 342.42 872.35"/><polygon class="cls-3" points="528.59 872.35 524.18 1036.25 492.48 1155.14 529.04 1143.98 591.15 920.82 569.12 776.3 528.59 872.35"/><polygon class="cls-3" points="317.75 703.15 315.1 726.95 333.61 749.86 339.77 785.99 352.11 791.28 362.69 736.64 369.74 717.25 363.57 704.92 317.75 703.15"/><polygon class="cls-3" points="399.7 704.92 386.48 741.93 358.28 796.56 365.33 846.79 385.6 790.39 402.34 758.67 399.7 704.92"/><polygon class="cls-3" points="553.92 703.15 556.57 726.95 538.06 749.86 531.89 785.99 519.55 791.28 508.98 736.64 501.93 717.25 508.1 704.92 553.92 703.15"/><polygon class="cls-3" points="471.97 704.92 485.19 741.93 513.38 796.56 506.34 846.79 486.07 790.39 469.32 758.67 471.97 704.92"/><polygon class="cls-3" points="299.04 264.11 356.97 391.63 370.14 494.9 345.44 640.19 291.94 492.28 288.65 339.99 298.37 264.2 299.04 264.11"/><polygon class="cls-3" points="291.65 536.5 284.24 501.03 335.27 641.06 327.57 660.89 304.88 599.88 291.65 536.5"/><polygon class="cls-3" points="372.76 449.14 374.14 452.42 399.89 513.91 383.26 666.2 357.01 652.19 379.76 510.41 372.76 449.14"/><polygon class="cls-3" points="498.9 449.14 497.53 452.42 471.77 513.91 488.4 666.2 514.66 652.19 491.9 510.41 498.9 449.14"/><polygon class="cls-3" points="572.29 266.11 514.36 393.63 501.19 496.9 525.89 642.19 579.39 494.28 582.68 341.99 572.96 266.2 572.29 266.11"/><polygon class="cls-3" points="579.68 538.5 587.09 503.03 536.06 643.06 543.76 662.89 566.44 601.88 579.68 538.5"/><polygon class="cls-3" points="283.97 150.13 253.3 262.23 268.36 264.69 297.99 258.07 338.26 254.32 358.4 229.49 348.5 204.76 323.93 197.39 283.97 150.13"/><polygon class="cls-3" points="587.36 152.13 618.03 264.23 602.97 266.69 573.34 260.07 533.07 256.32 512.93 231.49 522.83 206.76 547.4 199.39 587.36 152.13"/><polygon class="cls-3" points="341.08 260.08 308.32 262.97 366.31 377.37 405.82 499.9 401.71 415.01 341.08 260.08"/><polygon class="cls-3" points="405.25 284.84 405.72 284.25 402.56 276.21 364.22 234.24 351.17 252.4 375.48 315.05 405.25 284.84"/><polygon class="cls-3" points="380.35 327.6 407.47 397.5 416.52 311.73 411.17 298.11 380.35 327.6"/><polygon class="cls-3" points="491.32 327.6 464.2 397.5 455.14 311.73 460.5 298.11 491.32 327.6"/><polygon class="cls-3" points="530.25 262.08 563.01 264.97 505.02 379.37 465.51 501.9 469.62 417.01 530.25 262.08"/><polygon class="cls-3" points="466.08 286.84 465.61 286.25 468.76 278.21 507.11 236.24 520.16 254.4 495.85 317.05 466.08 286.84"/><polygon class="cls-8" points="266.95 273.08 287.12 266.96 279.46 332.3 278.24 499.9 304.77 628.87 304.48 690.01 312.41 764.08 302.11 760.25 291.25 785.7 291.69 614.76 266.42 499.9 249.43 269.72 266.95 273.08"/><polygon class="cls-8" points="604.38 275.08 584.21 268.96 591.87 334.3 593.09 501.9 566.56 630.87 566.85 692.01 558.92 766.08 569.22 762.25 580.08 787.7 579.64 616.76 604.91 501.9 621.9 271.72 604.38 275.08"/><polygon class="cls-3" points="320.19 -18.26 351.7 3.62 356.08 48.26 321.07 20.25 320.19 -18.26"/><polygon class="cls-3" points="355.19 71.98 316.68 43.1 313.34 81.9 286.02 132.13 328.07 190.04 349.95 193.54 357.83 111.27 355.19 71.98"/><polygon class="cls-3" points="551.47 -18.26 519.96 3.62 515.59 48.26 550.6 20.25 551.47 -18.26"/><polygon class="cls-3" points="516.47 71.98 554.98 43.1 558.33 81.9 585.64 132.13 543.59 190.04 521.71 193.54 513.84 111.27 516.47 71.98"/><polygon class="cls-3" points="431.42 288.11 418.54 162.98 418.22 81.51 371.83 58.76 366.58 207.54 431.42 288.11"/><polygon class="cls-3" points="376.56 2.6 375.9 44.89 422.83 57.45 423.49 -8.64 376.56 2.6"/><polygon class="cls-3" points="440.25 288.11 453.12 162.98 453.45 81.51 499.83 58.76 505.08 207.54 440.25 288.11"/><polygon class="cls-3" points="495.1 2.6 495.76 44.89 448.84 57.45 448.18 -8.64 495.1 2.6"/></g><g class="cls-9"><polygon class="cls-3" points="49.61 -101.51 55.78 -82.13 69 -0.17 70.76 109.1 52.25 215.72 53.13 79.14 33.75 24.5 31.1 -35.42 49.61 -101.51"/><polygon class="cls-3" points="28.1 276.17 30.44 340.86 36.61 366.41 55.12 366.41 60.4 348.79 66.57 347.91 65.25 365.53 88.6 358.48 94.77 354.96 121.21 349.23 122.09 328.52 96.53 285.34 82.98 268.4 54.22 284.76 28.1 276.17"/><polygon class="cls-3" points="89.89 227.96 90.89 238.16 79.19 261.06 54.8 276.99 29.75 268.77 37.63 244.91 89.89 227.96"/><polygon class="cls-3" points="91.25 -52.16 86.84 111.74 55.14 230.63 91.7 219.46 153.81 -3.7 131.78 -148.22 91.25 -52.16"/></g><g class="cls-10"><polygon class="cls-3" points="922.06 274.22 919.72 338.91 913.55 364.47 895.05 364.47 889.76 346.84 883.59 345.96 884.91 363.59 861.56 356.54 855.39 353.01 828.96 347.28 828.08 326.58 853.63 283.4 867.18 266.46 895.94 282.82 922.06 274.22"/><polygon class="cls-3" points="860.27 226.02 859.28 236.22 870.97 259.12 895.36 275.04 920.41 266.83 912.53 242.97 860.27 226.02"/><polygon class="cls-3" points="858.92 -54.11 863.32 109.8 895.03 228.69 858.46 217.52 796.35 -5.64 818.38 -150.16 858.92 -54.11"/></g></g></svg>