<svg xmlns="http://www.w3.org/2000/svg" xmlns:xlink="http://www.w3.org/1999/xlink" viewBox="0 0 874.68 874.68"><defs><style>.cls-1{fill:none;}.cls-2{clip-path:url(#clip-path);}.cls-3{fill:#f7f7f7;}.cls-4{fill:#d9dadb;}.cls-5{fill:#e0af12;}</style><clipPath id="clip-path"><circle class="cls-1" cx="437.34" cy="437.34" r="437.34"/></clipPath></defs><title>Both Knee</title><g id="Front_Left_Knee" data-name="Front Left Knee"><g class="cls-2"><circle class="cls-3" cx="437.34" cy="437.34" r="437.34"/><polygon class="cls-4" points="377.94 312.6 371.03 334.32 356.22 426.15 354.24 548.59 374.98 668.07 373.99 515.02 395.72 453.8 398.68 386.65 377.94 312.6"/><polygon class="cls-4" points="492.5 312.6 499.41 334.32 514.22 426.15 516.2 548.59 495.46 668.07 496.45 515.02 474.72 453.8 471.76 386.65 492.5 312.6"/><polygon class="cls-4" points="401.3 735.8 398.68 808.29 391.77 836.92 371.03 836.92 365.11 817.17 358.19 816.19 359.68 835.93 333.51 828.04 326.6 824.09 296.97 817.67 295.99 794.46 324.62 746.08 339.81 727.1 372.03 745.43 401.3 735.8"/><polygon class="cls-4" points="468.4 735.8 471.02 808.29 477.93 836.92 498.67 836.92 504.59 817.17 511.5 816.19 510.02 835.93 536.19 828.04 543.1 824.09 572.73 817.67 573.71 794.46 545.08 746.08 529.89 727.1 497.67 745.43 468.4 735.8"/><polygon class="cls-4" points="332.06 681.78 330.95 693.22 344.06 718.87 371.38 736.72 399.46 727.52 390.63 700.78 332.06 681.78"/><polygon class="cls-4" points="537.63 681.78 538.75 693.22 525.64 718.87 498.31 736.72 470.24 727.52 479.07 700.78 537.63 681.78"/><polygon class="cls-4" points="330.55 367.89 335.48 551.56 371.01 684.78 330.03 672.26 260.44 422.2 285.12 260.26 330.55 367.89"/><polygon class="cls-4" points="539.15 367.89 534.22 551.56 498.69 684.78 539.66 672.26 609.26 422.2 584.57 260.26 539.15 367.89"/><polygon class="cls-5" points="302.9 178.31 299.94 204.97 320.67 230.64 327.58 271.13 341.41 277.05 353.26 215.83 361.16 194.11 354.24 180.28 302.9 178.31"/><polygon class="cls-5" points="394.73 180.28 379.92 221.75 348.32 282.97 356.22 339.26 378.93 276.06 397.69 240.51 394.73 180.28"/><polygon class="cls-5" points="567.54 178.31 570.5 204.97 549.77 230.64 542.86 271.13 529.03 277.05 517.18 215.83 509.28 194.11 516.2 180.28 567.54 178.31"/><polygon class="cls-5" points="475.71 180.28 490.52 221.75 522.12 282.97 514.22 339.26 491.51 276.06 472.75 240.51 475.71 180.28"/><polygon class="cls-4" points="281.94 -313.66 346.85 -170.77 361.6 -55.05 333.93 107.75 273.98 -57.99 270.29 -228.63 281.18 -313.56 281.94 -313.66"/><polygon class="cls-4" points="273.65 -8.43 265.35 -48.18 322.54 108.73 313.91 130.94 288.49 62.59 273.65 -8.43"/><polygon class="cls-4" points="364.55 -106.32 366.09 -102.65 394.95 -33.75 376.32 136.89 346.89 121.2 372.39 -37.67 364.55 -106.32"/><polygon class="cls-4" points="505.89 -106.32 504.35 -102.65 475.49 -33.75 494.12 136.89 523.54 121.2 498.05 -37.67 505.89 -106.32"/><polygon class="cls-4" points="588.12 -311.42 523.22 -168.53 508.46 -52.81 536.13 109.99 596.08 -55.75 599.77 -226.39 588.88 -311.32 588.12 -311.42"/><polygon class="cls-4" points="596.41 -6.19 604.71 -45.94 547.52 110.97 556.15 133.19 581.58 64.83 596.41 -6.19"/><polygon class="cls-4" points="245.98 -303.61 268.58 -310.47 260 -237.25 258.63 -49.44 288.36 95.06 288.03 163.57 296.92 246.57 285.38 242.28 273.21 270.8 273.7 79.26 245.38 -49.44 226.35 -307.37 245.98 -303.61"/><polygon class="cls-4" points="624.09 -301.37 601.49 -308.23 610.06 -235.01 611.44 -47.2 581.7 97.31 582.03 165.81 573.14 248.81 584.68 244.53 596.85 273.04 596.36 81.5 624.68 -47.2 643.71 -305.13 624.09 -301.37"/></g></g></svg>