<svg xmlns="http://www.w3.org/2000/svg" xmlns:xlink="http://www.w3.org/1999/xlink" viewBox="0 0 874.68 874.68"><defs><style>.cls-1{fill:none;}.cls-2{clip-path:url(#clip-path);}.cls-3{fill:#f7f7f7;}.cls-4{fill:#d9dadb;}.cls-5{clip-path:url(#clip-path-2);}.cls-6{fill:#e0af12;}.cls-7{clip-path:url(#clip-path-3);}</style><clipPath id="clip-path"><circle class="cls-1" cx="881.7" cy="1369.79" r="437.34"/></clipPath><clipPath id="clip-path-2"><circle class="cls-1" cx="437.34" cy="437.34" r="437.34"/></clipPath><clipPath id="clip-path-3"><circle class="cls-1" cx="1382.36" cy="437.34" r="437.34"/></clipPath></defs><title>L Achilles</title><g id="Back_Left_Achilles" data-name="Back Left Achilles"><g class="cls-2"><circle class="cls-3" cx="927.94" cy="1415.12" r="732.85"/><polygon class="cls-4" points="692.32 -37.1 673.52 272.46 703.6 412.82 644.69 582.02 582.03 284.99 613.36 -14.54 692.32 -37.1"/><polygon class="cls-4" points="762.5 -54.65 801.35 48.12 816.39 318.83 859 58.15 853.99 -106.03 762.5 -54.65"/><polygon class="cls-4" points="733.68 -44.62 687.3 268.7 739.94 533.13 811.38 682.27 818.9 365.2 768.77 236.11 766.26 39.35 733.68 -44.62"/><polygon class="cls-4" points="582.03 170.05 598.51 -10.06 556.74 -39.66 556.74 9.68 582.03 170.05"/><polygon class="cls-4" points="738.72 618.61 746.86 1038.54 818.98 1119.97 853.88 1067.62 856.21 954.79 824.8 786.12 738.72 618.61"/><polygon class="cls-4" points="716.62 594.18 711.96 937.34 731.74 1067.62 698 1095.54 638.68 974.56 653.8 740.75 682.88 645.37 685.21 576.74 716.62 594.18"/></g><g class="cls-5"><circle class="cls-3" cx="483.57" cy="482.66" r="732.85"/><polygon class="cls-4" points="609.75 640.36 578.73 666.72 583.38 708.6 646.4 627.24 638.21 617.58 609.75 640.36"/><polygon class="cls-4" points="636.98 613.08 596.49 599.52 582.4 629.73 575.08 658.96 577.64 662.29 636.98 613.08"/><polygon class="cls-4" points="533.82 659.71 533.82 654.86 530.75 640.96 512.04 655.96 509.1 673.48 511.27 693.91 533.82 659.71"/><polygon class="cls-4" points="264.24 638.94 295.26 665.31 290.61 707.19 227.58 625.82 235.77 616.17 264.24 638.94"/><polygon class="cls-4" points="237.01 611.67 277.5 598.11 291.58 628.32 298.9 657.54 296.34 660.88 237.01 611.67"/><polygon class="cls-4" points="340.16 658.29 340.16 653.44 343.23 639.55 361.95 654.55 364.88 672.07 362.72 692.5 340.16 658.29"/><polygon class="cls-6" points="298.72 709.42 361.94 705.31 333.46 660.32 350.7 571.08 313.1 583.19 281.24 580 305.56 666 298.72 709.42"/><polygon class="cls-4" points="574.49 709.42 511.27 705.31 539.75 660.32 522.51 571.08 560.11 583.19 591.98 580 567.65 666 574.49 709.42"/><polygon class="cls-4" points="294.36 -313.84 302.5 106.09 374.62 187.52 409.52 135.17 411.84 22.34 380.44 -146.34 294.36 -313.84"/><polygon class="cls-4" points="272.25 -338.27 267.6 4.89 287.38 135.17 253.64 163.09 194.32 42.11 209.44 -191.7 238.52 -287.09 240.85 -355.72 272.25 -338.27"/><polygon class="cls-4" points="296.68 150.29 262.95 180.54 314.13 423.65 317.58 571.08 351.53 561.47 354.84 425.98 379.27 253.82 372.29 214.27 296.68 150.29"/><polygon class="cls-4" points="269.93 320.13 301.33 476 303.03 510.62 309.34 573.17 281.24 571.08 265.75 511.23 254.8 446.92 254.8 301.51 269.93 320.13"/><polygon class="cls-4" points="580.44 -313.84 572.3 106.09 500.18 187.52 465.28 135.17 462.95 22.34 494.36 -146.34 580.44 -313.84"/><polygon class="cls-4" points="602.54 -338.27 607.2 4.89 587.42 135.17 621.15 163.09 680.48 42.11 665.36 -191.7 636.28 -287.09 633.95 -355.72 602.54 -338.27"/><polygon class="cls-4" points="576.53 150.29 610.26 180.54 559.08 423.65 555.63 571.08 521.68 561.47 518.37 425.98 493.94 253.82 500.92 214.27 576.53 150.29"/><polygon class="cls-4" points="603.28 320.13 571.88 476 570.18 510.62 563.87 573.17 591.98 571.08 607.46 511.23 618.41 446.92 618.41 301.51 603.28 320.13"/></g></g><g id="Back_Right_Achilles" data-name="Back Right Achilles"><g class="cls-7"><circle class="cls-3" cx="1379.19" cy="226.94" r="732.85"/></g></g></svg>