<svg xmlns="http://www.w3.org/2000/svg" xmlns:xlink="http://www.w3.org/1999/xlink" viewBox="0 0 874.68 874.68"><defs><style>.cls-1{fill:none;}.cls-2{clip-path:url(#clip-path);}.cls-3{fill:#f7f7f7;}.cls-4{fill:#d9dadb;}.cls-5{clip-path:url(#clip-path-2);}.cls-6{clip-path:url(#clip-path-3);}.cls-7{fill:#e0af12;}.cls-8{clip-path:url(#clip-path-4);}</style><clipPath id="clip-path"><circle class="cls-1" cx="-29.89" cy="1387.3" r="430.53"/></clipPath><clipPath id="clip-path-2"><circle class="cls-1" cx="-521.83" cy="437.34" r="430.53"/></clipPath><clipPath id="clip-path-3"><circle class="cls-1" cx="437.34" cy="437.34" r="437.34"/></clipPath><clipPath id="clip-path-4"><circle class="cls-1" cx="1367.98" cy="437.34" r="437.34"/></clipPath></defs><title>L Ankle</title><g id="Front_Left_Ankle" data-name="Front Left Ankle"><g class="cls-2"><circle class="cls-3" cx="-110.18" cy="1293.22" r="721.44"/><polygon class="cls-4" points="573.59 -283.81 552.42 -233.31 490.52 -223.54 485.63 -132.32 518.21 -2.01 539.39 -3.64 518.82 -90.38 540.81 -90.99 575.22 1.25 601.28 -2.01 568.91 -95.26 591.51 -99.54 635.49 -0.38 668.07 -3.64 623.27 -106.87 638.75 -116.03 694.13 -28.07 721.82 -31.33 638.75 -189.33 646.89 -202.36 725.08 -169.78 729.97 -187.7 666.44 -244.71 573.59 -283.81"/><polygon class="cls-4" points="70.37 780.66 81.77 816.5 106.21 967.99 109.46 1169.97 75.26 1367.06 76.89 1114.58 41.05 1013.59 36.16 902.83 70.37 780.66"/><polygon class="cls-4" points="147.33 871.88 139.19 1174.85 80.59 1394.62 148.18 1373.97 262.99 961.47 222.26 694.33 147.33 871.88"/><polygon class="cls-4" points="194.17 559.14 199.05 603.12 164.85 645.47 153.44 712.25 130.64 722.02 111.09 621.03 98.06 585.2 109.46 562.39 194.17 559.14"/><polygon class="cls-4" points="42.68 562.39 67.11 630.81 119.24 731.8 106.21 824.64 68.74 720.4 37.79 661.76 42.68 562.39"/><polygon class="cls-4" points="92.47 89.61 89.93 95.67 42.32 209.32 73.06 490.82 121.59 464.94 79.53 202.85 92.47 89.61"/><polygon class="cls-4" points="228.12 -248.72 121.05 -13.01 96.7 177.89 142.35 446.44 241.24 173.04 247.33 -108.46 229.36 -248.55 228.12 -248.72"/><polygon class="cls-4" points="241.78 254.78 255.48 189.21 161.14 448.06 175.38 484.71 217.31 371.94 241.78 254.78"/><polygon class="cls-4" points="150.41 -256.18 210.97 -250.83 103.77 -39.36 30.73 187.13 38.34 30.21 150.41 -256.18"/><polygon class="cls-4" points="287.44 -232.14 250.16 -243.45 264.31 -122.67 266.57 187.13 217.53 425.52 218.07 538.53 203.4 675.45 222.44 668.37 242.52 715.41 241.71 399.45 288.42 187.13 319.82 -238.34 287.44 -232.14"/></g><g class="cls-5"><circle class="cls-3" cx="-602.12" cy="343.26" r="721.44"/></g></g><g id="Front_Right_Ankle" data-name="Front Right Ankle"><g class="cls-6"><circle class="cls-3" cx="393.19" cy="349.13" r="732.85"/><polygon class="cls-4" points="346.45 -186.33 334.87 -149.92 310.05 3.96 306.74 209.13 341.49 409.34 339.83 152.87 376.24 50.29 381.2 -62.23 346.45 -186.33"/><polygon class="cls-4" points="538.41 -186.33 549.99 -149.92 574.81 3.96 578.12 209.13 543.37 409.34 545.03 152.87 508.63 50.29 503.66 -62.23 538.41 -186.33"/><polygon class="cls-4" points="385.59 522.83 381.2 644.3 369.62 692.28 334.87 692.28 324.94 659.19 313.36 657.53 315.84 690.63 271.99 677.39 260.41 670.77 210.77 660.01 209.12 621.13 257.1 540.05 282.55 508.25 336.55 538.97 385.59 522.83"/><polygon class="cls-4" points="498.03 522.83 502.42 644.3 514 692.28 548.75 692.28 558.68 659.19 570.26 657.53 567.78 690.63 611.63 677.39 623.21 670.77 672.85 660.01 674.5 621.13 626.52 540.05 601.07 508.25 547.07 538.97 498.03 522.83"/><polygon class="cls-4" points="269.58 432.32 267.71 451.47 289.67 494.46 335.46 524.37 382.5 508.95 367.7 464.14 269.58 432.32"/><polygon class="cls-7" points="614.04 432.32 615.91 451.47 593.95 494.46 548.16 524.37 501.12 508.95 515.91 464.14 614.04 432.32"/><polygon class="cls-4" points="267.03 -93.67 275.3 214.09 334.83 437.33 266.17 416.36 149.55 -2.66 190.92 -274.02 267.03 -93.67"/><polygon class="cls-4" points="616.59 -93.67 608.32 214.09 548.79 437.33 617.45 416.36 734.07 -2.66 692.7 -274.02 616.59 -93.67"/></g></g><g id="Front_Left_Foot" data-name="Front Left Foot"><g class="cls-8"><circle class="cls-3" cx="1307.59" cy="355.22" r="732.84"/></g></g></svg>