<svg xmlns="http://www.w3.org/2000/svg" xmlns:xlink="http://www.w3.org/1999/xlink" viewBox="0 0 874.68 874.68"><defs><style>.cls-1{fill:none;}.cls-2{clip-path:url(#clip-path);}.cls-3{fill:#d9dadb;}.cls-4{fill:#f7f7f7;}.cls-5{clip-path:url(#clip-path-2);}.cls-6{fill:#e0af12;}</style><clipPath id="clip-path"><circle class="cls-1" cx="948.65" cy="1369.79" r="437.34"/></clipPath><clipPath id="clip-path-2"><circle class="cls-1" cx="437.34" cy="437.34" r="437.34"/></clipPath></defs><title>L Calf</title><g id="Back_Left_Calf" data-name="Back Left Calf"><g class="cls-2"><polygon class="cls-3" points="758.33 79.78 778.53 100.72 774.79 239.83 728.41 340.05 696.25 325.84 685.78 224.13 703.73 117.17 758.33 79.78"/><polygon class="cls-3" points="789.74 107.45 788.25 153.07 818.16 275.73 869.77 337.81 862.29 396.9 868.28 400.64 906.42 322.85 913.15 239.09 864.54 128.39 817.42 126.15 793.48 106.7 789.74 107.45"/><polygon class="cls-3" points="741.88 340.05 741.13 418.59 654.11 546.73 697 401.38 741.88 340.05"/><polygon class="cls-3" points="678.3 298.92 695.51 372.96 630.17 578.64 617.54 568.71 626.18 484.9 634.16 431.05 678.3 298.92"/><polygon class="cls-3" points="826.39 -33.16 820.41 -15.21 792.74 -2.49 778.53 47.62 713.46 101.47 712.71 -5.49 751.6 -65.32 783.76 -72.8 826.39 -33.16"/><polygon class="cls-3" points="809.19 -63.08 846.59 -30.91 873.51 125.4 928.86 236.84 928.86 -21.94 886.97 -53.35 809.19 -63.08"/><polygon class="cls-3" points="839.11 -13.71 863.79 114.18 809.19 109.69 774.04 67.81 795.73 44.63 800.96 13.21 839.11 -13.71"/><polygon class="cls-3" points="595.87 554.71 609.01 586.05 647.42 592.12 650.45 648.72 630.24 729.59 617.1 728.58 629.86 674.75 616.21 674.37 594.86 731.62 578.68 729.59 598.77 671.72 584.75 669.07 557.46 730.6 537.24 728.58 565.04 664.52 555.43 658.83 521.06 713.42 503.88 711.4 555.43 613.34 550.38 605.26 501.86 625.47 498.82 614.35 538.25 578.97 595.87 554.71"/><polygon class="cls-3" points="815.92 300.41 858.55 364.74 845.09 393.16 797.97 398.39 815.92 300.41"/><polygon class="cls-3" points="857.06 407.37 912.4 467.2 893.71 465.7 827.14 467.95 752.35 524.04 791.24 414.1 857.06 407.37"/><polygon class="cls-3" points="772.54 733.46 826.39 704.29 909.41 683.35 925.87 636.23 924.37 515.82 895.2 476.18 842.1 475.43 763.57 541.25 762.82 576 747.73 647.48 752.35 712.89 772.54 733.46"/><polygon class="cls-3" points="828.64 727.48 817.42 912.21 835.37 995.98 800.22 1096.95 762.82 919.69 781.52 740.94 828.64 727.48"/><polygon class="cls-3" points="870.52 717.01 893.71 778.34 902.68 939.89 928.11 784.32 925.12 686.34 870.52 717.01"/><polygon class="cls-3" points="853.32 722.99 825.64 909.97 857.06 1067.78 899.69 1156.78 904.18 967.56 874.26 890.52 872.76 773.1 853.32 722.99"/><polygon class="cls-3" points="762.82 851.1 772.65 743.61 747.73 725.95 747.73 755.39 762.82 851.1"/></g><circle class="cls-4" cx="437.34" cy="437.34" r="437.34"/><g class="cls-5"><polygon class="cls-3" points="533.23 755.77 514.72 771.51 517.49 796.5 555.11 747.94 550.22 742.18 533.23 755.77"/><polygon class="cls-3" points="549.48 739.5 525.32 731.4 516.91 749.43 512.54 766.87 514.07 768.86 549.48 739.5"/><polygon class="cls-3" points="487.92 767.32 487.92 764.42 486.09 756.13 474.92 765.08 473.17 775.54 474.46 787.73 487.92 767.32"/><polygon class="cls-3" points="327.04 754.93 345.55 770.66 342.78 795.65 305.16 747.1 310.05 741.34 327.04 754.93"/><polygon class="cls-3" points="310.79 738.65 334.95 730.56 343.36 748.59 347.73 766.03 346.2 768.02 310.79 738.65"/><polygon class="cls-3" points="372.35 766.47 372.35 763.58 374.18 755.29 385.35 764.24 387.1 774.7 385.81 786.89 372.35 766.47"/><polygon class="cls-3" points="317.32 -204.98 306.1 -20.24 324.06 63.53 288.9 164.5 251.51 -12.76 270.2 -191.51 317.32 -204.98"/><polygon class="cls-3" points="359.21 -215.45 382.39 -154.12 391.37 7.43 416.8 -148.13 413.81 -246.11 359.21 -215.45"/><polygon class="cls-3" points="342 -209.47 314.33 -22.48 345.74 135.32 388.38 224.32 392.86 35.1 362.95 -41.93 361.45 -159.35 342 -209.47"/><polygon class="cls-3" points="541.7 -204.98 552.92 -20.24 534.97 63.53 570.12 164.5 607.52 -12.76 588.82 -191.51 541.7 -204.98"/><polygon class="cls-3" points="517.85 -209.47 545.52 -22.48 514.11 135.32 471.48 224.32 466.99 35.1 496.91 -41.93 498.4 -159.35 517.85 -209.47"/><polygon class="cls-3" points="499.82 -215.45 476.63 -154.12 467.66 7.43 442.23 -148.13 445.22 -246.11 499.82 -215.45"/><polygon class="cls-3" points="347.62 796.99 385.35 794.53 368.35 767.68 378.64 714.43 356.2 721.66 337.18 719.75 351.7 771.07 347.62 796.99"/><polygon class="cls-3" points="512.19 796.99 474.46 794.53 491.45 767.68 481.17 714.43 503.61 721.66 522.62 719.75 508.11 771.07 512.19 796.99"/><polygon class="cls-6" points="345.01 186.33 349.87 436.94 392.91 485.53 413.74 454.29 415.13 386.95 396.38 286.3 345.01 186.33"/><polygon class="cls-6" points="331.82 171.76 329.05 376.54 340.85 454.29 320.72 470.95 285.31 398.75 294.34 259.22 311.69 202.3 313.08 161.34 331.82 171.76"/><polygon class="cls-6" points="346.4 463.31 326.27 481.36 356.81 626.45 358.88 714.43 379.13 708.69 381.11 627.84 395.69 525.1 391.52 501.5 346.4 463.31"/><polygon class="cls-6" points="330.44 564.67 349.18 657.69 350.19 678.35 353.96 715.67 337.18 714.43 327.94 678.71 321.41 640.33 321.41 553.56 330.44 564.67"/><polygon class="cls-3" points="515.74 186.33 510.88 436.94 467.84 485.53 447.02 454.29 445.63 386.95 464.37 286.3 515.74 186.33"/><polygon class="cls-3" points="528.93 171.76 531.71 376.54 519.91 454.29 540.04 470.95 575.44 398.75 566.42 259.22 549.06 202.3 547.67 161.34 528.93 171.76"/><polygon class="cls-3" points="513.41 463.31 533.54 481.36 502.99 626.45 500.93 714.43 480.67 708.69 478.7 627.84 464.12 525.1 468.28 501.5 513.41 463.31"/><polygon class="cls-3" points="529.37 564.67 510.63 657.69 509.62 678.35 505.85 715.67 522.62 714.43 531.87 678.71 538.4 640.33 538.4 553.56 529.37 564.67"/></g></g></svg>