<svg xmlns="http://www.w3.org/2000/svg" xmlns:xlink="http://www.w3.org/1999/xlink" viewBox="0 0 875.43 877.94"><defs><style>.cls-1{fill:none;}.cls-2{clip-path:url(#clip-path);}.cls-3{fill:#d9dadb;}.cls-4{fill:#f7f7f7;}.cls-5{clip-path:url(#clip-path-2);}.cls-6{fill:#e0af12;}</style><clipPath id="clip-path"><circle class="cls-1" cx="875.43" cy="-467.66" r="437.34"/></clipPath><clipPath id="clip-path-2"><circle class="cls-1" cx="438.09" cy="440.36" r="437.34"/></clipPath></defs><title>v</title><g id="Back_Low_Back" data-name="Back Low Back"><g class="cls-2"><polygon class="cls-3" points="783.45 669.16 799.97 683.2 797.49 705.5 763.93 662.17 768.29 657.03 783.45 669.16"/><polygon class="cls-3" points="768.95 654.63 790.51 647.41 798.01 663.5 801.91 679.07 800.55 680.84 768.95 654.63"/><polygon class="cls-3" points="823.89 679.46 823.89 676.88 825.52 669.48 835.49 677.47 837.05 686.8 835.9 697.68 823.89 679.46"/><polygon class="cls-3" points="774.78 -187.49 764.77 -22.63 780.78 52.13 749.41 142.24 716.04 -15.95 732.73 -175.47 774.78 -187.49"/><polygon class="cls-3" points="812.16 -196.83 832.85 -142.1 840.86 2.07 863.55 -136.76 860.88 -224.2 812.16 -196.83"/><polygon class="cls-3" points="796.8 -191.49 772.11 -24.63 800.14 116.2 838.19 195.63 842.19 26.77 815.49 -41.98 814.16 -146.77 796.8 -191.49"/><polygon class="cls-3" points="801.82 706.7 835.48 704.5 820.32 680.54 829.5 633.02 809.47 639.47 792.5 637.77 805.46 683.57 801.82 706.7"/><polygon class="cls-3" points="799.49 161.73 803.83 385.37 842.24 428.74 860.82 400.86 862.06 340.77 845.33 250.94 799.49 161.73"/><polygon class="cls-3" points="787.72 148.72 785.24 331.48 795.77 400.86 777.81 415.73 746.21 351.3 754.26 226.78 769.75 175.98 770.99 139.43 787.72 148.72"/><polygon class="cls-3" points="800.73 408.92 782.76 425.02 810.02 554.5 811.86 633.02 829.94 627.9 831.7 555.74 844.71 464.05 841 442.99 800.73 408.92"/><polygon class="cls-3" points="786.48 499.36 803.21 582.38 804.11 600.82 807.47 634.13 792.5 633.02 784.25 601.14 778.42 566.89 778.42 489.45 786.48 499.36"/></g></g><g id="Front_Abs" data-name="Front Abs"><circle class="cls-4" cx="438.09" cy="440.36" r="437.34"/><g class="cls-5"><polygon class="cls-3" points="326.09 339.4 364.14 396.81 352.12 422.17 310.07 426.84 326.09 339.4"/><polygon class="cls-3" points="362.8 434.85 412.19 488.25 395.51 486.91 336.1 488.92 269.36 538.98 304.06 440.86 362.8 434.85"/><polygon class="cls-3" points="549.03 339.4 510.98 396.81 523 422.17 565.04 426.84 549.03 339.4"/><polygon class="cls-3" points="455.42 360.76 438.06 310.03 419.38 360.32 389.8 434.18 439.86 493.53 487.25 434.18 455.42 360.76"/><polygon class="cls-3" points="512.32 434.85 462.92 488.25 479.61 486.91 539.01 488.92 605.76 538.98 571.05 440.86 512.32 434.85"/><polygon class="cls-3" points="398.85 -99.12 392.84 -36.38 313.41 1 396.84 11.01 433.55 -17.02 426.21 -121.15 398.85 -99.12"/><polygon class="cls-3" points="302.73 167.2 301.39 207.91 328.09 317.38 374.15 372.78 367.47 425.51 372.81 428.84 406.86 359.43 412.86 284.67 369.48 185.89 327.43 183.88 306.07 166.53 302.73 167.2"/><polygon class="cls-3" points="476.27 -99.12 482.28 -36.38 561.71 1 478.27 11.01 441.56 -17.02 448.91 -121.15 476.27 -99.12"/><polygon class="cls-3" points="335.44 41.71 330.1 57.73 305.4 69.08 292.72 113.8 234.65 161.86 233.98 66.41 268.69 13.01 297.39 6.34 335.44 41.71"/><polygon class="cls-3" points="320.08 15.01 353.46 43.72 377.49 183.22 426.88 282.67 426.88 51.73 389.5 23.69 320.08 15.01"/><polygon class="cls-3" points="346.78 59.07 368.81 173.2 320.08 169.2 288.71 131.82 308.07 111.13 312.74 83.1 346.78 59.07"/><polygon class="cls-3" points="539.68 41.71 545.02 57.73 569.72 69.08 582.4 113.8 640.47 161.86 641.14 66.41 606.43 13.01 577.73 6.34 539.68 41.71"/><polygon class="cls-3" points="555.03 15.01 521.66 43.72 497.63 183.22 448.24 282.67 448.24 51.73 485.62 23.69 555.03 15.01"/><polygon class="cls-3" points="528.34 59.07 506.31 173.2 555.03 169.2 586.4 131.82 567.05 111.13 562.38 83.1 528.34 59.07"/><polygon class="cls-3" points="600.42 142.5 582.4 161.19 585.74 285.34 618.12 348.78 639.65 358.3 664.82 315.1 664.82 315.1 665.16 271.32 649.15 175.87 600.42 142.5"/><polygon class="cls-3" points="572.39 167.2 573.72 207.91 547.02 317.38 500.97 372.78 507.64 425.51 502.3 428.84 468.26 359.43 462.25 284.67 505.64 185.89 547.69 183.88 569.05 166.53 572.39 167.2"/><polygon class="cls-3" points="129.71 566.35 141.44 594.31 175.72 599.73 178.42 650.24 160.38 722.41 148.65 721.51 160.04 673.47 147.86 673.14 128.81 724.22 114.37 722.41 132.3 670.77 119.78 668.4 95.43 723.32 77.39 721.51 102.19 664.34 93.62 659.27 62.95 707.98 47.62 706.18 93.62 618.67 89.11 611.45 45.81 629.5 43.1 619.57 78.29 588 129.71 566.35"/><polygon class="cls-3" points="748.08 566.35 736.35 594.31 702.07 599.73 699.36 650.24 717.41 722.41 729.13 721.51 717.75 673.47 729.92 673.14 748.98 724.22 763.41 722.41 745.49 670.77 758 668.4 782.36 723.32 800.4 721.51 775.59 664.34 784.16 659.27 814.84 707.98 830.17 706.18 784.16 618.67 788.67 611.45 831.98 629.5 834.68 619.57 799.5 588 748.08 566.35"/><polygon class="cls-3" points="617.77 387.78 618.44 444.86 696.11 559.22 651.82 408.51 617.77 387.78"/><polygon class="cls-3" points="681.51 356.07 659.16 404.15 717.46 587.7 728.73 578.84 721.02 504.05 713.9 455.99 681.51 356.07"/><polygon class="cls-3" points="287.38 725.87 335.44 699.84 409.52 681.15 424.21 639.1 422.87 531.63 396.84 496.26 349.45 495.59 279.37 554.33 278.7 585.34 265.23 649.14 269.36 707.51 287.38 725.87"/><polygon class="cls-3" points="587.74 725.87 539.68 699.84 465.59 681.15 450.91 639.1 452.24 531.63 478.27 496.26 525.66 495.59 595.75 554.33 596.41 585.34 609.88 649.14 605.76 707.51 587.74 725.87"/><polygon class="cls-3" points="337.44 720.53 327.43 885.39 343.45 960.15 312.07 1050.25 278.7 892.07 295.39 732.54 337.44 720.53"/><polygon class="cls-3" points="374.82 711.18 395.51 765.91 403.52 910.09 426.21 771.25 423.54 683.82 374.82 711.18"/><polygon class="cls-3" points="359.46 716.52 334.77 883.39 362.8 1024.22 400.85 1103.65 404.85 934.78 378.15 866.03 376.82 761.24 359.46 716.52"/><polygon class="cls-3" points="278.7 830.85 287.48 734.93 265.23 719.16 265.23 745.44 278.7 830.85"/><polygon class="cls-3" points="537.68 720.53 547.69 885.39 531.67 960.15 563.04 1050.25 596.42 892.07 579.73 732.54 537.68 720.53"/><polygon class="cls-3" points="516.39 716.52 541.09 883.39 513.06 1024.22 475.01 1103.65 471.01 934.78 497.7 866.03 499.04 761.24 516.39 716.52"/><polygon class="cls-3" points="500.3 711.18 479.61 765.91 471.6 910.09 448.91 771.25 451.58 683.82 500.3 711.18"/><polygon class="cls-3" points="597.81 830.85 589.04 734.93 611.28 719.16 611.28 745.44 597.81 830.85"/><polygon class="cls-3" points="273.69 144.77 291.71 163.46 288.38 287.61 255.99 351.05 234.47 360.58 209.29 317.37 209.29 317.37 208.95 273.6 224.97 178.15 273.69 144.77"/><polygon class="cls-3" points="256.34 390.05 255.67 447.14 178.01 561.5 222.29 410.78 256.34 390.05"/><polygon class="cls-3" points="192.6 358.34 214.96 406.42 156.65 589.97 145.38 581.11 153.09 506.32 160.21 458.26 192.6 358.34"/></g><polygon class="cls-3" points="619.97 358.52 615.7 375.68 651.88 397.66 677 346.26 664.89 329.09 642.13 369.13 619.97 358.52"/><polygon class="cls-6" points="253.53 361.07 257.8 378.23 221.62 400.21 196.5 348.81 208.61 331.64 231.37 371.68 253.53 361.07"/></g></svg>