<svg xmlns="http://www.w3.org/2000/svg" xmlns:xlink="http://www.w3.org/1999/xlink" viewBox="0 0 874.68 874.69"><defs><style>.cls-1{fill:none;}.cls-2{clip-path:url(#clip-path);}.cls-3{fill:#f7f7f7;}.cls-4{fill:#d9dadb;}.cls-5{clip-path:url(#clip-path-2);}.cls-6{clip-path:url(#clip-path-3);}.cls-7{fill:#e0af12;}</style><clipPath id="clip-path"><circle class="cls-1" cx="-54.96" cy="1387.3" r="437.34"/></clipPath><clipPath id="clip-path-2"><circle class="cls-1" cx="-492.3" cy="437.34" r="437.34"/></clipPath><clipPath id="clip-path-3"><circle class="cls-1" cx="437.34" cy="437.34" r="437.34"/></clipPath></defs><title>L Foot</title><g id="Front_Left_Foot" data-name="Front Left Foot"><g class="cls-2"><circle class="cls-3" cx="-115.35" cy="1305.18" r="732.84"/><polygon class="cls-4" points="37.47 763.65 49.05 800.05 73.87 953.93 77.18 1159.1 42.43 1359.31 44.09 1102.84 7.68 1000.26 2.72 887.74 37.47 763.65"/><polygon class="cls-4" points="115.65 856.31 107.37 1164.06 47.84 1387.3 116.51 1366.33 233.12 947.31 191.76 675.95 115.65 856.31"/><polygon class="cls-4" points="163.22 538.62 168.18 583.29 133.44 626.32 121.85 694.15 98.69 704.08 78.83 601.5 65.6 565.1 77.18 541.93 163.22 538.62"/><polygon class="cls-4" points="9.34 541.93 34.16 611.42 87.11 714.01 73.87 808.32 35.81 702.43 4.38 642.86 9.34 541.93"/><polygon class="cls-4" points="59.91 61.67 57.34 67.83 8.97 183.28 40.19 469.23 89.49 442.93 46.77 176.71 59.91 61.67"/><polygon class="cls-4" points="197.7 -282 88.94 -42.56 64.21 151.35 110.58 424.15 211.04 146.42 217.22 -139.52 198.97 -281.82 197.7 -282"/><polygon class="cls-4" points="211.59 229.46 225.5 162.85 129.68 425.79 144.13 463.01 186.73 348.47 211.59 229.46"/><polygon class="cls-4" points="118.77 -289.57 180.28 -284.14 71.39 -69.33 -2.79 160.74 4.93 1.34 118.77 -289.57"/><polygon class="cls-4" points="257.97 -265.15 220.1 -276.65 234.47 -153.96 236.77 160.74 186.95 402.89 187.5 517.69 172.6 656.77 191.94 649.58 212.34 697.36 211.51 376.41 258.96 160.74 290.86 -271.46 257.97 -265.15"/></g><g class="cls-5"><circle class="cls-3" cx="-552.69" cy="355.22" r="732.84"/></g></g><g id="Front_Right_Foot" data-name="Front Right Foot"><g class="cls-6"><circle class="cls-3" cx="350.94" cy="315.35" r="732.85"/><polygon class="cls-4" points="343.12 -186.31 331.54 -149.91 306.72 3.97 303.41 209.14 338.16 409.35 336.5 152.88 372.91 50.3 377.87 -62.22 343.12 -186.31"/><polygon class="cls-4" points="535.08 -186.31 546.66 -149.91 571.48 3.97 574.79 209.14 540.04 409.35 541.7 152.88 505.3 50.3 500.33 -62.22 535.08 -186.31"/><polygon class="cls-4" points="382.26 522.84 377.87 644.31 366.29 692.29 331.54 692.29 321.61 659.2 310.03 657.54 312.51 690.64 268.66 677.4 257.08 670.78 207.44 660.03 205.79 621.14 253.77 540.07 279.22 508.26 333.22 538.98 382.26 522.84"/><polygon class="cls-7" points="494.7 522.84 499.09 644.31 510.67 692.29 545.42 692.29 555.35 659.2 566.93 657.54 564.45 690.64 608.29 677.4 619.88 670.78 669.52 660.03 671.17 621.14 623.19 540.07 597.74 508.26 543.74 538.98 494.7 522.84"/><polygon class="cls-4" points="266.25 432.33 264.38 451.49 286.34 494.48 332.13 524.38 379.17 508.96 364.38 464.15 266.25 432.33"/><polygon class="cls-4" points="610.71 432.33 612.58 451.49 590.62 494.48 544.83 524.38 497.79 508.96 512.59 464.15 610.71 432.33"/><polygon class="cls-4" points="263.7 -93.66 271.97 214.1 331.5 437.34 262.84 416.37 146.22 -2.65 187.59 -274.01 263.7 -93.66"/><polygon class="cls-4" points="613.26 -93.66 604.99 214.1 545.46 437.34 614.12 416.37 730.74 -2.65 689.37 -274.01 613.26 -93.66"/></g></g></svg>