<svg xmlns="http://www.w3.org/2000/svg" xmlns:xlink="http://www.w3.org/1999/xlink" viewBox="0 0 876.43 875.76"><defs><style>.cls-1{fill:none;}.cls-2{clip-path:url(#clip-path);}.cls-3{fill:#d9dadb;}.cls-4{fill:#f7f7f7;}.cls-5{clip-path:url(#clip-path-2);}.cls-6{fill:#e0af12;}</style><clipPath id="clip-path"><circle class="cls-1" cx="873.67" cy="1370.12" r="437.34"/></clipPath><clipPath id="clip-path-2"><circle class="cls-1" cx="426.57" cy="437.12" r="437.34"/></clipPath></defs><title>L Glute</title><g id="Back_Left_Glutes" data-name="Back Left Glutes"><g class="cls-2"><polygon class="cls-3" points="830.95 638.59 824.95 701.33 745.52 738.71 828.95 748.72 865.66 720.69 858.32 616.57 830.95 638.59"/><polygon class="cls-3" points="957.18 554.49 955.84 481.74 921.13 440.35 871.74 431.01 819.68 440.35 784.97 481.74 783.64 554.49 765.62 559.83 772.29 597.88 786.97 606.55 805 604.55 821.01 640.59 842.37 612.56 871.74 603.86 898.44 612.56 919.8 640.59 935.82 604.55 953.84 606.55 968.52 597.88 975.2 559.83 957.18 554.49"/><polygon class="cls-3" points="908.38 638.59 914.39 701.33 993.82 738.71 910.38 748.72 873.67 720.69 881.01 616.57 908.38 638.59"/><polygon class="cls-3" points="767.54 779.43 762.2 795.45 737.51 806.79 724.83 851.51 666.76 899.57 666.09 804.12 700.8 750.73 729.5 744.05 767.54 779.43"/><polygon class="cls-3" points="752.19 752.73 785.57 781.43 809.59 920.93 858.99 1020.38 858.99 789.44 821.61 761.4 752.19 752.73"/><polygon class="cls-3" points="778.89 796.78 800.92 910.92 752.19 906.91 720.82 869.53 740.18 848.84 744.85 820.81 778.89 796.78"/></g><circle class="cls-4" cx="435.6" cy="437.12" r="437.34"/><g class="cls-5"><polygon class="cls-3" points="259.71 -52.78 277.73 -34.09 274.39 90.06 233.01 179.5 204.31 166.82 194.96 76.04 210.98 -19.41 259.71 -52.78"/><polygon class="cls-3" points="287.74 -28.08 286.4 12.63 313.1 122.1 359.16 177.5 352.48 230.23 357.82 233.56 391.87 164.15 397.87 89.39 354.49 -9.39 312.44 -11.4 291.08 -28.75 287.74 -28.08"/><polygon class="cls-3" points="245.02 179.5 244.35 249.58 166.69 363.94 204.97 234.23 245.02 179.5"/><polygon class="cls-3" points="188.29 142.79 203.64 208.87 145.33 392.42 134.06 383.56 141.77 308.76 148.89 260.71 188.29 142.79"/><polygon class="cls-3" points="305.09 -180.27 338.47 -151.56 362.5 -12.06 411.89 87.39 411.89 -143.56 374.51 -171.59 305.09 -180.27"/><polygon class="cls-3" points="540.04 -180.27 506.67 -151.56 482.64 -12.06 433.25 87.39 433.25 -143.56 470.63 -171.59 540.04 -180.27"/><polygon class="cls-3" points="585.43 -52.78 567.41 -34.09 570.75 90.06 612.13 179.5 640.83 166.82 650.17 76.04 634.15 -19.41 585.43 -52.78"/><polygon class="cls-3" points="557.4 -28.08 558.73 12.63 532.03 122.1 485.98 177.5 492.65 230.23 487.31 233.56 453.27 164.15 447.26 89.39 490.65 -9.39 532.7 -11.4 554.06 -28.75 557.4 -28.08"/><polygon class="cls-3" points="114.72 371.07 126.45 399.03 160.73 404.44 163.43 454.96 145.39 527.13 133.66 526.23 145.05 478.19 132.87 477.86 113.82 528.94 99.38 527.13 117.31 475.49 104.8 473.12 80.44 528.04 62.4 526.23 87.2 469.06 78.63 463.99 47.96 512.7 32.63 510.9 78.63 423.39 74.12 416.17 30.82 434.21 28.11 424.29 63.3 392.72 114.72 371.07"/><polygon class="cls-3" points="733.09 371.07 721.36 399.03 687.08 404.44 684.37 454.96 702.42 527.13 714.14 526.23 702.75 478.19 714.93 477.86 733.99 528.94 748.42 527.13 730.5 475.49 743.01 473.12 767.37 528.04 785.41 526.23 760.6 469.06 769.17 463.99 799.85 512.7 815.18 510.9 769.17 423.39 773.68 416.17 816.99 434.21 819.69 424.29 784.51 392.72 733.09 371.07"/><polygon class="cls-3" points="602.78 179.5 603.45 249.58 681.12 363.94 642.83 234.23 602.78 179.5"/><polygon class="cls-3" points="659.52 142.79 644.17 208.87 702.47 392.42 713.74 383.56 706.03 308.76 698.91 260.71 659.52 142.79"/><polygon class="cls-3" points="311.1 144.12 349.15 201.53 337.13 226.89 295.08 231.56 311.1 144.12"/><polygon class="cls-3" points="347.81 239.57 397.2 292.97 380.52 291.63 321.11 293.63 254.37 343.69 289.07 245.58 347.81 239.57"/><polygon class="cls-3" points="534.04 144.12 495.99 201.53 508 226.89 550.05 231.56 534.04 144.12"/><polygon class="cls-3" points="440.43 165.48 423.07 114.75 404.38 165.04 374.81 238.9 424.87 298.25 472.26 238.9 440.43 165.48"/><polygon class="cls-3" points="497.32 239.57 447.93 292.97 464.62 291.63 524.02 293.63 590.77 343.69 556.06 245.58 497.32 239.57"/><polygon class="cls-6" points="272.39 530.59 320.45 504.55 394.53 485.87 409.22 443.81 407.88 336.35 381.85 300.98 334.46 300.31 264.38 359.05 263.71 390.06 250.24 453.86 254.37 512.23 272.39 530.59"/><polygon class="cls-3" points="572.75 530.59 524.69 504.55 450.6 485.87 435.92 443.81 437.25 336.35 463.28 300.98 510.67 300.31 580.76 359.05 581.42 390.06 594.89 453.86 590.77 512.23 572.75 530.59"/><polygon class="cls-3" points="322.45 525.25 312.44 690.11 328.45 764.87 297.08 854.97 263.71 696.78 280.4 537.26 322.45 525.25"/><polygon class="cls-3" points="359.83 515.9 380.52 570.63 388.53 714.81 411.22 575.97 408.55 488.54 359.83 515.9"/><polygon class="cls-3" points="344.47 521.24 319.78 688.11 347.81 828.94 385.86 908.37 389.86 739.5 363.16 670.75 361.83 565.96 344.47 521.24"/><polygon class="cls-3" points="263.71 635.57 272.49 539.65 250.24 523.88 250.24 550.16 263.71 635.57"/><polygon class="cls-3" points="522.69 525.25 532.7 690.11 516.68 764.87 548.05 854.97 581.43 696.78 564.74 537.26 522.69 525.25"/><polygon class="cls-3" points="501.4 521.24 526.1 688.11 498.07 828.94 460.02 908.37 456.02 739.5 482.71 670.75 484.05 565.96 501.4 521.24"/><polygon class="cls-3" points="485.31 515.9 464.62 570.63 456.61 714.81 433.92 575.97 436.59 488.54 485.31 515.9"/><polygon class="cls-3" points="582.82 635.57 574.05 539.65 596.29 523.88 596.29 550.16 582.82 635.57"/><polygon class="cls-3" points="347.16 874.46 351.5 1098.11 389.91 1141.47 408.49 1113.6 409.73 1053.5 393 963.67 347.16 874.46"/><polygon class="cls-3" points="335.39 861.45 332.91 1044.21 343.44 1113.6 325.48 1128.46 293.88 1064.04 301.94 939.51 317.42 888.71 318.66 852.16 335.39 861.45"/><polygon class="cls-3" points="499.52 874.46 495.19 1098.11 456.77 1141.47 438.19 1113.6 436.95 1053.5 453.68 963.67 499.52 874.46"/><polygon class="cls-3" points="511.29 861.45 513.77 1044.21 503.24 1113.6 521.21 1128.46 552.8 1064.04 544.75 939.51 529.26 888.71 528.02 852.16 511.29 861.45"/></g></g></svg>