<svg xmlns="http://www.w3.org/2000/svg" xmlns:xlink="http://www.w3.org/1999/xlink" viewBox="0 0 874.68 874.68"><defs><style>.cls-1{fill:none;}.cls-2{clip-path:url(#clip-path);}.cls-3{fill:#d9dadb;}.cls-4{clip-path:url(#clip-path-2);}.cls-5{clip-path:url(#clip-path-3);}.cls-6{clip-path:url(#clip-path-4);}.cls-7{fill:#f7f7f7;}.cls-8{fill:#e0af12;}</style><clipPath id="clip-path"><circle class="cls-1" cx="856.29" cy="3270.64" r="430.53"/></clipPath><clipPath id="clip-path-2"><circle class="cls-1" cx="148.98" cy="-727.51" r="437.34"/></clipPath><clipPath id="clip-path-3"><circle class="cls-1" cx="-67.14" cy="1361.85" r="437.34"/></clipPath><clipPath id="clip-path-4"><circle class="cls-1" cx="437.34" cy="437.34" r="437.34"/></clipPath></defs><title>L Groin</title><g id="Front_Left_Ankle" data-name="Front Left Ankle"><g class="cls-2"><polygon class="cls-3" points="768.84 408 827.87 497.45 857.06 600.23 789.04 545.98 761.75 448.98 768.84 408"/><polygon class="cls-3" points="740.52 473.18 755.09 541.13 669.34 562.16 614.34 542.75 740.52 473.18"/><polygon class="cls-3" points="685.52 586.43 617.57 707.76 543.15 744.97 588.45 780.56 624.04 884.1 706.55 918.08 838.02 853.11 805.24 597.75 685.52 586.43"/><path class="cls-3" d="M552,1038a13.37,13.37,0,0,1,3-1.76l27-200.64-51.77-74.42L476.82,838.8l-45.29,271.79,4.15,36.49C472.19,1108.31,510.28,1071.18,552,1038Z"/><polygon class="cls-3" points="450.94 825.86 426.67 1084.71 410.49 892.19 450.94 825.86"/><polygon class="cls-3" points="1017.89 200.95 1017.89 105.72 967.68 19.15 860.27 -15.72 752.98 19.15 702.77 105.72 702.77 200.95 678.53 206.15 688.92 289.25 728.74 303.11 772.02 393.14 860.75 431.04 948.63 393.14 991.92 303.11 1031.74 289.25 1042.13 206.15 1017.89 200.95"/><path class="cls-3" d="M584.24,550.76l-29.76-16.1-93.13,103-.51,39.23S582.44,551.67,584.24,550.76Z"/><path class="cls-3" d="M593.69,555c0,2.06-130.72,139.27-130.72,139.27L459,816.16l45.3-77.66,87.36-37.21,61.47-113.24Z"/><polygon class="cls-3" points="953.78 408 894.75 497.45 865.56 600.23 933.58 545.98 957.19 447.4 953.78 408"/></g></g><g id="Back_Left_Hamstrings" data-name="Back Left Hamstrings"><g class="cls-4"><polygon class="cls-3" points="242.65 53.46 226.13 67.5 228.61 89.81 262.18 46.47 257.81 41.33 242.65 53.46"/><polygon class="cls-3" points="257.15 38.94 235.59 31.71 228.09 47.8 224.19 63.37 225.56 65.14 257.15 38.94"/><polygon class="cls-3" points="202.22 63.77 202.22 61.18 200.58 53.78 190.62 61.77 189.05 71.1 190.21 81.98 202.22 63.77"/><polygon class="cls-3" points="58.64 52.71 75.17 66.75 72.69 89.05 39.12 45.72 43.48 40.58 58.64 52.71"/><polygon class="cls-3" points="44.14 38.19 65.7 30.96 73.21 47.05 77.11 62.62 75.74 64.39 44.14 38.19"/><polygon class="cls-3" points="99.08 63.01 99.08 60.43 100.71 53.03 110.68 61.02 112.25 70.35 111.09 81.23 99.08 63.01"/><polygon class="cls-3" points="77.01 90.25 110.68 88.06 95.51 64.09 104.69 16.57 84.67 23.02 67.69 21.32 80.65 67.12 77.01 90.25"/><polygon class="cls-3" points="223.88 90.25 190.21 88.06 205.37 64.09 196.19 16.57 216.22 23.02 233.19 21.32 220.24 67.12 223.88 90.25"/><polygon class="cls-3" points="75.92 -207.53 57.96 -191.43 85.21 -61.95 87.05 16.57 105.14 11.45 106.9 -60.71 119.91 -152.4 116.19 -173.46 75.92 -207.53"/><polygon class="cls-3" points="61.67 -117.08 78.4 -34.07 79.3 -15.63 82.67 17.68 67.69 16.57 59.45 -15.31 53.62 -49.56 53.62 -127 61.67 -117.08"/><polygon class="cls-3" points="224.96 -207.53 242.93 -191.43 215.67 -61.95 213.83 16.57 195.75 11.45 193.99 -60.71 180.98 -152.4 184.69 -173.46 224.96 -207.53"/><polygon class="cls-3" points="239.21 -117.08 222.48 -34.07 221.58 -15.63 218.22 17.68 233.19 16.57 241.44 -15.31 247.26 -49.56 247.26 -127 239.21 -117.08"/></g></g><g id="Front_Abs" data-name="Front Abs"><g class="cls-5"><polygon class="cls-3" points="15.27 643.65 15.27 592.13 -11.89 545.3 -70 526.43 -128.04 545.3 -155.21 592.13 -155.21 643.65 -168.32 646.46 -162.7 691.42 -141.16 698.92 -117.74 747.63 -69.74 768.13 -22.2 747.63 1.22 698.92 22.76 691.42 28.38 646.46 15.27 643.65"/><polygon class="cls-3" points="-3.28 790.93 -11.16 827.69 35.23 839.06 64.99 828.56 -3.28 790.93"/><polygon class="cls-3" points="26.48 852.19 63.24 917.83 103.5 937.96 78.99 957.22 59.73 1013.23 15.1 1031.61 -56.03 996.47 -38.29 858.32 26.48 852.19"/><path class="cls-3" d="M81.27,832.89l16.1-8.7,50.38,55.73.28,21.23S82.24,833.39,81.27,832.89Z"/><path class="cls-3" d="M76.15,835.2c0,1.12,70.72,75.35,70.72,75.35L149,976.47l-24.51-42L77.24,914.33,44,853.07Z"/></g><g class="cls-6"><circle class="cls-7" cx="437.34" cy="437.34" r="437.34"/><polygon class="cls-3" points="344.4 -70.89 307.64 -5.25 267.38 14.88 291.89 34.14 311.14 90.15 355.78 108.53 426.9 73.38 409.17 -64.76 344.4 -70.89"/><path class="cls-3" d="M272.18,173.39a7.29,7.29,0,0,1,1.62-.95L288.39,63.89l-28-40.26-28.88,42L207,212.68l2.25,19.74C229,211.45,249.6,191.36,272.18,173.39Z"/><path class="cls-3" d="M212.84,247.87a6.49,6.49,0,0,1-1.69,1.31l3.72,32.64,51.64-55.13,4.77-35.57C250.52,208.67,231.34,227.92,212.84,247.87Z"/><polygon class="cls-3" points="218.37 297.58 146.46 491.74 169.37 497.03 245.5 340.46 259.5 252.94 218.37 297.58"/><polygon class="cls-3" points="197.36 222.31 207.87 296.7 139.41 479.4 128.83 472.35 155.27 331.36 197.36 222.31"/><polygon class="cls-3" points="217.49 58.64 204.37 198.68 195.61 94.53 217.49 58.64"/><polygon class="cls-3" points="116.55 477.2 128.01 504.51 161.49 509.8 164.14 559.15 146.51 629.64 135.06 628.76 146.18 581.84 134.29 581.51 115.67 631.41 101.57 629.64 119.08 579.2 106.86 576.88 83.06 630.53 65.44 628.76 89.67 572.92 81.3 567.96 51.34 615.55 36.36 613.78 81.3 528.31 76.9 521.26 34.6 538.88 31.95 529.19 66.32 498.35 116.55 477.2"/><polygon class="cls-3" points="535.41 -70.89 572.17 -5.25 612.43 14.88 587.93 34.14 568.67 90.15 524.04 108.53 452.91 73.38 470.65 -64.76 535.41 -70.89"/><path class="cls-3" d="M607.64,173.39a7.52,7.52,0,0,0-1.62-.95L591.43,63.89l28-40.26,28.88,42,24.5,147-2.24,19.74C650.82,211.45,630.22,191.36,607.64,173.39Z"/><path class="cls-3" d="M667,247.87a6.53,6.53,0,0,0,1.7,1.31L665,281.82l-51.64-55.13-4.78-35.57C629.3,208.67,648.48,227.92,667,247.87Z"/><polygon class="cls-3" points="661.45 297.58 733.36 491.74 710.45 497.03 634.32 340.46 620.31 252.94 661.45 297.58"/><polygon class="cls-3" points="682.45 222.31 671.95 296.7 740.41 479.4 750.98 472.35 724.54 331.36 682.45 222.31"/><polygon class="cls-3" points="662.32 58.64 675.45 198.68 684.2 94.53 662.32 58.64"/><polygon class="cls-3" points="763.26 477.2 751.81 504.51 718.32 509.8 715.68 559.15 733.3 629.64 744.76 628.76 733.63 581.84 745.53 581.51 764.14 631.41 778.24 629.64 760.73 579.2 772.96 576.88 796.75 630.53 814.37 628.76 790.14 572.92 798.51 567.96 828.47 615.55 843.45 613.78 798.51 528.31 802.92 521.26 845.22 538.88 847.86 529.19 813.49 498.35 763.26 477.2"/><path class="cls-3" d="M585.09-87.88c0,1.11,70.72,75.35,70.72,75.35L658,53.39l-24.51-42L586.18-8.75,552.92-70Z"/><path class="cls-3" d="M294.72-87.88c0,1.11-70.72,75.35-70.72,75.35l-2.13,65.92,24.51-42L293.64-8.75,326.9-70Z"/><polygon class="cls-3" points="303.12 494.18 361.04 621.7 374.21 724.97 349.52 870.26 296.01 722.35 292.72 570.06 302.44 494.27 303.12 494.18"/><polygon class="cls-3" points="295.72 766.57 288.31 731.1 339.35 871.13 331.65 890.96 308.96 829.95 295.72 766.57"/><polygon class="cls-3" points="376.84 679.21 378.21 682.49 403.97 743.98 387.34 896.26 361.08 882.26 383.84 740.48 376.84 679.21"/><polygon class="cls-3" points="502.98 679.21 501.6 682.49 475.85 743.98 492.48 896.26 518.73 882.26 495.98 740.48 502.98 679.21"/><polygon class="cls-3" points="576.36 496.18 518.44 623.7 505.27 726.97 529.96 872.26 583.46 724.35 586.76 572.06 577.04 496.27 576.36 496.18"/><polygon class="cls-3" points="583.76 768.57 591.16 733.1 540.13 873.13 547.83 892.96 570.52 831.95 583.76 768.57"/><polygon class="cls-3" points="288.04 380.2 257.37 492.3 272.44 494.75 302.06 488.14 342.33 484.39 362.48 459.56 352.57 434.83 328 427.46 288.04 380.2"/><polygon class="cls-3" points="591.43 382.2 622.11 494.3 607.04 496.75 577.41 490.14 537.15 486.39 517 461.56 526.91 436.83 551.48 429.46 591.43 382.2"/><polygon class="cls-3" points="345.15 490.14 312.39 493.04 370.39 607.44 409.9 729.97 405.78 645.08 345.15 490.14"/><polygon class="cls-3" points="409.33 514.91 409.8 514.32 406.64 506.28 368.3 464.3 355.25 482.47 379.55 545.12 409.33 514.91"/><polygon class="cls-3" points="384.42 557.66 411.54 627.57 420.6 541.8 415.24 528.18 384.42 557.66"/><polygon class="cls-8" points="495.39 557.66 468.27 627.57 459.22 541.8 464.57 528.18 495.39 557.66"/><polygon class="cls-8" points="534.32 492.14 567.09 495.04 509.09 609.44 469.58 731.97 473.7 647.08 534.32 492.14"/><polygon class="cls-8" points="470.15 516.91 469.68 516.32 472.84 508.28 511.18 466.3 524.23 484.47 499.93 547.12 470.15 516.91"/><polygon class="cls-3" points="271.02 503.15 291.19 497.03 283.54 562.37 282.31 729.97 308.84 858.93 308.55 920.07 316.49 994.14 306.19 990.32 295.32 1015.76 295.76 844.83 270.49 729.97 253.5 499.79 271.02 503.15"/><polygon class="cls-3" points="608.46 505.15 588.29 499.03 595.94 564.37 597.17 731.97 570.63 860.93 570.93 922.07 562.99 996.14 573.29 992.32 584.15 1017.76 583.72 846.83 608.99 731.97 625.97 501.79 608.46 505.15"/><polygon class="cls-3" points="325.68 156.28 353.15 171.55 349.98 135.38 325.68 156.28"/><polygon class="cls-3" points="348.04 121.63 295.39 99.78 315.21 153.13 348.04 121.63"/><polygon class="cls-3" points="315.52 158.4 351.4 180.28 357.53 224.04 322.52 201.29 315.52 158.4"/><polygon class="cls-3" points="324.27 211.81 355.78 233.69 360.15 278.32 325.14 250.32 324.27 211.81"/><polygon class="cls-3" points="359.27 302.05 320.76 273.17 317.41 311.97 290.1 362.2 332.15 420.11 354.03 423.61 361.9 341.34 359.27 302.05"/><polygon class="cls-3" points="554.14 156.28 526.66 171.55 529.84 135.38 554.14 156.28"/><polygon class="cls-3" points="531.78 121.63 584.43 99.78 564.61 153.13 531.78 121.63"/><polygon class="cls-3" points="564.3 158.4 528.41 180.28 522.29 224.04 557.3 201.29 564.3 158.4"/><polygon class="cls-3" points="555.54 211.81 524.04 233.69 519.66 278.32 554.67 250.32 555.54 211.81"/><polygon class="cls-3" points="520.55 302.05 559.06 273.17 562.4 311.97 589.72 362.2 547.67 420.11 525.79 423.61 517.91 341.34 520.55 302.05"/><polygon class="cls-3" points="366.76 120.97 432.85 91.23 430.87 139.47 371.39 169.88 366.76 120.97"/><polygon class="cls-3" points="377.33 181.77 378.66 216.14 427.56 205.57 430.21 158.64 377.33 181.77"/><polygon class="cls-3" points="435.5 518.18 422.62 393.05 422.29 311.58 375.91 288.83 370.66 437.61 435.5 518.18"/><polygon class="cls-3" points="380.64 232.66 379.98 274.96 426.9 287.52 427.56 221.43 380.64 232.66"/><polygon class="cls-3" points="513.05 120.97 446.96 91.23 448.95 139.47 508.43 169.88 513.05 120.97"/><polygon class="cls-3" points="502.48 181.77 501.16 216.14 452.25 205.57 449.61 158.64 502.48 181.77"/><polygon class="cls-3" points="444.32 518.18 457.2 393.05 457.52 311.58 503.91 288.83 509.16 437.61 444.32 518.18"/><polygon class="cls-3" points="499.18 232.66 499.84 274.96 452.91 287.52 452.25 221.43 499.18 232.66"/></g></g></svg>