<svg xmlns="http://www.w3.org/2000/svg" xmlns:xlink="http://www.w3.org/1999/xlink" viewBox="0 0 874.68 874.68"><defs><style>.cls-1{fill:none;}.cls-2{clip-path:url(#clip-path);}.cls-3{fill:#d9dadb;}.cls-4{fill:#f7f7f7;}.cls-5{clip-path:url(#clip-path-2);}.cls-6{fill:#e0af12;}</style><clipPath id="clip-path"><circle class="cls-1" cx="920.8" cy="1369.79" r="437.34"/></clipPath><clipPath id="clip-path-2"><circle class="cls-1" cx="437.34" cy="437.34" r="437.34"/></clipPath></defs><title>L Hamstring</title><g id="Back_Left_Hamstrings" data-name="Back Left Hamstrings"><g class="cls-2"><polygon class="cls-3" points="883.2 473.72 877.19 536.46 797.76 573.84 881.19 583.85 917.9 555.82 910.56 451.69 883.2 473.72"/><polygon class="cls-3" points="759.05 715.34 777.07 734.03 773.73 858.18 732.35 947.62 703.65 934.94 694.3 844.16 710.32 748.72 759.05 715.34"/><polygon class="cls-3" points="787.08 740.04 785.75 780.75 812.44 890.22 858.5 945.62 851.83 998.35 857.16 1001.68 891.21 932.27 897.21 857.51 853.83 758.73 811.78 756.73 790.42 739.37 787.08 740.04"/><polygon class="cls-3" points="1009.42 389.62 1008.09 316.87 973.38 275.48 923.99 266.14 871.92 275.48 837.21 316.87 835.88 389.62 817.86 394.96 824.53 433 839.22 441.68 857.24 439.68 873.26 475.72 894.62 447.69 923.99 438.98 950.68 447.69 972.04 475.72 988.06 439.68 1006.08 441.68 1020.77 433 1027.44 394.96 1009.42 389.62"/><polygon class="cls-3" points="819.79 614.55 814.45 630.57 789.75 641.92 777.07 686.64 719 734.7 718.33 639.25 753.04 585.85 781.74 579.18 819.79 614.55"/><polygon class="cls-3" points="804.43 587.86 837.81 616.56 861.84 756.06 911.23 855.51 911.23 624.57 873.85 596.53 804.43 587.86"/><polygon class="cls-3" points="831.13 631.91 853.16 746.05 804.43 742.04 773.06 704.66 792.42 683.97 797.09 655.94 831.13 631.91"/></g><circle class="cls-4" cx="437.34" cy="437.34" r="437.34"/><g class="cls-5"><polygon class="cls-3" points="275.59 -217.11 293.61 -198.42 290.27 -74.27 248.89 15.17 220.19 2.48 210.84 -88.29 226.86 -183.74 275.59 -217.11"/><polygon class="cls-3" points="303.62 -192.41 302.29 -151.7 328.98 -42.23 375.04 13.16 368.36 65.89 373.7 69.23 407.75 -0.18 413.75 -74.94 370.37 -173.73 328.32 -175.73 306.96 -193.08 303.62 -192.41"/><polygon class="cls-3" points="260.9 15.17 260.24 85.25 182.57 199.61 220.85 69.9 260.9 15.17"/><polygon class="cls-3" points="204.17 -21.54 219.52 44.53 161.21 228.09 149.94 219.23 157.65 144.43 164.77 96.38 204.17 -21.54"/><polygon class="cls-3" points="601.31 -217.11 583.29 -198.42 586.63 -74.27 628.01 15.17 656.71 2.48 666.05 -88.29 650.04 -183.74 601.31 -217.11"/><polygon class="cls-3" points="573.28 -192.41 574.61 -151.7 547.91 -42.23 501.86 13.16 508.53 65.89 503.19 69.23 469.15 -0.18 463.14 -74.94 506.53 -173.73 548.58 -175.73 569.94 -193.08 573.28 -192.41"/><polygon class="cls-3" points="130.6 206.74 142.33 234.7 176.61 240.11 179.31 290.63 161.27 362.8 149.54 361.9 160.93 313.86 148.75 313.52 129.7 364.61 115.26 362.8 133.19 311.16 120.67 308.79 96.32 363.7 78.28 361.9 103.08 304.73 94.51 299.65 63.84 348.37 48.51 346.56 94.51 259.06 90 251.84 46.7 269.88 43.99 259.96 79.18 228.39 130.6 206.74"/><polygon class="cls-3" points="748.97 206.74 737.24 234.7 702.96 240.11 700.25 290.63 718.3 362.8 730.02 361.9 718.63 313.86 730.81 313.52 749.87 364.61 764.3 362.8 746.38 311.16 758.89 308.79 783.25 363.7 801.29 361.9 776.48 304.73 785.05 299.65 815.73 348.37 831.06 346.56 785.05 259.06 789.56 251.84 832.87 269.88 835.57 259.96 800.39 228.39 748.97 206.74"/><polygon class="cls-3" points="618.66 15.17 619.33 85.25 697 199.61 658.71 69.9 618.66 15.17"/><polygon class="cls-3" points="675.4 -21.54 660.05 44.53 718.35 228.09 729.62 219.23 721.91 144.43 714.79 96.38 675.4 -21.54"/><polygon class="cls-3" points="326.98 -20.21 365.03 37.19 353.01 62.56 310.96 67.23 326.98 -20.21"/><polygon class="cls-3" points="363.69 75.24 413.08 128.64 396.4 127.3 336.99 129.3 270.25 179.36 304.95 81.25 363.69 75.24"/><polygon class="cls-3" points="549.92 -20.21 511.87 37.19 523.88 62.56 565.93 67.23 549.92 -20.21"/><polygon class="cls-3" points="456.31 1.15 438.95 -49.58 420.26 0.7 390.69 74.57 440.75 133.92 488.14 74.57 456.31 1.15"/><polygon class="cls-3" points="513.21 75.24 463.81 128.64 480.5 127.3 539.9 129.3 606.65 179.36 571.94 81.25 513.21 75.24"/><polygon class="cls-3" points="288.27 366.25 336.33 340.22 410.42 321.53 425.1 279.48 423.76 172.02 397.73 136.65 350.34 135.98 280.26 194.72 279.59 225.73 266.12 289.52 270.25 347.9 288.27 366.25"/><polygon class="cls-3" points="588.63 366.25 540.57 340.22 466.48 321.53 451.8 279.48 453.13 172.02 479.16 136.65 526.55 135.98 596.64 194.72 597.3 225.73 610.77 289.52 606.65 347.9 588.63 366.25"/><polygon class="cls-6" points="338.33 360.91 328.32 525.78 344.33 600.53 312.96 690.64 279.59 532.45 296.28 372.93 338.33 360.91"/><polygon class="cls-6" points="375.71 351.57 396.4 406.3 404.41 550.48 427.1 411.64 424.43 324.2 375.71 351.57"/><polygon class="cls-6" points="360.35 356.91 335.66 523.78 363.69 664.61 401.74 744.04 405.74 575.17 379.04 506.42 377.71 401.63 360.35 356.91"/><polygon class="cls-6" points="279.59 471.24 288.37 375.32 266.12 359.55 266.12 385.83 279.59 471.24"/><polygon class="cls-3" points="538.57 360.91 548.58 525.78 532.56 600.53 563.93 690.64 597.31 532.45 580.62 372.93 538.57 360.91"/><polygon class="cls-3" points="517.28 356.91 541.98 523.78 513.95 664.61 475.9 744.04 471.9 575.17 498.6 506.42 499.93 401.63 517.28 356.91"/><polygon class="cls-3" points="501.19 351.57 480.5 406.3 472.49 550.48 449.8 411.64 452.47 324.2 501.19 351.57"/><polygon class="cls-3" points="598.7 471.24 589.93 375.32 612.17 359.55 612.17 385.83 598.7 471.24"/><polygon class="cls-3" points="363.04 710.13 367.38 933.78 405.79 977.14 424.37 949.26 425.61 889.17 408.88 799.34 363.04 710.13"/><polygon class="cls-3" points="351.27 697.12 348.79 879.88 359.32 949.26 341.36 964.13 309.76 899.7 317.81 775.18 333.3 724.38 334.54 687.83 351.27 697.12"/><polygon class="cls-3" points="515.4 710.13 511.06 933.78 472.66 977.14 454.07 949.26 452.83 889.17 469.56 799.34 515.4 710.13"/><polygon class="cls-3" points="527.17 697.12 529.65 879.88 519.12 949.26 537.09 964.13 568.68 899.7 560.63 775.18 545.14 724.38 543.9 687.83 527.17 697.12"/></g></g></svg>