<svg xmlns="http://www.w3.org/2000/svg" xmlns:xlink="http://www.w3.org/1999/xlink" viewBox="0 0 874.68 874.68"><defs><style>.cls-1{fill:none;}.cls-2{clip-path:url(#clip-path);}.cls-3{fill:#d9dadb;}.cls-4{clip-path:url(#clip-path-2);}.cls-5{clip-path:url(#clip-path-3);}.cls-6{fill:#f7f7f7;}.cls-7{fill:#e0af12;}</style><clipPath id="clip-path"><circle class="cls-1" cx="114.57" cy="-728.27" r="437.34"/></clipPath><clipPath id="clip-path-2"><circle class="cls-1" cy="1361.85" r="437.34"/></clipPath><clipPath id="clip-path-3"><circle class="cls-1" cx="437.34" cy="437.34" r="437.34"/></clipPath></defs><title>L Hip</title><g id="Back_Left_Glutes" data-name="Back Left Glutes"><g class="cls-2"><polygon class="cls-3" points="203.13 217.25 186.61 231.29 189.09 253.6 222.65 210.26 218.29 205.12 203.13 217.25"/><polygon class="cls-3" points="217.63 202.73 196.07 195.5 188.57 211.59 184.67 227.16 186.03 228.93 217.63 202.73"/><polygon class="cls-3" points="162.69 227.56 162.69 224.97 161.06 217.57 151.09 225.56 149.53 234.89 150.68 245.78 162.69 227.56"/><polygon class="cls-3" points="19.12 216.5 35.64 230.54 33.16 252.84 -0.4 209.51 3.96 204.37 19.12 216.5"/><polygon class="cls-3" points="4.62 201.98 26.18 194.75 33.68 210.84 37.58 226.41 36.22 228.18 4.62 201.98"/><polygon class="cls-3" points="59.56 226.81 59.56 224.22 61.19 216.82 71.16 224.81 72.72 234.14 71.57 245.02 59.56 226.81"/><polygon class="cls-3" points="37.49 254.04 71.16 251.85 55.99 227.88 65.17 180.36 45.15 186.81 28.17 185.11 41.13 230.91 37.49 254.04"/><polygon class="cls-3" points="184.35 254.04 150.68 251.85 165.85 227.88 156.67 180.36 176.69 186.81 193.67 185.11 180.71 230.91 184.35 254.04"/><polygon class="cls-3" points="36.4 -43.74 18.43 -27.64 45.69 101.84 47.53 180.36 65.61 175.24 67.38 103.08 80.39 11.39 76.67 -9.67 36.4 -43.74"/><polygon class="cls-3" points="22.15 46.7 38.88 129.72 39.78 148.16 43.14 181.47 28.17 180.36 19.93 148.49 14.1 114.23 14.1 36.79 22.15 46.7"/><polygon class="cls-3" points="185.44 -43.74 203.41 -27.64 176.15 101.84 174.31 180.36 156.23 175.24 154.46 103.08 141.45 11.39 145.17 -9.67 185.44 -43.74"/><polygon class="cls-3" points="199.69 46.7 182.96 129.72 182.06 148.16 178.7 181.47 193.67 180.36 201.91 148.49 207.74 114.23 207.74 36.79 199.69 46.7"/></g></g><g id="Front_Abs" data-name="Front Abs"><g class="cls-4"><polygon class="cls-3" points="82.41 672.02 82.41 620.5 55.24 573.67 -2.86 554.8 -60.91 573.67 -88.07 620.5 -88.07 672.02 -101.18 674.83 -95.56 719.79 -74.02 727.28 -50.6 775.99 -2.6 796.5 44.94 775.99 68.36 727.28 89.9 719.79 95.52 674.83 82.41 672.02"/><polygon class="cls-3" points="63.86 819.29 55.98 856.05 102.37 867.43 132.13 856.93 63.86 819.29"/><path class="cls-3" d="M148.41,861.26l16.1-8.71,50.38,55.74.28,21.23S149.38,861.76,148.41,861.26Z"/><path class="cls-3" d="M143.29,863.57c0,1.11,70.72,75.34,70.72,75.34l2.14,65.93-24.51-42L144.38,942.7l-33.26-61.26Z"/><polygon class="cls-3" points="47.73 784.03 15.79 832.42 0 888.02 36.8 858.68 49.57 805.35 47.73 784.03"/></g><g class="cls-5"><circle class="cls-6" cx="437.34" cy="437.34" r="437.34"/><polygon class="cls-3" points="344.54 -39.06 307.78 26.58 267.52 46.71 292.02 65.97 311.28 121.98 355.92 140.36 427.04 105.21 409.3 -32.93 344.54 -39.06"/><path class="cls-3" d="M272.31,205.22a7.13,7.13,0,0,1,1.62-.95L288.52,95.72l-28-40.26-28.89,42-24.5,147,2.25,19.74C229.13,243.27,249.74,223.18,272.31,205.22Z"/><path class="cls-3" d="M213,279.7a6.89,6.89,0,0,1-1.69,1.31L215,313.65l51.63-55.14L271.42,223C250.66,240.5,231.48,259.75,213,279.7Z"/><polygon class="cls-3" points="218.51 329.41 146.59 523.57 169.51 528.86 245.64 372.29 259.64 284.77 218.51 329.41"/><polygon class="cls-3" points="197.5 254.14 208 328.53 139.55 511.23 128.97 504.18 155.41 363.19 197.5 254.14"/><polygon class="cls-3" points="217.63 90.47 204.5 230.51 195.75 126.36 217.63 90.47"/><polygon class="cls-3" points="116.69 509.02 128.15 536.34 161.63 541.63 164.28 590.98 146.65 661.47 135.19 660.59 146.32 613.67 134.42 613.34 115.81 663.24 101.71 661.47 119.22 611.02 107 608.71 83.2 662.35 65.58 660.59 89.81 604.75 81.44 599.79 51.48 647.37 36.5 645.61 81.44 560.13 77.03 553.08 34.74 570.71 32.09 561.01 66.46 530.17 116.69 509.02"/><polygon class="cls-3" points="535.55 -39.06 572.31 26.58 612.57 46.71 588.07 65.97 568.81 121.98 524.18 140.36 453.05 105.21 470.79 -32.93 535.55 -39.06"/><path class="cls-3" d="M607.78,205.22a7.13,7.13,0,0,0-1.62-.95L591.57,95.72l28-40.26,28.89,42,24.5,147-2.25,19.74C651,243.27,630.35,223.18,607.78,205.22Z"/><path class="cls-3" d="M667.11,279.7A6.89,6.89,0,0,0,668.8,281l-3.71,32.64-51.64-55.14L608.67,223C629.43,240.5,648.62,259.75,667.11,279.7Z"/><polygon class="cls-3" points="661.59 329.41 733.5 523.57 710.58 528.86 634.45 372.29 620.45 284.77 661.59 329.41"/><polygon class="cls-3" points="682.59 254.14 672.09 328.53 740.54 511.23 751.12 504.18 724.68 363.19 682.59 254.14"/><polygon class="cls-3" points="662.46 90.47 675.59 230.51 684.34 126.36 662.46 90.47"/><polygon class="cls-3" points="763.4 509.02 751.95 536.34 718.46 541.63 715.82 590.98 733.44 661.47 744.9 660.59 733.77 613.67 745.67 613.34 764.28 663.24 778.38 661.47 760.87 611.02 773.1 608.71 796.89 662.35 814.51 660.59 790.28 604.75 798.65 599.79 828.61 647.37 843.59 645.61 798.65 560.13 803.06 553.08 845.35 570.71 848 561.01 813.63 530.17 763.4 509.02"/><path class="cls-3" d="M590.35-58.36l16.1-8.71,50.38,55.74.28,21.22S591.32-57.86,590.35-58.36Z"/><path class="cls-3" d="M585.23-56c0,1.11,70.72,75.34,70.72,75.34l2.13,65.93-24.5-42L586.32,23.08,553.06-38.19Z"/><path class="cls-3" d="M289.74-58.36l-16.1-8.71L223.26-11.33,223,9.89S288.77-57.86,289.74-58.36Z"/><path class="cls-3" d="M294.86-56c0,1.11-70.72,75.34-70.72,75.34L222,85.22l24.5-42,47.26-20.13L327-38.19Z"/><polygon class="cls-3" points="303.25 526 361.18 653.52 374.35 756.8 349.65 902.08 296.15 754.17 292.86 601.88 302.58 526.1 303.25 526"/><polygon class="cls-3" points="295.86 798.4 288.45 762.92 339.49 902.96 331.78 922.78 309.1 861.78 295.86 798.4"/><polygon class="cls-3" points="376.98 711.04 378.35 714.32 404.11 775.8 387.48 928.09 361.22 914.09 383.98 772.3 376.98 711.04"/><polygon class="cls-3" points="503.12 711.04 501.74 714.32 475.98 775.8 492.61 928.09 518.87 914.09 496.11 772.3 503.12 711.04"/><polygon class="cls-3" points="576.5 528 518.58 655.52 505.4 758.8 530.1 904.08 583.6 756.17 586.89 603.88 577.17 528.1 576.5 528"/><polygon class="cls-3" points="583.89 800.4 591.3 764.92 540.27 904.96 547.97 924.78 570.66 863.78 583.89 800.4"/><polygon class="cls-3" points="288.18 412.03 257.51 524.13 272.57 526.58 302.2 519.97 342.47 516.22 362.61 491.39 352.71 466.65 328.14 459.28 288.18 412.03"/><polygon class="cls-7" points="591.57 414.03 622.25 526.13 607.18 528.58 577.55 521.97 537.28 518.22 517.14 493.39 527.04 468.65 551.61 461.28 591.57 414.03"/><polygon class="cls-3" points="345.29 521.97 312.53 524.87 370.52 639.27 410.04 761.8 405.92 676.9 345.29 521.97"/><polygon class="cls-3" points="409.46 546.74 409.94 546.14 406.78 538.11 368.44 496.13 355.38 514.3 379.69 576.94 409.46 546.74"/><polygon class="cls-3" points="384.56 589.49 411.68 659.4 420.74 573.63 415.38 560 384.56 589.49"/><polygon class="cls-3" points="495.53 589.49 468.41 659.4 459.36 573.63 464.71 560 495.53 589.49"/><polygon class="cls-3" points="534.46 523.97 567.22 526.87 509.23 641.27 469.72 763.8 473.83 678.9 534.46 523.97"/><polygon class="cls-3" points="470.29 548.74 469.82 548.14 472.98 540.11 511.32 498.13 524.37 516.3 500.06 578.94 470.29 548.74"/><polygon class="cls-3" points="271.16 534.98 291.33 528.86 283.67 594.2 282.45 761.8 308.98 890.76 308.69 951.9 316.63 1025.97 306.32 1022.15 295.46 1047.59 295.9 876.66 270.63 761.8 253.64 531.62 271.16 534.98"/><polygon class="cls-3" points="608.59 536.98 588.43 530.86 596.08 596.2 597.31 763.8 570.77 892.76 571.07 953.9 563.13 1027.97 573.43 1024.15 584.29 1049.59 583.85 878.66 609.12 763.8 626.11 533.62 608.59 536.98"/><polygon class="cls-3" points="325.81 188.11 353.29 203.38 350.12 167.2 325.81 188.11"/><polygon class="cls-3" points="348.17 153.46 295.52 131.61 315.35 184.96 348.17 153.46"/><polygon class="cls-3" points="315.65 190.23 351.54 212.11 357.67 255.87 322.66 233.11 315.65 190.23"/><polygon class="cls-3" points="324.41 243.63 355.92 265.51 360.29 310.15 325.28 282.14 324.41 243.63"/><polygon class="cls-3" points="359.4 333.88 320.89 305 317.55 343.8 290.23 394.03 332.28 451.94 354.17 455.44 362.04 373.17 359.4 333.88"/><polygon class="cls-3" points="554.28 188.11 526.8 203.38 529.97 167.2 554.28 188.11"/><polygon class="cls-3" points="531.92 153.46 584.57 131.61 564.74 184.96 531.92 153.46"/><polygon class="cls-3" points="564.44 190.23 528.55 212.11 522.42 255.87 557.43 233.11 564.44 190.23"/><polygon class="cls-3" points="555.68 243.63 524.18 265.51 519.8 310.15 554.81 282.14 555.68 243.63"/><polygon class="cls-3" points="520.69 333.88 559.2 305 562.54 343.8 589.86 394.03 547.81 451.94 525.93 455.44 518.05 373.17 520.69 333.88"/><polygon class="cls-3" points="366.9 152.8 432.99 123.06 431.01 171.3 371.52 201.7 366.9 152.8"/><polygon class="cls-3" points="377.47 213.6 378.8 247.97 427.7 237.39 430.35 190.47 377.47 213.6"/><polygon class="cls-3" points="435.63 550 422.76 424.88 422.43 343.41 376.05 320.65 370.79 469.44 435.63 550"/><polygon class="cls-3" points="380.78 264.49 380.12 306.79 427.04 319.35 427.7 253.25 380.78 264.49"/><polygon class="cls-3" points="513.19 152.8 447.1 123.06 449.08 171.3 508.57 201.7 513.19 152.8"/><polygon class="cls-3" points="502.62 213.6 501.3 247.97 452.39 237.39 449.75 190.47 502.62 213.6"/><polygon class="cls-3" points="444.46 550 457.33 424.88 457.66 343.41 504.05 320.65 509.3 469.44 444.46 550"/><polygon class="cls-3" points="499.31 264.49 499.97 306.79 453.05 319.35 452.39 253.25 499.31 264.49"/></g></g></svg>