<svg xmlns="http://www.w3.org/2000/svg" xmlns:xlink="http://www.w3.org/1999/xlink" viewBox="0 0 874.68 874.68"><defs><style>.cls-1{fill:none;}.cls-2{clip-path:url(#clip-path);}.cls-3{fill:#d9dadb;}.cls-4{clip-path:url(#clip-path-2);}.cls-5,.cls-8{fill:#f7f7f7;}.cls-6{clip-path:url(#clip-path-3);}.cls-7{clip-path:url(#clip-path-4);}.cls-8{stroke:#f7f7f7;stroke-miterlimit:10;}.cls-9{fill:#e0af12;}</style><clipPath id="clip-path"><circle class="cls-1" cx="-171.29" cy="3270.64" r="437.34"/></clipPath><clipPath id="clip-path-2"><circle class="cls-1" cy="-727.51" r="437.34"/></clipPath><clipPath id="clip-path-3"><circle class="cls-1" cx="-76.72" cy="1361.85" r="437.34"/></clipPath><clipPath id="clip-path-4"><circle class="cls-1" cx="437.34" cy="437.34" r="437.34"/></clipPath></defs><title>L IT Band</title><g id="Front_Right_Foot" data-name="Front Right Foot"><g class="cls-2"><polygon class="cls-3" points="-11.24 144.99 -11.24 48.26 -62.25 -39.68 -171.35 -75.1 -280.34 -39.68 -331.34 48.26 -331.34 144.99 -355.96 150.27 -345.41 234.69 -304.96 248.76 -260.99 340.22 -170.87 378.72 -81.59 340.22 -37.62 248.76 2.83 234.69 13.38 150.27 -11.24 144.99"/><polygon class="cls-3" points="-46.07 421.53 -60.86 490.55 26.24 511.91 82.11 492.19 -46.07 421.53"/><polygon class="cls-3" points="9.8 536.56 78.82 659.82 154.42 697.61 108.4 733.77 72.25 838.94 -11.56 873.45 -145.11 807.46 -111.81 548.07 9.8 536.56"/><path class="cls-3" d="M145.41,995.24a13.6,13.6,0,0,0-3-1.79L115,789.64l52.59-75.59,54.23,78.88,46,276.08-4.22,37.06C226.5,1066.7,187.81,1029,145.41,995.24Z"/><polygon class="cls-3" points="248.09 779.78 272.74 1042.72 289.18 847.16 248.09 779.78"/><path class="cls-3" d="M112.69,500.33,142.92,484l94.6,104.65.52,39.85S114.51,501.26,112.69,500.33Z"/><path class="cls-3" d="M103.08,504.66c0,2.09,132.78,141.47,132.78,141.47l4,123.79-46-78.88-88.74-37.8-62.45-115Z"/><polygon class="cls-3" points="2.98 898.05 101.83 857.02 64.61 957.2 2.98 898.05"/></g></g><g id="Back_Left_Achilles" data-name="Back Left Achilles"><g class="cls-4"><circle class="cls-5" cx="46.23" cy="-682.19" r="732.85"/></g></g><g id="Front_Abs" data-name="Front Abs"><g class="cls-6"><polygon class="cls-3" points="6.08 415.02 6.08 363.5 -21.09 316.66 -79.19 297.8 -137.23 316.66 -164.4 363.5 -164.4 415.02 -177.51 417.83 -171.89 462.79 -150.35 470.28 -126.93 518.99 -78.93 539.49 -31.39 518.99 -7.97 470.28 13.57 462.79 19.19 417.83 6.08 415.02"/><polygon class="cls-3" points="-12.47 562.29 -20.35 599.05 26.04 610.43 55.8 599.92 -12.47 562.29"/><polygon class="cls-3" points="17.29 623.56 54.05 689.2 94.31 709.33 69.8 728.58 50.55 784.6 5.91 802.98 -65.22 767.83 -47.48 629.68 17.29 623.56"/><path class="cls-3" d="M89.51,867.84a7.34,7.34,0,0,0-1.62-1L73.3,758.34l28-40.26,28.88,42,24.51,147-2.25,19.73C132.7,905.89,112.09,885.8,89.51,867.84Z"/><polygon class="cls-3" points="144.19 753.09 157.32 893.12 166.07 788.97 144.19 753.09"/><path class="cls-3" d="M72.08,604.26l16.1-8.71,50.38,55.74.28,21.22S73.05,604.75,72.08,604.26Z"/><path class="cls-3" d="M67,606.57c0,1.11,70.72,75.34,70.72,75.34l2.14,65.93-24.51-42L68.05,685.7,34.79,624.43Z"/><polygon class="cls-3" points="36.01 850.73 8.53 865.99 11.71 829.82 36.01 850.73"/><polygon class="cls-3" points="13.65 816.08 66.3 794.22 46.48 847.58 13.65 816.08"/><polygon class="cls-3" points="46.17 852.85 10.29 874.73 4.16 918.49 39.17 895.73 46.17 852.85"/></g><g class="cls-7"><ellipse class="cls-8" cx="440.4" cy="438.77" rx="468.9" ry="480.61"/><circle class="cls-5" cx="437.34" cy="437.34" r="437.34"/><path class="cls-3" d="M270.55-58.62a7.07,7.07,0,0,1,1.62-1l14.59-108.55-28-40.26-28.88,42-24.51,147L207.61.41C227.36-20.56,248-40.65,270.55-58.62Z"/><path class="cls-3" d="M211.21,15.86a6.49,6.49,0,0,1-1.69,1.31l3.72,32.64L264.87-5.33l4.78-35.56C248.89-23.34,229.71-4.09,211.21,15.86Z"/><polygon class="cls-3" points="216.74 65.57 144.83 259.73 167.74 265.01 243.87 108.45 257.87 20.93 216.74 65.57"/><polygon class="cls-3" points="195.73 -9.7 206.24 64.69 137.78 247.39 127.2 240.34 153.64 99.35 195.73 -9.7"/><polygon class="cls-3" points="114.92 245.18 126.38 272.5 159.86 277.79 162.51 327.14 144.88 397.63 133.43 396.75 144.55 349.83 132.66 349.5 114.04 399.4 99.94 397.63 117.45 347.19 105.23 344.87 81.44 398.51 63.81 396.75 88.04 340.91 79.67 335.95 49.71 383.54 34.73 381.77 79.67 296.3 75.27 289.25 32.97 306.87 30.32 297.18 64.69 266.33 114.92 245.18"/><path class="cls-3" d="M606-58.62a7.52,7.52,0,0,0-1.62-1L589.8-168.12l28-40.26,28.88,42,24.5,147L669,.41C649.19-20.56,628.59-40.65,606-58.62Z"/><path class="cls-3" d="M665.34,15.86a6.53,6.53,0,0,0,1.7,1.31l-3.72,32.64L611.68-5.33,606.9-40.89C627.67-23.34,646.85-4.09,665.34,15.86Z"/><polygon class="cls-3" points="659.82 65.57 731.73 259.73 708.82 265.01 632.68 108.45 618.68 20.93 659.82 65.57"/><polygon class="cls-3" points="680.82 -9.7 670.32 64.69 738.78 247.39 749.35 240.34 722.91 99.35 680.82 -9.7"/><polygon class="cls-3" points="761.63 245.18 750.18 272.5 716.69 277.79 714.05 327.14 731.67 397.63 743.13 396.75 732 349.83 743.9 349.5 762.51 399.4 776.61 397.63 759.1 347.19 771.33 344.87 795.12 398.51 812.74 396.75 788.51 340.91 796.88 335.95 826.84 383.54 841.82 381.77 796.88 296.3 801.29 289.25 843.59 306.87 846.23 297.18 811.86 266.33 761.63 245.18"/><polygon class="cls-3" points="387.16 821.06 380.99 840.44 367.77 922.4 366.01 1031.67 384.52 1138.29 383.64 1001.71 403.02 947.07 405.67 887.15 387.16 821.06"/><polygon class="cls-3" points="489.39 821.06 495.56 840.44 508.78 922.4 510.54 1031.67 492.04 1138.29 492.92 1001.71 473.53 947.07 470.89 887.15 489.39 821.06"/><polygon class="cls-3" points="344.86 870.4 349.27 1034.31 380.97 1153.2 344.4 1142.03 282.3 918.87 304.33 774.35 344.86 870.4"/><polygon class="cls-3" points="531.03 870.4 526.62 1034.31 494.92 1153.2 531.49 1142.03 593.6 918.87 571.57 774.35 531.03 870.4"/><polygon class="cls-3" points="320.19 701.21 317.55 725 336.05 747.92 342.22 784.04 354.56 789.33 365.13 734.7 372.18 715.31 366.01 702.97 320.19 701.21"/><polygon class="cls-3" points="402.14 702.97 388.92 739.99 360.73 794.62 367.77 844.85 388.04 788.45 404.79 756.73 402.14 702.97"/><polygon class="cls-3" points="556.37 701.21 559.01 725 540.5 747.92 534.34 784.04 522 789.33 511.42 734.7 504.37 715.31 510.54 702.97 556.37 701.21"/><polygon class="cls-3" points="474.41 702.97 487.63 739.99 515.83 794.62 508.78 844.85 488.51 788.45 471.77 756.73 474.41 702.97"/><polygon class="cls-3" points="301.49 262.17 359.41 389.68 372.58 492.96 347.89 638.25 294.38 490.33 291.09 338.05 300.81 262.26 301.49 262.17"/><polygon class="cls-3" points="294.09 534.56 286.68 499.09 337.72 639.12 330.02 658.95 307.33 597.94 294.09 534.56"/><polygon class="cls-3" points="375.21 447.2 376.58 450.48 402.34 511.96 385.71 664.25 359.45 650.25 382.21 508.46 375.21 447.2"/><polygon class="cls-3" points="501.35 447.2 499.97 450.48 474.22 511.96 490.85 664.25 517.1 650.25 494.35 508.46 501.35 447.2"/><polygon class="cls-3" points="574.73 264.17 516.81 391.68 503.64 494.96 528.33 640.25 581.83 492.33 585.13 340.05 575.41 264.26 574.73 264.17"/><polygon class="cls-3" points="582.13 536.56 589.53 501.09 538.5 641.12 546.2 660.95 568.89 599.94 582.13 536.56"/><polygon class="cls-3" points="286.41 148.19 255.74 260.29 270.81 262.74 300.44 256.13 340.7 252.38 360.84 227.55 350.94 202.82 326.37 195.44 286.41 148.19"/><polygon class="cls-3" points="589.8 150.19 620.48 262.29 605.41 264.74 575.78 258.13 535.52 254.38 515.37 229.55 525.28 204.82 549.85 197.44 589.8 150.19"/><polygon class="cls-3" points="343.52 258.13 310.76 261.03 368.76 375.43 408.27 497.96 404.15 413.06 343.52 258.13"/><polygon class="cls-3" points="407.7 282.9 408.17 282.31 405.01 274.27 366.67 232.29 353.61 250.46 377.92 313.11 407.7 282.9"/><polygon class="cls-3" points="382.79 325.65 409.91 395.56 418.97 309.79 413.61 296.17 382.79 325.65"/><polygon class="cls-3" points="493.76 325.65 466.64 395.56 457.59 309.79 462.94 296.17 493.76 325.65"/><polygon class="cls-3" points="532.69 260.13 565.45 263.03 507.46 377.43 467.95 499.96 472.07 415.06 532.69 260.13"/><polygon class="cls-3" points="468.52 284.9 468.05 284.31 471.21 276.27 509.55 234.29 522.6 252.46 498.3 315.11 468.52 284.9"/><polygon class="cls-3" points="269.39 271.14 289.56 265.01 281.91 330.36 280.68 497.96 307.21 626.92 306.92 688.06 314.86 762.13 304.56 758.31 293.69 783.75 294.13 612.82 268.86 497.96 251.87 267.78 269.39 271.14"/><polygon class="cls-9" points="606.83 273.14 586.66 267.01 594.31 332.36 595.54 499.96 569 628.92 569.3 690.06 561.36 764.13 571.66 760.31 582.52 785.75 582.08 614.82 607.35 499.96 624.34 269.78 606.83 273.14"/><polygon class="cls-3" points="322.64 -20.2 354.15 1.68 358.52 46.31 323.51 18.3 322.64 -20.2"/><polygon class="cls-3" points="357.64 70.04 319.13 41.16 315.78 79.96 288.46 130.19 330.52 188.1 352.4 191.6 360.27 109.33 357.64 70.04"/><polygon class="cls-3" points="553.91 -20.2 522.41 1.68 518.03 46.31 553.04 18.3 553.91 -20.2"/><polygon class="cls-3" points="518.92 70.04 557.43 41.16 560.77 79.96 588.09 130.19 546.04 188.1 524.16 191.6 516.28 109.33 518.92 70.04"/><polygon class="cls-3" points="433.87 286.16 420.99 161.04 420.66 79.57 374.28 56.81 369.03 205.6 433.87 286.16"/><polygon class="cls-3" points="379.01 0.65 378.35 42.95 425.27 55.51 425.93 -10.58 379.01 0.65"/><polygon class="cls-3" points="442.69 286.16 455.57 161.04 455.89 79.57 502.28 56.81 507.53 205.6 442.69 286.16"/><polygon class="cls-3" points="497.55 0.65 498.21 42.95 451.28 55.51 450.62 -10.58 497.55 0.65"/></g></g></svg>