<svg xmlns="http://www.w3.org/2000/svg" xmlns:xlink="http://www.w3.org/1999/xlink" viewBox="0 0 874.68 874.68"><defs><style>.cls-1{fill:none;}.cls-2{clip-path:url(#clip-path);}.cls-3{fill:#d9dadb;}.cls-4{clip-path:url(#clip-path-2);}.cls-5{fill:#f7f7f7;}.cls-6{fill:#e0af12;}</style><clipPath id="clip-path"><circle class="cls-1" cx="-58.92" cy="1387.3" r="437.34"/></clipPath><clipPath id="clip-path-2"><circle class="cls-1" cx="437.34" cy="437.34" r="437.34"/></clipPath></defs><title>L Knee</title><g id="Front_Left_Knee" data-name="Front Left Knee"><g class="cls-2"><polygon class="cls-3" points="45.98 3.12 87.17 76.67 132.28 99.23 104.82 120.81 83.25 183.57 33.23 204.17 -46.47 164.78 -26.59 9.99 45.98 3.12"/><path class="cls-3" d="M126.91,276.85a8,8,0,0,0-1.82-1.07L108.74,154.15,140.13,109l32.36,47.07L200,320.87,197.43,343C175.3,319.49,152.21,297,126.91,276.85Z"/><path class="cls-3" d="M193.39,360.3a7.43,7.43,0,0,0,1.9,1.47l-4.17,36.58-57.86-61.79-5.35-39.84C151.17,316.37,172.67,338,193.39,360.3Z"/><polygon class="cls-3" points="187.2 416 267.78 633.57 242.11 639.49 156.8 464.06 141.11 365.99 187.2 416"/><polygon class="cls-3" points="210.74 331.66 198.97 415.02 275.68 619.74 287.53 611.84 257.9 453.85 210.74 331.66"/><polygon class="cls-3" points="188.18 148.27 202.89 305.18 212.7 188.48 188.18 148.27"/><polygon class="cls-3" points="301.29 617.27 288.45 647.88 250.93 653.8 247.97 709.1 267.72 788.1 280.55 787.11 268.09 734.53 281.42 734.16 302.28 790.07 318.08 788.1 298.45 731.56 312.15 728.97 338.81 789.08 358.56 787.11 331.41 724.53 340.79 718.98 374.36 772.3 391.15 770.32 340.79 674.54 345.72 666.64 393.12 686.39 396.08 675.53 357.57 640.97 301.29 617.27"/><path class="cls-3" d="M107.38-18.5l18-9.76L181.87,34.2,182.18,58S108.47-17.95,107.38-18.5Z"/><path class="cls-3" d="M101.64-15.92c0,1.25,79.25,84.43,79.25,84.43l2.39,73.87L155.82,95.31l-53-22.56L65.59,4.1Z"/><polygon class="cls-3" points="9.63 843.63 8.09 847.31 -20.77 916.21 -2.14 1086.85 27.28 1071.16 1.78 912.28 9.63 843.63"/><polygon class="cls-3" points="91.86 638.54 26.95 781.43 12.2 897.15 39.87 1059.95 99.82 894.21 103.51 723.57 92.62 638.64 91.86 638.54"/><polygon class="cls-3" points="108.75 510.82 143.12 636.43 126.24 639.18 93.04 631.77 47.92 627.57 25.35 599.75 36.44 572.03 63.97 563.78 108.75 510.82"/><polygon class="cls-3" points="1.13 707.44 -29.26 785.77 -39.41 689.66 -33.41 674.39 1.13 707.44"/><polygon class="cls-3" points="44.76 634.02 81.47 637.26 16.48 765.46 -27.79 902.76 -23.18 807.63 44.76 634.02"/><polygon class="cls-3" points="-27.15 661.77 -27.68 661.11 -24.14 652.1 18.82 605.06 33.45 625.42 6.21 695.62 -27.15 661.77"/><polygon class="cls-3" points="127.82 648.59 105.22 641.73 113.8 714.95 115.17 902.76 85.44 1047.26 85.77 1115.77 76.88 1198.77 88.42 1194.48 100.59 1222.99 100.1 1031.46 128.41 902.76 147.45 644.83 127.82 648.59"/><polygon class="cls-3" points="66.96 257.68 36.17 274.78 39.73 234.25 66.96 257.68"/><polygon class="cls-3" points="41.91 218.84 100.9 194.36 78.69 254.15 41.91 218.84"/><polygon class="cls-3" points="78.34 260.05 38.13 284.56 31.27 333.6 70.5 308.1 78.34 260.05"/><polygon class="cls-3" points="68.53 319.89 33.23 344.41 28.32 394.43 67.55 363.04 68.53 319.89"/><polygon class="cls-3" points="29.32 421.01 72.47 388.65 76.22 432.13 106.83 488.41 59.71 553.3 35.19 557.22 26.36 465.04 29.32 421.01"/><polygon class="cls-3" points="20.92 218.1 -53.14 184.78 -50.91 238.84 15.74 272.91 20.92 218.1"/><polygon class="cls-3" points="9.07 286.24 7.59 324.75 -47.21 312.9 -50.17 260.32 9.07 286.24"/><polygon class="cls-3" points="-56.1 663.19 -41.67 522.98 -41.3 431.69 10.67 406.19 16.56 572.91 -56.1 663.19"/><polygon class="cls-3" points="5.37 343.26 6.11 390.66 -46.47 404.73 -47.21 330.67 5.37 343.26"/></g></g><g id="Front_Right_Knee" data-name="Front Right Knee"><g class="cls-4"><circle class="cls-5" cx="437.34" cy="437.34" r="437.34"/><polygon class="cls-3" points="380.06 316.08 373.15 337.8 358.34 429.63 356.36 552.08 377.1 671.55 376.11 518.5 397.84 457.28 400.8 390.14 380.06 316.08"/><polygon class="cls-3" points="494.62 316.08 501.53 337.8 516.34 429.63 518.32 552.08 497.58 671.55 498.57 518.5 476.84 457.28 473.88 390.14 494.62 316.08"/><polygon class="cls-3" points="403.42 739.28 400.8 811.77 393.89 840.41 373.15 840.41 367.23 820.66 360.31 819.67 361.8 839.42 335.63 831.52 328.72 827.57 299.09 821.15 298.11 797.95 326.74 749.56 341.93 730.58 374.15 748.91 403.42 739.28"/><polygon class="cls-3" points="470.52 739.28 473.14 811.77 480.05 840.41 500.79 840.41 506.71 820.66 513.62 819.67 512.14 839.42 538.31 831.52 545.22 827.57 574.85 821.15 575.83 797.95 547.2 749.56 532.01 730.58 499.79 748.91 470.52 739.28"/><polygon class="cls-3" points="334.19 685.27 333.07 696.7 346.18 722.36 373.5 740.2 401.58 731 392.75 704.26 334.19 685.27"/><polygon class="cls-3" points="539.75 685.27 540.87 696.7 527.76 722.36 500.43 740.2 472.36 731 481.19 704.26 539.75 685.27"/><polygon class="cls-3" points="332.67 371.38 337.6 555.04 373.13 688.26 332.15 675.75 262.56 425.69 287.24 263.75 332.67 371.38"/><polygon class="cls-3" points="541.27 371.38 536.34 555.04 500.81 688.26 541.78 675.75 611.38 425.69 586.69 263.75 541.27 371.38"/><polygon class="cls-3" points="305.02 181.79 302.06 208.45 322.79 234.12 329.7 274.61 343.53 280.53 355.38 219.31 363.28 197.59 356.36 183.76 305.02 181.79"/><polygon class="cls-3" points="396.85 183.76 382.04 225.24 350.44 286.46 358.34 342.74 381.05 279.55 399.81 244 396.85 183.76"/><polygon class="cls-6" points="569.66 181.79 572.62 208.45 551.89 234.12 544.98 274.61 531.15 280.53 519.3 219.31 511.4 197.59 518.32 183.76 569.66 181.79"/><polygon class="cls-6" points="477.83 183.76 492.64 225.24 524.24 286.46 516.34 342.74 493.63 279.55 474.87 244 477.83 183.76"/><polygon class="cls-3" points="284.06 -310.18 348.97 -167.29 363.72 -51.56 336.05 111.23 276.1 -54.51 272.41 -225.15 283.3 -310.07 284.06 -310.18"/><polygon class="cls-3" points="275.77 -4.95 267.47 -44.7 324.66 112.21 316.03 134.43 290.61 66.07 275.77 -4.95"/><polygon class="cls-3" points="366.67 -102.84 368.21 -99.17 397.07 -30.27 378.44 140.38 349.01 124.68 374.51 -34.19 366.67 -102.84"/><polygon class="cls-3" points="508.01 -102.84 506.47 -99.17 477.61 -30.27 496.24 140.38 525.66 124.68 500.17 -34.19 508.01 -102.84"/><polygon class="cls-3" points="590.24 -307.94 525.34 -165.05 510.58 -49.32 538.25 113.47 598.2 -52.27 601.89 -222.91 591 -307.83 590.24 -307.94"/><polygon class="cls-3" points="598.53 -2.71 606.83 -42.46 549.64 114.45 558.27 136.67 583.7 68.31 598.53 -2.71"/><polygon class="cls-3" points="248.1 -300.12 270.7 -306.98 262.12 -233.77 260.75 -45.96 290.48 98.55 290.15 167.06 299.04 250.06 287.5 245.77 275.33 274.28 275.82 82.74 247.5 -45.96 228.47 -303.89 248.1 -300.12"/><polygon class="cls-3" points="626.21 -297.88 603.61 -304.74 612.18 -231.53 613.56 -43.72 583.82 100.79 584.15 169.3 575.26 252.3 586.8 248.01 598.97 276.52 598.48 84.98 626.8 -43.72 645.84 -301.65 626.21 -297.88"/></g></g></svg>