<svg xmlns="http://www.w3.org/2000/svg" xmlns:xlink="http://www.w3.org/1999/xlink" viewBox="0 0 875.43 877.94"><defs><style>.cls-1{fill:#f7f7f7;}.cls-2{fill:none;}.cls-3{clip-path:url(#clip-path);}.cls-4{fill:#d9dadb;}.cls-5{clip-path:url(#clip-path-2);}.cls-6{fill:#e0af12;}.cls-7{clip-path:url(#clip-path-3);}</style><clipPath id="clip-path"><circle class="cls-1" cx="875.43" cy="1805.35" r="437.34"/></clipPath><clipPath id="clip-path-2"><circle class="cls-2" cx="437.71" cy="437.77" r="437.34"/></clipPath><clipPath id="clip-path-3"><circle class="cls-2" cx="874.68" cy="-523.61" r="437.34"/></clipPath></defs><title>v</title><g id="Front_Abs" data-name="Front Abs"><circle class="cls-1" cx="875.43" cy="1805.35" r="437.34"/><g class="cls-3"><polygon class="cls-4" points="959.95 970.23 959.95 918.47 932.65 871.41 874.27 852.45 815.95 871.41 788.65 918.47 788.65 970.23 775.47 973.06 781.12 1018.23 802.77 1025.76 826.3 1074.71 874.53 1095.31 922.3 1074.71 945.83 1025.76 967.48 1018.23 973.13 973.06 959.95 970.23"/></g></g><g id="Mid_Back" data-name="Mid Back"><circle class="cls-1" cx="437.71" cy="437.77" r="437.34"/><g class="cls-5"><polygon class="cls-4" points="325.72 773.28 363.76 830.68 351.75 856.05 309.7 860.72 325.72 773.28"/><polygon class="cls-4" points="362.43 868.73 411.82 922.13 395.13 920.79 335.73 922.79 268.98 972.85 303.69 874.74 362.43 868.73"/><polygon class="cls-4" points="548.65 773.28 510.61 830.68 522.62 856.05 564.67 860.72 548.65 773.28"/><polygon class="cls-4" points="455.04 794.64 437.69 743.91 419 794.19 389.42 868.06 439.48 927.41 486.87 868.06 455.04 794.64"/><polygon class="cls-4" points="511.94 868.73 462.55 922.13 479.24 920.79 538.64 922.79 605.39 972.85 570.68 874.74 511.94 868.73"/><polygon class="cls-4" points="398.47 334.75 392.46 397.5 313.04 434.88 396.47 444.89 433.18 416.85 425.84 312.73 398.47 334.75"/><polygon class="cls-4" points="274.32 576.38 292.34 595.07 289.01 719.22 247.62 808.66 218.92 795.97 209.58 705.2 225.6 609.75 274.32 576.38"/><polygon class="cls-6" points="302.36 601.07 301.02 641.79 327.72 751.25 373.77 806.65 367.1 859.38 372.44 862.72 406.48 793.3 412.49 718.55 369.1 619.76 327.05 617.76 305.69 600.41 302.36 601.07"/><polygon class="cls-4" points="259.64 808.66 258.97 878.74 181.31 993.1 219.59 863.39 259.64 808.66"/><polygon class="cls-4" points="202.9 771.95 218.25 838.02 159.95 1021.58 148.68 1012.72 156.39 937.92 163.51 889.86 202.9 771.95"/><polygon class="cls-4" points="524.7 250.65 523.36 177.9 488.65 136.52 439.26 127.17 387.2 136.52 352.49 177.9 351.15 250.65 333.13 255.99 339.81 294.04 354.49 302.72 372.51 300.71 388.53 336.76 409.89 308.72 439.26 300.02 465.96 308.72 487.32 336.76 503.34 300.71 521.36 302.72 536.04 294.04 542.72 255.99 524.7 250.65"/><polygon class="cls-4" points="475.9 334.75 481.9 397.5 561.33 434.88 477.9 444.89 441.19 416.85 448.53 312.73 475.9 334.75"/><polygon class="cls-4" points="335.06 475.59 329.72 491.61 305.03 502.96 292.34 547.68 234.27 595.73 233.61 500.29 268.31 446.89 297.02 440.21 335.06 475.59"/><polygon class="cls-4" points="378.25 619.38 426.5 716.55 426.5 619.63 378.25 619.38"/><polygon class="cls-4" points="346.41 492.94 368.44 607.08 319.71 603.08 288.34 565.7 307.7 545.01 312.37 516.97 346.41 492.94"/><polygon class="cls-4" points="539.31 475.59 544.65 491.61 569.34 502.96 582.02 547.68 640.1 595.73 640.76 500.29 606.05 446.89 577.35 440.21 539.31 475.59"/><polygon class="cls-4" points="527.96 492.94 505.93 607.08 554.66 603.08 586.03 565.7 566.67 545.01 562 516.97 527.96 492.94"/><polygon class="cls-4" points="493.44 619.38 445.19 716.55 445.19 619.63 493.44 619.38"/><polygon class="cls-4" points="319.71 448.57 353.08 477.27 375.39 606.76 426.5 608.08 426.5 485.28 389.13 457.25 319.71 448.57"/><polygon class="cls-4" points="551.98 448.57 518.61 477.27 496.31 606.76 445.19 608.08 445.19 485.28 482.57 457.25 551.98 448.57"/><polygon class="cls-4" points="600.05 576.38 582.02 595.07 585.36 719.22 626.75 808.66 655.45 795.97 664.79 705.2 648.77 609.75 600.05 576.38"/><polygon class="cls-4" points="572.01 601.07 573.35 641.79 546.65 751.25 500.59 806.65 507.27 859.38 501.93 862.72 467.89 793.3 461.88 718.55 505.27 619.76 547.32 617.76 568.68 600.41 572.01 601.07"/><polygon class="cls-4" points="617.4 808.66 618.07 878.74 695.73 993.1 657.45 863.39 617.4 808.66"/><polygon class="cls-4" points="674.14 771.95 658.78 838.02 717.09 1021.58 728.36 1012.72 720.65 937.92 713.53 889.86 674.14 771.95"/></g><g class="cls-7"><polygon class="cls-4" points="799.39 -92.65 848.78 -39.26 832.1 -40.59 772.69 -38.59 705.95 11.47 740.66 -86.65 799.39 -92.65"/><polygon class="cls-4" points="696.6 -152.73 695.93 -82.64 618.27 31.72 656.55 -97.99 696.6 -152.73"/><polygon class="cls-4" points="639.87 -189.44 655.22 -123.36 596.91 60.2 585.64 51.33 593.35 -23.46 600.47 -71.52 639.87 -189.44"/><polygon class="cls-4" points="566.3 38.84 578.03 66.81 612.31 72.22 615.01 122.74 596.97 194.91 585.24 194.01 596.63 145.97 584.45 145.63 565.4 196.71 550.96 194.91 568.89 143.26 556.38 140.9 532.02 195.81 513.98 194.01 538.78 136.84 530.21 131.76 499.54 180.48 484.21 178.67 530.21 91.17 525.7 83.95 482.4 101.99 479.69 92.07 514.88 60.49 566.3 38.84"/><polygon class="cls-4" points="723.97 198.36 772.03 172.33 846.12 153.64 860.8 111.59 859.47 4.13 833.43 -31.25 786.04 -31.91 715.96 26.82 715.29 57.84 701.82 121.63 705.95 180 723.97 198.36"/><polygon class="cls-4" points="774.03 193.02 764.02 357.88 780.04 432.64 748.66 522.75 715.29 364.56 731.98 205.03 774.03 193.02"/><polygon class="cls-4" points="811.41 183.68 832.1 238.41 840.11 382.58 862.8 243.75 860.13 156.31 811.41 183.68"/><polygon class="cls-4" points="796.05 189.02 771.36 355.88 799.39 496.71 837.44 576.14 841.44 407.28 814.74 338.53 813.41 233.74 796.05 189.02"/><polygon class="cls-4" points="715.29 303.34 724.07 207.42 701.82 191.66 701.82 217.94 715.29 303.34"/><polygon class="cls-4" points="798.74 542.24 803.08 765.88 841.49 809.25 860.07 781.37 861.31 721.28 844.58 631.45 798.74 542.24"/><polygon class="cls-4" points="786.97 529.23 784.49 711.99 795.02 781.37 777.06 796.24 745.46 731.81 753.51 607.29 769 556.49 770.24 519.94 786.97 529.23"/><polygon class="cls-4" points="799.98 789.42 782.01 805.53 809.27 935.01 811.11 1013.52 829.19 1008.41 830.96 936.25 843.96 844.56 840.25 823.5 799.98 789.42"/><polygon class="cls-4" points="785.73 879.87 802.46 962.89 803.36 981.33 806.72 1014.64 791.75 1013.52 783.51 981.65 777.68 947.4 777.68 869.96 785.73 879.87"/></g></g></svg>