<svg xmlns="http://www.w3.org/2000/svg" xmlns:xlink="http://www.w3.org/1999/xlink" viewBox="0 0 875.43 877.94"><defs><style>.cls-1{fill:#f7f7f7;}.cls-2{clip-path:url(#clip-path);}.cls-3{fill:#d9dadb;}.cls-4{clip-path:url(#clip-path-2);}.cls-5{fill:#e0af12;}.cls-6{clip-path:url(#clip-path-3);}</style><clipPath id="clip-path"><circle class="cls-1" cx="877.95" cy="-466.67" r="437.34"/></clipPath><clipPath id="clip-path-2"><circle class="cls-1" cx="438.61" cy="440.36" r="437.34"/></clipPath><clipPath id="clip-path-3"><circle class="cls-1" cx="1352.63" cy="440.36" r="437.34"/></clipPath></defs><title>v</title><g id="Front_Abs" data-name="Front Abs"><circle class="cls-1" cx="877.95" cy="-466.67" r="437.34"/><g class="cls-2"><polygon class="cls-3" points="616.92 -41.62 533.01 184.94 559.74 191.11 648.58 8.42 664.92 -93.7 616.92 -41.62"/><polygon class="cls-3" points="592.41 -129.45 604.66 -42.64 524.78 170.55 512.44 162.32 543.29 -2.2 592.41 -129.45"/><polygon class="cls-3" points="498.11 167.97 511.48 199.85 550.55 206.02 553.64 263.6 533.07 345.86 519.71 344.83 532.69 290.08 518.81 289.69 497.08 347.92 480.63 345.86 501.07 286.99 486.8 284.29 459.04 346.89 438.47 344.83 466.75 279.67 456.98 273.88 422.02 329.41 404.54 327.35 456.98 227.61 451.84 219.38 402.49 239.95 399.4 228.64 439.5 192.65 498.11 167.97"/><polygon class="cls-3" points="815.78 839.94 808.58 862.56 793.16 958.19 791.1 1085.69 812.7 1210.11 811.67 1050.73 834.29 986.98 837.38 917.06 815.78 839.94"/><polygon class="cls-3" points="766.42 897.52 771.57 1088.78 808.56 1227.51 765.89 1214.48 693.42 954.08 719.13 785.44 766.42 897.52"/><polygon class="cls-3" points="737.63 700.1 734.55 727.86 756.14 754.59 763.34 796.75 777.74 802.92 790.08 739.17 798.3 716.55 791.1 702.15 737.63 700.1"/><polygon class="cls-3" points="833.26 702.15 817.84 745.34 784.93 809.09 793.16 867.7 816.81 801.89 836.35 764.88 833.26 702.15"/><polygon class="cls-3" points="715.81 187.79 783.4 336.58 798.77 457.09 769.95 626.62 707.52 454.03 703.68 276.33 715.02 187.89 715.81 187.79"/><polygon class="cls-3" points="707.18 505.63 698.54 464.24 758.09 627.64 749.1 650.78 722.63 579.59 707.18 505.63"/><polygon class="cls-3" points="801.83 403.69 803.43 407.52 833.49 479.27 814.09 656.97 783.45 640.63 810 475.18 801.83 403.69"/><polygon class="cls-3" points="698.22 54.79 662.43 185.6 680.01 188.46 714.58 180.74 761.57 176.36 785.07 147.39 773.52 118.53 744.85 109.93 698.22 54.79"/><polygon class="cls-3" points="764.86 183.08 726.63 186.46 794.31 319.95 840.41 462.93 835.61 363.87 764.86 183.08"/><polygon class="cls-3" points="839.74 211.98 840.29 211.29 836.61 201.91 791.87 152.93 776.64 174.13 805 247.23 839.74 211.98"/><polygon class="cls-3" points="810.68 261.87 842.33 343.44 852.89 243.36 846.65 227.46 810.68 261.87"/><polygon class="cls-3" points="678.36 198.26 701.89 191.11 692.96 267.36 691.53 462.93 722.49 613.41 722.15 684.75 731.41 771.18 719.39 766.72 706.72 796.41 707.23 596.95 677.74 462.93 657.92 194.34 678.36 198.26"/><polygon class="cls-3" points="781.33 -36.4 736.39 -70.1 732.49 -24.82 700.62 33.79 749.68 101.36 775.22 105.44 784.41 9.44 781.33 -36.4"/><polygon class="cls-3" points="870.28 215.79 855.25 69.78 854.87 -25.28 800.75 -51.83 794.62 121.78 870.28 215.79"/></g><circle class="cls-1" cx="438.61" cy="440.36" r="437.34"/><g class="cls-4"><polygon class="cls-3" points="377.24 322.82 414.5 379.28 432.93 444.16 389.99 409.92 372.76 348.69 377.24 322.82"/><polygon class="cls-3" points="359.37 363.96 368.56 406.86 314.43 420.13 279.71 407.88 359.37 363.96"/><polygon class="cls-3" points="324.64 435.45 281.75 512.05 234.77 535.54 263.37 558.01 285.83 623.37 337.92 644.81 420.91 603.8 400.22 442.6 324.64 435.45"/><path class="cls-3" d="M240.37,720.5a8.39,8.39,0,0,1,1.89-1.12l17-126.65-32.68-47-33.7,49L164.3,766.34l2.63,23C190,764.9,214,741.46,240.37,720.5Z"/><path class="cls-3" d="M171.13,807.4a7.89,7.89,0,0,1-2,1.54L173.5,847l60.25-64.34,5.58-41.49C215.1,761.66,192.71,784.13,171.13,807.4Z"/><polygon class="cls-3" points="177.58 865.41 93.67 1091.97 120.4 1098.14 209.24 915.45 225.58 813.32 177.58 865.41"/><polygon class="cls-3" points="153.07 777.58 165.32 864.38 85.44 1077.57 73.1 1069.35 103.95 904.82 153.07 777.58"/><polygon class="cls-3" points="176.56 586.6 161.24 750 151.03 628.47 176.56 586.6"/><polygon class="cls-3" points="534.46 192.12 534.46 132 502.76 77.35 434.96 55.34 367.23 77.35 335.53 132 335.53 192.12 320.23 195.39 326.79 247.86 351.93 256.6 379.25 313.44 435.26 337.37 490.74 313.44 518.06 256.6 543.2 247.86 549.76 195.39 534.46 192.12"/><polygon class="cls-3" points="512.81 363.96 503.62 406.86 557.75 420.13 592.47 407.88 512.81 363.96"/><polygon class="cls-5" points="547.53 435.45 590.43 512.05 637.4 535.54 608.81 558.01 586.34 623.37 534.26 644.81 451.26 603.8 471.96 442.6 547.53 435.45"/><path class="cls-3" d="M631.81,720.5a8.62,8.62,0,0,0-1.89-1.12l-17-126.65,32.68-47,33.71,49,28.59,171.57-2.62,23C682.2,764.9,658.15,741.46,631.81,720.5Z"/><path class="cls-3" d="M701,807.4a8.11,8.11,0,0,0,2,1.54L698.68,847l-60.25-64.34-5.58-41.49C657.08,761.66,679.46,784.13,701,807.4Z"/><polygon class="cls-3" points="694.6 865.41 778.51 1091.97 751.77 1098.14 662.94 915.45 646.6 813.32 694.6 865.41"/><polygon class="cls-3" points="719.11 777.58 706.85 864.38 786.73 1077.57 799.07 1069.35 768.22 904.82 719.11 777.58"/><polygon class="cls-3" points="695.62 586.6 710.94 750 721.15 628.47 695.62 586.6"/><path class="cls-3" d="M611.47,412.94l18.79-10.17,58.79,65,.32,24.77S612.6,413.51,611.47,412.94Z"/><path class="cls-3" d="M605.5,415.63c0,1.3,82.52,87.92,82.52,87.92l2.49,76.92-28.6-49L606.77,508,568,436.47Z"/><path class="cls-3" d="M260.7,412.94l-18.78-10.17-58.79,65-.32,24.77S259.57,413.51,260.7,412.94Z"/><path class="cls-3" d="M266.67,415.63c0,1.3-82.51,87.92-82.51,87.92l-2.49,76.92,28.59-49L265.41,508l38.81-71.49Z"/><polygon class="cls-3" points="493.99 322.82 456.72 379.28 438.3 444.16 481.23 409.92 496.14 347.69 493.99 322.82"/><polygon class="cls-3" points="302.8 700.53 334.86 718.35 331.15 676.14 302.8 700.53"/><polygon class="cls-3" points="328.88 660.1 267.45 634.6 290.58 696.86 328.88 660.1"/><polygon class="cls-3" points="290.94 703 332.81 728.54 339.96 779.6 299.11 753.05 290.94 703"/><polygon class="cls-3" points="301.15 765.32 337.92 790.85 343.02 842.94 302.18 810.26 301.15 765.32"/><polygon class="cls-3" points="341.99 870.63 297.05 836.92 293.15 882.2 261.28 940.81 310.35 1008.38 335.88 1012.47 345.07 916.47 341.99 870.63"/><polygon class="cls-3" points="569.38 700.53 537.32 718.35 541.02 676.14 569.38 700.53"/><polygon class="cls-3" points="543.29 660.1 604.72 634.6 581.59 696.86 543.29 660.1"/><polygon class="cls-3" points="581.24 703 539.36 728.54 532.21 779.6 573.07 753.05 581.24 703"/><polygon class="cls-3" points="571.02 765.32 534.26 790.85 529.15 842.94 570 810.26 571.02 765.32"/><polygon class="cls-3" points="530.19 870.63 575.12 836.92 579.02 882.2 610.9 940.81 561.83 1008.38 536.3 1012.47 527.11 916.47 530.19 870.63"/><polygon class="cls-3" points="350.74 659.33 427.85 624.62 425.54 680.92 356.13 716.4 350.74 659.33"/><polygon class="cls-3" points="363.07 730.28 364.62 770.38 421.69 758.04 424.77 703.28 363.07 730.28"/><polygon class="cls-3" points="430.94 1122.82 415.91 976.81 415.54 881.75 361.41 855.19 355.28 1028.81 430.94 1122.82"/><polygon class="cls-3" points="366.93 789.66 366.16 839.01 420.91 853.67 421.69 776.55 366.93 789.66"/><polygon class="cls-3" points="521.44 659.33 444.32 624.62 446.63 680.92 516.04 716.4 521.44 659.33"/><polygon class="cls-3" points="509.1 730.28 507.56 770.38 450.49 758.04 447.41 703.28 509.1 730.28"/><polygon class="cls-3" points="441.24 1122.82 456.26 976.81 456.64 881.75 510.77 855.19 516.89 1028.81 441.24 1122.82"/><polygon class="cls-3" points="505.25 789.66 506.02 839.01 451.26 853.67 450.49 776.55 505.25 789.66"/></g><circle class="cls-1" cx="1352.63" cy="440.36" r="437.34"/></g></svg>