<svg xmlns="http://www.w3.org/2000/svg" xmlns:xlink="http://www.w3.org/1999/xlink" viewBox="0 0 875.43 877.94"><defs><style>.cls-1{fill:none;}.cls-2{fill:#f7f7f7;}.cls-3{clip-path:url(#clip-path);}.cls-4{fill:#d9dadb;}.cls-5{fill:#e0af12;}.cls-6{clip-path:url(#clip-path-2);}</style><clipPath id="clip-path"><circle class="cls-1" cx="435.38" cy="437.77" r="437.34"/></clipPath><clipPath id="clip-path-2"><circle class="cls-1" cx="-28.07" cy="-523.61" r="437.34"/></clipPath></defs><title>v</title><g id="Left_Shoulder" data-name="Left Shoulder"><circle class="cls-2" cx="435.38" cy="437.77" r="437.34"/><g class="cls-3"><polygon class="cls-4" points="323.38 773.28 361.43 830.68 349.41 856.05 307.36 860.72 323.38 773.28"/><polygon class="cls-4" points="360.09 868.73 409.48 922.13 392.8 920.79 333.39 922.79 266.64 972.85 301.35 874.74 360.09 868.73"/><polygon class="cls-4" points="546.31 773.28 508.27 830.68 520.28 856.05 562.33 860.72 546.31 773.28"/><polygon class="cls-4" points="452.71 794.64 435.35 743.91 416.66 794.19 387.09 868.06 437.15 927.41 484.54 868.06 452.71 794.64"/><polygon class="cls-4" points="509.6 868.73 460.21 922.13 476.9 920.79 536.3 922.79 603.05 972.85 568.34 874.74 509.6 868.73"/><polygon class="cls-4" points="396.13 334.75 390.13 397.5 310.7 434.88 394.13 444.89 430.84 416.85 423.5 312.73 396.13 334.75"/><polygon class="cls-4" points="271.99 576.38 290.01 595.07 286.67 719.22 245.29 808.66 216.59 795.97 207.24 705.2 223.26 609.75 271.99 576.38"/><polygon class="cls-4" points="300.02 601.07 298.68 641.79 325.38 751.25 371.44 806.65 364.76 859.38 370.1 862.72 404.14 793.3 410.15 718.55 366.76 619.76 324.71 617.76 303.36 600.41 300.02 601.07"/><polygon class="cls-4" points="257.3 808.66 256.63 878.74 178.97 993.1 217.25 863.39 257.3 808.66"/><polygon class="cls-4" points="200.57 771.95 215.92 838.02 157.61 1021.58 146.34 1012.72 154.05 937.92 161.17 889.86 200.57 771.95"/><polygon class="cls-4" points="522.36 250.65 521.02 177.9 486.32 136.52 436.92 127.17 384.86 136.52 350.15 177.9 348.82 250.65 330.8 255.99 337.47 294.04 352.15 302.72 370.18 300.71 386.2 336.76 407.56 308.72 436.92 300.02 463.62 308.72 484.98 336.76 501 300.71 519.02 302.72 533.71 294.04 540.38 255.99 522.36 250.65"/><polygon class="cls-4" points="473.56 334.75 479.57 397.5 559 434.88 475.56 444.89 438.85 416.85 446.19 312.73 473.56 334.75"/><polygon class="cls-5" points="332.72 475.59 327.38 491.61 302.69 502.96 290.01 547.68 231.94 595.73 231.27 500.29 265.98 446.89 294.68 440.21 332.72 475.59"/><polygon class="cls-4" points="375.91 619.38 424.17 716.55 424.17 619.63 375.91 619.38"/><polygon class="cls-5" points="344.07 492.94 366.1 607.08 317.37 603.08 286 565.7 305.36 545.01 310.03 516.97 344.07 492.94"/><polygon class="cls-4" points="536.97 475.59 542.31 491.61 567.01 502.96 579.69 547.68 637.76 595.73 638.42 500.29 603.72 446.89 575.01 440.21 536.97 475.59"/><polygon class="cls-4" points="525.62 492.94 503.6 607.08 552.32 603.08 583.69 565.7 564.34 545.01 559.66 516.97 525.62 492.94"/><polygon class="cls-4" points="491.11 619.38 442.85 716.55 442.85 619.63 491.11 619.38"/><polygon class="cls-4" points="317.37 448.57 350.75 477.27 373.05 606.76 424.17 608.08 424.17 485.28 386.79 457.25 317.37 448.57"/><polygon class="cls-4" points="549.65 448.57 516.27 477.27 493.97 606.76 442.85 608.08 442.85 485.28 480.23 457.25 549.65 448.57"/><polygon class="cls-4" points="597.71 576.38 579.69 595.07 583.02 719.22 624.41 808.66 653.11 795.97 662.45 705.2 646.43 609.75 597.71 576.38"/><polygon class="cls-4" points="569.68 601.07 571.01 641.79 544.31 751.25 498.26 806.65 504.93 859.38 499.59 862.72 465.55 793.3 459.54 718.55 502.93 619.76 544.98 617.76 566.34 600.41 569.68 601.07"/><polygon class="cls-4" points="615.06 808.66 615.73 878.74 693.39 993.1 655.11 863.39 615.06 808.66"/><polygon class="cls-4" points="671.8 771.95 656.45 838.02 714.75 1021.58 726.02 1012.72 718.31 937.92 711.19 889.86 671.8 771.95"/></g></g><g id="Right_Shoulder" data-name="Right Shoulder"><g class="cls-6"><polygon class="cls-4" points="46.16 -92.65 -3.23 -39.26 13.45 -40.59 72.86 -38.59 139.6 11.47 104.9 -86.65 46.16 -92.65"/><polygon class="cls-4" points="281.92 38.84 270.19 66.81 235.91 72.22 233.21 122.74 251.25 194.91 262.98 194.01 251.59 145.97 263.77 145.63 282.82 196.71 297.26 194.91 279.33 143.26 291.85 140.9 316.2 195.81 334.25 194.01 309.44 136.84 318.01 131.76 348.68 180.48 364.02 178.67 318.01 91.17 322.52 83.95 365.82 101.99 368.53 92.07 333.34 60.49 281.92 38.84"/><polygon class="cls-4" points="151.62 -152.73 152.29 -82.64 229.95 31.72 191.67 -97.99 151.62 -152.73"/><polygon class="cls-4" points="208.35 -189.44 193 -123.36 251.31 60.2 262.58 51.33 254.87 -23.46 247.75 -71.52 208.35 -189.44"/><polygon class="cls-4" points="121.58 198.36 73.52 172.33 -0.57 153.64 -15.25 111.59 -13.91 4.13 12.12 -31.25 59.51 -31.91 129.59 26.82 130.26 57.84 143.73 121.63 139.6 180 121.58 198.36"/><polygon class="cls-4" points="71.52 193.02 81.53 357.88 65.52 432.64 96.89 522.75 130.26 364.56 113.57 205.03 71.52 193.02"/><polygon class="cls-4" points="50.24 189.02 74.93 355.88 46.9 496.71 8.86 576.14 4.85 407.28 31.55 338.53 32.88 233.74 50.24 189.02"/><polygon class="cls-4" points="34.15 183.68 13.45 238.41 5.44 382.58 -17.25 243.75 -14.58 156.31 34.15 183.68"/><polygon class="cls-4" points="131.66 303.34 122.88 207.42 145.13 191.66 145.13 217.94 131.66 303.34"/><polygon class="cls-4" points="48.36 542.24 44.02 765.88 5.61 809.25 -12.98 781.37 -14.21 721.28 2.51 631.45 48.36 542.24"/><polygon class="cls-4" points="60.13 529.23 62.6 711.99 52.07 781.37 70.04 796.24 101.63 731.81 93.58 607.29 78.09 556.49 76.85 519.94 60.13 529.23"/><polygon class="cls-4" points="46.27 789.42 64.24 805.53 36.98 935.01 35.14 1013.52 17.06 1008.41 15.3 936.25 2.29 844.56 6 823.5 46.27 789.42"/><polygon class="cls-4" points="60.52 879.87 43.8 962.89 42.89 981.33 39.53 1014.64 54.5 1013.52 62.74 981.65 68.58 947.4 68.58 869.96 60.52 879.87"/></g></g></svg>