<svg xmlns="http://www.w3.org/2000/svg" xmlns:xlink="http://www.w3.org/1999/xlink" viewBox="0 0 875.43 877.94"><defs><style>.cls-1{fill:#f7f7f7;}.cls-2{clip-path:url(#clip-path);}.cls-3{fill:#d9dadb;}.cls-4{clip-path:url(#clip-path-2);}.cls-5{fill:#e0af12;}</style><clipPath id="clip-path"><circle class="cls-1" cx="876.18" cy="-464.66" r="437.34"/></clipPath><clipPath id="clip-path-2"><circle class="cls-1" cx="437.71" cy="440.36" r="437.34"/></clipPath></defs><title>v</title><g id="Front_Abs" data-name="Front Abs"><circle class="cls-1" cx="876.18" cy="-464.66" r="437.34"/><g class="cls-2"><polygon class="cls-3" points="852.02 448.9 850.15 500.52 845.23 520.91 830.46 520.91 826.25 506.85 821.32 506.14 822.38 520.21 803.74 514.58 798.82 511.77 777.73 507.2 777.02 490.68 797.41 456.22 808.23 442.7 831.18 455.76 852.02 448.9"/><polygon class="cls-3" points="802.72 410.43 801.92 418.57 811.25 436.84 830.72 449.55 850.71 443 844.42 423.96 802.72 410.43"/><polygon class="cls-3" points="824.63 39.13 818.43 58.61 805.15 140.96 803.38 250.75 821.97 357.89 821.09 220.65 840.57 165.75 843.22 105.54 824.63 39.13"/><polygon class="cls-3" points="782.13 88.72 786.55 253.41 818.41 372.87 781.67 361.65 719.26 137.42 741.4 -7.8 782.13 88.72"/><polygon class="cls-3" points="757.34 -81.29 754.68 -57.38 773.27 -34.36 779.47 1.94 791.87 7.26 802.49 -47.64 809.58 -67.12 803.38 -79.52 757.34 -81.29"/><polygon class="cls-3" points="839.68 -79.52 826.4 -42.33 798.07 12.57 805.15 63.04 825.51 6.37 842.34 -25.5 839.68 -79.52"/><polygon class="cls-3" points="706.29 -513.43 726.56 -519.58 718.87 -453.93 717.64 -285.52 744.3 -155.93 744 -94.5 751.98 -20.07 741.63 -23.92 730.71 1.65 731.15 -170.1 705.76 -285.52 688.69 -516.81 706.29 -513.43"/></g><circle class="cls-1" cx="437.71" cy="440.36" r="437.34"/><g class="cls-4"><path class="cls-3" d="M269,60.24a7.64,7.64,0,0,1,1.63-1L285.28-49.78,257.14-90.24,228.12-48,203.49,99.72l2.26,19.83C225.6,98.48,246.3,78.29,269,60.24Z"/><path class="cls-3" d="M209.37,135.08a6.8,6.8,0,0,1-1.7,1.32l3.74,32.8,51.88-55.41,4.81-35.73C247.23,95.69,228,115,209.37,135.08Z"/><polygon class="cls-3" points="214.04 -55.06 200.85 85.65 192.06 -19 214.04 -55.06"/><path class="cls-3" d="M606.07,60.24a7.64,7.64,0,0,0-1.63-1L589.78-49.78l28.14-40.46,29,42.22L671.57,99.72l-2.26,19.83C649.46,98.48,628.75,78.29,606.07,60.24Z"/><path class="cls-3" d="M665.69,135.08a6.8,6.8,0,0,0,1.7,1.32l-3.74,32.8-51.88-55.41L607,78.06C627.83,95.69,647.1,115,665.69,135.08Z"/><polygon class="cls-3" points="661.01 -55.06 674.2 85.65 683 -19 661.01 -55.06"/><polygon class="cls-3" points="318.87 823.73 316.22 847.63 334.81 870.65 341.01 906.96 353.41 912.27 364.03 857.37 371.12 837.89 364.92 825.5 318.87 823.73"/><polygon class="cls-3" points="401.22 825.5 387.94 862.69 359.6 917.58 366.69 968.05 387.05 911.39 403.88 879.51 401.22 825.5"/><polygon class="cls-3" points="556.18 823.73 558.84 847.63 540.25 870.65 534.05 906.96 521.65 912.27 511.03 857.37 503.94 837.89 510.14 825.5 556.18 823.73"/><polygon class="cls-3" points="473.84 825.5 487.12 862.69 515.45 917.58 508.37 968.05 488 911.39 471.18 879.51 473.84 825.5"/><polygon class="cls-3" points="300.08 382.57 358.28 510.7 371.52 614.47 346.7 760.46 292.94 611.83 289.63 458.81 299.4 382.66 300.08 382.57"/><polygon class="cls-3" points="292.65 656.27 285.2 620.63 336.49 761.34 328.75 781.26 305.95 719.96 292.65 656.27"/><polygon class="cls-3" points="374.15 568.49 375.54 571.79 401.42 633.57 384.71 786.59 358.33 772.52 381.19 630.05 374.15 568.49"/><polygon class="cls-3" points="500.9 568.49 499.52 571.79 473.64 633.57 490.35 786.59 516.73 772.52 493.87 630.05 500.9 568.49"/><polygon class="cls-3" points="574.64 384.58 516.44 512.71 503.2 616.48 528.02 762.47 581.78 613.84 585.08 460.82 575.32 384.67 574.64 384.58"/><polygon class="cls-3" points="582.07 658.28 589.51 622.64 538.23 763.35 545.97 783.27 568.77 721.97 582.07 658.28"/><polygon class="cls-3" points="284.93 268.05 254.12 380.68 269.25 383.15 299.02 376.5 339.48 372.73 359.72 347.79 349.77 322.93 325.09 315.53 284.93 268.05"/><polygon class="cls-3" points="589.79 270.06 620.6 382.69 605.47 385.16 575.7 378.51 535.24 374.74 515 349.8 524.95 324.94 549.63 317.54 589.79 270.06"/><polygon class="cls-3" points="342.32 378.52 309.4 381.42 367.68 496.38 407.38 619.5 403.24 534.19 342.32 378.52"/><polygon class="cls-3" points="406.8 403.4 407.27 402.81 404.1 394.73 365.57 352.55 352.46 370.81 376.88 433.75 406.8 403.4"/><polygon class="cls-3" points="381.77 446.36 409.03 516.61 418.13 430.42 412.75 416.73 381.77 446.36"/><polygon class="cls-3" points="493.28 446.36 466.03 516.61 456.93 430.42 462.31 416.73 493.28 446.36"/><polygon class="cls-3" points="532.4 380.53 565.32 383.43 507.04 498.39 467.34 621.51 471.48 536.2 532.4 380.53"/><polygon class="cls-3" points="467.92 405.41 467.44 404.82 470.62 396.74 509.14 354.56 522.26 372.82 497.84 435.76 467.92 405.41"/><polygon class="cls-3" points="267.83 391.58 288.1 385.43 280.4 451.09 279.17 619.5 305.84 749.08 305.54 810.51 313.51 884.94 303.16 881.1 292.25 906.66 292.69 734.91 267.3 619.5 250.23 388.21 267.83 391.58"/><polygon class="cls-3" points="606.89 393.59 586.62 387.44 594.31 453.1 595.55 621.51 568.88 751.09 569.18 812.52 561.21 886.95 571.55 883.11 582.47 908.67 582.03 736.92 607.42 621.51 624.49 390.22 606.89 393.59"/><polygon class="cls-3" points="322.75 43.05 350.36 58.39 347.17 22.04 322.75 43.05"/><polygon class="cls-3" points="345.21 8.23 292.31 -13.72 312.23 39.89 345.21 8.23"/><polygon class="cls-3" points="312.54 45.18 348.6 67.16 354.75 111.14 319.58 88.27 312.54 45.18"/><polygon class="cls-3" points="321.33 98.84 352.99 120.83 357.39 165.68 322.21 137.54 321.33 98.84"/><polygon class="cls-3" points="356.5 189.52 317.81 160.5 314.44 199.49 287 249.96 329.25 308.14 351.24 311.66 359.15 229 356.5 189.52"/><polygon class="cls-3" points="552.31 43.05 524.7 58.39 527.89 22.04 552.31 43.05"/><polygon class="cls-3" points="529.84 8.23 582.74 -13.72 562.83 39.89 529.84 8.23"/><polygon class="cls-3" points="562.52 45.18 526.46 67.16 520.3 111.14 555.48 88.27 562.52 45.18"/><polygon class="cls-3" points="553.72 98.84 522.06 120.83 517.67 165.68 552.84 137.54 553.72 98.84"/><polygon class="cls-3" points="518.56 189.52 557.25 160.5 560.61 199.49 588.06 249.96 545.81 308.14 523.82 311.66 515.91 229 518.56 189.52"/><polygon class="cls-3" points="364.03 7.57 430.44 -22.32 428.45 26.16 368.68 56.71 364.03 7.57"/><polygon class="cls-3" points="374.66 68.66 375.98 103.19 425.13 92.57 427.78 45.42 374.66 68.66"/><polygon class="cls-3" points="433.1 406.68 420.16 280.95 419.83 199.1 373.22 176.23 367.94 325.73 433.1 406.68"/><polygon class="cls-3" points="377.98 119.8 377.31 162.3 424.46 174.92 425.13 108.51 377.98 119.8"/><polygon class="cls-3" points="511.03 7.57 444.62 -22.32 446.61 26.16 506.38 56.71 511.03 7.57"/><polygon class="cls-3" points="500.4 68.66 499.07 103.19 449.93 92.57 447.27 45.42 500.4 68.66"/><polygon class="cls-3" points="441.96 406.68 454.9 280.95 455.23 199.1 501.84 176.23 507.11 325.73 441.96 406.68"/><polygon class="cls-3" points="497.08 119.8 497.75 162.3 450.6 174.92 449.93 108.51 497.08 119.8"/><path class="cls-3" d="M154.75,442.61l1.33,24.84-17.71,70.83-11.51-.88L138,490.25l-12-.34-18.7,50.14-14.17-1.77,17.6-50.69-12.29-2.32-23.9,53.9L56.91,537.4l24.35-56.12-8.41-5L42.74,524.11l-15-1.77,45.16-85.88-4.43-7.09-42.5,17.71-2.66-9.74,34.53-31,27.53-11.59,21.87,43.45Z"/><polygon class="cls-3" points="659.76 184.14 731.39 376.44 716.21 390.14 632.5 227.23 618.43 139.29 659.76 184.14"/><path class="cls-3" d="M680.87,108.51l-10.56,74.75q34.63,93.51,69.26,187L751,365,723.16,218.08Z"/><path class="cls-3" d="M720.68,442.61l-1.33,24.84,17.71,70.83,11.51-.88-11.18-47.15,12-.34,18.71,50.14,14.17-1.77-17.6-50.69,12.28-2.32,23.91,53.9,17.71-1.77-24.35-56.12,8.41-5,30.11,47.81,15-1.77-45.16-85.88,4.43-7.09,42.5,17.71,2.66-9.74-34.54-31L790.1,394.76l-21.86,43.45Z"/><polygon class="cls-3" points="777.97 390.27 760.77 423.55 721.17 426.46 721.17 404.44 739.68 385.9 759.58 378.14 777.97 390.27"/></g><path class="cls-3" d="M193.33,110.24,203.89,185,164.8,290.54c-3.79-1.75-20.76-8-24.55-9.78,9.26-49,1.53-12,10.79-60.94Z"/><polygon class="cls-3" points="214.44 185.87 173.91 294.36 201.84 306.41 241.7 228.97 255.77 141.02 214.44 185.87"/><polygon class="cls-5" points="123.25 366.76 134.63 372.01 160.79 301.35 137.5 291.4 123.25 366.76"/><polygon class="cls-5" points="96.97 391.12 114.17 424.4 153.78 427.31 153.78 405.28 135.26 386.75 115.37 378.99 96.97 391.12"/><polygon class="cls-5" points="142.65 378.03 157.9 391.85 196.7 316.41 170.08 304.61 142.65 378.03"/></g></svg>