<svg xmlns="http://www.w3.org/2000/svg" xmlns:xlink="http://www.w3.org/1999/xlink" viewBox="0 0 875.43 877.94"><defs><style>.cls-1{fill:none;}.cls-2{fill:#f7f7f7;}.cls-3{clip-path:url(#clip-path);}.cls-4{fill:#d9dadb;}.cls-5{fill:#e0af12;}</style><clipPath id="clip-path"><circle class="cls-1" cx="437.71" cy="440.17" r="437.34"/></clipPath></defs><title>v</title><g id="Mid_Back" data-name="Mid Back"><circle class="cls-2" cx="437.71" cy="440.17" r="437.34"/><g class="cls-3"><polygon class="cls-4" points="325.72 775.68 363.76 833.08 351.75 858.45 309.7 863.12 325.72 775.68"/><polygon class="cls-4" points="362.43 871.13 411.82 924.53 395.13 923.19 335.73 925.19 268.98 975.25 303.69 877.14 362.43 871.13"/><polygon class="cls-4" points="548.65 775.68 510.61 833.08 522.62 858.45 564.67 863.12 548.65 775.68"/><polygon class="cls-4" points="455.04 797.04 437.69 746.31 419 796.6 389.42 870.46 439.48 929.81 486.87 870.46 455.04 797.04"/><polygon class="cls-4" points="511.94 871.13 462.55 924.53 479.24 923.19 538.64 925.19 605.39 975.25 570.68 877.14 511.94 871.13"/><polygon class="cls-4" points="398.47 337.16 392.46 399.9 313.04 437.28 396.47 447.29 433.18 419.25 425.84 315.13 398.47 337.16"/><polygon class="cls-4" points="274.32 578.78 292.34 597.47 289.01 721.62 247.62 811.06 218.92 798.38 209.58 707.6 225.6 612.15 274.32 578.78"/><polygon class="cls-5" points="302.36 603.48 301.02 644.19 327.72 753.66 373.77 809.05 367.1 861.78 372.44 865.12 406.48 795.71 412.49 720.95 369.1 622.16 327.05 620.16 305.69 602.81 302.36 603.48"/><polygon class="cls-4" points="259.64 811.06 258.97 881.14 181.31 995.5 219.59 865.79 259.64 811.06"/><polygon class="cls-4" points="202.9 774.35 218.25 840.43 159.95 1023.98 148.68 1015.12 156.39 940.32 163.51 892.27 202.9 774.35"/><polygon class="cls-4" points="524.7 253.06 523.36 180.3 488.65 138.92 439.26 129.57 387.2 138.92 352.49 180.3 351.15 253.06 333.13 258.4 339.81 296.44 354.49 305.12 372.51 303.12 388.53 339.16 409.89 311.13 439.26 302.42 465.96 311.13 487.32 339.16 503.34 303.12 521.36 305.12 536.04 296.44 542.72 258.4 524.7 253.06"/><polygon class="cls-4" points="475.9 337.16 481.9 399.9 561.33 437.28 477.9 447.29 441.19 419.25 448.53 315.13 475.9 337.16"/><polygon class="cls-4" points="335.06 477.99 329.72 494.01 305.03 505.36 292.34 550.08 234.27 598.14 233.61 502.69 268.31 449.29 297.02 442.62 335.06 477.99"/><polygon class="cls-4" points="378.25 621.79 426.5 718.95 426.5 622.04 378.25 621.79"/><polygon class="cls-4" points="346.41 495.35 368.44 609.48 319.71 605.48 288.34 568.1 307.7 547.41 312.37 519.38 346.41 495.35"/><polygon class="cls-4" points="539.31 477.99 544.65 494.01 569.34 505.36 582.02 550.08 640.1 598.14 640.76 502.69 606.05 449.29 577.35 442.62 539.31 477.99"/><polygon class="cls-4" points="527.96 495.35 505.93 609.48 554.66 605.48 586.03 568.1 566.67 547.41 562 519.38 527.96 495.35"/><polygon class="cls-4" points="493.44 621.79 445.19 718.95 445.19 622.04 493.44 621.79"/><polygon class="cls-4" points="319.71 450.97 353.08 479.68 375.39 609.16 426.5 610.48 426.5 487.68 389.13 459.65 319.71 450.97"/><polygon class="cls-4" points="551.98 450.97 518.61 479.68 496.31 609.16 445.19 610.48 445.19 487.68 482.57 459.65 551.98 450.97"/><polygon class="cls-4" points="600.05 578.78 582.02 597.47 585.36 721.62 626.75 811.06 655.45 798.38 664.79 707.6 648.77 612.15 600.05 578.78"/><polygon class="cls-5" points="572.01 603.48 573.35 644.19 546.65 753.66 500.59 809.05 507.27 861.78 501.93 865.12 467.89 795.71 461.88 720.95 505.27 622.16 547.32 620.16 568.68 602.81 572.01 603.48"/><polygon class="cls-4" points="617.4 811.06 618.07 881.14 695.73 995.5 657.45 865.79 617.4 811.06"/><polygon class="cls-4" points="674.14 774.35 658.78 840.43 717.09 1023.98 728.36 1015.12 720.65 940.32 713.53 892.27 674.14 774.35"/></g></g></svg>