<svg xmlns="http://www.w3.org/2000/svg" xmlns:xlink="http://www.w3.org/1999/xlink" viewBox="0 0 875.43 877.83"><defs><style>.cls-1{fill:none;}.cls-2{fill:#f7f7f7;}.cls-3{clip-path:url(#clip-path);}.cls-4{fill:#e0af12;}.cls-5{fill:#d9dadb;}</style><clipPath id="clip-path"><circle class="cls-1" cx="437.24" cy="437.66" r="437.34"/></clipPath></defs><title>Lower Back</title><g id="Back_Low_Back" data-name="Back Low Back"><circle class="cls-2" cx="437.24" cy="437.66" r="437.34"/><g class="cls-3"><polygon class="cls-4" points="325.25 238.09 363.29 295.49 351.28 320.85 309.23 325.52 325.25 238.09"/><polygon class="cls-4" points="361.96 333.53 411.35 386.93 394.66 385.6 335.26 387.6 268.51 437.66 303.22 339.54 361.96 333.53"/><polygon class="cls-4" points="548.18 238.09 510.13 295.49 522.15 320.85 564.2 325.52 548.18 238.09"/><polygon class="cls-4" points="454.57 259.44 437.22 208.72 418.53 259 388.95 332.87 439.01 392.22 486.4 332.87 454.57 259.44"/><polygon class="cls-4" points="511.47 333.53 462.08 386.93 478.76 385.6 538.17 387.6 604.91 437.66 570.21 339.54 511.47 333.53"/><polygon class="cls-5" points="273.85 41.18 291.87 59.87 288.54 184.02 247.15 273.46 218.45 260.78 209.11 170 225.13 74.56 273.85 41.18"/><polygon class="cls-5" points="301.88 65.88 300.55 106.6 327.25 216.06 373.3 271.46 366.63 324.19 371.97 327.53 406.01 258.11 412.02 183.35 368.63 84.57 326.58 82.57 305.22 65.21 301.88 65.88"/><polygon class="cls-5" points="259.17 273.46 258.5 343.55 180.84 457.9 219.12 328.19 259.17 273.46"/><polygon class="cls-5" points="202.43 236.75 217.78 302.83 159.48 486.38 148.21 477.52 155.92 402.73 163.04 354.67 202.43 236.75"/><polygon class="cls-5" points="334.59 -59.6 329.25 -43.58 304.55 -32.24 291.87 12.48 233.8 60.54 233.13 -34.91 267.84 -88.3 296.54 -94.98 334.59 -59.6"/><polygon class="cls-5" points="319.24 -86.3 352.61 -57.6 376.64 81.9 426.03 181.35 426.03 -49.59 388.65 -77.63 319.24 -86.3"/><polygon class="cls-5" points="345.94 -42.25 367.96 71.89 319.24 67.88 287.87 30.5 307.22 9.81 311.9 -18.22 345.94 -42.25"/><polygon class="cls-5" points="538.84 -59.6 544.17 -43.58 568.87 -32.24 581.55 12.48 639.62 60.54 640.29 -34.91 605.58 -88.3 576.88 -94.98 538.84 -59.6"/><polygon class="cls-5" points="554.19 -86.3 520.81 -57.6 496.79 81.9 447.39 181.35 447.39 -49.59 484.77 -77.63 554.19 -86.3"/><polygon class="cls-5" points="527.49 -42.25 505.46 71.89 554.19 67.88 585.56 30.5 566.2 9.81 561.53 -18.22 527.49 -42.25"/><polygon class="cls-5" points="599.58 41.18 581.55 59.87 584.89 184.02 626.27 273.46 654.97 260.78 664.32 170 648.3 74.56 599.58 41.18"/><polygon class="cls-5" points="571.54 65.88 572.88 106.6 546.18 216.06 500.12 271.46 506.8 324.19 501.46 327.53 467.42 258.11 461.41 183.35 504.8 84.57 546.85 82.57 568.2 65.21 571.54 65.88"/><polygon class="cls-5" points="128.86 465.03 140.59 493 174.87 498.41 177.58 548.93 159.53 621.1 147.81 620.2 159.2 572.16 147.02 571.82 127.96 622.9 113.53 621.1 131.46 569.45 118.94 567.08 94.58 622 76.54 620.2 101.35 563.02 92.78 557.95 62.1 606.66 46.77 604.86 92.78 517.35 88.27 510.14 44.97 528.18 42.26 518.26 77.44 486.68 128.86 465.03"/><polygon class="cls-5" points="747.23 465.03 735.5 493 701.22 498.41 698.52 548.93 716.56 621.1 728.29 620.2 716.9 572.16 729.08 571.82 748.13 622.9 762.57 621.1 744.64 569.45 757.16 567.08 781.51 622 799.56 620.2 774.75 563.02 783.32 557.95 813.99 606.66 829.33 604.86 783.32 517.35 787.83 510.14 831.13 528.18 833.84 518.26 798.65 486.68 747.23 465.03"/><polygon class="cls-5" points="616.93 273.46 617.6 343.55 695.26 457.9 656.98 328.19 616.93 273.46"/><polygon class="cls-5" points="673.66 236.75 658.31 302.83 716.62 486.38 727.89 477.52 720.18 402.73 713.06 354.67 673.66 236.75"/><polygon class="cls-5" points="286.53 624.55 334.59 598.52 408.68 579.83 423.36 537.78 422.03 430.32 396 394.94 348.61 394.27 278.52 453.01 277.86 484.03 264.38 547.82 268.51 606.19 286.53 624.55"/><polygon class="cls-5" points="586.89 624.55 538.83 598.52 464.74 579.83 450.06 537.78 451.39 430.32 477.43 394.94 524.82 394.27 594.9 453.01 595.57 484.03 609.04 547.82 604.91 606.19 586.89 624.55"/><polygon class="cls-5" points="336.59 619.21 326.58 784.07 342.6 858.83 311.23 948.94 277.86 790.75 294.54 631.22 336.59 619.21"/><polygon class="cls-5" points="373.97 609.87 394.66 664.6 402.67 808.77 425.37 669.94 422.69 582.5 373.97 609.87"/><polygon class="cls-5" points="358.62 615.21 333.92 782.07 361.95 922.9 400 1002.33 404.01 833.47 377.31 764.72 375.97 659.92 358.62 615.21"/><polygon class="cls-5" points="277.86 729.53 286.63 633.61 264.38 617.85 264.38 644.13 277.86 729.53"/><polygon class="cls-5" points="536.83 619.21 546.85 784.07 530.83 858.83 562.2 948.94 595.57 790.75 578.88 631.22 536.83 619.21"/><polygon class="cls-5" points="515.55 615.21 540.24 782.07 512.21 922.9 474.17 1002.33 470.16 833.47 496.86 764.72 498.19 659.92 515.55 615.21"/><polygon class="cls-5" points="499.45 609.87 478.76 664.6 470.75 808.77 448.06 669.94 450.73 582.5 499.45 609.87"/><polygon class="cls-5" points="596.97 729.53 588.19 633.61 610.44 617.85 610.44 644.13 596.97 729.53"/></g></g></svg>