<svg xmlns="http://www.w3.org/2000/svg" xmlns:xlink="http://www.w3.org/1999/xlink" viewBox="0 0 875.43 877.94"><defs><style>.cls-1{fill:#f7f7f7;}.cls-2{fill:none;}.cls-3{clip-path:url(#clip-path);}.cls-4{fill:#d9dadb;}.cls-5{fill:#e0af12;}.cls-6{clip-path:url(#clip-path-2);}.cls-7{clip-path:url(#clip-path-3);}</style><clipPath id="clip-path"><circle class="cls-1" cx="440.23" cy="439.48" r="437.34"/></clipPath><clipPath id="clip-path-2"><circle class="cls-2" cx="1030.73" cy="-1009.66" r="437.34"/></clipPath><clipPath id="clip-path-3"><circle class="cls-2" cy="-1009.66" r="437.34"/></clipPath></defs><title>v</title><g id="Front_Abs" data-name="Front Abs"><circle class="cls-1" cx="440.23" cy="439.48" r="437.34"/><g class="cls-3"><polygon class="cls-4" points="378.87 321.94 416.13 378.4 434.56 443.29 391.62 409.04 374.39 347.81 378.87 321.94"/><polygon class="cls-4" points="360.99 363.09 370.18 405.98 316.06 419.26 281.33 407 360.99 363.09"/><polygon class="cls-5" points="326.27 434.57 283.38 511.17 236.4 534.66 264.99 557.13 287.46 622.49 339.55 643.93 422.54 602.92 401.84 441.72 326.27 434.57"/><path class="cls-4" d="M242,719.62a8.19,8.19,0,0,1,1.89-1.11l17-126.66-32.68-47-33.71,49L165.93,765.46l2.62,23C191.6,764,215.65,740.58,242,719.62Z"/><path class="cls-4" d="M172.76,806.53a8.06,8.06,0,0,1-2,1.53l4.34,38.08,60.26-64.34L241,740.31C216.72,760.78,194.34,783.25,172.76,806.53Z"/><polygon class="cls-4" points="179.21 864.53 95.3 1091.09 122.03 1097.26 210.87 914.57 227.21 812.44 179.21 864.53"/><polygon class="cls-4" points="154.69 776.7 166.95 863.51 87.07 1076.69 74.73 1068.47 105.58 903.95 154.69 776.7"/><polygon class="cls-4" points="178.19 585.72 162.87 749.13 152.65 627.59 178.19 585.72"/><polygon class="cls-4" points="536.08 191.24 536.08 131.12 504.38 76.47 436.58 54.46 368.85 76.47 337.16 131.12 337.16 191.24 321.85 194.51 328.41 246.98 353.55 255.72 380.88 312.56 436.88 336.49 492.36 312.56 519.69 255.72 544.83 246.98 551.38 194.51 536.08 191.24"/><polygon class="cls-4" points="514.44 363.09 505.24 405.98 559.37 419.26 594.1 407 514.44 363.09"/><polygon class="cls-5" points="549.16 434.57 592.05 511.17 639.03 534.66 610.43 557.13 587.97 622.49 535.88 643.93 452.89 602.92 473.58 441.72 549.16 434.57"/><path class="cls-4" d="M633.43,719.62a8,8,0,0,0-1.89-1.11l-17-126.66,32.68-47,33.7,49,28.6,171.57-2.63,23C683.83,764,659.78,740.58,633.43,719.62Z"/><path class="cls-4" d="M702.67,806.53a7.88,7.88,0,0,0,2,1.53l-4.34,38.08L640.05,781.8l-5.58-41.49C658.71,760.78,681.09,783.25,702.67,806.53Z"/><polygon class="cls-4" points="696.22 864.53 780.13 1091.09 753.4 1097.26 664.56 914.57 648.22 812.44 696.22 864.53"/><polygon class="cls-4" points="720.73 776.7 708.48 863.51 788.36 1076.69 800.7 1068.47 769.85 903.95 720.73 776.7"/><polygon class="cls-4" points="697.24 585.72 712.56 749.13 722.77 627.59 697.24 585.72"/><path class="cls-4" d="M613.1,412.06l18.78-10.17,58.79,65L691,491.7S614.23,412.63,613.1,412.06Z"/><path class="cls-4" d="M607.13,414.75c0,1.3,82.51,87.92,82.51,87.92l2.5,76.92-28.6-49-55.15-23.49L569.58,435.6Z"/><path class="cls-4" d="M262.33,412.06l-18.78-10.17-58.8,65-.32,24.77S261.2,412.63,262.33,412.06Z"/><path class="cls-4" d="M268.3,414.75c0,1.3-82.52,87.92-82.52,87.92l-2.49,76.92,28.6-49L267,507.08l38.81-71.48Z"/><polygon class="cls-4" points="495.61 321.94 458.35 378.4 439.92 443.29 482.86 409.04 497.77 346.81 495.61 321.94"/><polygon class="cls-4" points="304.42 699.65 336.48 717.47 332.78 675.26 304.42 699.65"/><polygon class="cls-4" points="330.51 659.22 269.08 633.72 292.21 695.98 330.51 659.22"/><polygon class="cls-4" points="292.57 702.13 334.44 727.66 341.59 778.72 300.74 752.17 292.57 702.13"/><polygon class="cls-4" points="302.78 764.44 339.55 789.98 344.65 842.06 303.8 809.38 302.78 764.44"/><polygon class="cls-4" points="343.62 869.75 298.68 836.04 294.78 881.32 262.9 939.93 311.97 1007.5 337.5 1011.59 346.69 915.59 343.62 869.75"/><polygon class="cls-4" points="571.01 699.65 538.95 717.47 542.65 675.26 571.01 699.65"/><polygon class="cls-4" points="544.92 659.22 606.35 633.72 583.22 695.98 544.92 659.22"/><polygon class="cls-4" points="582.86 702.13 540.99 727.66 533.84 778.72 574.69 752.17 582.86 702.13"/><polygon class="cls-4" points="572.65 764.44 535.88 789.98 530.78 842.06 571.63 809.38 572.65 764.44"/><polygon class="cls-4" points="531.81 869.75 576.75 836.04 580.65 881.32 612.52 939.93 563.46 1007.5 537.92 1011.59 528.73 915.59 531.81 869.75"/><polygon class="cls-4" points="352.36 658.45 429.48 623.74 427.17 680.04 357.76 715.52 352.36 658.45"/><polygon class="cls-4" points="364.7 729.4 366.24 769.5 423.31 757.16 426.39 702.41 364.7 729.4"/><polygon class="cls-4" points="432.56 1121.94 417.54 975.93 417.16 880.87 363.03 854.32 356.91 1027.93 432.56 1121.94"/><polygon class="cls-4" points="368.56 788.78 367.78 838.14 422.54 852.79 423.31 775.67 368.56 788.78"/><polygon class="cls-4" points="523.07 658.45 445.95 623.74 448.26 680.04 517.67 715.52 523.07 658.45"/><polygon class="cls-4" points="510.73 729.4 509.19 769.5 452.12 757.16 449.03 702.41 510.73 729.4"/><polygon class="cls-4" points="442.86 1121.94 457.89 975.93 458.27 880.87 512.39 854.32 518.52 1027.93 442.86 1121.94"/><polygon class="cls-4" points="506.87 788.78 507.64 838.14 452.89 852.79 452.12 775.67 506.87 788.78"/></g></g><g id="Mid_Back" data-name="Mid Back"><g class="cls-6"><polygon class="cls-4" points="930.08 -293.02 920.07 -128.16 936.09 -53.4 904.72 36.7 871.34 -121.48 888.03 -281.01 930.08 -293.02"/></g></g><g id="Upper_Back" data-name="Upper Back"><g class="cls-7"><polygon class="cls-4" points="92.03 564.38 75.51 578.42 77.99 600.72 111.56 557.39 107.19 552.25 92.03 564.38"/><polygon class="cls-4" points="106.53 549.85 84.97 542.63 77.47 558.72 73.57 574.28 74.93 576.06 106.53 549.85"/><polygon class="cls-4" points="51.6 574.68 51.6 572.1 49.96 564.7 39.99 572.69 38.43 582.02 39.59 592.9 51.6 574.68"/><polygon class="cls-4" points="99.59 -293.02 109.6 -128.16 93.58 -53.4 124.95 36.7 158.33 -121.48 141.64 -281.01 99.59 -293.02"/><polygon class="cls-4" points="78.31 -297.03 103 -130.16 74.97 10.67 36.92 90.1 32.92 -78.77 59.62 -147.52 60.95 -252.31 78.31 -297.03"/><polygon class="cls-4" points="73.25 601.16 39.59 598.97 54.75 575.01 45.57 527.48 65.6 533.93 82.57 532.23 69.61 578.03 73.25 601.16"/><polygon class="cls-4" points="76.42 56.19 72.09 279.84 33.68 323.2 15.09 295.33 13.85 235.23 30.58 145.4 76.42 56.19"/><polygon class="cls-4" points="88.19 43.18 90.67 225.94 80.14 295.33 98.11 310.19 129.7 245.76 121.65 121.24 106.16 70.44 104.92 33.89 88.19 43.18"/><polygon class="cls-4" points="74.34 303.38 92.31 319.49 65.05 448.97 63.21 527.48 45.13 522.36 43.37 450.2 30.36 358.52 34.07 337.45 74.34 303.38"/><polygon class="cls-4" points="88.59 393.83 71.86 476.84 70.96 495.28 67.6 528.59 82.57 527.48 90.81 495.61 96.64 461.36 96.64 383.92 88.59 393.83"/></g></g></svg>