<svg xmlns="http://www.w3.org/2000/svg" xmlns:xlink="http://www.w3.org/1999/xlink" viewBox="0 0 874.68 874.68"><defs><style>.cls-1{fill:none;}.cls-2{clip-path:url(#clip-path);}.cls-3{fill:#d9dadb;}.cls-4{clip-path:url(#clip-path-2);}.cls-5{clip-path:url(#clip-path-3);}.cls-6{clip-path:url(#clip-path-4);}.cls-7{clip-path:url(#clip-path-5);}.cls-8{fill:#f7f7f7;}.cls-9{fill:#e0af12;}.cls-10{clip-path:url(#clip-path-6);}.cls-11{clip-path:url(#clip-path-7);}</style><clipPath id="clip-path"><circle class="cls-1" cx="-75.54" cy="3296.08" r="430.53"/></clipPath><clipPath id="clip-path-2"><circle class="cls-1" cx="-567.48" cy="2346.13" r="430.53"/></clipPath><clipPath id="clip-path-3"><circle class="cls-1" cx="391.69" cy="2346.13" r="437.34"/></clipPath><clipPath id="clip-path-4"><circle class="cls-1" cx="1322.33" cy="2346.12" r="437.34"/></clipPath><clipPath id="clip-path-5"><circle class="cls-1" cx="437.34" cy="437.34" r="437.34"/></clipPath><clipPath id="clip-path-6"><circle class="cls-1" cy="-487.17" r="437.34"/></clipPath><clipPath id="clip-path-7"><circle class="cls-1" cx="917.23" cy="-487.35" r="437.34"/></clipPath></defs><title>Both Quad</title><g id="Front_Left_Ankle" data-name="Front Left Ankle"><g class="cls-2"><polygon class="cls-3" points="86.06 226.4 86.06 131.17 35.85 44.6 -71.55 9.73 -178.85 44.6 -229.06 131.17 -229.06 226.4 -253.3 231.59 -242.91 314.7 -203.09 328.55 -159.8 418.59 -71.08 456.49 16.8 418.59 60.09 328.55 99.91 314.7 110.3 231.59 86.06 226.4"/><polygon class="cls-3" points="51.77 498.63 37.21 566.58 122.95 587.61 177.96 568.19 51.77 498.63"/><polygon class="cls-3" points="106.78 611.87 174.72 733.21 249.14 770.42 203.84 806.01 168.25 909.55 85.74 943.52 -45.73 878.55 -12.94 623.2 106.78 611.87"/><path class="cls-3" d="M240.28,1063.42a13.48,13.48,0,0,0-3-1.77L210.31,861l51.77-74.41,53.39,77.65L360.77,1136l-4.16,36.48C320.1,1133.76,282,1096.62,240.28,1063.42Z"/><polygon class="cls-3" points="341.36 851.31 365.62 1110.15 381.8 917.64 341.36 851.31"/><path class="cls-3" d="M208.06,576.2l29.76-16.1,93.13,103,.51,39.23S209.86,577.12,208.06,576.2Z"/><path class="cls-3" d="M198.6,580.47c0,2.06,130.72,139.27,130.72,139.27l3.95,121.86L288,764l-87.36-37.21L139.13,613.49Z"/><polygon class="cls-3" points="21.95 433.44 -37.08 522.89 -66.27 625.67 1.75 571.43 25.37 472.85 21.95 433.44"/></g><g class="cls-4"><polygon class="cls-3" points="-113.38 203.88 -132.79 341.39 -6.25 679.1 13.3 666.07 -35.57 405.45 -113.38 203.88"/><polygon class="cls-3" points="36 675.02 14.82 725.52 -47.07 735.29 -51.96 826.51 -19.38 956.82 1.79 955.19 -18.77 868.45 3.22 867.84 37.63 960.08 63.69 956.82 31.32 863.57 53.92 859.29 97.9 958.45 130.47 955.19 85.68 851.96 101.15 842.8 156.54 930.76 184.23 927.5 101.15 769.5 109.3 756.47 187.48 789.04 192.37 771.13 128.84 714.12 36 675.02"/></g></g><g id="Front_Right_Ankle" data-name="Front Right Ankle"><g class="cls-5"><path class="cls-3" d="M81.83,70.73a13.55,13.55,0,0,1,3-1.8l27.39-203.81L59.68-210.47,5.45-131.59l-46,276.09,4.22,37.06C.75,142.18,39.44,104.45,81.83,70.73Z"/><path class="cls-3" d="M-29.57,210.57A12.63,12.63,0,0,1-32.75,213l7,61.29,97-103.53,9-66.77C41.17,137,5.15,173.11-29.57,210.57Z"/><polygon class="cls-3" points="-19.2 303.9 -154.22 668.47 -111.2 678.4 31.75 384.43 58.04 220.09 -19.2 303.9"/><path class="cls-3" d="M711.72,70.73a13.49,13.49,0,0,0-3-1.8L681.29-134.88l52.58-75.59,54.24,78.88,46,276.09-4.22,37.06C792.81,142.18,754.12,104.45,711.72,70.73Z"/><path class="cls-3" d="M823.13,210.57a12.63,12.63,0,0,0,3.18,2.46l-7,61.29-97-103.53-9-66.77C752.39,137,788.4,173.11,823.13,210.57Z"/><polygon class="cls-3" points="812.76 303.9 947.78 668.47 904.76 678.4 761.81 384.43 735.52 220.09 812.76 303.9"/><polygon class="cls-3" points="852.2 162.57 832.48 302.26 961.02 645.31 980.87 632.07 931.23 367.33 852.2 162.57"/><polygon class="cls-3" points="814.4 -144.74 839.05 118.2 855.48 -77.36 814.4 -144.74"/><polygon class="cls-3" points="139.93 673.05 248.69 912.49 273.42 1106.4 227.06 1379.2 126.59 1101.47 120.41 815.53 138.66 673.22 139.93 673.05"/><polygon class="cls-3" points="652.99 676.8 544.23 916.24 519.5 1110.16 565.87 1382.96 666.33 1105.23 672.51 819.28 654.26 676.98 652.99 676.8"/><polygon class="cls-3" points="111.63 459.04 54.03 669.52 82.33 674.13 137.96 661.71 213.56 654.67 251.38 608.05 232.79 561.61 186.66 547.77 111.63 459.04"/><polygon class="cls-3" points="681.3 462.8 738.89 673.28 710.6 677.88 654.97 665.47 579.36 658.43 541.54 611.81 560.13 565.37 606.26 551.53 681.3 462.8"/><polygon class="cls-3" points="218.86 665.48 157.35 670.91 266.24 885.72 340.43 1115.8 332.7 956.39 218.86 665.48"/><polygon class="cls-3" points="339.36 711.98 340.24 710.87 334.31 695.77 262.32 616.96 237.81 651.07 283.45 768.7 339.36 711.98"/><polygon class="cls-3" points="292.59 792.26 343.52 923.52 360.52 762.47 350.47 736.89 292.59 792.26"/><polygon class="cls-3" points="500.97 792.26 450.04 923.52 433.04 762.47 443.09 736.89 500.97 792.26"/><polygon class="cls-3" points="574.06 669.23 635.58 674.67 526.68 889.48 452.49 1119.55 460.22 960.14 574.06 669.23"/><polygon class="cls-3" points="453.57 715.73 452.68 714.62 458.61 699.53 530.6 620.71 555.11 654.83 509.48 772.45 453.57 715.73"/><polygon class="cls-3" points="79.67 689.9 117.54 678.4 103.16 801.09 100.86 1115.8 150.69 1357.94 150.13 1472.74 165.03 1611.82 145.69 1604.64 125.3 1652.42 126.12 1331.46 78.67 1115.8 46.77 683.59 79.67 689.9"/><polygon class="cls-3" points="713.26 693.65 675.39 682.16 689.76 804.85 692.06 1119.55 642.24 1361.7 642.79 1476.5 627.89 1615.58 647.23 1608.39 667.63 1656.17 666.8 1335.22 714.25 1119.55 746.15 687.34 713.26 693.65"/><polygon class="cls-3" points="182.29 38.6 233.88 67.26 227.92 -0.66 182.29 38.6"/><polygon class="cls-3" points="224.27 -26.47 125.42 -67.5 162.64 32.68 224.27 -26.47"/><polygon class="cls-3" points="163.22 42.57 230.59 83.66 242.1 165.82 176.36 123.1 163.22 42.57"/><polygon class="cls-3" points="179.65 142.85 238.81 183.94 247.03 267.75 181.29 215.16 179.65 142.85"/><polygon class="cls-3" points="245.36 312.3 173.05 258.07 166.77 330.93 115.48 425.24 194.44 533.97 235.52 540.55 250.31 386.07 245.36 312.3"/><polygon class="cls-3" points="611.27 38.6 559.68 67.26 565.63 -0.66 611.27 38.6"/><polygon class="cls-3" points="569.28 -26.47 668.14 -67.5 630.92 32.68 569.28 -26.47"/><polygon class="cls-3" points="630.34 42.57 562.96 83.66 551.46 165.82 617.2 123.1 630.34 42.57"/><polygon class="cls-3" points="613.91 142.85 554.75 183.94 546.53 267.75 612.26 215.16 613.91 142.85"/><polygon class="cls-3" points="548.2 312.3 620.5 258.07 626.78 330.93 678.08 425.24 599.12 533.97 558.03 540.55 543.24 386.07 548.2 312.3"/><polygon class="cls-3" points="259.43 -27.71 383.53 -83.55 379.81 7.04 268.12 64.12 259.43 -27.71"/><polygon class="cls-3" points="279.29 86.46 281.77 150.99 373.6 131.13 378.56 43.02 279.29 86.46"/><polygon class="cls-3" points="388.49 718.11 364.31 483.16 363.71 330.2 276.61 287.47 266.75 566.84 388.49 718.11"/><polygon class="cls-3" points="285.49 182.01 284.25 261.44 372.36 285.01 373.6 160.92 285.49 182.01"/><polygon class="cls-3" points="534.12 -27.71 410.03 -83.55 413.75 7.04 525.44 64.12 534.12 -27.71"/><polygon class="cls-3" points="514.27 86.46 511.79 150.99 419.95 131.13 414.99 43.02 514.27 86.46"/><polygon class="cls-3" points="405.06 718.11 429.24 483.16 429.85 330.2 516.95 287.47 526.81 566.84 405.06 718.11"/><polygon class="cls-3" points="508.06 182.01 509.31 261.44 421.2 285.01 419.95 160.92 508.06 182.01"/></g></g><g id="Front_Left_Foot" data-name="Front Left Foot"><g class="cls-6"><polygon class="cls-3" points="902.8 303.93 767.78 668.5 810.8 678.42 953.75 384.45 980.04 220.12 902.8 303.93"/><polygon class="cls-3" points="863.36 162.6 883.08 302.29 754.54 645.33 734.69 632.09 784.33 367.36 863.36 162.6"/><polygon class="cls-3" points="901.16 -144.71 876.51 118.23 860.08 -77.33 901.16 -144.71"/><polygon class="cls-3" points="711.63 641.19 733.14 692.48 796.01 702.41 800.98 795.07 767.88 927.43 746.37 925.78 767.26 837.67 744.93 837.05 709.97 930.74 683.5 927.43 716.38 832.71 693.43 828.37 648.75 929.09 615.66 925.78 661.16 820.92 645.44 811.61 589.19 900.96 561.06 897.65 645.44 737.15 637.17 723.92 557.75 757.01 552.78 738.81 617.32 680.9 711.63 641.19"/></g></g><g id="Front_Abs" data-name="Front Abs"><g class="cls-7"><circle class="cls-8" cx="439.13" cy="436.98" r="437.34"/><path class="cls-3" d="M210.17,5.64A6.53,6.53,0,0,1,208.47,7l3.72,32.64,51.64-55.13,4.78-35.57C247.84-33.56,228.66-14.31,210.17,5.64Z"/><polygon class="cls-3" points="215.69 55.35 143.78 249.51 166.69 254.8 242.83 98.23 256.83 10.71 215.69 55.35"/><polygon class="cls-3" points="194.69 -19.92 205.19 54.47 136.73 237.17 126.16 230.12 152.59 89.13 194.69 -19.92"/><polygon class="cls-3" points="113.88 234.97 125.33 262.28 158.82 267.57 161.46 316.92 143.84 387.42 132.38 386.53 143.51 339.61 131.61 339.28 113 389.18 98.9 387.42 116.41 336.97 104.18 334.65 80.39 388.3 62.77 386.53 87 330.69 78.63 325.73 48.67 373.32 33.69 371.55 78.63 286.08 74.22 279.03 31.93 296.65 29.28 286.96 63.65 256.11 113.88 234.97"/><path class="cls-3" d="M664.3,5.64A6.66,6.66,0,0,0,666,7l-3.72,32.64L610.64-15.54l-4.78-35.57C626.62-33.56,645.8-14.31,664.3,5.64Z"/><polygon class="cls-3" points="658.77 55.35 730.68 249.51 707.77 254.8 631.64 98.23 617.64 10.71 658.77 55.35"/><polygon class="cls-3" points="679.78 -19.92 669.27 54.47 737.73 237.17 748.31 230.12 721.87 89.13 679.78 -19.92"/><polygon class="cls-3" points="760.59 234.97 749.13 262.28 715.65 267.57 713 316.92 730.63 387.42 742.08 386.53 730.96 339.61 742.86 339.28 761.47 389.18 775.57 387.42 758.06 336.97 770.28 334.65 794.08 388.3 811.7 386.53 787.47 330.69 795.84 325.73 825.8 373.32 840.78 371.55 795.84 286.08 800.24 279.03 842.54 296.65 845.19 286.96 810.82 256.11 760.59 234.97"/><polygon class="cls-3" points="386.12 810.84 379.95 830.22 366.73 912.18 364.97 1021.45 383.47 1128.07 382.59 991.49 401.98 936.85 404.62 876.93 386.12 810.84"/><polygon class="cls-3" points="488.35 810.84 494.52 830.22 507.74 912.18 509.5 1021.45 490.99 1128.07 491.87 991.49 472.49 936.85 469.84 876.93 488.35 810.84"/><polygon class="cls-3" points="343.82 860.18 348.23 1024.09 379.93 1142.98 343.36 1131.81 281.25 908.65 303.28 764.13 343.82 860.18"/><polygon class="cls-3" points="529.99 860.18 525.58 1024.09 493.88 1142.98 530.44 1131.81 592.55 908.65 570.52 764.13 529.99 860.18"/><polygon class="cls-3" points="319.14 690.99 316.5 714.78 335.01 737.7 341.18 773.83 353.51 779.11 364.09 724.48 371.14 705.09 364.97 692.75 319.14 690.99"/><polygon class="cls-3" points="401.1 692.75 387.88 729.77 359.68 784.4 366.73 834.63 387 778.23 403.74 746.51 401.1 692.75"/><polygon class="cls-3" points="555.32 690.99 557.97 714.78 539.46 737.7 533.29 773.83 520.95 779.11 510.38 724.48 503.33 705.09 509.5 692.75 555.32 690.99"/><polygon class="cls-3" points="473.37 692.75 486.59 729.77 514.79 784.4 507.74 834.63 487.47 778.23 470.73 746.51 473.37 692.75"/><polygon class="cls-9" points="300.44 251.95 358.37 379.46 371.54 482.74 346.84 628.03 293.34 480.12 290.05 327.83 299.77 252.04 300.44 251.95"/><polygon class="cls-9" points="293.05 524.34 285.64 488.87 336.67 628.9 328.97 648.73 306.29 587.72 293.05 524.34"/><polygon class="cls-9" points="374.16 436.98 375.54 440.26 401.3 501.75 384.67 654.03 358.41 640.03 381.17 498.25 374.16 436.98"/><polygon class="cls-9" points="500.3 436.98 498.93 440.26 473.17 501.75 489.8 654.03 516.06 640.03 493.3 498.25 500.3 436.98"/><polygon class="cls-9" points="573.69 253.95 515.76 381.46 502.59 484.74 527.29 630.03 580.79 482.12 584.08 329.83 574.36 254.04 573.69 253.95"/><polygon class="cls-9" points="581.08 526.34 588.49 490.87 537.46 630.9 545.16 650.73 567.85 589.72 581.08 526.34"/><polygon class="cls-3" points="285.37 137.97 254.7 250.07 269.76 252.52 299.39 245.91 339.66 242.16 359.8 217.33 349.9 192.6 325.33 185.23 285.37 137.97"/><polygon class="cls-3" points="588.76 139.97 619.43 252.07 604.37 254.52 574.74 247.91 534.47 244.16 514.33 219.33 524.23 194.6 548.8 187.23 588.76 139.97"/><polygon class="cls-3" points="342.48 247.91 309.72 250.81 367.71 365.21 407.22 487.74 403.11 402.85 342.48 247.91"/><polygon class="cls-3" points="406.65 272.68 407.12 272.09 403.96 264.05 365.62 222.07 352.57 240.24 376.88 302.89 406.65 272.68"/><polygon class="cls-3" points="381.75 315.43 408.87 385.34 417.92 299.57 412.57 285.95 381.75 315.43"/><polygon class="cls-3" points="492.72 315.43 465.6 385.34 456.54 299.57 461.9 285.95 492.72 315.43"/><polygon class="cls-3" points="531.65 249.91 564.41 252.81 506.42 367.21 466.91 489.74 471.02 404.85 531.65 249.91"/><polygon class="cls-3" points="467.48 274.68 467.01 274.09 470.17 266.05 508.51 224.07 521.56 242.24 497.25 304.89 467.48 274.68"/><polygon class="cls-3" points="268.35 260.92 288.52 254.8 280.86 320.14 279.64 487.74 306.17 616.7 305.88 677.84 313.81 751.91 303.51 748.09 292.65 773.53 293.09 602.6 267.82 487.74 250.83 257.56 268.35 260.92"/><polygon class="cls-3" points="605.78 262.92 585.61 256.8 593.27 322.14 594.49 489.74 567.96 618.7 568.25 679.84 560.32 753.91 570.62 750.09 581.48 775.53 581.04 604.6 606.31 489.74 623.3 259.56 605.78 262.92"/><polygon class="cls-3" points="321.6 -30.42 353.1 -8.54 357.48 36.09 322.47 8.09 321.6 -30.42"/><polygon class="cls-3" points="356.59 59.82 318.08 30.94 314.74 69.74 287.42 119.97 329.47 177.88 351.35 181.38 359.23 99.11 356.59 59.82"/><polygon class="cls-3" points="552.87 -30.42 521.36 -8.54 516.99 36.09 552 8.09 552.87 -30.42"/><polygon class="cls-3" points="517.88 59.82 556.38 30.94 559.73 69.74 587.05 119.97 544.99 177.88 523.11 181.38 515.24 99.11 517.88 59.82"/><polygon class="cls-3" points="432.82 275.95 419.94 150.82 419.62 69.35 373.23 46.6 367.98 195.38 432.82 275.95"/><polygon class="cls-3" points="377.96 -9.57 377.3 32.73 424.23 45.29 424.89 -20.8 377.96 -9.57"/><polygon class="cls-3" points="441.65 275.95 454.52 150.82 454.85 69.35 501.23 46.6 506.49 195.38 441.65 275.95"/><polygon class="cls-3" points="496.5 -9.57 497.16 32.73 450.24 45.29 449.58 -20.8 496.5 -9.57"/></g><g class="cls-10"><polygon class="cls-3" points="51.01 -113.67 57.18 -94.29 70.4 -12.34 72.16 96.94 53.65 203.56 54.53 66.97 35.15 12.34 32.51 -47.58 51.01 -113.67"/><polygon class="cls-3" points="29.5 264 31.84 328.69 38.01 354.25 56.52 354.25 61.8 336.63 67.97 335.74 66.65 353.37 90 346.32 96.17 342.79 122.61 337.06 123.49 316.36 97.93 273.18 84.38 256.24 55.62 272.6 29.5 264"/><polygon class="cls-3" points="91.29 215.8 92.29 226 80.59 248.9 56.2 264.82 31.15 256.61 39.03 232.75 91.29 215.8"/><polygon class="cls-3" points="92.65 -64.33 88.24 99.58 56.54 218.47 93.1 207.3 155.21 -15.86 133.18 -160.38 92.65 -64.33"/></g><g class="cls-11"><polygon class="cls-3" points="867.05 -113.5 860.88 -94.11 847.66 -12.15 845.9 97.11 864.41 203.74 863.52 67.15 882.91 12.52 885.55 -47.4 867.05 -113.5"/><polygon class="cls-3" points="887.89 264.19 885.55 328.87 879.39 354.43 860.88 354.43 855.59 336.81 849.43 335.92 850.75 353.55 827.39 346.5 821.23 342.97 794.79 337.25 793.91 316.54 819.46 273.36 833.01 256.42 861.77 272.78 887.89 264.19"/><polygon class="cls-3" points="826.11 215.98 825.11 226.18 836.81 249.08 861.2 265 886.25 256.79 878.37 232.93 826.11 215.98"/><polygon class="cls-3" points="824.75 -64.15 829.16 99.76 860.86 218.65 824.29 207.48 762.19 -15.68 784.22 -160.2 824.75 -64.15"/></g></g></svg>