<svg xmlns="http://www.w3.org/2000/svg" xmlns:xlink="http://www.w3.org/1999/xlink" viewBox="0 0 874.68 874.68"><defs><style>.cls-1{fill:none;}.cls-2{clip-path:url(#clip-path);}.cls-3{fill:#d9dadb;}.cls-4{fill:#f7f7f7;}.cls-5{clip-path:url(#clip-path-2);}.cls-6{fill:#e0af12;}.cls-7{clip-path:url(#clip-path-3);}</style><clipPath id="clip-path"><circle class="cls-1" cy="1369.79" r="437.34"/></clipPath><clipPath id="clip-path-2"><circle class="cls-1" cx="437.34" cy="437.34" r="437.34"/></clipPath><clipPath id="clip-path-3"><circle class="cls-1" cx="1415.45" cy="437.34" r="437.34"/></clipPath></defs><title>R Calf</title><g id="Back_Left_Calf" data-name="Back Left Calf"><g class="cls-2"><polygon class="cls-3" points="106.6 -33.16 112.59 -15.21 140.26 -2.49 154.47 47.62 219.54 101.47 220.29 -5.49 181.4 -65.32 149.24 -72.8 106.6 -33.16"/><polygon class="cls-3" points="123.81 -63.08 86.41 -30.91 59.48 125.4 4.14 236.84 4.14 -21.94 46.02 -53.35 123.81 -63.08"/><polygon class="cls-3" points="93.89 -13.71 69.21 114.18 123.81 109.69 158.96 67.81 137.27 44.63 132.03 13.21 93.89 -13.71"/><polygon class="cls-3" points="174.66 79.78 154.47 100.72 158.21 239.83 204.58 340.05 236.74 325.84 247.21 224.13 229.26 117.17 174.66 79.78"/><polygon class="cls-3" points="143.25 107.45 144.75 153.07 114.83 275.73 63.23 337.81 70.7 396.9 64.72 400.64 26.58 322.85 19.84 239.09 68.46 128.39 115.58 126.15 139.51 106.7 143.25 107.45"/><polygon class="cls-3" points="340.12 554.71 326.98 586.05 288.57 592.12 285.53 648.72 305.75 729.59 318.89 728.58 306.13 674.75 319.78 674.37 341.13 731.62 357.31 729.59 337.21 671.72 351.24 669.07 378.53 730.6 398.75 728.58 370.95 664.52 380.56 658.83 414.93 713.42 432.11 711.4 380.56 613.34 385.61 605.26 434.13 625.47 437.16 614.35 397.74 578.97 340.12 554.71"/><polygon class="cls-3" points="194.11 340.05 194.86 418.59 281.88 546.73 238.99 401.38 194.11 340.05"/><polygon class="cls-3" points="257.68 298.92 240.48 372.96 305.82 578.64 318.44 568.71 309.81 484.9 301.83 431.05 257.68 298.92"/><polygon class="cls-3" points="117.08 300.41 74.44 364.74 87.91 393.16 135.03 398.39 117.08 300.41"/><polygon class="cls-3" points="12.18 324.35 -7.26 267.51 -28.2 323.85 -61.35 406.62 -5.25 473.12 47.85 406.62 12.18 324.35"/><polygon class="cls-3" points="75.94 407.37 20.59 467.2 39.29 465.7 105.86 467.95 180.65 524.04 141.76 414.1 75.94 407.37"/><polygon class="cls-3" points="160.45 733.46 106.6 704.29 23.58 683.35 7.13 636.23 8.62 515.82 37.79 476.18 90.89 475.43 169.43 541.25 170.17 576 185.27 647.48 180.65 712.89 160.45 733.46"/><polygon class="cls-3" points="104.36 727.48 115.58 912.21 97.63 995.98 132.78 1096.95 170.18 919.69 151.48 740.94 104.36 727.48"/><polygon class="cls-3" points="80.51 722.99 108.18 909.97 76.77 1067.78 34.14 1156.78 29.65 967.56 59.57 890.52 61.06 773.1 80.51 722.99"/><polygon class="cls-3" points="62.48 717.01 39.29 778.34 30.32 939.89 4.89 784.32 7.88 686.34 62.48 717.01"/><polygon class="cls-3" points="171.74 851.1 161.91 743.61 186.84 725.95 186.84 755.39 171.74 851.1"/></g></g><g id="Back_Right_Calf" data-name="Back Right Calf"><circle class="cls-4" cx="437.34" cy="437.34" r="437.34"/><g class="cls-5"><polygon class="cls-3" points="539.98 755.77 521.46 771.51 524.24 796.5 561.85 747.94 556.96 742.18 539.98 755.77"/><polygon class="cls-3" points="556.23 739.5 532.07 731.4 523.66 749.43 519.29 766.87 520.82 768.86 556.23 739.5"/><polygon class="cls-3" points="494.67 767.32 494.67 764.42 492.84 756.13 481.67 765.08 479.92 775.54 481.21 787.73 494.67 767.32"/><polygon class="cls-3" points="333.79 754.93 352.3 770.66 349.52 795.65 311.91 747.1 316.8 741.34 333.79 754.93"/><polygon class="cls-3" points="317.54 738.65 341.7 730.56 350.11 748.59 354.48 766.03 352.95 768.02 317.54 738.65"/><polygon class="cls-3" points="379.1 766.47 379.1 763.58 380.93 755.29 392.1 764.24 393.85 774.7 392.56 786.89 379.1 766.47"/><polygon class="cls-3" points="324.07 -204.98 312.85 -20.24 330.8 63.53 295.65 164.5 258.25 -12.76 276.95 -191.51 324.07 -204.98"/><polygon class="cls-3" points="365.95 -215.45 389.14 -154.12 398.12 7.43 423.54 -148.13 420.55 -246.11 365.95 -215.45"/><polygon class="cls-3" points="348.75 -209.47 321.08 -22.48 352.49 135.32 395.12 224.32 399.61 35.1 369.69 -41.93 368.2 -159.35 348.75 -209.47"/><polygon class="cls-3" points="548.45 -204.98 559.67 -20.24 541.72 63.53 576.87 164.5 614.26 -12.76 595.57 -191.51 548.45 -204.98"/><polygon class="cls-3" points="524.6 -209.47 552.27 -22.48 520.86 135.32 478.23 224.32 473.74 35.1 503.65 -41.93 505.15 -159.35 524.6 -209.47"/><polygon class="cls-3" points="506.56 -215.45 483.38 -154.12 474.4 7.43 448.97 -148.13 451.97 -246.11 506.56 -215.45"/><polygon class="cls-3" points="354.37 796.99 392.1 794.53 375.1 767.68 385.38 714.43 362.95 721.66 343.93 719.75 358.45 771.07 354.37 796.99"/><polygon class="cls-3" points="518.94 796.99 481.21 794.53 498.2 767.68 487.92 714.43 510.36 721.66 529.37 719.75 514.86 771.07 518.94 796.99"/><polygon class="cls-3" points="351.76 186.33 356.62 436.94 399.66 485.53 420.49 454.29 421.87 386.95 403.13 286.3 351.76 186.33"/><polygon class="cls-3" points="338.57 171.76 335.79 376.54 347.6 454.29 327.46 470.95 292.06 398.75 301.08 259.22 318.44 202.3 319.83 161.34 338.57 171.76"/><polygon class="cls-3" points="353.15 463.31 333.02 481.36 363.56 626.45 365.62 714.43 385.88 708.69 387.86 627.84 402.44 525.1 398.27 501.5 353.15 463.31"/><polygon class="cls-3" points="337.18 564.67 355.93 657.69 356.94 678.35 360.7 715.67 343.93 714.43 334.69 678.71 328.16 640.33 328.16 553.56 337.18 564.67"/><polygon class="cls-6" points="522.49 186.33 517.63 436.94 474.59 485.53 453.76 454.29 452.38 386.95 471.12 286.3 522.49 186.33"/><polygon class="cls-6" points="535.68 171.76 538.46 376.54 526.65 454.29 546.78 470.95 582.19 398.75 573.16 259.22 555.81 202.3 554.42 161.34 535.68 171.76"/><polygon class="cls-6" points="520.15 463.31 540.29 481.36 509.74 626.45 507.68 714.43 487.42 708.69 485.44 627.84 470.87 525.1 475.03 501.5 520.15 463.31"/><polygon class="cls-6" points="536.12 564.67 517.38 657.69 516.37 678.35 512.6 715.67 529.37 714.43 538.61 678.71 545.14 640.33 545.14 553.56 536.12 564.67"/></g></g><g id="Back_Left_Achilles" data-name="Back Left Achilles"><g class="cls-7"><circle class="cls-4" cx="1461.68" cy="482.66" r="732.85"/></g></g></svg>