<svg xmlns="http://www.w3.org/2000/svg" xmlns:xlink="http://www.w3.org/1999/xlink" viewBox="0 0 875.43 877.94"><defs><style>.cls-1{fill:none;}.cls-2{clip-path:url(#clip-path);}.cls-3{fill:#d9dadb;}.cls-4{fill:#f7f7f7;}.cls-5{clip-path:url(#clip-path-2);}.cls-6{fill:#e0af12;}</style><clipPath id="clip-path"><circle class="cls-1" cx="-27.69" cy="-467.66" r="437.34"/></clipPath><clipPath id="clip-path-2"><circle class="cls-1" cx="437.71" cy="438.97" r="437.34"/></clipPath></defs><title>v</title><g id="Back_Low_Back" data-name="Back Low Back"><g class="cls-2"><polygon class="cls-3" points="64.34 669.91 47.82 683.95 50.29 706.26 83.86 662.92 79.5 657.78 64.34 669.91"/><polygon class="cls-3" points="78.84 655.39 57.28 648.16 49.77 664.25 45.88 679.82 47.24 681.59 78.84 655.39"/><polygon class="cls-3" points="23.9 680.22 23.9 677.63 22.27 670.23 12.3 678.22 10.74 687.55 11.89 698.43 23.9 680.22"/><polygon class="cls-3" points="71.9 -187.49 81.91 -22.63 65.89 52.13 97.26 142.24 130.63 -15.95 113.95 -175.47 71.9 -187.49"/><polygon class="cls-3" points="50.61 -191.49 75.31 -24.63 47.27 116.2 9.23 195.63 5.22 26.77 31.92 -41.98 33.26 -146.77 50.61 -191.49"/><polygon class="cls-3" points="34.52 -196.83 13.83 -142.1 5.82 2.07 -16.88 -136.76 -14.21 -224.2 34.52 -196.83"/><polygon class="cls-3" points="45.56 706.7 11.89 704.5 27.06 680.54 17.88 633.02 37.9 639.47 54.87 637.77 41.92 683.57 45.56 706.7"/><polygon class="cls-3" points="48.73 161.73 44.39 385.37 5.98 428.74 -12.6 400.86 -13.84 340.77 2.89 250.94 48.73 161.73"/><polygon class="cls-3" points="60.5 148.72 62.98 331.48 52.45 400.86 70.41 415.73 102.01 351.3 93.95 226.78 78.47 175.98 77.23 139.43 60.5 148.72"/><polygon class="cls-3" points="46.65 408.92 64.61 425.02 37.35 554.5 35.52 633.02 17.43 627.9 15.67 555.74 2.66 464.05 6.38 442.99 46.65 408.92"/><polygon class="cls-3" points="60.9 499.36 44.17 582.38 43.27 600.82 39.9 634.13 54.87 633.02 63.12 601.14 68.95 566.89 68.95 489.45 60.9 499.36"/></g></g><g id="Front_Abs" data-name="Front Abs"><circle class="cls-4" cx="437.71" cy="438.97" r="437.34"/><g class="cls-5"><polygon class="cls-3" points="325.72 338.02 363.76 395.42 351.75 420.78 309.7 425.45 325.72 338.02"/><polygon class="cls-3" points="362.43 433.46 411.82 486.86 395.13 485.53 335.73 487.53 268.98 537.59 303.69 439.47 362.43 433.46"/><polygon class="cls-3" points="548.65 338.02 510.61 395.42 522.62 420.78 564.67 425.45 548.65 338.02"/><polygon class="cls-3" points="455.04 359.38 437.69 308.65 419 358.93 389.42 432.8 439.48 492.14 486.87 432.8 455.04 359.38"/><polygon class="cls-3" points="511.94 433.46 462.55 486.86 479.24 485.53 538.64 487.53 605.39 537.59 570.68 439.47 511.94 433.46"/><polygon class="cls-3" points="398.47 -100.51 392.46 -37.77 313.04 -0.39 396.47 9.62 433.18 -18.41 425.84 -122.54 398.47 -100.51"/><polygon class="cls-3" points="302.36 165.81 301.02 206.53 327.72 315.99 373.77 371.39 367.1 424.12 372.44 427.46 406.48 358.04 412.49 283.28 369.1 184.5 327.05 182.5 305.69 165.14 302.36 165.81"/><polygon class="cls-3" points="475.9 -100.51 481.9 -37.77 561.33 -0.39 477.9 9.62 441.19 -18.41 448.53 -122.54 475.9 -100.51"/><polygon class="cls-3" points="335.06 40.33 329.72 56.34 305.03 67.69 292.34 112.41 234.27 160.47 233.61 65.02 268.31 11.63 297.02 4.95 335.06 40.33"/><polygon class="cls-3" points="319.71 13.63 353.08 42.33 377.11 181.83 426.5 281.28 426.5 50.34 389.13 22.3 319.71 13.63"/><polygon class="cls-3" points="346.41 57.68 368.44 171.82 319.71 167.81 288.34 130.43 307.7 109.74 312.37 81.71 346.41 57.68"/><polygon class="cls-3" points="539.31 40.33 544.65 56.34 569.34 67.69 582.02 112.41 640.1 160.47 640.76 65.02 606.05 11.63 577.35 4.95 539.31 40.33"/><polygon class="cls-3" points="554.66 13.63 521.29 42.33 497.26 181.83 447.86 281.28 447.86 50.34 485.24 22.3 554.66 13.63"/><polygon class="cls-3" points="527.96 57.68 505.93 171.82 554.66 167.81 586.03 130.43 566.67 109.74 562 81.71 527.96 57.68"/><polygon class="cls-3" points="600.05 141.11 582.02 159.8 585.36 283.95 617.75 347.39 639.27 356.92 664.45 313.71 664.45 313.71 664.79 269.93 648.77 174.49 600.05 141.11"/><polygon class="cls-3" points="572.01 165.81 573.35 206.53 546.65 315.99 500.59 371.39 507.27 424.12 501.93 427.46 467.89 358.04 461.88 283.28 505.27 184.5 547.32 182.5 568.68 165.14 572.01 165.81"/><polygon class="cls-3" points="129.33 564.96 141.06 592.92 175.34 598.34 178.05 648.86 160.01 721.03 148.28 720.13 159.67 672.09 147.49 671.75 128.43 722.83 114 721.03 131.93 669.38 119.41 667.01 95.05 721.93 77.01 720.13 101.82 662.95 93.25 657.88 62.58 706.59 47.24 704.79 93.25 617.28 88.74 610.07 45.44 628.11 42.73 618.18 77.91 586.61 129.33 564.96"/><polygon class="cls-3" points="747.71 564.96 735.98 592.92 701.7 598.34 698.99 648.86 717.03 721.03 728.76 720.13 717.37 672.09 729.55 671.75 748.61 722.83 763.04 721.03 745.11 669.38 757.63 667.01 781.99 721.93 800.03 720.13 775.22 662.95 783.79 657.88 814.46 706.59 829.8 704.79 783.79 617.28 788.3 610.07 831.6 628.11 834.31 618.18 799.13 586.61 747.71 564.96"/><polygon class="cls-3" points="617.4 386.39 618.07 443.48 695.73 557.84 651.45 407.12 617.4 386.39"/><polygon class="cls-3" points="681.14 354.68 658.78 402.76 717.09 586.31 728.36 577.45 720.65 502.66 713.53 454.6 681.14 354.68"/><polygon class="cls-3" points="287 724.48 335.06 698.45 409.15 679.76 423.83 637.71 422.5 530.25 396.47 494.87 349.08 494.2 279 552.94 278.33 583.96 264.86 647.75 268.98 706.12 287 724.48"/><polygon class="cls-3" points="587.36 724.48 539.3 698.45 465.22 679.76 450.53 637.71 451.87 530.25 477.9 494.87 525.29 494.2 595.37 552.94 596.04 583.96 609.51 647.75 605.38 706.12 587.36 724.48"/><polygon class="cls-3" points="337.06 719.14 327.05 884 343.07 958.76 311.7 1048.87 278.33 890.68 295.01 731.15 337.06 719.14"/><polygon class="cls-3" points="374.44 709.79 395.13 764.53 403.14 908.7 425.84 769.87 423.17 682.43 374.44 709.79"/><polygon class="cls-3" points="359.09 715.13 334.39 882 362.43 1022.83 400.47 1102.26 404.48 933.39 377.78 864.65 376.44 759.85 359.09 715.13"/><polygon class="cls-3" points="278.33 829.46 287.1 733.54 264.86 717.78 264.86 744.05 278.33 829.46"/><polygon class="cls-3" points="537.3 719.14 547.32 884 531.3 958.76 562.67 1048.87 596.04 890.68 579.36 731.15 537.3 719.14"/><polygon class="cls-3" points="516.02 715.13 540.72 882 512.68 1022.83 474.64 1102.26 470.63 933.39 497.33 864.65 498.67 759.85 516.02 715.13"/><polygon class="cls-3" points="499.93 709.79 479.24 764.53 471.23 908.7 448.53 769.87 451.2 682.43 499.93 709.79"/><polygon class="cls-3" points="597.44 829.46 588.66 733.54 610.91 717.78 610.91 744.05 597.44 829.46"/><polygon class="cls-3" points="273.32 143.39 291.34 162.08 288 286.23 255.62 349.67 234.09 359.19 208.92 315.98 208.92 315.98 208.57 272.21 224.59 176.76 273.32 143.39"/><polygon class="cls-3" points="255.96 388.67 255.3 445.75 177.63 560.11 221.91 409.4 255.96 388.67"/><polygon class="cls-3" points="192.23 356.95 214.58 405.03 156.27 588.59 145 579.73 152.71 504.93 159.83 456.87 192.23 356.95"/></g><polygon class="cls-6" points="619.59 357.13 615.33 374.29 651.51 396.27 676.63 344.87 664.52 327.7 641.76 367.74 619.59 357.13"/><polygon class="cls-3" points="253.16 359.68 257.43 376.84 221.24 398.82 196.12 347.43 208.23 330.26 230.99 370.29 253.16 359.68"/></g></svg>