<svg xmlns="http://www.w3.org/2000/svg" xmlns:xlink="http://www.w3.org/1999/xlink" viewBox="0 0 874.68 874.68"><defs><style>.cls-1{fill:none;}.cls-2{clip-path:url(#clip-path);}.cls-3{fill:#d9dadb;}.cls-4{fill:#f7f7f7;}.cls-5{clip-path:url(#clip-path-2);}.cls-6{fill:#e0af12;}</style><clipPath id="clip-path"><circle class="cls-1" cx="-11.64" cy="1369.04" r="437.34"/></clipPath><clipPath id="clip-path-2"><circle class="cls-1" cx="437.34" cy="437.34" r="437.34"/></clipPath></defs><title>R Glute</title><g id="Back_Left_Glutes" data-name="Back Left Glutes"><g class="cls-2"><polygon class="cls-3" points="71.86 553.41 70.53 480.66 35.82 439.27 -13.57 429.93 -65.63 439.27 -100.34 480.66 -101.68 553.41 -119.7 558.75 -113.02 596.79 -98.34 605.47 -80.32 603.47 -64.3 639.51 -42.94 611.48 -13.57 602.77 13.13 611.48 34.49 639.51 50.51 603.47 68.53 605.47 83.21 596.79 89.89 558.75 71.86 553.41"/><polygon class="cls-3" points="23.07 637.51 29.07 700.25 108.5 737.63 25.07 747.64 -11.64 719.61 -4.3 615.48 23.07 637.51"/><polygon class="cls-3" points="86.47 778.35 91.81 794.37 116.51 805.71 129.19 850.43 187.26 898.49 187.93 803.04 153.22 749.64 124.52 742.97 86.47 778.35"/><polygon class="cls-3" points="101.83 751.65 68.45 780.35 44.42 919.85 -4.97 1019.3 -4.97 788.36 32.41 760.32 101.83 751.65"/><polygon class="cls-3" points="75.13 795.7 53.1 909.84 101.83 905.83 133.2 868.45 113.84 847.76 109.17 819.73 75.13 795.7"/></g></g><g id="Back_Right_Glutes" data-name="Back Right Glutes"><circle class="cls-4" cx="437.34" cy="437.34" r="437.34"/><g class="cls-5"><polygon class="cls-3" points="273.74 -53.86 291.76 -35.17 288.42 88.98 247.04 178.42 218.34 165.74 208.99 74.96 225.01 -20.49 273.74 -53.86"/><polygon class="cls-3" points="301.77 -29.16 300.44 11.55 327.13 121.02 373.19 176.41 366.51 229.15 371.85 232.48 405.89 163.07 411.9 88.31 368.52 -10.47 326.47 -12.48 305.11 -29.83 301.77 -29.16"/><polygon class="cls-3" points="259.05 178.42 258.38 248.5 180.72 362.86 219 233.15 259.05 178.42"/><polygon class="cls-3" points="202.32 141.71 217.67 207.79 159.36 391.34 148.09 382.48 155.8 307.68 162.92 259.63 202.32 141.71"/><polygon class="cls-3" points="319.12 -181.35 352.5 -152.65 376.53 -13.14 425.92 86.31 425.92 -144.64 388.54 -172.67 319.12 -181.35"/><polygon class="cls-3" points="554.07 -181.35 520.7 -152.65 496.67 -13.14 447.28 86.31 447.28 -144.64 484.66 -172.67 554.07 -181.35"/><polygon class="cls-3" points="599.46 -53.86 581.44 -35.17 584.78 88.98 626.16 178.42 654.86 165.74 664.2 74.96 648.18 -20.49 599.46 -53.86"/><polygon class="cls-3" points="571.43 -29.16 572.76 11.55 546.06 121.02 500.01 176.41 506.68 229.15 501.34 232.48 467.3 163.07 461.3 88.31 504.68 -10.47 546.73 -12.48 568.09 -29.83 571.43 -29.16"/><polygon class="cls-3" points="128.75 369.99 140.48 397.95 174.76 403.36 177.46 453.88 159.42 526.05 147.69 525.15 159.08 477.11 146.9 476.77 127.85 527.86 113.41 526.05 131.34 474.41 118.82 472.04 94.47 526.96 76.42 525.15 101.23 467.98 92.66 462.9 61.99 511.62 46.65 509.81 92.66 422.31 88.15 415.09 44.85 433.13 42.14 423.21 77.33 391.64 128.75 369.99"/><polygon class="cls-3" points="747.12 369.99 735.39 397.95 701.11 403.36 698.4 453.88 716.45 526.05 728.17 525.15 716.78 477.11 728.96 476.77 748.02 527.86 762.45 526.05 744.52 474.41 757.04 472.04 781.4 526.96 799.44 525.15 774.63 467.98 783.2 462.9 813.88 511.62 829.21 509.81 783.2 422.31 787.71 415.09 831.02 433.13 833.72 423.21 798.54 391.64 747.12 369.99"/><polygon class="cls-3" points="616.81 178.42 617.48 248.5 695.14 362.86 656.86 233.15 616.81 178.42"/><polygon class="cls-3" points="673.55 141.71 658.2 207.79 716.5 391.34 727.77 382.48 720.06 307.68 712.94 259.63 673.55 141.71"/><polygon class="cls-3" points="325.13 143.04 363.18 200.44 351.16 225.81 309.11 230.48 325.13 143.04"/><polygon class="cls-3" points="361.84 238.49 411.23 291.89 394.55 290.55 335.14 292.55 268.4 342.61 303.1 244.5 361.84 238.49"/><polygon class="cls-3" points="548.07 143.04 510.02 200.44 522.03 225.81 564.08 230.48 548.07 143.04"/><polygon class="cls-3" points="454.46 164.4 437.1 113.67 418.41 163.96 388.84 237.82 438.9 297.17 486.29 237.82 454.46 164.4"/><polygon class="cls-3" points="511.36 238.49 461.96 291.89 478.65 290.55 538.05 292.55 604.8 342.61 570.09 244.5 511.36 238.49"/><polygon class="cls-3" points="286.42 529.5 334.48 503.47 408.56 484.78 423.25 442.73 421.91 335.27 395.88 299.9 348.49 299.23 278.41 357.97 277.74 388.98 264.27 452.78 268.4 511.15 286.42 529.5"/><polygon class="cls-6" points="586.78 529.5 538.72 503.47 464.63 484.78 449.94 442.73 451.28 335.27 477.31 299.9 524.7 299.23 594.78 357.97 595.45 388.98 608.92 452.78 604.8 511.15 586.78 529.5"/><polygon class="cls-3" points="336.48 524.16 326.47 689.03 342.49 763.78 311.11 853.89 277.74 695.7 294.43 536.18 336.48 524.16"/><polygon class="cls-3" points="373.86 514.82 394.55 569.55 402.56 713.73 425.25 574.89 422.58 487.45 373.86 514.82"/><polygon class="cls-3" points="358.5 520.16 333.81 687.03 361.84 827.86 399.89 907.29 403.89 738.42 377.19 669.67 375.86 564.88 358.5 520.16"/><polygon class="cls-3" points="277.74 634.49 286.52 538.57 264.27 522.8 264.27 549.08 277.74 634.49"/><polygon class="cls-3" points="536.72 524.16 546.73 689.03 530.71 763.78 562.08 853.89 595.46 695.7 578.77 536.18 536.72 524.16"/><polygon class="cls-3" points="515.43 520.16 540.13 687.03 512.1 827.86 474.05 907.29 470.05 738.42 496.74 669.67 498.08 564.88 515.43 520.16"/><polygon class="cls-3" points="499.34 514.82 478.65 569.55 470.64 713.73 447.94 574.89 450.62 487.45 499.34 514.82"/><polygon class="cls-3" points="596.85 634.49 588.08 538.57 610.32 522.8 610.32 549.08 596.85 634.49"/><polygon class="cls-3" points="361.19 873.38 365.52 1097.03 403.94 1140.39 422.52 1112.52 423.76 1052.42 407.03 962.59 361.19 873.38"/><polygon class="cls-3" points="349.42 860.37 346.94 1043.13 357.47 1112.52 339.51 1127.38 307.91 1062.95 315.96 938.43 331.45 887.63 332.69 851.08 349.42 860.37"/><polygon class="cls-3" points="513.55 873.38 509.21 1097.03 470.81 1140.39 452.22 1112.52 450.98 1052.42 467.71 962.59 513.55 873.38"/><polygon class="cls-3" points="525.32 860.37 527.8 1043.13 517.27 1112.52 535.24 1127.38 566.83 1062.95 558.78 938.43 543.29 887.63 542.05 851.08 525.32 860.37"/></g></g></svg>