<svg xmlns="http://www.w3.org/2000/svg" xmlns:xlink="http://www.w3.org/1999/xlink" viewBox="0 0 874.68 874.68"><defs><style>.cls-1{fill:none;}.cls-2{clip-path:url(#clip-path);}.cls-3{clip-path:url(#clip-path-2);}.cls-4{fill:#d9dadb;}.cls-5{clip-path:url(#clip-path-3);}.cls-6{fill:#f7f7f7;}.cls-7{fill:#e0af12;}</style><clipPath id="clip-path"><circle class="cls-1" cx="1052.1" cy="-727.51" r="437.34"/></clipPath><clipPath id="clip-path-2"><circle class="cls-1" cx="835.98" cy="1361.85" r="437.34"/></clipPath><clipPath id="clip-path-3"><circle class="cls-1" cx="437.34" cy="437.34" r="437.34"/></clipPath></defs><title>R Groin</title><g id="Front_Abs" data-name="Front Abs"><g class="cls-3"><polygon class="cls-4" points="783.66 755.66 815.59 804.06 831.38 859.66 794.59 830.31 779.82 777.83 783.66 755.66"/><polygon class="cls-4" points="768.34 790.93 776.22 827.69 729.83 839.06 700.07 828.56 768.34 790.93"/><polygon class="cls-4" points="738.58 852.19 701.82 917.83 661.56 937.96 686.07 957.22 705.32 1013.23 749.96 1031.61 821.09 996.47 803.35 858.32 738.58 852.19"/><polygon class="cls-4" points="918.39 643.65 918.39 592.13 891.23 545.3 833.12 526.43 775.08 545.3 747.91 592.13 747.91 643.65 734.8 646.46 740.42 691.42 761.96 698.92 785.38 747.63 833.38 768.13 880.92 747.63 904.34 698.92 925.88 691.42 931.5 646.46 918.39 643.65"/><polygon class="cls-4" points="929.6 852.19 966.36 917.83 1006.62 937.96 982.11 957.22 962.86 1013.23 918.22 1031.61 847.09 996.47 864.83 858.32 929.6 852.19"/><path class="cls-4" d="M683.79,832.89l-16.1-8.7-50.38,55.73L617,901.15S682.82,833.39,683.79,832.89Z"/><path class="cls-4" d="M688.9,835.2c0,1.12-70.71,75.35-70.71,75.35l-2.14,65.92,24.51-42,47.26-20.13,33.26-61.26Z"/><polygon class="cls-4" points="883.71 755.66 851.77 804.06 835.98 859.66 872.78 830.31 885.56 776.98 883.71 755.66"/></g><g class="cls-5"><circle class="cls-6" cx="437.5" cy="437.34" r="437.34"/><polygon class="cls-4" points="339.94 -72.32 303.18 -6.68 262.92 13.45 287.43 32.71 306.68 88.72 351.32 107.1 422.44 71.95 404.7 -66.19 339.94 -72.32"/><path class="cls-4" d="M267.72,172a7.07,7.07,0,0,1,1.62-1L283.93,62.46l-28-40.26L227,64.21l-24.51,147L204.78,231C224.53,210,245.14,189.93,267.72,172Z"/><path class="cls-4" d="M208.38,246.44a6.49,6.49,0,0,1-1.69,1.31l3.72,32.64L262,225.25l4.78-35.56C246.06,207.24,226.88,226.49,208.38,246.44Z"/><polygon class="cls-4" points="213.91 296.15 142 490.31 164.91 495.6 241.04 339.03 255.04 251.51 213.91 296.15"/><polygon class="cls-4" points="192.9 220.88 203.41 295.27 134.95 477.97 124.37 470.92 150.81 329.93 192.9 220.88"/><polygon class="cls-4" points="213.03 57.21 199.9 197.25 191.15 93.1 213.03 57.21"/><polygon class="cls-4" points="112.09 475.76 123.55 503.08 157.03 508.37 159.68 557.72 142.05 628.21 130.6 627.33 141.72 580.41 129.82 580.08 111.21 629.98 97.11 628.21 114.63 577.76 102.4 575.45 78.61 629.1 60.98 627.33 85.21 571.49 76.84 566.53 46.88 614.12 31.9 612.35 76.84 526.88 72.44 519.83 30.14 537.45 27.5 527.76 61.86 496.91 112.09 475.76"/><polygon class="cls-4" points="530.96 -72.32 567.71 -6.68 607.97 13.45 583.47 32.71 564.21 88.72 519.58 107.1 448.45 71.95 466.19 -66.19 530.96 -72.32"/><path class="cls-4" d="M603.18,172a7.52,7.52,0,0,0-1.62-1L587,62.46,615,22.2l28.88,42,24.5,147L666.12,231C646.36,210,625.76,189.93,603.18,172Z"/><path class="cls-4" d="M662.51,246.44a6.53,6.53,0,0,0,1.7,1.31l-3.72,32.64-51.64-55.14-4.78-35.56C624.84,207.24,644,226.49,662.51,246.44Z"/><polygon class="cls-4" points="656.99 296.15 728.9 490.31 705.99 495.6 629.86 339.03 615.85 251.51 656.99 296.15"/><polygon class="cls-4" points="677.99 220.88 667.49 295.27 735.95 477.97 746.52 470.92 720.09 329.93 677.99 220.88"/><polygon class="cls-4" points="657.86 57.21 670.99 197.25 679.74 93.1 657.86 57.21"/><polygon class="cls-4" points="758.8 475.76 747.35 503.08 713.86 508.37 711.22 557.72 728.84 628.21 740.3 627.33 729.17 580.41 741.07 580.08 759.68 629.98 773.78 628.21 756.27 577.76 768.5 575.45 792.29 629.1 809.91 627.33 785.68 571.49 794.05 566.53 824.01 614.12 838.99 612.35 794.05 526.88 798.46 519.83 840.76 537.45 843.4 527.76 809.03 496.91 758.8 475.76"/><path class="cls-4" d="M580.63-89.31c0,1.11,70.72,75.34,70.72,75.34L653.49,52,629,10,581.72-10.18,548.46-71.44Z"/><path class="cls-4" d="M290.26-89.31c0,1.11-70.72,75.34-70.72,75.34L217.41,52l24.5-42,47.27-20.13,33.25-61.26Z"/><polygon class="cls-4" points="298.65 492.75 356.58 620.26 369.75 723.54 345.06 868.83 291.55 720.91 288.26 568.63 297.98 492.84 298.65 492.75"/><polygon class="cls-4" points="291.26 765.14 283.85 729.67 334.89 869.7 327.19 889.52 304.5 828.52 291.26 765.14"/><polygon class="cls-4" points="372.38 677.78 373.75 681.06 399.51 742.54 382.88 894.83 356.62 880.83 379.38 739.04 372.38 677.78"/><polygon class="cls-4" points="498.52 677.78 497.14 681.06 471.38 742.54 488.01 894.83 514.27 880.83 491.51 739.04 498.52 677.78"/><polygon class="cls-4" points="571.9 494.75 513.98 622.26 500.81 725.54 525.5 870.83 579 722.91 582.3 570.63 572.58 494.84 571.9 494.75"/><polygon class="cls-4" points="579.3 767.14 586.7 731.67 535.67 871.7 543.37 891.52 566.06 830.52 579.3 767.14"/><polygon class="cls-4" points="283.58 378.77 252.91 490.87 267.98 493.32 297.61 486.71 337.87 482.96 358.01 458.13 348.11 433.4 323.54 426.02 283.58 378.77"/><polygon class="cls-4" points="586.98 380.77 617.65 492.87 602.58 495.32 572.95 488.71 532.69 484.96 512.54 460.13 522.45 435.4 547.01 428.02 586.98 380.77"/><polygon class="cls-7" points="340.69 488.71 307.93 491.61 365.93 606.01 405.44 728.54 401.32 643.64 340.69 488.71"/><polygon class="cls-7" points="404.87 513.48 405.34 512.89 402.18 504.85 363.84 462.87 350.78 481.04 375.09 543.68 404.87 513.48"/><polygon class="cls-7" points="379.96 556.23 407.08 626.14 416.14 540.37 410.78 526.75 379.96 556.23"/><polygon class="cls-4" points="490.94 556.23 463.81 626.14 454.76 540.37 460.11 526.75 490.94 556.23"/><polygon class="cls-4" points="529.86 490.71 562.62 493.61 504.63 608.01 465.12 730.54 469.24 645.64 529.86 490.71"/><polygon class="cls-4" points="465.69 515.48 465.22 514.89 468.38 506.85 506.72 464.87 519.77 483.04 495.47 545.68 465.69 515.48"/><polygon class="cls-4" points="266.56 501.72 286.73 495.6 279.07 560.94 277.85 728.54 304.38 857.5 304.09 918.64 312.03 992.71 301.73 988.89 290.86 1014.33 291.3 843.4 266.03 728.54 249.04 498.36 266.56 501.72"/><polygon class="cls-4" points="604 503.72 583.83 497.6 591.48 562.94 592.71 730.54 566.17 859.5 566.47 920.64 558.53 994.71 568.83 990.89 579.69 1016.33 579.25 845.4 604.52 730.54 621.51 500.36 604 503.72"/><polygon class="cls-4" points="321.22 154.85 348.69 170.12 345.52 133.94 321.22 154.85"/><polygon class="cls-4" points="343.57 120.2 290.93 98.35 310.75 151.7 343.57 120.2"/><polygon class="cls-4" points="311.06 156.97 346.94 178.85 353.07 222.61 318.06 199.85 311.06 156.97"/><polygon class="cls-4" points="319.81 210.38 351.32 232.26 355.69 276.89 320.68 248.88 319.81 210.38"/><polygon class="cls-4" points="354.81 300.62 316.3 271.74 312.95 310.54 285.63 360.77 327.69 418.68 349.57 422.18 357.44 339.91 354.81 300.62"/><polygon class="cls-4" points="549.68 154.85 522.2 170.12 525.38 133.94 549.68 154.85"/><polygon class="cls-4" points="527.32 120.2 579.97 98.35 560.14 151.7 527.32 120.2"/><polygon class="cls-4" points="559.84 156.97 523.95 178.85 517.83 222.61 552.84 199.85 559.84 156.97"/><polygon class="cls-4" points="551.09 210.38 519.58 232.26 515.2 276.89 550.21 248.88 551.09 210.38"/><polygon class="cls-4" points="516.09 300.62 554.6 271.74 557.94 310.54 585.26 360.77 543.21 418.68 521.33 422.18 513.45 339.91 516.09 300.62"/><polygon class="cls-4" points="362.3 119.54 428.39 89.8 426.41 138.04 366.93 168.45 362.3 119.54"/><polygon class="cls-4" points="372.87 180.34 374.2 214.71 423.1 204.13 425.75 157.21 372.87 180.34"/><polygon class="cls-4" points="431.03 516.75 418.16 391.62 417.83 310.15 371.45 287.39 366.19 436.18 431.03 516.75"/><polygon class="cls-4" points="376.18 231.23 375.52 273.53 422.44 286.09 423.1 220 376.18 231.23"/><polygon class="cls-4" points="508.59 119.54 442.5 89.8 444.49 138.04 503.97 168.45 508.59 119.54"/><polygon class="cls-4" points="498.02 180.34 496.7 214.71 447.79 204.13 445.15 157.21 498.02 180.34"/><polygon class="cls-4" points="439.86 516.75 452.74 391.62 453.06 310.15 499.45 287.39 504.7 436.18 439.86 516.75"/><polygon class="cls-4" points="494.71 231.23 495.38 273.53 448.45 286.09 447.79 220 494.71 231.23"/></g></g></svg>