<svg xmlns="http://www.w3.org/2000/svg" xmlns:xlink="http://www.w3.org/1999/xlink" viewBox="0 0 874.68 874.68"><defs><style>.cls-1{fill:none;}.cls-2{clip-path:url(#clip-path);}.cls-3{clip-path:url(#clip-path-2);}.cls-4{fill:#d9dadb;}.cls-5{clip-path:url(#clip-path-3);}.cls-6{fill:#f7f7f7;}.cls-7{fill:#e0af12;}</style><clipPath id="clip-path"><circle class="cls-1" cx="1037.33" cy="-728.27" r="437.34"/></clipPath><clipPath id="clip-path-2"><circle class="cls-1" cx="922.76" cy="1361.85" r="437.34"/></clipPath><clipPath id="clip-path-3"><circle class="cls-1" cx="437.34" cy="437.34" r="437.34"/></clipPath></defs><title>R Hip</title><g id="Front_Abs" data-name="Front Abs"><g class="cls-3"><polygon class="cls-4" points="870.43 784.03 902.37 832.42 918.16 888.02 881.36 858.68 866.59 806.2 870.43 784.03"/><polygon class="cls-4" points="855.11 819.29 862.99 856.05 816.61 867.43 786.85 856.93 855.11 819.29"/><polygon class="cls-4" points="1005.16 672.02 1005.16 620.5 978 573.67 919.9 554.8 861.85 573.67 834.69 620.5 834.69 672.02 821.57 674.83 827.19 719.79 848.74 727.28 872.16 775.99 920.15 796.5 967.7 775.99 991.12 727.28 1012.66 719.79 1018.28 674.83 1005.16 672.02"/><path class="cls-4" d="M770.56,861.26l-16.1-8.71-50.38,55.74-.28,21.23S769.59,861.76,770.56,861.26Z"/><path class="cls-4" d="M775.68,863.57c0,1.11-70.72,75.34-70.72,75.34l-2.13,65.93,24.5-42,47.26-20.13,33.26-61.26Z"/></g><g class="cls-5"><circle class="cls-6" cx="439.86" cy="437.34" r="437.34"/><polygon class="cls-4" points="339.94 -43.95 303.18 21.69 262.92 41.82 287.43 61.07 306.68 117.09 351.32 135.47 422.44 100.32 404.7 -37.83 339.94 -43.95"/><path class="cls-4" d="M267.72,200.33a6.73,6.73,0,0,1,1.62-1L283.93,90.83l-28-40.26L227,92.58l-24.51,147,2.25,19.74C224.53,238.38,245.14,218.29,267.72,200.33Z"/><path class="cls-4" d="M208.38,274.81a6.71,6.71,0,0,1-1.69,1.31l3.72,32.64L262,253.62l4.78-35.56C246.06,235.61,226.88,254.86,208.38,274.81Z"/><polygon class="cls-4" points="213.91 324.51 142 518.68 164.91 523.96 241.04 367.4 255.04 279.88 213.91 324.51"/><polygon class="cls-4" points="192.9 249.25 203.41 323.64 134.95 506.34 124.37 499.29 150.81 358.3 192.9 249.25"/><polygon class="cls-4" points="213.03 85.58 199.9 225.62 191.15 121.46 213.03 85.58"/><polygon class="cls-4" points="112.09 504.13 123.55 531.45 157.03 536.74 159.68 586.09 142.05 656.58 130.6 655.7 141.72 608.78 129.82 608.45 111.21 658.35 97.11 656.58 114.63 606.13 102.4 603.82 78.61 657.46 60.98 655.7 85.21 599.85 76.84 594.9 46.88 642.48 31.9 640.72 76.84 555.24 72.44 548.19 30.14 565.82 27.5 556.12 61.86 525.28 112.09 504.13"/><polygon class="cls-4" points="530.96 -43.95 567.71 21.69 607.97 41.82 583.47 61.07 564.21 117.09 519.58 135.47 448.45 100.32 466.19 -37.83 530.96 -43.95"/><path class="cls-4" d="M603.18,200.33a7.13,7.13,0,0,0-1.62-1L587,90.83l28-40.26,28.88,42,24.5,147-2.24,19.74C646.36,238.38,625.76,218.29,603.18,200.33Z"/><path class="cls-4" d="M662.51,274.81a6.75,6.75,0,0,0,1.7,1.31l-3.72,32.64-51.64-55.14-4.78-35.56C624.84,235.61,644,254.86,662.51,274.81Z"/><polygon class="cls-4" points="656.99 324.51 728.9 518.68 705.99 523.96 629.86 367.4 615.85 279.88 656.99 324.51"/><polygon class="cls-4" points="677.99 249.25 667.49 323.64 735.95 506.34 746.52 499.29 720.09 358.3 677.99 249.25"/><polygon class="cls-4" points="657.86 85.58 670.99 225.62 679.74 121.46 657.86 85.58"/><polygon class="cls-4" points="758.8 504.13 747.35 531.45 713.86 536.74 711.22 586.09 728.84 656.58 740.3 655.7 729.17 608.78 741.07 608.45 759.68 658.35 773.78 656.58 756.27 606.13 768.5 603.82 792.29 657.46 809.91 655.7 785.68 599.85 794.05 594.9 824.01 642.48 838.99 640.72 794.05 555.24 798.46 548.19 840.76 565.82 843.4 556.12 809.03 525.28 758.8 504.13"/><path class="cls-4" d="M585.75-63.25,601.85-72l50.38,55.74L652.51,5S586.72-62.76,585.75-63.25Z"/><path class="cls-4" d="M580.63-60.94c0,1.11,70.72,75.34,70.72,75.34l2.14,65.93L629,38.32,581.72,18.19,548.46-43.08Z"/><path class="cls-4" d="M285.14-63.25,269.05-72,218.66-16.22,218.39,5S284.17-62.76,285.14-63.25Z"/><path class="cls-4" d="M290.26-60.94c0,1.11-70.72,75.34-70.72,75.34l-2.13,65.93,24.5-42,47.27-20.13,33.25-61.27Z"/><polygon class="cls-4" points="298.65 521.11 356.58 648.63 369.75 751.91 345.06 897.19 291.55 749.28 288.26 596.99 297.98 521.21 298.65 521.11"/><polygon class="cls-4" points="291.26 793.51 283.85 758.03 334.89 898.07 327.19 917.89 304.5 856.89 291.26 793.51"/><polygon class="cls-4" points="372.38 706.15 373.75 709.42 399.51 770.91 382.88 923.2 356.62 909.2 379.38 767.41 372.38 706.15"/><polygon class="cls-4" points="498.52 706.15 497.14 709.42 471.38 770.91 488.01 923.2 514.27 909.2 491.51 767.41 498.52 706.15"/><polygon class="cls-4" points="571.9 523.11 513.98 650.63 500.81 753.91 525.5 899.19 579 751.28 582.3 598.99 572.58 523.21 571.9 523.11"/><polygon class="cls-4" points="579.3 795.51 586.7 760.03 535.67 900.07 543.37 919.89 566.06 858.89 579.3 795.51"/><polygon class="cls-7" points="283.58 407.14 252.91 519.24 267.98 521.69 297.61 515.08 337.87 511.32 358.01 486.5 348.11 461.76 323.54 454.39 283.58 407.14"/><polygon class="cls-4" points="586.98 409.14 617.65 521.24 602.58 523.69 572.95 517.08 532.69 513.33 512.54 488.5 522.45 463.76 547.01 456.39 586.98 409.14"/><polygon class="cls-4" points="340.69 517.08 307.93 519.98 365.93 634.38 405.44 756.91 401.32 672.01 340.69 517.08"/><polygon class="cls-4" points="404.87 541.84 405.34 541.25 402.18 533.22 363.84 491.24 350.78 509.41 375.09 572.05 404.87 541.84"/><polygon class="cls-4" points="379.96 584.6 407.08 654.51 416.14 568.74 410.78 555.11 379.96 584.6"/><polygon class="cls-4" points="490.94 584.6 463.81 654.51 454.76 568.74 460.11 555.11 490.94 584.6"/><polygon class="cls-4" points="529.86 519.08 562.62 521.98 504.63 636.38 465.12 758.91 469.24 674.01 529.86 519.08"/><polygon class="cls-4" points="465.69 543.84 465.22 543.25 468.38 535.22 506.72 493.24 519.77 511.41 495.47 574.05 465.69 543.84"/><polygon class="cls-4" points="266.56 530.09 286.73 523.96 279.07 589.3 277.85 756.91 304.38 885.87 304.09 947.01 312.03 1021.08 301.73 1017.25 290.86 1042.7 291.3 871.77 266.03 756.91 249.04 526.73 266.56 530.09"/><polygon class="cls-4" points="604 532.09 583.83 525.96 591.48 591.3 592.71 758.91 566.17 887.87 566.47 949.01 558.53 1023.08 568.83 1019.25 579.69 1044.7 579.25 873.77 604.52 758.91 621.51 528.73 604 532.09"/><polygon class="cls-4" points="321.22 183.22 348.69 198.48 345.52 162.31 321.22 183.22"/><polygon class="cls-4" points="343.57 148.57 290.93 126.72 310.75 180.07 343.57 148.57"/><polygon class="cls-4" points="311.06 185.34 346.94 207.22 353.07 250.98 318.06 228.22 311.06 185.34"/><polygon class="cls-4" points="319.81 238.74 351.32 260.62 355.69 305.26 320.68 277.25 319.81 238.74"/><polygon class="cls-4" points="354.81 328.99 316.3 300.11 312.95 338.91 285.63 389.14 327.69 447.05 349.57 450.55 357.44 368.28 354.81 328.99"/><polygon class="cls-4" points="549.68 183.22 522.2 198.48 525.38 162.31 549.68 183.22"/><polygon class="cls-4" points="527.32 148.57 579.97 126.72 560.14 180.07 527.32 148.57"/><polygon class="cls-4" points="559.84 185.34 523.95 207.22 517.83 250.98 552.84 228.22 559.84 185.34"/><polygon class="cls-4" points="551.09 238.74 519.58 260.62 515.2 305.26 550.21 277.25 551.09 238.74"/><polygon class="cls-4" points="516.09 328.99 554.6 300.11 557.94 338.91 585.26 389.14 543.21 447.05 521.33 450.55 513.45 368.28 516.09 328.99"/><polygon class="cls-4" points="362.3 147.91 428.39 118.17 426.41 166.41 366.93 196.81 362.3 147.91"/><polygon class="cls-4" points="372.87 208.71 374.2 243.08 423.1 232.5 425.75 185.58 372.87 208.71"/><polygon class="cls-4" points="431.03 545.11 418.16 419.99 417.83 338.52 371.45 315.76 366.19 464.55 431.03 545.11"/><polygon class="cls-4" points="376.18 259.6 375.52 301.9 422.44 314.45 423.1 248.36 376.18 259.6"/><polygon class="cls-4" points="508.59 147.91 442.5 118.17 444.49 166.41 503.97 196.81 508.59 147.91"/><polygon class="cls-4" points="498.02 208.71 496.7 243.08 447.79 232.5 445.15 185.58 498.02 208.71"/><polygon class="cls-4" points="439.86 545.11 452.74 419.99 453.06 338.52 499.45 315.76 504.7 464.55 439.86 545.11"/><polygon class="cls-4" points="494.71 259.6 495.38 301.9 448.45 314.45 447.79 248.36 494.71 259.6"/></g></g></svg>