<svg xmlns="http://www.w3.org/2000/svg" xmlns:xlink="http://www.w3.org/1999/xlink" viewBox="0 0 874.68 874.68"><defs><style>.cls-1{fill:none;}.cls-2{clip-path:url(#clip-path);}.cls-3{fill:#d9dadb;}.cls-4{clip-path:url(#clip-path-2);}.cls-5{clip-path:url(#clip-path-3);}.cls-6{fill:#f7f7f7;}.cls-7{clip-path:url(#clip-path-4);}.cls-8{clip-path:url(#clip-path-5);}.cls-9{fill:#e0af12;}</style><clipPath id="clip-path"><circle class="cls-1" cx="-149.53" cy="3270.63" r="437.34"/></clipPath><clipPath id="clip-path-2"><circle class="cls-1" cx="780.1" cy="3270.64" r="437.34"/></clipPath><clipPath id="clip-path-3"><circle class="cls-1" cx="951.39" cy="-727.51" r="437.34"/></clipPath><clipPath id="clip-path-4"><circle class="cls-1" cx="874.68" cy="1361.85" r="437.34"/></clipPath><clipPath id="clip-path-5"><circle class="cls-1" cx="437.34" cy="437.34" r="437.34"/></clipPath></defs><title>R IT Band</title><g id="Front_Left_Foot" data-name="Front Left Foot"><g class="cls-2"><polygon class="cls-3" points="5.2 145.03 5.2 48.29 -45.8 -39.65 -154.9 -75.07 -263.89 -39.65 -314.9 48.29 -314.9 145.03 -339.52 150.3 -328.97 234.72 -288.52 248.79 -244.55 340.25 -154.42 378.75 -65.15 340.25 -21.18 248.79 19.27 234.72 29.82 150.3 5.2 145.03"/><polygon class="cls-3" points="-29.63 421.56 -44.42 490.58 42.68 511.94 98.55 492.22 -29.63 421.56"/><polygon class="cls-3" points="26.24 536.59 95.26 659.84 170.86 697.64 124.84 733.79 88.69 838.97 4.88 873.48 -128.67 807.48 -95.36 548.09 26.24 536.59"/><path class="cls-3" d="M161.85,995.27a13.28,13.28,0,0,0-3-1.8l-27.39-203.8L184,714.07,238.24,793l46,276.09L280,1106.1C242.94,1066.72,204.25,1029,161.85,995.27Z"/><polygon class="cls-3" points="264.53 779.81 289.18 1042.74 305.61 847.18 264.53 779.81"/><path class="cls-3" d="M129.13,500.36,159.35,484,254,588.66l.52,39.85S131,501.28,129.13,500.36Z"/><path class="cls-3" d="M119.52,504.69c0,2.09,132.78,141.47,132.78,141.47l4,123.79-46-78.88-88.74-37.8-62.45-115Z"/><polygon class="cls-3" points="19.42 898.07 118.27 857.04 81.05 957.23 19.42 898.07"/></g></g><g id="Front_Right_Foot" data-name="Front Right Foot"><g class="cls-4"><polygon class="cls-3" points="687.17 355.31 747.13 446.18 776.78 550.58 707.69 495.48 679.96 396.94 687.17 355.31"/><polygon class="cls-3" points="658.41 421.53 673.2 490.55 586.1 511.91 530.22 492.19 658.41 421.53"/><polygon class="cls-3" points="602.53 536.56 533.51 659.82 457.92 697.61 503.93 733.77 540.08 838.94 623.89 873.45 757.45 807.46 724.14 548.07 602.53 536.56"/><path class="cls-3" d="M466.92,995.24a13.82,13.82,0,0,1,3-1.79l27.4-203.81-52.59-75.59-54.23,78.88-46,276.08,4.22,37.06C385.83,1066.7,424.53,1029,466.92,995.24Z"/><polygon class="cls-3" points="364.24 779.78 339.59 1042.72 323.16 847.16 364.24 779.78"/><polygon class="cls-3" points="940.15 144.99 940.15 48.26 889.15 -39.68 780.05 -75.1 671.06 -39.68 620.05 48.26 620.05 144.99 595.43 150.27 605.98 234.69 646.43 248.76 690.4 340.22 780.53 378.72 869.8 340.22 913.77 248.76 954.22 234.69 964.77 150.27 940.15 144.99"/><polygon class="cls-3" points="961.2 536.56 1030.22 659.82 1105.81 697.61 1059.8 733.77 1023.64 838.94 939.83 873.45 806.28 807.46 839.59 548.07 961.2 536.56"/><path class="cls-3" d="M499.65,500.33,469.42,484,374.81,588.63l-.51,39.85S497.82,501.26,499.65,500.33Z"/><path class="cls-3" d="M509.25,504.66c.05,2.09-132.78,141.47-132.78,141.47l-4,123.79,46-78.88,88.75-37.8,62.44-115Z"/><polygon class="cls-3" points="875.03 355.31 815.07 446.18 785.42 550.58 854.51 495.48 878.5 395.34 875.03 355.31"/><polygon class="cls-3" points="609.36 898.05 510.5 857.02 547.72 957.2 609.36 898.05"/><polygon class="cls-3" points="644.52 896.81 768.61 840.97 764.89 931.56 653.2 988.64 644.52 896.81"/><polygon class="cls-3" points="919.21 896.81 795.11 840.97 798.84 931.56 910.52 988.64 919.21 896.81"/></g></g><g id="Back_Left_Achilles" data-name="Back Left Achilles"><g class="cls-5"><circle class="cls-6" cx="997.63" cy="-682.19" r="732.85"/></g></g><g id="Front_Abs" data-name="Front Abs"><g class="cls-7"><polygon class="cls-3" points="822.74 527.03 854.67 575.42 870.47 631.02 833.67 601.68 818.9 549.2 822.74 527.03"/><polygon class="cls-3" points="807.42 562.29 815.3 599.05 768.91 610.43 739.15 599.92 807.42 562.29"/><polygon class="cls-3" points="777.66 623.56 740.9 689.2 700.64 709.33 725.15 728.58 744.41 784.6 789.04 802.98 860.17 767.83 842.43 629.68 777.66 623.56"/><path class="cls-3" d="M705.44,867.84a7.34,7.34,0,0,1,1.62-1l14.59-108.54-28-40.26-28.88,42-24.51,147,2.25,19.73C662.26,905.89,682.86,885.8,705.44,867.84Z"/><polygon class="cls-3" points="650.76 753.09 637.63 893.12 628.88 788.97 650.76 753.09"/><polygon class="cls-3" points="957.47 415.02 957.47 363.5 930.31 316.66 872.21 297.8 814.16 316.66 787 363.5 787 415.02 773.88 417.83 779.5 462.79 801.04 470.28 824.46 518.99 872.46 539.49 920 518.99 943.42 470.28 964.97 462.79 970.59 417.83 957.47 415.02"/><path class="cls-3" d="M722.87,604.26l-16.1-8.71-50.38,55.74-.28,21.22S721.9,604.75,722.87,604.26Z"/><path class="cls-3" d="M728,606.57c0,1.11-70.72,75.34-70.72,75.34l-2.14,65.93,24.51-42L726.9,685.7l33.26-61.27Z"/><polygon class="cls-3" points="758.94 850.73 786.42 865.99 783.24 829.82 758.94 850.73"/><polygon class="cls-3" points="781.3 816.08 728.65 794.22 748.47 847.58 781.3 816.08"/><polygon class="cls-3" points="748.78 852.85 784.67 874.73 790.79 918.49 755.78 895.73 748.78 852.85"/><polygon class="cls-3" points="800.02 815.41 866.12 785.67 864.13 833.92 804.65 864.32 800.02 815.41"/><polygon class="cls-3" points="810.6 876.22 811.92 910.59 860.83 900.01 863.47 853.09 810.6 876.22"/></g><g class="cls-8"><circle class="cls-6" cx="437.73" cy="437.34" r="437.34"/><path class="cls-3" d="M268.1-56.67a7.19,7.19,0,0,1,1.62-1l14.59-108.54-28-40.26-28.88,42-24.5,147,2.24,19.74C224.92-18.62,245.52-38.71,268.1-56.67Z"/><path class="cls-3" d="M208.77,17.8a6.8,6.8,0,0,1-1.7,1.32l3.72,32.64L262.43-3.38l4.78-35.56C246.44-21.4,227.26-2.15,208.77,17.8Z"/><polygon class="cls-3" points="214.29 67.51 142.38 261.67 165.29 266.96 241.43 110.4 255.43 22.87 214.29 67.51"/><polygon class="cls-3" points="193.29 -7.76 203.79 66.64 135.33 249.34 124.76 242.28 151.19 101.29 193.29 -7.76"/><polygon class="cls-3" points="112.48 247.13 123.93 274.45 157.42 279.73 160.06 329.08 142.44 399.58 130.98 398.7 142.11 351.77 130.21 351.44 111.6 401.34 97.5 399.58 115.01 349.13 102.78 346.81 78.99 400.46 61.37 398.7 85.6 342.85 77.23 337.89 47.27 385.48 32.29 383.72 77.23 298.24 72.82 291.19 30.52 308.81 27.88 299.12 62.25 268.28 112.48 247.13"/><path class="cls-3" d="M603.56-56.67a6.77,6.77,0,0,0-1.62-1L587.35-166.17l28-40.26,28.88,42,24.51,147L666.5,2.35C646.75-18.62,626.14-38.71,603.56-56.67Z"/><path class="cls-3" d="M662.9,17.8a6.76,6.76,0,0,0,1.69,1.32l-3.72,32.64L609.24-3.38l-4.78-35.56C625.22-21.4,644.4-2.15,662.9,17.8Z"/><polygon class="cls-3" points="657.37 67.51 729.28 261.67 706.37 266.96 630.24 110.4 616.24 22.87 657.37 67.51"/><polygon class="cls-3" points="678.38 -7.76 667.88 66.64 736.33 249.34 746.91 242.28 720.47 101.29 678.38 -7.76"/><polygon class="cls-3" points="759.19 247.13 747.73 274.45 714.25 279.73 711.6 329.08 729.23 399.58 740.68 398.7 729.56 351.77 741.45 351.44 760.07 401.34 774.17 399.58 756.65 349.13 768.88 346.81 792.67 400.46 810.3 398.7 786.07 342.85 794.44 337.89 824.4 385.48 839.38 383.72 794.44 298.24 798.84 291.19 841.14 308.81 843.78 299.12 809.42 268.28 759.19 247.13"/><polygon class="cls-3" points="384.72 823 378.55 842.39 365.33 924.34 363.57 1033.61 382.07 1140.24 381.19 1003.65 400.58 949.01 403.22 889.09 384.72 823"/><polygon class="cls-3" points="486.95 823 493.12 842.39 506.34 924.34 508.1 1033.61 489.59 1140.24 490.47 1003.65 471.09 949.01 468.44 889.09 486.95 823"/><polygon class="cls-3" points="342.42 872.35 346.82 1036.25 378.53 1155.14 341.96 1143.98 279.85 920.82 301.88 776.3 342.42 872.35"/><polygon class="cls-3" points="528.59 872.35 524.18 1036.25 492.48 1155.14 529.04 1143.98 591.15 920.82 569.12 776.3 528.59 872.35"/><polygon class="cls-3" points="317.75 703.15 315.1 726.95 333.61 749.86 339.77 785.99 352.11 791.28 362.69 736.64 369.74 717.25 363.57 704.92 317.75 703.15"/><polygon class="cls-3" points="399.7 704.92 386.48 741.93 358.28 796.56 365.33 846.79 385.6 790.39 402.34 758.67 399.7 704.92"/><polygon class="cls-3" points="553.92 703.15 556.57 726.95 538.06 749.86 531.89 785.99 519.55 791.28 508.98 736.64 501.93 717.25 508.1 704.92 553.92 703.15"/><polygon class="cls-3" points="471.97 704.92 485.19 741.93 513.38 796.56 506.34 846.79 486.07 790.39 469.32 758.67 471.97 704.92"/><polygon class="cls-3" points="299.04 264.11 356.97 391.63 370.14 494.9 345.44 640.19 291.94 492.28 288.65 339.99 298.37 264.2 299.04 264.11"/><polygon class="cls-3" points="291.65 536.5 284.24 501.03 335.27 641.06 327.57 660.89 304.88 599.88 291.65 536.5"/><polygon class="cls-3" points="372.76 449.14 374.14 452.42 399.89 513.91 383.26 666.2 357.01 652.19 379.76 510.41 372.76 449.14"/><polygon class="cls-3" points="498.9 449.14 497.53 452.42 471.77 513.91 488.4 666.2 514.66 652.19 491.9 510.41 498.9 449.14"/><polygon class="cls-3" points="572.29 266.11 514.36 393.63 501.19 496.9 525.89 642.19 579.39 494.28 582.68 341.99 572.96 266.2 572.29 266.11"/><polygon class="cls-3" points="579.68 538.5 587.09 503.03 536.06 643.06 543.76 662.89 566.44 601.88 579.68 538.5"/><polygon class="cls-3" points="283.97 150.13 253.3 262.23 268.36 264.69 297.99 258.07 338.26 254.32 358.4 229.49 348.5 204.76 323.93 197.39 283.97 150.13"/><polygon class="cls-3" points="587.36 152.13 618.03 264.23 602.97 266.69 573.34 260.07 533.07 256.32 512.93 231.49 522.83 206.76 547.4 199.39 587.36 152.13"/><polygon class="cls-3" points="341.08 260.08 308.32 262.97 366.31 377.37 405.82 499.9 401.71 415.01 341.08 260.08"/><polygon class="cls-3" points="405.25 284.84 405.72 284.25 402.56 276.21 364.22 234.24 351.17 252.4 375.48 315.05 405.25 284.84"/><polygon class="cls-3" points="380.35 327.6 407.47 397.5 416.52 311.73 411.17 298.11 380.35 327.6"/><polygon class="cls-3" points="491.32 327.6 464.2 397.5 455.14 311.73 460.5 298.11 491.32 327.6"/><polygon class="cls-3" points="530.25 262.08 563.01 264.97 505.02 379.37 465.51 501.9 469.62 417.01 530.25 262.08"/><polygon class="cls-3" points="466.08 286.84 465.61 286.25 468.76 278.21 507.11 236.24 520.16 254.4 495.85 317.05 466.08 286.84"/><polygon class="cls-9" points="266.95 273.08 287.12 266.96 279.46 332.3 278.24 499.9 304.77 628.87 304.48 690.01 312.41 764.08 302.11 760.25 291.25 785.7 291.69 614.76 266.42 499.9 249.43 269.72 266.95 273.08"/><polygon class="cls-3" points="604.38 275.08 584.21 268.96 591.87 334.3 593.09 501.9 566.56 630.87 566.85 692.01 558.92 766.08 569.22 762.25 580.08 787.7 579.64 616.76 604.91 501.9 621.9 271.72 604.38 275.08"/><polygon class="cls-3" points="320.19 -18.26 351.7 3.62 356.08 48.26 321.07 20.25 320.19 -18.26"/><polygon class="cls-3" points="355.19 71.98 316.68 43.1 313.34 81.9 286.02 132.13 328.07 190.04 349.95 193.54 357.83 111.27 355.19 71.98"/><polygon class="cls-3" points="551.47 -18.26 519.96 3.62 515.59 48.26 550.6 20.25 551.47 -18.26"/><polygon class="cls-3" points="516.47 71.98 554.98 43.1 558.33 81.9 585.64 132.13 543.59 190.04 521.71 193.54 513.84 111.27 516.47 71.98"/><polygon class="cls-3" points="431.42 288.11 418.54 162.98 418.22 81.51 371.83 58.76 366.58 207.54 431.42 288.11"/><polygon class="cls-3" points="376.56 2.6 375.9 44.89 422.83 57.45 423.49 -8.64 376.56 2.6"/><polygon class="cls-3" points="440.25 288.11 453.12 162.98 453.45 81.51 499.83 58.76 505.08 207.54 440.25 288.11"/><polygon class="cls-3" points="495.1 2.6 495.76 44.89 448.84 57.45 448.18 -8.64 495.1 2.6"/></g></g></svg>