<svg xmlns="http://www.w3.org/2000/svg" xmlns:xlink="http://www.w3.org/1999/xlink" viewBox="0 0 874.68 874.68"><defs><style>.cls-1{fill:none;}.cls-2{clip-path:url(#clip-path);}.cls-3{fill:#d9dadb;}.cls-4{clip-path:url(#clip-path-2);}.cls-5{fill:#f7f7f7;}.cls-6{fill:#e0af12;}</style><clipPath id="clip-path"><circle class="cls-1" cx="874.68" cy="1387.3" r="437.34"/></clipPath><clipPath id="clip-path-2"><circle class="cls-1" cx="437.34" cy="437.34" r="437.34"/></clipPath></defs><title>R Knee</title><g id="Front_Left_Knee" data-name="Front Left Knee"><g class="cls-2"><polygon class="cls-3" points="816.05 -105.05 851.83 -50.82 869.53 11.48 828.3 -21.4 811.75 -80.2 816.05 -105.05"/><polygon class="cls-3" points="765.54 3.12 724.35 76.67 679.24 99.23 706.7 120.81 728.27 183.57 778.29 204.17 857.99 164.78 838.11 9.99 765.54 3.12"/><path class="cls-3" d="M684.61,276.85a8,8,0,0,1,1.82-1.07l16.34-121.63L671.39,109,639,156.11,611.57,320.87,614.09,343C636.22,319.49,659.31,297,684.61,276.85Z"/><path class="cls-3" d="M618.13,360.3a7.61,7.61,0,0,1-1.9,1.47l4.16,36.58,57.87-61.79,5.35-39.84C660.34,316.37,638.85,338,618.13,360.3Z"/><polygon class="cls-3" points="624.32 416 543.74 633.57 569.41 639.49 654.72 464.06 670.41 365.99 624.32 416"/><polygon class="cls-3" points="600.78 331.66 612.55 415.02 535.84 619.74 523.99 611.84 553.61 453.85 600.78 331.66"/><polygon class="cls-3" points="623.34 148.27 608.63 305.18 598.82 188.48 623.34 148.27"/><polygon class="cls-3" points="510.23 617.27 523.06 647.88 560.59 653.8 563.55 709.1 543.8 788.1 530.96 787.11 543.43 734.53 530.1 734.16 509.24 790.07 493.44 788.1 513.07 731.56 499.37 728.97 472.7 789.08 452.96 787.11 480.11 724.53 470.73 718.98 437.16 772.3 420.37 770.32 470.73 674.54 465.79 666.64 418.4 686.39 415.44 675.53 453.94 640.97 510.23 617.27"/><path class="cls-3" d="M704.14-18.5l-18-9.76L629.64,34.2,629.34,58S703.05-17.95,704.14-18.5Z"/><path class="cls-3" d="M709.87-15.92c0,1.25-79.24,84.43-79.24,84.43l-2.39,73.87L655.7,95.31l53-22.56L745.93,4.1Z"/><polygon class="cls-3" points="928.16 -105.05 892.37 -50.82 874.68 11.48 915.91 -21.4 930.23 -81.16 928.16 -105.05"/><polygon class="cls-3" points="719.28 636.3 784.19 779.19 798.94 894.91 771.27 1057.71 711.32 891.97 707.63 721.32 718.52 636.4 719.28 636.3"/><polygon class="cls-3" points="801.89 843.63 803.43 847.31 832.29 916.21 813.66 1086.85 784.24 1071.16 809.73 912.28 801.89 843.63"/><polygon class="cls-3" points="702.39 508.58 668.02 634.19 684.9 636.94 718.1 629.53 763.22 625.33 785.79 597.51 774.7 569.79 747.17 561.53 702.39 508.58"/><polygon class="cls-3" points="766.38 631.78 729.67 635.02 794.66 763.22 838.93 900.51 834.32 805.38 766.38 631.78"/><polygon class="cls-3" points="838.29 659.53 838.82 658.87 835.28 649.86 792.32 602.82 777.69 623.18 804.93 693.38 838.29 659.53"/><polygon class="cls-3" points="810.38 707.44 840.78 785.77 850.92 689.66 844.92 674.39 810.38 707.44"/><polygon class="cls-3" points="683.32 646.35 705.92 639.49 697.34 712.71 695.97 900.51 725.7 1045.02 725.37 1113.53 734.26 1196.53 722.72 1192.24 710.55 1220.75 711.04 1029.22 682.73 900.51 663.69 642.59 683.32 646.35"/><polygon class="cls-3" points="744.56 257.68 775.35 274.78 771.79 234.25 744.56 257.68"/><polygon class="cls-3" points="769.61 218.84 710.62 194.36 732.83 254.15 769.61 218.84"/><polygon class="cls-3" points="733.18 260.05 773.38 284.56 780.25 333.6 741.02 308.1 733.18 260.05"/><polygon class="cls-3" points="742.98 319.89 778.29 344.41 783.19 394.43 743.96 363.04 742.98 319.89"/><polygon class="cls-3" points="782.2 421.01 739.05 388.65 735.3 432.13 704.69 488.41 751.81 553.3 776.33 557.22 785.15 465.04 782.2 421.01"/><polygon class="cls-3" points="790.6 218.1 864.65 184.78 862.43 238.84 795.78 272.91 790.6 218.1"/><polygon class="cls-3" points="802.45 286.24 803.93 324.75 858.73 312.9 861.69 260.32 802.45 286.24"/><polygon class="cls-3" points="867.62 663.19 853.19 522.98 852.82 431.69 800.85 406.19 794.96 572.91 867.62 663.19"/><polygon class="cls-3" points="806.15 343.26 805.41 390.66 857.99 404.73 858.73 330.67 806.15 343.26"/></g><g class="cls-4"><circle class="cls-5" cx="437.34" cy="437.34" r="437.34"/><polygon class="cls-3" points="377.94 312.6 371.03 334.32 356.22 426.15 354.24 548.59 374.98 668.07 373.99 515.02 395.72 453.8 398.68 386.65 377.94 312.6"/><polygon class="cls-3" points="492.5 312.6 499.41 334.32 514.22 426.15 516.2 548.59 495.46 668.07 496.45 515.02 474.72 453.8 471.76 386.65 492.5 312.6"/><polygon class="cls-3" points="401.3 735.8 398.68 808.29 391.77 836.92 371.03 836.92 365.11 817.17 358.19 816.19 359.68 835.93 333.51 828.04 326.6 824.09 296.97 817.67 295.99 794.46 324.62 746.08 339.81 727.1 372.03 745.43 401.3 735.8"/><polygon class="cls-3" points="468.4 735.8 471.02 808.29 477.93 836.92 498.67 836.92 504.59 817.17 511.5 816.19 510.02 835.93 536.19 828.04 543.1 824.09 572.73 817.67 573.71 794.46 545.08 746.08 529.89 727.1 497.67 745.43 468.4 735.8"/><polygon class="cls-3" points="332.06 681.78 330.95 693.22 344.06 718.87 371.38 736.72 399.46 727.52 390.63 700.78 332.06 681.78"/><polygon class="cls-3" points="537.63 681.78 538.75 693.22 525.64 718.87 498.31 736.72 470.24 727.52 479.07 700.78 537.63 681.78"/><polygon class="cls-3" points="330.55 367.89 335.48 551.56 371.01 684.78 330.03 672.26 260.44 422.2 285.12 260.26 330.55 367.89"/><polygon class="cls-3" points="539.15 367.89 534.22 551.56 498.69 684.78 539.66 672.26 609.26 422.2 584.57 260.26 539.15 367.89"/><polygon class="cls-6" points="302.9 178.31 299.94 204.97 320.67 230.64 327.58 271.13 341.41 277.05 353.26 215.83 361.16 194.11 354.24 180.28 302.9 178.31"/><polygon class="cls-6" points="394.73 180.28 379.92 221.75 348.32 282.97 356.22 339.26 378.93 276.06 397.69 240.51 394.73 180.28"/><polygon class="cls-3" points="567.54 178.31 570.5 204.97 549.77 230.64 542.86 271.13 529.03 277.05 517.18 215.83 509.28 194.11 516.2 180.28 567.54 178.31"/><polygon class="cls-3" points="475.71 180.28 490.52 221.75 522.12 282.97 514.22 339.26 491.51 276.06 472.75 240.51 475.71 180.28"/><polygon class="cls-3" points="281.94 -313.66 346.85 -170.77 361.6 -55.05 333.93 107.75 273.98 -57.99 270.29 -228.63 281.18 -313.56 281.94 -313.66"/><polygon class="cls-3" points="273.65 -8.43 265.35 -48.18 322.54 108.73 313.91 130.94 288.49 62.59 273.65 -8.43"/><polygon class="cls-3" points="364.55 -106.32 366.09 -102.65 394.95 -33.75 376.32 136.89 346.89 121.2 372.39 -37.67 364.55 -106.32"/><polygon class="cls-3" points="505.89 -106.32 504.35 -102.65 475.49 -33.75 494.12 136.89 523.54 121.2 498.05 -37.67 505.89 -106.32"/><polygon class="cls-3" points="588.12 -311.42 523.22 -168.53 508.46 -52.81 536.13 109.99 596.08 -55.75 599.77 -226.39 588.88 -311.32 588.12 -311.42"/><polygon class="cls-3" points="596.41 -6.19 604.71 -45.94 547.52 110.97 556.15 133.19 581.58 64.83 596.41 -6.19"/><polygon class="cls-3" points="245.98 -303.61 268.58 -310.47 260 -237.25 258.63 -49.44 288.36 95.06 288.03 163.57 296.92 246.57 285.38 242.28 273.21 270.8 273.7 79.26 245.38 -49.44 226.35 -307.37 245.98 -303.61"/><polygon class="cls-3" points="624.09 -301.37 601.49 -308.23 610.06 -235.01 611.44 -47.2 581.7 97.31 582.03 165.81 573.14 248.81 584.68 244.53 596.85 273.04 596.36 81.5 624.68 -47.2 643.71 -305.13 624.09 -301.37"/></g></g></svg>