<svg xmlns="http://www.w3.org/2000/svg" xmlns:xlink="http://www.w3.org/1999/xlink" viewBox="0 0 875.43 877.94"><defs><style>.cls-1{fill:#f7f7f7;}.cls-2{fill:none;}.cls-3{clip-path:url(#clip-path);}.cls-4{fill:#d9dadb;}.cls-5{clip-path:url(#clip-path-2);}.cls-6{fill:#e0af12;}.cls-7{clip-path:url(#clip-path-3);}</style><clipPath id="clip-path"><circle class="cls-1" cx="-46.83" cy="1805.35" r="437.34"/></clipPath><clipPath id="clip-path-2"><circle class="cls-2" cx="437.71" cy="437.77" r="437.34"/></clipPath><clipPath id="clip-path-3"><circle class="cls-2" cx="-47.58" cy="-523.61" r="437.34"/></clipPath></defs><title>v</title><g id="Front_Abs" data-name="Front Abs"><circle class="cls-1" cx="-46.83" cy="1805.35" r="437.34"/><g class="cls-3"><polygon class="cls-4" points="37.69 970.23 37.69 918.47 10.39 871.41 -47.99 852.45 -106.31 871.41 -133.61 918.47 -133.61 970.23 -146.78 973.06 -141.14 1018.23 -119.49 1025.76 -95.96 1074.71 -47.73 1095.31 0.04 1074.71 23.57 1025.76 45.22 1018.23 50.87 973.06 37.69 970.23"/></g></g><g id="Mid_Back" data-name="Mid Back"><circle class="cls-1" cx="437.71" cy="437.77" r="437.34"/><g class="cls-5"><polygon class="cls-4" points="325.72 773.28 363.76 830.68 351.75 856.05 309.7 860.72 325.72 773.28"/><polygon class="cls-4" points="362.43 868.73 411.82 922.13 395.13 920.79 335.73 922.79 268.98 972.85 303.69 874.74 362.43 868.73"/><polygon class="cls-4" points="548.65 773.28 510.61 830.68 522.62 856.05 564.67 860.72 548.65 773.28"/><polygon class="cls-4" points="455.04 794.64 437.69 743.91 419 794.19 389.42 868.06 439.48 927.41 486.87 868.06 455.04 794.64"/><polygon class="cls-4" points="511.94 868.73 462.55 922.13 479.24 920.79 538.64 922.79 605.39 972.85 570.68 874.74 511.94 868.73"/><polygon class="cls-4" points="398.47 334.75 392.46 397.5 313.04 434.88 396.47 444.89 433.18 416.85 425.84 312.73 398.47 334.75"/><polygon class="cls-4" points="274.32 576.38 292.34 595.07 289.01 719.22 247.62 808.66 218.92 795.97 209.58 705.2 225.6 609.75 274.32 576.38"/><polygon class="cls-4" points="302.36 601.07 301.02 641.79 327.72 751.25 373.77 806.65 367.1 859.38 372.44 862.72 406.48 793.3 412.49 718.55 369.1 619.76 327.05 617.76 305.69 600.41 302.36 601.07"/><polygon class="cls-4" points="259.64 808.66 258.97 878.74 181.31 993.1 219.59 863.39 259.64 808.66"/><polygon class="cls-4" points="202.9 771.95 218.25 838.02 159.95 1021.58 148.68 1012.72 156.39 937.92 163.51 889.86 202.9 771.95"/><polygon class="cls-4" points="524.7 250.65 523.36 177.9 488.65 136.52 439.26 127.17 387.2 136.52 352.49 177.9 351.15 250.65 333.13 255.99 339.81 294.04 354.49 302.72 372.51 300.71 388.53 336.76 409.89 308.72 439.26 300.02 465.96 308.72 487.32 336.76 503.34 300.71 521.36 302.72 536.04 294.04 542.72 255.99 524.7 250.65"/><polygon class="cls-4" points="475.9 334.75 481.9 397.5 561.33 434.88 477.9 444.89 441.19 416.85 448.53 312.73 475.9 334.75"/><polygon class="cls-4" points="335.06 475.59 329.72 491.61 305.03 502.96 292.34 547.68 234.27 595.73 233.61 500.29 268.31 446.89 297.02 440.21 335.06 475.59"/><polygon class="cls-4" points="378.25 619.38 426.5 716.55 426.5 619.63 378.25 619.38"/><polygon class="cls-4" points="346.41 492.94 368.44 607.08 319.71 603.08 288.34 565.7 307.7 545.01 312.37 516.97 346.41 492.94"/><polygon class="cls-4" points="539.31 475.59 544.65 491.61 569.34 502.96 582.02 547.68 640.1 595.73 640.76 500.29 606.05 446.89 577.35 440.21 539.31 475.59"/><polygon class="cls-4" points="527.96 492.94 505.93 607.08 554.66 603.08 586.03 565.7 566.67 545.01 562 516.97 527.96 492.94"/><polygon class="cls-4" points="493.44 619.38 445.19 716.55 445.19 619.63 493.44 619.38"/><polygon class="cls-4" points="319.71 448.57 353.08 477.27 375.39 606.76 426.5 608.08 426.5 485.28 389.13 457.25 319.71 448.57"/><polygon class="cls-4" points="551.98 448.57 518.61 477.27 496.31 606.76 445.19 608.08 445.19 485.28 482.57 457.25 551.98 448.57"/><polygon class="cls-4" points="600.05 576.38 582.02 595.07 585.36 719.22 626.75 808.66 655.45 795.97 664.79 705.2 648.77 609.75 600.05 576.38"/><polygon class="cls-6" points="572.01 601.07 573.35 641.79 546.65 751.25 500.59 806.65 507.27 859.38 501.93 862.72 467.89 793.3 461.88 718.55 505.27 619.76 547.32 617.76 568.68 600.41 572.01 601.07"/><polygon class="cls-4" points="617.4 808.66 618.07 878.74 695.73 993.1 657.45 863.39 617.4 808.66"/><polygon class="cls-4" points="674.14 771.95 658.78 838.02 717.09 1021.58 728.36 1012.72 720.65 937.92 713.53 889.86 674.14 771.95"/></g><g class="cls-7"><polygon class="cls-4" points="26.65 -92.65 -22.75 -39.26 -6.06 -40.59 53.34 -38.59 120.09 11.47 85.38 -86.65 26.65 -92.65"/><polygon class="cls-4" points="262.41 38.84 250.68 66.81 216.4 72.22 213.69 122.74 231.74 194.91 243.47 194.01 232.08 145.97 244.25 145.63 263.31 196.71 277.75 194.91 259.82 143.26 272.33 140.9 296.69 195.81 314.73 194.01 289.93 136.84 298.5 131.76 329.17 180.48 344.5 178.67 298.5 91.17 303 83.95 346.31 101.99 349.01 92.07 313.83 60.49 262.41 38.84"/><polygon class="cls-4" points="132.11 -152.73 132.77 -82.64 210.44 31.72 172.15 -97.99 132.11 -152.73"/><polygon class="cls-4" points="188.84 -189.44 173.49 -123.36 231.79 60.2 243.06 51.33 235.35 -23.46 228.24 -71.52 188.84 -189.44"/><polygon class="cls-4" points="102.07 198.36 54.01 172.33 -20.08 153.64 -34.76 111.59 -33.43 4.13 -7.4 -31.25 39.99 -31.91 110.08 26.82 110.74 57.84 124.22 121.63 120.09 180 102.07 198.36"/><polygon class="cls-4" points="52.01 193.02 62.02 357.88 46 432.64 77.37 522.75 110.75 364.56 94.06 205.03 52.01 193.02"/><polygon class="cls-4" points="30.73 189.02 55.42 355.88 27.39 496.71 -10.66 576.14 -14.66 407.28 12.04 338.53 13.37 233.74 30.73 189.02"/><polygon class="cls-4" points="14.63 183.68 -6.06 238.41 -14.07 382.58 -36.76 243.75 -34.09 156.31 14.63 183.68"/><polygon class="cls-4" points="112.14 303.34 103.37 207.42 125.61 191.66 125.61 217.94 112.14 303.34"/><polygon class="cls-4" points="28.84 542.24 24.51 765.88 -13.9 809.25 -32.49 781.37 -33.73 721.28 -17 631.45 28.84 542.24"/><polygon class="cls-4" points="40.61 529.23 43.09 711.99 32.56 781.37 50.53 796.24 82.12 731.81 74.07 607.29 58.58 556.49 57.34 519.94 40.61 529.23"/><polygon class="cls-4" points="26.76 789.42 44.73 805.53 17.47 935.01 15.63 1013.52 -2.45 1008.41 -4.22 936.25 -17.23 844.56 -13.51 823.5 26.76 789.42"/><polygon class="cls-4" points="41.01 879.87 24.28 962.89 23.38 981.33 20.02 1014.64 34.99 1013.52 43.23 981.65 49.06 947.4 49.06 869.96 41.01 879.87"/></g></g></svg>