<svg xmlns="http://www.w3.org/2000/svg" xmlns:xlink="http://www.w3.org/1999/xlink" viewBox="0 0 875.43 877.94"><defs><style>.cls-1{fill:#f7f7f7;}.cls-2{clip-path:url(#clip-path);}.cls-3{fill:#d9dadb;}.cls-4{clip-path:url(#clip-path-2);}.cls-5{fill:#e0af12;}</style><clipPath id="clip-path"><circle class="cls-1" cx="-36.97" cy="-466.67" r="437.34"/></clipPath><clipPath id="clip-path-2"><circle class="cls-1" cx="437.71" cy="440.36" r="437.34"/></clipPath></defs><title>v</title><g id="Front_Abs" data-name="Front Abs"><circle class="cls-1" cx="-36.97" cy="-466.67" r="437.34"/><g class="cls-2"><polygon class="cls-3" points="219.02 -41.62 302.93 184.94 276.19 191.11 187.36 8.42 171.02 -93.7 219.02 -41.62"/><polygon class="cls-3" points="243.53 -129.45 231.27 -42.64 311.15 170.55 323.49 162.32 292.64 -2.2 243.53 -129.45"/><polygon class="cls-3" points="337.82 167.97 324.46 199.85 285.38 206.02 282.3 263.6 302.86 345.86 316.23 344.83 303.25 290.08 317.13 289.69 338.85 347.92 355.3 345.86 334.87 286.99 349.13 284.29 376.9 346.89 397.46 344.83 369.19 279.67 378.95 273.88 413.92 329.41 431.4 327.35 378.95 227.61 384.1 219.38 433.45 239.95 436.54 228.64 396.44 192.65 337.82 167.97"/><polygon class="cls-3" points="20.16 839.94 27.35 862.56 42.78 958.19 44.83 1085.69 23.24 1210.11 24.27 1050.73 1.65 986.98 -1.44 917.06 20.16 839.94"/><polygon class="cls-3" points="68.74 897.52 63.6 1088.78 26.6 1227.51 69.27 1214.48 141.75 954.08 116.04 785.44 68.74 897.52"/><polygon class="cls-3" points="98.3 700.1 101.39 727.86 79.79 754.59 72.6 796.75 58.2 802.92 45.86 739.17 37.64 716.55 44.83 702.15 98.3 700.1"/><polygon class="cls-3" points="2.67 702.15 18.1 745.34 51 809.09 42.78 867.7 19.13 801.89 -0.41 764.88 2.67 702.15"/><polygon class="cls-3" points="34.1 403.69 32.5 407.52 2.44 479.27 21.85 656.97 52.49 640.63 25.93 475.18 34.1 403.69"/><polygon class="cls-3" points="119.73 190.12 52.14 338.92 36.78 459.43 65.59 628.96 128.02 456.36 131.86 278.66 120.52 190.23 119.73 190.12"/><polygon class="cls-3" points="128.36 507.97 137.01 466.57 77.46 629.98 86.44 653.11 112.92 581.93 128.36 507.97"/><polygon class="cls-3" points="137.32 57.13 173.11 187.93 155.53 190.79 120.96 183.07 73.98 178.7 50.47 149.73 62.03 120.87 90.69 112.27 137.32 57.13"/><polygon class="cls-3" points="25.26 261.87 -6.39 343.44 -16.96 243.36 -10.71 227.46 25.26 261.87"/><polygon class="cls-3" points="70.68 185.41 108.91 188.79 41.24 322.29 -4.87 465.26 -0.06 366.2 70.68 185.41"/><polygon class="cls-3" points="-4.2 214.31 -4.75 213.62 -1.06 204.24 43.67 155.26 58.91 176.46 30.55 249.56 -4.2 214.31"/><polygon class="cls-3" points="157.18 200.59 133.65 193.44 142.58 269.69 144.01 465.26 113.05 615.75 113.39 687.09 104.13 773.52 116.15 769.05 128.83 798.74 128.31 599.29 157.8 465.26 177.63 196.67 157.18 200.59"/><polygon class="cls-3" points="54.61 -36.4 99.54 -70.1 103.44 -24.82 135.32 33.79 86.25 101.36 60.72 105.44 51.53 9.44 54.61 -36.4"/><polygon class="cls-3" points="-34.34 215.79 -19.32 69.78 -18.94 -25.28 35.19 -51.83 41.32 121.78 -34.34 215.79"/></g><circle class="cls-1" cx="437.71" cy="440.36" r="437.34"/><g class="cls-4"><polygon class="cls-3" points="376.34 322.82 413.61 379.28 432.04 444.16 389.1 409.92 371.87 348.69 376.34 322.82"/><polygon class="cls-3" points="358.47 363.96 367.66 406.86 313.54 420.13 278.81 407.88 358.47 363.96"/><polygon class="cls-5" points="323.75 435.45 280.86 512.05 233.88 535.54 262.47 558.01 284.94 623.37 337.02 644.81 420.02 603.8 399.32 442.6 323.75 435.45"/><path class="cls-3" d="M239.47,720.5a8.62,8.62,0,0,1,1.89-1.12l17-126.65-32.68-47-33.71,49L163.41,766.34l2.62,23C189.08,764.9,213.13,741.46,239.47,720.5Z"/><path class="cls-3" d="M170.24,807.4a8.11,8.11,0,0,1-2,1.54L172.6,847l60.26-64.34,5.57-41.49C214.2,761.66,191.82,784.13,170.24,807.4Z"/><polygon class="cls-3" points="176.69 865.41 92.78 1091.97 119.51 1098.14 208.34 915.45 224.69 813.32 176.69 865.41"/><polygon class="cls-3" points="152.18 777.58 164.43 864.38 84.55 1077.57 72.21 1069.35 103.06 904.82 152.18 777.58"/><polygon class="cls-3" points="175.66 586.6 160.34 750 150.13 628.47 175.66 586.6"/><polygon class="cls-3" points="533.56 192.12 533.56 132 501.86 77.35 434.06 55.34 366.33 77.35 334.64 132 334.64 192.12 319.33 195.39 325.89 247.86 351.03 256.6 378.36 313.44 434.36 337.37 489.84 313.44 517.17 256.6 542.3 247.86 548.86 195.39 533.56 192.12"/><polygon class="cls-3" points="511.92 363.96 502.72 406.86 556.85 420.13 591.57 407.88 511.92 363.96"/><polygon class="cls-3" points="546.64 435.45 589.53 512.05 636.51 535.54 607.91 558.01 585.45 623.37 533.36 644.81 450.37 603.8 471.06 442.6 546.64 435.45"/><path class="cls-3" d="M630.91,720.5a8.39,8.39,0,0,0-1.89-1.12L612,592.73l32.68-47,33.7,49L707,766.34l-2.63,23C681.31,764.9,657.26,741.46,630.91,720.5Z"/><path class="cls-3" d="M700.15,807.4a7.89,7.89,0,0,0,2,1.54L697.79,847l-60.26-64.34L632,741.19C656.19,761.66,678.57,784.13,700.15,807.4Z"/><polygon class="cls-3" points="693.7 865.41 777.61 1091.97 750.88 1098.14 662.04 915.45 645.7 813.32 693.7 865.41"/><polygon class="cls-3" points="718.21 777.58 705.96 864.38 785.84 1077.57 798.18 1069.35 767.33 904.82 718.21 777.58"/><polygon class="cls-3" points="694.72 586.6 710.04 750 720.25 628.47 694.72 586.6"/><path class="cls-3" d="M610.58,412.94l18.78-10.17,58.79,65,.32,24.77S611.71,413.51,610.58,412.94Z"/><path class="cls-3" d="M604.61,415.63c0,1.3,82.51,87.92,82.51,87.92l2.5,76.92-28.6-49L605.87,508l-38.81-71.49Z"/><path class="cls-3" d="M259.81,412.94,241,402.77l-58.8,65-.32,24.77S258.68,413.51,259.81,412.94Z"/><path class="cls-3" d="M265.78,415.63c0,1.3-82.52,87.92-82.52,87.92l-2.49,76.92,28.6-49L264.51,508l38.81-71.49Z"/><polygon class="cls-3" points="493.09 322.82 455.83 379.28 437.4 444.16 480.34 409.92 495.25 347.69 493.09 322.82"/><polygon class="cls-3" points="301.9 700.53 333.96 718.35 330.26 676.14 301.9 700.53"/><polygon class="cls-3" points="327.99 660.1 266.56 634.6 289.69 696.86 327.99 660.1"/><polygon class="cls-3" points="290.05 703 331.92 728.54 339.07 779.6 298.22 753.05 290.05 703"/><polygon class="cls-3" points="300.26 765.32 337.02 790.85 342.13 842.94 301.28 810.26 300.26 765.32"/><polygon class="cls-3" points="341.1 870.63 296.16 836.92 292.26 882.2 260.38 940.81 309.45 1008.38 334.98 1012.47 344.17 916.47 341.1 870.63"/><polygon class="cls-3" points="568.49 700.53 536.43 718.35 540.13 676.14 568.49 700.53"/><polygon class="cls-3" points="542.4 660.1 603.83 634.6 580.7 696.86 542.4 660.1"/><polygon class="cls-3" points="580.34 703 538.47 728.54 531.32 779.6 572.17 753.05 580.34 703"/><polygon class="cls-3" points="570.13 765.32 533.36 790.85 528.26 842.94 569.11 810.26 570.13 765.32"/><polygon class="cls-3" points="529.29 870.63 574.23 836.92 578.13 882.2 610 940.81 560.94 1008.38 535.4 1012.47 526.21 916.47 529.29 870.63"/><polygon class="cls-3" points="349.84 659.33 426.96 624.62 424.65 680.92 355.24 716.4 349.84 659.33"/><polygon class="cls-3" points="362.18 730.28 363.72 770.38 420.79 758.04 423.88 703.28 362.18 730.28"/><polygon class="cls-3" points="430.05 1122.82 415.02 976.81 414.64 881.75 360.51 855.19 354.39 1028.81 430.05 1122.82"/><polygon class="cls-3" points="366.04 789.66 365.26 839.01 420.02 853.67 420.79 776.55 366.04 789.66"/><polygon class="cls-3" points="520.55 659.33 443.43 624.62 445.74 680.92 515.15 716.4 520.55 659.33"/><polygon class="cls-3" points="508.21 730.28 506.67 770.38 449.6 758.04 446.51 703.28 508.21 730.28"/><polygon class="cls-3" points="440.34 1122.82 455.37 976.81 455.75 881.75 509.87 855.19 516 1028.81 440.34 1122.82"/><polygon class="cls-3" points="504.35 789.66 505.12 839.01 450.37 853.67 449.6 776.55 504.35 789.66"/></g></g></svg>