<svg xmlns="http://www.w3.org/2000/svg" xmlns:xlink="http://www.w3.org/1999/xlink" viewBox="0 0 874.68 874.68"><defs><style>.cls-1{fill:none;}.cls-2{clip-path:url(#clip-path);}.cls-3{fill:#d9dadb;}.cls-4{clip-path:url(#clip-path-2);}.cls-5{clip-path:url(#clip-path-3);}.cls-6{clip-path:url(#clip-path-4);}.cls-7{fill:#f7f7f7;}.cls-8{fill:#e0af12;}</style><clipPath id="clip-path"><circle class="cls-1" cx="-130.14" cy="3270.64" r="430.53"/></clipPath><clipPath id="clip-path-2"><circle class="cls-1" cx="829.03" cy="3270.64" r="437.34"/></clipPath><clipPath id="clip-path-3"><circle class="cls-1" cx="874.68" cy="1361.85" r="437.34"/></clipPath><clipPath id="clip-path-4"><circle class="cls-1" cx="437.34" cy="437.34" r="437.34"/></clipPath></defs><title>R Quad</title><g id="Front_Left_Ankle" data-name="Front Left Ankle"><g class="cls-2"><polygon class="cls-3" points="31.46 200.95 31.46 105.72 -18.75 19.15 -126.16 -15.72 -233.45 19.15 -283.66 105.72 -283.66 200.95 -307.9 206.15 -297.51 289.25 -257.69 303.11 -214.41 393.14 -125.68 431.04 -37.8 393.14 5.49 303.11 45.31 289.25 55.7 206.15 31.46 200.95"/><polygon class="cls-3" points="-2.83 473.18 -17.39 541.13 68.35 562.16 123.36 542.75 -2.83 473.18"/><polygon class="cls-3" points="52.17 586.43 120.12 707.76 194.54 744.97 149.24 780.56 113.65 884.1 31.14 918.08 -100.33 853.11 -67.55 597.75 52.17 586.43"/><path class="cls-3" d="M185.67,1038a13.15,13.15,0,0,0-3-1.76l-27-200.64,51.77-74.42,53.39,77.65,45.3,271.79L302,1147.08C265.5,1108.31,227.41,1071.18,185.67,1038Z"/><polygon class="cls-3" points="286.75 825.86 311.02 1084.71 327.2 892.19 286.75 825.86"/><path class="cls-3" d="M153.46,550.76l29.75-16.1,93.14,103,.51,39.23S155.25,551.67,153.46,550.76Z"/><path class="cls-3" d="M144,555c-.05,2.06,130.72,139.27,130.72,139.27l3.94,121.87L233.37,738.5,146,701.29,84.53,588.05Z"/></g></g><g id="Front_Right_Ankle" data-name="Front Right Ankle"><g class="cls-4"><polygon class="cls-3" points="739.42 355.3 799.39 446.17 829.04 550.57 759.95 495.47 732.22 396.93 739.42 355.3"/><polygon class="cls-3" points="710.66 421.52 725.45 490.54 638.35 511.91 582.48 492.19 710.66 421.52"/><polygon class="cls-3" points="654.78 536.56 585.76 659.81 510.17 697.61 556.18 733.76 592.34 838.94 676.15 873.45 809.7 807.45 776.39 548.06 654.78 536.56"/><path class="cls-3" d="M519.17,995.24a13.94,13.94,0,0,1,3.05-1.8l27.39-203.81L497,714l-54.23,78.88-46,276.09,4.22,37.06C438.09,1066.69,476.78,1029,519.17,995.24Z"/><polygon class="cls-3" points="416.5 779.77 391.85 1042.71 375.41 847.15 416.5 779.77"/><polygon class="cls-3" points="992.41 144.99 992.41 48.25 941.4 -39.69 832.3 -75.11 723.31 -39.69 672.31 48.25 672.31 144.99 647.68 150.26 658.24 234.69 698.69 248.76 742.66 340.21 832.78 378.72 922.05 340.21 966.02 248.76 1006.48 234.69 1017.03 150.26 992.41 144.99"/><polygon class="cls-3" points="1013.45 536.56 1082.47 659.81 1158.07 697.61 1112.05 733.76 1075.9 838.94 992.09 873.45 858.53 807.45 891.84 548.06 1013.45 536.56"/><path class="cls-3" d="M551.9,500.32,521.67,484l-94.6,104.66-.52,39.85S550.08,501.25,551.9,500.32Z"/><path class="cls-3" d="M561.51,504.66c0,2.08-132.79,141.47-132.79,141.47l-4,123.78,46-78.88,88.74-37.79,62.45-115Z"/><polygon class="cls-3" points="927.28 355.3 867.32 446.17 837.67 550.57 906.76 495.47 930.75 395.33 927.28 355.3"/><polygon class="cls-3" points="661.61 898.04 562.76 857.01 599.98 957.2 661.61 898.04"/><polygon class="cls-3" points="696.77 896.8 820.87 840.96 817.15 931.55 705.46 988.63 696.77 896.8"/><polygon class="cls-3" points="971.46 896.8 847.37 840.96 851.09 931.55 962.78 988.63 971.46 896.8"/></g></g><g id="Front_Abs" data-name="Front Abs"><g class="cls-5"><polygon class="cls-3" points="824.14 514.86 856.08 563.26 871.87 618.86 835.07 589.51 820.3 537.03 824.14 514.86"/><polygon class="cls-3" points="808.82 550.13 816.7 586.89 770.31 598.26 740.55 587.76 808.82 550.13"/><polygon class="cls-3" points="779.06 611.39 742.3 677.03 702.04 697.16 726.55 716.42 745.81 772.43 790.44 790.81 861.57 755.67 843.83 617.52 779.06 611.39"/><path class="cls-3" d="M706.84,855.68a7.19,7.19,0,0,1,1.62-1l14.59-108.54-28-40.26-28.88,42-24.5,147,2.24,19.74C663.66,893.73,684.26,873.64,706.84,855.68Z"/><path class="cls-3" d="M647.51,930.15a6.8,6.8,0,0,1-1.7,1.32l3.72,32.64L701.17,909,706,873.41C685.18,891,666,910.2,647.51,930.15Z"/><polygon class="cls-3" points="652.16 740.93 639.03 880.96 630.28 776.81 652.16 740.93"/><polygon class="cls-3" points="958.87 402.85 958.87 351.33 931.71 304.5 873.61 285.63 815.56 304.5 788.39 351.33 788.39 402.85 775.28 405.66 780.9 450.62 802.45 458.12 825.86 506.83 873.86 527.33 921.41 506.83 944.82 458.12 966.37 450.62 971.99 405.66 958.87 402.85"/><path class="cls-3" d="M724.27,592.1l-16.1-8.71-50.38,55.74-.28,21.22S723.3,592.59,724.27,592.1Z"/><path class="cls-3" d="M729.39,594.4c0,1.12-70.72,75.35-70.72,75.35l-2.14,65.92,24.51-42,47.26-20.13,33.26-61.26Z"/><polygon class="cls-3" points="760.34 838.57 787.82 853.83 784.64 817.66 760.34 838.57"/><polygon class="cls-3" points="782.7 803.91 730.05 782.06 749.87 835.42 782.7 803.91"/><polygon class="cls-3" points="750.18 840.68 786.07 862.56 792.19 906.32 757.18 883.57 750.18 840.68"/><polygon class="cls-3" points="801.42 803.25 867.52 773.51 865.53 821.76 806.05 852.16 801.42 803.25"/><polygon class="cls-3" points="812 864.05 813.32 898.42 862.23 887.85 864.87 840.92 812 864.05"/></g><g class="cls-6"><circle class="cls-7" cx="439.13" cy="436.98" r="437.34"/><path class="cls-3" d="M210.17,5.64A6.53,6.53,0,0,1,208.47,7l3.72,32.64,51.64-55.13,4.78-35.57C247.84-33.56,228.66-14.31,210.17,5.64Z"/><polygon class="cls-3" points="215.69 55.35 143.78 249.51 166.69 254.8 242.83 98.23 256.83 10.71 215.69 55.35"/><polygon class="cls-3" points="194.69 -19.92 205.19 54.47 136.73 237.17 126.16 230.12 152.59 89.13 194.69 -19.92"/><polygon class="cls-3" points="113.88 234.97 125.33 262.28 158.82 267.57 161.46 316.92 143.84 387.42 132.38 386.53 143.51 339.61 131.61 339.28 113 389.18 98.9 387.42 116.41 336.97 104.18 334.65 80.39 388.3 62.77 386.53 87 330.69 78.63 325.73 48.67 373.32 33.69 371.55 78.63 286.08 74.22 279.03 31.93 296.65 29.28 286.96 63.65 256.11 113.88 234.97"/><path class="cls-3" d="M664.3,5.64A6.66,6.66,0,0,0,666,7l-3.72,32.64L610.64-15.54l-4.78-35.57C626.62-33.56,645.8-14.31,664.3,5.64Z"/><polygon class="cls-3" points="658.77 55.35 730.68 249.51 707.77 254.8 631.64 98.23 617.64 10.71 658.77 55.35"/><polygon class="cls-3" points="679.78 -19.92 669.27 54.47 737.73 237.17 748.31 230.12 721.87 89.13 679.78 -19.92"/><polygon class="cls-3" points="760.59 234.97 749.13 262.28 715.65 267.57 713 316.92 730.63 387.42 742.08 386.53 730.96 339.61 742.86 339.28 761.47 389.18 775.57 387.42 758.06 336.97 770.28 334.65 794.08 388.3 811.7 386.53 787.47 330.69 795.84 325.73 825.8 373.32 840.78 371.55 795.84 286.08 800.24 279.03 842.54 296.65 845.19 286.96 810.82 256.11 760.59 234.97"/><polygon class="cls-3" points="386.12 810.84 379.95 830.22 366.73 912.18 364.97 1021.45 383.47 1128.07 382.59 991.49 401.98 936.85 404.62 876.93 386.12 810.84"/><polygon class="cls-3" points="488.35 810.84 494.52 830.22 507.74 912.18 509.5 1021.45 490.99 1128.07 491.87 991.49 472.49 936.85 469.84 876.93 488.35 810.84"/><polygon class="cls-3" points="343.82 860.18 348.23 1024.09 379.93 1142.98 343.36 1131.81 281.25 908.65 303.28 764.13 343.82 860.18"/><polygon class="cls-3" points="529.99 860.18 525.58 1024.09 493.88 1142.98 530.44 1131.81 592.55 908.65 570.52 764.13 529.99 860.18"/><polygon class="cls-3" points="319.14 690.99 316.5 714.78 335.01 737.7 341.18 773.83 353.51 779.11 364.09 724.48 371.14 705.09 364.97 692.75 319.14 690.99"/><polygon class="cls-3" points="401.1 692.75 387.88 729.77 359.68 784.4 366.73 834.63 387 778.23 403.74 746.51 401.1 692.75"/><polygon class="cls-3" points="555.32 690.99 557.97 714.78 539.46 737.7 533.29 773.83 520.95 779.11 510.38 724.48 503.33 705.09 509.5 692.75 555.32 690.99"/><polygon class="cls-3" points="473.37 692.75 486.59 729.77 514.79 784.4 507.74 834.63 487.47 778.23 470.73 746.51 473.37 692.75"/><polygon class="cls-8" points="300.44 251.95 358.37 379.46 371.54 482.74 346.84 628.03 293.34 480.12 290.05 327.83 299.77 252.04 300.44 251.95"/><polygon class="cls-8" points="293.05 524.34 285.64 488.87 336.67 628.9 328.97 648.73 306.29 587.72 293.05 524.34"/><polygon class="cls-8" points="374.16 436.98 375.54 440.26 401.3 501.75 384.67 654.03 358.41 640.03 381.17 498.25 374.16 436.98"/><polygon class="cls-3" points="500.3 436.98 498.93 440.26 473.17 501.75 489.8 654.03 516.06 640.03 493.3 498.25 500.3 436.98"/><polygon class="cls-3" points="573.69 253.95 515.76 381.46 502.59 484.74 527.29 630.03 580.79 482.12 584.08 329.83 574.36 254.04 573.69 253.95"/><polygon class="cls-3" points="581.08 526.34 588.49 490.87 537.46 630.9 545.16 650.73 567.85 589.72 581.08 526.34"/><polygon class="cls-3" points="285.37 137.97 254.7 250.07 269.76 252.52 299.39 245.91 339.66 242.16 359.8 217.33 349.9 192.6 325.33 185.23 285.37 137.97"/><polygon class="cls-3" points="588.76 139.97 619.43 252.07 604.37 254.52 574.74 247.91 534.47 244.16 514.33 219.33 524.23 194.6 548.8 187.23 588.76 139.97"/><polygon class="cls-3" points="342.48 247.91 309.72 250.81 367.71 365.21 407.22 487.74 403.11 402.85 342.48 247.91"/><polygon class="cls-3" points="406.65 272.68 407.12 272.09 403.96 264.05 365.62 222.07 352.57 240.24 376.88 302.89 406.65 272.68"/><polygon class="cls-3" points="381.75 315.43 408.87 385.34 417.92 299.57 412.57 285.95 381.75 315.43"/><polygon class="cls-3" points="492.72 315.43 465.6 385.34 456.54 299.57 461.9 285.95 492.72 315.43"/><polygon class="cls-3" points="531.65 249.91 564.41 252.81 506.42 367.21 466.91 489.74 471.02 404.85 531.65 249.91"/><polygon class="cls-3" points="467.48 274.68 467.01 274.09 470.17 266.05 508.51 224.07 521.56 242.24 497.25 304.89 467.48 274.68"/><polygon class="cls-3" points="268.35 260.92 288.52 254.8 280.86 320.14 279.64 487.74 306.17 616.7 305.88 677.84 313.81 751.91 303.51 748.09 292.65 773.53 293.09 602.6 267.82 487.74 250.83 257.56 268.35 260.92"/><polygon class="cls-3" points="605.78 262.92 585.61 256.8 593.27 322.14 594.49 489.74 567.96 618.7 568.25 679.84 560.32 753.91 570.62 750.09 581.48 775.53 581.04 604.6 606.31 489.74 623.3 259.56 605.78 262.92"/><polygon class="cls-3" points="321.6 -30.42 353.1 -8.54 357.48 36.09 322.47 8.09 321.6 -30.42"/><polygon class="cls-3" points="356.59 59.82 318.08 30.94 314.74 69.74 287.42 119.97 329.47 177.88 351.35 181.38 359.23 99.11 356.59 59.82"/><polygon class="cls-3" points="552.87 -30.42 521.36 -8.54 516.99 36.09 552 8.09 552.87 -30.42"/><polygon class="cls-3" points="517.88 59.82 556.38 30.94 559.73 69.74 587.05 119.97 544.99 177.88 523.11 181.38 515.24 99.11 517.88 59.82"/><polygon class="cls-3" points="432.82 275.95 419.94 150.82 419.62 69.35 373.23 46.6 367.98 195.38 432.82 275.95"/><polygon class="cls-3" points="377.96 -9.57 377.3 32.73 424.23 45.29 424.89 -20.8 377.96 -9.57"/><polygon class="cls-3" points="441.65 275.95 454.52 150.82 454.85 69.35 501.23 46.6 506.49 195.38 441.65 275.95"/><polygon class="cls-3" points="496.5 -9.57 497.16 32.73 450.24 45.29 449.58 -20.8 496.5 -9.57"/></g></g></svg>