<svg xmlns="http://www.w3.org/2000/svg" xmlns:xlink="http://www.w3.org/1999/xlink" viewBox="0 0 875.43 877.94"><defs><style>.cls-1{fill:none;}.cls-2{fill:#f7f7f7;}.cls-3{clip-path:url(#clip-path);}.cls-4{fill:#d9dadb;}.cls-5{fill:#e0af12;}.cls-6{clip-path:url(#clip-path-2);}</style><clipPath id="clip-path"><circle class="cls-1" cx="437.71" cy="438.79" r="437.34"/></clipPath><clipPath id="clip-path-2"><circle class="cls-1" cx="875.05" cy="-523.61" r="437.34"/></clipPath></defs><title>v</title><g id="Right_Shoulder" data-name="Right Shoulder"><circle class="cls-2" cx="437.71" cy="438.79" r="437.34"/><g class="cls-3"><polygon class="cls-4" points="325.72 774.3 363.76 831.7 351.75 857.07 309.7 861.74 325.72 774.3"/><polygon class="cls-4" points="362.43 869.75 411.82 923.14 395.13 921.81 335.73 923.81 268.98 973.87 303.69 875.75 362.43 869.75"/><polygon class="cls-4" points="548.65 774.3 510.61 831.7 522.62 857.07 564.67 861.74 548.65 774.3"/><polygon class="cls-4" points="455.04 795.66 437.69 744.93 419 795.21 389.42 869.08 439.48 928.43 486.87 869.08 455.04 795.66"/><polygon class="cls-4" points="511.94 869.75 462.55 923.14 479.24 921.81 538.64 923.81 605.39 973.87 570.68 875.75 511.94 869.75"/><polygon class="cls-4" points="398.47 335.77 392.46 398.52 313.04 435.89 396.47 445.91 433.18 417.87 425.84 313.75 398.47 335.77"/><polygon class="cls-4" points="274.32 577.4 292.34 596.09 289.01 720.24 247.62 809.68 218.92 796.99 209.58 706.22 225.6 610.77 274.32 577.4"/><polygon class="cls-4" points="302.36 602.09 301.02 642.81 327.72 752.27 373.77 807.67 367.1 860.4 372.44 863.74 406.48 794.32 412.49 719.57 369.1 620.78 327.05 618.78 305.69 601.43 302.36 602.09"/><polygon class="cls-4" points="259.64 809.68 258.97 879.76 181.31 994.12 219.59 864.41 259.64 809.68"/><polygon class="cls-4" points="202.9 772.97 218.25 839.04 159.95 1022.6 148.68 1013.74 156.39 938.94 163.51 890.88 202.9 772.97"/><polygon class="cls-4" points="524.7 251.67 523.36 178.92 488.65 137.54 439.26 128.19 387.2 137.54 352.49 178.92 351.15 251.67 333.13 257.01 339.81 295.06 354.49 303.74 372.51 301.73 388.53 337.78 409.89 309.74 439.26 301.04 465.96 309.74 487.32 337.78 503.34 301.73 521.36 303.74 536.04 295.06 542.72 257.01 524.7 251.67"/><polygon class="cls-4" points="475.9 335.77 481.9 398.52 561.33 435.89 477.9 445.91 441.19 417.87 448.53 313.75 475.9 335.77"/><polygon class="cls-4" points="335.06 476.61 329.72 492.63 305.03 503.98 292.34 548.7 234.27 596.75 233.61 501.31 268.31 447.91 297.02 441.24 335.06 476.61"/><polygon class="cls-4" points="378.25 620.4 426.5 717.57 426.5 620.65 378.25 620.4"/><polygon class="cls-4" points="346.41 493.96 368.44 608.1 319.71 604.1 288.34 566.72 307.7 546.03 312.37 517.99 346.41 493.96"/><polygon class="cls-5" points="539.31 476.61 544.65 492.63 569.34 503.98 582.02 548.7 640.1 596.75 640.76 501.31 606.05 447.91 577.35 441.24 539.31 476.61"/><polygon class="cls-5" points="527.96 493.96 505.93 608.1 554.66 604.1 586.03 566.72 566.67 546.03 562 517.99 527.96 493.96"/><polygon class="cls-4" points="493.44 620.4 445.19 717.57 445.19 620.65 493.44 620.4"/><polygon class="cls-4" points="319.71 449.59 353.08 478.29 375.39 607.78 426.5 609.1 426.5 486.3 389.13 458.27 319.71 449.59"/><polygon class="cls-4" points="551.98 449.59 518.61 478.29 496.31 607.78 445.19 609.1 445.19 486.3 482.57 458.27 551.98 449.59"/><polygon class="cls-4" points="600.05 577.4 582.02 596.09 585.36 720.24 626.75 809.68 655.45 796.99 664.79 706.22 648.77 610.77 600.05 577.4"/><polygon class="cls-4" points="572.01 602.09 573.35 642.81 546.65 752.27 500.59 807.67 507.27 860.4 501.93 863.74 467.89 794.32 461.88 719.57 505.27 620.78 547.32 618.78 568.68 601.43 572.01 602.09"/><polygon class="cls-4" points="617.4 809.68 618.07 879.76 695.73 994.12 657.45 864.41 617.4 809.68"/><polygon class="cls-4" points="674.14 772.97 658.78 839.04 717.09 1022.6 728.36 1013.74 720.65 938.94 713.53 890.88 674.14 772.97"/></g><g class="cls-6"><polygon class="cls-4" points="799.77 -92.65 849.16 -39.26 832.47 -40.59 773.07 -38.59 706.32 11.47 741.03 -86.65 799.77 -92.65"/><polygon class="cls-4" points="696.98 -152.73 696.31 -82.64 618.65 31.72 656.93 -97.99 696.98 -152.73"/><polygon class="cls-4" points="640.24 -189.44 655.59 -123.36 597.29 60.2 586.02 51.33 593.73 -23.46 600.85 -71.52 640.24 -189.44"/><polygon class="cls-4" points="566.67 38.84 578.4 66.81 612.68 72.22 615.39 122.74 597.35 194.91 585.62 194.01 597.01 145.97 584.83 145.63 565.77 196.71 551.34 194.91 569.27 143.26 556.75 140.9 532.39 195.81 514.35 194.01 539.16 136.84 530.59 131.76 499.92 180.48 484.58 178.67 530.59 91.17 526.08 83.95 482.78 101.99 480.07 92.07 515.25 60.49 566.67 38.84"/><polygon class="cls-4" points="724.34 198.36 772.4 172.33 846.49 153.64 861.17 111.59 859.84 4.13 833.81 -31.25 786.42 -31.91 716.33 26.82 715.67 57.84 702.2 121.63 706.32 180 724.34 198.36"/><polygon class="cls-4" points="774.4 193.02 764.39 357.88 780.41 432.64 749.04 522.75 715.67 364.56 732.35 205.03 774.4 193.02"/><polygon class="cls-4" points="811.78 183.68 832.47 238.41 840.48 382.58 863.18 243.75 860.51 156.31 811.78 183.68"/><polygon class="cls-4" points="796.43 189.02 771.73 355.88 799.77 496.71 837.81 576.14 841.82 407.28 815.12 338.53 813.78 233.74 796.43 189.02"/><polygon class="cls-4" points="715.67 303.34 724.44 207.42 702.2 191.66 702.2 217.94 715.67 303.34"/><polygon class="cls-4" points="799.11 542.24 803.45 765.88 841.86 809.25 860.45 781.37 861.68 721.28 844.96 631.45 799.11 542.24"/><polygon class="cls-4" points="787.34 529.23 784.87 711.99 795.4 781.37 777.43 796.24 745.84 731.81 753.89 607.29 769.38 556.49 770.62 519.94 787.34 529.23"/><polygon class="cls-4" points="800.35 789.42 782.39 805.53 809.65 935.01 811.49 1013.52 829.57 1008.41 831.33 936.25 844.34 844.56 840.62 823.5 800.35 789.42"/><polygon class="cls-4" points="786.1 879.87 802.83 962.89 803.73 981.33 807.1 1014.64 792.13 1013.52 783.88 981.65 778.05 947.4 778.05 869.96 786.1 879.87"/></g></g></svg>