<svg xmlns="http://www.w3.org/2000/svg" xmlns:xlink="http://www.w3.org/1999/xlink" viewBox="0 0 874.68 874.68"><defs><style>.cls-1{fill:none;}.cls-2{clip-path:url(#clip-path);}.cls-3{fill:#d9dadb;}.cls-4{clip-path:url(#clip-path-2);}.cls-5{fill:#f7f7f7;}.cls-6{fill:#e0af12;}</style><clipPath id="clip-path"><circle class="cls-1" cx="920.8" cy="1380.49" r="437.34"/></clipPath><clipPath id="clip-path-2"><circle class="cls-1" cx="437.34" cy="437.34" r="437.34"/></clipPath></defs><title>R Shin</title><g id="Front_Left_Shin" data-name="Front Left Shin"><g class="cls-2"><polygon class="cls-3" points="814.83 -74.27 773.64 -0.72 728.53 21.84 755.99 43.41 777.56 106.18 827.58 126.77 907.28 87.39 887.4 -67.41 814.83 -74.27"/><path class="cls-3" d="M733.9,199.45a8.75,8.75,0,0,1,1.82-1.07L752.07,76.76,720.68,31.64,688.32,78.72,660.86,243.48l2.52,22.11C685.51,242.09,708.6,219.58,733.9,199.45Z"/><path class="cls-3" d="M667.42,282.91a7.67,7.67,0,0,1-1.9,1.47L669.69,321l57.86-61.78,5.35-39.85C709.63,239,688.14,260.55,667.42,282.91Z"/><polygon class="cls-3" points="673.61 338.61 593.03 556.17 618.7 562.1 704.01 386.66 719.7 288.59 673.61 338.61"/><polygon class="cls-3" points="650.07 254.27 661.84 337.63 585.13 542.35 573.28 534.45 602.9 376.46 650.07 254.27"/><polygon class="cls-3" points="672.63 70.87 657.92 227.79 648.11 111.08 672.63 70.87"/><polygon class="cls-3" points="559.52 539.88 572.36 570.49 609.88 576.41 612.84 631.71 593.09 710.7 580.26 709.71 592.72 657.13 579.39 656.76 558.53 712.67 542.73 710.7 562.36 654.17 548.66 651.58 522 711.69 502.25 709.71 529.4 647.13 520.02 641.58 486.45 694.9 469.66 692.93 520.02 597.15 515.09 589.25 467.69 609 464.73 598.13 503.24 563.57 559.52 539.88"/><path class="cls-3" d="M759.17-93.31c0,1.25-79.25,84.42-79.25,84.42L677.53,65,705,17.91,758-4.64l37.27-68.65Z"/><polygon class="cls-3" points="768.57 558.9 833.48 701.79 848.24 817.52 820.57 980.31 760.61 814.57 756.92 643.93 767.82 559.01 768.57 558.9"/><polygon class="cls-3" points="760.29 864.13 751.98 824.38 809.17 981.29 800.54 1003.51 775.12 935.15 760.29 864.13"/><polygon class="cls-3" points="851.18 766.24 852.72 769.91 881.58 838.81 862.95 1009.46 833.53 993.76 859.02 834.89 851.18 766.24"/><polygon class="cls-3" points="751.68 431.19 717.31 556.8 734.2 559.55 767.39 552.14 812.51 547.93 835.09 520.12 823.99 492.4 796.46 484.14 751.68 431.19"/><polygon class="cls-3" points="815.68 554.38 778.97 557.63 843.95 685.82 888.22 823.12 883.61 727.99 815.68 554.38"/><polygon class="cls-3" points="887.59 582.13 888.11 581.47 884.57 572.47 841.61 525.43 826.98 545.79 854.22 615.98 887.59 582.13"/><polygon class="cls-3" points="859.67 630.04 890.07 708.38 900.22 612.27 894.22 597 859.67 630.04"/><polygon class="cls-3" points="732.61 568.96 755.21 562.1 746.63 635.31 745.26 823.12 774.99 967.63 774.66 1036.13 783.55 1119.14 772.01 1114.85 759.84 1143.36 760.33 951.82 732.02 823.12 712.98 565.19 732.61 568.96"/><polygon class="cls-3" points="793.85 180.28 824.64 197.38 821.08 156.85 793.85 180.28"/><polygon class="cls-3" points="818.9 141.45 759.91 116.97 782.12 176.75 818.9 141.45"/><polygon class="cls-3" points="782.47 182.65 822.68 207.17 829.54 256.21 790.31 230.71 782.47 182.65"/><polygon class="cls-3" points="792.27 242.5 827.58 267.01 832.48 317.03 793.26 285.65 792.27 242.5"/><polygon class="cls-3" points="831.49 343.62 788.34 311.25 784.59 354.74 753.98 411.02 801.1 475.91 825.62 479.83 834.45 387.64 831.49 343.62"/><polygon class="cls-3" points="839.89 140.71 913.95 107.39 911.72 161.45 845.07 195.51 839.89 140.71"/><polygon class="cls-3" points="851.74 208.84 853.22 247.35 908.02 235.5 910.98 182.92 851.74 208.84"/><polygon class="cls-3" points="916.91 585.79 902.48 445.58 902.12 354.3 850.14 328.8 844.25 495.52 916.91 585.79"/><polygon class="cls-3" points="855.44 265.87 854.7 313.26 907.28 327.33 908.02 253.28 855.44 265.87"/></g><g class="cls-4"><circle class="cls-5" cx="437.34" cy="437.34" r="437.34"/><polygon class="cls-3" points="381.11 242.01 374.2 263.73 359.39 355.56 357.42 478 378.15 597.48 377.16 444.43 398.89 383.21 401.85 316.07 381.11 242.01"/><polygon class="cls-3" points="495.67 242.01 502.58 263.73 517.39 355.56 519.37 478 498.63 597.48 499.62 444.43 477.89 383.21 474.93 316.07 495.67 242.01"/><polygon class="cls-3" points="404.47 665.21 401.85 737.7 394.94 766.33 374.2 766.33 368.28 746.59 361.37 745.6 362.85 765.35 336.68 757.45 329.77 753.5 300.14 747.08 299.16 723.87 327.79 675.49 342.98 656.51 375.2 674.84 404.47 665.21"/><polygon class="cls-3" points="471.57 665.21 474.19 737.7 481.1 766.33 501.84 766.33 507.76 746.59 514.67 745.6 513.19 765.35 539.36 757.45 546.27 753.5 575.9 747.08 576.88 723.87 548.25 675.49 533.06 656.51 500.84 674.84 471.57 665.21"/><polygon class="cls-3" points="335.24 611.2 334.12 622.63 347.23 648.28 374.56 666.13 402.63 656.93 393.8 630.19 335.24 611.2"/><polygon class="cls-3" points="540.8 611.2 541.92 622.63 528.81 648.28 501.49 666.13 473.41 656.93 482.24 630.19 540.8 611.2"/><polygon class="cls-6" points="333.72 297.3 338.65 480.97 374.18 614.19 333.2 601.67 263.61 351.61 288.3 189.67 333.72 297.3"/><polygon class="cls-3" points="542.32 297.3 537.39 480.97 501.86 614.19 542.84 601.67 612.43 351.61 587.75 189.67 542.32 297.3"/><polygon class="cls-3" points="306.07 107.72 303.11 134.38 323.84 160.05 330.75 200.54 344.58 206.46 356.43 145.24 364.33 123.52 357.42 109.69 306.07 107.72"/><polygon class="cls-3" points="397.9 109.69 383.09 151.16 351.49 212.38 359.39 268.67 382.1 205.47 400.86 169.93 397.9 109.69"/><polygon class="cls-3" points="570.71 107.72 573.67 134.38 552.94 160.05 546.03 200.54 532.2 206.46 520.35 145.24 512.46 123.52 519.37 109.69 570.71 107.72"/><polygon class="cls-3" points="478.88 109.69 493.69 151.16 525.29 212.38 517.39 268.67 494.68 205.47 475.92 169.93 478.88 109.69"/><polygon class="cls-3" points="285.11 -384.25 350.02 -241.36 364.77 -125.64 337.11 37.16 277.15 -128.58 273.46 -299.22 284.36 -384.15 285.11 -384.25"/><polygon class="cls-3" points="276.82 -79.02 268.52 -118.77 325.71 38.14 317.08 60.36 291.66 -8 276.82 -79.02"/><polygon class="cls-3" points="367.72 -176.91 369.26 -173.24 398.12 -104.34 379.49 66.3 350.07 50.61 375.56 -108.26 367.72 -176.91"/><polygon class="cls-3" points="509.06 -176.91 507.52 -173.24 478.66 -104.34 497.3 66.3 526.72 50.61 501.22 -108.26 509.06 -176.91"/><polygon class="cls-3" points="591.29 -382.01 526.39 -239.12 511.63 -123.4 539.3 39.4 599.25 -126.34 602.94 -296.98 592.05 -381.9 591.29 -382.01"/><polygon class="cls-3" points="599.58 -76.78 607.88 -116.53 550.7 40.38 559.32 62.6 584.75 -5.76 599.58 -76.78"/><polygon class="cls-3" points="249.15 -374.19 271.75 -381.06 263.17 -307.84 261.8 -120.03 291.53 24.48 291.2 92.98 300.09 175.98 288.55 171.69 276.38 200.21 276.87 8.67 248.56 -120.03 229.52 -377.96 249.15 -374.19"/><polygon class="cls-3" points="627.26 -371.95 604.66 -378.81 613.23 -305.6 614.61 -117.79 584.87 26.72 585.2 95.22 576.31 178.22 587.85 173.94 600.02 202.45 599.53 10.91 627.85 -117.79 646.89 -375.72 627.26 -371.95"/></g></g></svg>