<svg xmlns="http://www.w3.org/2000/svg" xmlns:xlink="http://www.w3.org/1999/xlink" viewBox="0 0 874.68 874.68"><defs><style>.cls-1{fill:none;}.cls-2{clip-path:url(#clip-path);}.cls-3{fill:#f7f7f7;}.cls-4{fill:#d9dadb;}.cls-5{fill:#e0af12;}</style><clipPath id="clip-path"><circle class="cls-1" cx="437.34" cy="437.34" r="437.34"/></clipPath></defs><title>Both Shin</title><g id="Front_Left_Shin" data-name="Front Left Shin"><g class="cls-2"><circle class="cls-3" cx="437.34" cy="437.34" r="437.34"/><polygon class="cls-4" points="381.11 242.01 374.2 263.73 359.39 355.56 357.42 478 378.15 597.48 377.16 444.43 398.89 383.21 401.85 316.07 381.11 242.01"/><polygon class="cls-4" points="495.67 242.01 502.58 263.73 517.39 355.56 519.37 478 498.63 597.48 499.62 444.43 477.89 383.21 474.93 316.07 495.67 242.01"/><polygon class="cls-4" points="404.47 665.21 401.85 737.7 394.94 766.33 374.2 766.33 368.28 746.59 361.37 745.6 362.85 765.35 336.68 757.45 329.77 753.5 300.14 747.08 299.16 723.87 327.79 675.49 342.98 656.51 375.2 674.84 404.47 665.21"/><polygon class="cls-4" points="471.57 665.21 474.19 737.7 481.1 766.33 501.84 766.33 507.76 746.59 514.67 745.6 513.19 765.35 539.36 757.45 546.27 753.5 575.9 747.08 576.88 723.87 548.25 675.49 533.06 656.51 500.84 674.84 471.57 665.21"/><polygon class="cls-4" points="335.24 611.2 334.12 622.63 347.23 648.28 374.56 666.13 402.63 656.93 393.8 630.19 335.24 611.2"/><polygon class="cls-4" points="540.8 611.2 541.92 622.63 528.81 648.28 501.49 666.13 473.41 656.93 482.24 630.19 540.8 611.2"/><polygon class="cls-5" points="333.72 297.3 338.65 480.97 374.18 614.19 333.2 601.67 263.61 351.61 288.3 189.67 333.72 297.3"/><polygon class="cls-5" points="542.32 297.3 537.39 480.97 501.86 614.19 542.84 601.67 612.43 351.61 587.75 189.67 542.32 297.3"/><polygon class="cls-4" points="306.07 107.72 303.11 134.38 323.84 160.05 330.75 200.54 344.58 206.46 356.43 145.24 364.33 123.52 357.42 109.69 306.07 107.72"/><polygon class="cls-4" points="397.9 109.69 383.09 151.16 351.49 212.38 359.39 268.67 382.1 205.47 400.86 169.93 397.9 109.69"/><polygon class="cls-4" points="570.71 107.72 573.67 134.38 552.94 160.05 546.03 200.54 532.2 206.46 520.35 145.24 512.46 123.52 519.37 109.69 570.71 107.72"/><polygon class="cls-4" points="478.88 109.69 493.69 151.16 525.29 212.38 517.39 268.67 494.68 205.47 475.92 169.93 478.88 109.69"/><polygon class="cls-4" points="285.11 -384.25 350.02 -241.36 364.77 -125.64 337.11 37.16 277.15 -128.58 273.46 -299.22 284.36 -384.15 285.11 -384.25"/><polygon class="cls-4" points="276.82 -79.02 268.52 -118.77 325.71 38.14 317.08 60.36 291.66 -8 276.82 -79.02"/><polygon class="cls-4" points="367.72 -176.91 369.26 -173.24 398.12 -104.34 379.49 66.3 350.07 50.61 375.56 -108.26 367.72 -176.91"/><polygon class="cls-4" points="509.06 -176.91 507.52 -173.24 478.66 -104.34 497.3 66.3 526.72 50.61 501.22 -108.26 509.06 -176.91"/><polygon class="cls-4" points="591.29 -382.01 526.39 -239.12 511.63 -123.4 539.3 39.4 599.25 -126.34 602.94 -296.98 592.05 -381.9 591.29 -382.01"/><polygon class="cls-4" points="599.58 -76.78 607.88 -116.53 550.7 40.38 559.32 62.6 584.75 -5.76 599.58 -76.78"/><polygon class="cls-4" points="249.15 -374.19 271.75 -381.06 263.17 -307.84 261.8 -120.03 291.53 24.48 291.2 92.98 300.09 175.98 288.55 171.69 276.38 200.21 276.87 8.67 248.56 -120.03 229.52 -377.96 249.15 -374.19"/><polygon class="cls-4" points="627.26 -371.95 604.66 -378.81 613.23 -305.6 614.61 -117.79 584.87 26.72 585.2 95.22 576.31 178.22 587.85 173.94 600.02 202.45 599.53 10.91 627.85 -117.79 646.89 -375.72 627.26 -371.95"/></g></g></svg>