<?xml version="1.0" encoding="iso-8859-1"?>
<!-- Generator: Adobe Illustrator 22.0.1, SVG Export Plug-In . SVG Version: 6.00 Build 0)  -->
<svg version="1.1" xmlns="http://www.w3.org/2000/svg" xmlns:xlink="http://www.w3.org/1999/xlink" x="0px" y="0px"
	 viewBox="0 0 875.427 877.828" style="enable-background:new 0 0 875.427 877.828;" xml:space="preserve">
<g id="Upper_Back">
	<circle style="fill:#F7F7F7;" cx="437.713" cy="438.914" r="437.339"/>
	<g>
		<defs>
			<circle id="SVGID_1_" cx="437.713" cy="438.914" r="437.339"/>
		</defs>
		<clipPath id="SVGID_2_">
			<use xlink:href="#SVGID_1_"  style="overflow:visible;"/>
		</clipPath>
		<g style="clip-path:url(#SVGID_2_);">
			<g>
				<polygon style="fill:#D9DADB;" points="325.717,774.426 363.763,831.828 351.748,857.192 309.698,861.864 				"/>
				<polygon style="fill:#D9DADB;" points="362.428,869.873 411.82,923.271 395.134,921.936 335.729,923.938 268.983,973.998 
					303.691,875.88 				"/>
				<polygon style="fill:#D9DADB;" points="548.652,774.426 510.606,831.828 522.621,857.192 564.671,861.864 				"/>
				<polygon style="fill:#D9DADB;" points="455.044,795.785 437.69,745.057 419.001,795.34 389.424,869.206 439.484,928.555 
					486.874,869.206 				"/>
				<polygon style="fill:#D9DADB;" points="511.941,869.873 462.549,923.271 479.235,921.936 538.64,923.938 605.386,973.998 
					570.678,875.88 				"/>
			</g>
			<g>
				<g>
					<polygon style="fill:#E0AF12;" points="398.471,335.901 392.464,398.642 313.035,436.02 396.469,446.032 433.179,417.999 
						425.837,313.874 					"/>
					<polygon style="fill:#D9DADB;" points="274.322,577.523 292.344,596.212 289.007,720.361 247.624,809.801 218.923,797.12 
						209.578,706.344 225.597,610.896 					"/>
					<polygon style="fill:#D9DADB;" points="302.356,602.219 301.021,642.935 327.72,752.399 373.775,807.799 367.1,860.529 
						372.44,863.866 406.481,794.45 412.488,719.693 369.103,620.909 327.052,618.906 305.693,601.552 					"/>
					<polygon style="fill:#D9DADB;" points="259.638,809.801 258.971,879.885 181.308,994.245 219.59,864.534 					"/>
					<polygon style="fill:#D9DADB;" points="202.904,773.091 218.255,839.17 159.949,1022.723 148.679,1013.862 156.389,939.067 
						163.509,891.01 					"/>
					<polygon style="fill:#D9DADB;" points="524.696,251.8 523.361,179.046 488.653,137.663 439.261,128.319 387.198,137.663 
						352.49,179.046 351.155,251.8 333.133,257.14 339.808,295.185 354.492,303.862 372.514,301.86 388.533,337.903 
						409.892,309.869 439.261,301.165 465.959,309.869 487.318,337.903 503.337,301.86 521.359,303.862 536.043,295.185 
						542.718,257.14 					"/>
					<polygon style="fill:#E0AF12;" points="475.898,335.901 481.905,398.642 561.333,436.02 477.9,446.032 441.19,417.999 
						448.532,313.874 					"/>
					<g>
						<polygon style="fill:#D9DADB;" points="335.062,476.736 329.722,492.755 305.026,504.102 292.344,548.822 234.274,596.88 
							233.607,501.432 268.315,448.035 297.016,441.36 						"/>
						<polygon style="fill:#D9DADB;" points="378.25,620.53 426.505,717.691 426.505,620.781 						"/>
						<polygon style="fill:#D9DADB;" points="346.409,494.09 368.435,608.227 319.71,604.222 288.339,566.844 307.696,546.152 
							312.368,518.119 						"/>
						<polygon style="fill:#D9DADB;" points="539.307,476.736 544.647,492.755 569.343,504.102 582.025,548.822 640.095,596.88 
							640.762,501.432 606.054,448.035 577.353,441.36 						"/>
						<polygon style="fill:#D9DADB;" points="527.96,494.09 505.934,608.227 554.659,604.222 586.03,566.844 566.673,546.152 
							562.001,518.119 						"/>
						<polygon style="fill:#D9DADB;" points="493.444,620.53 445.19,717.691 445.19,620.781 						"/>
						<polygon style="fill:#E0AF12;" points="319.71,449.717 353.083,478.419 375.388,607.907 426.505,609.227 426.505,486.428 
							389.127,458.395 						"/>
						<polygon style="fill:#E0AF12;" points="551.984,449.717 518.611,478.419 496.307,607.907 445.19,609.227 445.19,486.428 
							482.568,458.395 						"/>
					</g>
					<polygon style="fill:#D9DADB;" points="600.047,577.523 582.025,596.212 585.362,720.361 626.745,809.801 655.446,797.12 
						664.791,706.344 648.772,610.896 					"/>
					<polygon style="fill:#D9DADB;" points="572.013,602.219 573.348,642.935 546.649,752.399 500.594,807.799 507.269,860.529 
						501.929,863.866 467.888,794.45 461.881,719.693 505.266,620.909 547.317,618.906 568.676,601.552 					"/>
					<polygon style="fill:#D9DADB;" points="129.334,1001.37 141.062,1029.335 175.343,1034.748 178.049,1085.267 160.007,1157.437 
						148.279,1156.535 159.668,1108.497 147.49,1108.159 128.432,1159.242 113.998,1157.437 131.928,1105.791 119.411,1103.422 
						95.054,1158.339 77.011,1156.535 101.82,1099.363 93.249,1094.288 62.577,1143.003 47.241,1141.199 93.249,1053.693 
						88.739,1046.476 45.437,1064.518 42.73,1054.595 77.913,1023.021 					"/>
					<polygon style="fill:#D9DADB;" points="747.705,1001.37 735.977,1029.335 701.696,1034.748 698.99,1085.267 717.032,1157.437 
						728.76,1156.535 717.371,1108.497 729.549,1108.159 748.607,1159.242 763.041,1157.437 745.111,1105.791 757.628,1103.422 
						781.986,1158.339 800.028,1156.535 775.22,1099.363 783.79,1094.288 814.462,1143.003 829.798,1141.199 783.79,1053.693 
						788.3,1046.476 831.602,1064.518 834.309,1054.595 799.126,1023.021 					"/>
					<polygon style="fill:#D9DADB;" points="617.401,809.801 618.068,879.885 695.731,994.245 657.449,864.534 					"/>
					<polygon style="fill:#D9DADB;" points="674.135,773.091 658.784,839.17 717.09,1022.723 728.36,1013.862 720.65,939.067 
						713.53,891.01 					"/>
					<polygon style="fill:#D9DADB;" points="529.744,2012.949 513.224,2026.991 515.702,2049.294 549.268,2005.961 
						544.905,2000.821 					"/>
					<polygon style="fill:#D9DADB;" points="544.248,1998.425 522.684,1991.202 515.182,2007.289 511.283,2022.855 512.648,2024.63 
											"/>
					<polygon style="fill:#D9DADB;" points="489.309,2023.254 489.309,2020.672 487.676,2013.272 477.709,2021.26 476.144,2030.59 
						477.298,2041.473 					"/>
					<polygon style="fill:#D9DADB;" points="345.737,2012.196 362.257,2026.239 359.779,2048.541 326.213,2005.208 
						330.577,2000.068 					"/>
					<polygon style="fill:#D9DADB;" points="331.233,1997.672 352.797,1990.449 360.299,2006.536 364.198,2022.103 
						362.834,2023.877 					"/>
					<polygon style="fill:#D9DADB;" points="386.172,2022.501 386.172,2019.919 387.805,2012.519 397.773,2020.507 
						399.337,2029.837 398.183,2040.72 					"/>
				</g>
				<polygon style="fill:#D9DADB;" points="287.004,1160.889 335.062,1134.857 409.151,1116.168 423.835,1074.118 422.5,966.656 
					396.469,931.28 349.079,930.613 278.995,989.35 278.327,1020.366 264.857,1084.16 268.983,1142.533 				"/>
				<polygon style="fill:#D9DADB;" points="587.362,1160.889 539.305,1134.857 465.216,1116.168 450.532,1074.118 451.867,966.656 
					477.898,931.28 525.288,930.613 595.372,989.35 596.039,1020.366 609.51,1084.16 605.384,1142.533 				"/>
				<polygon style="fill:#D9DADB;" points="337.064,1155.549 327.052,1320.413 343.071,1395.169 311.7,1485.277 278.327,1327.088 
					295.014,1167.563 				"/>
				<polygon style="fill:#D9DADB;" points="374.442,1146.204 395.134,1200.936 403.143,1345.109 425.837,1206.276 423.167,1118.838 
									"/>
				<polygon style="fill:#D9DADB;" points="359.09,1151.544 334.394,1318.41 362.427,1459.243 400.473,1538.671 404.478,1369.805 
					377.779,1301.056 376.444,1196.264 				"/>
				<polygon style="fill:#D9DADB;" points="278.327,1265.872 287.102,1169.951 264.857,1154.187 264.857,1180.464 				"/>
				<polygon style="fill:#D9DADB;" points="537.305,1155.549 547.317,1320.413 531.297,1395.169 562.668,1485.277 596.042,1327.088 
					579.355,1167.563 				"/>
				<polygon style="fill:#D9DADB;" points="516.02,1151.544 540.716,1318.41 512.683,1459.243 474.637,1538.671 470.632,1369.805 
					497.331,1301.056 498.666,1196.264 				"/>
				<polygon style="fill:#D9DADB;" points="499.927,1146.204 479.235,1200.936 471.226,1345.109 448.532,1206.276 451.202,1118.838 
									"/>
				<polygon style="fill:#D9DADB;" points="597.439,1265.872 588.664,1169.951 610.91,1154.187 610.91,1180.464 				"/>
				<polygon style="fill:#D9DADB;" points="364.102,2049.733 397.771,2047.542 382.604,2023.579 391.782,1976.053 371.76,1982.505 
					354.788,1980.806 367.742,2026.604 				"/>
				<polygon style="fill:#D9DADB;" points="510.967,2049.733 477.298,2047.542 492.465,2023.579 483.287,1976.053 503.309,1982.505 
					520.281,1980.806 507.327,2026.604 				"/>
				<polygon style="fill:#D9DADB;" points="361.775,1504.766 366.112,1728.411 404.522,1771.777 423.107,1743.899 424.346,1683.806 
					407.619,1593.976 				"/>
				<polygon style="fill:#D9DADB;" points="350.004,1491.756 347.526,1674.513 358.058,1743.899 340.092,1758.767 308.497,1694.338 
					316.551,1569.815 332.038,1519.015 333.278,1482.464 				"/>
				<polygon style="fill:#D9DADB;" points="363.014,1751.953 345.048,1768.06 372.307,1897.539 374.146,1976.053 392.227,1970.936 
					393.99,1898.778 407,1807.089 403.283,1786.026 				"/>
				<polygon style="fill:#D9DADB;" points="348.765,1842.402 365.492,1925.417 366.395,1943.856 369.757,1977.165 354.788,1976.053 
					346.542,1944.182 340.712,1909.929 340.712,1832.49 				"/>
				<polygon style="fill:#D9DADB;" points="514.138,1504.766 509.801,1728.411 471.392,1771.777 452.806,1743.899 451.567,1683.806 
					468.294,1593.976 				"/>
				<polygon style="fill:#D9DADB;" points="525.909,1491.756 528.387,1674.513 517.855,1743.899 535.821,1758.767 567.416,1694.338 
					559.363,1569.815 543.875,1519.015 542.636,1482.464 				"/>
				<polygon style="fill:#D9DADB;" points="512.055,1751.953 530.021,1768.06 502.762,1897.539 500.923,1976.053 482.842,1970.936 
					481.079,1898.778 468.069,1807.089 471.786,1786.026 				"/>
				<polygon style="fill:#D9DADB;" points="526.304,1842.402 509.577,1925.417 508.674,1943.856 505.312,1977.165 520.281,1976.053 
					528.527,1944.182 534.357,1909.929 534.357,1832.49 				"/>
			</g>
		</g>
	</g>
</g>
<g id="Layer_1">
</g>
</svg>
