<svg xmlns="http://www.w3.org/2000/svg" xmlns:xlink="http://www.w3.org/1999/xlink" viewBox="0 0 875.43 877.94"><defs><style>.cls-1{fill:#f7f7f7;}.cls-2{fill:none;}.cls-3{clip-path:url(#clip-path);}.cls-4{fill:#d9dadb;}.cls-5{fill:#e0af12;}.cls-6{clip-path:url(#clip-path-2);}.cls-7{clip-path:url(#clip-path-3);}.cls-8{clip-path:url(#clip-path-4);}.cls-9{clip-path:url(#clip-path-5);}</style><clipPath id="clip-path"><circle class="cls-1" cx="437.71" cy="441.49" r="437.34"/></clipPath><clipPath id="clip-path-2"><circle class="cls-1" cx="-0.75" cy="1346.5" r="437.34"/></clipPath><clipPath id="clip-path-3"><circle class="cls-1" cx="922.26" cy="1346.5" r="437.34"/></clipPath><clipPath id="clip-path-4"><circle class="cls-2" cy="-926.09" r="437.34"/></clipPath><clipPath id="clip-path-5"><circle class="cls-2" cx="922.26" cy="-926.09" r="437.34"/></clipPath></defs><title>v</title><g id="Front_Abs" data-name="Front Abs"><circle class="cls-1" cx="437.71" cy="441.49" r="437.34"/><g class="cls-3"><path class="cls-4" d="M269,61.38a7.24,7.24,0,0,1,1.63-1L285.28-48.65,257.14-89.1l-29,42.21L203.49,100.85l2.26,19.83C225.6,99.61,246.3,79.42,269,61.38Z"/><path class="cls-4" d="M209.37,136.21a6.8,6.8,0,0,1-1.7,1.32l3.74,32.8,51.88-55.41,4.81-35.73C247.23,96.82,228,116.16,209.37,136.21Z"/><path class="cls-4" d="M193.82,110.53l10.55,74.75L165.28,290.82c-3.79-1.75-20.75-8-24.54-9.77,9.26-49,1.52-12,10.78-61Z"/><polygon class="cls-4" points="214.92 186.16 174.39 294.64 202.33 306.69 242.19 229.25 256.26 141.31 214.92 186.16"/><polygon class="cls-5" points="123.74 367.05 135.11 372.3 161.28 301.64 137.99 291.69 123.74 367.05"/><polygon class="cls-4" points="214.04 -53.93 200.85 86.78 192.06 -17.87 214.04 -53.93"/><path class="cls-4" d="M606.07,61.38a7.24,7.24,0,0,0-1.63-1L589.78-48.65,617.92-89.1l29,42.21,24.63,147.74-2.26,19.83C649.46,99.61,628.75,79.42,606.07,61.38Z"/><path class="cls-4" d="M665.69,136.21a6.8,6.8,0,0,0,1.7,1.32l-3.74,32.8-51.88-55.41L607,79.19C627.83,96.82,647.1,116.16,665.69,136.21Z"/><polygon class="cls-4" points="661.01 -53.93 674.2 86.78 683 -17.87 661.01 -53.93"/><polygon class="cls-4" points="318.87 824.86 316.22 848.76 334.81 871.79 341.01 908.09 353.41 913.4 364.03 858.5 371.12 839.02 364.92 826.63 318.87 824.86"/><polygon class="cls-4" points="401.22 826.63 387.94 863.82 359.6 918.72 366.69 969.19 387.05 912.52 403.88 880.64 401.22 826.63"/><polygon class="cls-4" points="556.18 824.86 558.84 848.76 540.25 871.79 534.05 908.09 521.65 913.4 511.03 858.5 503.94 839.02 510.14 826.63 556.18 824.86"/><polygon class="cls-4" points="473.84 826.63 487.12 863.82 515.45 918.72 508.37 969.19 488 912.52 471.18 880.64 473.84 826.63"/><polygon class="cls-4" points="300.08 383.7 358.28 511.83 371.52 615.6 346.7 761.59 292.94 612.97 289.63 459.95 299.4 383.79 300.08 383.7"/><polygon class="cls-4" points="292.65 657.4 285.2 621.76 336.49 762.47 328.75 782.39 305.95 721.09 292.65 657.4"/><polygon class="cls-4" points="374.15 569.62 375.54 572.92 401.42 634.7 384.71 787.72 358.33 773.65 381.19 631.18 374.15 569.62"/><polygon class="cls-4" points="500.9 569.62 499.52 572.92 473.64 634.7 490.35 787.72 516.73 773.65 493.87 631.18 500.9 569.62"/><polygon class="cls-4" points="574.64 385.71 516.44 513.84 503.2 617.61 528.02 763.6 581.78 614.98 585.08 461.95 575.32 385.8 574.64 385.71"/><polygon class="cls-4" points="582.07 659.41 589.51 623.77 538.23 764.48 545.97 784.4 568.77 723.1 582.07 659.41"/><polygon class="cls-4" points="284.93 269.18 254.12 381.81 269.25 384.28 299.02 377.63 339.48 373.87 359.72 348.92 349.77 324.07 325.09 316.66 284.93 269.18"/><polygon class="cls-4" points="589.79 271.19 620.6 383.82 605.47 386.29 575.7 379.64 535.24 375.88 515 350.93 524.95 326.07 549.63 318.67 589.79 271.19"/><polygon class="cls-4" points="342.32 379.65 309.4 382.56 367.68 497.51 407.38 620.63 403.24 535.33 342.32 379.65"/><polygon class="cls-4" points="406.8 404.53 407.27 403.94 404.1 395.86 365.57 353.68 352.46 371.94 376.88 434.88 406.8 404.53"/><polygon class="cls-4" points="381.77 447.49 409.03 517.74 418.13 431.55 412.75 417.86 381.77 447.49"/><polygon class="cls-4" points="493.28 447.49 466.03 517.74 456.93 431.55 462.31 417.86 493.28 447.49"/><polygon class="cls-4" points="532.4 381.66 565.32 384.57 507.04 499.52 467.34 622.64 471.48 537.34 532.4 381.66"/><polygon class="cls-4" points="467.92 406.54 467.44 405.95 470.62 397.87 509.14 355.69 522.26 373.95 497.84 436.89 467.92 406.54"/><polygon class="cls-4" points="267.83 392.72 288.1 386.56 280.4 452.22 279.17 620.63 305.84 750.21 305.54 811.64 313.51 886.07 303.16 882.23 292.25 907.79 292.69 736.04 267.3 620.63 250.23 389.34 267.83 392.72"/><polygon class="cls-4" points="606.89 394.73 586.62 388.57 594.31 454.23 595.55 622.64 568.88 752.22 569.18 813.65 561.21 888.08 571.55 884.24 582.47 909.8 582.03 738.05 607.42 622.64 624.49 391.35 606.89 394.73"/><polygon class="cls-4" points="322.75 44.18 350.36 59.52 347.17 23.18 322.75 44.18"/><polygon class="cls-4" points="345.21 9.36 292.31 -12.59 312.23 41.02 345.21 9.36"/><polygon class="cls-4" points="312.54 46.31 348.6 68.3 354.75 112.27 319.58 89.4 312.54 46.31"/><polygon class="cls-4" points="321.33 99.97 352.99 121.96 357.39 166.81 322.21 138.67 321.33 99.97"/><polygon class="cls-4" points="356.5 190.65 317.81 161.63 314.44 200.62 287 251.09 329.25 309.28 351.24 312.79 359.15 230.13 356.5 190.65"/><polygon class="cls-4" points="552.31 44.18 524.7 59.52 527.89 23.18 552.31 44.18"/><polygon class="cls-4" points="529.84 9.36 582.74 -12.59 562.83 41.02 529.84 9.36"/><polygon class="cls-4" points="562.52 46.31 526.46 68.3 520.3 112.27 555.48 89.4 562.52 46.31"/><polygon class="cls-4" points="553.72 99.97 522.06 121.96 517.67 166.81 552.84 138.67 553.72 99.97"/><polygon class="cls-4" points="518.56 190.65 557.25 161.63 560.61 200.62 588.06 251.09 545.81 309.28 523.82 312.79 515.91 230.13 518.56 190.65"/><polygon class="cls-4" points="364.03 8.7 430.44 -21.18 428.45 27.29 368.68 57.84 364.03 8.7"/><polygon class="cls-4" points="374.66 69.8 375.98 104.33 425.13 93.7 427.78 46.55 374.66 69.8"/><polygon class="cls-4" points="433.1 407.81 420.16 282.09 419.83 200.23 373.22 177.36 367.94 326.87 433.1 407.81"/><polygon class="cls-4" points="377.98 120.93 377.31 163.43 424.46 176.05 425.13 109.64 377.98 120.93"/><polygon class="cls-4" points="511.03 8.7 444.62 -21.18 446.61 27.29 506.38 57.84 511.03 8.7"/><polygon class="cls-4" points="500.4 69.8 499.07 104.33 449.93 93.7 447.27 46.55 500.4 69.8"/><polygon class="cls-4" points="441.96 407.81 454.9 282.09 455.23 200.23 501.84 177.36 507.11 326.87 441.96 407.81"/><polygon class="cls-4" points="497.08 120.93 497.75 163.43 450.6 176.05 449.93 109.64 497.08 120.93"/><path class="cls-4" d="M154.75,443.74l1.33,24.84-17.71,70.83-11.51-.88L138,491.38l-12-.33-18.7,50.13-14.17-1.77,17.6-50.69L98.52,486.4l-23.9,53.9-17.71-1.77,24.35-56.12-8.41-5L42.74,525.25l-15-1.77,45.16-85.89-4.43-7.09-42.5,17.71-2.66-9.74,34.53-31,27.53-11.59,21.87,43.45Z"/><polygon class="cls-5" points="97.45 391.4 114.66 424.69 154.26 427.59 154.26 405.57 135.74 387.03 115.85 379.28 97.45 391.4"/><path class="cls-4" d="M720.68,443.74l-1.33,24.84,17.71,70.83,11.51-.88-11.18-47.15,12-.33,18.71,50.13,14.17-1.77-17.6-50.69,12.28-2.32,23.91,53.9,17.71-1.77-24.35-56.12,8.41-5,30.11,47.82,15-1.77-45.16-85.89L807,430.5l42.5,17.71,2.66-9.74-34.54-31L790.1,395.89l-21.86,43.45Z"/><polygon class="cls-5" points="143.13 378.32 158.38 392.14 197.18 316.69 170.56 304.89 143.13 378.32"/><path class="cls-4" d="M682.27,112.45,671.71,187.2,710.8,292.75c3.79-1.75,20.76-8,24.55-9.78-9.26-49-1.53-12-10.79-60.94Z"/><polygon class="cls-4" points="661.16 188.08 701.69 296.57 673.75 308.62 633.9 231.18 619.83 143.23 661.16 188.08"/><polygon class="cls-5" points="752.35 368.97 740.97 374.22 714.8 303.56 738.09 293.61 752.35 368.97"/><polygon class="cls-5" points="778.63 393.32 761.43 426.61 721.82 429.52 721.82 407.49 740.34 388.96 760.23 381.2 778.63 393.32"/><polygon class="cls-5" points="732.95 380.24 717.7 394.06 678.9 318.62 705.52 306.82 732.95 380.24"/></g><circle class="cls-1" cx="-0.75" cy="1346.5" r="437.34"/><g class="cls-6"><polygon class="cls-4" points="83.77 511.39 83.77 459.62 56.48 412.56 -1.91 393.61 -60.23 412.56 -87.53 459.62 -87.53 511.39 -100.7 514.21 -95.05 559.39 -73.41 566.92 -49.88 615.86 -1.65 636.47 46.13 615.86 69.66 566.92 91.3 559.39 96.95 514.21 83.77 511.39"/><polygon class="cls-4" points="65.13 659.37 57.22 696.31 103.83 707.74 133.73 697.19 65.13 659.37"/><polygon class="cls-4" points="95.03 720.93 131.97 786.89 172.42 807.12 147.8 826.46 128.45 882.75 83.6 901.22 12.13 865.9 29.96 727.09 95.03 720.93"/><path class="cls-4" d="M167.6,966.39a7,7,0,0,0-1.62-1L151.32,856.36l28.14-40.45,29,42.21,24.62,147.75-2.26,19.83C211,1004.63,190.29,984.44,167.6,966.39Z"/><polygon class="cls-4" points="222.55 851.09 235.74 991.8 244.54 887.14 222.55 851.09"/><path class="cls-4" d="M150.09,701.54l16.18-8.75,50.62,56,.28,21.32S151.07,702,150.09,701.54Z"/><path class="cls-4" d="M145,703.86c0,1.12,71.06,75.71,71.06,75.71l2.14,66.24L193.53,803.6,146,783.37l-33.42-61.56Z"/><polygon class="cls-4" points="48.92 623.94 16.84 672.57 0.97 728.43 37.94 698.95 50.78 645.36 48.92 623.94"/></g><circle class="cls-1" cx="922.26" cy="1346.5" r="437.34"/><g class="cls-7"><polygon class="cls-4" points="871.4 623.94 903.49 672.57 919.36 728.43 882.38 698.95 867.54 646.22 871.4 623.94"/><polygon class="cls-4" points="856.01 659.37 863.92 696.31 817.31 707.74 787.41 697.19 856.01 659.37"/><polygon class="cls-4" points="826.11 720.93 789.17 786.89 748.72 807.12 773.34 826.46 792.69 882.75 837.54 901.22 909.01 865.9 891.19 727.09 826.11 720.93"/><path class="cls-4" d="M753.54,966.39a6.83,6.83,0,0,1,1.63-1l14.65-109.07-28.14-40.45-29,42.21L688,1005.87l2.26,19.83C710.14,1004.63,730.85,984.44,753.54,966.39Z"/><polygon class="cls-4" points="698.59 851.09 685.4 991.8 676.61 887.14 698.59 851.09"/><polygon class="cls-4" points="1006.78 511.39 1006.78 459.62 979.49 412.56 921.1 393.61 862.78 412.56 835.48 459.62 835.48 511.39 822.31 514.21 827.95 559.39 849.6 566.92 873.13 615.86 921.36 636.47 969.13 615.86 992.66 566.92 1014.31 559.39 1019.96 514.21 1006.78 511.39"/><path class="cls-4" d="M771.05,701.54l-16.18-8.75-50.62,56L704,770.12S770.07,702,771.05,701.54Z"/><path class="cls-4" d="M776.19,703.86c0,1.12-71.06,75.71-71.06,75.71L703,845.81l24.62-42.21,47.49-20.23,33.42-61.56Z"/></g></g><g id="Mid_Back" data-name="Mid Back"><g class="cls-8"><polygon class="cls-4" points="92.03 647.95 75.51 661.99 77.99 684.29 111.56 640.96 107.19 635.82 92.03 647.95"/><polygon class="cls-4" points="106.53 633.42 84.97 626.2 77.47 642.29 73.57 657.85 74.93 659.63 106.53 633.42"/><polygon class="cls-4" points="51.6 658.25 51.6 655.67 49.96 648.27 39.99 656.26 38.43 665.59 39.59 676.47 51.6 658.25"/><polygon class="cls-4" points="99.59 -209.45 109.6 -44.59 93.58 30.17 124.95 120.27 158.33 -37.91 141.64 -197.44 99.59 -209.45"/><polygon class="cls-4" points="78.31 -213.46 103 -46.59 74.97 94.24 36.92 173.67 32.92 4.8 59.62 -63.95 60.95 -168.74 78.31 -213.46"/><polygon class="cls-4" points="73.25 684.73 39.59 682.54 54.75 658.58 45.57 611.05 65.6 617.5 82.57 615.8 69.61 661.6 73.25 684.73"/><polygon class="cls-4" points="76.42 139.76 72.09 363.41 33.68 406.77 15.09 378.9 13.85 318.8 30.58 228.97 76.42 139.76"/><polygon class="cls-4" points="88.19 126.75 90.67 309.51 80.14 378.9 98.11 393.76 129.7 329.33 121.65 204.81 106.16 154.01 104.92 117.46 88.19 126.75"/><polygon class="cls-4" points="74.34 386.95 92.31 403.06 65.05 532.54 63.21 611.05 45.13 605.93 43.37 533.77 30.36 442.09 34.07 421.02 74.34 386.95"/><polygon class="cls-4" points="88.59 477.4 71.86 560.41 70.96 578.85 67.6 612.16 82.57 611.05 90.81 579.18 96.64 544.93 96.64 467.49 88.59 477.4"/></g><g class="cls-9"><polygon class="cls-4" points="830.28 647.19 846.8 661.24 844.33 683.54 810.76 640.21 815.12 635.07 830.28 647.19"/><polygon class="cls-4" points="815.78 632.67 837.34 625.45 844.85 641.53 848.75 657.1 847.38 658.87 815.78 632.67"/><polygon class="cls-4" points="870.72 657.5 870.72 654.92 872.35 647.52 882.32 655.5 883.88 664.83 882.73 675.72 870.72 657.5"/><polygon class="cls-4" points="821.61 -209.45 811.6 -44.59 827.62 30.17 796.25 120.27 762.87 -37.91 779.56 -197.44 821.61 -209.45"/><polygon class="cls-4" points="843.64 -213.46 818.94 -46.59 846.97 94.24 885.02 173.67 889.02 4.8 862.33 -63.95 860.99 -168.74 843.64 -213.46"/><polygon class="cls-4" points="848.65 684.73 882.32 682.54 867.15 658.58 876.33 611.05 856.31 617.5 839.33 615.8 852.29 661.6 848.65 684.73"/><polygon class="cls-4" points="846.32 139.76 850.66 363.41 889.07 406.77 907.65 378.9 908.89 318.8 892.16 228.97 846.32 139.76"/><polygon class="cls-4" points="834.55 126.75 832.07 309.51 842.6 378.9 824.64 393.76 793.04 329.33 801.1 204.81 816.59 154.01 817.82 117.46 834.55 126.75"/><polygon class="cls-4" points="847.56 386.95 829.59 403.06 856.85 532.54 858.69 611.05 876.77 605.93 878.54 533.77 891.55 442.09 887.83 421.02 847.56 386.95"/><polygon class="cls-4" points="833.31 477.4 850.04 560.41 850.94 578.85 854.3 612.16 839.33 611.05 831.09 579.18 825.26 544.93 825.26 467.49 833.31 477.4"/></g></g></svg>