<?xml version="1.0" encoding="UTF-8" standalone="no"?>
<!-- Created with Serif DrawPlus 12,0,4,27 (May 24, 08:37:51) (http://www.serif.com) -->
<svg version="1.1" xmlns="http://www.w3.org/2000/svg" xmlns:xlink="http://www.w3.org/1999/xlink" width="195.075" height="64.0547">
	<g id="dp_group001" transform="matrix(1,0,0,1,-195.611,-48)">
		<path id="dp_path002" fill="white" fill-rule="evenodd" d="M 197.721,88.6387 C 199.199,85.7907 201.239,83.2293 203.701,81.1653 C 205.601,79.6 208.555,77.3213 212.213,75.1867 C 218.967,71.272 223.328,69.0667 226.845,66.0053 C 230.363,62.9453 232.263,59.672 233.107,56.7533 C 233.951,53.836 233.951,48 233.951,48 L 209.892,65.08 C 206.585,67.4293 203.631,70.2053 201.169,73.408 C 199.692,75.3293 198.284,77.536 197.371,79.8133 C 194.556,86.788 195.963,93.264 195.963,93.264 C 195.963,93.264 196.315,91.272 197.721,88.6387 Z "/>
		<path id="dp_path003" fill="white" fill-rule="evenodd" d="M 210.877,105.577 C 210.807,105.505 210.807,105.505 210.736,105.435 C 209.188,103.655 208.204,101.591 208.273,99.2427 C 208.415,96.04 209.611,93.7627 211.299,92.0547 C 212.003,91.272 212.987,90.56 214.043,89.848 C 214.605,89.4213 215.239,89.0653 215.872,88.7093 C 218.404,87.144 221.359,85.364 223.609,82.66 C 228.323,77.0373 226.845,71.272 226.845,71.272 L 220.515,74.9027 L 208.344,81.8773 C 204.687,83.9413 201.591,86.788 199.269,90.2747 C 198.215,91.912 197.652,93.6907 197.229,95.1147 C 196.244,99.5987 197.229,111.199 210.244,112.053 C 214.887,112.337 218.615,111.911 221.569,111.271 C 217.7,110.488 213.48,108.495 210.877,105.577 Z "/>
		<path id="dp_path004" fill="white" fill-rule="evenodd" d="M 244.432,83.4427 L 244.432,91.6267 L 257.095,91.6267 L 257.095,93.6907 L 244.432,93.6907 L 244.432,104.936 L 242.181,104.936 L 242.181,81.308 L 259.205,81.308 L 259.205,83.4427 Z "/>
		<path id="dp_path005" fill="white" fill-rule="evenodd" d="M 280.872,104.936 L 277.567,97.6773 L 265.396,97.6773 L 262.019,104.936 L 259.487,104.936 L 270.743,81.308 L 272.641,81.308 L 283.405,104.936 Z M 271.657,84.652 L 266.451,95.4707 L 276.581,95.4707 Z "/>
		<path id="dp_path006" fill="white" fill-rule="evenodd" d="M 294.309,83.4427 L 294.309,104.936 L 291.987,104.936 L 291.987,83.4427 L 283.053,83.4427 L 283.053,81.308 L 303.243,81.308 L 303.243,83.4427 Z "/>
		<path id="dp_path007" fill="white" fill-rule="evenodd" d="M 327.301,104.936 L 327.301,93.6907 L 310.771,93.6907 L 310.771,104.936 L 308.519,104.936 L 308.519,81.308 L 310.771,81.308 L 310.771,91.556 L 327.301,91.556 L 327.301,81.308 L 329.553,81.308 L 329.553,104.936 Z "/>
		<path id="dp_path008" fill="white" fill-rule="evenodd" d="M 356.496,101.947 C 354.245,104.083 351.149,105.221 347.209,105.221 C 343.271,105.221 340.175,104.153 337.995,102.019 C 335.813,99.8827 334.617,96.9653 334.617,93.1933 C 334.617,89.492 335.743,86.5747 337.995,84.5107 C 340.245,82.5173 343.271,81.4493 347.209,81.4493 C 351.079,81.4493 354.175,82.4467 356.425,84.5107 C 358.747,86.5747 359.872,89.492 359.872,93.1933 C 359.943,96.8227 358.817,99.7413 356.496,101.947 Z M 354.948,86.0053 C 353.119,84.368 350.587,83.5133 347.28,83.5133 C 344.044,83.5133 341.512,84.368 339.683,86.0053 C 337.853,87.7133 336.939,90.0613 336.939,93.0507 C 336.939,96.1107 337.853,98.5307 339.683,100.311 C 341.512,102.089 344.044,102.944 347.28,102.944 C 350.587,102.944 353.119,102.089 354.948,100.311 C 356.777,98.5307 357.692,96.1107 357.692,92.98 C 357.692,90.0613 356.777,87.7133 354.948,86.0053 Z "/>
		<path id="dp_path009" fill="white" fill-rule="evenodd" d="M 388.433,104.936 L 388.433,85.9333 L 378.725,104.936 L 376.967,104.936 L 367.188,85.9333 L 367.188,104.936 L 364.937,104.936 L 364.937,81.308 L 367.329,81.308 L 377.811,101.733 L 388.293,81.308 L 390.684,81.308 L 390.684,104.936 Z "/>
	</g>
</svg>