<?xml version="1.0" encoding="UTF-8" standalone="no"?>
<!-- Created with Serif DrawPlus 12,0,4,27 (May 24, 08:37:51) (http://www.serif.com) -->
<svg version="1.1" xmlns="http://www.w3.org/2000/svg" xmlns:xlink="http://www.w3.org/1999/xlink" width="135.833" height="44.1467">
	<g id="dp_group001" transform="matrix(1,0,0,1,-44.1067,-25.9213)">
		<path id="dp_path002" fill="#127596" fill-rule="evenodd" d="M 45.576,53.9293 C 46.6053,51.9667 48.0253,50.2013 49.74,48.7787 C 51.0627,47.7 53.12,46.1307 55.6667,44.6587 C 60.3693,41.9613 63.4067,40.44 65.856,38.3307 C 68.3053,36.2213 69.6267,33.9653 70.2147,31.9547 C 70.8027,29.944 70.8027,25.9213 70.8027,25.9213 L 54.0507,37.6933 C 51.748,39.312 49.6907,41.2253 47.976,43.432 C 46.948,44.7573 45.968,46.2773 45.3307,47.8467 C 43.372,52.6533 44.352,57.1173 44.352,57.1173 C 44.352,57.1173 44.596,55.744 45.576,53.9293 Z "/>
		<path id="dp_path003" fill="#127596" fill-rule="evenodd" d="M 54.736,65.604 C 54.6867,65.5547 54.6867,65.5547 54.6387,65.5053 C 53.56,64.2787 52.8747,62.856 52.924,61.2373 C 53.0213,59.0307 53.8547,57.4613 55.0307,56.284 C 55.52,55.744 56.2053,55.2533 56.94,54.7627 C 57.332,54.4693 57.7733,54.224 58.2147,53.9787 C 59.9773,52.8987 62.0347,51.6733 63.6027,49.8093 C 66.884,45.9347 65.856,41.9613 65.856,41.9613 L 61.4467,44.4627 L 52.9733,49.2693 C 50.4253,50.692 48.2707,52.6533 46.6533,55.0573 C 45.9187,56.1853 45.5267,57.412 45.2333,58.3933 C 44.548,61.4827 45.2333,69.4787 54.2947,70.0667 C 57.528,70.2627 60.124,69.9693 62.1813,69.528 C 59.488,68.988 56.548,67.6147 54.736,65.604 Z "/>
		<path id="dp_path004" fill="#5e5e5e" fill-rule="evenodd" d="M 78.1013,50.348 L 78.1013,55.9893 L 86.9187,55.9893 L 86.9187,57.412 L 78.1013,57.412 L 78.1013,65.1613 L 76.5333,65.1613 L 76.5333,48.8773 L 88.388,48.8773 L 88.388,50.348 Z "/>
		<path id="dp_path005" fill="#5e5e5e" fill-rule="evenodd" d="M 103.475,65.1613 L 101.173,60.1587 L 92.6987,60.1587 L 90.348,65.1613 L 88.584,65.1613 L 96.4213,48.8773 L 97.744,48.8773 L 105.239,65.1613 Z M 97.0587,51.1827 L 93.4333,58.6387 L 100.487,58.6387 Z "/>
		<path id="dp_path006" fill="#5e5e5e" fill-rule="evenodd" d="M 112.831,50.348 L 112.831,65.1613 L 111.215,65.1613 L 111.215,50.348 L 104.993,50.348 L 104.993,48.8773 L 119.052,48.8773 L 119.052,50.348 Z "/>
		<path id="dp_path007" fill="#5e5e5e" fill-rule="evenodd" d="M 135.804,65.1613 L 135.804,57.412 L 124.293,57.412 L 124.293,65.1613 L 122.725,65.1613 L 122.725,48.8773 L 124.293,48.8773 L 124.293,55.94 L 135.804,55.94 L 135.804,48.8773 L 137.372,48.8773 L 137.372,65.1613 Z "/>
		<path id="dp_path008" fill="#5e5e5e" fill-rule="evenodd" d="M 156.133,63.1013 C 154.565,64.5733 152.409,65.3587 149.667,65.3587 C 146.924,65.3587 144.768,64.6227 143.249,63.1507 C 141.732,61.6787 140.899,59.668 140.899,57.068 C 140.899,54.5173 141.683,52.5067 143.249,51.084 C 144.817,49.7107 146.924,48.9747 149.667,48.9747 C 152.361,48.9747 154.516,49.6613 156.084,51.084 C 157.7,52.5067 158.484,54.5173 158.484,57.068 C 158.533,59.5707 157.749,61.5813 156.133,63.1013 Z M 155.055,52.1147 C 153.781,50.9867 152.019,50.3973 149.716,50.3973 C 147.463,50.3973 145.699,50.9867 144.425,52.1147 C 143.152,53.292 142.515,54.9107 142.515,56.9707 C 142.515,59.08 143.152,60.7467 144.425,61.9733 C 145.699,63.2 147.463,63.788 149.716,63.788 C 152.019,63.788 153.781,63.2 155.055,61.9733 C 156.329,60.7467 156.965,59.08 156.965,56.9213 C 156.965,54.9107 156.329,53.292 155.055,52.1147 Z "/>
		<path id="dp_path009" fill="#5e5e5e" fill-rule="evenodd" d="M 178.372,65.1613 L 178.372,52.0653 L 171.612,65.1613 L 170.387,65.1613 L 163.579,52.0653 L 163.579,65.1613 L 162.011,65.1613 L 162.011,48.8773 L 163.676,48.8773 L 170.975,62.9547 L 178.273,48.8773 L 179.939,48.8773 L 179.939,65.1613 Z "/>
	</g>
</svg>