<svg xmlns="http://www.w3.org/2000/svg" xmlns:xlink="http://www.w3.org/1999/xlink" viewBox="0 0 874.68 874.68"><defs><style>.cls-1{fill:none;}.cls-2{clip-path:url(#clip-path);}.cls-3{fill:#f7f7f7;}.cls-4{fill:#d9dadb;}.cls-5{fill:#e0af12;}.cls-6{clip-path:url(#clip-path-2);}.cls-7{clip-path:url(#clip-path-3);}.cls-8{clip-path:url(#clip-path-4);}.cls-9{clip-path:url(#clip-path-5);}</style><clipPath id="clip-path"><circle class="cls-1" cx="437.34" cy="437.34" r="437.34"/></clipPath><clipPath id="clip-path-2"><circle class="cls-1" cx="-7.02" cy="-495.11" r="437.34"/></clipPath><clipPath id="clip-path-3"><circle class="cls-1" cx="937.99" cy="-495.11" r="437.34"/></clipPath><clipPath id="clip-path-4"><circle class="cls-1" cx="-76.71" cy="1602.19" r="437.34"/></clipPath><clipPath id="clip-path-5"><circle class="cls-1" cx="874.68" cy="1602.19" r="437.34"/></clipPath></defs><title>Both Achilles</title><g id="Back_Left_Achilles" data-name="Back Left Achilles"><g class="cls-2"><circle class="cls-3" cx="483.57" cy="482.66" r="732.85"/><polygon class="cls-4" points="609.75 640.36 578.73 666.72 583.38 708.6 646.4 627.24 638.21 617.58 609.75 640.36"/><polygon class="cls-4" points="636.98 613.08 596.49 599.52 582.4 629.73 575.08 658.96 577.64 662.29 636.98 613.08"/><polygon class="cls-4" points="533.82 659.71 533.82 654.86 530.75 640.96 512.04 655.96 509.1 673.48 511.27 693.91 533.82 659.71"/><polygon class="cls-4" points="264.24 638.94 295.26 665.31 290.61 707.19 227.58 625.82 235.77 616.17 264.24 638.94"/><polygon class="cls-4" points="237.01 611.67 277.5 598.11 291.58 628.32 298.9 657.54 296.34 660.88 237.01 611.67"/><polygon class="cls-4" points="340.16 658.29 340.16 653.44 343.23 639.55 361.95 654.55 364.88 672.07 362.72 692.5 340.16 658.29"/><polygon class="cls-5" points="298.72 709.42 361.94 705.31 333.46 660.32 350.7 571.08 313.1 583.19 281.24 580 305.56 666 298.72 709.42"/><polygon class="cls-5" points="574.49 709.42 511.27 705.31 539.75 660.32 522.51 571.08 560.11 583.19 591.98 580 567.65 666 574.49 709.42"/><polygon class="cls-4" points="294.36 -313.84 302.5 106.09 374.62 187.52 409.52 135.17 411.84 22.34 380.44 -146.34 294.36 -313.84"/><polygon class="cls-4" points="272.25 -338.27 267.6 4.89 287.38 135.17 253.64 163.09 194.32 42.11 209.44 -191.7 238.52 -287.09 240.85 -355.72 272.25 -338.27"/><polygon class="cls-4" points="296.68 150.29 262.95 180.54 314.13 423.65 317.58 571.08 351.53 561.47 354.84 425.98 379.27 253.82 372.29 214.27 296.68 150.29"/><polygon class="cls-4" points="269.93 320.13 301.33 476 303.03 510.62 309.34 573.17 281.24 571.08 265.75 511.23 254.8 446.92 254.8 301.51 269.93 320.13"/><polygon class="cls-4" points="580.44 -313.84 572.3 106.09 500.18 187.52 465.28 135.17 462.95 22.34 494.36 -146.34 580.44 -313.84"/><polygon class="cls-4" points="602.54 -338.27 607.2 4.89 587.42 135.17 621.15 163.09 680.48 42.11 665.36 -191.7 636.28 -287.09 633.95 -355.72 602.54 -338.27"/><polygon class="cls-4" points="576.53 150.29 610.26 180.54 559.08 423.65 555.63 571.08 521.68 561.47 518.37 425.98 493.94 253.82 500.92 214.27 576.53 150.29"/><polygon class="cls-4" points="603.28 320.13 571.88 476 570.18 510.62 563.87 573.17 591.98 571.08 607.46 511.23 618.41 446.92 618.41 301.51 603.28 320.13"/></g><g class="cls-6"><circle class="cls-3" cx="39.21" cy="-449.79" r="732.85"/></g></g><g id="Back_Right_Achilles" data-name="Back Right Achilles"><g class="cls-7"><circle class="cls-3" cx="934.83" cy="-705.52" r="732.85"/></g></g><g id="Front_Abs" data-name="Front Abs"><g class="cls-8"><polygon class="cls-4" points="6.08 655.36 6.08 603.84 -21.08 557 -79.19 538.14 -137.23 557 -164.4 603.84 -164.4 655.36 -177.51 658.17 -171.89 703.13 -150.35 710.62 -126.93 759.33 -78.93 779.84 -31.39 759.33 -7.97 710.62 13.57 703.13 19.19 658.17 6.08 655.36"/><polygon class="cls-4" points="-12.47 802.63 -20.35 839.39 26.04 850.77 55.8 840.27 -12.47 802.63"/><polygon class="cls-4" points="17.29 863.9 54.05 929.54 94.31 949.67 69.8 968.92 50.55 1024.94 5.91 1043.32 -65.22 1008.17 -47.48 870.02 17.29 863.9"/><path class="cls-4" d="M72.08,844.6l16.1-8.71,50.38,55.74.28,21.22S73.05,845.09,72.08,844.6Z"/><path class="cls-4" d="M67,846.91c0,1.11,70.71,75.34,70.71,75.34l2.14,65.93-24.51-42L68.05,926,34.79,864.77Z"/></g><g class="cls-9"><polygon class="cls-4" points="825.18 765.42 857.12 813.82 872.91 869.42 836.12 840.07 821.35 787.59 825.18 765.42"/><polygon class="cls-4" points="809.87 800.69 817.74 837.45 771.36 848.83 741.6 838.32 809.87 800.69"/><polygon class="cls-4" points="780.11 861.95 743.35 927.6 703.09 947.73 727.6 966.98 746.85 1022.99 791.49 1041.37 862.61 1006.23 844.88 868.08 780.11 861.95"/><polygon class="cls-4" points="959.92 653.41 959.92 601.9 932.75 555.06 874.65 536.2 816.6 555.06 789.44 601.9 789.44 653.41 776.33 656.22 781.95 701.18 803.49 708.68 826.91 757.39 874.91 777.89 922.45 757.39 945.87 708.68 967.41 701.18 973.03 656.22 959.92 653.41"/><path class="cls-4" d="M725.31,842.66,709.22,834l-50.39,55.74-.27,21.22S724.34,843.15,725.31,842.66Z"/><path class="cls-4" d="M730.43,845c0,1.12-70.72,75.35-70.72,75.35l-2.13,65.92,24.5-42,47.27-20.13,33.25-61.26Z"/></g></g></svg>