<?xml version="1.0" encoding="utf-8"?>
<!-- Generator: Adobe Illustrator 22.0.1, SVG Export Plug-In . SVG Version: 6.00 Build 0)  -->
<svg version="1.1" id="Layer_1" xmlns="http://www.w3.org/2000/svg" xmlns:xlink="http://www.w3.org/1999/xlink" x="0px" y="0px"
	 viewBox="0 0 466.4 466.2" style="enable-background:new 0 0 466.4 466.2;" xml:space="preserve">
<style type="text/css">
	.st0{clip-path:url(#SVGID_2_);fill:#F7F7F7;}
	.st1{clip-path:url(#SVGID_4_);}
	.st2{fill:#D9DADB;}
	.st3{clip-path:url(#SVGID_6_);fill:#D9DADB;}
	.st4{clip-path:url(#SVGID_8_);fill:#D9DADB;}
	.st5{clip-path:url(#SVGID_10_);fill:#D9DADB;}
	.st6{clip-path:url(#SVGID_12_);fill:#D9DADB;}
	.st7{clip-path:url(#SVGID_14_);fill:#D9DADB;}
	.st8{clip-path:url(#SVGID_16_);fill:#D9DADB;}
	.st9{clip-path:url(#SVGID_18_);fill:#D9DADB;}
	.st10{clip-path:url(#SVGID_20_);fill:#D9DADB;}
	.st11{clip-path:url(#SVGID_22_);fill:#D9DADB;}
	.st12{clip-path:url(#SVGID_24_);fill:#D9DADB;}
	.st13{clip-path:url(#SVGID_26_);fill:#D9DADB;}
	.st14{clip-path:url(#SVGID_28_);fill:#D9DADB;}
	.st15{clip-path:url(#SVGID_30_);fill:#D9DADB;}
	.st16{clip-path:url(#SVGID_32_);fill:#D9DADB;}
	.st17{clip-path:url(#SVGID_34_);fill:#D9DADB;}
	.st18{clip-path:url(#SVGID_36_);fill:#E0AF12;}
	.st19{clip-path:url(#SVGID_38_);fill:#E0AF12;}
	.st20{clip-path:url(#SVGID_40_);fill:#D9DADB;}
	.st21{clip-path:url(#SVGID_42_);fill:#D9DADB;}
	.st22{clip-path:url(#SVGID_44_);fill:#D9DADB;}
	.st23{clip-path:url(#SVGID_46_);fill:#D9DADB;}
	.st24{clip-path:url(#SVGID_48_);fill:#D9DADB;}
	.st25{clip-path:url(#SVGID_50_);fill:#D9DADB;}
	.st26{clip-path:url(#SVGID_52_);fill:#D9DADB;}
	.st27{clip-path:url(#SVGID_54_);fill:#D9DADB;}
</style>
<g id="Back_Right_Achilles">
	<g>
		<g>
			<g>
				<defs>
					<circle id="SVGID_1_" cx="232.9" cy="232.9" r="232.9"/>
				</defs>
				<clipPath id="SVGID_2_">
					<use xlink:href="#SVGID_1_"  style="overflow:visible;"/>
				</clipPath>
				<circle class="st0" cx="231.2" cy="120.9" r="390.3"/>
			</g>
		</g>
		<g>
			<g>
				<defs>
					<circle id="SVGID_3_" cx="232.9" cy="232.9" r="232.9"/>
				</defs>
				<clipPath id="SVGID_4_">
					<use xlink:href="#SVGID_3_"  style="overflow:visible;"/>
				</clipPath>
				<g class="st1">
					<polygon class="st2" points="193.5,-1336 187.5,-1273.3 108,-1235.9 191.5,-1225.9 228.2,-1253.9 220.8,-1358 					"/>
					<polygon class="st2" points="69.3,-1094.4 87.3,-1075.7 84,-951.5 42.6,-862.1 13.9,-874.8 4.6,-965.6 20.6,-1061 					"/>
					<polygon class="st2" points="97.3,-1069.7 96,-1029 122.7,-919.5 168.8,-864.1 162.1,-811.4 167.4,-808 201.5,-877.5 
						207.5,-952.2 164.1,-1051 122,-1053 100.7,-1070.4 					"/>
					<polygon class="st2" points="54.6,-862.1 54,-792 -23.7,-677.7 14.6,-807.4 					"/>
					<polygon class="st2" points="-2.1,-898.8 13.2,-832.7 -45.1,-649.2 -56.3,-658 -48.6,-732.8 -41.5,-780.9 					"/>
					<polygon class="st2" points="319.7,-1420.1 318.4,-1492.9 283.6,-1534.2 234.3,-1543.6 182.2,-1534.2 147.5,-1492.9 
						146.1,-1420.1 128.1,-1414.8 134.8,-1376.7 149.5,-1368 167.5,-1370.1 183.5,-1334 204.9,-1362 234.3,-1370.7 261,-1362 
						282.3,-1334 298.3,-1370.1 316.4,-1368 331,-1376.7 337.7,-1414.8 					"/>
					<polygon class="st2" points="270.9,-1336 276.9,-1273.3 356.3,-1235.9 272.9,-1225.9 236.2,-1253.9 243.5,-1358 					"/>
					<g>
						<polygon class="st2" points="130.1,-1195.2 124.7,-1179.2 100,-1167.8 87.3,-1123.1 29.3,-1075 28.6,-1170.5 63.3,-1223.9 
							92,-1230.6 						"/>
						<polygon class="st2" points="114.7,-1221.9 148.1,-1193.2 172.1,-1053.7 221.5,-954.2 221.5,-1185.2 184.1,-1213.2 						"/>
						<polygon class="st2" points="141.4,-1177.8 163.4,-1063.7 114.7,-1067.7 83.3,-1105.1 102.7,-1125.8 107.4,-1153.8 						"/>
						<polygon class="st2" points="334.3,-1195.2 339.6,-1179.2 364.3,-1167.8 377,-1123.1 435.1,-1075 435.8,-1170.5 401,-1223.9 
							372.3,-1230.6 						"/>
						<polygon class="st2" points="349.6,-1221.9 316.3,-1193.2 292.2,-1053.7 242.9,-954.2 242.9,-1185.2 280.2,-1213.2 						"/>
						<polygon class="st2" points="323,-1177.8 300.9,-1063.7 349.6,-1067.7 381,-1105.1 361.7,-1125.8 357,-1153.8 						"/>
					</g>
					<polygon class="st2" points="395,-1094.4 377,-1075.7 380.4,-951.5 421.7,-862.1 450.4,-874.8 459.8,-965.6 443.8,-1061 					
						"/>
					<polygon class="st2" points="367,-1069.7 368.3,-1029 341.6,-919.5 295.6,-864.1 302.3,-811.4 296.9,-808 262.9,-877.5 
						256.9,-952.2 300.3,-1051 342.3,-1053 363.7,-1070.4 					"/>
					<polygon class="st2" points="-75.7,-670.5 -63.9,-642.6 -29.7,-637.2 -27,-586.6 -45,-514.5 -56.7,-515.4 -45.3,-563.4 
						-57.5,-563.8 -76.6,-512.7 -91,-514.5 -73.1,-566.1 -85.6,-568.5 -110,-513.6 -128,-515.4 -103.2,-572.5 -111.8,-577.6 
						-142.4,-528.9 -157.8,-530.7 -111.8,-618.2 -116.3,-625.4 -159.6,-607.4 -162.3,-617.3 -127.1,-648.9 					"/>
					<polygon class="st2" points="542.7,-670.5 531,-642.6 496.7,-637.2 494,-586.6 512,-514.5 523.8,-515.4 512.4,-563.4 
						524.5,-563.8 543.6,-512.7 558,-514.5 540.1,-566.1 552.6,-568.5 577,-513.6 595,-515.4 570.2,-572.5 578.8,-577.6 
						609.5,-528.9 624.8,-530.7 578.8,-618.2 583.3,-625.4 626.6,-607.4 629.3,-617.3 594.1,-648.9 					"/>
					<polygon class="st2" points="412.4,-862.1 413.1,-792 490.7,-677.7 452.4,-807.4 					"/>
					<polygon class="st2" points="469.1,-898.8 453.8,-832.7 512.1,-649.2 523.4,-658 515.6,-732.8 508.5,-780.9 					"/>
					<polygon class="st2" points="324.7,341 308.2,355.1 310.7,377.4 344.3,334 339.9,328.9 					"/>
					<polygon class="st2" points="339.2,326.5 317.7,319.3 310.2,335.4 306.3,350.9 307.6,352.7 					"/>
					<polygon class="st2" points="284.3,351.3 284.3,348.8 282.7,341.4 272.7,349.3 271.1,358.7 272.3,369.6 					"/>
					<polygon class="st2" points="140.7,340.3 157.2,354.3 154.8,376.6 121.2,333.3 125.6,328.2 					"/>
					<polygon class="st2" points="126.2,325.8 147.8,318.5 155.3,334.6 159.2,350.2 157.8,352 					"/>
					<polygon class="st2" points="181.2,350.6 181.2,348 182.8,340.6 192.8,348.6 194.3,357.9 193.2,368.8 					"/>
				</g>
			</g>
		</g>
		<g>
			<g>
				<defs>
					<circle id="SVGID_5_" cx="232.9" cy="232.9" r="232.9"/>
				</defs>
				<clipPath id="SVGID_6_">
					<use xlink:href="#SVGID_5_"  style="overflow:visible;"/>
				</clipPath>
				<polygon class="st3" points="120.7,-897.5 158.8,-840.1 146.7,-814.7 104.7,-810 				"/>
			</g>
		</g>
		<g>
			<g>
				<defs>
					<circle id="SVGID_7_" cx="232.9" cy="232.9" r="232.9"/>
				</defs>
				<clipPath id="SVGID_8_">
					<use xlink:href="#SVGID_7_"  style="overflow:visible;"/>
				</clipPath>
				<polygon class="st4" points="157.4,-802 206.8,-748.6 190.1,-750 130.7,-748 64,-697.9 98.7,-796 				"/>
			</g>
		</g>
		<g>
			<g>
				<defs>
					<circle id="SVGID_9_" cx="232.9" cy="232.9" r="232.9"/>
				</defs>
				<clipPath id="SVGID_10_">
					<use xlink:href="#SVGID_9_"  style="overflow:visible;"/>
				</clipPath>
				<polygon class="st5" points="343.6,-897.5 305.6,-840.1 317.6,-814.7 359.7,-810 				"/>
			</g>
		</g>
		<g>
			<g>
				<defs>
					<circle id="SVGID_11_" cx="232.9" cy="232.9" r="232.9"/>
				</defs>
				<clipPath id="SVGID_12_">
					<use xlink:href="#SVGID_11_"  style="overflow:visible;"/>
				</clipPath>
				<polygon class="st6" points="250,-876.1 232.7,-926.9 214,-876.6 184.4,-802.7 234.5,-743.4 281.9,-802.7 				"/>
			</g>
		</g>
		<g>
			<g>
				<defs>
					<circle id="SVGID_13_" cx="232.9" cy="232.9" r="232.9"/>
				</defs>
				<clipPath id="SVGID_14_">
					<use xlink:href="#SVGID_13_"  style="overflow:visible;"/>
				</clipPath>
				<polygon class="st7" points="306.9,-802 257.5,-748.6 274.2,-750 333.6,-748 400.4,-697.9 365.7,-796 				"/>
			</g>
		</g>
		<g>
			<g>
				<defs>
					<circle id="SVGID_15_" cx="232.9" cy="232.9" r="232.9"/>
				</defs>
				<clipPath id="SVGID_16_">
					<use xlink:href="#SVGID_15_"  style="overflow:visible;"/>
				</clipPath>
				<polygon class="st8" points="82,-511 130.1,-537.1 204.1,-555.7 218.8,-597.8 217.5,-705.3 191.5,-740.6 144.1,-741.3 
					74,-682.6 73.3,-651.5 59.8,-587.8 64,-529.4 				"/>
			</g>
		</g>
		<g>
			<g>
				<defs>
					<circle id="SVGID_17_" cx="232.9" cy="232.9" r="232.9"/>
				</defs>
				<clipPath id="SVGID_18_">
					<use xlink:href="#SVGID_17_"  style="overflow:visible;"/>
				</clipPath>
				<polygon class="st9" points="382.4,-511 334.3,-537.1 260.2,-555.7 245.5,-597.8 246.9,-705.3 272.9,-740.6 320.3,-741.3 
					390.4,-682.6 391,-651.5 404.5,-587.8 400.4,-529.4 				"/>
			</g>
		</g>
		<g>
			<g>
				<defs>
					<circle id="SVGID_19_" cx="232.9" cy="232.9" r="232.9"/>
				</defs>
				<clipPath id="SVGID_20_">
					<use xlink:href="#SVGID_19_"  style="overflow:visible;"/>
				</clipPath>
				<polygon class="st10" points="132.1,-516.4 122,-351.5 138.1,-276.7 106.7,-186.6 73.3,-344.8 90,-504.3 				"/>
			</g>
		</g>
		<g>
			<g>
				<defs>
					<circle id="SVGID_21_" cx="232.9" cy="232.9" r="232.9"/>
				</defs>
				<clipPath id="SVGID_22_">
					<use xlink:href="#SVGID_21_"  style="overflow:visible;"/>
				</clipPath>
				<polygon class="st11" points="169.4,-525.7 190.1,-471 198.1,-326.8 220.8,-465.6 218.2,-553.1 				"/>
			</g>
		</g>
		<g>
			<g>
				<defs>
					<circle id="SVGID_23_" cx="232.9" cy="232.9" r="232.9"/>
				</defs>
				<clipPath id="SVGID_24_">
					<use xlink:href="#SVGID_23_"  style="overflow:visible;"/>
				</clipPath>
				<polygon class="st12" points="154.1,-520.4 129.4,-353.5 157.4,-212.7 195.5,-133.2 199.5,-302.1 172.8,-370.9 171.4,-475.6 
									"/>
			</g>
		</g>
		<g>
			<g>
				<defs>
					<circle id="SVGID_25_" cx="232.9" cy="232.9" r="232.9"/>
				</defs>
				<clipPath id="SVGID_26_">
					<use xlink:href="#SVGID_25_"  style="overflow:visible;"/>
				</clipPath>
				<polygon class="st13" points="73.3,-406 82.1,-502 59.8,-517.7 59.8,-491.4 				"/>
			</g>
		</g>
		<g>
			<g>
				<defs>
					<circle id="SVGID_27_" cx="232.9" cy="232.9" r="232.9"/>
				</defs>
				<clipPath id="SVGID_28_">
					<use xlink:href="#SVGID_27_"  style="overflow:visible;"/>
				</clipPath>
				<polygon class="st14" points="332.3,-516.4 342.3,-351.5 326.3,-276.7 357.7,-186.6 391,-344.8 374.3,-504.3 				"/>
			</g>
		</g>
		<g>
			<g>
				<defs>
					<circle id="SVGID_29_" cx="232.9" cy="232.9" r="232.9"/>
				</defs>
				<clipPath id="SVGID_30_">
					<use xlink:href="#SVGID_29_"  style="overflow:visible;"/>
				</clipPath>
				<polygon class="st15" points="311,-520.4 335.7,-353.5 307.7,-212.7 269.6,-133.2 265.6,-302.1 292.3,-370.9 293.7,-475.6 				
					"/>
			</g>
		</g>
		<g>
			<g>
				<defs>
					<circle id="SVGID_31_" cx="232.9" cy="232.9" r="232.9"/>
				</defs>
				<clipPath id="SVGID_32_">
					<use xlink:href="#SVGID_31_"  style="overflow:visible;"/>
				</clipPath>
				<polygon class="st16" points="294.9,-525.7 274.2,-471 266.2,-326.8 243.5,-465.6 246.2,-553.1 				"/>
			</g>
		</g>
		<g>
			<g>
				<defs>
					<circle id="SVGID_33_" cx="232.9" cy="232.9" r="232.9"/>
				</defs>
				<clipPath id="SVGID_34_">
					<use xlink:href="#SVGID_33_"  style="overflow:visible;"/>
				</clipPath>
				<polygon class="st17" points="392.4,-406 383.7,-502 405.9,-517.7 405.9,-491.4 				"/>
			</g>
		</g>
		<g>
			<g>
				<defs>
					<circle id="SVGID_35_" cx="232.9" cy="232.9" r="232.9"/>
				</defs>
				<clipPath id="SVGID_36_">
					<use xlink:href="#SVGID_35_"  style="overflow:visible;"/>
				</clipPath>
				<polygon class="st18" points="159.1,377.8 192.8,375.6 177.6,351.7 186.8,304.1 166.8,310.6 149.8,308.9 162.7,354.7 				"/>
			</g>
		</g>
		<g>
			<g>
				<defs>
					<circle id="SVGID_37_" cx="232.9" cy="232.9" r="232.9"/>
				</defs>
				<clipPath id="SVGID_38_">
					<use xlink:href="#SVGID_37_"  style="overflow:visible;"/>
				</clipPath>
				<polygon class="st19" points="306,377.8 272.3,375.6 287.5,351.7 278.3,304.1 298.3,310.6 315.3,308.9 302.3,354.7 				"/>
			</g>
		</g>
		<g>
			<g>
				<defs>
					<circle id="SVGID_39_" cx="232.9" cy="232.9" r="232.9"/>
				</defs>
				<clipPath id="SVGID_40_">
					<use xlink:href="#SVGID_39_"  style="overflow:visible;"/>
				</clipPath>
				<polygon class="st20" points="156.8,-167.1 161.1,56.5 199.5,99.9 218.1,72 219.3,11.9 202.6,-77.9 				"/>
			</g>
		</g>
		<g>
			<g>
				<defs>
					<circle id="SVGID_41_" cx="232.9" cy="232.9" r="232.9"/>
				</defs>
				<clipPath id="SVGID_42_">
					<use xlink:href="#SVGID_41_"  style="overflow:visible;"/>
				</clipPath>
				<polygon class="st21" points="145,-180.2 142.5,2.6 153,72 135.1,86.9 103.5,22.4 111.5,-102.1 127,-152.9 128.3,-189.4 				"/>
			</g>
		</g>
		<g>
			<g>
				<defs>
					<circle id="SVGID_43_" cx="232.9" cy="232.9" r="232.9"/>
				</defs>
				<clipPath id="SVGID_44_">
					<use xlink:href="#SVGID_43_"  style="overflow:visible;"/>
				</clipPath>
				<polygon class="st22" points="158,80 140,96.1 167.3,225.6 169.1,304.1 187.2,299 189,226.9 202,135.2 198.3,114.1 				"/>
			</g>
		</g>
		<g>
			<g>
				<defs>
					<circle id="SVGID_45_" cx="232.9" cy="232.9" r="232.9"/>
				</defs>
				<clipPath id="SVGID_46_">
					<use xlink:href="#SVGID_45_"  style="overflow:visible;"/>
				</clipPath>
				<polygon class="st23" points="143.8,170.5 160.5,253.5 161.4,271.9 164.7,305.3 149.8,304.1 141.5,272.3 135.7,238 135.7,160.6 
									"/>
			</g>
		</g>
		<g>
			<g>
				<defs>
					<circle id="SVGID_47_" cx="232.9" cy="232.9" r="232.9"/>
				</defs>
				<clipPath id="SVGID_48_">
					<use xlink:href="#SVGID_47_"  style="overflow:visible;"/>
				</clipPath>
				<polygon class="st24" points="309.1,-167.1 304.8,56.5 266.4,99.9 247.8,72 246.6,11.9 263.3,-77.9 				"/>
			</g>
		</g>
		<g>
			<g>
				<defs>
					<circle id="SVGID_49_" cx="232.9" cy="232.9" r="232.9"/>
				</defs>
				<clipPath id="SVGID_50_">
					<use xlink:href="#SVGID_49_"  style="overflow:visible;"/>
				</clipPath>
				<polygon class="st25" points="320.9,-180.2 323.4,2.6 312.8,72 330.8,86.9 362.4,22.4 354.4,-102.1 338.9,-152.9 337.6,-189.4 
									"/>
			</g>
		</g>
		<g>
			<g>
				<defs>
					<circle id="SVGID_51_" cx="232.9" cy="232.9" r="232.9"/>
				</defs>
				<clipPath id="SVGID_52_">
					<use xlink:href="#SVGID_51_"  style="overflow:visible;"/>
				</clipPath>
				<polygon class="st26" points="307,80 325,96.1 297.8,225.6 295.9,304.1 277.8,299 276.1,226.9 263.1,135.2 266.8,114.1 				"/>
			</g>
		</g>
		<g>
			<g>
				<defs>
					<circle id="SVGID_53_" cx="232.9" cy="232.9" r="232.9"/>
				</defs>
				<clipPath id="SVGID_54_">
					<use xlink:href="#SVGID_53_"  style="overflow:visible;"/>
				</clipPath>
				<polygon class="st27" points="321.3,170.5 304.6,253.5 303.7,271.9 300.3,305.3 315.3,304.1 323.5,272.3 329.3,238 329.3,160.6 
									"/>
			</g>
		</g>
	</g>
</g>
<g id="Layer_1_1_">
</g>
</svg>
