<?xml version="1.0" encoding="utf-8"?>
<!-- Generator: Adobe Illustrator 22.0.1, SVG Export Plug-In . SVG Version: 6.00 Build 0)  -->
<svg version="1.1" id="Layer_1" xmlns="http://www.w3.org/2000/svg" xmlns:xlink="http://www.w3.org/1999/xlink" x="0px" y="0px"
	 viewBox="0 0 467.6 465.5" style="enable-background:new 0 0 467.6 465.5;" xml:space="preserve">
<style type="text/css">
	.st0{clip-path:url(#SVGID_2_);fill:#F7F7F7;}
	.st1{clip-path:url(#SVGID_4_);}
	.st2{fill:#D9DADB;}
	.st3{clip-path:url(#SVGID_6_);fill:#D9DADB;}
	.st4{clip-path:url(#SVGID_8_);fill:#D9DADB;}
	.st5{clip-path:url(#SVGID_10_);fill:#E0AF12;}
	.st6{clip-path:url(#SVGID_12_);fill:#E0AF12;}
	.st7{clip-path:url(#SVGID_14_);fill:#D9DADB;}
	.st8{clip-path:url(#SVGID_16_);fill:#D9DADB;}
	.st9{clip-path:url(#SVGID_18_);}
	.st10{clip-path:url(#SVGID_20_);fill:#D9DADB;}
	.st11{clip-path:url(#SVGID_22_);fill:#D9DADB;}
	.st12{clip-path:url(#SVGID_24_);fill:#D9DADB;}
	.st13{clip-path:url(#SVGID_26_);fill:#D9DADB;}
	.st14{clip-path:url(#SVGID_28_);fill:#D9DADB;}
	.st15{clip-path:url(#SVGID_30_);fill:#D9DADB;}
	.st16{clip-path:url(#SVGID_32_);fill:#D9DADB;}
	.st17{clip-path:url(#SVGID_34_);fill:#D9DADB;}
	.st18{clip-path:url(#SVGID_36_);fill:#D9DADB;}
	.st19{clip-path:url(#SVGID_38_);fill:#D9DADB;}
	.st20{clip-path:url(#SVGID_40_);fill:#D9DADB;}
	.st21{clip-path:url(#SVGID_42_);fill:#D9DADB;}
	.st22{clip-path:url(#SVGID_44_);fill:#D9DADB;}
	.st23{clip-path:url(#SVGID_46_);fill:#D9DADB;}
	.st24{clip-path:url(#SVGID_48_);fill:#D9DADB;}
	.st25{clip-path:url(#SVGID_50_);fill:#D9DADB;}
	.st26{clip-path:url(#SVGID_52_);fill:#D9DADB;}
	.st27{clip-path:url(#SVGID_54_);fill:#D9DADB;}
	.st28{clip-path:url(#SVGID_56_);}
</style>
<g id="Front_Right_Ankle">
	<g>
		<g>
			<g>
				<defs>
					<circle id="SVGID_1_" cx="232.9" cy="232.9" r="232.9"/>
				</defs>
				<clipPath id="SVGID_2_">
					<use xlink:href="#SVGID_1_"  style="overflow:visible;"/>
				</clipPath>
				<circle class="st0" cx="209.4" cy="185.9" r="390.3"/>
			</g>
		</g>
		<g>
			<g>
				<defs>
					<circle id="SVGID_3_" cx="232.9" cy="232.9" r="232.9"/>
				</defs>
				<clipPath id="SVGID_4_">
					<use xlink:href="#SVGID_3_"  style="overflow:visible;"/>
				</clipPath>
				<g class="st1">
					<polygon class="st2" points="185.2,-1319.7 217.1,-1271.3 232.9,-1215.7 196.1,-1245.1 181.4,-1297.5 					"/>
					<polygon class="st2" points="169.9,-1284.5 177.8,-1247.7 131.4,-1236.3 101.6,-1246.8 					"/>
					<polygon class="st2" points="140.1,-1223.2 103.4,-1157.5 63.1,-1137.4 87.6,-1118.2 106.9,-1062.1 151.5,-1043.8 
						222.6,-1078.9 204.9,-1217.1 					"/>
					<path class="st2" d="M67.9-978.9c0.5-0.4,1.1-0.7,1.6-1l14.6-108.5l-28-40.3l-28.9,42l-24.5,147L5-919.9
						C24.7-940.9,45.3-960.9,67.9-978.9z"/>
					<path class="st2" d="M8.6-904.4c-0.5,0.6-1.1,1-1.7,1.3l3.7,32.6l51.6-55.1l4.8-35.6C46.2-943.6,27.1-924.4,8.6-904.4z"/>
					<polygon class="st2" points="14.1,-854.7 -57.8,-660.6 -34.9,-655.3 41.2,-811.8 55.2,-899.4 					"/>
					<polygon class="st2" points="-6.9,-930 3.6,-855.6 -64.9,-672.9 -75.4,-679.9 -49,-820.9 					"/>
					<polygon class="st2" points="13.2,-1093.7 0.1,-953.6 -8.7,-1057.8 					"/>
					<polygon class="st2" points="319.9,-1431.7 319.9,-1483.2 292.8,-1530.1 234.7,-1548.9 176.6,-1530.1 149.5,-1483.2 
						149.5,-1431.7 136.3,-1428.9 142,-1384 163.5,-1376.5 186.9,-1327.8 234.9,-1307.3 282.5,-1327.8 305.9,-1376.5 327.4,-1384 
						333,-1428.9 					"/>
					<polygon class="st2" points="-87.7,-675.1 -76.3,-647.8 -42.8,-642.5 -40.1,-593.2 -57.8,-522.7 -69.2,-523.5 -58.1,-570.5 
						-70,-570.8 -88.6,-520.9 -102.7,-522.7 -85.2,-573.1 -97.4,-575.4 -121.2,-521.8 -138.8,-523.5 -114.6,-579.4 -123,-584.3 
						-152.9,-536.8 -167.9,-538.5 -123,-624 -127.4,-631 -169.7,-613.4 -172.3,-623.1 -138,-654 					"/>
					<polygon class="st2" points="301.4,-1284.5 293.5,-1247.7 339.9,-1236.3 369.6,-1246.8 					"/>
					<polygon class="st2" points="331.1,-1223.2 367.9,-1157.5 408.2,-1137.4 383.6,-1118.2 364.4,-1062.1 319.8,-1043.8 
						248.6,-1078.9 266.4,-1217.1 					"/>
					<path class="st2" d="M403.4-978.9c-0.5-0.4-1.1-0.7-1.6-1l-14.6-108.5l28-40.3l28.9,42l24.5,147l-2.2,19.7
						C446.5-940.9,425.9-960.9,403.4-978.9z"/>
					<path class="st2" d="M462.7-904.4c0.5,0.6,1.1,1,1.7,1.3l-3.7,32.6L409-925.6l-4.8-35.6C425-943.6,444.2-924.4,462.7-904.4z"/>
					<polygon class="st2" points="457.2,-854.7 529.1,-660.6 506.2,-655.3 430,-811.8 416,-899.4 					"/>
					<polygon class="st2" points="478.2,-930 467.7,-855.6 536.1,-672.9 546.7,-679.9 520.3,-820.9 					"/>
					<polygon class="st2" points="458,-1093.7 471.2,-953.6 479.9,-1057.8 					"/>
					<polygon class="st2" points="559,-675.1 547.5,-647.8 514,-642.5 511.4,-593.2 529,-522.7 540.5,-523.5 529.4,-570.5 
						541.2,-570.8 559.9,-520.9 574,-522.7 556.5,-573.1 568.7,-575.4 592.5,-521.8 610.1,-523.5 585.9,-579.4 594.2,-584.3 
						624.2,-536.8 639.2,-538.5 594.2,-624 598.6,-631 640.9,-613.4 643.6,-623.1 609.2,-654 					"/>
					<path class="st2" d="M385.9-1242.5l16.1-8.7l50.4,55.7l0.3,21.2C452.7-1174.2,386.9-1242,385.9-1242.5z"/>
					<path class="st2" d="M380.8-1240.2c0,1.1,70.7,75.3,70.7,75.3l2.1,65.9l-24.5-42l-47.3-20.1l-33.3-61.3L380.8-1240.2z"/>
					<path class="st2" d="M85.3-1242.5l-16.1-8.7l-50.4,55.7l-0.3,21.2C18.6-1174.2,84.4-1242,85.3-1242.5z"/>
					<path class="st2" d="M90.4-1240.2c0,1.1-70.7,75.3-70.7,75.3l-2.1,65.9l24.5-42l47.3-20.1l33.3-61.3L90.4-1240.2z"/>
					<polygon class="st2" points="285.2,-1319.7 253.3,-1271.3 237.5,-1215.7 274.3,-1245.1 287.1,-1298.4 					"/>
					<polygon class="st2" points="184.5,-99.2 178.3,-79.8 165.1,2.1 163.4,111.4 181.9,218 181,81.4 200.4,26.8 203,-33.1 					"/>
					<polygon class="st2" points="286.7,-99.2 292.9,-79.8 306.1,2.1 307.9,111.4 289.4,218 290.3,81.4 270.9,26.8 268.2,-33.1 
											"/>
				</g>
			</g>
		</g>
		<g>
			<g>
				<defs>
					<circle id="SVGID_5_" cx="232.9" cy="232.9" r="232.9"/>
				</defs>
				<clipPath id="SVGID_6_">
					<use xlink:href="#SVGID_5_"  style="overflow:visible;"/>
				</clipPath>
				<polygon class="st3" points="205.4,278.4 203,343.1 196.8,368.7 178.3,368.7 173.1,351.1 166.9,350.2 168.2,367.8 144.9,360.8 
					138.7,357.2 112.3,351.5 111.4,330.8 136.9,287.6 150.5,270.7 179.2,287 				"/>
			</g>
		</g>
		<g>
			<g>
				<defs>
					<circle id="SVGID_7_" cx="232.9" cy="232.9" r="232.9"/>
				</defs>
				<clipPath id="SVGID_8_">
					<use xlink:href="#SVGID_7_"  style="overflow:visible;"/>
				</clipPath>
				<polygon class="st4" points="265.2,278.4 267.6,343.1 273.7,368.7 292.2,368.7 297.5,351.1 303.7,350.2 302.4,367.8 
					325.7,360.8 331.9,357.2 358.3,351.5 359.2,330.8 333.7,287.6 320.1,270.7 291.4,287 				"/>
			</g>
		</g>
		<g>
			<g>
				<defs>
					<circle id="SVGID_9_" cx="232.9" cy="232.9" r="232.9"/>
				</defs>
				<clipPath id="SVGID_10_">
					<use xlink:href="#SVGID_9_"  style="overflow:visible;"/>
				</clipPath>
				<polygon class="st5" points="143.6,230.2 142.6,240.4 154.3,263.3 178.7,279.3 203.7,271.1 195.8,247.2 				"/>
			</g>
		</g>
		<g>
			<g>
				<defs>
					<circle id="SVGID_11_" cx="232.9" cy="232.9" r="232.9"/>
				</defs>
				<clipPath id="SVGID_12_">
					<use xlink:href="#SVGID_11_"  style="overflow:visible;"/>
				</clipPath>
				<polygon class="st6" points="327,230.2 328,240.4 316.3,263.3 291.9,279.3 266.9,271.1 274.8,247.2 				"/>
			</g>
		</g>
		<g>
			<g>
				<defs>
					<circle id="SVGID_13_" cx="232.9" cy="232.9" r="232.9"/>
				</defs>
				<clipPath id="SVGID_14_">
					<use xlink:href="#SVGID_13_"  style="overflow:visible;"/>
				</clipPath>
				<polygon class="st7" points="142.2,-49.9 146.6,114 178.3,232.9 141.8,221.7 79.6,-1.4 101.7,-145.9 				"/>
			</g>
		</g>
		<g>
			<g>
				<defs>
					<circle id="SVGID_15_" cx="232.9" cy="232.9" r="232.9"/>
				</defs>
				<clipPath id="SVGID_16_">
					<use xlink:href="#SVGID_15_"  style="overflow:visible;"/>
				</clipPath>
				<polygon class="st8" points="328.4,-49.9 324,114 292.3,232.9 328.8,221.7 390.9,-1.4 368.9,-145.9 				"/>
			</g>
		</g>
		<g>
			<g>
				<defs>
					<circle id="SVGID_17_" cx="232.9" cy="232.9" r="232.9"/>
				</defs>
				<clipPath id="SVGID_18_">
					<use xlink:href="#SVGID_17_"  style="overflow:visible;"/>
				</clipPath>
				<g class="st9">
					<polygon class="st2" points="117.5,-219.1 114.9,-195.3 133.4,-172.4 139.6,-136.2 151.9,-131 162.5,-185.6 169.5,-205 
						163.4,-217.3 					"/>
					<polygon class="st2" points="199.5,-217.3 186.3,-180.3 158.1,-125.7 165.1,-75.4 185.4,-131.8 202.1,-163.6 					"/>
				</g>
			</g>
		</g>
		<g>
			<g>
				<defs>
					<circle id="SVGID_19_" cx="232.9" cy="232.9" r="232.9"/>
				</defs>
				<clipPath id="SVGID_20_">
					<use xlink:href="#SVGID_19_"  style="overflow:visible;"/>
				</clipPath>
				<polygon class="st10" points="353.7,-219.1 356.4,-195.3 337.9,-172.4 331.7,-136.2 319.3,-131 308.8,-185.6 301.7,-205 
					307.9,-217.3 				"/>
			</g>
		</g>
		<g>
			<g>
				<defs>
					<circle id="SVGID_21_" cx="232.9" cy="232.9" r="232.9"/>
				</defs>
				<clipPath id="SVGID_22_">
					<use xlink:href="#SVGID_21_"  style="overflow:visible;"/>
				</clipPath>
				<polygon class="st11" points="271.8,-217.3 285,-180.3 313.2,-125.7 306.1,-75.4 285.9,-131.8 269.1,-163.6 				"/>
			</g>
		</g>
		<g>
			<g>
				<defs>
					<circle id="SVGID_23_" cx="232.9" cy="232.9" r="232.9"/>
				</defs>
				<clipPath id="SVGID_24_">
					<use xlink:href="#SVGID_23_"  style="overflow:visible;"/>
				</clipPath>
				<polygon class="st12" points="98.8,-658.1 156.8,-530.6 169.9,-427.3 145.2,-282 91.7,-430 88.4,-582.2 98.2,-658 				"/>
			</g>
		</g>
		<g>
			<g>
				<defs>
					<circle id="SVGID_25_" cx="232.9" cy="232.9" r="232.9"/>
				</defs>
				<clipPath id="SVGID_26_">
					<use xlink:href="#SVGID_25_"  style="overflow:visible;"/>
				</clipPath>
				<polygon class="st13" points="91.4,-385.7 84,-421.2 135.1,-281.2 127.4,-261.3 104.7,-322.3 				"/>
			</g>
		</g>
		<g>
			<g>
				<defs>
					<circle id="SVGID_27_" cx="232.9" cy="232.9" r="232.9"/>
				</defs>
				<clipPath id="SVGID_28_">
					<use xlink:href="#SVGID_27_"  style="overflow:visible;"/>
				</clipPath>
				<polygon class="st14" points="172.6,-473.1 173.9,-469.8 199.7,-408.3 183.1,-256 156.8,-270 179.6,-411.8 				"/>
			</g>
		</g>
		<g>
			<g>
				<defs>
					<circle id="SVGID_29_" cx="232.9" cy="232.9" r="232.9"/>
				</defs>
				<clipPath id="SVGID_30_">
					<use xlink:href="#SVGID_29_"  style="overflow:visible;"/>
				</clipPath>
				<polygon class="st15" points="298.7,-473.1 297.3,-469.8 271.6,-408.3 288.2,-256 314.5,-270 291.7,-411.8 				"/>
			</g>
		</g>
		<g>
			<g>
				<defs>
					<circle id="SVGID_31_" cx="232.9" cy="232.9" r="232.9"/>
				</defs>
				<clipPath id="SVGID_32_">
					<use xlink:href="#SVGID_31_"  style="overflow:visible;"/>
				</clipPath>
				<polygon class="st16" points="372.1,-656.1 314.2,-528.6 301,-425.3 325.7,-280 379.2,-428 382.5,-580.2 372.8,-656 				"/>
			</g>
		</g>
		<g>
			<g>
				<defs>
					<circle id="SVGID_33_" cx="232.9" cy="232.9" r="232.9"/>
				</defs>
				<clipPath id="SVGID_34_">
					<use xlink:href="#SVGID_33_"  style="overflow:visible;"/>
				</clipPath>
				<polygon class="st17" points="379.5,-383.7 386.9,-419.2 335.9,-279.2 343.6,-259.3 366.2,-320.3 				"/>
			</g>
		</g>
		<g>
			<g>
				<defs>
					<circle id="SVGID_35_" cx="232.9" cy="232.9" r="232.9"/>
				</defs>
				<clipPath id="SVGID_36_">
					<use xlink:href="#SVGID_35_"  style="overflow:visible;"/>
				</clipPath>
				<polygon class="st18" points="83.8,-772.1 53.1,-660 68.2,-657.5 97.8,-664.2 138.1,-667.9 158.2,-692.7 148.3,-717.5 
					123.7,-724.8 				"/>
			</g>
		</g>
		<g>
			<g>
				<defs>
					<circle id="SVGID_37_" cx="232.9" cy="232.9" r="232.9"/>
				</defs>
				<clipPath id="SVGID_38_">
					<use xlink:href="#SVGID_37_"  style="overflow:visible;"/>
				</clipPath>
				<polygon class="st19" points="387.2,-770.1 417.8,-658 402.8,-655.5 373.1,-662.2 332.9,-665.9 312.7,-690.7 322.6,-715.5 
					347.2,-722.8 				"/>
			</g>
		</g>
		<g>
			<g>
				<defs>
					<circle id="SVGID_39_" cx="232.9" cy="232.9" r="232.9"/>
				</defs>
				<clipPath id="SVGID_40_">
					<use xlink:href="#SVGID_39_"  style="overflow:visible;"/>
				</clipPath>
				<polygon class="st20" points="140.9,-662.2 108.1,-659.3 166.1,-544.9 205.6,-422.3 201.5,-507.2 				"/>
			</g>
		</g>
		<g>
			<g>
				<defs>
					<circle id="SVGID_41_" cx="232.9" cy="232.9" r="232.9"/>
				</defs>
				<clipPath id="SVGID_42_">
					<use xlink:href="#SVGID_41_"  style="overflow:visible;"/>
				</clipPath>
				<polygon class="st21" points="205,-637.4 205.5,-638 202.4,-646 164,-688 151,-669.8 175.3,-607.2 				"/>
			</g>
		</g>
		<g>
			<g>
				<defs>
					<circle id="SVGID_43_" cx="232.9" cy="232.9" r="232.9"/>
				</defs>
				<clipPath id="SVGID_44_">
					<use xlink:href="#SVGID_43_"  style="overflow:visible;"/>
				</clipPath>
				<polygon class="st22" points="180.1,-594.6 207.3,-524.7 216.3,-610.5 211,-624.1 				"/>
			</g>
		</g>
		<g>
			<g>
				<defs>
					<circle id="SVGID_45_" cx="232.9" cy="232.9" r="232.9"/>
				</defs>
				<clipPath id="SVGID_46_">
					<use xlink:href="#SVGID_45_"  style="overflow:visible;"/>
				</clipPath>
				<polygon class="st23" points="291.1,-594.6 264,-524.7 254.9,-610.5 260.3,-624.1 				"/>
			</g>
		</g>
		<g>
			<g>
				<defs>
					<circle id="SVGID_47_" cx="232.9" cy="232.9" r="232.9"/>
				</defs>
				<clipPath id="SVGID_48_">
					<use xlink:href="#SVGID_47_"  style="overflow:visible;"/>
				</clipPath>
				<polygon class="st24" points="330,-660.2 362.8,-657.3 304.8,-542.9 265.3,-420.3 269.4,-505.2 				"/>
			</g>
		</g>
		<g>
			<g>
				<defs>
					<circle id="SVGID_49_" cx="232.9" cy="232.9" r="232.9"/>
				</defs>
				<clipPath id="SVGID_50_">
					<use xlink:href="#SVGID_49_"  style="overflow:visible;"/>
				</clipPath>
				<polygon class="st25" points="265.9,-635.4 265.4,-636 268.6,-644 306.9,-686 320,-667.8 295.6,-605.2 				"/>
			</g>
		</g>
		<g>
			<g>
				<defs>
					<circle id="SVGID_51_" cx="232.9" cy="232.9" r="232.9"/>
				</defs>
				<clipPath id="SVGID_52_">
					<use xlink:href="#SVGID_51_"  style="overflow:visible;"/>
				</clipPath>
				<polygon class="st26" points="66.7,-649.2 86.9,-655.3 79.3,-589.9 78,-422.3 104.6,-293.4 104.3,-232.2 112.2,-158.2 
					101.9,-162 91,-136.5 91.5,-307.5 66.2,-422.3 49.2,-652.5 				"/>
			</g>
		</g>
		<g>
			<g>
				<defs>
					<circle id="SVGID_53_" cx="232.9" cy="232.9" r="232.9"/>
				</defs>
				<clipPath id="SVGID_54_">
					<use xlink:href="#SVGID_53_"  style="overflow:visible;"/>
				</clipPath>
				<polygon class="st27" points="404.2,-647.2 384,-653.3 391.7,-587.9 392.9,-420.3 366.4,-291.4 366.6,-230.2 358.7,-156.2 
					369,-160 379.9,-134.5 379.4,-305.5 404.7,-420.3 421.7,-650.5 				"/>
			</g>
		</g>
		<g>
			<g>
				<defs>
					<circle id="SVGID_55_" cx="232.9" cy="232.9" r="232.9"/>
				</defs>
				<clipPath id="SVGID_56_">
					<use xlink:href="#SVGID_55_"  style="overflow:visible;"/>
				</clipPath>
				<g class="st28">
					<polygon class="st2" points="121.4,-996 148.9,-980.8 145.7,-1016.9 					"/>
					<polygon class="st2" points="143.8,-1030.7 91.1,-1052.5 110.9,-999.2 					"/>
					<polygon class="st2" points="111.2,-993.9 147.1,-972 153.2,-928.3 118.2,-951 					"/>
					<polygon class="st2" points="120,-940.5 151.5,-918.6 155.9,-874 120.9,-902 					"/>
					<polygon class="st2" points="155,-850.2 116.5,-879.1 113.1,-840.3 85.8,-790.1 127.9,-732.2 149.7,-728.7 157.6,-811 					"/>
					<polygon class="st2" points="349.9,-996 322.4,-980.8 325.6,-1016.9 					"/>
					<polygon class="st2" points="327.5,-1030.7 380.1,-1052.5 360.3,-999.2 					"/>
					<polygon class="st2" points="360,-993.9 324.1,-972 318,-928.3 353,-951 					"/>
					<polygon class="st2" points="351.3,-940.5 319.8,-918.6 315.4,-874 350.4,-902 					"/>
					<polygon class="st2" points="316.3,-850.2 354.8,-879.1 358.1,-840.3 385.4,-790.1 343.4,-732.2 321.5,-728.7 313.6,-811 					
						"/>
					<g>
						<polygon class="st2" points="162.5,-1031.3 228.6,-1061.1 226.6,-1012.8 167.1,-982.4 						"/>
						<polygon class="st2" points="173.1,-970.5 174.4,-936.2 223.3,-946.7 225.9,-993.7 						"/>
						<polygon class="st2" points="231.2,-634.1 218.3,-759.3 218,-840.7 171.6,-863.5 166.4,-714.7 						"/>
						<polygon class="st2" points="176.4,-919.6 175.7,-877.3 222.6,-864.8 223.3,-930.9 						"/>
						<polygon class="st2" points="308.8,-1031.3 242.7,-1061.1 244.7,-1012.8 304.1,-982.4 						"/>
						<polygon class="st2" points="298.2,-970.5 296.9,-936.2 248,-946.7 245.3,-993.7 						"/>
						<polygon class="st2" points="240,-634.1 252.9,-759.3 253.2,-840.7 299.6,-863.5 304.9,-714.7 						"/>
						<polygon class="st2" points="294.9,-919.6 295.6,-877.3 248.6,-864.8 248,-930.9 						"/>
					</g>
				</g>
			</g>
		</g>
	</g>
</g>
<g id="Layer_1_1_">
</g>
</svg>
