<?xml version="1.0" encoding="utf-8"?>
<!-- Generator: Adobe Illustrator 22.0.1, SVG Export Plug-In . SVG Version: 6.00 Build 0)  -->
<svg version="1.1" id="Layer_1" xmlns="http://www.w3.org/2000/svg" xmlns:xlink="http://www.w3.org/1999/xlink" x="0px" y="0px"
	 viewBox="0 0 781 780.7" style="enable-background:new 0 0 781 780.7;" xml:space="preserve">
<style type="text/css">
	.st0{fill:#F7F7F7;}
	.st1{clip-path:url(#SVGID_2_);}
	.st2{fill:#D9DADB;}
	.st3{clip-path:url(#SVGID_4_);fill:#D9DADB;}
	.st4{clip-path:url(#SVGID_6_);fill:#D9DADB;}
	.st5{clip-path:url(#SVGID_8_);fill:#D9DADB;}
	.st6{clip-path:url(#SVGID_10_);fill:#D9DADB;}
	.st7{clip-path:url(#SVGID_12_);fill:#D9DADB;}
	.st8{clip-path:url(#SVGID_14_);fill:#D9DADB;}
	.st9{clip-path:url(#SVGID_16_);fill:#D9DADB;}
	.st10{clip-path:url(#SVGID_18_);fill:#D9DADB;}
	.st11{clip-path:url(#SVGID_20_);fill:#D9DADB;}
	.st12{clip-path:url(#SVGID_22_);fill:#D9DADB;}
	.st13{clip-path:url(#SVGID_24_);fill:#D9DADB;}
	.st14{clip-path:url(#SVGID_26_);fill:#D9DADB;}
	.st15{clip-path:url(#SVGID_28_);fill:#D9DADB;}
	.st16{clip-path:url(#SVGID_30_);fill:#D9DADB;}
	.st17{clip-path:url(#SVGID_32_);fill:#D9DADB;}
	.st18{clip-path:url(#SVGID_34_);fill:#D9DADB;}
	.st19{clip-path:url(#SVGID_36_);fill:#D9DADB;}
	.st20{clip-path:url(#SVGID_38_);fill:#E0AF12;}
	.st21{clip-path:url(#SVGID_40_);fill:#E0AF12;}
	.st22{clip-path:url(#SVGID_42_);fill:#E0AF12;}
	.st23{clip-path:url(#SVGID_44_);fill:#E0AF12;}
	.st24{clip-path:url(#SVGID_46_);}
	.st25{fill:#E0AF12;}
</style>
<g id="Back_Right_Calf">
	<circle class="st0" cx="390.3" cy="390.3" r="390.3"/>
	<g>
		<g>
			<g>
				<defs>
					<circle id="SVGID_1_" cx="390.3" cy="390.3" r="390.3"/>
				</defs>
				<clipPath id="SVGID_2_">
					<use xlink:href="#SVGID_1_"  style="overflow:visible;"/>
				</clipPath>
				<g class="st1">
					<polygon class="st2" points="350.6,-1002.6 344.6,-939.8 265.2,-902.5 348.6,-892.4 385.3,-920.5 378,-1024.6 					"/>
					<polygon class="st2" points="226.5,-761 244.5,-742.3 241.2,-618.1 199.8,-528.7 171.1,-541.4 161.7,-632.1 177.7,-727.6 					
						"/>
					<polygon class="st2" points="254.5,-736.3 253.2,-695.5 279.9,-586.1 325.9,-530.7 319.2,-477.9 324.6,-474.6 358.6,-544 
						364.6,-618.8 321.2,-717.6 279.2,-719.6 257.8,-736.9 					"/>
					<polygon class="st2" points="211.8,-528.7 211.1,-458.6 133.5,-344.2 171.7,-473.9 					"/>
					<polygon class="st2" points="155.1,-565.4 170.4,-499.3 112.1,-315.8 100.8,-324.6 108.5,-399.4 115.7,-447.5 					"/>
					<polygon class="st2" points="476.8,-1086.7 475.5,-1159.4 440.8,-1200.8 391.4,-1210.2 339.3,-1200.8 304.6,-1159.4 
						303.3,-1086.7 285.3,-1081.3 292,-1043.3 306.6,-1034.6 324.7,-1036.6 340.7,-1000.6 362,-1028.6 391.4,-1037.3 418.1,-1028.6 
						439.5,-1000.6 455.5,-1036.6 473.5,-1034.6 488.2,-1043.3 494.9,-1081.3 					"/>
					<polygon class="st2" points="428,-1002.6 434.1,-939.8 513.5,-902.5 430,-892.4 393.3,-920.5 400.7,-1024.6 					"/>
					<g>
						<polygon class="st2" points="287.2,-861.7 281.9,-845.7 257.2,-834.4 244.5,-789.7 186.4,-741.6 185.8,-837 220.5,-890.4 
							249.2,-897.1 						"/>
						<polygon class="st2" points="271.9,-888.4 305.2,-859.7 329.3,-720.2 378.7,-620.8 378.7,-851.7 341.3,-879.8 						"/>
						<polygon class="st2" points="298.6,-844.4 320.6,-730.2 271.9,-734.3 240.5,-771.6 259.8,-792.3 264.5,-820.4 						"/>
						<polygon class="st2" points="491.5,-861.7 496.8,-845.7 521.5,-834.4 534.2,-789.7 592.2,-741.6 592.9,-837 558.2,-890.4 
							529.5,-897.1 						"/>
						<polygon class="st2" points="506.8,-888.4 473.4,-859.7 449.4,-720.2 400,-620.8 400,-851.7 437.4,-879.8 						"/>
						<polygon class="st2" points="480.1,-844.4 458.1,-730.2 506.8,-734.3 538.2,-771.6 518.8,-792.3 514.1,-820.4 						"/>
					</g>
					<polygon class="st2" points="552.2,-761 534.2,-742.3 537.5,-618.1 578.9,-528.7 607.6,-541.4 616.9,-632.1 600.9,-727.6 					
						"/>
					<polygon class="st2" points="524.2,-736.3 525.5,-695.5 498.8,-586.1 452.7,-530.7 459.4,-477.9 454.1,-474.6 420,-544 
						414,-618.8 457.4,-717.6 499.5,-719.6 520.8,-736.9 					"/>
					<polygon class="st2" points="81.5,-337.1 93.2,-309.1 127.5,-303.7 130.2,-253.2 112.2,-181 100.4,-181.9 111.8,-230 
						99.6,-230.3 80.6,-179.2 66.1,-181 84.1,-232.7 71.6,-235.1 47.2,-180.1 29.2,-181.9 54,-239.1 45.4,-244.2 14.7,-195.5 
						-0.6,-197.3 45.4,-284.8 40.9,-292 -2.4,-274 -5.1,-283.9 30.1,-315.5 					"/>
					<polygon class="st2" points="699.9,-337.1 688.1,-309.1 653.8,-303.7 651.1,-253.2 669.2,-181 680.9,-181.9 669.5,-230 
						681.7,-230.3 700.8,-179.2 715.2,-181 697.3,-232.7 709.8,-235.1 734.1,-180.1 752.2,-181.9 727.4,-239.1 735.9,-244.2 
						766.6,-195.5 781.9,-197.3 735.9,-284.8 740.4,-292 783.7,-274 786.5,-283.9 751.3,-315.5 					"/>
					<polygon class="st2" points="569.5,-528.7 570.2,-458.6 647.9,-344.2 609.6,-473.9 					"/>
					<polygon class="st2" points="626.3,-565.4 610.9,-499.3 669.2,-315.8 680.5,-324.6 672.8,-399.4 665.7,-447.5 					"/>
					<polygon class="st2" points="481.9,674.5 465.4,688.5 467.8,710.8 501.4,667.5 497.1,662.3 					"/>
					<polygon class="st2" points="496.4,659.9 474.8,652.7 467.3,668.8 463.4,684.4 464.8,686.2 					"/>
					<polygon class="st2" points="441.5,684.8 441.5,682.2 439.8,674.8 429.9,682.8 428.3,692.1 429.4,703 					"/>
					<polygon class="st2" points="297.9,673.7 314.4,687.8 311.9,710.1 278.4,666.7 282.7,661.6 					"/>
					<polygon class="st2" points="283.4,659.2 304.9,652 312.4,668.1 316.3,683.6 315,685.4 					"/>
					<polygon class="st2" points="338.3,684 338.3,681.4 340,674 349.9,682 351.5,691.4 350.3,702.2 					"/>
				</g>
			</g>
		</g>
		<g>
			<g>
				<defs>
					<circle id="SVGID_3_" cx="390.3" cy="390.3" r="390.3"/>
				</defs>
				<clipPath id="SVGID_4_">
					<use xlink:href="#SVGID_3_"  style="overflow:visible;"/>
				</clipPath>
				<polygon class="st3" points="277.9,-564.1 315.9,-506.6 303.9,-481.3 261.8,-476.6 				"/>
			</g>
		</g>
		<g>
			<g>
				<defs>
					<circle id="SVGID_5_" cx="390.3" cy="390.3" r="390.3"/>
				</defs>
				<clipPath id="SVGID_6_">
					<use xlink:href="#SVGID_5_"  style="overflow:visible;"/>
				</clipPath>
				<polygon class="st4" points="314.6,-468.6 364,-415.2 347.3,-416.5 287.9,-414.5 221.1,-364.5 255.8,-462.6 				"/>
			</g>
		</g>
		<g>
			<g>
				<defs>
					<circle id="SVGID_7_" cx="390.3" cy="390.3" r="390.3"/>
				</defs>
				<clipPath id="SVGID_8_">
					<use xlink:href="#SVGID_7_"  style="overflow:visible;"/>
				</clipPath>
				<polygon class="st5" points="500.8,-564.1 462.8,-506.6 474.8,-481.3 516.8,-476.6 				"/>
			</g>
		</g>
		<g>
			<g>
				<defs>
					<circle id="SVGID_9_" cx="390.3" cy="390.3" r="390.3"/>
				</defs>
				<clipPath id="SVGID_10_">
					<use xlink:href="#SVGID_9_"  style="overflow:visible;"/>
				</clipPath>
				<polygon class="st6" points="407.2,-542.7 389.8,-593.4 371.1,-543.1 341.6,-469.3 391.6,-409.9 439,-469.3 				"/>
			</g>
		</g>
		<g>
			<g>
				<defs>
					<circle id="SVGID_11_" cx="390.3" cy="390.3" r="390.3"/>
				</defs>
				<clipPath id="SVGID_12_">
					<use xlink:href="#SVGID_11_"  style="overflow:visible;"/>
				</clipPath>
				<polygon class="st7" points="464.1,-468.6 414.7,-415.2 431.4,-416.5 490.8,-414.5 557.5,-364.5 522.8,-462.6 				"/>
			</g>
		</g>
		<g>
			<g>
				<defs>
					<circle id="SVGID_13_" cx="390.3" cy="390.3" r="390.3"/>
				</defs>
				<clipPath id="SVGID_14_">
					<use xlink:href="#SVGID_13_"  style="overflow:visible;"/>
				</clipPath>
				<polygon class="st8" points="239.1,-177.6 287.2,-203.6 361.3,-222.3 376,-264.4 374.6,-371.8 348.6,-407.2 301.2,-407.9 
					231.1,-349.1 230.5,-318.1 217,-254.3 221.1,-195.9 				"/>
			</g>
		</g>
		<g>
			<g>
				<defs>
					<circle id="SVGID_15_" cx="390.3" cy="390.3" r="390.3"/>
				</defs>
				<clipPath id="SVGID_16_">
					<use xlink:href="#SVGID_15_"  style="overflow:visible;"/>
				</clipPath>
				<polygon class="st9" points="539.5,-177.6 491.5,-203.6 417.4,-222.3 402.7,-264.4 404,-371.8 430,-407.2 477.4,-407.9 
					547.5,-349.1 548.2,-318.1 561.7,-254.3 557.5,-195.9 				"/>
			</g>
		</g>
		<g>
			<g>
				<defs>
					<circle id="SVGID_17_" cx="390.3" cy="390.3" r="390.3"/>
				</defs>
				<clipPath id="SVGID_18_">
					<use xlink:href="#SVGID_17_"  style="overflow:visible;"/>
				</clipPath>
				<polygon class="st10" points="289.2,-182.9 279.2,-18.1 295.2,56.7 263.8,146.8 230.5,-11.4 247.2,-170.9 				"/>
			</g>
		</g>
		<g>
			<g>
				<defs>
					<circle id="SVGID_19_" cx="390.3" cy="390.3" r="390.3"/>
				</defs>
				<clipPath id="SVGID_20_">
					<use xlink:href="#SVGID_19_"  style="overflow:visible;"/>
				</clipPath>
				<polygon class="st11" points="326.6,-192.3 347.3,-137.5 355.3,6.6 378,-132.2 375.3,-219.6 				"/>
			</g>
		</g>
		<g>
			<g>
				<defs>
					<circle id="SVGID_21_" cx="390.3" cy="390.3" r="390.3"/>
				</defs>
				<clipPath id="SVGID_22_">
					<use xlink:href="#SVGID_21_"  style="overflow:visible;"/>
				</clipPath>
				<polygon class="st12" points="311.2,-186.9 286.5,-20.1 314.6,120.8 352.6,200.2 356.6,31.3 329.9,-37.4 328.6,-142.2 				"/>
			</g>
		</g>
		<g>
			<g>
				<defs>
					<circle id="SVGID_23_" cx="390.3" cy="390.3" r="390.3"/>
				</defs>
				<clipPath id="SVGID_24_">
					<use xlink:href="#SVGID_23_"  style="overflow:visible;"/>
				</clipPath>
				<polygon class="st13" points="230.5,-72.6 239.2,-168.5 217,-184.3 217,-158 				"/>
			</g>
		</g>
		<g>
			<g>
				<defs>
					<circle id="SVGID_25_" cx="390.3" cy="390.3" r="390.3"/>
				</defs>
				<clipPath id="SVGID_26_">
					<use xlink:href="#SVGID_25_"  style="overflow:visible;"/>
				</clipPath>
				<polygon class="st14" points="489.5,-182.9 499.5,-18.1 483.4,56.7 514.8,146.8 548.2,-11.4 531.5,-170.9 				"/>
			</g>
		</g>
		<g>
			<g>
				<defs>
					<circle id="SVGID_27_" cx="390.3" cy="390.3" r="390.3"/>
				</defs>
				<clipPath id="SVGID_28_">
					<use xlink:href="#SVGID_27_"  style="overflow:visible;"/>
				</clipPath>
				<polygon class="st15" points="468.2,-186.9 492.9,-20.1 464.8,120.8 426.8,200.2 422.8,31.3 449.5,-37.4 450.8,-142.2 				"/>
			</g>
		</g>
		<g>
			<g>
				<defs>
					<circle id="SVGID_29_" cx="390.3" cy="390.3" r="390.3"/>
				</defs>
				<clipPath id="SVGID_30_">
					<use xlink:href="#SVGID_29_"  style="overflow:visible;"/>
				</clipPath>
				<polygon class="st16" points="452.1,-192.3 431.4,-137.5 423.4,6.6 400.7,-132.2 403.3,-219.6 				"/>
			</g>
		</g>
		<g>
			<g>
				<defs>
					<circle id="SVGID_31_" cx="390.3" cy="390.3" r="390.3"/>
				</defs>
				<clipPath id="SVGID_32_">
					<use xlink:href="#SVGID_31_"  style="overflow:visible;"/>
				</clipPath>
				<polygon class="st17" points="549.6,-72.6 540.8,-168.5 563.1,-184.3 563.1,-158 				"/>
			</g>
		</g>
		<g>
			<g>
				<defs>
					<circle id="SVGID_33_" cx="390.3" cy="390.3" r="390.3"/>
				</defs>
				<clipPath id="SVGID_34_">
					<use xlink:href="#SVGID_33_"  style="overflow:visible;"/>
				</clipPath>
				<polygon class="st18" points="316.2,711.3 349.9,709.1 334.8,685.1 343.9,637.6 323.9,644 306.9,642.3 319.9,688.1 				"/>
			</g>
		</g>
		<g>
			<g>
				<defs>
					<circle id="SVGID_35_" cx="390.3" cy="390.3" r="390.3"/>
				</defs>
				<clipPath id="SVGID_36_">
					<use xlink:href="#SVGID_35_"  style="overflow:visible;"/>
				</clipPath>
				<polygon class="st19" points="463.1,711.3 429.4,709.1 444.6,685.1 435.4,637.6 455.5,644 472.4,642.3 459.5,688.1 				"/>
			</g>
		</g>
		<g>
			<g>
				<defs>
					<circle id="SVGID_37_" cx="390.3" cy="390.3" r="390.3"/>
				</defs>
				<clipPath id="SVGID_38_">
					<use xlink:href="#SVGID_37_"  style="overflow:visible;"/>
				</clipPath>
				<polygon class="st20" points="313.9,166.3 318.3,389.9 356.7,433.3 375.3,405.4 376.5,345.3 359.8,255.5 				"/>
			</g>
		</g>
		<g>
			<g>
				<defs>
					<circle id="SVGID_39_" cx="390.3" cy="390.3" r="390.3"/>
				</defs>
				<clipPath id="SVGID_40_">
					<use xlink:href="#SVGID_39_"  style="overflow:visible;"/>
				</clipPath>
				<polygon class="st21" points="302.2,153.3 299.7,336 310.2,405.4 292.2,420.3 260.6,355.9 268.7,231.3 284.2,180.5 285.4,144 
									"/>
			</g>
		</g>
		<g>
			<g>
				<defs>
					<circle id="SVGID_41_" cx="390.3" cy="390.3" r="390.3"/>
				</defs>
				<clipPath id="SVGID_42_">
					<use xlink:href="#SVGID_41_"  style="overflow:visible;"/>
				</clipPath>
				<polygon class="st22" points="315.2,413.5 297.2,429.6 324.5,559.1 326.3,637.6 344.4,632.5 346.1,560.3 359.1,468.6 
					355.4,447.5 				"/>
			</g>
		</g>
		<g>
			<g>
				<defs>
					<circle id="SVGID_43_" cx="390.3" cy="390.3" r="390.3"/>
				</defs>
				<clipPath id="SVGID_44_">
					<use xlink:href="#SVGID_43_"  style="overflow:visible;"/>
				</clipPath>
				<polygon class="st23" points="300.9,503.9 317.6,586.9 318.5,605.4 321.9,638.7 306.9,637.6 298.7,605.7 292.9,571.5 292.9,494 
									"/>
			</g>
		</g>
		<g>
			<g>
				<defs>
					<circle id="SVGID_45_" cx="390.3" cy="390.3" r="390.3"/>
				</defs>
				<clipPath id="SVGID_46_">
					<use xlink:href="#SVGID_45_"  style="overflow:visible;"/>
				</clipPath>
				<g class="st24">
					<polygon class="st25" points="466.3,166.3 461.9,389.9 423.5,433.3 405,405.4 403.7,345.3 420.4,255.5 					"/>
					<polygon class="st25" points="478.1,153.3 480.5,336 470,405.4 488,420.3 519.6,355.9 511.5,231.3 496,180.5 494.8,144 					
						"/>
					<polygon class="st25" points="464.2,413.5 482.2,429.6 454.9,559.1 453.1,637.6 435,632.5 433.2,560.3 420.2,468.6 
						423.9,447.5 					"/>
					<polygon class="st25" points="478.5,503.9 461.7,586.9 460.8,605.4 457.5,638.7 472.4,637.6 480.7,605.7 486.5,571.5 
						486.5,494 					"/>
				</g>
			</g>
		</g>
	</g>
</g>
<g id="Layer_1_1_">
</g>
</svg>
