<svg xmlns="http://www.w3.org/2000/svg" xmlns:xlink="http://www.w3.org/1999/xlink" viewBox="0 0 874.68 874.68"><defs><style>.cls-1{fill:none;}.cls-2{fill:#f7f7f7;}.cls-3{clip-path:url(#clip-path);}.cls-4{fill:#d9dadb;}.cls-5{fill:#e0af12;}.cls-6{clip-path:url(#clip-path-2);}.cls-7{clip-path:url(#clip-path-3);}</style><clipPath id="clip-path"><circle class="cls-1" cx="437.34" cy="437.34" r="437.34"/></clipPath><clipPath id="clip-path-2"><circle class="cls-1" cx="-126.11" cy="1602.19" r="437.34"/></clipPath><clipPath id="clip-path-3"><circle class="cls-1" cx="791.12" cy="1602.01" r="437.34"/></clipPath></defs><title>Both Calf</title><g id="Back_Left_Calf" data-name="Back Left Calf"><circle class="cls-2" cx="437.34" cy="437.34" r="437.34"/><g class="cls-3"><polygon class="cls-4" points="533.23 755.77 514.72 771.51 517.49 796.5 555.11 747.94 550.22 742.18 533.23 755.77"/><polygon class="cls-4" points="549.48 739.5 525.32 731.4 516.91 749.43 512.54 766.87 514.07 768.86 549.48 739.5"/><polygon class="cls-4" points="487.92 767.32 487.92 764.42 486.09 756.13 474.92 765.08 473.17 775.54 474.46 787.73 487.92 767.32"/><polygon class="cls-4" points="327.04 754.93 345.55 770.66 342.78 795.65 305.16 747.1 310.05 741.34 327.04 754.93"/><polygon class="cls-4" points="310.79 738.65 334.95 730.56 343.36 748.59 347.73 766.03 346.2 768.02 310.79 738.65"/><polygon class="cls-4" points="372.35 766.47 372.35 763.58 374.18 755.29 385.35 764.24 387.1 774.7 385.81 786.89 372.35 766.47"/><polygon class="cls-4" points="317.32 -204.98 306.1 -20.24 324.06 63.53 288.9 164.5 251.51 -12.76 270.2 -191.51 317.32 -204.98"/><polygon class="cls-4" points="359.21 -215.45 382.39 -154.12 391.37 7.43 416.8 -148.13 413.81 -246.11 359.21 -215.45"/><polygon class="cls-4" points="342 -209.47 314.33 -22.48 345.74 135.32 388.38 224.32 392.86 35.1 362.95 -41.93 361.45 -159.35 342 -209.47"/><polygon class="cls-4" points="541.7 -204.98 552.92 -20.24 534.97 63.53 570.12 164.5 607.52 -12.76 588.82 -191.51 541.7 -204.98"/><polygon class="cls-4" points="517.85 -209.47 545.52 -22.48 514.11 135.32 471.48 224.32 466.99 35.1 496.91 -41.93 498.4 -159.35 517.85 -209.47"/><polygon class="cls-4" points="499.82 -215.45 476.63 -154.12 467.66 7.43 442.23 -148.13 445.22 -246.11 499.82 -215.45"/><polygon class="cls-4" points="347.62 796.99 385.35 794.53 368.35 767.68 378.64 714.43 356.2 721.66 337.18 719.75 351.7 771.07 347.62 796.99"/><polygon class="cls-4" points="512.19 796.99 474.46 794.53 491.45 767.68 481.17 714.43 503.61 721.66 522.62 719.75 508.11 771.07 512.19 796.99"/><polygon class="cls-5" points="345.01 186.33 349.87 436.94 392.91 485.53 413.74 454.29 415.13 386.95 396.38 286.3 345.01 186.33"/><polygon class="cls-5" points="331.82 171.76 329.05 376.54 340.85 454.29 320.72 470.95 285.31 398.75 294.34 259.22 311.69 202.3 313.08 161.34 331.82 171.76"/><polygon class="cls-5" points="346.4 463.31 326.27 481.36 356.81 626.45 358.88 714.43 379.13 708.69 381.11 627.84 395.69 525.1 391.52 501.5 346.4 463.31"/><polygon class="cls-5" points="330.44 564.67 349.18 657.69 350.19 678.35 353.96 715.67 337.18 714.43 327.94 678.71 321.41 640.33 321.41 553.56 330.44 564.67"/><polygon class="cls-5" points="515.74 186.33 510.88 436.94 467.84 485.53 447.02 454.29 445.63 386.95 464.37 286.3 515.74 186.33"/><polygon class="cls-5" points="528.93 171.76 531.71 376.54 519.91 454.29 540.04 470.95 575.44 398.75 566.42 259.22 549.06 202.3 547.67 161.34 528.93 171.76"/><polygon class="cls-5" points="513.41 463.31 533.54 481.36 502.99 626.45 500.93 714.43 480.67 708.69 478.7 627.84 464.12 525.1 468.28 501.5 513.41 463.31"/><polygon class="cls-5" points="529.37 564.67 510.63 657.69 509.62 678.35 505.85 715.67 522.62 714.43 531.87 678.71 538.4 640.33 538.4 553.56 529.37 564.67"/></g></g><g id="Front_Abs" data-name="Front Abs"><g class="cls-6"><polygon class="cls-4" points="-60.46 790.47 -68.34 827.23 -21.95 838.61 7.81 828.1 -60.46 790.47"/><polygon class="cls-4" points="-30.7 851.74 6.05 917.38 46.31 937.51 21.81 956.76 2.55 1012.77 -42.08 1031.15 -113.21 996.01 -95.47 857.86 -30.7 851.74"/><path class="cls-4" d="M24.09,832.44l16.1-8.71,50.38,55.74.28,21.22S25.06,832.93,24.09,832.44Z"/><path class="cls-4" d="M19,834.75c0,1.11,70.72,75.34,70.72,75.34L91.83,976,67.32,934,20.06,913.88-13.2,852.61Z"/></g><g class="cls-7"><polygon class="cls-4" points="741.63 755.38 773.56 803.78 789.35 859.38 752.56 830.03 737.79 777.55 741.63 755.38"/><polygon class="cls-4" points="726.31 790.65 734.19 827.41 687.8 838.79 658.04 828.28 726.31 790.65"/><polygon class="cls-4" points="696.55 851.91 659.79 917.56 619.53 937.69 644.04 956.94 663.29 1012.96 707.93 1031.33 779.05 996.19 761.32 858.04 696.55 851.91"/><polygon class="cls-4" points="876.36 643.38 876.36 591.86 849.2 545.02 791.09 526.16 733.05 545.02 705.88 591.86 705.88 643.38 692.77 646.18 698.39 691.15 719.93 698.64 743.35 747.35 791.35 767.85 838.89 747.35 862.31 698.64 883.85 691.15 889.47 646.18 876.36 643.38"/><polygon class="cls-4" points="857.81 790.65 849.93 827.41 896.32 838.79 926.08 828.28 857.81 790.65"/><polygon class="cls-4" points="887.57 851.91 924.33 917.56 964.59 937.69 940.08 956.94 920.83 1012.96 876.19 1031.33 805.06 996.19 822.8 858.04 887.57 851.91"/><path class="cls-4" d="M641.76,832.62l-16.1-8.71-50.38,55.74L575,900.87S640.79,833.11,641.76,832.62Z"/><path class="cls-4" d="M646.87,834.93c0,1.11-70.71,75.34-70.71,75.34L574,976.2l24.51-42,47.26-20.13,33.26-61.26Z"/><polygon class="cls-4" points="841.68 755.38 809.74 803.78 793.95 859.38 830.75 830.03 843.53 776.7 841.68 755.38"/></g></g></svg>