<?xml version="1.0" encoding="utf-8"?>
<!-- Generator: Adobe Illustrator 22.0.1, SVG Export Plug-In . SVG Version: 6.00 Build 0)  -->
<svg version="1.1" id="Layer_1" xmlns="http://www.w3.org/2000/svg" xmlns:xlink="http://www.w3.org/1999/xlink" x="0px" y="0px"
	 viewBox="0 0 465.8 466.3" style="enable-background:new 0 0 465.8 466.3;" xml:space="preserve">
<style type="text/css">
	.st0{clip-path:url(#SVGID_2_);fill:#F7F7F7;}
	.st1{clip-path:url(#SVGID_4_);}
	.st2{fill:#D9DADB;}
	.st3{clip-path:url(#SVGID_6_);fill:#E0AF12;}
	.st4{clip-path:url(#SVGID_8_);fill:#E0AF12;}
	.st5{clip-path:url(#SVGID_10_);fill:#D9DADB;}
	.st6{clip-path:url(#SVGID_12_);fill:#D9DADB;}
	.st7{clip-path:url(#SVGID_14_);fill:#D9DADB;}
	.st8{clip-path:url(#SVGID_16_);fill:#D9DADB;}
	.st9{clip-path:url(#SVGID_18_);}
	.st10{clip-path:url(#SVGID_20_);fill:#D9DADB;}
	.st11{clip-path:url(#SVGID_22_);fill:#D9DADB;}
	.st12{clip-path:url(#SVGID_24_);fill:#D9DADB;}
	.st13{clip-path:url(#SVGID_26_);fill:#D9DADB;}
	.st14{clip-path:url(#SVGID_28_);fill:#D9DADB;}
	.st15{clip-path:url(#SVGID_30_);fill:#D9DADB;}
	.st16{clip-path:url(#SVGID_32_);fill:#D9DADB;}
	.st17{clip-path:url(#SVGID_34_);fill:#D9DADB;}
	.st18{clip-path:url(#SVGID_36_);fill:#D9DADB;}
	.st19{clip-path:url(#SVGID_38_);fill:#D9DADB;}
	.st20{clip-path:url(#SVGID_40_);fill:#D9DADB;}
	.st21{clip-path:url(#SVGID_42_);fill:#D9DADB;}
	.st22{clip-path:url(#SVGID_44_);fill:#D9DADB;}
	.st23{clip-path:url(#SVGID_46_);fill:#D9DADB;}
	.st24{clip-path:url(#SVGID_48_);fill:#D9DADB;}
	.st25{clip-path:url(#SVGID_50_);fill:#D9DADB;}
	.st26{clip-path:url(#SVGID_52_);fill:#D9DADB;}
	.st27{clip-path:url(#SVGID_54_);fill:#D9DADB;}
	.st28{clip-path:url(#SVGID_56_);}
</style>
<g id="Front_Right_Foot">
	<g>
		<g>
			<g>
				<defs>
					<circle id="SVGID_1_" cx="232.9" cy="232.9" r="232.9"/>
				</defs>
				<clipPath id="SVGID_2_">
					<use xlink:href="#SVGID_1_"  style="overflow:visible;"/>
				</clipPath>
				<circle class="st0" cx="186.9" cy="167.9" r="390.3"/>
			</g>
		</g>
		<g>
			<g>
				<defs>
					<circle id="SVGID_3_" cx="232.9" cy="232.9" r="232.9"/>
				</defs>
				<clipPath id="SVGID_4_">
					<use xlink:href="#SVGID_3_"  style="overflow:visible;"/>
				</clipPath>
				<g class="st1">
					<polygon class="st2" points="183.4,-1319.7 215.4,-1271.3 231.1,-1215.7 194.4,-1245.1 179.6,-1297.5 					"/>
					<polygon class="st2" points="168.1,-1284.4 176,-1247.7 129.6,-1236.3 99.8,-1246.8 					"/>
					<polygon class="st2" points="138.3,-1223.2 101.6,-1157.5 61.3,-1137.4 85.8,-1118.2 105.1,-1062.1 149.7,-1043.8 
						220.9,-1078.9 203.1,-1217.1 					"/>
					<path class="st2" d="M66.1-978.9c0.5-0.4,1.1-0.7,1.6-1l14.6-108.5l-28-40.3l-28.9,42l-24.5,147l2.2,19.7
						C22.9-940.8,43.5-960.9,66.1-978.9z"/>
					<path class="st2" d="M6.8-904.4c-0.5,0.6-1.1,1-1.7,1.3l3.7,32.6l51.6-55.1l4.8-35.6C44.5-943.6,25.3-924.4,6.8-904.4z"/>
					<polygon class="st2" points="12.3,-854.7 -59.6,-660.6 -36.7,-655.3 39.4,-811.8 53.5,-899.4 					"/>
					<polygon class="st2" points="-8.7,-930 1.8,-855.6 -66.6,-672.9 -77.2,-679.9 -50.8,-820.9 					"/>
					<polygon class="st2" points="11.4,-1093.7 -1.7,-953.6 -10.4,-1057.8 					"/>
					<polygon class="st2" points="318.2,-1431.7 318.2,-1483.2 291,-1530.1 232.9,-1548.9 174.8,-1530.1 147.7,-1483.2 
						147.7,-1431.7 134.6,-1428.9 140.2,-1384 161.7,-1376.5 185.1,-1327.8 233.1,-1307.2 280.7,-1327.8 304.1,-1376.5 325.6,-1384 
						331.3,-1428.9 					"/>
					<polygon class="st2" points="-89.5,-675.1 -78,-647.8 -44.6,-642.5 -41.9,-593.1 -59.5,-522.7 -71,-523.5 -59.9,-570.5 
						-71.8,-570.8 -90.4,-520.9 -104.5,-522.7 -87,-573.1 -99.2,-575.4 -123,-521.8 -140.6,-523.5 -116.4,-579.4 -124.8,-584.3 
						-154.7,-536.7 -169.7,-538.5 -124.8,-624 -129.2,-631 -171.5,-613.4 -174.1,-623.1 -139.7,-654 					"/>
					<polygon class="st2" points="299.6,-1284.4 291.7,-1247.7 338.1,-1236.3 367.9,-1246.8 					"/>
					<polygon class="st2" points="329.4,-1223.2 366.1,-1157.5 406.4,-1137.4 381.9,-1118.2 362.6,-1062.1 318,-1043.8 
						246.9,-1078.9 264.6,-1217.1 					"/>
					<path class="st2" d="M401.6-978.9c-0.5-0.4-1.1-0.7-1.6-1l-14.6-108.5l28-40.3l28.9,42l24.5,147l-2.2,19.7
						C444.8-940.8,424.2-960.9,401.6-978.9z"/>
					<path class="st2" d="M460.9-904.4c0.5,0.6,1.1,1,1.7,1.3l-3.7,32.6l-51.6-55.1l-4.8-35.6C423.2-943.6,442.4-924.4,460.9-904.4z
						"/>
					<polygon class="st2" points="455.4,-854.7 527.3,-660.6 504.4,-655.3 428.3,-811.8 414.3,-899.4 					"/>
					<polygon class="st2" points="476.4,-930 465.9,-855.6 534.4,-672.9 544.9,-679.9 518.5,-820.9 					"/>
					<polygon class="st2" points="456.3,-1093.7 469.4,-953.6 478.1,-1057.8 					"/>
					<polygon class="st2" points="557.2,-675.1 545.8,-647.8 512.3,-642.5 509.6,-593.1 527.2,-522.7 538.7,-523.5 527.6,-570.5 
						539.5,-570.8 558.1,-520.9 572.2,-522.7 554.7,-573.1 566.9,-575.4 590.7,-521.8 608.3,-523.5 584.1,-579.4 592.5,-584.3 
						622.4,-536.7 637.4,-538.5 592.5,-624 596.9,-631 639.2,-613.4 641.8,-623.1 607.4,-654 					"/>
					<path class="st2" d="M384.2-1242.5l16.1-8.7l50.4,55.7l0.3,21.2C450.9-1174.2,385.1-1242,384.2-1242.5z"/>
					<path class="st2" d="M379-1240.2c0,1.1,70.7,75.3,70.7,75.3l2.1,65.9l-24.5-42l-47.3-20.1l-33.3-61.3L379-1240.2z"/>
					<path class="st2" d="M83.6-1242.5l-16.1-8.7l-50.4,55.7l-0.3,21.2C16.8-1174.2,82.6-1242,83.6-1242.5z"/>
					<path class="st2" d="M88.7-1240.2c0,1.1-70.7,75.3-70.7,75.3l-2.1,65.9l24.5-42l47.3-20.1l33.3-61.3L88.7-1240.2z"/>
					<polygon class="st2" points="283.5,-1319.7 251.5,-1271.3 235.7,-1215.7 272.5,-1245.1 285.3,-1298.4 					"/>
					<polygon class="st2" points="182.7,-99.2 176.6,-79.8 163.4,2.1 161.6,111.4 180.1,218 179.2,81.4 198.6,26.8 201.2,-33.1 
											"/>
					<polygon class="st2" points="285,-99.2 291.1,-79.8 304.4,2.1 306.1,111.4 287.6,218 288.5,81.4 269.1,26.8 266.5,-33.1 					
						"/>
				</g>
			</g>
		</g>
		<g>
			<g>
				<defs>
					<circle id="SVGID_5_" cx="232.9" cy="232.9" r="232.9"/>
				</defs>
				<clipPath id="SVGID_6_">
					<use xlink:href="#SVGID_5_"  style="overflow:visible;"/>
				</clipPath>
				<polygon class="st3" points="203.6,278.5 201.2,343.1 195.1,368.7 176.6,368.7 171.3,351.1 165.1,350.2 166.4,367.8 
					143.1,360.8 136.9,357.2 110.5,351.5 109.6,330.8 135.2,287.6 148.7,270.7 177.5,287 				"/>
			</g>
		</g>
		<g>
			<g>
				<defs>
					<circle id="SVGID_7_" cx="232.9" cy="232.9" r="232.9"/>
				</defs>
				<clipPath id="SVGID_8_">
					<use xlink:href="#SVGID_7_"  style="overflow:visible;"/>
				</clipPath>
				<polygon class="st4" points="263.5,278.5 265.8,343.1 272,368.7 290.5,368.7 295.8,351.1 301.9,350.2 300.6,367.8 324,360.8 
					330.1,357.2 356.6,351.5 357.4,330.8 331.9,287.6 318.3,270.7 289.6,287 				"/>
			</g>
		</g>
		<g>
			<g>
				<defs>
					<circle id="SVGID_9_" cx="232.9" cy="232.9" r="232.9"/>
				</defs>
				<clipPath id="SVGID_10_">
					<use xlink:href="#SVGID_9_"  style="overflow:visible;"/>
				</clipPath>
				<polygon class="st5" points="141.8,230.2 140.8,240.4 152.5,263.3 176.9,279.3 201.9,271.1 194.1,247.2 				"/>
			</g>
		</g>
		<g>
			<g>
				<defs>
					<circle id="SVGID_11_" cx="232.9" cy="232.9" r="232.9"/>
				</defs>
				<clipPath id="SVGID_12_">
					<use xlink:href="#SVGID_11_"  style="overflow:visible;"/>
				</clipPath>
				<polygon class="st6" points="325.3,230.2 326.2,240.4 314.5,263.3 290.2,279.3 265.1,271.1 273,247.2 				"/>
			</g>
		</g>
		<g>
			<g>
				<defs>
					<circle id="SVGID_13_" cx="232.9" cy="232.9" r="232.9"/>
				</defs>
				<clipPath id="SVGID_14_">
					<use xlink:href="#SVGID_13_"  style="overflow:visible;"/>
				</clipPath>
				<polygon class="st7" points="140.4,-49.9 144.8,114 176.6,232.9 140,221.7 77.9,-1.4 99.9,-145.9 				"/>
			</g>
		</g>
		<g>
			<g>
				<defs>
					<circle id="SVGID_15_" cx="232.9" cy="232.9" r="232.9"/>
				</defs>
				<clipPath id="SVGID_16_">
					<use xlink:href="#SVGID_15_"  style="overflow:visible;"/>
				</clipPath>
				<polygon class="st8" points="326.6,-49.9 322.2,114 290.5,232.9 327.1,221.7 389.2,-1.4 367.1,-145.9 				"/>
			</g>
		</g>
		<g>
			<g>
				<defs>
					<circle id="SVGID_17_" cx="232.9" cy="232.9" r="232.9"/>
				</defs>
				<clipPath id="SVGID_18_">
					<use xlink:href="#SVGID_17_"  style="overflow:visible;"/>
				</clipPath>
				<g class="st9">
					<polygon class="st2" points="115.8,-219.1 113.1,-195.3 131.6,-172.4 137.8,-136.2 150.1,-131 160.7,-185.6 167.8,-205 
						161.6,-217.3 					"/>
					<polygon class="st2" points="197.7,-217.3 184.5,-180.3 156.3,-125.7 163.4,-75.4 183.6,-131.8 200.4,-163.6 					"/>
				</g>
			</g>
		</g>
		<g>
			<g>
				<defs>
					<circle id="SVGID_19_" cx="232.9" cy="232.9" r="232.9"/>
				</defs>
				<clipPath id="SVGID_20_">
					<use xlink:href="#SVGID_19_"  style="overflow:visible;"/>
				</clipPath>
				<polygon class="st10" points="351.9,-219.1 354.6,-195.3 336.1,-172.4 329.9,-136.2 317.6,-131 307,-185.6 300,-205 
					306.1,-217.3 				"/>
			</g>
		</g>
		<g>
			<g>
				<defs>
					<circle id="SVGID_21_" cx="232.9" cy="232.9" r="232.9"/>
				</defs>
				<clipPath id="SVGID_22_">
					<use xlink:href="#SVGID_21_"  style="overflow:visible;"/>
				</clipPath>
				<polygon class="st11" points="270,-217.3 283.2,-180.3 311.4,-125.7 304.4,-75.4 284.1,-131.8 267.3,-163.6 				"/>
			</g>
		</g>
		<g>
			<g>
				<defs>
					<circle id="SVGID_23_" cx="232.9" cy="232.9" r="232.9"/>
				</defs>
				<clipPath id="SVGID_24_">
					<use xlink:href="#SVGID_23_"  style="overflow:visible;"/>
				</clipPath>
				<polygon class="st12" points="97.1,-658.1 155,-530.6 168.2,-427.3 143.5,-282 90,-430 86.7,-582.2 96.4,-658 				"/>
			</g>
		</g>
		<g>
			<g>
				<defs>
					<circle id="SVGID_25_" cx="232.9" cy="232.9" r="232.9"/>
				</defs>
				<clipPath id="SVGID_26_">
					<use xlink:href="#SVGID_25_"  style="overflow:visible;"/>
				</clipPath>
				<polygon class="st13" points="89.7,-385.7 82.3,-421.2 133.3,-281.2 125.6,-261.3 102.9,-322.3 				"/>
			</g>
		</g>
		<g>
			<g>
				<defs>
					<circle id="SVGID_27_" cx="232.9" cy="232.9" r="232.9"/>
				</defs>
				<clipPath id="SVGID_28_">
					<use xlink:href="#SVGID_27_"  style="overflow:visible;"/>
				</clipPath>
				<polygon class="st14" points="170.8,-473.1 172.2,-469.8 197.9,-408.3 181.3,-256 155,-270 177.8,-411.8 				"/>
			</g>
		</g>
		<g>
			<g>
				<defs>
					<circle id="SVGID_29_" cx="232.9" cy="232.9" r="232.9"/>
				</defs>
				<clipPath id="SVGID_30_">
					<use xlink:href="#SVGID_29_"  style="overflow:visible;"/>
				</clipPath>
				<polygon class="st15" points="296.9,-473.1 295.6,-469.8 269.8,-408.3 286.4,-256 312.7,-270 289.9,-411.8 				"/>
			</g>
		</g>
		<g>
			<g>
				<defs>
					<circle id="SVGID_31_" cx="232.9" cy="232.9" r="232.9"/>
				</defs>
				<clipPath id="SVGID_32_">
					<use xlink:href="#SVGID_31_"  style="overflow:visible;"/>
				</clipPath>
				<polygon class="st16" points="370.3,-656.1 312.4,-528.6 299.2,-425.3 323.9,-280 377.4,-428 380.7,-580.2 371,-656 				"/>
			</g>
		</g>
		<g>
			<g>
				<defs>
					<circle id="SVGID_33_" cx="232.9" cy="232.9" r="232.9"/>
				</defs>
				<clipPath id="SVGID_34_">
					<use xlink:href="#SVGID_33_"  style="overflow:visible;"/>
				</clipPath>
				<polygon class="st17" points="377.7,-383.7 385.1,-419.2 334.1,-279.2 341.8,-259.3 364.5,-320.3 				"/>
			</g>
		</g>
		<g>
			<g>
				<defs>
					<circle id="SVGID_35_" cx="232.9" cy="232.9" r="232.9"/>
				</defs>
				<clipPath id="SVGID_36_">
					<use xlink:href="#SVGID_35_"  style="overflow:visible;"/>
				</clipPath>
				<polygon class="st18" points="82,-772.1 51.3,-660 66.4,-657.5 96,-664.2 136.3,-667.9 156.4,-692.7 146.5,-717.5 121.9,-724.8 
									"/>
			</g>
		</g>
		<g>
			<g>
				<defs>
					<circle id="SVGID_37_" cx="232.9" cy="232.9" r="232.9"/>
				</defs>
				<clipPath id="SVGID_38_">
					<use xlink:href="#SVGID_37_"  style="overflow:visible;"/>
				</clipPath>
				<polygon class="st19" points="385.4,-770.1 416.1,-658 401,-655.5 371.4,-662.2 331.1,-665.9 311,-690.7 320.9,-715.5 
					345.4,-722.8 				"/>
			</g>
		</g>
		<g>
			<g>
				<defs>
					<circle id="SVGID_39_" cx="232.9" cy="232.9" r="232.9"/>
				</defs>
				<clipPath id="SVGID_40_">
					<use xlink:href="#SVGID_39_"  style="overflow:visible;"/>
				</clipPath>
				<polygon class="st20" points="139.1,-662.2 106.3,-659.3 164.3,-544.9 203.8,-422.3 199.7,-507.2 				"/>
			</g>
		</g>
		<g>
			<g>
				<defs>
					<circle id="SVGID_41_" cx="232.9" cy="232.9" r="232.9"/>
				</defs>
				<clipPath id="SVGID_42_">
					<use xlink:href="#SVGID_41_"  style="overflow:visible;"/>
				</clipPath>
				<polygon class="st21" points="203.3,-637.4 203.7,-638 200.6,-646 162.2,-688 149.2,-669.8 173.5,-607.2 				"/>
			</g>
		</g>
		<g>
			<g>
				<defs>
					<circle id="SVGID_43_" cx="232.9" cy="232.9" r="232.9"/>
				</defs>
				<clipPath id="SVGID_44_">
					<use xlink:href="#SVGID_43_"  style="overflow:visible;"/>
				</clipPath>
				<polygon class="st22" points="178.4,-594.6 205.5,-524.7 214.5,-610.5 209.2,-624.1 				"/>
			</g>
		</g>
		<g>
			<g>
				<defs>
					<circle id="SVGID_45_" cx="232.9" cy="232.9" r="232.9"/>
				</defs>
				<clipPath id="SVGID_46_">
					<use xlink:href="#SVGID_45_"  style="overflow:visible;"/>
				</clipPath>
				<polygon class="st23" points="289.3,-594.6 262.2,-524.7 253.2,-610.5 258.5,-624.1 				"/>
			</g>
		</g>
		<g>
			<g>
				<defs>
					<circle id="SVGID_47_" cx="232.9" cy="232.9" r="232.9"/>
				</defs>
				<clipPath id="SVGID_48_">
					<use xlink:href="#SVGID_47_"  style="overflow:visible;"/>
				</clipPath>
				<polygon class="st24" points="328.3,-660.2 361,-657.3 303,-542.9 263.5,-420.3 267.6,-505.2 				"/>
			</g>
		</g>
		<g>
			<g>
				<defs>
					<circle id="SVGID_49_" cx="232.9" cy="232.9" r="232.9"/>
				</defs>
				<clipPath id="SVGID_50_">
					<use xlink:href="#SVGID_49_"  style="overflow:visible;"/>
				</clipPath>
				<polygon class="st25" points="264.1,-635.4 263.6,-636 266.8,-644 305.1,-686 318.2,-667.8 293.9,-605.2 				"/>
			</g>
		</g>
		<g>
			<g>
				<defs>
					<circle id="SVGID_51_" cx="232.9" cy="232.9" r="232.9"/>
				</defs>
				<clipPath id="SVGID_52_">
					<use xlink:href="#SVGID_51_"  style="overflow:visible;"/>
				</clipPath>
				<polygon class="st26" points="65,-649.1 85.1,-655.3 77.5,-589.9 76.3,-422.3 102.8,-293.4 102.5,-232.2 110.4,-158.1 
					100.1,-162 89.3,-136.5 89.7,-307.5 64.4,-422.3 47.5,-652.5 				"/>
			</g>
		</g>
		<g>
			<g>
				<defs>
					<circle id="SVGID_53_" cx="232.9" cy="232.9" r="232.9"/>
				</defs>
				<clipPath id="SVGID_54_">
					<use xlink:href="#SVGID_53_"  style="overflow:visible;"/>
				</clipPath>
				<polygon class="st27" points="402.4,-647.1 382.2,-653.3 389.9,-587.9 391.1,-420.3 364.6,-291.4 364.9,-230.2 356.9,-156.1 
					367.2,-160 378.1,-134.5 377.7,-305.5 402.9,-420.3 419.9,-650.5 				"/>
			</g>
		</g>
		<g>
			<g>
				<defs>
					<circle id="SVGID_55_" cx="232.9" cy="232.9" r="232.9"/>
				</defs>
				<clipPath id="SVGID_56_">
					<use xlink:href="#SVGID_55_"  style="overflow:visible;"/>
				</clipPath>
				<g class="st28">
					<polygon class="st2" points="119.6,-996 147.1,-980.7 143.9,-1016.9 					"/>
					<polygon class="st2" points="142,-1030.7 89.3,-1052.5 109.2,-999.2 					"/>
					<polygon class="st2" points="109.5,-993.9 145.3,-972 151.5,-928.3 116.5,-951 					"/>
					<polygon class="st2" points="118.2,-940.5 149.7,-918.6 154.1,-874 119.1,-902 					"/>
					<polygon class="st2" points="153.2,-850.2 114.7,-879.1 111.4,-840.3 84,-790.1 126.1,-732.2 148,-728.7 155.9,-811 					"/>
					<polygon class="st2" points="348.1,-996 320.6,-980.7 323.8,-1016.9 					"/>
					<polygon class="st2" points="325.7,-1030.7 378.4,-1052.5 358.6,-999.2 					"/>
					<polygon class="st2" points="358.2,-993.9 322.4,-972 316.2,-928.3 351.2,-951 					"/>
					<polygon class="st2" points="349.5,-940.5 318,-918.6 313.6,-874 348.6,-902 					"/>
					<polygon class="st2" points="314.5,-850.2 353,-879.1 356.3,-840.3 383.7,-790.1 341.6,-732.2 319.7,-728.7 311.9,-811 					
						"/>
					<g>
						<polygon class="st2" points="160.7,-1031.3 226.8,-1061.1 224.8,-1012.8 165.3,-982.4 						"/>
						<polygon class="st2" points="171.3,-970.5 172.6,-936.2 221.5,-946.7 224.2,-993.7 						"/>
						<polygon class="st2" points="229.4,-634.1 216.6,-759.2 216.2,-840.7 169.9,-863.5 164.6,-714.7 						"/>
						<polygon class="st2" points="174.6,-919.6 173.9,-877.3 220.9,-864.8 221.5,-930.9 						"/>
						<polygon class="st2" points="307,-1031.3 240.9,-1061.1 242.9,-1012.8 302.4,-982.4 						"/>
						<polygon class="st2" points="296.4,-970.5 295.1,-936.2 246.2,-946.7 243.6,-993.7 						"/>
						<polygon class="st2" points="238.3,-634.1 251.1,-759.2 251.5,-840.7 297.9,-863.5 303.1,-714.7 						"/>
						<polygon class="st2" points="293.1,-919.6 293.8,-877.3 246.9,-864.8 246.2,-930.9 						"/>
					</g>
				</g>
			</g>
		</g>
	</g>
</g>
<g id="Layer_1_1_">
</g>
</svg>
