<?xml version="1.0" encoding="utf-8"?>
<!-- Generator: Adobe Illustrator 22.0.1, SVG Export Plug-In . SVG Version: 6.00 Build 0)  -->
<svg version="1.1" id="Layer_1" xmlns="http://www.w3.org/2000/svg" xmlns:xlink="http://www.w3.org/1999/xlink" x="0px" y="0px"
	 viewBox="0 0 875.4 877.8" style="enable-background:new 0 0 875.4 877.8;" xml:space="preserve">
<style type="text/css">
	.st0{fill:#F7F7F7;}
	.st1{clip-path:url(#SVGID_2_);}
	.st2{fill:#D9DADB;}
	.st3{clip-path:url(#SVGID_4_);fill:#D9DADB;}
	.st4{clip-path:url(#SVGID_6_);fill:#D9DADB;}
	.st5{clip-path:url(#SVGID_8_);fill:#D9DADB;}
	.st6{clip-path:url(#SVGID_10_);fill:#D9DADB;}
	.st7{clip-path:url(#SVGID_12_);fill:#D9DADB;}
	.st8{clip-path:url(#SVGID_14_);fill:#E0AF12;}
	.st9{clip-path:url(#SVGID_16_);fill:#E0AF12;}
	.st10{clip-path:url(#SVGID_18_);fill:#D9DADB;}
	.st11{clip-path:url(#SVGID_20_);fill:#D9DADB;}
	.st12{clip-path:url(#SVGID_22_);fill:#D9DADB;}
	.st13{clip-path:url(#SVGID_24_);fill:#D9DADB;}
	.st14{clip-path:url(#SVGID_26_);fill:#D9DADB;}
	.st15{clip-path:url(#SVGID_28_);fill:#D9DADB;}
	.st16{clip-path:url(#SVGID_30_);fill:#D9DADB;}
	.st17{clip-path:url(#SVGID_32_);fill:#D9DADB;}
	.st18{clip-path:url(#SVGID_34_);fill:#D9DADB;}
	.st19{clip-path:url(#SVGID_36_);fill:#D9DADB;}
	.st20{clip-path:url(#SVGID_38_);fill:#D9DADB;}
	.st21{clip-path:url(#SVGID_40_);fill:#D9DADB;}
	.st22{clip-path:url(#SVGID_42_);fill:#D9DADB;}
	.st23{clip-path:url(#SVGID_44_);fill:#D9DADB;}
	.st24{clip-path:url(#SVGID_46_);fill:#D9DADB;}
	.st25{clip-path:url(#SVGID_48_);fill:#D9DADB;}
	.st26{clip-path:url(#SVGID_50_);fill:#D9DADB;}
	.st27{clip-path:url(#SVGID_52_);fill:#D9DADB;}
</style>
<g id="Back_Right_Glutes">
	<circle class="st0" cx="437.3" cy="437.3" r="437.3"/>
	<g>
		<g>
			<defs>
				<circle id="SVGID_1_" cx="437.3" cy="437.3" r="437.3"/>
			</defs>
			<clipPath id="SVGID_2_">
				<use xlink:href="#SVGID_1_"  style="overflow:visible;"/>
			</clipPath>
			<g class="st1">
				<polygon class="st2" points="397.9,-295.5 391.9,-232.7 312.4,-195.4 395.9,-185.4 432.6,-213.4 425.3,-317.5 				"/>
				<polygon class="st2" points="273.7,-53.9 291.8,-35.2 288.4,89 247,178.4 218.3,165.7 209,75 225,-20.5 				"/>
				<polygon class="st2" points="301.8,-29.2 300.4,11.6 327.1,121 373.2,176.4 366.5,229.1 371.9,232.5 405.9,163.1 411.9,88.3 
					368.5,-10.5 326.5,-12.5 305.1,-29.8 				"/>
				<polygon class="st2" points="259.1,178.4 258.4,248.5 180.7,362.9 219,233.1 				"/>
				<polygon class="st2" points="202.3,141.7 217.7,207.8 159.4,391.3 148.1,382.5 155.8,307.7 162.9,259.6 				"/>
				<polygon class="st2" points="524.1,-379.6 522.8,-452.3 488.1,-493.7 438.7,-503.1 386.6,-493.7 351.9,-452.3 350.6,-379.6 
					332.5,-374.2 339.2,-336.2 353.9,-327.5 371.9,-329.5 387.9,-293.5 409.3,-321.5 438.7,-330.2 465.4,-321.5 486.7,-293.5 
					502.8,-329.5 520.8,-327.5 535.5,-336.2 542.1,-374.2 				"/>
				<polygon class="st2" points="475.3,-295.5 481.3,-232.7 560.7,-195.4 477.3,-185.4 440.6,-213.4 447.9,-317.5 				"/>
				<g>
					<polygon class="st2" points="334.5,-154.6 329.1,-138.6 304.4,-127.3 291.8,-82.6 233.7,-34.5 233,-130 267.7,-183.3 
						296.4,-190 					"/>
					<polygon class="st2" points="319.1,-181.3 352.5,-152.6 376.5,-13.1 425.9,86.3 425.9,-144.6 388.5,-172.7 					"/>
					<polygon class="st2" points="345.8,-137.3 367.8,-23.2 319.1,-27.2 287.8,-64.5 307.1,-85.2 311.8,-113.3 					"/>
					<polygon class="st2" points="538.7,-154.6 544.1,-138.6 568.8,-127.3 581.4,-82.6 639.5,-34.5 640.2,-130 605.5,-183.3 
						576.8,-190 					"/>
					<polygon class="st2" points="554.1,-181.3 520.7,-152.6 496.7,-13.1 447.3,86.3 447.3,-144.6 484.7,-172.7 					"/>
					<polygon class="st2" points="527.4,-137.3 505.3,-23.2 554.1,-27.2 585.4,-64.5 566.1,-85.2 561.4,-113.3 					"/>
				</g>
				<polygon class="st2" points="599.5,-53.9 581.4,-35.2 584.8,89 626.2,178.4 654.9,165.7 664.2,75 648.2,-20.5 				"/>
				<polygon class="st2" points="571.4,-29.2 572.8,11.6 546.1,121 500,176.4 506.7,229.1 501.3,232.5 467.3,163.1 461.3,88.3 
					504.7,-10.5 546.7,-12.5 568.1,-29.8 				"/>
				<polygon class="st2" points="128.7,370 140.5,398 174.8,403.4 177.5,453.9 159.4,526.1 147.7,525.2 159.1,477.1 146.9,476.8 
					127.8,527.9 113.4,526.1 131.3,474.4 118.8,472 94.5,527 76.4,525.2 101.2,468 92.7,462.9 62,511.6 46.7,509.8 92.7,422.3 
					88.2,415.1 44.8,433.1 42.1,423.2 77.3,391.6 				"/>
				<polygon class="st2" points="747.1,370 735.4,398 701.1,403.4 698.4,453.9 716.4,526.1 728.2,525.2 716.8,477.1 729,476.8 
					748,527.9 762.5,526.1 744.5,474.4 757,472 781.4,527 799.4,525.2 774.6,468 783.2,462.9 813.9,511.6 829.2,509.8 783.2,422.3 
					787.7,415.1 831,433.1 833.7,423.2 798.5,391.6 				"/>
				<polygon class="st2" points="616.8,178.4 617.5,248.5 695.1,362.9 656.9,233.1 				"/>
				<polygon class="st2" points="673.5,141.7 658.2,207.8 716.5,391.3 727.8,382.5 720.1,307.7 712.9,259.6 				"/>
				<polygon class="st2" points="529.2,1381.6 512.6,1395.6 515.1,1417.9 548.7,1374.6 544.3,1369.4 				"/>
				<polygon class="st2" points="543.7,1367 522.1,1359.8 514.6,1375.9 510.7,1391.5 512.1,1393.2 				"/>
				<polygon class="st2" points="488.7,1391.9 488.7,1389.3 487.1,1381.9 477.1,1389.9 475.6,1399.2 476.7,1410.1 				"/>
				<polygon class="st2" points="345.1,1380.8 361.7,1394.9 359.2,1417.2 325.6,1373.8 330,1368.7 				"/>
				<polygon class="st2" points="330.6,1366.3 352.2,1359.1 359.7,1375.2 363.6,1390.7 362.2,1392.5 				"/>
				<polygon class="st2" points="385.6,1391.1 385.6,1388.5 387.2,1381.1 397.2,1389.1 398.8,1398.5 397.6,1409.3 				"/>
			</g>
		</g>
		<g>
			<defs>
				<circle id="SVGID_3_" cx="437.3" cy="437.3" r="437.3"/>
			</defs>
			<clipPath id="SVGID_4_">
				<use xlink:href="#SVGID_3_"  style="overflow:visible;"/>
			</clipPath>
			<polygon class="st3" points="325.1,143 363.2,200.4 351.2,225.8 309.1,230.5 			"/>
		</g>
		<g>
			<defs>
				<circle id="SVGID_5_" cx="437.3" cy="437.3" r="437.3"/>
			</defs>
			<clipPath id="SVGID_6_">
				<use xlink:href="#SVGID_5_"  style="overflow:visible;"/>
			</clipPath>
			<polygon class="st4" points="361.8,238.5 411.2,291.9 394.5,290.6 335.1,292.6 268.4,342.6 303.1,244.5 			"/>
		</g>
		<g>
			<defs>
				<circle id="SVGID_7_" cx="437.3" cy="437.3" r="437.3"/>
			</defs>
			<clipPath id="SVGID_8_">
				<use xlink:href="#SVGID_7_"  style="overflow:visible;"/>
			</clipPath>
			<polygon class="st5" points="548.1,143 510,200.4 522,225.8 564.1,230.5 			"/>
		</g>
		<g>
			<defs>
				<circle id="SVGID_9_" cx="437.3" cy="437.3" r="437.3"/>
			</defs>
			<clipPath id="SVGID_10_">
				<use xlink:href="#SVGID_9_"  style="overflow:visible;"/>
			</clipPath>
			<polygon class="st6" points="454.5,164.4 437.1,113.7 418.4,164 388.8,237.8 438.9,297.2 486.3,237.8 			"/>
		</g>
		<g>
			<defs>
				<circle id="SVGID_11_" cx="437.3" cy="437.3" r="437.3"/>
			</defs>
			<clipPath id="SVGID_12_">
				<use xlink:href="#SVGID_11_"  style="overflow:visible;"/>
			</clipPath>
			<polygon class="st7" points="511.4,238.5 462,291.9 478.6,290.6 538.1,292.6 604.8,342.6 570.1,244.5 			"/>
		</g>
		<g>
			<defs>
				<circle id="SVGID_13_" cx="437.3" cy="437.3" r="437.3"/>
			</defs>
			<clipPath id="SVGID_14_">
				<use xlink:href="#SVGID_13_"  style="overflow:visible;"/>
			</clipPath>
			<polygon class="st8" points="286.4,529.5 334.5,503.5 408.6,484.8 423.2,442.7 421.9,335.3 395.9,299.9 348.5,299.2 278.4,358 
				277.7,389 264.3,452.8 268.4,511.1 			"/>
		</g>
		<g>
			<defs>
				<circle id="SVGID_15_" cx="437.3" cy="437.3" r="437.3"/>
			</defs>
			<clipPath id="SVGID_16_">
				<use xlink:href="#SVGID_15_"  style="overflow:visible;"/>
			</clipPath>
			<polygon class="st9" points="586.8,529.5 538.7,503.5 464.6,484.8 449.9,442.7 451.3,335.3 477.3,299.9 524.7,299.2 594.8,358 
				595.5,389 608.9,452.8 604.8,511.1 			"/>
		</g>
		<g>
			<defs>
				<circle id="SVGID_17_" cx="437.3" cy="437.3" r="437.3"/>
			</defs>
			<clipPath id="SVGID_18_">
				<use xlink:href="#SVGID_17_"  style="overflow:visible;"/>
			</clipPath>
			<polygon class="st10" points="336.5,524.2 326.5,689 342.5,763.8 311.1,853.9 277.7,695.7 294.4,536.2 			"/>
		</g>
		<g>
			<defs>
				<circle id="SVGID_19_" cx="437.3" cy="437.3" r="437.3"/>
			</defs>
			<clipPath id="SVGID_20_">
				<use xlink:href="#SVGID_19_"  style="overflow:visible;"/>
			</clipPath>
			<polygon class="st11" points="373.9,514.8 394.5,569.6 402.6,713.7 425.3,574.9 422.6,487.5 			"/>
		</g>
		<g>
			<defs>
				<circle id="SVGID_21_" cx="437.3" cy="437.3" r="437.3"/>
			</defs>
			<clipPath id="SVGID_22_">
				<use xlink:href="#SVGID_21_"  style="overflow:visible;"/>
			</clipPath>
			<polygon class="st12" points="358.5,520.2 333.8,687 361.8,827.9 399.9,907.3 403.9,738.4 377.2,669.7 375.9,564.9 			"/>
		</g>
		<g>
			<defs>
				<circle id="SVGID_23_" cx="437.3" cy="437.3" r="437.3"/>
			</defs>
			<clipPath id="SVGID_24_">
				<use xlink:href="#SVGID_23_"  style="overflow:visible;"/>
			</clipPath>
			<polygon class="st13" points="277.7,634.5 286.5,538.6 264.3,522.8 264.3,549.1 			"/>
		</g>
		<g>
			<defs>
				<circle id="SVGID_25_" cx="437.3" cy="437.3" r="437.3"/>
			</defs>
			<clipPath id="SVGID_26_">
				<use xlink:href="#SVGID_25_"  style="overflow:visible;"/>
			</clipPath>
			<polygon class="st14" points="536.7,524.2 546.7,689 530.7,763.8 562.1,853.9 595.5,695.7 578.8,536.2 			"/>
		</g>
		<g>
			<defs>
				<circle id="SVGID_27_" cx="437.3" cy="437.3" r="437.3"/>
			</defs>
			<clipPath id="SVGID_28_">
				<use xlink:href="#SVGID_27_"  style="overflow:visible;"/>
			</clipPath>
			<polygon class="st15" points="515.4,520.2 540.1,687 512.1,827.9 474.1,907.3 470,738.4 496.7,669.7 498.1,564.9 			"/>
		</g>
		<g>
			<defs>
				<circle id="SVGID_29_" cx="437.3" cy="437.3" r="437.3"/>
			</defs>
			<clipPath id="SVGID_30_">
				<use xlink:href="#SVGID_29_"  style="overflow:visible;"/>
			</clipPath>
			<polygon class="st16" points="499.3,514.8 478.6,569.6 470.6,713.7 447.9,574.9 450.6,487.5 			"/>
		</g>
		<g>
			<defs>
				<circle id="SVGID_31_" cx="437.3" cy="437.3" r="437.3"/>
			</defs>
			<clipPath id="SVGID_32_">
				<use xlink:href="#SVGID_31_"  style="overflow:visible;"/>
			</clipPath>
			<polygon class="st17" points="596.9,634.5 588.1,538.6 610.3,522.8 610.3,549.1 			"/>
		</g>
		<g>
			<defs>
				<circle id="SVGID_33_" cx="437.3" cy="437.3" r="437.3"/>
			</defs>
			<clipPath id="SVGID_34_">
				<use xlink:href="#SVGID_33_"  style="overflow:visible;"/>
			</clipPath>
			<polygon class="st18" points="363.5,1418.3 397.2,1416.2 382,1392.2 391.2,1344.7 371.2,1351.1 354.2,1349.4 367.2,1395.2 			"/>
		</g>
		<g>
			<defs>
				<circle id="SVGID_35_" cx="437.3" cy="437.3" r="437.3"/>
			</defs>
			<clipPath id="SVGID_36_">
				<use xlink:href="#SVGID_35_"  style="overflow:visible;"/>
			</clipPath>
			<polygon class="st19" points="510.4,1418.3 476.7,1416.2 491.9,1392.2 482.7,1344.7 502.7,1351.1 519.7,1349.4 506.7,1395.2 			
				"/>
		</g>
		<g>
			<defs>
				<circle id="SVGID_37_" cx="437.3" cy="437.3" r="437.3"/>
			</defs>
			<clipPath id="SVGID_38_">
				<use xlink:href="#SVGID_37_"  style="overflow:visible;"/>
			</clipPath>
			<polygon class="st20" points="361.2,873.4 365.5,1097 403.9,1140.4 422.5,1112.5 423.8,1052.4 407,962.6 			"/>
		</g>
		<g>
			<defs>
				<circle id="SVGID_39_" cx="437.3" cy="437.3" r="437.3"/>
			</defs>
			<clipPath id="SVGID_40_">
				<use xlink:href="#SVGID_39_"  style="overflow:visible;"/>
			</clipPath>
			<polygon class="st21" points="349.4,860.4 346.9,1043.1 357.5,1112.5 339.5,1127.4 307.9,1063 316,938.4 331.5,887.6 
				332.7,851.1 			"/>
		</g>
		<g>
			<defs>
				<circle id="SVGID_41_" cx="437.3" cy="437.3" r="437.3"/>
			</defs>
			<clipPath id="SVGID_42_">
				<use xlink:href="#SVGID_41_"  style="overflow:visible;"/>
			</clipPath>
			<polygon class="st22" points="362.4,1120.6 344.5,1136.7 371.7,1266.2 373.6,1344.7 391.6,1339.6 393.4,1267.4 406.4,1175.7 
				402.7,1154.6 			"/>
		</g>
		<g>
			<defs>
				<circle id="SVGID_43_" cx="437.3" cy="437.3" r="437.3"/>
			</defs>
			<clipPath id="SVGID_44_">
				<use xlink:href="#SVGID_43_"  style="overflow:visible;"/>
			</clipPath>
			<polygon class="st23" points="348.2,1211 364.9,1294 365.8,1312.5 369.2,1345.8 354.2,1344.7 346,1312.8 340.1,1278.5 
				340.1,1201.1 			"/>
		</g>
		<g>
			<defs>
				<circle id="SVGID_45_" cx="437.3" cy="437.3" r="437.3"/>
			</defs>
			<clipPath id="SVGID_46_">
				<use xlink:href="#SVGID_45_"  style="overflow:visible;"/>
			</clipPath>
			<polygon class="st24" points="513.6,873.4 509.2,1097 470.8,1140.4 452.2,1112.5 451,1052.4 467.7,962.6 			"/>
		</g>
		<g>
			<defs>
				<circle id="SVGID_47_" cx="437.3" cy="437.3" r="437.3"/>
			</defs>
			<clipPath id="SVGID_48_">
				<use xlink:href="#SVGID_47_"  style="overflow:visible;"/>
			</clipPath>
			<polygon class="st25" points="525.3,860.4 527.8,1043.1 517.3,1112.5 535.2,1127.4 566.8,1063 558.8,938.4 543.3,887.6 
				542,851.1 			"/>
		</g>
		<g>
			<defs>
				<circle id="SVGID_49_" cx="437.3" cy="437.3" r="437.3"/>
			</defs>
			<clipPath id="SVGID_50_">
				<use xlink:href="#SVGID_49_"  style="overflow:visible;"/>
			</clipPath>
			<polygon class="st26" points="511.5,1120.6 529.4,1136.7 502.2,1266.2 500.3,1344.7 482.3,1339.6 480.5,1267.4 467.5,1175.7 
				471.2,1154.6 			"/>
		</g>
		<g>
			<defs>
				<circle id="SVGID_51_" cx="437.3" cy="437.3" r="437.3"/>
			</defs>
			<clipPath id="SVGID_52_">
				<use xlink:href="#SVGID_51_"  style="overflow:visible;"/>
			</clipPath>
			<polygon class="st27" points="525.7,1211 509,1294 508.1,1312.5 504.7,1345.8 519.7,1344.7 527.9,1312.8 533.8,1278.5 
				533.8,1201.1 			"/>
		</g>
	</g>
</g>
<g id="Layer_1_1_">
</g>
</svg>
