<?xml version="1.0" encoding="utf-8"?>
<!-- Generator: Adobe Illustrator 22.0.1, SVG Export Plug-In . SVG Version: 6.00 Build 0)  -->
<svg version="1.1" id="Layer_1" xmlns="http://www.w3.org/2000/svg" xmlns:xlink="http://www.w3.org/1999/xlink" x="0px" y="0px"
	 viewBox="0 0 875.4 877.8" style="enable-background:new 0 0 875.4 877.8;" xml:space="preserve">
<style type="text/css">
	.st0{clip-path:url(#SVGID_2_);fill:#F7F7F7;}
	.st1{clip-path:url(#SVGID_4_);}
	.st2{fill:#D9DADB;}
	.st3{clip-path:url(#SVGID_6_);fill:#D9DADB;}
	.st4{clip-path:url(#SVGID_8_);fill:#D9DADB;}
	.st5{clip-path:url(#SVGID_10_);fill:#D9DADB;}
	.st6{clip-path:url(#SVGID_12_);fill:#D9DADB;}
	.st7{clip-path:url(#SVGID_14_);fill:#D9DADB;}
	.st8{clip-path:url(#SVGID_16_);fill:#D9DADB;}
	.st9{clip-path:url(#SVGID_18_);fill:#D9DADB;}
	.st10{clip-path:url(#SVGID_20_);fill:#D9DADB;}
	.st11{clip-path:url(#SVGID_22_);fill:#D9DADB;}
	.st12{clip-path:url(#SVGID_24_);fill:#D9DADB;}
	.st13{clip-path:url(#SVGID_26_);fill:#D9DADB;}
	.st14{clip-path:url(#SVGID_28_);fill:#D9DADB;}
	.st15{clip-path:url(#SVGID_30_);fill:#D9DADB;}
	.st16{clip-path:url(#SVGID_32_);fill:#D9DADB;}
	.st17{clip-path:url(#SVGID_34_);fill:#D9DADB;}
	.st18{clip-path:url(#SVGID_36_);fill:#D9DADB;}
	.st19{clip-path:url(#SVGID_38_);fill:#D9DADB;}
	.st20{clip-path:url(#SVGID_40_);fill:#D9DADB;}
	.st21{clip-path:url(#SVGID_42_);fill:#E0AF12;}
	.st22{clip-path:url(#SVGID_44_);fill:#E0AF12;}
	.st23{clip-path:url(#SVGID_46_);fill:#E0AF12;}
	.st24{clip-path:url(#SVGID_48_);}
	.st25{fill:#E0AF12;}
	.st26{clip-path:url(#SVGID_50_);fill:#D9DADB;}
	.st27{clip-path:url(#SVGID_52_);fill:#D9DADB;}
	.st28{clip-path:url(#SVGID_54_);}
</style>
<g id="Front_Abs">
	<g>
		<g>
			<defs>
				<circle id="SVGID_1_" cx="437.3" cy="437.3" r="437.3"/>
			</defs>
			<clipPath id="SVGID_2_">
				<use xlink:href="#SVGID_1_"  style="overflow:visible;"/>
			</clipPath>
			<circle class="st0" cx="437.3" cy="437.3" r="437.3"/>
		</g>
		<g>
			<defs>
				<circle id="SVGID_3_" cx="437.3" cy="437.3" r="437.3"/>
			</defs>
			<clipPath id="SVGID_4_">
				<use xlink:href="#SVGID_3_"  style="overflow:visible;"/>
			</clipPath>
			<g class="st1">
				<polygon class="st2" points="389.5,-167.4 421.4,-119 437.2,-63.4 400.4,-92.8 385.6,-145.2 				"/>
				<polygon class="st2" points="374.2,-132.2 382,-95.4 335.6,-84 305.9,-94.5 				"/>
				<polygon class="st2" points="344.4,-70.9 307.6,-5.2 267.4,14.9 291.9,34.1 311.1,90.2 355.8,108.5 426.9,73.4 409.2,-64.8 				
					"/>
				<path class="st2" d="M272.2,173.4c0.5-0.4,1.1-0.7,1.6-1l14.6-108.5l-28-40.3l-28.9,42l-24.5,147l2.2,19.7
					C229,211.4,249.6,191.4,272.2,173.4z"/>
				<path class="st2" d="M212.8,247.9c-0.5,0.6-1.1,1-1.7,1.3l3.7,32.6l51.6-55.1l4.8-35.6C250.5,208.7,231.3,227.9,212.8,247.9z"/>
				<polygon class="st2" points="218.4,297.6 146.5,491.7 169.4,497 245.5,340.5 259.5,252.9 				"/>
				<polygon class="st2" points="197.4,222.3 207.9,296.7 139.4,479.4 128.8,472.4 155.3,331.4 				"/>
				<polygon class="st2" points="217.5,58.6 204.4,198.7 195.6,94.5 				"/>
				<polygon class="st2" points="524.2,-279.4 524.2,-330.9 497,-377.8 438.9,-396.6 380.9,-377.8 353.7,-330.9 353.7,-279.4 
					340.6,-276.6 346.2,-231.7 367.8,-224.2 391.2,-175.5 439.2,-154.9 486.7,-175.5 510.2,-224.2 531.7,-231.7 537.3,-276.6 				
					"/>
				<polygon class="st2" points="116.6,477.2 128,504.5 161.5,509.8 164.1,559.1 146.5,629.6 135.1,628.8 146.2,581.8 134.3,581.5 
					115.7,631.4 101.6,629.6 119.1,579.2 106.9,576.9 83.1,630.5 65.4,628.8 89.7,572.9 81.3,568 51.3,615.5 36.4,613.8 81.3,528.3 
					76.9,521.3 34.6,538.9 32,529.2 66.3,498.3 				"/>
				<polygon class="st2" points="505.7,-132.2 497.8,-95.4 544.2,-84 573.9,-94.5 				"/>
				<polygon class="st2" points="535.4,-70.9 572.2,-5.2 612.4,14.9 587.9,34.1 568.7,90.2 524,108.5 452.9,73.4 470.6,-64.8 				
					"/>
				<path class="st2" d="M607.6,173.4c-0.5-0.4-1.1-0.7-1.6-1L591.4,63.9l28-40.3l28.9,42l24.5,147l-2.2,19.7
					C650.8,211.4,630.2,191.4,607.6,173.4z"/>
				<path class="st2" d="M667,247.9c0.5,0.6,1.1,1,1.7,1.3l-3.7,32.6l-51.6-55.1l-4.8-35.6C629.3,208.7,648.5,227.9,667,247.9z"/>
				<polygon class="st2" points="661.4,297.6 733.4,491.7 710.4,497 634.3,340.5 620.3,252.9 				"/>
				<polygon class="st2" points="682.5,222.3 671.9,296.7 740.4,479.4 751,472.4 724.5,331.4 				"/>
				<polygon class="st2" points="662.3,58.6 675.5,198.7 684.2,94.5 				"/>
				<polygon class="st2" points="763.3,477.2 751.8,504.5 718.3,509.8 715.7,559.1 733.3,629.6 744.8,628.8 733.6,581.8 
					745.5,581.5 764.1,631.4 778.2,629.6 760.7,579.2 773,576.9 796.7,630.5 814.4,628.8 790.1,572.9 798.5,568 828.5,615.5 
					843.5,613.8 798.5,528.3 802.9,521.3 845.2,538.9 847.9,529.2 813.5,498.3 				"/>
				<path class="st2" d="M590.2-90.2l16.1-8.7l50.4,55.7l0.3,21.2C657-21.9,591.2-89.7,590.2-90.2z"/>
				<path class="st2" d="M585.1-87.9c0,1.1,70.7,75.3,70.7,75.3l2.1,65.9l-24.5-42L586.2-8.7L552.9-70L585.1-87.9z"/>
				<path class="st2" d="M289.6-90.2l-16.1-8.7l-50.4,55.7l-0.3,21.2C222.8-21.9,288.6-89.7,289.6-90.2z"/>
				<path class="st2" d="M294.7-87.9c0,1.1-70.7,75.3-70.7,75.3l-2.1,65.9l24.5-42l47.3-20.1L326.9-70L294.7-87.9z"/>
				<polygon class="st2" points="489.5,-167.4 457.6,-119 441.8,-63.4 478.6,-92.8 491.4,-146.1 				"/>
				<polygon class="st2" points="388.8,1053.1 382.6,1072.5 369.4,1154.4 367.6,1263.7 386.1,1370.3 385.3,1233.7 404.7,1179.1 
					407.3,1119.2 				"/>
				<polygon class="st2" points="491,1053.1 497.2,1072.5 510.4,1154.4 512.2,1263.7 493.7,1370.3 494.5,1233.7 475.2,1179.1 
					472.5,1119.2 				"/>
			</g>
		</g>
		<g>
			<defs>
				<circle id="SVGID_5_" cx="437.3" cy="437.3" r="437.3"/>
			</defs>
			<clipPath id="SVGID_6_">
				<use xlink:href="#SVGID_5_"  style="overflow:visible;"/>
			</clipPath>
			<polygon class="st3" points="409.6,1430.7 407.3,1495.4 401.1,1521 382.6,1521 377.3,1503.4 371.2,1502.5 372.5,1520.1 
				349.1,1513.1 343,1509.5 316.5,1503.8 315.7,1483.1 341.2,1439.9 354.8,1423 383.5,1439.3 			"/>
		</g>
		<g>
			<defs>
				<circle id="SVGID_7_" cx="437.3" cy="437.3" r="437.3"/>
			</defs>
			<clipPath id="SVGID_8_">
				<use xlink:href="#SVGID_7_"  style="overflow:visible;"/>
			</clipPath>
			<polygon class="st4" points="469.5,1430.7 471.9,1495.4 478,1521 496.5,1521 501.8,1503.4 508,1502.5 506.7,1520.1 530,1513.1 
				536.2,1509.5 562.6,1503.8 563.5,1483.1 537.9,1439.9 524.4,1423 495.6,1439.3 			"/>
		</g>
		<g>
			<defs>
				<circle id="SVGID_9_" cx="437.3" cy="437.3" r="437.3"/>
			</defs>
			<clipPath id="SVGID_10_">
				<use xlink:href="#SVGID_9_"  style="overflow:visible;"/>
			</clipPath>
			<polygon class="st5" points="347.8,1382.5 346.9,1392.7 358.5,1415.6 382.9,1431.6 408,1423.4 400.1,1399.5 			"/>
		</g>
		<g>
			<defs>
				<circle id="SVGID_11_" cx="437.3" cy="437.3" r="437.3"/>
			</defs>
			<clipPath id="SVGID_12_">
				<use xlink:href="#SVGID_11_"  style="overflow:visible;"/>
			</clipPath>
			<polygon class="st6" points="531.3,1382.5 532.3,1392.7 520.6,1415.6 496.2,1431.6 471.2,1423.4 479,1399.5 			"/>
		</g>
		<g>
			<defs>
				<circle id="SVGID_13_" cx="437.3" cy="437.3" r="437.3"/>
			</defs>
			<clipPath id="SVGID_14_">
				<use xlink:href="#SVGID_13_"  style="overflow:visible;"/>
			</clipPath>
			<polygon class="st7" points="346.5,1102.4 350.9,1266.3 382.6,1385.2 346,1374 283.9,1150.9 306,1006.4 			"/>
		</g>
		<g>
			<defs>
				<circle id="SVGID_15_" cx="437.3" cy="437.3" r="437.3"/>
			</defs>
			<clipPath id="SVGID_16_">
				<use xlink:href="#SVGID_15_"  style="overflow:visible;"/>
			</clipPath>
			<polygon class="st8" points="532.7,1102.4 528.3,1266.3 496.5,1385.2 533.1,1374 595.2,1150.9 573.2,1006.4 			"/>
		</g>
		<g>
			<defs>
				<circle id="SVGID_17_" cx="437.3" cy="437.3" r="437.3"/>
			</defs>
			<clipPath id="SVGID_18_">
				<use xlink:href="#SVGID_17_"  style="overflow:visible;"/>
			</clipPath>
			<polygon class="st9" points="321.8,933.2 319.2,957 337.7,979.9 343.9,1016.1 356.2,1021.3 366.8,966.7 373.8,947.3 367.6,935 
							"/>
		</g>
		<g>
			<defs>
				<circle id="SVGID_19_" cx="437.3" cy="437.3" r="437.3"/>
			</defs>
			<clipPath id="SVGID_20_">
				<use xlink:href="#SVGID_19_"  style="overflow:visible;"/>
			</clipPath>
			<polygon class="st10" points="403.8,935 390.6,972 362.4,1026.6 369.4,1076.9 389.7,1020.5 406.4,988.7 			"/>
		</g>
		<g>
			<defs>
				<circle id="SVGID_21_" cx="437.3" cy="437.3" r="437.3"/>
			</defs>
			<clipPath id="SVGID_22_">
				<use xlink:href="#SVGID_21_"  style="overflow:visible;"/>
			</clipPath>
			<polygon class="st11" points="558,933.2 560.6,957 542.1,979.9 536,1016.1 523.6,1021.3 513.1,966.7 506,947.3 512.2,935 			"/>
		</g>
		<g>
			<defs>
				<circle id="SVGID_23_" cx="437.3" cy="437.3" r="437.3"/>
			</defs>
			<clipPath id="SVGID_24_">
				<use xlink:href="#SVGID_23_"  style="overflow:visible;"/>
			</clipPath>
			<polygon class="st12" points="476,935 489.3,972 517.5,1026.6 510.4,1076.9 490.1,1020.5 473.4,988.7 			"/>
		</g>
		<g>
			<defs>
				<circle id="SVGID_25_" cx="437.3" cy="437.3" r="437.3"/>
			</defs>
			<clipPath id="SVGID_26_">
				<use xlink:href="#SVGID_25_"  style="overflow:visible;"/>
			</clipPath>
			<polygon class="st13" points="303.1,494.2 361,621.7 374.2,725 349.5,870.3 296,722.3 292.7,570.1 302.4,494.3 			"/>
		</g>
		<g>
			<defs>
				<circle id="SVGID_27_" cx="437.3" cy="437.3" r="437.3"/>
			</defs>
			<clipPath id="SVGID_28_">
				<use xlink:href="#SVGID_27_"  style="overflow:visible;"/>
			</clipPath>
			<polygon class="st14" points="295.7,766.6 288.3,731.1 339.3,871.1 331.6,891 309,830 			"/>
		</g>
		<g>
			<defs>
				<circle id="SVGID_29_" cx="437.3" cy="437.3" r="437.3"/>
			</defs>
			<clipPath id="SVGID_30_">
				<use xlink:href="#SVGID_29_"  style="overflow:visible;"/>
			</clipPath>
			<polygon class="st15" points="376.8,679.2 378.2,682.5 404,744 387.3,896.3 361.1,882.3 383.8,740.5 			"/>
		</g>
		<g>
			<defs>
				<circle id="SVGID_31_" cx="437.3" cy="437.3" r="437.3"/>
			</defs>
			<clipPath id="SVGID_32_">
				<use xlink:href="#SVGID_31_"  style="overflow:visible;"/>
			</clipPath>
			<polygon class="st16" points="503,679.2 501.6,682.5 475.8,744 492.5,896.3 518.7,882.3 496,740.5 			"/>
		</g>
		<g>
			<defs>
				<circle id="SVGID_33_" cx="437.3" cy="437.3" r="437.3"/>
			</defs>
			<clipPath id="SVGID_34_">
				<use xlink:href="#SVGID_33_"  style="overflow:visible;"/>
			</clipPath>
			<polygon class="st17" points="576.4,496.2 518.4,623.7 505.3,727 530,872.3 583.5,724.3 586.8,572.1 577,496.3 			"/>
		</g>
		<g>
			<defs>
				<circle id="SVGID_35_" cx="437.3" cy="437.3" r="437.3"/>
			</defs>
			<clipPath id="SVGID_36_">
				<use xlink:href="#SVGID_35_"  style="overflow:visible;"/>
			</clipPath>
			<polygon class="st18" points="583.8,768.6 591.2,733.1 540.1,873.1 547.8,893 570.5,832 			"/>
		</g>
		<g>
			<defs>
				<circle id="SVGID_37_" cx="437.3" cy="437.3" r="437.3"/>
			</defs>
			<clipPath id="SVGID_38_">
				<use xlink:href="#SVGID_37_"  style="overflow:visible;"/>
			</clipPath>
			<polygon class="st19" points="288,380.2 257.4,492.3 272.4,494.8 302.1,488.1 342.3,484.4 362.5,459.6 352.6,434.8 328,427.5 			
				"/>
		</g>
		<g>
			<defs>
				<circle id="SVGID_39_" cx="437.3" cy="437.3" r="437.3"/>
			</defs>
			<clipPath id="SVGID_40_">
				<use xlink:href="#SVGID_39_"  style="overflow:visible;"/>
			</clipPath>
			<polygon class="st20" points="591.4,382.2 622.1,494.3 607,496.8 577.4,490.1 537.1,486.4 517,461.6 526.9,436.8 551.5,429.5 			
				"/>
		</g>
		<g>
			<defs>
				<circle id="SVGID_41_" cx="437.3" cy="437.3" r="437.3"/>
			</defs>
			<clipPath id="SVGID_42_">
				<use xlink:href="#SVGID_41_"  style="overflow:visible;"/>
			</clipPath>
			<polygon class="st21" points="345.2,490.1 312.4,493 370.4,607.4 409.9,730 405.8,645.1 			"/>
		</g>
		<g>
			<defs>
				<circle id="SVGID_43_" cx="437.3" cy="437.3" r="437.3"/>
			</defs>
			<clipPath id="SVGID_44_">
				<use xlink:href="#SVGID_43_"  style="overflow:visible;"/>
			</clipPath>
			<polygon class="st22" points="409.3,514.9 409.8,514.3 406.6,506.3 368.3,464.3 355.2,482.5 379.6,545.1 			"/>
		</g>
		<g>
			<defs>
				<circle id="SVGID_45_" cx="437.3" cy="437.3" r="437.3"/>
			</defs>
			<clipPath id="SVGID_46_">
				<use xlink:href="#SVGID_45_"  style="overflow:visible;"/>
			</clipPath>
			<polygon class="st23" points="384.4,557.7 411.5,627.6 420.6,541.8 415.2,528.2 			"/>
		</g>
		<g>
			<defs>
				<circle id="SVGID_47_" cx="437.3" cy="437.3" r="437.3"/>
			</defs>
			<clipPath id="SVGID_48_">
				<use xlink:href="#SVGID_47_"  style="overflow:visible;"/>
			</clipPath>
			<g class="st24">
				<polygon class="st25" points="495.4,557.7 468.3,627.6 459.2,541.8 464.6,528.2 				"/>
				<polygon class="st25" points="534.3,492.1 567.1,495 509.1,609.4 469.6,732 473.7,647.1 				"/>
				<polygon class="st25" points="470.2,516.9 469.7,516.3 472.8,508.3 511.2,466.3 524.2,484.5 499.9,547.1 				"/>
			</g>
		</g>
		<g>
			<defs>
				<circle id="SVGID_49_" cx="437.3" cy="437.3" r="437.3"/>
			</defs>
			<clipPath id="SVGID_50_">
				<use xlink:href="#SVGID_49_"  style="overflow:visible;"/>
			</clipPath>
			<polygon class="st26" points="271,503.1 291.2,497 283.5,562.4 282.3,730 308.8,858.9 308.5,920.1 316.5,994.1 306.2,990.3 
				295.3,1015.8 295.8,844.8 270.5,730 253.5,499.8 			"/>
		</g>
		<g>
			<defs>
				<circle id="SVGID_51_" cx="437.3" cy="437.3" r="437.3"/>
			</defs>
			<clipPath id="SVGID_52_">
				<use xlink:href="#SVGID_51_"  style="overflow:visible;"/>
			</clipPath>
			<polygon class="st27" points="608.5,505.1 588.3,499 595.9,564.4 597.2,732 570.6,860.9 570.9,922.1 563,996.1 573.3,992.3 
				584.2,1017.8 583.7,846.8 609,732 626,501.8 			"/>
		</g>
		<g>
			<defs>
				<circle id="SVGID_53_" cx="437.3" cy="437.3" r="437.3"/>
			</defs>
			<clipPath id="SVGID_54_">
				<use xlink:href="#SVGID_53_"  style="overflow:visible;"/>
			</clipPath>
			<g class="st28">
				<polygon class="st2" points="325.7,156.3 353.2,171.5 350,135.4 				"/>
				<polygon class="st2" points="348,121.6 295.4,99.8 315.2,153.1 				"/>
				<polygon class="st2" points="315.5,158.4 351.4,180.3 357.5,224 322.5,201.3 				"/>
				<polygon class="st2" points="324.3,211.8 355.8,233.7 360.2,278.3 325.1,250.3 				"/>
				<polygon class="st2" points="359.3,302 320.8,273.2 317.4,312 290.1,362.2 332.1,420.1 354,423.6 361.9,341.3 				"/>
				<polygon class="st2" points="554.1,156.3 526.7,171.5 529.8,135.4 				"/>
				<polygon class="st2" points="531.8,121.6 584.4,99.8 564.6,153.1 				"/>
				<polygon class="st2" points="564.3,158.4 528.4,180.3 522.3,224 557.3,201.3 				"/>
				<polygon class="st2" points="555.5,211.8 524,233.7 519.7,278.3 554.7,250.3 				"/>
				<polygon class="st2" points="520.5,302 559.1,273.2 562.4,312 589.7,362.2 547.7,420.1 525.8,423.6 517.9,341.3 				"/>
				<g>
					<polygon class="st2" points="366.8,121 432.9,91.2 430.9,139.5 371.4,169.9 					"/>
					<polygon class="st2" points="377.3,181.8 378.7,216.1 427.6,205.6 430.2,158.6 					"/>
					<polygon class="st2" points="435.5,518.2 422.6,393 422.3,311.6 375.9,288.8 370.7,437.6 					"/>
					<polygon class="st2" points="380.6,232.7 380,275 426.9,287.5 427.6,221.4 					"/>
					<polygon class="st2" points="513.1,121 447,91.2 448.9,139.5 508.4,169.9 					"/>
					<polygon class="st2" points="502.5,181.8 501.2,216.1 452.3,205.6 449.6,158.6 					"/>
					<polygon class="st2" points="444.3,518.2 457.2,393 457.5,311.6 503.9,288.8 509.2,437.6 					"/>
					<polygon class="st2" points="499.2,232.7 499.8,275 452.9,287.5 452.3,221.4 					"/>
				</g>
			</g>
		</g>
	</g>
</g>
<g id="Layer_1_1_">
</g>
</svg>
