<svg xmlns="http://www.w3.org/2000/svg" xmlns:xlink="http://www.w3.org/1999/xlink" viewBox="0 0 874.68 874.68"><defs><style>.cls-1{fill:none;}.cls-2{clip-path:url(#clip-path);}.cls-3{fill:#d9dadb;}.cls-4{clip-path:url(#clip-path-2);}.cls-5{clip-path:url(#clip-path-3);}.cls-6{fill:#f7f7f7;}.cls-7{fill:#e0af12;}.cls-8{clip-path:url(#clip-path-4);}.cls-9{clip-path:url(#clip-path-5);}</style><clipPath id="clip-path"><circle class="cls-1" cx="400.56" cy="2346.13" r="437.34"/></clipPath><clipPath id="clip-path-2"><circle class="cls-1" cx="1360.77" cy="2346.13" r="430.53"/></clipPath><clipPath id="clip-path-3"><circle class="cls-1" cx="437.34" cy="437.34" r="437.34"/></clipPath><clipPath id="clip-path-4"><circle class="cls-1" cx="38.7" cy="-487.17" r="437.34"/></clipPath><clipPath id="clip-path-5"><circle class="cls-1" cx="941.82" cy="-487.17" r="437.34"/></clipPath></defs><title>Both Groin</title><g id="Front_Right_Shin" data-name="Front Right Shin"><g class="cls-2"><polygon class="cls-3" points="342.51 800.79 378.29 855.02 395.99 917.32 354.75 884.44 338.21 825.63 342.51 800.79"/><polygon class="cls-3" points="325.34 840.31 334.17 881.5 282.19 894.25 248.85 882.48 325.34 840.31"/><polygon class="cls-3" points="493.48 675.28 493.48 617.55 463.04 565.07 397.94 543.93 332.89 565.07 302.45 617.55 302.45 675.28 287.76 678.43 294.06 728.81 318.2 737.21 344.44 791.78 398.22 814.76 451.5 791.78 477.74 737.21 501.88 728.81 508.18 678.43 493.48 675.28"/><polygon class="cls-3" points="472.69 840.31 463.87 881.5 515.85 894.25 549.19 882.48 472.69 840.31"/><polygon class="cls-3" points="454.62 800.79 418.83 855.02 401.14 917.32 442.37 884.44 456.69 824.68 454.62 800.79"/></g></g><g id="Front_Left_Ankle" data-name="Front Left Ankle"><g class="cls-4"><polygon class="cls-3" points="957.03 343.01 824.11 701.91 866.46 711.68 1007.19 422.28 1033.07 260.5 957.03 343.01"/><polygon class="cls-3" points="918.21 203.88 937.62 341.39 811.08 679.1 791.53 666.07 840.4 405.45 918.21 203.88"/><polygon class="cls-3" points="768.83 675.02 790.01 725.52 851.9 735.29 856.79 826.51 824.21 956.82 803.04 955.19 823.6 868.45 801.61 867.84 767.2 960.08 741.14 956.82 773.51 863.57 750.91 859.29 706.93 958.45 674.36 955.19 719.15 851.96 703.68 842.8 648.29 930.76 620.6 927.5 703.68 769.5 695.53 756.47 617.35 789.04 612.46 771.13 675.99 714.12 768.83 675.02"/></g></g><g id="Front_Abs" data-name="Front Abs"><g class="cls-5"><circle class="cls-6" cx="437.5" cy="437.34" r="437.34"/><polygon class="cls-3" points="339.94 -72.32 303.18 -6.68 262.92 13.45 287.43 32.71 306.68 88.72 351.32 107.1 422.44 71.95 404.7 -66.19 339.94 -72.32"/><path class="cls-3" d="M267.72,172a7.07,7.07,0,0,1,1.62-1L283.93,62.46l-28-40.26L227,64.21l-24.51,147L204.78,231C224.53,210,245.14,189.93,267.72,172Z"/><path class="cls-3" d="M208.38,246.44a6.49,6.49,0,0,1-1.69,1.31l3.72,32.64L262,225.25l4.78-35.56C246.06,207.24,226.88,226.49,208.38,246.44Z"/><polygon class="cls-3" points="213.91 296.15 142 490.31 164.91 495.6 241.04 339.03 255.04 251.51 213.91 296.15"/><polygon class="cls-3" points="192.9 220.88 203.41 295.27 134.95 477.97 124.37 470.92 150.81 329.93 192.9 220.88"/><polygon class="cls-3" points="213.03 57.21 199.9 197.25 191.15 93.1 213.03 57.21"/><polygon class="cls-3" points="112.09 475.76 123.55 503.08 157.03 508.37 159.68 557.72 142.05 628.21 130.6 627.33 141.72 580.41 129.82 580.08 111.21 629.98 97.11 628.21 114.63 577.76 102.4 575.45 78.61 629.1 60.98 627.33 85.21 571.49 76.84 566.53 46.88 614.12 31.9 612.35 76.84 526.88 72.44 519.83 30.14 537.45 27.5 527.76 61.86 496.91 112.09 475.76"/><polygon class="cls-3" points="530.96 -72.32 567.71 -6.68 607.97 13.45 583.47 32.71 564.21 88.72 519.58 107.1 448.45 71.95 466.19 -66.19 530.96 -72.32"/><path class="cls-3" d="M603.18,172a7.52,7.52,0,0,0-1.62-1L587,62.46,615,22.2l28.88,42,24.5,147L666.12,231C646.36,210,625.76,189.93,603.18,172Z"/><path class="cls-3" d="M662.51,246.44a6.53,6.53,0,0,0,1.7,1.31l-3.72,32.64-51.64-55.14-4.78-35.56C624.84,207.24,644,226.49,662.51,246.44Z"/><polygon class="cls-3" points="656.99 296.15 728.9 490.31 705.99 495.6 629.86 339.03 615.85 251.51 656.99 296.15"/><polygon class="cls-3" points="677.99 220.88 667.49 295.27 735.95 477.97 746.52 470.92 720.09 329.93 677.99 220.88"/><polygon class="cls-3" points="657.86 57.21 670.99 197.25 679.74 93.1 657.86 57.21"/><polygon class="cls-3" points="758.8 475.76 747.35 503.08 713.86 508.37 711.22 557.72 728.84 628.21 740.3 627.33 729.17 580.41 741.07 580.08 759.68 629.98 773.78 628.21 756.27 577.76 768.5 575.45 792.29 629.1 809.91 627.33 785.68 571.49 794.05 566.53 824.01 614.12 838.99 612.35 794.05 526.88 798.46 519.83 840.76 537.45 843.4 527.76 809.03 496.91 758.8 475.76"/><path class="cls-3" d="M580.63-89.31c0,1.11,70.72,75.34,70.72,75.34L653.49,52,629,10,581.72-10.18,548.46-71.44Z"/><path class="cls-3" d="M290.26-89.31c0,1.11-70.72,75.34-70.72,75.34L217.41,52l24.5-42,47.27-20.13,33.25-61.26Z"/><polygon class="cls-3" points="298.65 492.75 356.58 620.26 369.75 723.54 345.06 868.83 291.55 720.91 288.26 568.63 297.98 492.84 298.65 492.75"/><polygon class="cls-3" points="291.26 765.14 283.85 729.67 334.89 869.7 327.19 889.52 304.5 828.52 291.26 765.14"/><polygon class="cls-3" points="372.38 677.78 373.75 681.06 399.51 742.54 382.88 894.83 356.62 880.83 379.38 739.04 372.38 677.78"/><polygon class="cls-3" points="498.52 677.78 497.14 681.06 471.38 742.54 488.01 894.83 514.27 880.83 491.51 739.04 498.52 677.78"/><polygon class="cls-3" points="571.9 494.75 513.98 622.26 500.81 725.54 525.5 870.83 579 722.91 582.3 570.63 572.58 494.84 571.9 494.75"/><polygon class="cls-3" points="579.3 767.14 586.7 731.67 535.67 871.7 543.37 891.52 566.06 830.52 579.3 767.14"/><polygon class="cls-3" points="283.58 378.77 252.91 490.87 267.98 493.32 297.61 486.71 337.87 482.96 358.01 458.13 348.11 433.4 323.54 426.02 283.58 378.77"/><polygon class="cls-3" points="586.98 380.77 617.65 492.87 602.58 495.32 572.95 488.71 532.69 484.96 512.54 460.13 522.45 435.4 547.01 428.02 586.98 380.77"/><polygon class="cls-7" points="340.69 488.71 307.93 491.61 365.93 606.01 405.44 728.54 401.32 643.64 340.69 488.71"/><polygon class="cls-7" points="404.87 513.48 405.34 512.89 402.18 504.85 363.84 462.87 350.78 481.04 375.09 543.68 404.87 513.48"/><polygon class="cls-7" points="379.96 556.23 407.08 626.14 416.14 540.37 410.78 526.75 379.96 556.23"/><polygon class="cls-7" points="490.94 556.23 463.81 626.14 454.76 540.37 460.11 526.75 490.94 556.23"/><polygon class="cls-7" points="529.86 490.71 562.62 493.61 504.63 608.01 465.12 730.54 469.24 645.64 529.86 490.71"/><polygon class="cls-7" points="465.69 515.48 465.22 514.89 468.38 506.85 506.72 464.87 519.77 483.04 495.47 545.68 465.69 515.48"/><polygon class="cls-3" points="266.56 501.72 286.73 495.6 279.07 560.94 277.85 728.54 304.38 857.5 304.09 918.64 312.03 992.71 301.73 988.89 290.86 1014.33 291.3 843.4 266.03 728.54 249.04 498.36 266.56 501.72"/><polygon class="cls-3" points="604 503.72 583.83 497.6 591.48 562.94 592.71 730.54 566.17 859.5 566.47 920.64 558.53 994.71 568.83 990.89 579.69 1016.33 579.25 845.4 604.52 730.54 621.51 500.36 604 503.72"/><polygon class="cls-3" points="321.22 154.85 348.69 170.12 345.52 133.94 321.22 154.85"/><polygon class="cls-3" points="343.57 120.2 290.93 98.35 310.75 151.7 343.57 120.2"/><polygon class="cls-3" points="311.06 156.97 346.94 178.85 353.07 222.61 318.06 199.85 311.06 156.97"/><polygon class="cls-3" points="319.81 210.38 351.32 232.26 355.69 276.89 320.68 248.88 319.81 210.38"/><polygon class="cls-3" points="354.81 300.62 316.3 271.74 312.95 310.54 285.63 360.77 327.69 418.68 349.57 422.18 357.44 339.91 354.81 300.62"/><polygon class="cls-3" points="549.68 154.85 522.2 170.12 525.38 133.94 549.68 154.85"/><polygon class="cls-3" points="527.32 120.2 579.97 98.35 560.14 151.7 527.32 120.2"/><polygon class="cls-3" points="559.84 156.97 523.95 178.85 517.83 222.61 552.84 199.85 559.84 156.97"/><polygon class="cls-3" points="551.09 210.38 519.58 232.26 515.2 276.89 550.21 248.88 551.09 210.38"/><polygon class="cls-3" points="516.09 300.62 554.6 271.74 557.94 310.54 585.26 360.77 543.21 418.68 521.33 422.18 513.45 339.91 516.09 300.62"/><polygon class="cls-3" points="362.3 119.54 428.39 89.8 426.41 138.04 366.93 168.45 362.3 119.54"/><polygon class="cls-3" points="372.87 180.34 374.2 214.71 423.1 204.13 425.75 157.21 372.87 180.34"/><polygon class="cls-3" points="431.03 516.75 418.16 391.62 417.83 310.15 371.45 287.39 366.19 436.18 431.03 516.75"/><polygon class="cls-3" points="376.18 231.23 375.52 273.53 422.44 286.09 423.1 220 376.18 231.23"/><polygon class="cls-3" points="508.59 119.54 442.5 89.8 444.49 138.04 503.97 168.45 508.59 119.54"/><polygon class="cls-3" points="498.02 180.34 496.7 214.71 447.79 204.13 445.15 157.21 498.02 180.34"/><polygon class="cls-3" points="439.86 516.75 452.74 391.62 453.06 310.15 499.45 287.39 504.7 436.18 439.86 516.75"/><polygon class="cls-3" points="494.71 231.23 495.38 273.53 448.45 286.09 447.79 220 494.71 231.23"/></g><g class="cls-8"><polygon class="cls-3" points="-14.31 127.13 -20.48 146.51 -33.7 228.46 -35.46 337.73 -16.96 444.36 -17.84 307.77 1.55 253.14 4.19 193.22 -14.31 127.13"/><polygon class="cls-3" points="87.92 127.13 94.09 146.51 107.31 228.46 109.07 337.73 90.56 444.36 91.44 307.77 72.06 253.14 69.41 193.22 87.92 127.13"/><polygon class="cls-3" points="6.53 504.8 4.19 569.49 -1.98 595.05 -20.48 595.05 -25.77 577.42 -31.94 576.54 -30.61 594.17 -53.97 587.12 -60.13 583.59 -86.57 577.87 -87.45 557.16 -61.9 513.98 -48.35 497.04 -19.59 513.4 6.53 504.8"/><polygon class="cls-3" points="66.41 504.8 68.75 569.49 74.92 595.05 93.43 595.05 98.71 577.42 104.88 576.54 103.56 594.17 126.91 587.12 133.08 583.59 159.52 577.87 160.4 557.16 134.84 513.98 121.29 497.04 92.53 513.4 66.41 504.8"/><polygon class="cls-3" points="-55.25 456.6 -56.25 466.8 -44.55 489.7 -20.16 505.62 4.89 497.41 -2.99 473.55 -55.25 456.6"/><polygon class="cls-3" points="128.2 456.6 129.2 466.8 117.5 489.7 93.11 505.62 68.06 497.41 75.94 473.55 128.2 456.6"/><polygon class="cls-3" points="129.56 176.47 125.15 340.38 93.45 459.27 130.01 448.1 192.12 224.94 170.09 80.42 129.56 176.47"/><polygon class="cls-3" points="0.67 9.04 -12.55 46.05 -40.75 100.69 -33.7 150.92 -13.43 94.52 3.31 62.8 0.67 9.04"/><polygon class="cls-3" points="154.89 7.28 157.54 31.07 139.03 53.98 132.86 90.11 120.53 95.4 109.95 40.77 102.9 21.38 109.07 9.04 154.89 7.28"/><polygon class="cls-3" points="72.94 9.04 86.16 46.05 114.36 100.69 107.31 150.92 87.04 94.52 70.3 62.8 72.94 9.04"/><polygon class="cls-3" points="205.35 -420.79 185.18 -426.92 192.84 -361.57 194.06 -193.97 167.53 -65.01 167.82 -3.87 159.89 70.2 170.19 66.38 181.05 91.82 180.61 -79.11 205.88 -193.97 222.87 -424.15 205.35 -420.79"/></g><g class="cls-9"><polygon class="cls-3" points="893.27 128.56 887.1 147.94 873.88 229.9 872.12 339.17 890.63 445.79 889.75 309.2 909.13 254.57 911.77 194.65 893.27 128.56"/><polygon class="cls-3" points="914.11 506.24 911.77 570.92 905.61 596.48 887.1 596.48 881.81 578.86 875.65 577.97 876.97 595.6 853.62 588.55 847.45 585.02 821.01 579.3 820.13 558.59 845.68 515.41 859.24 498.47 888 514.83 914.11 506.24"/><polygon class="cls-3" points="852.33 458.03 851.33 468.23 863.03 491.13 887.42 507.06 912.47 498.84 904.59 474.98 852.33 458.03"/><polygon class="cls-3" points="850.97 177.9 855.38 341.81 887.08 460.7 850.51 449.53 788.41 226.37 810.44 81.85 850.97 177.9"/><polygon class="cls-3" points="826.3 8.71 823.65 32.5 842.16 55.41 848.33 91.55 860.66 96.83 871.24 42.2 878.29 22.81 872.12 10.47 826.3 8.71"/><polygon class="cls-3" points="908.25 10.47 895.03 47.48 866.83 102.12 873.88 152.35 894.15 95.95 910.89 64.23 908.25 10.47"/><polygon class="cls-3" points="775.5 -421.36 795.67 -427.49 788.01 -362.14 786.79 -194.54 813.32 -65.58 813.03 -4.44 820.97 69.63 810.66 65.81 799.8 91.25 800.24 -79.68 774.97 -194.54 757.98 -424.72 775.5 -421.36"/></g></g></svg>