<?xml version="1.0" encoding="utf-8"?>
<!-- Generator: Adobe Illustrator 22.0.1, SVG Export Plug-In . SVG Version: 6.00 Build 0)  -->
<svg version="1.1" id="Layer_1" xmlns="http://www.w3.org/2000/svg" xmlns:xlink="http://www.w3.org/1999/xlink" x="0px" y="0px"
	 viewBox="0 0 875.4 877.8" style="enable-background:new 0 0 875.4 877.8;" xml:space="preserve">
<style type="text/css">
	.st0{fill:#F7F7F7;}
	.st1{clip-path:url(#SVGID_2_);}
	.st2{fill:#D9DADB;}
	.st3{clip-path:url(#SVGID_4_);fill:#D9DADB;}
	.st4{clip-path:url(#SVGID_6_);fill:#D9DADB;}
	.st5{clip-path:url(#SVGID_8_);fill:#D9DADB;}
	.st6{clip-path:url(#SVGID_10_);fill:#D9DADB;}
	.st7{clip-path:url(#SVGID_12_);fill:#D9DADB;}
	.st8{clip-path:url(#SVGID_14_);fill:#D9DADB;}
	.st9{clip-path:url(#SVGID_16_);fill:#D9DADB;}
	.st10{clip-path:url(#SVGID_18_);fill:#E0AF12;}
	.st11{clip-path:url(#SVGID_20_);fill:#E0AF12;}
	.st12{clip-path:url(#SVGID_22_);fill:#E0AF12;}
	.st13{clip-path:url(#SVGID_24_);fill:#E0AF12;}
	.st14{clip-path:url(#SVGID_26_);}
	.st15{fill:#E0AF12;}
	.st16{clip-path:url(#SVGID_28_);fill:#D9DADB;}
	.st17{clip-path:url(#SVGID_30_);fill:#D9DADB;}
	.st18{clip-path:url(#SVGID_32_);fill:#D9DADB;}
	.st19{clip-path:url(#SVGID_34_);fill:#D9DADB;}
	.st20{clip-path:url(#SVGID_36_);fill:#D9DADB;}
	.st21{clip-path:url(#SVGID_38_);fill:#D9DADB;}
	.st22{clip-path:url(#SVGID_40_);fill:#D9DADB;}
	.st23{clip-path:url(#SVGID_42_);fill:#D9DADB;}
	.st24{clip-path:url(#SVGID_44_);fill:#D9DADB;}
	.st25{clip-path:url(#SVGID_46_);fill:#D9DADB;}
</style>
<g id="Back_Right_Hamstrings">
	<circle class="st0" cx="437.3" cy="437.3" r="437.3"/>
	<g>
		<g>
			<defs>
				<circle id="SVGID_1_" cx="437.3" cy="437.3" r="437.3"/>
			</defs>
			<clipPath id="SVGID_2_">
				<use xlink:href="#SVGID_1_"  style="overflow:visible;"/>
			</clipPath>
			<g class="st1">
				<polygon class="st2" points="397.2,-458.7 391.2,-396 311.7,-358.6 395.2,-348.6 431.9,-376.6 424.5,-480.8 				"/>
				<polygon class="st2" points="273,-217.1 291,-198.4 287.7,-74.3 246.3,15.2 217.6,2.5 208.3,-88.3 224.3,-183.7 				"/>
				<polygon class="st2" points="301,-192.4 299.7,-151.7 326.4,-42.2 372.5,13.2 365.8,65.9 371.1,69.2 405.2,-0.2 411.2,-74.9 
					367.8,-173.7 325.7,-175.7 304.4,-193.1 				"/>
				<polygon class="st2" points="258.3,15.2 257.7,85.3 180,199.6 218.3,69.9 				"/>
				<polygon class="st2" points="201.6,-21.5 216.9,44.5 158.6,228.1 147.4,219.2 155.1,144.4 162.2,96.4 				"/>
				<polygon class="st2" points="523.4,-542.8 522,-615.6 487.3,-657 437.9,-666.3 385.9,-657 351.2,-615.6 349.8,-542.8 
					331.8,-537.5 338.5,-499.4 353.2,-490.8 371.2,-492.8 387.2,-456.7 408.6,-484.8 437.9,-493.5 464.6,-484.8 486,-456.7 
					502,-492.8 520,-490.8 534.7,-499.4 541.4,-537.5 				"/>
				<polygon class="st2" points="474.6,-458.7 480.6,-396 560,-358.6 476.6,-348.6 439.9,-376.6 447.2,-480.8 				"/>
				<g>
					<polygon class="st2" points="333.7,-317.9 328.4,-301.9 303.7,-290.5 291,-245.8 233,-197.8 232.3,-293.2 267,-346.6 
						295.7,-353.3 					"/>
					<polygon class="st2" points="318.4,-344.6 351.8,-315.9 375.8,-176.4 425.2,-76.9 425.2,-307.9 387.8,-335.9 					"/>
					<polygon class="st2" points="345.1,-300.5 367.1,-186.4 318.4,-190.4 287,-227.8 306.4,-248.5 311.1,-276.5 					"/>
					<polygon class="st2" points="538,-317.9 543.3,-301.9 568,-290.5 580.7,-245.8 638.8,-197.8 639.5,-293.2 604.7,-346.6 
						576,-353.3 					"/>
					<polygon class="st2" points="553.3,-344.6 520,-315.9 495.9,-176.4 446.6,-76.9 446.6,-307.9 483.9,-335.9 					"/>
					<polygon class="st2" points="526.6,-300.5 504.6,-186.4 553.3,-190.4 584.7,-227.8 565.4,-248.5 560.7,-276.5 					"/>
				</g>
				<polygon class="st2" points="598.7,-217.1 580.7,-198.4 584,-74.3 625.4,15.2 654.1,2.5 663.5,-88.3 647.5,-183.7 				"/>
				<polygon class="st2" points="570.7,-192.4 572,-151.7 545.3,-42.2 499.3,13.2 506,65.9 500.6,69.2 466.6,-0.2 460.6,-74.9 
					504,-173.7 546,-175.7 567.4,-193.1 				"/>
				<polygon class="st2" points="128,206.7 139.8,234.7 174,240.1 176.7,290.6 158.7,362.8 147,361.9 158.4,313.9 146.2,313.5 
					127.1,364.6 112.7,362.8 130.6,311.2 118.1,308.8 93.7,363.7 75.7,361.9 100.5,304.7 91.9,299.7 61.3,348.4 45.9,346.6 
					91.9,259.1 87.4,251.8 44.1,269.9 41.4,260 76.6,228.4 				"/>
				<polygon class="st2" points="746.4,206.7 734.7,234.7 700.4,240.1 697.7,290.6 715.7,362.8 727.4,361.9 716.1,313.9 
					728.2,313.5 747.3,364.6 761.7,362.8 743.8,311.2 756.3,308.8 780.7,363.7 798.7,361.9 773.9,304.7 782.5,299.7 813.2,348.4 
					828.5,346.6 782.5,259.1 787,251.8 830.3,269.9 833,260 797.8,228.4 				"/>
				<polygon class="st2" points="616.1,15.2 616.8,85.3 694.4,199.6 656.1,69.9 				"/>
				<polygon class="st2" points="672.8,-21.5 657.5,44.5 715.8,228.1 727,219.2 719.3,144.4 712.2,96.4 				"/>
				<polygon class="st2" points="528.4,1218.3 511.9,1232.4 514.4,1254.7 548,1211.3 543.6,1206.2 				"/>
				<polygon class="st2" points="542.9,1203.8 521.4,1196.6 513.9,1212.7 510,1228.2 511.3,1230 				"/>
				<polygon class="st2" points="488,1228.6 488,1226 486.4,1218.6 476.4,1226.6 474.8,1236 476,1246.8 				"/>
				<polygon class="st2" points="344.4,1217.6 360.9,1231.6 358.5,1253.9 324.9,1210.6 329.3,1205.4 				"/>
				<polygon class="st2" points="329.9,1203 351.5,1195.8 359,1211.9 362.9,1227.5 361.5,1229.2 				"/>
				<polygon class="st2" points="384.9,1227.9 384.9,1225.3 386.5,1217.9 396.5,1225.9 398,1235.2 396.9,1246.1 				"/>
			</g>
		</g>
		<g>
			<defs>
				<circle id="SVGID_3_" cx="437.3" cy="437.3" r="437.3"/>
			</defs>
			<clipPath id="SVGID_4_">
				<use xlink:href="#SVGID_3_"  style="overflow:visible;"/>
			</clipPath>
			<polygon class="st3" points="324.4,-20.2 362.5,37.2 350.4,62.6 308.4,67.2 			"/>
		</g>
		<g>
			<defs>
				<circle id="SVGID_5_" cx="437.3" cy="437.3" r="437.3"/>
			</defs>
			<clipPath id="SVGID_6_">
				<use xlink:href="#SVGID_5_"  style="overflow:visible;"/>
			</clipPath>
			<polygon class="st4" points="361.1,75.2 410.5,128.6 393.8,127.3 334.4,129.3 267.7,179.4 302.4,81.2 			"/>
		</g>
		<g>
			<defs>
				<circle id="SVGID_7_" cx="437.3" cy="437.3" r="437.3"/>
			</defs>
			<clipPath id="SVGID_8_">
				<use xlink:href="#SVGID_7_"  style="overflow:visible;"/>
			</clipPath>
			<polygon class="st5" points="547.3,-20.2 509.3,37.2 521.3,62.6 563.4,67.2 			"/>
		</g>
		<g>
			<defs>
				<circle id="SVGID_9_" cx="437.3" cy="437.3" r="437.3"/>
			</defs>
			<clipPath id="SVGID_10_">
				<use xlink:href="#SVGID_9_"  style="overflow:visible;"/>
			</clipPath>
			<polygon class="st6" points="453.7,1.1 436.4,-49.6 417.7,0.7 388.1,74.6 438.2,133.9 485.6,74.6 			"/>
		</g>
		<g>
			<defs>
				<circle id="SVGID_11_" cx="437.3" cy="437.3" r="437.3"/>
			</defs>
			<clipPath id="SVGID_12_">
				<use xlink:href="#SVGID_11_"  style="overflow:visible;"/>
			</clipPath>
			<polygon class="st7" points="510.6,75.2 461.2,128.6 477.9,127.3 537.3,129.3 604.1,179.4 569.4,81.2 			"/>
		</g>
		<g>
			<defs>
				<circle id="SVGID_13_" cx="437.3" cy="437.3" r="437.3"/>
			</defs>
			<clipPath id="SVGID_14_">
				<use xlink:href="#SVGID_13_"  style="overflow:visible;"/>
			</clipPath>
			<polygon class="st8" points="285.7,366.3 333.7,340.2 407.8,321.5 422.5,279.5 421.2,172 395.2,136.6 347.8,136 277.7,194.7 
				277,225.7 263.5,289.5 267.7,347.9 			"/>
		</g>
		<g>
			<defs>
				<circle id="SVGID_15_" cx="437.3" cy="437.3" r="437.3"/>
			</defs>
			<clipPath id="SVGID_16_">
				<use xlink:href="#SVGID_15_"  style="overflow:visible;"/>
			</clipPath>
			<polygon class="st9" points="586,366.3 538,340.2 463.9,321.5 449.2,279.5 450.6,172 476.6,136.6 524,136 594.1,194.7 
				594.7,225.7 608.2,289.5 604.1,347.9 			"/>
		</g>
		<g>
			<defs>
				<circle id="SVGID_17_" cx="437.3" cy="437.3" r="437.3"/>
			</defs>
			<clipPath id="SVGID_18_">
				<use xlink:href="#SVGID_17_"  style="overflow:visible;"/>
			</clipPath>
			<polygon class="st10" points="335.8,360.9 325.7,525.8 341.8,600.5 310.4,690.6 277,532.5 293.7,372.9 			"/>
		</g>
		<g>
			<defs>
				<circle id="SVGID_19_" cx="437.3" cy="437.3" r="437.3"/>
			</defs>
			<clipPath id="SVGID_20_">
				<use xlink:href="#SVGID_19_"  style="overflow:visible;"/>
			</clipPath>
			<polygon class="st11" points="373.1,351.6 393.8,406.3 401.8,550.5 424.5,411.6 421.9,324.2 			"/>
		</g>
		<g>
			<defs>
				<circle id="SVGID_21_" cx="437.3" cy="437.3" r="437.3"/>
			</defs>
			<clipPath id="SVGID_22_">
				<use xlink:href="#SVGID_21_"  style="overflow:visible;"/>
			</clipPath>
			<polygon class="st12" points="357.8,356.9 333.1,523.8 361.1,664.6 399.2,744 403.2,575.2 376.5,506.4 375.1,401.6 			"/>
		</g>
		<g>
			<defs>
				<circle id="SVGID_23_" cx="437.3" cy="437.3" r="437.3"/>
			</defs>
			<clipPath id="SVGID_24_">
				<use xlink:href="#SVGID_23_"  style="overflow:visible;"/>
			</clipPath>
			<polygon class="st13" points="277,471.2 285.8,375.3 263.5,359.6 263.5,385.8 			"/>
		</g>
		<g>
			<defs>
				<circle id="SVGID_25_" cx="437.3" cy="437.3" r="437.3"/>
			</defs>
			<clipPath id="SVGID_26_">
				<use xlink:href="#SVGID_25_"  style="overflow:visible;"/>
			</clipPath>
			<g class="st14">
				<polygon class="st15" points="536,360.9 546,525.8 530,600.5 561.4,690.6 594.7,532.5 578,372.9 				"/>
				<polygon class="st15" points="514.7,356.9 539.4,523.8 511.4,664.6 473.3,744 469.3,575.2 496,506.4 497.4,401.6 				"/>
				<polygon class="st15" points="498.6,351.6 477.9,406.3 469.9,550.5 447.2,411.6 449.9,324.2 				"/>
				<polygon class="st15" points="596.1,471.2 587.4,375.3 609.6,359.6 609.6,385.8 				"/>
			</g>
		</g>
		<g>
			<defs>
				<circle id="SVGID_27_" cx="437.3" cy="437.3" r="437.3"/>
			</defs>
			<clipPath id="SVGID_28_">
				<use xlink:href="#SVGID_27_"  style="overflow:visible;"/>
			</clipPath>
			<polygon class="st16" points="362.8,1255.1 396.5,1252.9 381.3,1228.9 390.5,1181.4 370.4,1187.9 353.5,1186.2 366.4,1232 			"/>
		</g>
		<g>
			<defs>
				<circle id="SVGID_29_" cx="437.3" cy="437.3" r="437.3"/>
			</defs>
			<clipPath id="SVGID_30_">
				<use xlink:href="#SVGID_29_"  style="overflow:visible;"/>
			</clipPath>
			<polygon class="st17" points="509.7,1255.1 476,1252.9 491.2,1228.9 482,1181.4 502,1187.9 519,1186.2 506,1232 			"/>
		</g>
		<g>
			<defs>
				<circle id="SVGID_31_" cx="437.3" cy="437.3" r="437.3"/>
			</defs>
			<clipPath id="SVGID_32_">
				<use xlink:href="#SVGID_31_"  style="overflow:visible;"/>
			</clipPath>
			<polygon class="st18" points="360.5,710.1 364.8,933.8 403.2,977.1 421.8,949.3 423,889.2 406.3,799.3 			"/>
		</g>
		<g>
			<defs>
				<circle id="SVGID_33_" cx="437.3" cy="437.3" r="437.3"/>
			</defs>
			<clipPath id="SVGID_34_">
				<use xlink:href="#SVGID_33_"  style="overflow:visible;"/>
			</clipPath>
			<polygon class="st19" points="348.7,697.1 346.2,879.9 356.7,949.3 338.8,964.1 307.2,899.7 315.2,775.2 330.7,724.4 332,687.8 
							"/>
		</g>
		<g>
			<defs>
				<circle id="SVGID_35_" cx="437.3" cy="437.3" r="437.3"/>
			</defs>
			<clipPath id="SVGID_36_">
				<use xlink:href="#SVGID_35_"  style="overflow:visible;"/>
			</clipPath>
			<polygon class="st20" points="361.7,957.3 343.7,973.4 371,1102.9 372.8,1181.4 390.9,1176.3 392.7,1104.1 405.7,1012.5 
				402,991.4 			"/>
		</g>
		<g>
			<defs>
				<circle id="SVGID_37_" cx="437.3" cy="437.3" r="437.3"/>
			</defs>
			<clipPath id="SVGID_38_">
				<use xlink:href="#SVGID_37_"  style="overflow:visible;"/>
			</clipPath>
			<polygon class="st21" points="347.5,1047.8 364.2,1130.8 365.1,1149.2 368.4,1182.5 353.5,1181.4 345.2,1149.5 339.4,1115.3 
				339.4,1037.9 			"/>
		</g>
		<g>
			<defs>
				<circle id="SVGID_39_" cx="437.3" cy="437.3" r="437.3"/>
			</defs>
			<clipPath id="SVGID_40_">
				<use xlink:href="#SVGID_39_"  style="overflow:visible;"/>
			</clipPath>
			<polygon class="st22" points="512.8,710.1 508.5,933.8 470.1,977.1 451.5,949.3 450.3,889.2 467,799.3 			"/>
		</g>
		<g>
			<defs>
				<circle id="SVGID_41_" cx="437.3" cy="437.3" r="437.3"/>
			</defs>
			<clipPath id="SVGID_42_">
				<use xlink:href="#SVGID_41_"  style="overflow:visible;"/>
			</clipPath>
			<polygon class="st23" points="524.6,697.1 527.1,879.9 516.5,949.3 534.5,964.1 566.1,899.7 558,775.2 542.6,724.4 541.3,687.8 
							"/>
		</g>
		<g>
			<defs>
				<circle id="SVGID_43_" cx="437.3" cy="437.3" r="437.3"/>
			</defs>
			<clipPath id="SVGID_44_">
				<use xlink:href="#SVGID_43_"  style="overflow:visible;"/>
			</clipPath>
			<polygon class="st24" points="510.7,957.3 528.7,973.4 501.5,1102.9 499.6,1181.4 481.5,1176.3 479.8,1104.1 466.8,1012.5 
				470.5,991.4 			"/>
		</g>
		<g>
			<defs>
				<circle id="SVGID_45_" cx="437.3" cy="437.3" r="437.3"/>
			</defs>
			<clipPath id="SVGID_46_">
				<use xlink:href="#SVGID_45_"  style="overflow:visible;"/>
			</clipPath>
			<polygon class="st25" points="525,1047.8 508.3,1130.8 507.4,1149.2 504,1182.5 519,1181.4 527.2,1149.5 533,1115.3 533,1037.9 
							"/>
		</g>
	</g>
</g>
<g id="Layer_1_1_">
</g>
</svg>
