<svg xmlns="http://www.w3.org/2000/svg" xmlns:xlink="http://www.w3.org/1999/xlink" viewBox="0 0 874.68 874.68"><defs><style>.cls-1{fill:none;}.cls-2{fill:#f7f7f7;}.cls-3{clip-path:url(#clip-path);}.cls-4{fill:#d9dadb;}.cls-5{fill:#e0af12;}.cls-6{clip-path:url(#clip-path-2);}.cls-7{clip-path:url(#clip-path-3);}.cls-8{clip-path:url(#clip-path-4);}.cls-9{clip-path:url(#clip-path-5);}</style><clipPath id="clip-path"><circle class="cls-1" cx="437.34" cy="437.34" r="437.34"/></clipPath><clipPath id="clip-path-2"><circle class="cls-1" cx="-46.12" cy="-495.11" r="437.34"/></clipPath><clipPath id="clip-path-3"><circle class="cls-1" cx="837.45" cy="-495.11" r="437.34"/></clipPath><clipPath id="clip-path-4"><circle class="cls-1" cx="-177.43" cy="1602.19" r="437.34"/></clipPath><clipPath id="clip-path-5"><circle class="cls-1" cx="725.7" cy="1602.19" r="437.34"/></clipPath></defs><title>Both Hamstring</title><g id="Back_Left_Hamstrings" data-name="Back Left Hamstrings"><circle class="cls-2" cx="437.34" cy="437.34" r="437.34"/><g class="cls-3"><polygon class="cls-4" points="275.59 -217.11 293.61 -198.42 290.27 -74.27 248.89 15.17 220.19 2.48 210.84 -88.29 226.86 -183.74 275.59 -217.11"/><polygon class="cls-4" points="303.62 -192.41 302.29 -151.7 328.98 -42.23 375.04 13.16 368.36 65.89 373.7 69.23 407.75 -0.18 413.75 -74.94 370.37 -173.73 328.32 -175.73 306.96 -193.08 303.62 -192.41"/><polygon class="cls-4" points="260.9 15.17 260.24 85.25 182.57 199.61 220.85 69.9 260.9 15.17"/><polygon class="cls-4" points="204.17 -21.54 219.52 44.53 161.21 228.09 149.94 219.23 157.65 144.43 164.77 96.38 204.17 -21.54"/><polygon class="cls-4" points="601.31 -217.11 583.29 -198.42 586.63 -74.27 628.01 15.17 656.71 2.48 666.05 -88.29 650.04 -183.74 601.31 -217.11"/><polygon class="cls-4" points="573.28 -192.41 574.61 -151.7 547.91 -42.23 501.86 13.16 508.53 65.89 503.19 69.23 469.15 -0.18 463.14 -74.94 506.53 -173.73 548.58 -175.73 569.94 -193.08 573.28 -192.41"/><polygon class="cls-4" points="130.6 206.74 142.33 234.7 176.61 240.11 179.31 290.63 161.27 362.8 149.54 361.9 160.93 313.86 148.75 313.52 129.7 364.61 115.26 362.8 133.19 311.16 120.67 308.79 96.32 363.7 78.28 361.9 103.08 304.73 94.51 299.65 63.84 348.37 48.51 346.56 94.51 259.06 90 251.84 46.7 269.88 43.99 259.96 79.18 228.39 130.6 206.74"/><polygon class="cls-4" points="748.97 206.74 737.24 234.7 702.96 240.11 700.25 290.63 718.3 362.8 730.02 361.9 718.63 313.86 730.81 313.52 749.87 364.61 764.3 362.8 746.38 311.16 758.89 308.79 783.25 363.7 801.29 361.9 776.48 304.73 785.05 299.65 815.73 348.37 831.06 346.56 785.05 259.06 789.56 251.84 832.87 269.88 835.57 259.96 800.39 228.39 748.97 206.74"/><polygon class="cls-4" points="618.66 15.17 619.33 85.25 697 199.61 658.71 69.9 618.66 15.17"/><polygon class="cls-4" points="675.4 -21.54 660.05 44.53 718.35 228.09 729.62 219.23 721.91 144.43 714.79 96.38 675.4 -21.54"/><polygon class="cls-4" points="326.98 -20.21 365.03 37.19 353.01 62.56 310.96 67.23 326.98 -20.21"/><polygon class="cls-4" points="363.69 75.24 413.08 128.64 396.4 127.3 336.99 129.3 270.25 179.36 304.95 81.25 363.69 75.24"/><polygon class="cls-4" points="549.92 -20.21 511.87 37.19 523.88 62.56 565.93 67.23 549.92 -20.21"/><polygon class="cls-4" points="456.31 1.15 438.95 -49.58 420.26 0.7 390.69 74.57 440.75 133.92 488.14 74.57 456.31 1.15"/><polygon class="cls-4" points="513.21 75.24 463.81 128.64 480.5 127.3 539.9 129.3 606.65 179.36 571.94 81.25 513.21 75.24"/><polygon class="cls-4" points="288.27 366.25 336.33 340.22 410.42 321.53 425.1 279.48 423.76 172.02 397.73 136.65 350.34 135.98 280.26 194.72 279.59 225.73 266.12 289.52 270.25 347.9 288.27 366.25"/><polygon class="cls-4" points="588.63 366.25 540.57 340.22 466.48 321.53 451.8 279.48 453.13 172.02 479.16 136.65 526.55 135.98 596.64 194.72 597.3 225.73 610.77 289.52 606.65 347.9 588.63 366.25"/><polygon class="cls-5" points="338.33 360.91 328.32 525.78 344.33 600.53 312.96 690.64 279.59 532.45 296.28 372.93 338.33 360.91"/><polygon class="cls-5" points="375.71 351.57 396.4 406.3 404.41 550.48 427.1 411.64 424.43 324.2 375.71 351.57"/><polygon class="cls-5" points="360.35 356.91 335.66 523.78 363.69 664.61 401.74 744.04 405.74 575.17 379.04 506.42 377.71 401.63 360.35 356.91"/><polygon class="cls-5" points="279.59 471.24 288.37 375.32 266.12 359.55 266.12 385.83 279.59 471.24"/><polygon class="cls-5" points="538.57 360.91 548.58 525.78 532.56 600.53 563.93 690.64 597.31 532.45 580.62 372.93 538.57 360.91"/><polygon class="cls-5" points="517.28 356.91 541.98 523.78 513.95 664.61 475.9 744.04 471.9 575.17 498.6 506.42 499.93 401.63 517.28 356.91"/><polygon class="cls-5" points="501.19 351.57 480.5 406.3 472.49 550.48 449.8 411.64 452.47 324.2 501.19 351.57"/><polygon class="cls-5" points="598.7 471.24 589.93 375.32 612.17 359.55 612.17 385.83 598.7 471.24"/><polygon class="cls-4" points="363.04 710.13 367.38 933.78 405.79 977.14 424.37 949.26 425.61 889.17 408.88 799.34 363.04 710.13"/><polygon class="cls-4" points="351.27 697.12 348.79 879.88 359.32 949.26 341.36 964.13 309.76 899.7 317.81 775.18 333.3 724.38 334.54 687.83 351.27 697.12"/><polygon class="cls-4" points="515.4 710.13 511.06 933.78 472.66 977.14 454.07 949.26 452.83 889.17 469.56 799.34 515.4 710.13"/><polygon class="cls-4" points="527.17 697.12 529.65 879.88 519.12 949.26 537.09 964.13 568.68 899.7 560.63 775.18 545.14 724.38 543.9 687.83 527.17 697.12"/></g><g class="cls-6"><polygon class="cls-4" points="47.55 285.86 31.03 299.9 33.51 322.21 67.07 278.87 62.71 273.73 47.55 285.86"/><polygon class="cls-4" points="62.05 271.34 40.49 264.11 32.98 280.2 29.09 295.77 30.45 297.54 62.05 271.34"/><polygon class="cls-4" points="7.11 296.17 7.11 293.58 5.48 286.18 -4.49 294.17 -6.05 303.5 -4.9 314.38 7.11 296.17"/><polygon class="cls-4" points="28.77 322.64 -4.9 320.45 10.27 296.49 1.09 248.97 21.11 255.42 38.09 253.72 25.13 299.52 28.77 322.64"/><polygon class="cls-4" points="31.94 -222.32 27.61 1.32 -10.8 44.69 -29.39 16.81 -30.63 -43.28 -13.9 -133.11 31.94 -222.32"/><polygon class="cls-4" points="43.71 -235.33 46.19 -52.58 35.66 16.81 53.62 31.68 85.22 -32.75 77.17 -157.27 61.68 -208.07 60.44 -244.62 43.71 -235.33"/><polygon class="cls-4" points="29.86 24.86 47.82 40.97 20.57 170.45 18.73 248.97 0.65 243.85 -1.12 171.69 -14.13 80 -10.41 58.94 29.86 24.86"/><polygon class="cls-4" points="44.11 115.31 27.38 198.33 26.48 216.77 23.11 250.08 38.09 248.97 46.33 217.09 52.16 182.84 52.16 105.4 44.11 115.31"/></g></g><g id="Back_Right_Hamstrings" data-name="Back Right Hamstrings"><g class="cls-7"><polygon class="cls-4" points="744.53 285.11 761.05 299.15 758.58 321.45 725.01 278.12 729.37 272.98 744.53 285.11"/><polygon class="cls-4" points="730.03 270.58 751.59 263.36 759.1 279.45 763 295.01 761.63 296.79 730.03 270.58"/><polygon class="cls-4" points="784.97 295.41 784.97 292.83 786.6 285.43 796.57 293.42 798.13 302.75 796.98 313.63 784.97 295.41"/><polygon class="cls-4" points="762.9 322.64 796.57 320.45 781.4 296.49 790.58 248.97 770.56 255.42 753.59 253.72 766.54 299.52 762.9 322.64"/><polygon class="cls-4" points="760.57 -222.32 764.91 1.32 803.32 44.69 821.9 16.81 823.14 -43.28 806.42 -133.11 760.57 -222.32"/><polygon class="cls-4" points="748.8 -235.33 746.32 -52.58 756.86 16.81 738.89 31.68 707.29 -32.75 715.35 -157.27 730.84 -208.07 732.07 -244.62 748.8 -235.33"/><polygon class="cls-4" points="761.81 24.86 743.85 40.97 771.1 170.45 772.94 248.97 791.02 243.85 792.79 171.69 805.8 80 802.08 58.94 761.81 24.86"/><polygon class="cls-4" points="747.56 115.31 764.29 198.33 765.19 216.77 768.55 250.08 753.59 248.97 745.34 217.09 739.51 182.84 739.51 105.4 747.56 115.31"/><polygon class="cls-4" points="912.93 -222.32 908.6 1.32 870.19 44.69 851.6 16.81 850.36 -43.28 867.09 -133.11 912.93 -222.32"/><polygon class="cls-4" points="910.85 24.86 928.82 40.97 901.56 170.45 899.72 248.97 881.64 243.85 879.88 171.69 866.87 80 870.58 58.94 910.85 24.86"/></g></g><g id="Front_Abs" data-name="Front Abs"><g class="cls-9"><polygon class="cls-4" points="812.57 885.42 812.57 833.91 785.4 787.07 727.3 768.21 669.25 787.07 642.09 833.91 642.09 885.42 628.97 888.23 634.59 933.2 656.14 940.69 679.55 989.4 727.55 1009.9 775.1 989.4 798.51 940.69 820.06 933.2 825.68 888.23 812.57 885.42"/></g></g></svg>