<?xml version="1.0" encoding="utf-8"?>
<!-- Generator: Adobe Illustrator 22.0.1, SVG Export Plug-In . SVG Version: 6.00 Build 0)  -->
<svg version="1.1" id="Layer_1" xmlns="http://www.w3.org/2000/svg" xmlns:xlink="http://www.w3.org/1999/xlink" x="0px" y="0px"
	 viewBox="0 0 875.4 877.8" style="enable-background:new 0 0 875.4 877.8;" xml:space="preserve">
<style type="text/css">
	.st0{clip-path:url(#SVGID_2_);fill:#F7F7F7;}
	.st1{clip-path:url(#SVGID_4_);}
	.st2{fill:#D9DADB;}
	.st3{clip-path:url(#SVGID_6_);fill:#D9DADB;}
	.st4{clip-path:url(#SVGID_8_);fill:#D9DADB;}
	.st5{clip-path:url(#SVGID_10_);fill:#D9DADB;}
	.st6{clip-path:url(#SVGID_12_);fill:#D9DADB;}
	.st7{clip-path:url(#SVGID_14_);fill:#D9DADB;}
	.st8{clip-path:url(#SVGID_16_);fill:#D9DADB;}
	.st9{clip-path:url(#SVGID_18_);fill:#D9DADB;}
	.st10{clip-path:url(#SVGID_20_);fill:#D9DADB;}
	.st11{clip-path:url(#SVGID_22_);fill:#D9DADB;}
	.st12{clip-path:url(#SVGID_24_);fill:#D9DADB;}
	.st13{clip-path:url(#SVGID_26_);fill:#D9DADB;}
	.st14{clip-path:url(#SVGID_28_);fill:#D9DADB;}
	.st15{clip-path:url(#SVGID_30_);fill:#D9DADB;}
	.st16{clip-path:url(#SVGID_32_);fill:#D9DADB;}
	.st17{clip-path:url(#SVGID_34_);fill:#D9DADB;}
	.st18{clip-path:url(#SVGID_36_);fill:#D9DADB;}
	.st19{clip-path:url(#SVGID_38_);fill:#E0AF12;}
	.st20{clip-path:url(#SVGID_40_);fill:#E0AF12;}
	.st21{clip-path:url(#SVGID_42_);fill:#D9DADB;}
	.st22{clip-path:url(#SVGID_44_);fill:#D9DADB;}
	.st23{clip-path:url(#SVGID_46_);fill:#D9DADB;}
	.st24{clip-path:url(#SVGID_48_);fill:#D9DADB;}
	.st25{clip-path:url(#SVGID_50_);fill:#D9DADB;}
	.st26{clip-path:url(#SVGID_52_);fill:#D9DADB;}
	.st27{clip-path:url(#SVGID_54_);fill:#D9DADB;}
	.st28{clip-path:url(#SVGID_56_);fill:#D9DADB;}
	.st29{clip-path:url(#SVGID_58_);}
</style>
<g id="Front_Abs">
	<g>
		<g>
			<defs>
				<circle id="SVGID_1_" cx="437.3" cy="437.3" r="437.3"/>
			</defs>
			<clipPath id="SVGID_2_">
				<use xlink:href="#SVGID_1_"  style="overflow:visible;"/>
			</clipPath>
			<circle class="st0" cx="437.3" cy="437.3" r="437.3"/>
		</g>
		<g>
			<defs>
				<circle id="SVGID_3_" cx="437.3" cy="437.3" r="437.3"/>
			</defs>
			<clipPath id="SVGID_4_">
				<use xlink:href="#SVGID_3_"  style="overflow:visible;"/>
			</clipPath>
			<g class="st1">
				<polygon class="st2" points="389.6,-135.6 421.5,-87.2 437.3,-31.6 400.5,-60.9 385.8,-113.4 				"/>
				<polygon class="st2" points="374.3,-100.3 382.2,-63.6 335.8,-52.2 306,-62.7 				"/>
				<polygon class="st2" points="344.5,-39.1 307.8,26.6 267.5,46.7 292,66 311.3,122 355.9,140.4 427,105.2 409.3,-32.9 				"/>
				<path class="st2" d="M272.3,205.2c0.5-0.4,1.1-0.7,1.6-1l14.6-108.5l-28-40.3l-28.9,42l-24.5,147l2.2,19.7
					C229.1,243.3,249.7,223.2,272.3,205.2z"/>
				<path class="st2" d="M213,279.7c-0.5,0.6-1.1,1-1.7,1.3l3.7,32.6l51.6-55.1l4.8-35.6C250.7,240.5,231.5,259.7,213,279.7z"/>
				<polygon class="st2" points="218.5,329.4 146.6,523.6 169.5,528.9 245.6,372.3 259.6,284.8 				"/>
				<polygon class="st2" points="197.5,254.1 208,328.5 139.5,511.2 129,504.2 155.4,363.2 				"/>
				<polygon class="st2" points="217.6,90.5 204.5,230.5 195.8,126.4 				"/>
				<polygon class="st2" points="524.3,-247.6 524.3,-299.1 497.2,-346 439.1,-364.8 381,-346 353.9,-299.1 353.9,-247.6 
					340.8,-244.8 346.4,-199.8 367.9,-192.3 391.3,-143.6 439.3,-123.1 486.9,-143.6 510.3,-192.3 531.8,-199.8 537.5,-244.8 				
					"/>
				<polygon class="st2" points="116.7,509 128.1,536.3 161.6,541.6 164.3,591 146.7,661.5 135.2,660.6 146.3,613.7 134.4,613.3 
					115.8,663.2 101.7,661.5 119.2,611 107,608.7 83.2,662.4 65.6,660.6 89.8,604.7 81.4,599.8 51.5,647.4 36.5,645.6 81.4,560.1 
					77,553.1 34.7,570.7 32.1,561 66.5,530.2 				"/>
				<polygon class="st2" points="505.8,-100.3 497.9,-63.6 544.3,-52.2 574.1,-62.7 				"/>
				<polygon class="st2" points="535.6,-39.1 572.3,26.6 612.6,46.7 588.1,66 568.8,122 524.2,140.4 453,105.2 470.8,-32.9 				"/>
				<path class="st2" d="M607.8,205.2c-0.5-0.4-1.1-0.7-1.6-1L591.6,95.7l28-40.3l28.9,42l24.5,147l-2.2,19.7
					C651,243.3,630.4,223.2,607.8,205.2z"/>
				<path class="st2" d="M667.1,279.7c0.5,0.6,1.1,1,1.7,1.3l-3.7,32.6l-51.6-55.1l-4.8-35.6C629.4,240.5,648.6,259.7,667.1,279.7z"
					/>
				<polygon class="st2" points="661.6,329.4 733.5,523.6 710.6,528.9 634.5,372.3 620.4,284.8 				"/>
				<polygon class="st2" points="682.6,254.1 672.1,328.5 740.5,511.2 751.1,504.2 724.7,363.2 				"/>
				<polygon class="st2" points="662.5,90.5 675.6,230.5 684.3,126.4 				"/>
				<polygon class="st2" points="763.4,509 751.9,536.3 718.5,541.6 715.8,591 733.4,661.5 744.9,660.6 733.8,613.7 745.7,613.3 
					764.3,663.2 778.4,661.5 760.9,611 773.1,608.7 796.9,662.4 814.5,660.6 790.3,604.7 798.7,599.8 828.6,647.4 843.6,645.6 
					798.7,560.1 803.1,553.1 845.4,570.7 848,561 813.6,530.2 				"/>
				<path class="st2" d="M590.3-58.4l16.1-8.7l50.4,55.7l0.3,21.2C657.1,9.9,591.3-57.9,590.3-58.4z"/>
				<path class="st2" d="M585.2-56.1c0,1.1,70.7,75.3,70.7,75.3l2.1,65.9l-24.5-42l-47.3-20.1l-33.3-61.3L585.2-56.1z"/>
				<path class="st2" d="M289.7-58.4l-16.1-8.7l-50.4,55.7L223,9.9C223,9.9,288.8-57.9,289.7-58.4z"/>
				<path class="st2" d="M294.9-56.1c0,1.1-70.7,75.3-70.7,75.3L222,85.2l24.5-42l47.3-20.1L327-38.2L294.9-56.1z"/>
				<polygon class="st2" points="489.7,-135.6 457.7,-87.2 441.9,-31.6 478.7,-60.9 491.5,-114.3 				"/>
				<polygon class="st2" points="388.9,1084.9 382.8,1104.3 369.5,1186.2 367.8,1295.5 386.3,1402.1 385.4,1265.5 404.8,1210.9 
					407.4,1151 				"/>
				<polygon class="st2" points="491.2,1084.9 497.3,1104.3 510.5,1186.2 512.3,1295.5 493.8,1402.1 494.7,1265.5 475.3,1210.9 
					472.7,1151 				"/>
			</g>
		</g>
		<g>
			<defs>
				<circle id="SVGID_5_" cx="437.3" cy="437.3" r="437.3"/>
			</defs>
			<clipPath id="SVGID_6_">
				<use xlink:href="#SVGID_5_"  style="overflow:visible;"/>
			</clipPath>
			<polygon class="st3" points="409.8,1462.6 407.4,1527.3 401.3,1552.8 382.8,1552.8 377.5,1535.2 371.3,1534.3 372.6,1551.9 
				349.3,1544.9 343.1,1541.4 316.7,1535.6 315.8,1514.9 341.3,1471.7 354.9,1454.8 383.7,1471.2 			"/>
		</g>
		<g>
			<defs>
				<circle id="SVGID_7_" cx="437.3" cy="437.3" r="437.3"/>
			</defs>
			<clipPath id="SVGID_8_">
				<use xlink:href="#SVGID_7_"  style="overflow:visible;"/>
			</clipPath>
			<polygon class="st4" points="469.7,1462.6 472,1527.3 478.2,1552.8 496.7,1552.8 502,1535.2 508.1,1534.3 506.8,1551.9 
				530.2,1544.9 536.3,1541.4 562.8,1535.6 563.6,1514.9 538.1,1471.7 524.5,1454.8 495.8,1471.2 			"/>
		</g>
		<g>
			<defs>
				<circle id="SVGID_9_" cx="437.3" cy="437.3" r="437.3"/>
			</defs>
			<clipPath id="SVGID_10_">
				<use xlink:href="#SVGID_9_"  style="overflow:visible;"/>
			</clipPath>
			<polygon class="st5" points="348,1414.4 347,1424.6 358.7,1447.5 383.1,1463.4 408.1,1455.2 400.2,1431.3 			"/>
		</g>
		<g>
			<defs>
				<circle id="SVGID_11_" cx="437.3" cy="437.3" r="437.3"/>
			</defs>
			<clipPath id="SVGID_12_">
				<use xlink:href="#SVGID_11_"  style="overflow:visible;"/>
			</clipPath>
			<polygon class="st6" points="531.4,1414.4 532.4,1424.6 520.7,1447.5 496.4,1463.4 471.3,1455.2 479.2,1431.3 			"/>
		</g>
		<g>
			<defs>
				<circle id="SVGID_13_" cx="437.3" cy="437.3" r="437.3"/>
			</defs>
			<clipPath id="SVGID_14_">
				<use xlink:href="#SVGID_13_"  style="overflow:visible;"/>
			</clipPath>
			<polygon class="st7" points="346.6,1134.2 351,1298.1 382.7,1417 346.2,1405.9 284.1,1182.7 306.1,1038.2 			"/>
		</g>
		<g>
			<defs>
				<circle id="SVGID_15_" cx="437.3" cy="437.3" r="437.3"/>
			</defs>
			<clipPath id="SVGID_16_">
				<use xlink:href="#SVGID_15_"  style="overflow:visible;"/>
			</clipPath>
			<polygon class="st8" points="532.8,1134.2 528.4,1298.1 496.7,1417 533.3,1405.9 595.4,1182.7 573.3,1038.2 			"/>
		</g>
		<g>
			<defs>
				<circle id="SVGID_17_" cx="437.3" cy="437.3" r="437.3"/>
			</defs>
			<clipPath id="SVGID_18_">
				<use xlink:href="#SVGID_17_"  style="overflow:visible;"/>
			</clipPath>
			<polygon class="st9" points="322,965.1 319.3,988.8 337.8,1011.8 344,1047.9 356.3,1053.2 366.9,998.5 373.9,979.2 367.8,966.8 
							"/>
		</g>
		<g>
			<defs>
				<circle id="SVGID_19_" cx="437.3" cy="437.3" r="437.3"/>
			</defs>
			<clipPath id="SVGID_20_">
				<use xlink:href="#SVGID_19_"  style="overflow:visible;"/>
			</clipPath>
			<polygon class="st10" points="403.9,966.8 390.7,1003.8 362.5,1058.5 369.5,1108.7 389.8,1052.3 406.6,1020.6 			"/>
		</g>
		<g>
			<defs>
				<circle id="SVGID_21_" cx="437.3" cy="437.3" r="437.3"/>
			</defs>
			<clipPath id="SVGID_22_">
				<use xlink:href="#SVGID_21_"  style="overflow:visible;"/>
			</clipPath>
			<polygon class="st11" points="558.1,965.1 560.8,988.8 542.3,1011.8 536.1,1047.9 523.8,1053.2 513.2,998.5 506.1,979.2 
				512.3,966.8 			"/>
		</g>
		<g>
			<defs>
				<circle id="SVGID_23_" cx="437.3" cy="437.3" r="437.3"/>
			</defs>
			<clipPath id="SVGID_24_">
				<use xlink:href="#SVGID_23_"  style="overflow:visible;"/>
			</clipPath>
			<polygon class="st12" points="476.2,966.8 489.4,1003.8 517.6,1058.5 510.5,1108.7 490.3,1052.3 473.5,1020.6 			"/>
		</g>
		<g>
			<defs>
				<circle id="SVGID_25_" cx="437.3" cy="437.3" r="437.3"/>
			</defs>
			<clipPath id="SVGID_26_">
				<use xlink:href="#SVGID_25_"  style="overflow:visible;"/>
			</clipPath>
			<polygon class="st13" points="303.3,526 361.2,653.5 374.3,756.8 349.7,902.1 296.2,754.2 292.9,601.9 302.6,526.1 			"/>
		</g>
		<g>
			<defs>
				<circle id="SVGID_27_" cx="437.3" cy="437.3" r="437.3"/>
			</defs>
			<clipPath id="SVGID_28_">
				<use xlink:href="#SVGID_27_"  style="overflow:visible;"/>
			</clipPath>
			<polygon class="st14" points="295.9,798.4 288.5,762.9 339.5,903 331.8,922.8 309.1,861.8 			"/>
		</g>
		<g>
			<defs>
				<circle id="SVGID_29_" cx="437.3" cy="437.3" r="437.3"/>
			</defs>
			<clipPath id="SVGID_30_">
				<use xlink:href="#SVGID_29_"  style="overflow:visible;"/>
			</clipPath>
			<polygon class="st15" points="377,711 378.3,714.3 404.1,775.8 387.5,928.1 361.2,914.1 384,772.3 			"/>
		</g>
		<g>
			<defs>
				<circle id="SVGID_31_" cx="437.3" cy="437.3" r="437.3"/>
			</defs>
			<clipPath id="SVGID_32_">
				<use xlink:href="#SVGID_31_"  style="overflow:visible;"/>
			</clipPath>
			<polygon class="st16" points="503.1,711 501.7,714.3 476,775.8 492.6,928.1 518.9,914.1 496.1,772.3 			"/>
		</g>
		<g>
			<defs>
				<circle id="SVGID_33_" cx="437.3" cy="437.3" r="437.3"/>
			</defs>
			<clipPath id="SVGID_34_">
				<use xlink:href="#SVGID_33_"  style="overflow:visible;"/>
			</clipPath>
			<polygon class="st17" points="576.5,528 518.6,655.5 505.4,758.8 530.1,904.1 583.6,756.2 586.9,603.9 577.2,528.1 			"/>
		</g>
		<g>
			<defs>
				<circle id="SVGID_35_" cx="437.3" cy="437.3" r="437.3"/>
			</defs>
			<clipPath id="SVGID_36_">
				<use xlink:href="#SVGID_35_"  style="overflow:visible;"/>
			</clipPath>
			<polygon class="st18" points="583.9,800.4 591.3,764.9 540.3,905 548,924.8 570.7,863.8 			"/>
		</g>
		<g>
			<defs>
				<circle id="SVGID_37_" cx="437.3" cy="437.3" r="437.3"/>
			</defs>
			<clipPath id="SVGID_38_">
				<use xlink:href="#SVGID_37_"  style="overflow:visible;"/>
			</clipPath>
			<polygon class="st19" points="288.2,412 257.5,524.1 272.6,526.6 302.2,520 342.5,516.2 362.6,491.4 352.7,466.7 328.1,459.3 			
				"/>
		</g>
		<g>
			<defs>
				<circle id="SVGID_39_" cx="437.3" cy="437.3" r="437.3"/>
			</defs>
			<clipPath id="SVGID_40_">
				<use xlink:href="#SVGID_39_"  style="overflow:visible;"/>
			</clipPath>
			<polygon class="st20" points="591.6,414 622.2,526.1 607.2,528.6 577.5,522 537.3,518.2 517.1,493.4 527,468.7 551.6,461.3 			
				"/>
		</g>
		<g>
			<defs>
				<circle id="SVGID_41_" cx="437.3" cy="437.3" r="437.3"/>
			</defs>
			<clipPath id="SVGID_42_">
				<use xlink:href="#SVGID_41_"  style="overflow:visible;"/>
			</clipPath>
			<polygon class="st21" points="345.3,522 312.5,524.9 370.5,639.3 410,761.8 405.9,676.9 			"/>
		</g>
		<g>
			<defs>
				<circle id="SVGID_43_" cx="437.3" cy="437.3" r="437.3"/>
			</defs>
			<clipPath id="SVGID_44_">
				<use xlink:href="#SVGID_43_"  style="overflow:visible;"/>
			</clipPath>
			<polygon class="st22" points="409.5,546.7 409.9,546.1 406.8,538.1 368.4,496.1 355.4,514.3 379.7,576.9 			"/>
		</g>
		<g>
			<defs>
				<circle id="SVGID_45_" cx="437.3" cy="437.3" r="437.3"/>
			</defs>
			<clipPath id="SVGID_46_">
				<use xlink:href="#SVGID_45_"  style="overflow:visible;"/>
			</clipPath>
			<polygon class="st23" points="384.6,589.5 411.7,659.4 420.7,573.6 415.4,560 			"/>
		</g>
		<g>
			<defs>
				<circle id="SVGID_47_" cx="437.3" cy="437.3" r="437.3"/>
			</defs>
			<clipPath id="SVGID_48_">
				<use xlink:href="#SVGID_47_"  style="overflow:visible;"/>
			</clipPath>
			<polygon class="st24" points="495.5,589.5 468.4,659.4 459.4,573.6 464.7,560 			"/>
		</g>
		<g>
			<defs>
				<circle id="SVGID_49_" cx="437.3" cy="437.3" r="437.3"/>
			</defs>
			<clipPath id="SVGID_50_">
				<use xlink:href="#SVGID_49_"  style="overflow:visible;"/>
			</clipPath>
			<polygon class="st25" points="534.5,524 567.2,526.9 509.2,641.3 469.7,763.8 473.8,678.9 			"/>
		</g>
		<g>
			<defs>
				<circle id="SVGID_51_" cx="437.3" cy="437.3" r="437.3"/>
			</defs>
			<clipPath id="SVGID_52_">
				<use xlink:href="#SVGID_51_"  style="overflow:visible;"/>
			</clipPath>
			<polygon class="st26" points="470.3,548.7 469.8,548.1 473,540.1 511.3,498.1 524.4,516.3 500.1,578.9 			"/>
		</g>
		<g>
			<defs>
				<circle id="SVGID_53_" cx="437.3" cy="437.3" r="437.3"/>
			</defs>
			<clipPath id="SVGID_54_">
				<use xlink:href="#SVGID_53_"  style="overflow:visible;"/>
			</clipPath>
			<polygon class="st27" points="271.2,535 291.3,528.9 283.7,594.2 282.4,761.8 309,890.8 308.7,951.9 316.6,1026 306.3,1022.1 
				295.5,1047.6 295.9,876.7 270.6,761.8 253.6,531.6 			"/>
		</g>
		<g>
			<defs>
				<circle id="SVGID_55_" cx="437.3" cy="437.3" r="437.3"/>
			</defs>
			<clipPath id="SVGID_56_">
				<use xlink:href="#SVGID_55_"  style="overflow:visible;"/>
			</clipPath>
			<polygon class="st28" points="608.6,537 588.4,530.9 596.1,596.2 597.3,763.8 570.8,892.8 571.1,953.9 563.1,1028 573.4,1024.1 
				584.3,1049.6 583.9,878.7 609.1,763.8 626.1,533.6 			"/>
		</g>
		<g>
			<defs>
				<circle id="SVGID_57_" cx="437.3" cy="437.3" r="437.3"/>
			</defs>
			<clipPath id="SVGID_58_">
				<use xlink:href="#SVGID_57_"  style="overflow:visible;"/>
			</clipPath>
			<g class="st29">
				<polygon class="st2" points="325.8,188.1 353.3,203.4 350.1,167.2 				"/>
				<polygon class="st2" points="348.2,153.5 295.5,131.6 315.3,185 				"/>
				<polygon class="st2" points="315.7,190.2 351.5,212.1 357.7,255.9 322.7,233.1 				"/>
				<polygon class="st2" points="324.4,243.6 355.9,265.5 360.3,310.2 325.3,282.1 				"/>
				<polygon class="st2" points="359.4,333.9 320.9,305 317.6,343.8 290.2,394 332.3,451.9 354.2,455.4 362,373.2 				"/>
				<polygon class="st2" points="554.3,188.1 526.8,203.4 530,167.2 				"/>
				<polygon class="st2" points="531.9,153.5 584.6,131.6 564.7,185 				"/>
				<polygon class="st2" points="564.4,190.2 528.6,212.1 522.4,255.9 557.4,233.1 				"/>
				<polygon class="st2" points="555.7,243.6 524.2,265.5 519.8,310.2 554.8,282.1 				"/>
				<polygon class="st2" points="520.7,333.9 559.2,305 562.5,343.8 589.9,394 547.8,451.9 525.9,455.4 518,373.2 				"/>
				<g>
					<polygon class="st2" points="366.9,152.8 433,123.1 431,171.3 371.5,201.7 					"/>
					<polygon class="st2" points="377.5,213.6 378.8,248 427.7,237.4 430.3,190.5 					"/>
					<polygon class="st2" points="435.6,550 422.8,424.9 422.4,343.4 376,320.7 370.8,469.4 					"/>
					<polygon class="st2" points="380.8,264.5 380.1,306.8 427,319.3 427.7,253.3 					"/>
					<polygon class="st2" points="513.2,152.8 447.1,123.1 449.1,171.3 508.6,201.7 					"/>
					<polygon class="st2" points="502.6,213.6 501.3,248 452.4,237.4 449.7,190.5 					"/>
					<polygon class="st2" points="444.5,550 457.3,424.9 457.7,343.4 504,320.7 509.3,469.4 					"/>
					<polygon class="st2" points="499.3,264.5 500,306.8 453,319.3 452.4,253.3 					"/>
				</g>
			</g>
		</g>
	</g>
</g>
<g id="Layer_1_1_">
</g>
</svg>
