<?xml version="1.0" encoding="utf-8"?>
<!-- Generator: Adobe Illustrator 22.0.1, SVG Export Plug-In . SVG Version: 6.00 Build 0)  -->
<svg version="1.1" id="Layer_1" xmlns="http://www.w3.org/2000/svg" xmlns:xlink="http://www.w3.org/1999/xlink" x="0px" y="0px"
	 viewBox="0 0 874.7 874.7" style="enable-background:new 0 0 874.7 874.7;" xml:space="preserve">
<style type="text/css">
	.st0{clip-path:url(#SVGID_2_);fill:#F7F7F7;stroke:#F7F7F7;stroke-miterlimit:10;}
	.st1{clip-path:url(#SVGID_4_);fill:#F7F7F7;}
	.st2{clip-path:url(#SVGID_6_);}
	.st3{fill:#D9DADB;}
	.st4{clip-path:url(#SVGID_8_);fill:#D9DADB;}
	.st5{clip-path:url(#SVGID_10_);fill:#D9DADB;}
	.st6{clip-path:url(#SVGID_12_);fill:#D9DADB;}
	.st7{clip-path:url(#SVGID_14_);fill:#D9DADB;}
	.st8{clip-path:url(#SVGID_16_);fill:#D9DADB;}
	.st9{clip-path:url(#SVGID_18_);fill:#D9DADB;}
	.st10{clip-path:url(#SVGID_20_);fill:#D9DADB;}
	.st11{clip-path:url(#SVGID_22_);fill:#D9DADB;}
	.st12{clip-path:url(#SVGID_24_);fill:#D9DADB;}
	.st13{clip-path:url(#SVGID_26_);fill:#D9DADB;}
	.st14{clip-path:url(#SVGID_28_);fill:#D9DADB;}
	.st15{clip-path:url(#SVGID_30_);fill:#D9DADB;}
	.st16{clip-path:url(#SVGID_32_);fill:#D9DADB;}
	.st17{clip-path:url(#SVGID_34_);fill:#D9DADB;}
	.st18{clip-path:url(#SVGID_36_);fill:#D9DADB;}
	.st19{clip-path:url(#SVGID_38_);fill:#D9DADB;}
	.st20{clip-path:url(#SVGID_40_);fill:#D9DADB;}
	.st21{clip-path:url(#SVGID_42_);fill:#D9DADB;}
	.st22{clip-path:url(#SVGID_44_);fill:#D9DADB;}
	.st23{clip-path:url(#SVGID_46_);fill:#D9DADB;}
	.st24{clip-path:url(#SVGID_48_);fill:#D9DADB;}
	.st25{clip-path:url(#SVGID_50_);fill:#D9DADB;}
	.st26{clip-path:url(#SVGID_52_);fill:#D9DADB;}
	.st27{clip-path:url(#SVGID_54_);fill:#D9DADB;}
	.st28{clip-path:url(#SVGID_56_);fill:#E0AF12;}
	.st29{clip-path:url(#SVGID_58_);fill:#E0AF12;}
	.st30{clip-path:url(#SVGID_60_);}
</style>
<g id="Layer_1_1_">
</g>
<g id="Front_Abs">
	<g>
		<g>
			<defs>
				<circle id="SVGID_1_" cx="437.3" cy="434.2" r="437.3"/>
			</defs>
			<clipPath id="SVGID_2_">
				<use xlink:href="#SVGID_1_"  style="overflow:visible;"/>
			</clipPath>
			<ellipse class="st0" cx="440.4" cy="435.6" rx="468.9" ry="480.6"/>
		</g>
		<g>
			<defs>
				<circle id="SVGID_3_" cx="437.3" cy="434.2" r="437.3"/>
			</defs>
			<clipPath id="SVGID_4_">
				<use xlink:href="#SVGID_3_"  style="overflow:visible;"/>
			</clipPath>
			<circle class="st1" cx="437.3" cy="434.2" r="437.3"/>
		</g>
		<g>
			<defs>
				<circle id="SVGID_5_" cx="437.3" cy="434.2" r="437.3"/>
			</defs>
			<clipPath id="SVGID_6_">
				<use xlink:href="#SVGID_5_"  style="overflow:visible;"/>
			</clipPath>
			<g class="st2">
				<polygon class="st3" points="387.8,-402.6 419.8,-354.2 435.6,-298.6 398.8,-327.9 384,-380.4 				"/>
				<polygon class="st3" points="372.5,-367.3 380.4,-330.6 334,-319.2 304.3,-329.7 				"/>
				<polygon class="st3" points="342.8,-306 306,-240.4 265.8,-220.3 290.3,-201 309.5,-145 354.1,-126.6 425.3,-161.8 
					407.5,-299.9 				"/>
				<path class="st3" d="M270.5-61.8c0.5-0.4,1.1-0.7,1.6-1l14.6-108.5l-28-40.3l-28.9,42l-24.5,147l2.2,19.7
					C227.4-23.7,248-43.8,270.5-61.8z"/>
				<path class="st3" d="M211.2,12.7c-0.5,0.6-1.1,1-1.7,1.3l3.7,32.6l51.6-55.1l4.8-35.6C248.9-26.5,229.7-7.2,211.2,12.7z"/>
				<polygon class="st3" points="216.7,62.4 144.8,256.6 167.7,261.9 243.9,105.3 257.9,17.8 				"/>
				<polygon class="st3" points="195.7,-12.9 206.2,61.5 137.8,244.2 127.2,237.2 153.6,96.2 				"/>
				<polygon class="st3" points="215.9,-176.5 202.7,-36.5 194,-140.6 				"/>
				<polygon class="st3" points="522.6,-514.6 522.6,-566.1 495.4,-612.9 437.3,-631.8 379.3,-612.9 352.1,-566.1 352.1,-514.6 
					339,-511.8 344.6,-466.8 366.2,-459.3 389.6,-410.6 437.6,-390.1 485.1,-410.6 508.5,-459.3 530.1,-466.8 535.7,-511.8 				"/>
				<polygon class="st3" points="114.9,242 126.4,269.4 159.9,274.6 162.5,324 144.9,394.5 133.4,393.6 144.6,346.7 132.7,346.3 
					114,396.2 99.9,394.5 117.5,344 105.2,341.7 81.4,395.4 63.8,393.6 88,337.8 79.7,332.8 49.7,380.4 34.7,378.6 79.7,293.1 
					75.3,286.1 33,303.7 30.3,294 64.7,263.2 				"/>
				<polygon class="st3" points="504,-367.3 496.2,-330.6 542.5,-319.2 572.3,-329.7 				"/>
				<polygon class="st3" points="533.8,-306 570.5,-240.4 610.8,-220.3 586.3,-201 567,-145 522.4,-126.6 451.3,-161.8 469,-299.9 
									"/>
				<path class="st3" d="M606-61.8c-0.5-0.4-1.1-0.7-1.6-1l-14.6-108.5l28-40.3l28.9,42l24.5,147l-2.2,19.7
					C649.2-23.7,628.6-43.8,606-61.8z"/>
				<path class="st3" d="M665.3,12.7c0.5,0.6,1.1,1,1.7,1.3l-3.7,32.6L611.7-8.5L606.9-44C627.7-26.5,646.8-7.2,665.3,12.7z"/>
				<polygon class="st3" points="659.8,62.4 731.7,256.6 708.8,261.9 632.7,105.3 618.7,17.8 				"/>
				<polygon class="st3" points="680.8,-12.9 670.3,61.5 738.8,244.2 749.4,237.2 722.9,96.2 				"/>
				<polygon class="st3" points="660.7,-176.5 673.8,-36.5 682.6,-140.6 				"/>
				<polygon class="st3" points="761.6,242 750.2,269.4 716.7,274.6 714,324 731.7,394.5 743.1,393.6 732,346.7 743.9,346.3 
					762.5,396.2 776.6,394.5 759.1,344 771.3,341.7 795.1,395.4 812.7,393.6 788.5,337.8 796.9,332.8 826.8,380.4 841.8,378.6 
					796.9,293.1 801.3,286.1 843.6,303.7 846.2,294 811.9,263.2 				"/>
				<path class="st3" d="M588.6-325.3l16.1-8.7l50.4,55.7l0.3,21.2C655.3-257.1,589.6-324.9,588.6-325.3z"/>
				<path class="st3" d="M583.5-323c0,1.1,70.7,75.3,70.7,75.3l2.1,65.9l-24.5-42l-47.3-20.1l-33.3-61.3L583.5-323z"/>
				<path class="st3" d="M288-325.3l-16.1-8.7l-50.4,55.7l-0.3,21.2C221.2-257.1,287-324.9,288-325.3z"/>
				<path class="st3" d="M293.1-323c0,1.1-70.7,75.3-70.7,75.3l-2.1,65.9l24.5-42l47.3-20.1l33.3-61.3L293.1-323z"/>
				<polygon class="st3" points="487.9,-402.6 456,-354.2 440.2,-298.6 477,-327.9 489.7,-381.3 				"/>
				<polygon class="st3" points="387.2,817.9 381,837.3 367.8,919.2 366,1028.5 384.5,1135.1 383.6,998.6 403,943.9 405.7,884 				
					"/>
				<polygon class="st3" points="489.4,817.9 495.6,837.3 508.8,919.2 510.5,1028.5 492,1135.1 492.9,998.6 473.5,943.9 470.9,884 
									"/>
			</g>
		</g>
		<g>
			<defs>
				<circle id="SVGID_7_" cx="437.3" cy="434.2" r="437.3"/>
			</defs>
			<clipPath id="SVGID_8_">
				<use xlink:href="#SVGID_7_"  style="overflow:visible;"/>
			</clipPath>
			<polygon class="st4" points="408,1195.6 405.7,1260.3 399.5,1285.8 381,1285.8 375.7,1268.2 369.5,1267.3 370.9,1284.9 
				347.5,1277.9 341.3,1274.4 314.9,1268.6 314,1247.9 339.6,1204.8 353.1,1187.8 381.9,1204.2 			"/>
		</g>
		<g>
			<defs>
				<circle id="SVGID_9_" cx="437.3" cy="434.2" r="437.3"/>
			</defs>
			<clipPath id="SVGID_10_">
				<use xlink:href="#SVGID_9_"  style="overflow:visible;"/>
			</clipPath>
			<polygon class="st5" points="467.9,1195.6 470.2,1260.3 476.4,1285.8 494.9,1285.8 500.2,1268.2 506.4,1267.3 505,1284.9 
				528.4,1277.9 534.6,1274.4 561,1268.6 561.9,1247.9 536.3,1204.8 522.8,1187.8 494,1204.2 			"/>
		</g>
		<g>
			<defs>
				<circle id="SVGID_11_" cx="437.3" cy="434.2" r="437.3"/>
			</defs>
			<clipPath id="SVGID_12_">
				<use xlink:href="#SVGID_11_"  style="overflow:visible;"/>
			</clipPath>
			<polygon class="st6" points="346.2,1147.4 345.2,1157.6 356.9,1180.5 381.3,1196.4 406.4,1188.2 398.5,1164.3 			"/>
		</g>
		<g>
			<defs>
				<circle id="SVGID_13_" cx="437.3" cy="434.2" r="437.3"/>
			</defs>
			<clipPath id="SVGID_14_">
				<use xlink:href="#SVGID_13_"  style="overflow:visible;"/>
			</clipPath>
			<polygon class="st7" points="529.7,1147.4 530.7,1157.6 519,1180.5 494.6,1196.4 469.5,1188.2 477.4,1164.3 			"/>
		</g>
		<g>
			<defs>
				<circle id="SVGID_15_" cx="437.3" cy="434.2" r="437.3"/>
			</defs>
			<clipPath id="SVGID_16_">
				<use xlink:href="#SVGID_15_"  style="overflow:visible;"/>
			</clipPath>
			<polygon class="st8" points="344.9,867.3 349.3,1031.2 381,1150.1 344.4,1138.9 282.3,915.7 304.3,771.2 			"/>
		</g>
		<g>
			<defs>
				<circle id="SVGID_17_" cx="437.3" cy="434.2" r="437.3"/>
			</defs>
			<clipPath id="SVGID_18_">
				<use xlink:href="#SVGID_17_"  style="overflow:visible;"/>
			</clipPath>
			<polygon class="st9" points="531,867.3 526.6,1031.2 494.9,1150.1 531.5,1138.9 593.6,915.7 571.6,771.2 			"/>
		</g>
		<g>
			<defs>
				<circle id="SVGID_19_" cx="437.3" cy="434.2" r="437.3"/>
			</defs>
			<clipPath id="SVGID_20_">
				<use xlink:href="#SVGID_19_"  style="overflow:visible;"/>
			</clipPath>
			<polygon class="st10" points="320.2,698.1 317.5,721.9 336.1,744.8 342.2,780.9 354.6,786.2 365.1,731.5 372.2,712.2 366,699.8 
							"/>
		</g>
		<g>
			<defs>
				<circle id="SVGID_21_" cx="437.3" cy="434.2" r="437.3"/>
			</defs>
			<clipPath id="SVGID_22_">
				<use xlink:href="#SVGID_21_"  style="overflow:visible;"/>
			</clipPath>
			<polygon class="st11" points="402.1,699.8 388.9,736.8 360.7,791.5 367.8,841.7 388,785.3 404.8,753.6 			"/>
		</g>
		<g>
			<defs>
				<circle id="SVGID_23_" cx="437.3" cy="434.2" r="437.3"/>
			</defs>
			<clipPath id="SVGID_24_">
				<use xlink:href="#SVGID_23_"  style="overflow:visible;"/>
			</clipPath>
			<polygon class="st12" points="556.4,698.1 559,721.9 540.5,744.8 534.3,780.9 522,786.2 511.4,731.5 504.4,712.2 510.5,699.8 			
				"/>
		</g>
		<g>
			<defs>
				<circle id="SVGID_25_" cx="437.3" cy="434.2" r="437.3"/>
			</defs>
			<clipPath id="SVGID_26_">
				<use xlink:href="#SVGID_25_"  style="overflow:visible;"/>
			</clipPath>
			<polygon class="st13" points="474.4,699.8 487.6,736.8 515.8,791.5 508.8,841.7 488.5,785.3 471.8,753.6 			"/>
		</g>
		<g>
			<defs>
				<circle id="SVGID_27_" cx="437.3" cy="434.2" r="437.3"/>
			</defs>
			<clipPath id="SVGID_28_">
				<use xlink:href="#SVGID_27_"  style="overflow:visible;"/>
			</clipPath>
			<polygon class="st14" points="301.5,259 359.4,386.5 372.6,489.8 347.9,635.1 294.4,487.2 291.1,334.9 300.8,259.1 			"/>
		</g>
		<g>
			<defs>
				<circle id="SVGID_29_" cx="437.3" cy="434.2" r="437.3"/>
			</defs>
			<clipPath id="SVGID_30_">
				<use xlink:href="#SVGID_29_"  style="overflow:visible;"/>
			</clipPath>
			<polygon class="st15" points="294.1,531.4 286.7,495.9 337.7,636 330,655.8 307.3,594.8 			"/>
		</g>
		<g>
			<defs>
				<circle id="SVGID_31_" cx="437.3" cy="434.2" r="437.3"/>
			</defs>
			<clipPath id="SVGID_32_">
				<use xlink:href="#SVGID_31_"  style="overflow:visible;"/>
			</clipPath>
			<polygon class="st16" points="375.2,444 376.6,447.3 402.3,508.8 385.7,661.1 359.5,647.1 382.2,505.3 			"/>
		</g>
		<g>
			<defs>
				<circle id="SVGID_33_" cx="437.3" cy="434.2" r="437.3"/>
			</defs>
			<clipPath id="SVGID_34_">
				<use xlink:href="#SVGID_33_"  style="overflow:visible;"/>
			</clipPath>
			<polygon class="st17" points="501.3,444 500,447.3 474.2,508.8 490.8,661.1 517.1,647.1 494.3,505.3 			"/>
		</g>
		<g>
			<defs>
				<circle id="SVGID_35_" cx="437.3" cy="434.2" r="437.3"/>
			</defs>
			<clipPath id="SVGID_36_">
				<use xlink:href="#SVGID_35_"  style="overflow:visible;"/>
			</clipPath>
			<polygon class="st18" points="574.7,261 516.8,388.5 503.6,491.8 528.3,637.1 581.8,489.2 585.1,336.9 575.4,261.1 			"/>
		</g>
		<g>
			<defs>
				<circle id="SVGID_37_" cx="437.3" cy="434.2" r="437.3"/>
			</defs>
			<clipPath id="SVGID_38_">
				<use xlink:href="#SVGID_37_"  style="overflow:visible;"/>
			</clipPath>
			<polygon class="st19" points="582.1,533.4 589.5,497.9 538.5,638 546.2,657.8 568.9,596.8 			"/>
		</g>
		<g>
			<defs>
				<circle id="SVGID_39_" cx="437.3" cy="434.2" r="437.3"/>
			</defs>
			<clipPath id="SVGID_40_">
				<use xlink:href="#SVGID_39_"  style="overflow:visible;"/>
			</clipPath>
			<polygon class="st20" points="286.4,145 255.7,257.1 270.8,259.6 300.4,253 340.7,249.2 360.8,224.4 350.9,199.7 326.4,192.3 			
				"/>
		</g>
		<g>
			<defs>
				<circle id="SVGID_41_" cx="437.3" cy="434.2" r="437.3"/>
			</defs>
			<clipPath id="SVGID_42_">
				<use xlink:href="#SVGID_41_"  style="overflow:visible;"/>
			</clipPath>
			<polygon class="st21" points="589.8,147 620.5,259.1 605.4,261.6 575.8,255 535.5,251.2 515.4,226.4 525.3,201.7 549.8,194.3 			
				"/>
		</g>
		<g>
			<defs>
				<circle id="SVGID_43_" cx="437.3" cy="434.2" r="437.3"/>
			</defs>
			<clipPath id="SVGID_44_">
				<use xlink:href="#SVGID_43_"  style="overflow:visible;"/>
			</clipPath>
			<polygon class="st22" points="343.5,255 310.8,257.9 368.8,372.3 408.3,494.8 404.2,409.9 			"/>
		</g>
		<g>
			<defs>
				<circle id="SVGID_45_" cx="437.3" cy="434.2" r="437.3"/>
			</defs>
			<clipPath id="SVGID_46_">
				<use xlink:href="#SVGID_45_"  style="overflow:visible;"/>
			</clipPath>
			<polygon class="st23" points="407.7,279.7 408.2,279.2 405,271.1 366.7,229.1 353.6,247.3 377.9,310 			"/>
		</g>
		<g>
			<defs>
				<circle id="SVGID_47_" cx="437.3" cy="434.2" r="437.3"/>
			</defs>
			<clipPath id="SVGID_48_">
				<use xlink:href="#SVGID_47_"  style="overflow:visible;"/>
			</clipPath>
			<polygon class="st24" points="382.8,322.5 409.9,392.4 419,306.6 413.6,293 			"/>
		</g>
		<g>
			<defs>
				<circle id="SVGID_49_" cx="437.3" cy="434.2" r="437.3"/>
			</defs>
			<clipPath id="SVGID_50_">
				<use xlink:href="#SVGID_49_"  style="overflow:visible;"/>
			</clipPath>
			<polygon class="st25" points="493.8,322.5 466.6,392.4 457.6,306.6 462.9,293 			"/>
		</g>
		<g>
			<defs>
				<circle id="SVGID_51_" cx="437.3" cy="434.2" r="437.3"/>
			</defs>
			<clipPath id="SVGID_52_">
				<use xlink:href="#SVGID_51_"  style="overflow:visible;"/>
			</clipPath>
			<polygon class="st26" points="532.7,257 565.5,259.9 507.5,374.3 468,496.8 472.1,411.9 			"/>
		</g>
		<g>
			<defs>
				<circle id="SVGID_53_" cx="437.3" cy="434.2" r="437.3"/>
			</defs>
			<clipPath id="SVGID_54_">
				<use xlink:href="#SVGID_53_"  style="overflow:visible;"/>
			</clipPath>
			<polygon class="st27" points="468.5,281.7 468,281.2 471.2,273.1 509.5,231.1 522.6,249.3 498.3,312 			"/>
		</g>
		<g>
			<defs>
				<circle id="SVGID_55_" cx="437.3" cy="434.2" r="437.3"/>
			</defs>
			<clipPath id="SVGID_56_">
				<use xlink:href="#SVGID_55_"  style="overflow:visible;"/>
			</clipPath>
			<polygon class="st28" points="269.4,268 289.6,261.9 281.9,327.2 280.7,494.8 307.2,623.8 306.9,684.9 314.9,759 304.6,755.2 
				293.7,780.6 294.1,609.7 268.9,494.8 251.9,264.6 			"/>
		</g>
		<g>
			<defs>
				<circle id="SVGID_57_" cx="437.3" cy="434.2" r="437.3"/>
			</defs>
			<clipPath id="SVGID_58_">
				<use xlink:href="#SVGID_57_"  style="overflow:visible;"/>
			</clipPath>
			<polygon class="st29" points="606.8,270 586.7,263.9 594.3,329.2 595.5,496.8 569,625.8 569.3,686.9 561.4,761 571.7,757.2 
				582.5,782.6 582.1,611.7 607.4,496.8 624.3,266.6 			"/>
		</g>
		<g>
			<defs>
				<circle id="SVGID_59_" cx="437.3" cy="434.2" r="437.3"/>
			</defs>
			<clipPath id="SVGID_60_">
				<use xlink:href="#SVGID_59_"  style="overflow:visible;"/>
			</clipPath>
			<g class="st30">
				<polygon class="st3" points="324,-78.9 351.5,-63.6 348.3,-99.8 				"/>
				<polygon class="st3" points="346.4,-113.5 293.8,-135.4 313.6,-82 				"/>
				<polygon class="st3" points="313.9,-76.8 349.8,-54.9 355.9,-11.1 320.9,-33.9 				"/>
				<polygon class="st3" points="322.6,-23.4 354.1,-1.5 358.5,43.2 323.5,15.2 				"/>
				<polygon class="st3" points="357.6,66.9 319.1,38 315.8,76.8 288.5,127 330.5,184.9 352.4,188.4 360.3,106.2 				"/>
				<polygon class="st3" points="552.5,-78.9 525,-63.6 528.2,-99.8 				"/>
				<polygon class="st3" points="530.2,-113.5 582.8,-135.4 563,-82 				"/>
				<polygon class="st3" points="562.7,-76.8 526.8,-54.9 520.7,-11.1 555.7,-33.9 				"/>
				<polygon class="st3" points="553.9,-23.4 522.4,-1.5 518,43.2 553,15.2 				"/>
				<polygon class="st3" points="518.9,66.9 557.4,38 560.8,76.8 588.1,127 546,184.9 524.2,188.4 516.3,106.2 				"/>
				<g>
					<polygon class="st3" points="365.1,-114.2 431.2,-143.9 429.2,-95.7 369.8,-65.3 					"/>
					<polygon class="st3" points="375.7,-53.4 377,-19 425.9,-29.6 428.6,-76.5 					"/>
					<polygon class="st3" points="433.9,283 421,157.9 420.7,76.4 374.3,53.7 369,202.5 					"/>
					<polygon class="st3" points="379,-2.5 378.3,39.8 425.3,52.4 425.9,-13.7 					"/>
					<polygon class="st3" points="511.4,-114.2 445.3,-143.9 447.3,-95.7 506.8,-65.3 					"/>
					<polygon class="st3" points="500.9,-53.4 499.5,-19 450.6,-29.6 448,-76.5 					"/>
					<polygon class="st3" points="442.7,283 455.6,157.9 455.9,76.4 502.3,53.7 507.5,202.5 					"/>
					<polygon class="st3" points="497.5,-2.5 498.2,39.8 451.3,52.4 450.6,-13.7 					"/>
				</g>
			</g>
		</g>
	</g>
</g>
</svg>
