<?xml version="1.0" encoding="utf-8"?>
<!-- Generator: Adobe Illustrator 22.0.1, SVG Export Plug-In . SVG Version: 6.00 Build 0)  -->
<svg version="1.1" id="Layer_1" xmlns="http://www.w3.org/2000/svg" xmlns:xlink="http://www.w3.org/1999/xlink" x="0px" y="0px"
	 viewBox="0 0 784 780.6" style="enable-background:new 0 0 784 780.6;" xml:space="preserve">
<style type="text/css">
	.st0{clip-path:url(#SVGID_2_);fill:#F7F7F7;}
	.st1{clip-path:url(#SVGID_4_);}
	.st2{fill:#D9DADB;}
	.st3{clip-path:url(#SVGID_6_);fill:#D9DADB;}
	.st4{clip-path:url(#SVGID_8_);fill:#D9DADB;}
	.st5{clip-path:url(#SVGID_10_);fill:#D9DADB;}
	.st6{clip-path:url(#SVGID_12_);fill:#D9DADB;}
	.st7{clip-path:url(#SVGID_14_);fill:#D9DADB;}
	.st8{clip-path:url(#SVGID_16_);fill:#D9DADB;}
	.st9{clip-path:url(#SVGID_18_);fill:#E0AF12;}
	.st10{clip-path:url(#SVGID_20_);fill:#E0AF12;}
	.st11{clip-path:url(#SVGID_22_);}
	.st12{fill:#E0AF12;}
	.st13{clip-path:url(#SVGID_24_);fill:#D9DADB;}
	.st14{clip-path:url(#SVGID_26_);fill:#D9DADB;}
	.st15{clip-path:url(#SVGID_28_);fill:#D9DADB;}
	.st16{clip-path:url(#SVGID_30_);fill:#D9DADB;}
	.st17{clip-path:url(#SVGID_32_);fill:#D9DADB;}
	.st18{clip-path:url(#SVGID_34_);fill:#D9DADB;}
	.st19{clip-path:url(#SVGID_36_);fill:#D9DADB;}
	.st20{clip-path:url(#SVGID_38_);fill:#D9DADB;}
	.st21{clip-path:url(#SVGID_40_);fill:#D9DADB;}
	.st22{clip-path:url(#SVGID_42_);fill:#D9DADB;}
	.st23{clip-path:url(#SVGID_44_);fill:#D9DADB;}
	.st24{clip-path:url(#SVGID_46_);fill:#D9DADB;}
	.st25{clip-path:url(#SVGID_48_);fill:#D9DADB;}
	.st26{clip-path:url(#SVGID_50_);fill:#D9DADB;}
	.st27{clip-path:url(#SVGID_52_);fill:#D9DADB;}
	.st28{clip-path:url(#SVGID_54_);fill:#D9DADB;}
	.st29{clip-path:url(#SVGID_56_);}
</style>
<g id="Front_Right_Knee">
	<g>
		<g>
			<g>
				<defs>
					<circle id="SVGID_1_" cx="390.3" cy="390.3" r="390.3"/>
				</defs>
				<clipPath id="SVGID_2_">
					<use xlink:href="#SVGID_1_"  style="overflow:visible;"/>
				</clipPath>
				<circle class="st0" cx="390.3" cy="390.3" r="390.3"/>
			</g>
		</g>
		<g>
			<g>
				<defs>
					<circle id="SVGID_3_" cx="390.3" cy="390.3" r="390.3"/>
				</defs>
				<clipPath id="SVGID_4_">
					<use xlink:href="#SVGID_3_"  style="overflow:visible;"/>
				</clipPath>
				<g class="st1">
					<polygon class="st2" points="339.9,-938.4 371.8,-890 387.6,-834.4 350.8,-863.8 336,-916.2 					"/>
					<polygon class="st2" points="324.5,-903.1 332.4,-866.4 286,-855 256.3,-865.5 					"/>
					<polygon class="st2" points="294.8,-841.9 258,-776.2 217.8,-756.1 242.3,-736.9 261.5,-680.8 306.2,-662.5 377.3,-697.6 
						359.6,-835.8 					"/>
					<path class="st2" d="M222.6-597.6c0.5-0.4,1.1-0.7,1.6-1l14.6-108.5l-28-40.3l-28.9,42l-24.5,147l2.2,19.7
						C179.4-559.5,200-579.6,222.6-597.6z"/>
					<path class="st2" d="M163.2-523.1c-0.5,0.6-1.1,1-1.7,1.3l3.7,32.6l51.6-55.1l4.8-35.6C200.9-562.3,181.7-543.1,163.2-523.1z"
						/>
					<polygon class="st2" points="168.8,-473.4 96.8,-279.2 119.8,-274 195.9,-430.5 209.9,-518 					"/>
					<polygon class="st2" points="147.8,-548.7 158.3,-474.3 89.8,-291.6 79.2,-298.6 105.7,-439.6 					"/>
					<polygon class="st2" points="167.9,-712.3 154.8,-572.3 146,-676.5 					"/>
					<polygon class="st2" points="474.6,-1050.4 474.6,-1101.9 447.4,-1148.8 389.3,-1167.6 331.3,-1148.8 304.1,-1101.9 
						304.1,-1050.4 291,-1047.6 296.6,-1002.6 318.2,-995.2 341.6,-946.4 389.6,-925.9 437.1,-946.4 460.5,-995.2 482.1,-1002.6 
						487.7,-1047.6 					"/>
					<polygon class="st2" points="66.9,-293.8 78.4,-266.5 111.9,-261.2 114.5,-211.8 96.9,-141.3 85.4,-142.2 96.6,-189.1 
						84.7,-189.5 66.1,-139.6 52,-141.3 69.5,-191.8 57.2,-194.1 33.5,-140.5 15.8,-142.2 40.1,-198.1 31.7,-203 1.7,-155.4 
						-13.3,-157.2 31.7,-242.7 27.3,-249.7 -15,-232.1 -17.7,-241.8 16.7,-272.6 					"/>
					<polygon class="st2" points="456,-903.1 448.2,-866.4 494.6,-855 524.3,-865.5 					"/>
					<polygon class="st2" points="485.8,-841.9 522.6,-776.2 562.8,-756.1 538.3,-736.9 519.1,-680.8 474.4,-662.5 403.3,-697.6 
						421,-835.8 					"/>
					<path class="st2" d="M558-597.6c-0.5-0.4-1.1-0.7-1.6-1l-14.6-108.5l28-40.3l28.9,42l24.5,147l-2.2,19.7
						C601.2-559.5,580.6-579.6,558-597.6z"/>
					<path class="st2" d="M617.4-523.1c0.5,0.6,1.1,1,1.7,1.3l-3.7,32.6l-51.6-55.1l-4.8-35.6C579.7-562.3,598.9-543.1,617.4-523.1z
						"/>
					<polygon class="st2" points="611.8,-473.4 683.7,-279.2 660.8,-274 584.7,-430.5 570.7,-518 					"/>
					<polygon class="st2" points="632.8,-548.7 622.3,-474.3 690.8,-291.6 701.4,-298.6 674.9,-439.6 					"/>
					<polygon class="st2" points="612.7,-712.3 625.8,-572.3 634.6,-676.5 					"/>
					<polygon class="st2" points="713.7,-293.8 702.2,-266.5 668.7,-261.2 666.1,-211.8 683.7,-141.3 695.1,-142.2 684,-189.1 
						695.9,-189.5 714.5,-139.6 728.6,-141.3 711.1,-191.8 723.3,-194.1 747.1,-140.5 764.8,-142.2 740.5,-198.1 748.9,-203 
						778.9,-155.4 793.8,-157.2 748.9,-242.7 753.3,-249.7 795.6,-232.1 798.2,-241.8 763.9,-272.6 					"/>
					<path class="st2" d="M540.6-861.2l16.1-8.7l50.4,55.7l0.3,21.2C607.4-792.9,541.6-860.7,540.6-861.2z"/>
					<path class="st2" d="M535.5-858.9c0,1.1,70.7,75.3,70.7,75.3l2.1,65.9l-24.5-42l-47.3-20.1L503.3-841L535.5-858.9z"/>
					<path class="st2" d="M240-861.2l-16.1-8.7l-50.4,55.7l-0.3,21.2C173.2-792.9,239-860.7,240-861.2z"/>
					<path class="st2" d="M245.1-858.9c0,1.1-70.7,75.3-70.7,75.3l-2.1,65.9l24.5-42l47.3-20.1l33.3-61.3L245.1-858.9z"/>
					<polygon class="st2" points="439.9,-938.4 408,-890 392.2,-834.4 429,-863.8 441.8,-917.1 					"/>
					<polygon class="st2" points="339.2,282.1 333,301.5 319.8,383.4 318,492.7 336.5,599.3 335.7,462.7 355,408.1 357.7,348.2 
											"/>
					<polygon class="st2" points="441.4,282.1 447.6,301.5 460.8,383.4 462.6,492.7 444.1,599.3 444.9,462.7 425.5,408.1 
						422.9,348.2 					"/>
				</g>
			</g>
		</g>
		<g>
			<g>
				<defs>
					<circle id="SVGID_5_" cx="390.3" cy="390.3" r="390.3"/>
				</defs>
				<clipPath id="SVGID_6_">
					<use xlink:href="#SVGID_5_"  style="overflow:visible;"/>
				</clipPath>
				<polygon class="st3" points="360,659.8 357.7,724.4 351.5,750 333,750 327.7,732.4 321.6,731.5 322.9,749.1 299.5,742.1 
					293.4,738.5 266.9,732.8 266,712.1 291.6,668.9 305.1,652 333.9,668.4 				"/>
			</g>
		</g>
		<g>
			<g>
				<defs>
					<circle id="SVGID_7_" cx="390.3" cy="390.3" r="390.3"/>
				</defs>
				<clipPath id="SVGID_8_">
					<use xlink:href="#SVGID_7_"  style="overflow:visible;"/>
				</clipPath>
				<polygon class="st4" points="419.9,659.8 422.2,724.4 428.4,750 446.9,750 452.2,732.4 458.4,731.5 457.1,749.1 480.4,742.1 
					486.6,738.5 513,732.8 513.9,712.1 488.3,668.9 474.8,652 446,668.4 				"/>
			</g>
		</g>
		<g>
			<g>
				<defs>
					<circle id="SVGID_9_" cx="390.3" cy="390.3" r="390.3"/>
				</defs>
				<clipPath id="SVGID_10_">
					<use xlink:href="#SVGID_9_"  style="overflow:visible;"/>
				</clipPath>
				<polygon class="st5" points="298.2,611.6 297.2,621.8 308.9,644.7 333.3,660.6 358.4,652.4 350.5,628.5 				"/>
			</g>
		</g>
		<g>
			<g>
				<defs>
					<circle id="SVGID_11_" cx="390.3" cy="390.3" r="390.3"/>
				</defs>
				<clipPath id="SVGID_12_">
					<use xlink:href="#SVGID_11_"  style="overflow:visible;"/>
				</clipPath>
				<polygon class="st6" points="481.7,611.6 482.7,621.8 471,644.7 446.6,660.6 421.5,652.4 429.4,628.5 				"/>
			</g>
		</g>
		<g>
			<g>
				<defs>
					<circle id="SVGID_13_" cx="390.3" cy="390.3" r="390.3"/>
				</defs>
				<clipPath id="SVGID_14_">
					<use xlink:href="#SVGID_13_"  style="overflow:visible;"/>
				</clipPath>
				<polygon class="st7" points="296.9,331.4 301.3,495.3 333,614.2 296.4,603.1 234.3,379.9 256.3,235.4 				"/>
			</g>
		</g>
		<g>
			<g>
				<defs>
					<circle id="SVGID_15_" cx="390.3" cy="390.3" r="390.3"/>
				</defs>
				<clipPath id="SVGID_16_">
					<use xlink:href="#SVGID_15_"  style="overflow:visible;"/>
				</clipPath>
				<polygon class="st8" points="483,331.4 478.6,495.3 446.9,614.2 483.5,603.1 545.6,379.9 523.6,235.4 				"/>
			</g>
		</g>
		<g>
			<g>
				<defs>
					<circle id="SVGID_17_" cx="390.3" cy="390.3" r="390.3"/>
				</defs>
				<clipPath id="SVGID_18_">
					<use xlink:href="#SVGID_17_"  style="overflow:visible;"/>
				</clipPath>
				<polygon class="st9" points="272.2,162.2 269.6,186 288.1,208.9 294.2,245.1 306.6,250.4 317.1,195.7 324.2,176.3 318,164 				
					"/>
			</g>
		</g>
		<g>
			<g>
				<defs>
					<circle id="SVGID_19_" cx="390.3" cy="390.3" r="390.3"/>
				</defs>
				<clipPath id="SVGID_20_">
					<use xlink:href="#SVGID_19_"  style="overflow:visible;"/>
				</clipPath>
				<polygon class="st10" points="354.2,164 340.9,201 312.7,255.6 319.8,305.9 340.1,249.5 356.8,217.8 				"/>
			</g>
		</g>
		<g>
			<g>
				<defs>
					<circle id="SVGID_21_" cx="390.3" cy="390.3" r="390.3"/>
				</defs>
				<clipPath id="SVGID_22_">
					<use xlink:href="#SVGID_21_"  style="overflow:visible;"/>
				</clipPath>
				<g class="st11">
					<polygon class="st12" points="508.4,162.2 511,186 492.5,208.9 486.4,245.1 474,250.4 463.4,195.7 456.4,176.3 462.6,164 					
						"/>
					<polygon class="st12" points="426.4,164 439.6,201 467.8,255.6 460.8,305.9 440.5,249.5 423.8,217.8 					"/>
				</g>
			</g>
		</g>
		<g>
			<g>
				<defs>
					<circle id="SVGID_23_" cx="390.3" cy="390.3" r="390.3"/>
				</defs>
				<clipPath id="SVGID_24_">
					<use xlink:href="#SVGID_23_"  style="overflow:visible;"/>
				</clipPath>
				<polygon class="st13" points="253.5,-276.8 311.4,-149.3 324.6,-46 299.9,99.3 246.4,-48.6 243.1,-200.9 252.8,-276.7 				"/>
			</g>
		</g>
		<g>
			<g>
				<defs>
					<circle id="SVGID_25_" cx="390.3" cy="390.3" r="390.3"/>
				</defs>
				<clipPath id="SVGID_26_">
					<use xlink:href="#SVGID_25_"  style="overflow:visible;"/>
				</clipPath>
				<polygon class="st14" points="246.1,-4.4 238.7,-39.9 289.7,100.1 282,120 259.3,59 				"/>
			</g>
		</g>
		<g>
			<g>
				<defs>
					<circle id="SVGID_27_" cx="390.3" cy="390.3" r="390.3"/>
				</defs>
				<clipPath id="SVGID_28_">
					<use xlink:href="#SVGID_27_"  style="overflow:visible;"/>
				</clipPath>
				<polygon class="st15" points="327.2,-91.8 328.6,-88.5 354.4,-27 337.7,125.3 311.5,111.3 334.2,-30.5 				"/>
			</g>
		</g>
		<g>
			<g>
				<defs>
					<circle id="SVGID_29_" cx="390.3" cy="390.3" r="390.3"/>
				</defs>
				<clipPath id="SVGID_30_">
					<use xlink:href="#SVGID_29_"  style="overflow:visible;"/>
				</clipPath>
				<polygon class="st16" points="453.4,-91.8 452,-88.5 426.2,-27 442.9,125.3 469.1,111.3 446.4,-30.5 				"/>
			</g>
		</g>
		<g>
			<g>
				<defs>
					<circle id="SVGID_31_" cx="390.3" cy="390.3" r="390.3"/>
				</defs>
				<clipPath id="SVGID_32_">
					<use xlink:href="#SVGID_31_"  style="overflow:visible;"/>
				</clipPath>
				<polygon class="st17" points="526.8,-274.8 468.8,-147.3 455.7,-44 480.3,101.3 533.9,-46.6 537.1,-198.9 527.4,-274.7 				"/>
			</g>
		</g>
		<g>
			<g>
				<defs>
					<circle id="SVGID_33_" cx="390.3" cy="390.3" r="390.3"/>
				</defs>
				<clipPath id="SVGID_34_">
					<use xlink:href="#SVGID_33_"  style="overflow:visible;"/>
				</clipPath>
				<polygon class="st18" points="534.1,-2.4 541.6,-37.9 490.5,102.1 498.2,122 520.9,61 				"/>
			</g>
		</g>
		<g>
			<g>
				<defs>
					<circle id="SVGID_35_" cx="390.3" cy="390.3" r="390.3"/>
				</defs>
				<clipPath id="SVGID_36_">
					<use xlink:href="#SVGID_35_"  style="overflow:visible;"/>
				</clipPath>
				<polygon class="st19" points="238.4,-390.8 207.8,-278.7 222.8,-276.2 252.5,-282.9 292.7,-286.6 312.9,-311.4 303,-336.2 
					278.4,-343.5 				"/>
			</g>
		</g>
		<g>
			<g>
				<defs>
					<circle id="SVGID_37_" cx="390.3" cy="390.3" r="390.3"/>
				</defs>
				<clipPath id="SVGID_38_">
					<use xlink:href="#SVGID_37_"  style="overflow:visible;"/>
				</clipPath>
				<polygon class="st20" points="541.8,-388.8 572.5,-276.7 557.4,-274.2 527.8,-280.9 487.5,-284.6 467.4,-309.4 477.3,-334.2 
					501.9,-341.5 				"/>
			</g>
		</g>
		<g>
			<g>
				<defs>
					<circle id="SVGID_39_" cx="390.3" cy="390.3" r="390.3"/>
				</defs>
				<clipPath id="SVGID_40_">
					<use xlink:href="#SVGID_39_"  style="overflow:visible;"/>
				</clipPath>
				<polygon class="st21" points="295.5,-280.8 262.8,-278 320.8,-163.5 360.3,-41 356.2,-125.9 				"/>
			</g>
		</g>
		<g>
			<g>
				<defs>
					<circle id="SVGID_41_" cx="390.3" cy="390.3" r="390.3"/>
				</defs>
				<clipPath id="SVGID_42_">
					<use xlink:href="#SVGID_41_"  style="overflow:visible;"/>
				</clipPath>
				<polygon class="st22" points="359.7,-256.1 360.2,-256.7 357,-264.7 318.7,-306.7 305.6,-288.5 329.9,-225.9 				"/>
			</g>
		</g>
		<g>
			<g>
				<defs>
					<circle id="SVGID_43_" cx="390.3" cy="390.3" r="390.3"/>
				</defs>
				<clipPath id="SVGID_44_">
					<use xlink:href="#SVGID_43_"  style="overflow:visible;"/>
				</clipPath>
				<polygon class="st23" points="334.8,-213.3 361.9,-143.4 371,-229.2 365.6,-242.8 				"/>
			</g>
		</g>
		<g>
			<g>
				<defs>
					<circle id="SVGID_45_" cx="390.3" cy="390.3" r="390.3"/>
				</defs>
				<clipPath id="SVGID_46_">
					<use xlink:href="#SVGID_45_"  style="overflow:visible;"/>
				</clipPath>
				<polygon class="st24" points="445.8,-213.3 418.7,-143.4 409.6,-229.2 415,-242.8 				"/>
			</g>
		</g>
		<g>
			<g>
				<defs>
					<circle id="SVGID_47_" cx="390.3" cy="390.3" r="390.3"/>
				</defs>
				<clipPath id="SVGID_48_">
					<use xlink:href="#SVGID_47_"  style="overflow:visible;"/>
				</clipPath>
				<polygon class="st25" points="484.7,-278.8 517.5,-276 459.5,-161.5 420,-39 424.1,-123.9 				"/>
			</g>
		</g>
		<g>
			<g>
				<defs>
					<circle id="SVGID_49_" cx="390.3" cy="390.3" r="390.3"/>
				</defs>
				<clipPath id="SVGID_50_">
					<use xlink:href="#SVGID_49_"  style="overflow:visible;"/>
				</clipPath>
				<polygon class="st26" points="420.5,-254.1 420.1,-254.7 423.2,-262.7 461.6,-304.7 474.6,-286.5 450.3,-223.9 				"/>
			</g>
		</g>
		<g>
			<g>
				<defs>
					<circle id="SVGID_51_" cx="390.3" cy="390.3" r="390.3"/>
				</defs>
				<clipPath id="SVGID_52_">
					<use xlink:href="#SVGID_51_"  style="overflow:visible;"/>
				</clipPath>
				<polygon class="st27" points="221.4,-267.8 241.6,-274 233.9,-208.6 232.7,-41 259.2,87.9 258.9,149.1 266.9,223.2 256.6,219.3 
					245.7,244.8 246.2,73.8 220.9,-41 203.9,-271.2 				"/>
			</g>
		</g>
		<g>
			<g>
				<defs>
					<circle id="SVGID_53_" cx="390.3" cy="390.3" r="390.3"/>
				</defs>
				<clipPath id="SVGID_54_">
					<use xlink:href="#SVGID_53_"  style="overflow:visible;"/>
				</clipPath>
				<polygon class="st28" points="558.8,-265.8 538.7,-272 546.3,-206.6 547.6,-39 521,89.9 521.3,151.1 513.4,225.2 523.7,221.3 
					534.5,246.8 534.1,75.8 559.4,-39 576.4,-269.2 				"/>
			</g>
		</g>
		<g>
			<g>
				<defs>
					<circle id="SVGID_55_" cx="390.3" cy="390.3" r="390.3"/>
				</defs>
				<clipPath id="SVGID_56_">
					<use xlink:href="#SVGID_55_"  style="overflow:visible;"/>
				</clipPath>
				<g class="st29">
					<polygon class="st2" points="276.1,-614.7 303.5,-599.4 300.4,-635.6 					"/>
					<polygon class="st2" points="298.4,-649.4 245.8,-671.2 265.6,-617.9 					"/>
					<polygon class="st2" points="265.9,-612.6 301.8,-590.7 307.9,-546.9 272.9,-569.7 					"/>
					<polygon class="st2" points="274.7,-559.2 306.2,-537.3 310.5,-492.7 275.5,-520.7 					"/>
					<polygon class="st2" points="309.7,-468.9 271.1,-497.8 267.8,-459 240.5,-408.8 282.5,-350.9 304.4,-347.4 312.3,-429.6 					
						"/>
					<polygon class="st2" points="504.5,-614.7 477.1,-599.4 480.2,-635.6 					"/>
					<polygon class="st2" points="482.2,-649.4 534.8,-671.2 515,-617.9 					"/>
					<polygon class="st2" points="514.7,-612.6 478.8,-590.7 472.7,-546.9 507.7,-569.7 					"/>
					<polygon class="st2" points="505.9,-559.2 474.4,-537.3 470,-492.7 505.1,-520.7 					"/>
					<polygon class="st2" points="470.9,-468.9 509.4,-497.8 512.8,-459 540.1,-408.8 498.1,-350.9 476.2,-347.4 468.3,-429.6 					
						"/>
					<g>
						<polygon class="st2" points="317.1,-650 383.2,-679.8 381.3,-631.5 321.8,-601.1 						"/>
						<polygon class="st2" points="327.7,-589.2 329,-554.8 378,-565.4 380.6,-612.3 						"/>
						<polygon class="st2" points="385.9,-252.8 373,-377.9 372.7,-459.4 326.3,-482.2 321,-333.4 						"/>
						<polygon class="st2" points="331,-538.3 330.4,-496 377.3,-483.5 378,-549.6 						"/>
						<polygon class="st2" points="463.4,-650 397.4,-679.8 399.3,-631.5 458.8,-601.1 						"/>
						<polygon class="st2" points="452.9,-589.2 451.5,-554.8 402.6,-565.4 400,-612.3 						"/>
						<polygon class="st2" points="394.7,-252.8 407.6,-377.9 407.9,-459.4 454.3,-482.2 459.5,-333.4 						"/>
						<polygon class="st2" points="449.6,-538.3 450.2,-496 403.3,-483.5 402.6,-549.6 						"/>
					</g>
				</g>
			</g>
		</g>
	</g>
</g>
<g id="Layer_1_1_">
</g>
</svg>
