<?xml version="1.0" encoding="iso-8859-1"?>
<!-- Generator: Adobe Illustrator 22.0.1, SVG Export Plug-In . SVG Version: 6.00 Build 0)  -->
<svg version="1.1" id="Layer_1" xmlns="http://www.w3.org/2000/svg" xmlns:xlink="http://www.w3.org/1999/xlink" x="0px" y="0px"
	 viewBox="0 0 467.326 465.794" style="enable-background:new 0 0 467.326 465.794;" xml:space="preserve">
<g id="Back_Left_Achilles">
	<g>
		<g>
			<defs>
				<circle id="SVGID_1_" cx="232.917" cy="232.917" r="232.917"/>
			</defs>
			<clipPath id="SVGID_2_">
				<use xlink:href="#SVGID_1_"  style="overflow:visible;"/>
			</clipPath>
			<circle style="clip-path:url(#SVGID_2_);fill:#F7F7F7;" cx="257.539" cy="257.055" r="390.295"/>
		</g>
		<g>
			<defs>
				<circle id="SVGID_3_" cx="232.917" cy="232.917" r="232.917"/>
			</defs>
			<clipPath id="SVGID_4_">
				<use xlink:href="#SVGID_3_"  style="overflow:visible;"/>
			</clipPath>
			<g style="clip-path:url(#SVGID_4_);">
				<polygon style="fill:#D9DADB;" points="193.462,-1336.01 187.455,-1273.269 108.026,-1235.891 191.46,-1225.879 
					228.17,-1253.912 220.828,-1358.037 				"/>
				<polygon style="fill:#D9DADB;" points="69.313,-1094.388 87.335,-1075.699 83.998,-951.55 42.615,-862.11 13.914,-874.792 
					4.569,-965.567 20.588,-1061.015 				"/>
				<polygon style="fill:#D9DADB;" points="97.347,-1069.692 96.012,-1028.976 122.711,-919.512 168.766,-864.112 162.091,-811.382 
					167.431,-808.045 201.472,-877.461 207.479,-952.217 164.093,-1051.002 122.043,-1053.005 100.684,-1070.359 				"/>
				<polygon style="fill:#D9DADB;" points="54.629,-862.11 53.962,-792.026 -23.701,-677.667 14.581,-807.377 				"/>
				<polygon style="fill:#D9DADB;" points="-2.106,-898.82 13.246,-832.741 -45.06,-649.188 -56.33,-658.049 -48.62,-732.844 
					-41.5,-780.901 				"/>
				<polygon style="fill:#D9DADB;" points="319.687,-1420.111 318.352,-1492.865 283.644,-1534.248 234.251,-1543.592 
					182.189,-1534.248 147.481,-1492.865 146.146,-1420.111 128.124,-1414.771 134.799,-1376.726 149.483,-1368.049 
					167.505,-1370.051 183.524,-1334.008 204.883,-1362.042 234.252,-1370.746 260.95,-1362.042 282.309,-1334.008 
					298.328,-1370.051 316.35,-1368.049 331.034,-1376.726 337.709,-1414.771 				"/>
				<polygon style="fill:#D9DADB;" points="270.889,-1336.01 276.896,-1273.269 356.324,-1235.891 272.891,-1225.879 
					236.181,-1253.912 243.523,-1358.037 				"/>
				<g>
					<polygon style="fill:#D9DADB;" points="130.053,-1195.175 124.713,-1179.156 100.017,-1167.809 87.335,-1123.089 
						29.265,-1075.031 28.598,-1170.479 63.306,-1223.876 92.007,-1230.551 					"/>
					<polygon style="fill:#D9DADB;" points="114.701,-1221.874 148.074,-1193.173 172.103,-1053.672 221.496,-954.22 
						221.496,-1185.163 184.117,-1213.197 					"/>
					<polygon style="fill:#D9DADB;" points="141.4,-1177.821 163.426,-1063.684 114.701,-1067.689 83.33,-1105.067 
						102.687,-1125.759 107.359,-1153.792 					"/>
					<polygon style="fill:#D9DADB;" points="334.298,-1195.175 339.638,-1179.156 364.334,-1167.809 377.016,-1123.089 
						435.085,-1075.031 435.753,-1170.479 401.045,-1223.876 372.344,-1230.551 					"/>
					<polygon style="fill:#D9DADB;" points="349.65,-1221.874 316.276,-1193.173 292.248,-1053.672 242.855,-954.22 
						242.855,-1185.163 280.233,-1213.197 					"/>
					<polygon style="fill:#D9DADB;" points="322.951,-1177.821 300.925,-1063.684 349.65,-1067.689 381.021,-1105.067 
						361.664,-1125.759 356.992,-1153.792 					"/>
				</g>
				<polygon style="fill:#D9DADB;" points="395.037,-1094.388 377.016,-1075.699 380.353,-951.55 421.736,-862.11 450.437,-874.792 
					459.782,-965.567 443.762,-1061.015 				"/>
				<polygon style="fill:#D9DADB;" points="367.004,-1069.692 368.339,-1028.976 341.64,-919.512 295.585,-864.112 302.26,-811.382 
					296.92,-808.045 262.879,-877.461 256.872,-952.217 300.257,-1051.002 342.308,-1053.005 363.667,-1070.359 				"/>
				<polygon style="fill:#D9DADB;" points="-75.675,-670.542 -63.947,-642.576 -29.666,-637.163 -26.96,-586.644 -45.002,-514.474 
					-56.73,-515.376 -45.341,-563.414 -57.519,-563.752 -76.577,-512.669 -91.011,-514.474 -73.081,-566.12 -85.598,-568.488 
					-109.956,-513.572 -127.998,-515.376 -103.19,-572.548 -111.76,-577.622 -142.432,-528.908 -157.768,-530.712 -111.76,-618.218 
					-116.27,-625.435 -159.572,-607.393 -162.279,-617.316 -127.096,-648.891 				"/>
				<polygon style="fill:#D9DADB;" points="542.696,-670.542 530.968,-642.576 496.687,-637.163 493.981,-586.644 512.023,-514.474 
					523.751,-515.376 512.362,-563.414 524.54,-563.752 543.598,-512.669 558.032,-514.474 540.102,-566.12 552.619,-568.488 
					576.976,-513.572 595.019,-515.376 570.21,-572.548 578.781,-577.622 609.453,-528.908 624.789,-530.712 578.781,-618.218 
					583.291,-625.435 626.593,-607.393 629.3,-617.316 594.117,-648.891 				"/>
				<polygon style="fill:#D9DADB;" points="412.392,-862.11 413.059,-792.026 490.722,-677.667 452.44,-807.377 				"/>
				<polygon style="fill:#D9DADB;" points="469.126,-898.82 453.775,-832.741 512.081,-649.188 523.351,-658.049 515.641,-732.844 
					508.521,-780.901 				"/>
				<polygon style="fill:#D9DADB;" points="324.735,341.038 308.215,355.08 310.693,377.383 344.259,334.05 339.896,328.91 				"/>
				<polygon style="fill:#D9DADB;" points="339.239,326.514 317.675,319.291 310.173,335.378 306.274,350.944 307.639,352.718 				
					"/>
				<polygon style="fill:#D9DADB;" points="284.3,351.343 284.3,348.76 282.667,341.361 272.7,349.349 271.135,358.679 
					272.289,369.562 				"/>
				<polygon style="fill:#D9DADB;" points="140.728,340.285 157.248,354.328 154.77,376.63 121.204,333.297 125.568,328.157 				"/>
				<polygon style="fill:#D9DADB;" points="126.224,325.761 147.788,318.538 155.29,334.625 159.189,350.192 157.824,351.966 				
					"/>
				<polygon style="fill:#D9DADB;" points="181.163,350.59 181.163,348.008 182.796,340.608 192.764,348.596 194.328,357.926 
					193.174,368.809 				"/>
			</g>
		</g>
		<g>
			<defs>
				<circle id="SVGID_5_" cx="232.917" cy="232.917" r="232.917"/>
			</defs>
			<clipPath id="SVGID_6_">
				<use xlink:href="#SVGID_5_"  style="overflow:visible;"/>
			</clipPath>
			<polygon style="clip-path:url(#SVGID_6_);fill:#D9DADB;" points="120.708,-897.485 158.754,-840.083 146.739,-814.719 
				104.689,-810.047 			"/>
		</g>
		<g>
			<defs>
				<circle id="SVGID_7_" cx="232.917" cy="232.917" r="232.917"/>
			</defs>
			<clipPath id="SVGID_8_">
				<use xlink:href="#SVGID_7_"  style="overflow:visible;"/>
			</clipPath>
			<polygon style="clip-path:url(#SVGID_8_);fill:#D9DADB;" points="157.419,-802.038 206.811,-748.64 190.125,-749.975 
				130.72,-747.973 63.974,-697.913 98.682,-796.03 			"/>
		</g>
		<g>
			<defs>
				<circle id="SVGID_9_" cx="232.917" cy="232.917" r="232.917"/>
			</defs>
			<clipPath id="SVGID_10_">
				<use xlink:href="#SVGID_9_"  style="overflow:visible;"/>
			</clipPath>
			<polygon style="clip-path:url(#SVGID_10_);fill:#D9DADB;" points="343.643,-897.485 305.597,-840.083 317.611,-814.719 
				359.662,-810.047 			"/>
		</g>
		<g>
			<defs>
				<circle id="SVGID_11_" cx="232.917" cy="232.917" r="232.917"/>
			</defs>
			<clipPath id="SVGID_12_">
				<use xlink:href="#SVGID_11_"  style="overflow:visible;"/>
			</clipPath>
			<polygon style="clip-path:url(#SVGID_12_);fill:#D9DADB;" points="250.035,-876.126 232.681,-926.854 213.992,-876.571 
				184.415,-802.705 234.475,-743.356 281.865,-802.705 			"/>
		</g>
		<g>
			<defs>
				<circle id="SVGID_13_" cx="232.917" cy="232.917" r="232.917"/>
			</defs>
			<clipPath id="SVGID_14_">
				<use xlink:href="#SVGID_13_"  style="overflow:visible;"/>
			</clipPath>
			<polygon style="clip-path:url(#SVGID_14_);fill:#D9DADB;" points="306.932,-802.038 257.539,-748.64 274.226,-749.975 
				333.631,-747.973 400.377,-697.913 365.669,-796.03 			"/>
		</g>
		<g>
			<defs>
				<circle id="SVGID_15_" cx="232.917" cy="232.917" r="232.917"/>
			</defs>
			<clipPath id="SVGID_16_">
				<use xlink:href="#SVGID_15_"  style="overflow:visible;"/>
			</clipPath>
			<polygon style="clip-path:url(#SVGID_16_);fill:#D9DADB;" points="81.995,-511.022 130.053,-537.054 204.141,-555.743 
				218.826,-597.793 217.491,-705.255 191.46,-740.631 144.069,-741.298 73.986,-682.561 73.318,-651.545 59.848,-587.751 
				63.974,-529.378 			"/>
		</g>
		<g>
			<defs>
				<circle id="SVGID_17_" cx="232.917" cy="232.917" r="232.917"/>
			</defs>
			<clipPath id="SVGID_18_">
				<use xlink:href="#SVGID_17_"  style="overflow:visible;"/>
			</clipPath>
			<polygon style="clip-path:url(#SVGID_18_);fill:#D9DADB;" points="382.353,-511.022 334.296,-537.054 260.207,-555.743 
				245.523,-597.793 246.858,-705.255 272.889,-740.631 320.279,-741.298 390.363,-682.561 391.03,-651.545 404.501,-587.751 
				400.375,-529.378 			"/>
		</g>
		<g>
			<defs>
				<circle id="SVGID_19_" cx="232.917" cy="232.917" r="232.917"/>
			</defs>
			<clipPath id="SVGID_20_">
				<use xlink:href="#SVGID_19_"  style="overflow:visible;"/>
			</clipPath>
			<polygon style="clip-path:url(#SVGID_20_);fill:#D9DADB;" points="132.055,-516.362 122.043,-351.498 138.062,-276.742 
				106.691,-186.634 73.318,-344.823 90.005,-504.348 			"/>
		</g>
		<g>
			<defs>
				<circle id="SVGID_21_" cx="232.917" cy="232.917" r="232.917"/>
			</defs>
			<clipPath id="SVGID_22_">
				<use xlink:href="#SVGID_21_"  style="overflow:visible;"/>
			</clipPath>
			<polygon style="clip-path:url(#SVGID_22_);fill:#D9DADB;" points="169.433,-525.707 190.125,-470.975 198.134,-326.802 
				220.828,-465.635 218.158,-553.073 			"/>
		</g>
		<g>
			<defs>
				<circle id="SVGID_23_" cx="232.917" cy="232.917" r="232.917"/>
			</defs>
			<clipPath id="SVGID_24_">
				<use xlink:href="#SVGID_23_"  style="overflow:visible;"/>
			</clipPath>
			<polygon style="clip-path:url(#SVGID_24_);fill:#D9DADB;" points="154.081,-520.367 129.385,-353.501 157.418,-212.668 
				195.464,-133.24 199.469,-302.106 172.77,-370.855 171.435,-475.647 			"/>
		</g>
		<g>
			<defs>
				<circle id="SVGID_25_" cx="232.917" cy="232.917" r="232.917"/>
			</defs>
			<clipPath id="SVGID_26_">
				<use xlink:href="#SVGID_25_"  style="overflow:visible;"/>
			</clipPath>
			<polygon style="clip-path:url(#SVGID_26_);fill:#D9DADB;" points="73.318,-406.039 82.093,-501.96 59.848,-517.724 
				59.848,-491.447 			"/>
		</g>
		<g>
			<defs>
				<circle id="SVGID_27_" cx="232.917" cy="232.917" r="232.917"/>
			</defs>
			<clipPath id="SVGID_28_">
				<use xlink:href="#SVGID_27_"  style="overflow:visible;"/>
			</clipPath>
			<polygon style="clip-path:url(#SVGID_28_);fill:#D9DADB;" points="332.296,-516.362 342.308,-351.498 326.288,-276.742 
				357.659,-186.634 391.033,-344.823 374.346,-504.348 			"/>
		</g>
		<g>
			<defs>
				<circle id="SVGID_29_" cx="232.917" cy="232.917" r="232.917"/>
			</defs>
			<clipPath id="SVGID_30_">
				<use xlink:href="#SVGID_29_"  style="overflow:visible;"/>
			</clipPath>
			<polygon style="clip-path:url(#SVGID_30_);fill:#D9DADB;" points="311.011,-520.367 335.707,-353.501 307.674,-212.668 
				269.628,-133.24 265.623,-302.106 292.322,-370.855 293.657,-475.647 			"/>
		</g>
		<g>
			<defs>
				<circle id="SVGID_31_" cx="232.917" cy="232.917" r="232.917"/>
			</defs>
			<clipPath id="SVGID_32_">
				<use xlink:href="#SVGID_31_"  style="overflow:visible;"/>
			</clipPath>
			<polygon style="clip-path:url(#SVGID_32_);fill:#D9DADB;" points="294.918,-525.707 274.226,-470.975 266.217,-326.802 
				243.523,-465.635 246.193,-553.073 			"/>
		</g>
		<g>
			<defs>
				<circle id="SVGID_33_" cx="232.917" cy="232.917" r="232.917"/>
			</defs>
			<clipPath id="SVGID_34_">
				<use xlink:href="#SVGID_33_"  style="overflow:visible;"/>
			</clipPath>
			<polygon style="clip-path:url(#SVGID_34_);fill:#D9DADB;" points="392.43,-406.039 383.655,-501.96 405.901,-517.724 
				405.901,-491.447 			"/>
		</g>
		<g>
			<defs>
				<circle id="SVGID_35_" cx="232.917" cy="232.917" r="232.917"/>
			</defs>
			<clipPath id="SVGID_36_">
				<use xlink:href="#SVGID_35_"  style="overflow:visible;"/>
			</clipPath>
			<polygon style="clip-path:url(#SVGID_36_);fill:#E0AF12;" points="159.093,377.822 192.762,375.631 177.595,351.668 
				186.773,304.142 166.751,310.594 149.779,308.895 162.733,354.693 			"/>
		</g>
		<g>
			<defs>
				<circle id="SVGID_37_" cx="232.917" cy="232.917" r="232.917"/>
			</defs>
			<clipPath id="SVGID_38_">
				<use xlink:href="#SVGID_37_"  style="overflow:visible;"/>
			</clipPath>
			<polygon style="clip-path:url(#SVGID_38_);fill:#D9DADB;" points="305.958,377.822 272.289,375.631 287.456,351.668 
				278.278,304.142 298.3,310.594 315.272,308.895 302.318,354.693 			"/>
		</g>
		<g>
			<defs>
				<circle id="SVGID_39_" cx="232.917" cy="232.917" r="232.917"/>
			</defs>
			<clipPath id="SVGID_40_">
				<use xlink:href="#SVGID_39_"  style="overflow:visible;"/>
			</clipPath>
			<polygon style="clip-path:url(#SVGID_40_);fill:#D9DADB;" points="156.766,-167.145 161.103,56.5 199.513,99.866 218.098,71.988 
				219.337,11.895 202.61,-77.935 			"/>
		</g>
		<g>
			<defs>
				<circle id="SVGID_41_" cx="232.917" cy="232.917" r="232.917"/>
			</defs>
			<clipPath id="SVGID_42_">
				<use xlink:href="#SVGID_41_"  style="overflow:visible;"/>
			</clipPath>
			<polygon style="clip-path:url(#SVGID_42_);fill:#D9DADB;" points="144.995,-180.154 142.517,2.602 153.049,71.988 
				135.083,86.856 103.488,22.427 111.542,-102.096 127.029,-152.896 128.268,-189.447 			"/>
		</g>
		<g>
			<defs>
				<circle id="SVGID_43_" cx="232.917" cy="232.917" r="232.917"/>
			</defs>
			<clipPath id="SVGID_44_">
				<use xlink:href="#SVGID_43_"  style="overflow:visible;"/>
			</clipPath>
			<polygon style="clip-path:url(#SVGID_44_);fill:#D9DADB;" points="158.005,80.042 140.039,96.149 167.298,225.628 
				169.137,304.142 187.218,299.025 188.981,226.867 201.991,135.179 198.274,114.115 			"/>
		</g>
		<g>
			<defs>
				<circle id="SVGID_45_" cx="232.917" cy="232.917" r="232.917"/>
			</defs>
			<clipPath id="SVGID_46_">
				<use xlink:href="#SVGID_45_"  style="overflow:visible;"/>
			</clipPath>
			<polygon style="clip-path:url(#SVGID_46_);fill:#D9DADB;" points="143.756,170.491 160.483,253.506 161.386,271.945 
				164.748,305.254 149.779,304.142 141.533,272.271 135.703,238.018 135.703,160.579 			"/>
		</g>
		<g>
			<defs>
				<circle id="SVGID_47_" cx="232.917" cy="232.917" r="232.917"/>
			</defs>
			<clipPath id="SVGID_48_">
				<use xlink:href="#SVGID_47_"  style="overflow:visible;"/>
			</clipPath>
			<polygon style="clip-path:url(#SVGID_48_);fill:#D9DADB;" points="309.129,-167.145 304.792,56.5 266.382,99.866 247.797,71.988 
				246.558,11.895 263.285,-77.935 			"/>
		</g>
		<g>
			<defs>
				<circle id="SVGID_49_" cx="232.917" cy="232.917" r="232.917"/>
			</defs>
			<clipPath id="SVGID_50_">
				<use xlink:href="#SVGID_49_"  style="overflow:visible;"/>
			</clipPath>
			<polygon style="clip-path:url(#SVGID_50_);fill:#D9DADB;" points="320.9,-180.154 323.378,2.602 312.846,71.988 330.812,86.856 
				362.407,22.427 354.354,-102.096 338.866,-152.896 337.627,-189.447 			"/>
		</g>
		<g>
			<defs>
				<circle id="SVGID_51_" cx="232.917" cy="232.917" r="232.917"/>
			</defs>
			<clipPath id="SVGID_52_">
				<use xlink:href="#SVGID_51_"  style="overflow:visible;"/>
			</clipPath>
			<polygon style="clip-path:url(#SVGID_52_);fill:#D9DADB;" points="307.046,80.042 325.012,96.149 297.753,225.628 
				295.914,304.142 277.833,299.025 276.07,226.867 263.06,135.179 266.777,114.115 			"/>
		</g>
		<g>
			<defs>
				<circle id="SVGID_53_" cx="232.917" cy="232.917" r="232.917"/>
			</defs>
			<clipPath id="SVGID_54_">
				<use xlink:href="#SVGID_53_"  style="overflow:visible;"/>
			</clipPath>
			<polygon style="clip-path:url(#SVGID_54_);fill:#D9DADB;" points="321.295,170.491 304.568,253.506 303.665,271.945 
				300.303,305.254 315.272,304.142 323.518,272.271 329.348,238.018 329.348,160.579 			"/>
		</g>
	</g>
</g>
<g id="Layer_1_1_">
</g>
</svg>
