<?xml version="1.0" encoding="iso-8859-1"?>
<!-- Generator: Adobe Illustrator 22.0.1, SVG Export Plug-In . SVG Version: 6.00 Build 0)  -->
<svg version="1.1" id="Layer_1" xmlns="http://www.w3.org/2000/svg" xmlns:xlink="http://www.w3.org/1999/xlink" x="0px" y="0px"
	 viewBox="0 0 467.594 465.509" style="enable-background:new 0 0 467.594 465.509;" xml:space="preserve">
<g id="Front_Right_Ankle">
	<g>
		<g>
			<defs>
				<circle id="SVGID_1_" cx="232.917" cy="232.917" r="232.917"/>
			</defs>
			<clipPath id="SVGID_2_">
				<use xlink:href="#SVGID_1_"  style="overflow:visible;"/>
			</clipPath>
			<circle style="clip-path:url(#SVGID_2_);fill:#F7F7F7;" cx="209.406" cy="185.94" r="390.295"/>
		</g>
		<g>
			<defs>
				<circle id="SVGID_3_" cx="232.917" cy="232.917" r="232.917"/>
			</defs>
			<clipPath id="SVGID_4_">
				<use xlink:href="#SVGID_3_"  style="overflow:visible;"/>
			</clipPath>
			<g style="clip-path:url(#SVGID_4_);">
				<polygon style="fill:#D9DADB;" points="185.195,-1319.719 217.13,-1271.326 232.921,-1215.725 196.125,-1245.069 
					181.357,-1297.549 				"/>
				<polygon style="fill:#D9DADB;" points="169.877,-1284.454 177.754,-1247.695 131.367,-1236.317 101.61,-1246.82 				"/>
				<polygon style="fill:#D9DADB;" points="140.12,-1223.189 103.36,-1157.548 63.1,-1137.418 87.607,-1118.163 106.861,-1062.149 
					151.497,-1043.769 222.623,-1078.917 204.886,-1217.062 				"/>
				<path style="fill:#D9DADB;" d="M67.896-978.906c0.524-0.417,1.069-0.713,1.62-0.956l14.589-108.544l-28.007-40.26l-28.882,42.01
					L2.71-939.618l2.249,19.737C24.711-940.853,45.319-960.944,67.896-978.906z"/>
				<path style="fill:#D9DADB;" d="M8.563-904.429c-0.537,0.58-1.111,0.986-1.694,1.313l3.718,32.64l51.638-55.138l4.78-35.561
					C46.239-943.632,27.058-924.38,8.563-904.429z"/>
				<polygon style="fill:#D9DADB;" points="14.088,-854.722 -57.823,-660.561 -34.911,-655.274 41.22,-811.836 55.223,-899.358 				
					"/>
				<polygon style="fill:#D9DADB;" points="-6.917,-929.991 3.586,-855.597 -64.872,-672.898 -75.447,-679.948 -49.01,-820.942 				
					"/>
				<polygon style="fill:#D9DADB;" points="13.213,-1093.657 0.085,-953.622 -8.667,-1057.773 				"/>
				<polygon style="fill:#D9DADB;" points="319.928,-1431.729 319.928,-1483.247 292.764,-1530.082 234.66,-1548.947 
					176.615,-1530.082 149.451,-1483.247 149.451,-1431.729 136.337,-1428.919 141.957,-1383.958 163.501,-1376.464 
					186.918,-1327.756 234.917,-1307.251 282.461,-1327.756 305.878,-1376.464 327.422,-1383.958 333.042,-1428.919 				"/>
				<polygon style="fill:#D9DADB;" points="-87.728,-675.105 -76.272,-647.787 -42.786,-642.5 -40.143,-593.152 -57.767,-522.655 
					-69.223,-523.536 -58.097,-570.461 -69.994,-570.791 -88.609,-520.893 -102.709,-522.655 -85.195,-573.104 -97.422,-575.417 
					-121.214,-521.774 -138.839,-523.536 -114.605,-579.383 -122.977,-584.34 -152.938,-536.754 -167.919,-538.517 
					-122.977,-623.994 -127.383,-631.044 -169.681,-613.42 -172.325,-623.113 -137.957,-653.956 				"/>
				<polygon style="fill:#D9DADB;" points="301.378,-1284.454 293.501,-1247.695 339.888,-1236.317 369.645,-1246.82 				"/>
				<polygon style="fill:#D9DADB;" points="331.136,-1223.189 367.895,-1157.548 408.155,-1137.418 383.649,-1118.163 
					364.394,-1062.149 319.758,-1043.769 248.632,-1078.917 266.369,-1217.062 				"/>
				<path style="fill:#D9DADB;" d="M403.359-978.906c-0.524-0.417-1.069-0.713-1.62-0.956l-14.589-108.544l28.007-40.26
					l28.882,42.01l24.506,147.037l-2.249,19.737C446.544-940.853,425.936-960.944,403.359-978.906z"/>
				<path style="fill:#D9DADB;" d="M462.692-904.429c0.537,0.58,1.111,0.986,1.694,1.313l-3.718,32.64l-51.638-55.138l-4.78-35.561
					C425.017-943.632,444.197-924.38,462.692-904.429z"/>
				<polygon style="fill:#D9DADB;" points="457.167,-854.722 529.078,-660.561 506.166,-655.274 430.035,-811.836 416.032,-899.358 
									"/>
				<polygon style="fill:#D9DADB;" points="478.172,-929.991 467.67,-855.597 536.127,-672.898 546.702,-679.948 520.266,-820.942 
									"/>
				<polygon style="fill:#D9DADB;" points="458.042,-1093.657 471.17,-953.622 479.923,-1057.773 				"/>
				<polygon style="fill:#D9DADB;" points="558.983,-675.105 547.528,-647.787 514.042,-642.5 511.398,-593.152 529.022,-522.655 
					540.478,-523.536 529.353,-570.461 541.249,-570.791 559.865,-520.893 573.964,-522.655 556.45,-573.104 568.677,-575.417 
					592.469,-521.774 610.094,-523.536 585.86,-579.383 594.232,-584.34 624.193,-536.754 639.174,-538.517 594.232,-623.994 
					598.638,-631.044 640.936,-613.42 643.58,-623.113 609.213,-653.956 				"/>
				<path style="fill:#D9DADB;" d="M385.93-1242.487l16.098-8.709l50.384,55.739l0.276,21.223
					C452.688-1174.234,386.901-1241.993,385.93-1242.487z"/>
				<path style="fill:#D9DADB;" d="M380.814-1240.178c-0.027,1.112,70.717,75.344,70.717,75.344l2.135,65.927l-24.506-42.011
					l-47.262-20.13l-33.258-61.265L380.814-1240.178z"/>
				<path style="fill:#D9DADB;" d="M85.325-1242.487l-16.098-8.709l-50.384,55.739l-0.276,21.223
					C18.567-1174.234,84.354-1241.993,85.325-1242.487z"/>
				<path style="fill:#D9DADB;" d="M90.441-1240.178c0.027,1.112-70.717,75.344-70.717,75.344l-2.135,65.927l24.506-42.011
					l47.262-20.13l33.258-61.265L90.441-1240.178z"/>
				<polygon style="fill:#D9DADB;" points="285.246,-1319.719 253.311,-1271.326 237.52,-1215.725 274.316,-1245.069 
					287.094,-1298.401 				"/>
				<polygon style="fill:#D9DADB;" points="184.512,-99.232 178.343,-79.846 165.125,2.107 163.363,111.377 181.868,218.004 
					180.987,81.416 200.374,26.781 203.017,-33.142 				"/>
				<polygon style="fill:#D9DADB;" points="286.743,-99.232 292.912,-79.846 306.13,2.107 307.893,111.377 289.387,218.004 
					290.268,81.416 270.882,26.781 268.238,-33.142 				"/>
			</g>
		</g>
		<g>
			<defs>
				<circle id="SVGID_5_" cx="232.917" cy="232.917" r="232.917"/>
			</defs>
			<clipPath id="SVGID_6_">
				<use xlink:href="#SVGID_5_"  style="overflow:visible;"/>
			</clipPath>
			<polygon style="clip-path:url(#SVGID_6_);fill:#D9DADB;" points="205.355,278.447 203.017,343.136 196.849,368.691 
				178.343,368.691 173.056,351.067 166.887,350.186 168.209,367.81 144.857,360.76 138.689,357.236 112.252,351.508 
				111.371,330.799 136.926,287.62 150.477,270.682 179.237,287.042 			"/>
		</g>
		<g>
			<defs>
				<circle id="SVGID_7_" cx="232.917" cy="232.917" r="232.917"/>
			</defs>
			<clipPath id="SVGID_8_">
				<use xlink:href="#SVGID_7_"  style="overflow:visible;"/>
			</clipPath>
			<polygon style="clip-path:url(#SVGID_8_);fill:#D9DADB;" points="265.238,278.447 267.576,343.136 273.745,368.691 
				292.25,368.691 297.538,351.067 303.706,350.186 302.384,367.81 325.736,360.76 331.905,357.236 358.341,351.508 
				359.222,330.799 333.667,287.62 320.117,270.682 291.356,287.042 			"/>
		</g>
		<g>
			<defs>
				<circle id="SVGID_9_" cx="232.917" cy="232.917" r="232.917"/>
			</defs>
			<clipPath id="SVGID_10_">
				<use xlink:href="#SVGID_9_"  style="overflow:visible;"/>
			</clipPath>
			<polygon style="clip-path:url(#SVGID_10_);fill:#D9DADB;" points="143.569,230.241 142.574,240.444 154.27,263.339 
				178.659,279.267 203.711,271.054 195.83,247.19 			"/>
		</g>
		<g>
			<defs>
				<circle id="SVGID_11_" cx="232.917" cy="232.917" r="232.917"/>
			</defs>
			<clipPath id="SVGID_12_">
				<use xlink:href="#SVGID_11_"  style="overflow:visible;"/>
			</clipPath>
			<polygon style="clip-path:url(#SVGID_12_);fill:#E0AF12;" points="327.024,230.241 328.02,240.444 316.323,263.339 
				291.935,279.267 266.883,271.054 274.763,247.19 			"/>
		</g>
		<g>
			<defs>
				<circle id="SVGID_13_" cx="232.917" cy="232.917" r="232.917"/>
			</defs>
			<clipPath id="SVGID_14_">
				<use xlink:href="#SVGID_13_"  style="overflow:visible;"/>
			</clipPath>
			<polygon style="clip-path:url(#SVGID_14_);fill:#D9DADB;" points="142.214,-49.885 146.62,114.021 178.324,232.912 
				141.756,221.743 79.647,-1.418 101.678,-145.937 			"/>
		</g>
		<g>
			<defs>
				<circle id="SVGID_15_" cx="232.917" cy="232.917" r="232.917"/>
			</defs>
			<clipPath id="SVGID_16_">
				<use xlink:href="#SVGID_15_"  style="overflow:visible;"/>
			</clipPath>
			<polygon style="clip-path:url(#SVGID_16_);fill:#D9DADB;" points="328.38,-49.885 323.974,114.021 292.27,232.912 
				328.838,221.743 390.946,-1.418 368.916,-145.937 			"/>
		</g>
		<g>
			<defs>
				<circle id="SVGID_17_" cx="232.917" cy="232.917" r="232.917"/>
			</defs>
			<clipPath id="SVGID_18_">
				<use xlink:href="#SVGID_17_"  style="overflow:visible;"/>
			</clipPath>
			<g style="clip-path:url(#SVGID_18_);">
				<polygon style="fill:#D9DADB;" points="117.54,-219.077 114.896,-195.285 133.401,-172.373 139.57,-136.243 151.907,-130.956 
					162.481,-185.591 169.531,-204.978 163.363,-217.315 				"/>
				<polygon style="fill:#D9DADB;" points="199.492,-217.315 186.274,-180.304 158.075,-125.669 165.125,-75.44 185.393,-131.837 
					202.136,-163.561 				"/>
			</g>
		</g>
		<g>
			<defs>
				<circle id="SVGID_19_" cx="232.917" cy="232.917" r="232.917"/>
			</defs>
			<clipPath id="SVGID_20_">
				<use xlink:href="#SVGID_19_"  style="overflow:visible;"/>
			</clipPath>
			<polygon style="clip-path:url(#SVGID_20_);fill:#D9DADB;" points="353.716,-219.077 356.359,-195.285 337.854,-172.373 
				331.685,-136.243 319.348,-130.956 308.774,-185.591 301.724,-204.978 307.893,-217.315 			"/>
		</g>
		<g>
			<defs>
				<circle id="SVGID_21_" cx="232.917" cy="232.917" r="232.917"/>
			</defs>
			<clipPath id="SVGID_22_">
				<use xlink:href="#SVGID_21_"  style="overflow:visible;"/>
			</clipPath>
			<polygon style="clip-path:url(#SVGID_22_);fill:#D9DADB;" points="271.763,-217.315 284.981,-180.304 313.18,-125.669 
				306.13,-75.44 285.862,-131.837 269.119,-163.561 			"/>
		</g>
		<g>
			<defs>
				<circle id="SVGID_23_" cx="232.917" cy="232.917" r="232.917"/>
			</defs>
			<clipPath id="SVGID_24_">
				<use xlink:href="#SVGID_23_"  style="overflow:visible;"/>
			</clipPath>
			<polygon style="clip-path:url(#SVGID_24_);fill:#D9DADB;" points="98.836,-658.124 156.761,-530.606 169.931,-427.33 
				145.237,-282.044 91.734,-429.956 88.441,-582.243 98.161,-658.031 			"/>
		</g>
		<g>
			<defs>
				<circle id="SVGID_25_" cx="232.917" cy="232.917" r="232.917"/>
			</defs>
			<clipPath id="SVGID_26_">
				<use xlink:href="#SVGID_25_"  style="overflow:visible;"/>
			</clipPath>
			<polygon style="clip-path:url(#SVGID_26_);fill:#D9DADB;" points="91.441,-385.73 84.033,-421.203 135.067,-281.168 
				127.366,-261.344 104.679,-322.347 			"/>
		</g>
		<g>
			<defs>
				<circle id="SVGID_27_" cx="232.917" cy="232.917" r="232.917"/>
			</defs>
			<clipPath id="SVGID_28_">
				<use xlink:href="#SVGID_27_"  style="overflow:visible;"/>
			</clipPath>
			<polygon style="clip-path:url(#SVGID_28_);fill:#D9DADB;" points="172.557,-473.091 173.931,-469.812 199.689,-408.325 
				183.06,-256.037 156.804,-270.04 179.559,-411.826 			"/>
		</g>
		<g>
			<defs>
				<circle id="SVGID_29_" cx="232.917" cy="232.917" r="232.917"/>
			</defs>
			<clipPath id="SVGID_30_">
				<use xlink:href="#SVGID_29_"  style="overflow:visible;"/>
			</clipPath>
			<polygon style="clip-path:url(#SVGID_30_);fill:#D9DADB;" points="298.698,-473.091 297.324,-469.812 271.566,-408.325 
				288.195,-256.037 314.452,-270.04 291.696,-411.826 			"/>
		</g>
		<g>
			<defs>
				<circle id="SVGID_31_" cx="232.917" cy="232.917" r="232.917"/>
			</defs>
			<clipPath id="SVGID_32_">
				<use xlink:href="#SVGID_31_"  style="overflow:visible;"/>
			</clipPath>
			<polygon style="clip-path:url(#SVGID_32_);fill:#D9DADB;" points="372.082,-656.124 314.157,-528.606 300.987,-425.33 
				325.681,-280.044 379.184,-427.956 382.477,-580.243 372.757,-656.031 			"/>
		</g>
		<g>
			<defs>
				<circle id="SVGID_33_" cx="232.917" cy="232.917" r="232.917"/>
			</defs>
			<clipPath id="SVGID_34_">
				<use xlink:href="#SVGID_33_"  style="overflow:visible;"/>
			</clipPath>
			<polygon style="clip-path:url(#SVGID_34_);fill:#D9DADB;" points="379.477,-383.73 386.885,-419.203 335.851,-279.168 
				343.552,-259.344 366.239,-320.347 			"/>
		</g>
		<g>
			<defs>
				<circle id="SVGID_35_" cx="232.917" cy="232.917" r="232.917"/>
			</defs>
			<clipPath id="SVGID_36_">
				<use xlink:href="#SVGID_35_"  style="overflow:visible;"/>
			</clipPath>
			<polygon style="clip-path:url(#SVGID_36_);fill:#D9DADB;" points="83.763,-772.099 53.091,-660.001 68.158,-657.548 
				97.785,-664.162 138.051,-667.912 158.195,-692.739 148.291,-717.473 123.723,-724.844 			"/>
		</g>
		<g>
			<defs>
				<circle id="SVGID_37_" cx="232.917" cy="232.917" r="232.917"/>
			</defs>
			<clipPath id="SVGID_38_">
				<use xlink:href="#SVGID_37_"  style="overflow:visible;"/>
			</clipPath>
			<polygon style="clip-path:url(#SVGID_38_);fill:#D9DADB;" points="387.156,-770.099 417.827,-658.001 402.76,-655.548 
				373.133,-662.162 332.867,-665.912 312.723,-690.739 322.627,-715.473 347.195,-722.844 			"/>
		</g>
		<g>
			<defs>
				<circle id="SVGID_39_" cx="232.917" cy="232.917" r="232.917"/>
			</defs>
			<clipPath id="SVGID_40_">
				<use xlink:href="#SVGID_39_"  style="overflow:visible;"/>
			</clipPath>
			<polygon style="clip-path:url(#SVGID_40_);fill:#D9DADB;" points="140.874,-662.156 108.113,-659.263 166.108,-544.859 
				205.618,-422.328 201.502,-507.224 			"/>
		</g>
		<g>
			<defs>
				<circle id="SVGID_41_" cx="232.917" cy="232.917" r="232.917"/>
			</defs>
			<clipPath id="SVGID_42_">
				<use xlink:href="#SVGID_41_"  style="overflow:visible;"/>
			</clipPath>
			<polygon style="clip-path:url(#SVGID_42_);fill:#D9DADB;" points="205.047,-637.393 205.517,-637.983 202.358,-646.02 
				164.018,-687.997 150.965,-669.829 175.271,-607.184 			"/>
		</g>
		<g>
			<defs>
				<circle id="SVGID_43_" cx="232.917" cy="232.917" r="232.917"/>
			</defs>
			<clipPath id="SVGID_44_">
				<use xlink:href="#SVGID_43_"  style="overflow:visible;"/>
			</clipPath>
			<polygon style="clip-path:url(#SVGID_44_);fill:#D9DADB;" points="180.14,-594.637 207.264,-524.729 216.318,-610.5 
				210.964,-624.124 			"/>
		</g>
		<g>
			<defs>
				<circle id="SVGID_45_" cx="232.917" cy="232.917" r="232.917"/>
			</defs>
			<clipPath id="SVGID_46_">
				<use xlink:href="#SVGID_45_"  style="overflow:visible;"/>
			</clipPath>
			<polygon style="clip-path:url(#SVGID_46_);fill:#D9DADB;" points="291.116,-594.637 263.991,-524.729 254.937,-610.5 
				260.291,-624.124 			"/>
		</g>
		<g>
			<defs>
				<circle id="SVGID_47_" cx="232.917" cy="232.917" r="232.917"/>
			</defs>
			<clipPath id="SVGID_48_">
				<use xlink:href="#SVGID_47_"  style="overflow:visible;"/>
			</clipPath>
			<polygon style="clip-path:url(#SVGID_48_);fill:#D9DADB;" points="330.044,-660.156 362.805,-657.263 304.81,-542.859 
				265.3,-420.328 269.416,-505.224 			"/>
		</g>
		<g>
			<defs>
				<circle id="SVGID_49_" cx="232.917" cy="232.917" r="232.917"/>
			</defs>
			<clipPath id="SVGID_50_">
				<use xlink:href="#SVGID_49_"  style="overflow:visible;"/>
			</clipPath>
			<polygon style="clip-path:url(#SVGID_50_);fill:#D9DADB;" points="265.871,-635.393 265.401,-635.983 268.56,-644.02 
				306.9,-685.997 319.953,-667.829 295.647,-605.184 			"/>
		</g>
		<g>
			<defs>
				<circle id="SVGID_51_" cx="232.917" cy="232.917" r="232.917"/>
			</defs>
			<clipPath id="SVGID_52_">
				<use xlink:href="#SVGID_51_"  style="overflow:visible;"/>
			</clipPath>
			<polygon style="clip-path:url(#SVGID_52_);fill:#D9DADB;" points="66.742,-649.151 86.91,-655.274 79.256,-589.932 
				78.03,-422.328 104.564,-293.366 104.271,-232.227 112.207,-158.155 101.906,-161.982 91.043,-136.537 91.483,-307.469 
				66.213,-422.328 49.224,-652.51 			"/>
		</g>
		<g>
			<defs>
				<circle id="SVGID_53_" cx="232.917" cy="232.917" r="232.917"/>
			</defs>
			<clipPath id="SVGID_54_">
				<use xlink:href="#SVGID_53_"  style="overflow:visible;"/>
			</clipPath>
			<polygon style="clip-path:url(#SVGID_54_);fill:#D9DADB;" points="404.177,-647.151 384.008,-653.274 391.662,-587.932 
				392.888,-420.328 366.354,-291.366 366.648,-230.227 358.711,-156.155 369.012,-159.982 379.875,-134.537 379.435,-305.469 
				404.705,-420.328 421.694,-650.51 			"/>
		</g>
		<g>
			<defs>
				<circle id="SVGID_55_" cx="232.917" cy="232.917" r="232.917"/>
			</defs>
			<clipPath id="SVGID_56_">
				<use xlink:href="#SVGID_55_"  style="overflow:visible;"/>
			</clipPath>
			<g style="clip-path:url(#SVGID_56_);">
				<polygon style="fill:#D9DADB;" points="121.397,-996.018 148.872,-980.753 145.699,-1016.924 				"/>
				<polygon style="fill:#D9DADB;" points="143.755,-1030.67 91.107,-1052.521 110.93,-999.167 				"/>
				<polygon style="fill:#D9DADB;" points="111.237,-993.9 147.121,-972.02 153.248,-928.259 118.239,-951.014 				"/>
				<polygon style="fill:#D9DADB;" points="119.99,-940.494 151.497,-918.613 155.874,-873.977 120.865,-901.984 				"/>
				<polygon style="fill:#D9DADB;" points="154.986,-850.25 116.477,-879.133 113.133,-840.328 85.815,-790.099 127.867,-732.192 
					149.747,-728.691 157.624,-810.961 				"/>
				<polygon style="fill:#D9DADB;" points="349.858,-996.018 322.383,-980.753 325.556,-1016.924 				"/>
				<polygon style="fill:#D9DADB;" points="327.5,-1030.67 380.148,-1052.521 360.325,-999.167 				"/>
				<polygon style="fill:#D9DADB;" points="360.018,-993.9 324.134,-972.02 318.007,-928.259 353.016,-951.014 				"/>
				<polygon style="fill:#D9DADB;" points="351.266,-940.494 319.758,-918.613 315.382,-873.977 350.39,-901.984 				"/>
				<polygon style="fill:#D9DADB;" points="316.269,-850.25 354.778,-879.133 358.122,-840.328 385.44,-790.099 343.389,-732.192 
					321.508,-728.691 313.631,-810.961 				"/>
				<g>
					<polygon style="fill:#D9DADB;" points="162.481,-1031.331 228.572,-1061.072 226.589,-1012.826 167.107,-982.424 					"/>
					<polygon style="fill:#D9DADB;" points="173.055,-970.527 174.377,-936.16 223.284,-946.735 225.928,-993.659 					"/>
					<polygon style="fill:#D9DADB;" points="231.215,-634.125 218.339,-759.252 218.014,-840.719 171.627,-863.474 
						166.376,-714.687 					"/>
					<polygon style="fill:#D9DADB;" points="176.36,-919.637 175.699,-877.339 222.623,-864.782 223.284,-930.873 					"/>
					<polygon style="fill:#D9DADB;" points="308.775,-1031.331 242.684,-1061.072 244.666,-1012.826 304.148,-982.424 					"/>
					<polygon style="fill:#D9DADB;" points="298.2,-970.527 296.878,-936.16 247.971,-946.735 245.327,-993.659 					"/>
					<polygon style="fill:#D9DADB;" points="240.04,-634.125 252.917,-759.252 253.241,-840.719 299.628,-863.474 304.879,-714.687 
											"/>
					<polygon style="fill:#D9DADB;" points="294.895,-919.637 295.556,-877.339 248.632,-864.782 247.971,-930.873 					"/>
				</g>
			</g>
		</g>
	</g>
</g>
<g id="Layer_1_1_">
</g>
</svg>
