<?xml version="1.0" encoding="iso-8859-1"?>
<!-- Generator: Adobe Illustrator 22.0.1, SVG Export Plug-In . SVG Version: 6.00 Build 0)  -->
<svg version="1.1" id="Layer_1" xmlns="http://www.w3.org/2000/svg" xmlns:xlink="http://www.w3.org/1999/xlink" x="0px" y="0px"
	 viewBox="0 0 781.017 783.59" style="enable-background:new 0 0 781.017 783.59;" xml:space="preserve">
<g id="Back_Left_Calf">
	<circle style="fill:#F7F7F7;" cx="390.295" cy="390.295" r="390.295"/>
	<g>
		<g>
			<defs>
				<circle id="SVGID_1_" cx="390.295" cy="390.295" r="390.295"/>
			</defs>
			<clipPath id="SVGID_2_">
				<use xlink:href="#SVGID_1_"  style="overflow:visible;"/>
			</clipPath>
			<g style="clip-path:url(#SVGID_2_);">
				<polygon style="fill:#D9DADB;" points="344.596,-1002.576 338.588,-939.834 259.16,-902.456 342.593,-892.444 379.304,-920.478 
					371.962,-1024.602 				"/>
				<polygon style="fill:#D9DADB;" points="220.447,-760.953 238.469,-742.264 235.131,-618.116 193.748,-528.675 165.047,-541.357 
					155.703,-632.132 171.722,-727.58 				"/>
				<polygon style="fill:#D9DADB;" points="248.481,-736.257 247.146,-695.542 273.844,-586.077 319.899,-530.677 313.225,-477.948 
					318.564,-474.61 352.605,-544.027 358.612,-618.783 315.227,-717.568 273.177,-719.57 251.818,-736.924 				"/>
				<polygon style="fill:#D9DADB;" points="205.763,-528.675 205.095,-458.591 127.433,-344.232 165.715,-473.943 				"/>
				<polygon style="fill:#D9DADB;" points="149.028,-565.386 164.38,-499.307 106.074,-315.754 94.804,-324.615 102.514,-399.409 
					109.633,-447.467 				"/>
				<polygon style="fill:#D9DADB;" points="470.821,-1086.677 469.486,-1159.431 434.778,-1200.813 385.385,-1210.158 
					333.323,-1200.813 298.615,-1159.431 297.28,-1086.677 279.258,-1081.337 285.933,-1043.291 300.617,-1034.614 
					318.639,-1036.617 334.658,-1000.574 356.017,-1028.607 385.385,-1037.312 412.084,-1028.607 433.443,-1000.574 
					449.462,-1036.617 467.483,-1034.614 482.168,-1043.291 488.842,-1081.337 				"/>
				<polygon style="fill:#D9DADB;" points="422.023,-1002.576 428.03,-939.834 507.458,-902.456 424.025,-892.444 387.314,-920.478 
					394.656,-1024.602 				"/>
				<g>
					<polygon style="fill:#D9DADB;" points="281.186,-861.741 275.847,-845.721 251.15,-834.375 238.469,-789.654 180.399,-741.597 
						179.732,-837.044 214.44,-890.442 243.141,-897.116 					"/>
					<polygon style="fill:#D9DADB;" points="265.835,-888.439 299.208,-859.738 323.237,-720.238 372.629,-620.785 
						372.629,-851.729 335.251,-879.762 					"/>
					<polygon style="fill:#D9DADB;" points="292.533,-844.386 314.56,-730.25 265.835,-734.255 234.464,-771.633 253.82,-792.324 
						258.493,-820.358 					"/>
					<polygon style="fill:#D9DADB;" points="485.432,-861.741 490.772,-845.721 515.468,-834.375 528.15,-789.654 586.219,-741.597 
						586.887,-837.044 552.178,-890.442 523.477,-897.116 					"/>
					<polygon style="fill:#D9DADB;" points="500.783,-888.439 467.41,-859.738 443.381,-720.238 393.989,-620.785 393.989,-851.729 
						431.367,-879.762 					"/>
					<polygon style="fill:#D9DADB;" points="474.085,-844.386 452.058,-730.25 500.783,-734.255 532.154,-771.633 512.798,-792.324 
						508.126,-820.358 					"/>
				</g>
				<polygon style="fill:#D9DADB;" points="546.171,-760.953 528.15,-742.264 531.487,-618.116 572.87,-528.675 601.571,-541.357 
					610.915,-632.132 594.896,-727.58 				"/>
				<polygon style="fill:#D9DADB;" points="518.138,-736.257 519.473,-695.542 492.774,-586.077 446.719,-530.677 453.393,-477.948 
					448.054,-474.61 414.013,-544.027 408.006,-618.783 451.391,-717.568 493.441,-719.57 514.8,-736.924 				"/>
				<polygon style="fill:#D9DADB;" points="75.459,-337.107 87.187,-309.141 121.467,-303.728 124.174,-253.209 106.131,-181.039 
					94.404,-181.941 105.793,-229.979 93.614,-230.318 74.557,-179.235 60.123,-181.039 78.053,-232.686 65.536,-235.054 
					41.178,-180.137 23.136,-181.941 47.944,-239.114 39.374,-244.188 8.702,-195.473 -6.634,-197.277 39.374,-284.784 
					34.863,-292.001 -8.439,-273.958 -11.145,-283.882 24.038,-315.456 				"/>
				<polygon style="fill:#D9DADB;" points="693.829,-337.107 682.102,-309.141 647.821,-303.728 645.115,-253.209 663.157,-181.039 
					674.885,-181.941 663.495,-229.979 675.674,-230.318 694.732,-179.235 709.165,-181.039 691.236,-232.686 703.753,-235.054 
					728.11,-180.137 746.153,-181.941 721.344,-239.114 729.914,-244.188 760.587,-195.473 775.923,-197.277 729.914,-284.784 
					734.425,-292.001 777.727,-273.958 780.433,-283.882 745.251,-315.456 				"/>
				<polygon style="fill:#D9DADB;" points="563.526,-528.675 564.193,-458.591 641.856,-344.232 603.574,-473.943 				"/>
				<polygon style="fill:#D9DADB;" points="620.26,-565.386 604.909,-499.307 663.215,-315.754 674.485,-324.615 666.774,-399.409 
					659.655,-447.467 				"/>
				<polygon style="fill:#D9DADB;" points="475.869,674.472 459.349,688.515 461.827,710.817 495.393,667.484 491.029,662.344 				
					"/>
				<polygon style="fill:#D9DADB;" points="490.372,659.948 468.809,652.725 461.307,668.812 457.408,684.379 458.772,686.153 				
					"/>
				<polygon style="fill:#D9DADB;" points="435.434,684.777 435.434,682.195 433.8,674.795 423.833,682.783 422.269,692.113 
					423.423,702.996 				"/>
				<polygon style="fill:#D9DADB;" points="291.861,673.72 308.382,687.762 305.904,710.065 272.338,666.732 276.701,661.592 				
					"/>
				<polygon style="fill:#D9DADB;" points="277.358,659.195 298.922,651.973 306.424,668.06 310.323,683.626 308.958,685.4 				"/>
				<polygon style="fill:#D9DADB;" points="332.297,684.025 332.297,681.442 333.93,674.043 343.897,682.031 345.462,691.361 
					344.308,702.244 				"/>
			</g>
		</g>
		<g>
			<defs>
				<circle id="SVGID_3_" cx="390.295" cy="390.295" r="390.295"/>
			</defs>
			<clipPath id="SVGID_4_">
				<use xlink:href="#SVGID_3_"  style="overflow:visible;"/>
			</clipPath>
			<polygon style="clip-path:url(#SVGID_4_);fill:#D9DADB;" points="271.842,-564.051 309.887,-506.649 297.873,-481.285 
				255.823,-476.613 			"/>
		</g>
		<g>
			<defs>
				<circle id="SVGID_5_" cx="390.295" cy="390.295" r="390.295"/>
			</defs>
			<clipPath id="SVGID_6_">
				<use xlink:href="#SVGID_5_"  style="overflow:visible;"/>
			</clipPath>
			<polygon style="clip-path:url(#SVGID_6_);fill:#D9DADB;" points="308.552,-468.603 357.945,-415.206 341.258,-416.541 
				281.854,-414.538 215.107,-364.478 249.815,-462.596 			"/>
		</g>
		<g>
			<defs>
				<circle id="SVGID_7_" cx="390.295" cy="390.295" r="390.295"/>
			</defs>
			<clipPath id="SVGID_8_">
				<use xlink:href="#SVGID_7_"  style="overflow:visible;"/>
			</clipPath>
			<polygon style="clip-path:url(#SVGID_8_);fill:#D9DADB;" points="494.776,-564.051 456.731,-506.649 468.745,-481.285 
				510.795,-476.613 			"/>
		</g>
		<g>
			<defs>
				<circle id="SVGID_9_" cx="390.295" cy="390.295" r="390.295"/>
			</defs>
			<clipPath id="SVGID_10_">
				<use xlink:href="#SVGID_9_"  style="overflow:visible;"/>
			</clipPath>
			<polygon style="clip-path:url(#SVGID_10_);fill:#D9DADB;" points="401.168,-542.692 383.814,-593.419 365.125,-543.137 
				335.549,-469.271 385.609,-409.921 432.999,-469.271 			"/>
		</g>
		<g>
			<defs>
				<circle id="SVGID_11_" cx="390.295" cy="390.295" r="390.295"/>
			</defs>
			<clipPath id="SVGID_12_">
				<use xlink:href="#SVGID_11_"  style="overflow:visible;"/>
			</clipPath>
			<polygon style="clip-path:url(#SVGID_12_);fill:#D9DADB;" points="458.066,-468.603 408.673,-415.206 425.36,-416.541 
				484.764,-414.538 551.511,-364.478 516.803,-462.596 			"/>
		</g>
		<g>
			<defs>
				<circle id="SVGID_13_" cx="390.295" cy="390.295" r="390.295"/>
			</defs>
			<clipPath id="SVGID_14_">
				<use xlink:href="#SVGID_13_"  style="overflow:visible;"/>
			</clipPath>
			<polygon style="clip-path:url(#SVGID_14_);fill:#D9DADB;" points="233.129,-177.588 281.186,-203.619 355.275,-222.308 
				369.959,-264.359 368.624,-371.821 342.593,-407.196 295.203,-407.864 225.119,-349.127 224.452,-318.11 210.981,-254.317 
				215.107,-195.943 			"/>
		</g>
		<g>
			<defs>
				<circle id="SVGID_15_" cx="390.295" cy="390.295" r="390.295"/>
			</defs>
			<clipPath id="SVGID_16_">
				<use xlink:href="#SVGID_15_"  style="overflow:visible;"/>
			</clipPath>
			<polygon style="clip-path:url(#SVGID_16_);fill:#D9DADB;" points="533.487,-177.588 485.429,-203.619 411.341,-222.308 
				396.656,-264.359 397.991,-371.821 424.023,-407.196 471.413,-407.864 541.497,-349.127 542.164,-318.11 555.635,-254.317 
				551.509,-195.943 			"/>
		</g>
		<g>
			<defs>
				<circle id="SVGID_17_" cx="390.295" cy="390.295" r="390.295"/>
			</defs>
			<clipPath id="SVGID_18_">
				<use xlink:href="#SVGID_17_"  style="overflow:visible;"/>
			</clipPath>
			<polygon style="clip-path:url(#SVGID_18_);fill:#D9DADB;" points="283.189,-182.928 273.177,-18.064 289.196,56.693 
				257.825,146.8 224.452,-11.389 241.138,-170.913 			"/>
		</g>
		<g>
			<defs>
				<circle id="SVGID_19_" cx="390.295" cy="390.295" r="390.295"/>
			</defs>
			<clipPath id="SVGID_20_">
				<use xlink:href="#SVGID_19_"  style="overflow:visible;"/>
			</clipPath>
			<polygon style="clip-path:url(#SVGID_20_);fill:#D9DADB;" points="320.567,-192.272 341.258,-137.54 349.268,6.633 
				371.962,-132.2 369.292,-219.638 			"/>
		</g>
		<g>
			<defs>
				<circle id="SVGID_21_" cx="390.295" cy="390.295" r="390.295"/>
			</defs>
			<clipPath id="SVGID_22_">
				<use xlink:href="#SVGID_21_"  style="overflow:visible;"/>
			</clipPath>
			<polygon style="clip-path:url(#SVGID_22_);fill:#D9DADB;" points="305.215,-186.932 280.519,-20.066 308.552,120.766 
				346.597,200.195 350.603,31.329 323.904,-37.42 322.569,-142.212 			"/>
		</g>
		<g>
			<defs>
				<circle id="SVGID_23_" cx="390.295" cy="390.295" r="390.295"/>
			</defs>
			<clipPath id="SVGID_24_">
				<use xlink:href="#SVGID_23_"  style="overflow:visible;"/>
			</clipPath>
			<polygon style="clip-path:url(#SVGID_24_);fill:#D9DADB;" points="224.452,-72.604 233.227,-168.526 210.981,-184.289 
				210.981,-158.013 			"/>
		</g>
		<g>
			<defs>
				<circle id="SVGID_25_" cx="390.295" cy="390.295" r="390.295"/>
			</defs>
			<clipPath id="SVGID_26_">
				<use xlink:href="#SVGID_25_"  style="overflow:visible;"/>
			</clipPath>
			<polygon style="clip-path:url(#SVGID_26_);fill:#D9DADB;" points="483.429,-182.928 493.441,-18.064 477.422,56.693 
				508.793,146.8 542.166,-11.389 525.48,-170.913 			"/>
		</g>
		<g>
			<defs>
				<circle id="SVGID_27_" cx="390.295" cy="390.295" r="390.295"/>
			</defs>
			<clipPath id="SVGID_28_">
				<use xlink:href="#SVGID_27_"  style="overflow:visible;"/>
			</clipPath>
			<polygon style="clip-path:url(#SVGID_28_);fill:#D9DADB;" points="462.144,-186.932 486.841,-20.066 458.807,120.766 
				420.762,200.195 416.757,31.329 443.455,-37.42 444.79,-142.212 			"/>
		</g>
		<g>
			<defs>
				<circle id="SVGID_29_" cx="390.295" cy="390.295" r="390.295"/>
			</defs>
			<clipPath id="SVGID_30_">
				<use xlink:href="#SVGID_29_"  style="overflow:visible;"/>
			</clipPath>
			<polygon style="clip-path:url(#SVGID_30_);fill:#D9DADB;" points="446.051,-192.272 425.36,-137.54 417.35,6.633 394.656,-132.2 
				397.326,-219.638 			"/>
		</g>
		<g>
			<defs>
				<circle id="SVGID_31_" cx="390.295" cy="390.295" r="390.295"/>
			</defs>
			<clipPath id="SVGID_32_">
				<use xlink:href="#SVGID_31_"  style="overflow:visible;"/>
			</clipPath>
			<polygon style="clip-path:url(#SVGID_32_);fill:#D9DADB;" points="543.564,-72.604 534.789,-168.526 557.035,-184.289 
				557.035,-158.013 			"/>
		</g>
		<g>
			<defs>
				<circle id="SVGID_33_" cx="390.295" cy="390.295" r="390.295"/>
			</defs>
			<clipPath id="SVGID_34_">
				<use xlink:href="#SVGID_33_"  style="overflow:visible;"/>
			</clipPath>
			<polygon style="clip-path:url(#SVGID_34_);fill:#D9DADB;" points="310.226,711.256 343.895,709.066 328.729,685.103 
				337.907,637.577 317.884,644.028 300.913,642.329 313.866,688.128 			"/>
		</g>
		<g>
			<defs>
				<circle id="SVGID_35_" cx="390.295" cy="390.295" r="390.295"/>
			</defs>
			<clipPath id="SVGID_36_">
				<use xlink:href="#SVGID_35_"  style="overflow:visible;"/>
			</clipPath>
			<polygon style="clip-path:url(#SVGID_36_);fill:#D9DADB;" points="457.092,711.256 423.423,709.066 438.589,685.103 
				429.411,637.577 449.434,644.028 466.406,642.329 453.452,688.128 			"/>
		</g>
		<g>
			<defs>
				<circle id="SVGID_37_" cx="390.295" cy="390.295" r="390.295"/>
			</defs>
			<clipPath id="SVGID_38_">
				<use xlink:href="#SVGID_37_"  style="overflow:visible;"/>
			</clipPath>
			<g style="clip-path:url(#SVGID_38_);">
				<polygon style="fill:#E0AF12;" points="307.9,166.29 312.236,389.935 350.646,433.301 369.232,405.423 370.471,345.33 
					353.744,255.5 				"/>
				<polygon style="fill:#E0AF12;" points="296.129,153.28 293.651,336.037 304.183,405.423 286.217,420.291 254.622,355.861 
					262.675,231.339 278.163,180.539 279.402,143.987 				"/>
				<polygon style="fill:#E0AF12;" points="309.139,413.476 291.173,429.584 318.432,559.062 320.27,637.577 338.352,632.46 
					340.115,560.301 353.124,468.613 349.407,447.549 				"/>
				<polygon style="fill:#E0AF12;" points="294.89,503.925 311.617,586.94 312.52,605.38 315.882,638.689 300.913,637.577 
					292.667,605.705 286.836,571.453 286.836,494.013 				"/>
			</g>
		</g>
		<g>
			<defs>
				<circle id="SVGID_39_" cx="390.295" cy="390.295" r="390.295"/>
			</defs>
			<clipPath id="SVGID_40_">
				<use xlink:href="#SVGID_39_"  style="overflow:visible;"/>
			</clipPath>
			<polygon style="clip-path:url(#SVGID_40_);fill:#D9DADB;" points="460.263,166.29 455.926,389.935 417.516,433.301 
				398.931,405.423 397.692,345.33 414.419,255.5 			"/>
		</g>
		<g>
			<defs>
				<circle id="SVGID_41_" cx="390.295" cy="390.295" r="390.295"/>
			</defs>
			<clipPath id="SVGID_42_">
				<use xlink:href="#SVGID_41_"  style="overflow:visible;"/>
			</clipPath>
			<polygon style="clip-path:url(#SVGID_42_);fill:#D9DADB;" points="472.033,153.28 474.512,336.037 463.98,405.423 
				481.946,420.291 513.541,355.861 505.487,231.339 489.999,180.539 488.76,143.987 			"/>
		</g>
		<g>
			<defs>
				<circle id="SVGID_43_" cx="390.295" cy="390.295" r="390.295"/>
			</defs>
			<clipPath id="SVGID_44_">
				<use xlink:href="#SVGID_43_"  style="overflow:visible;"/>
			</clipPath>
			<polygon style="clip-path:url(#SVGID_44_);fill:#D9DADB;" points="458.18,413.476 476.145,429.584 448.887,559.062 
				447.048,637.577 428.967,632.46 427.204,560.301 414.194,468.613 417.911,447.549 			"/>
		</g>
		<g>
			<defs>
				<circle id="SVGID_45_" cx="390.295" cy="390.295" r="390.295"/>
			</defs>
			<clipPath id="SVGID_46_">
				<use xlink:href="#SVGID_45_"  style="overflow:visible;"/>
			</clipPath>
			<polygon style="clip-path:url(#SVGID_46_);fill:#D9DADB;" points="472.428,503.925 455.701,586.94 454.799,605.38 
				451.436,638.689 466.406,637.577 474.652,605.705 480.482,571.453 480.482,494.013 			"/>
		</g>
	</g>
</g>
<g id="Layer_1_1_">
</g>
</svg>
