<?xml version="1.0" encoding="iso-8859-1"?>
<!-- Generator: Adobe Illustrator 22.0.1, SVG Export Plug-In . SVG Version: 6.00 Build 0)  -->
<svg version="1.1" id="Layer_1" xmlns="http://www.w3.org/2000/svg" xmlns:xlink="http://www.w3.org/1999/xlink" x="0px" y="0px"
	 viewBox="0 0 467.261 465.769" style="enable-background:new 0 0 467.261 465.769;" xml:space="preserve">
<g id="Front_Left_Foot">
	<g>
		<g>
			<defs>
				<circle id="SVGID_1_" cx="232.917" cy="232.912" r="232.917"/>
			</defs>
			<clipPath id="SVGID_2_">
				<use xlink:href="#SVGID_1_"  style="overflow:visible;"/>
			</clipPath>
			<circle style="clip-path:url(#SVGID_2_);fill:#F7F7F7;" cx="200.752" cy="189.176" r="390.295"/>
		</g>
		<g>
			<defs>
				<circle id="SVGID_3_" cx="232.917" cy="232.912" r="232.917"/>
			</defs>
			<clipPath id="SVGID_4_">
				<use xlink:href="#SVGID_3_"  style="overflow:visible;"/>
			</clipPath>
			<g style="clip-path:url(#SVGID_4_);">
				<polygon style="fill:#D9DADB;" points="180.591,-1319.719 212.527,-1271.326 228.318,-1215.725 191.522,-1245.069 
					176.754,-1297.549 				"/>
				<polygon style="fill:#D9DADB;" points="165.274,-1284.454 173.151,-1247.695 126.764,-1236.317 97.007,-1246.82 				"/>
				<polygon style="fill:#D9DADB;" points="135.516,-1223.189 98.757,-1157.548 58.497,-1137.418 83.003,-1118.163 
					102.258,-1062.149 146.894,-1043.769 218.02,-1078.917 200.283,-1217.062 				"/>
				<path style="fill:#D9DADB;" d="M63.293-978.906c0.524-0.417,1.069-0.713,1.62-0.956l14.589-108.544l-28.007-40.26l-28.882,42.01
					L-1.893-939.618l2.248,19.737C20.108-940.853,40.716-960.944,63.293-978.906z"/>
				<path style="fill:#D9DADB;" d="M3.96-904.429c-0.537,0.58-1.111,0.986-1.694,1.313l3.718,32.64l51.638-55.138l4.78-35.561
					C41.635-943.632,22.455-924.38,3.96-904.429z"/>
				<polygon style="fill:#D9DADB;" points="9.485,-854.722 -62.426,-660.561 -39.514,-655.274 36.617,-811.836 50.62,-899.358 				
					"/>
				<polygon style="fill:#D9DADB;" points="-11.52,-929.991 -1.018,-855.597 -69.475,-672.898 -80.05,-679.948 -53.614,-820.942 
									"/>
				<polygon style="fill:#D9DADB;" points="8.61,-1093.657 -4.518,-953.622 -13.271,-1057.773 				"/>
				<polygon style="fill:#D9DADB;" points="315.325,-1431.729 315.325,-1483.247 288.161,-1530.082 230.057,-1548.947 
					172.012,-1530.082 144.847,-1483.247 144.847,-1431.729 131.734,-1428.919 137.354,-1383.958 158.898,-1376.464 
					182.315,-1327.756 230.313,-1307.251 277.858,-1327.756 301.275,-1376.464 322.819,-1383.958 328.439,-1428.919 				"/>
				<polygon style="fill:#D9DADB;" points="-92.331,-675.105 -80.876,-647.787 -47.39,-642.5 -44.746,-593.152 -62.37,-522.655 
					-73.826,-523.536 -62.701,-570.461 -74.597,-570.791 -93.213,-520.893 -107.312,-522.655 -89.798,-573.104 -102.025,-575.417 
					-125.818,-521.774 -143.442,-523.536 -119.208,-579.383 -127.58,-584.34 -157.541,-536.754 -172.522,-538.517 -127.58,-623.994 
					-131.986,-631.044 -174.284,-613.42 -176.928,-623.113 -142.561,-653.956 				"/>
				<polygon style="fill:#D9DADB;" points="296.775,-1284.454 288.898,-1247.695 335.285,-1236.317 365.042,-1246.82 				"/>
				<polygon style="fill:#D9DADB;" points="326.532,-1223.189 363.292,-1157.548 403.552,-1137.418 379.045,-1118.163 
					359.791,-1062.149 315.155,-1043.769 244.029,-1078.917 261.766,-1217.062 				"/>
				<path style="fill:#D9DADB;" d="M398.756-978.906c-0.524-0.417-1.069-0.713-1.62-0.956l-14.589-108.544l28.007-40.26
					l28.882,42.01l24.506,147.037l-2.249,19.737C441.941-940.853,421.333-960.944,398.756-978.906z"/>
				<path style="fill:#D9DADB;" d="M458.089-904.429c0.537,0.58,1.111,0.986,1.694,1.313l-3.718,32.64l-51.638-55.138l-4.78-35.561
					C420.413-943.632,439.594-924.38,458.089-904.429z"/>
				<polygon style="fill:#D9DADB;" points="452.564,-854.722 524.474,-660.561 501.563,-655.274 425.432,-811.836 411.428,-899.358 
									"/>
				<polygon style="fill:#D9DADB;" points="473.569,-929.991 463.066,-855.597 531.524,-672.898 542.099,-679.948 515.662,-820.942 
									"/>
				<polygon style="fill:#D9DADB;" points="453.439,-1093.657 466.567,-953.622 475.319,-1057.773 				"/>
				<polygon style="fill:#D9DADB;" points="554.38,-675.105 542.924,-647.787 509.438,-642.5 506.795,-593.152 524.419,-522.655 
					535.875,-523.536 524.749,-570.461 536.646,-570.791 555.261,-520.893 569.361,-522.655 551.847,-573.104 564.074,-575.417 
					587.866,-521.774 605.491,-523.536 581.257,-579.383 589.629,-584.34 619.59,-536.754 634.57,-538.517 589.629,-623.994 
					594.035,-631.044 636.333,-613.42 638.977,-623.113 604.609,-653.956 				"/>
				<path style="fill:#D9DADB;" d="M381.327-1242.487l16.098-8.709l50.384,55.739l0.276,21.223
					C448.085-1174.234,382.298-1241.993,381.327-1242.487z"/>
				<path style="fill:#D9DADB;" d="M376.21-1240.178c-0.027,1.112,70.717,75.344,70.717,75.344l2.135,65.927l-24.506-42.011
					l-47.262-20.13l-33.258-61.265L376.21-1240.178z"/>
				<path style="fill:#D9DADB;" d="M80.722-1242.487l-16.098-8.709l-50.384,55.739l-0.276,21.223
					C13.964-1174.234,79.751-1241.993,80.722-1242.487z"/>
				<path style="fill:#D9DADB;" d="M85.838-1240.178c0.028,1.112-70.717,75.344-70.717,75.344l-2.135,65.927l24.506-42.011
					l47.262-20.13l33.258-61.265L85.838-1240.178z"/>
				<polygon style="fill:#D9DADB;" points="280.643,-1319.719 248.707,-1271.326 232.917,-1215.725 269.713,-1245.069 
					282.491,-1298.401 				"/>
				<polygon style="fill:#D9DADB;" points="179.909,-99.232 173.74,-79.846 160.522,2.107 158.759,111.377 177.265,218.004 
					176.384,81.416 195.77,26.781 198.414,-33.142 				"/>
				<polygon style="fill:#D9DADB;" points="282.14,-99.232 288.309,-79.846 301.527,2.107 303.289,111.377 284.784,218.004 
					285.665,81.416 266.278,26.781 263.635,-33.142 				"/>
			</g>
		</g>
		<g>
			<defs>
				<circle id="SVGID_5_" cx="232.917" cy="232.912" r="232.917"/>
			</defs>
			<clipPath id="SVGID_6_">
				<use xlink:href="#SVGID_5_"  style="overflow:visible;"/>
			</clipPath>
			<polygon style="clip-path:url(#SVGID_6_);fill:#E0AF12;" points="200.752,278.447 198.414,343.136 192.245,368.691 
				173.74,368.691 168.453,351.067 162.284,350.186 163.606,367.81 140.254,360.76 134.085,357.236 107.649,351.508 
				106.768,330.799 132.323,287.62 145.873,270.682 174.634,287.042 			"/>
		</g>
		<g>
			<defs>
				<circle id="SVGID_7_" cx="232.917" cy="232.912" r="232.917"/>
			</defs>
			<clipPath id="SVGID_8_">
				<use xlink:href="#SVGID_7_"  style="overflow:visible;"/>
			</clipPath>
			<polygon style="clip-path:url(#SVGID_8_);fill:#D9DADB;" points="260.635,278.447 262.973,343.136 269.142,368.691 
				287.647,368.691 292.934,351.067 299.103,350.186 297.781,367.81 321.133,360.76 327.302,357.236 353.738,351.508 
				354.619,330.799 329.064,287.62 315.514,270.682 286.753,287.042 			"/>
		</g>
		<g>
			<defs>
				<circle id="SVGID_9_" cx="232.917" cy="232.912" r="232.917"/>
			</defs>
			<clipPath id="SVGID_10_">
				<use xlink:href="#SVGID_9_"  style="overflow:visible;"/>
			</clipPath>
			<polygon style="clip-path:url(#SVGID_10_);fill:#D9DADB;" points="138.966,230.241 137.971,240.444 149.667,263.339 
				174.056,279.267 199.107,271.054 191.227,247.19 			"/>
		</g>
		<g>
			<defs>
				<circle id="SVGID_11_" cx="232.917" cy="232.912" r="232.917"/>
			</defs>
			<clipPath id="SVGID_12_">
				<use xlink:href="#SVGID_11_"  style="overflow:visible;"/>
			</clipPath>
			<polygon style="clip-path:url(#SVGID_12_);fill:#D9DADB;" points="322.421,230.241 323.416,240.444 311.72,263.339 
				287.331,279.267 262.28,271.054 270.16,247.19 			"/>
		</g>
		<g>
			<defs>
				<circle id="SVGID_13_" cx="232.917" cy="232.912" r="232.917"/>
			</defs>
			<clipPath id="SVGID_14_">
				<use xlink:href="#SVGID_13_"  style="overflow:visible;"/>
			</clipPath>
			<polygon style="clip-path:url(#SVGID_14_);fill:#D9DADB;" points="137.61,-49.885 142.016,114.021 173.72,232.912 
				137.152,221.743 75.044,-1.418 97.075,-145.937 			"/>
		</g>
		<g>
			<defs>
				<circle id="SVGID_15_" cx="232.917" cy="232.912" r="232.917"/>
			</defs>
			<clipPath id="SVGID_16_">
				<use xlink:href="#SVGID_15_"  style="overflow:visible;"/>
			</clipPath>
			<polygon style="clip-path:url(#SVGID_16_);fill:#D9DADB;" points="323.777,-49.885 319.371,114.021 287.666,232.912 
				324.235,221.743 386.343,-1.418 364.312,-145.937 			"/>
		</g>
		<g>
			<defs>
				<circle id="SVGID_17_" cx="232.917" cy="232.912" r="232.917"/>
			</defs>
			<clipPath id="SVGID_18_">
				<use xlink:href="#SVGID_17_"  style="overflow:visible;"/>
			</clipPath>
			<g style="clip-path:url(#SVGID_18_);">
				<polygon style="fill:#D9DADB;" points="112.936,-219.077 110.293,-195.285 128.798,-172.373 134.967,-136.243 147.304,-130.956 
					157.878,-185.591 164.928,-204.978 158.759,-217.315 				"/>
				<polygon style="fill:#D9DADB;" points="194.889,-217.315 181.671,-180.304 153.472,-125.669 160.522,-75.44 180.79,-131.837 
					197.533,-163.561 				"/>
			</g>
		</g>
		<g>
			<defs>
				<circle id="SVGID_19_" cx="232.917" cy="232.912" r="232.917"/>
			</defs>
			<clipPath id="SVGID_20_">
				<use xlink:href="#SVGID_19_"  style="overflow:visible;"/>
			</clipPath>
			<polygon style="clip-path:url(#SVGID_20_);fill:#D9DADB;" points="349.112,-219.077 351.756,-195.285 333.251,-172.373 
				327.082,-136.243 314.745,-130.956 304.171,-185.591 297.121,-204.978 303.289,-217.315 			"/>
		</g>
		<g>
			<defs>
				<circle id="SVGID_21_" cx="232.917" cy="232.912" r="232.917"/>
			</defs>
			<clipPath id="SVGID_22_">
				<use xlink:href="#SVGID_21_"  style="overflow:visible;"/>
			</clipPath>
			<polygon style="clip-path:url(#SVGID_22_);fill:#D9DADB;" points="267.16,-217.315 280.378,-180.304 308.577,-125.669 
				301.527,-75.44 281.259,-131.837 264.516,-163.561 			"/>
		</g>
		<g>
			<defs>
				<circle id="SVGID_23_" cx="232.917" cy="232.912" r="232.917"/>
			</defs>
			<clipPath id="SVGID_24_">
				<use xlink:href="#SVGID_23_"  style="overflow:visible;"/>
			</clipPath>
			<polygon style="clip-path:url(#SVGID_24_);fill:#D9DADB;" points="94.233,-658.124 152.158,-530.606 165.328,-427.33 
				140.634,-282.044 87.131,-429.956 83.838,-582.243 93.558,-658.031 			"/>
		</g>
		<g>
			<defs>
				<circle id="SVGID_25_" cx="232.917" cy="232.912" r="232.917"/>
			</defs>
			<clipPath id="SVGID_26_">
				<use xlink:href="#SVGID_25_"  style="overflow:visible;"/>
			</clipPath>
			<polygon style="clip-path:url(#SVGID_26_);fill:#D9DADB;" points="86.838,-385.73 79.43,-421.203 130.464,-281.168 
				122.763,-261.344 100.076,-322.347 			"/>
		</g>
		<g>
			<defs>
				<circle id="SVGID_27_" cx="232.917" cy="232.912" r="232.917"/>
			</defs>
			<clipPath id="SVGID_28_">
				<use xlink:href="#SVGID_27_"  style="overflow:visible;"/>
			</clipPath>
			<polygon style="clip-path:url(#SVGID_28_);fill:#D9DADB;" points="167.954,-473.091 169.328,-469.812 195.086,-408.325 
				178.457,-256.037 152.2,-270.04 174.956,-411.826 			"/>
		</g>
		<g>
			<defs>
				<circle id="SVGID_29_" cx="232.917" cy="232.912" r="232.917"/>
			</defs>
			<clipPath id="SVGID_30_">
				<use xlink:href="#SVGID_29_"  style="overflow:visible;"/>
			</clipPath>
			<polygon style="clip-path:url(#SVGID_30_);fill:#D9DADB;" points="294.095,-473.091 292.721,-469.812 266.963,-408.325 
				283.592,-256.037 309.848,-270.04 287.093,-411.826 			"/>
		</g>
		<g>
			<defs>
				<circle id="SVGID_31_" cx="232.917" cy="232.912" r="232.917"/>
			</defs>
			<clipPath id="SVGID_32_">
				<use xlink:href="#SVGID_31_"  style="overflow:visible;"/>
			</clipPath>
			<polygon style="clip-path:url(#SVGID_32_);fill:#D9DADB;" points="367.479,-656.124 309.554,-528.606 296.384,-425.33 
				321.078,-280.044 374.581,-427.956 377.874,-580.243 368.154,-656.031 			"/>
		</g>
		<g>
			<defs>
				<circle id="SVGID_33_" cx="232.917" cy="232.912" r="232.917"/>
			</defs>
			<clipPath id="SVGID_34_">
				<use xlink:href="#SVGID_33_"  style="overflow:visible;"/>
			</clipPath>
			<polygon style="clip-path:url(#SVGID_34_);fill:#D9DADB;" points="374.874,-383.73 382.282,-419.203 331.248,-279.168 
				338.949,-259.344 361.636,-320.347 			"/>
		</g>
		<g>
			<defs>
				<circle id="SVGID_35_" cx="232.917" cy="232.912" r="232.917"/>
			</defs>
			<clipPath id="SVGID_36_">
				<use xlink:href="#SVGID_35_"  style="overflow:visible;"/>
			</clipPath>
			<polygon style="clip-path:url(#SVGID_36_);fill:#D9DADB;" points="79.159,-772.099 48.488,-660.001 63.554,-657.548 
				93.182,-664.162 133.448,-667.912 153.592,-692.739 143.688,-717.473 119.12,-724.844 			"/>
		</g>
		<g>
			<defs>
				<circle id="SVGID_37_" cx="232.917" cy="232.912" r="232.917"/>
			</defs>
			<clipPath id="SVGID_38_">
				<use xlink:href="#SVGID_37_"  style="overflow:visible;"/>
			</clipPath>
			<polygon style="clip-path:url(#SVGID_38_);fill:#D9DADB;" points="382.552,-770.099 413.224,-658.001 398.157,-655.548 
				368.529,-662.162 328.264,-665.912 308.12,-690.739 318.024,-715.473 342.592,-722.844 			"/>
		</g>
		<g>
			<defs>
				<circle id="SVGID_39_" cx="232.917" cy="232.912" r="232.917"/>
			</defs>
			<clipPath id="SVGID_40_">
				<use xlink:href="#SVGID_39_"  style="overflow:visible;"/>
			</clipPath>
			<polygon style="clip-path:url(#SVGID_40_);fill:#D9DADB;" points="136.271,-662.156 103.51,-659.263 161.504,-544.859 
				201.014,-422.328 196.899,-507.224 			"/>
		</g>
		<g>
			<defs>
				<circle id="SVGID_41_" cx="232.917" cy="232.912" r="232.917"/>
			</defs>
			<clipPath id="SVGID_42_">
				<use xlink:href="#SVGID_41_"  style="overflow:visible;"/>
			</clipPath>
			<polygon style="clip-path:url(#SVGID_42_);fill:#D9DADB;" points="200.444,-637.393 200.914,-637.983 197.755,-646.02 
				159.415,-687.997 146.362,-669.829 170.668,-607.184 			"/>
		</g>
		<g>
			<defs>
				<circle id="SVGID_43_" cx="232.917" cy="232.912" r="232.917"/>
			</defs>
			<clipPath id="SVGID_44_">
				<use xlink:href="#SVGID_43_"  style="overflow:visible;"/>
			</clipPath>
			<polygon style="clip-path:url(#SVGID_44_);fill:#D9DADB;" points="175.536,-594.637 202.661,-524.729 211.715,-610.5 
				206.361,-624.124 			"/>
		</g>
		<g>
			<defs>
				<circle id="SVGID_45_" cx="232.917" cy="232.912" r="232.917"/>
			</defs>
			<clipPath id="SVGID_46_">
				<use xlink:href="#SVGID_45_"  style="overflow:visible;"/>
			</clipPath>
			<polygon style="clip-path:url(#SVGID_46_);fill:#D9DADB;" points="286.512,-594.637 259.388,-524.729 250.334,-610.5 
				255.688,-624.124 			"/>
		</g>
		<g>
			<defs>
				<circle id="SVGID_47_" cx="232.917" cy="232.912" r="232.917"/>
			</defs>
			<clipPath id="SVGID_48_">
				<use xlink:href="#SVGID_47_"  style="overflow:visible;"/>
			</clipPath>
			<polygon style="clip-path:url(#SVGID_48_);fill:#D9DADB;" points="325.441,-660.156 358.202,-657.263 300.207,-542.859 
				260.697,-420.328 264.813,-505.224 			"/>
		</g>
		<g>
			<defs>
				<circle id="SVGID_49_" cx="232.917" cy="232.912" r="232.917"/>
			</defs>
			<clipPath id="SVGID_50_">
				<use xlink:href="#SVGID_49_"  style="overflow:visible;"/>
			</clipPath>
			<polygon style="clip-path:url(#SVGID_50_);fill:#D9DADB;" points="261.268,-635.393 260.798,-635.983 263.956,-644.02 
				302.297,-685.997 315.35,-667.829 291.044,-605.184 			"/>
		</g>
		<g>
			<defs>
				<circle id="SVGID_51_" cx="232.917" cy="232.912" r="232.917"/>
			</defs>
			<clipPath id="SVGID_52_">
				<use xlink:href="#SVGID_51_"  style="overflow:visible;"/>
			</clipPath>
			<polygon style="clip-path:url(#SVGID_52_);fill:#D9DADB;" points="62.138,-649.151 82.307,-655.274 74.653,-589.932 
				73.427,-422.328 99.961,-293.366 99.667,-232.227 107.604,-158.155 97.302,-161.982 86.44,-136.537 86.88,-307.469 
				61.61,-422.328 44.62,-652.51 			"/>
		</g>
		<g>
			<defs>
				<circle id="SVGID_53_" cx="232.917" cy="232.912" r="232.917"/>
			</defs>
			<clipPath id="SVGID_54_">
				<use xlink:href="#SVGID_53_"  style="overflow:visible;"/>
			</clipPath>
			<polygon style="clip-path:url(#SVGID_54_);fill:#D9DADB;" points="399.573,-647.151 379.405,-653.274 387.059,-587.932 
				388.285,-420.328 361.75,-291.366 362.044,-230.227 354.108,-156.155 364.409,-159.982 375.271,-134.537 374.832,-305.469 
				400.102,-420.328 417.091,-650.51 			"/>
		</g>
		<g>
			<defs>
				<circle id="SVGID_55_" cx="232.917" cy="232.912" r="232.917"/>
			</defs>
			<clipPath id="SVGID_56_">
				<use xlink:href="#SVGID_55_"  style="overflow:visible;"/>
			</clipPath>
			<g style="clip-path:url(#SVGID_56_);">
				<polygon style="fill:#D9DADB;" points="116.794,-996.018 144.269,-980.753 141.096,-1016.924 				"/>
				<polygon style="fill:#D9DADB;" points="139.152,-1030.67 86.504,-1052.521 106.326,-999.167 				"/>
				<polygon style="fill:#D9DADB;" points="106.634,-993.9 142.518,-972.02 148.645,-928.259 113.636,-951.014 				"/>
				<polygon style="fill:#D9DADB;" points="115.386,-940.494 146.894,-918.613 151.27,-873.977 116.262,-901.984 				"/>
				<polygon style="fill:#D9DADB;" points="150.383,-850.25 111.874,-879.133 108.53,-840.328 81.212,-790.099 123.263,-732.192 
					145.144,-728.691 153.021,-810.961 				"/>
				<polygon style="fill:#D9DADB;" points="345.255,-996.018 317.78,-980.753 320.953,-1016.924 				"/>
				<polygon style="fill:#D9DADB;" points="322.897,-1030.67 375.545,-1052.521 355.722,-999.167 				"/>
				<polygon style="fill:#D9DADB;" points="355.415,-993.9 319.531,-972.02 313.404,-928.259 348.413,-951.014 				"/>
				<polygon style="fill:#D9DADB;" points="346.662,-940.494 315.155,-918.613 310.778,-873.977 345.787,-901.984 				"/>
				<polygon style="fill:#D9DADB;" points="311.666,-850.25 350.175,-879.133 353.519,-840.328 380.837,-790.099 338.785,-732.192 
					316.905,-728.691 309.028,-810.961 				"/>
				<g>
					<polygon style="fill:#D9DADB;" points="157.877,-1031.331 223.968,-1061.072 221.986,-1012.826 162.504,-982.424 					"/>
					<polygon style="fill:#D9DADB;" points="168.452,-970.527 169.774,-936.16 218.681,-946.735 221.325,-993.659 					"/>
					<polygon style="fill:#D9DADB;" points="226.612,-634.125 213.735,-759.252 213.411,-840.719 167.024,-863.474 
						161.773,-714.687 					"/>
					<polygon style="fill:#D9DADB;" points="171.757,-919.637 171.096,-877.339 218.02,-864.782 218.681,-930.873 					"/>
					<polygon style="fill:#D9DADB;" points="304.171,-1031.331 238.08,-1061.072 240.063,-1012.826 299.545,-982.424 					"/>
					<polygon style="fill:#D9DADB;" points="293.597,-970.527 292.275,-936.16 243.368,-946.735 240.724,-993.659 					"/>
					<polygon style="fill:#D9DADB;" points="235.437,-634.125 248.313,-759.252 248.638,-840.719 295.024,-863.474 
						300.276,-714.687 					"/>
					<polygon style="fill:#D9DADB;" points="290.292,-919.637 290.953,-877.339 244.029,-864.782 243.368,-930.873 					"/>
				</g>
			</g>
		</g>
	</g>
</g>
<g id="Layer_1_1_">
</g>
</svg>
