<?xml version="1.0" encoding="iso-8859-1"?>
<!-- Generator: Adobe Illustrator 22.0.1, SVG Export Plug-In . SVG Version: 6.00 Build 0)  -->
<svg version="1.1" xmlns="http://www.w3.org/2000/svg" xmlns:xlink="http://www.w3.org/1999/xlink" x="0px" y="0px"
	 viewBox="0 0 875.427 877.828" style="enable-background:new 0 0 875.427 877.828;" xml:space="preserve">
<g id="Back_Left_Glutes">
	<circle style="fill:#F7F7F7;" cx="435.6" cy="437.124" r="437.339"/>
	<g>
		<defs>
			<circle id="SVGID_1_" cx="426.574" cy="437.124" r="437.339"/>
		</defs>
		<clipPath id="SVGID_2_">
			<use xlink:href="#SVGID_1_"  style="overflow:visible;"/>
		</clipPath>
		<g style="clip-path:url(#SVGID_2_);">
			<polygon style="fill:#D9DADB;" points="383.855,-294.403 377.848,-231.661 298.419,-194.283 381.853,-184.271 418.563,-212.304 
				411.221,-316.429 			"/>
			<polygon style="fill:#D9DADB;" points="259.706,-52.78 277.728,-34.091 274.391,90.058 233.008,179.498 204.307,166.816 
				194.962,76.041 210.981,-19.407 			"/>
			<polygon style="fill:#D9DADB;" points="287.74,-28.084 286.405,12.632 313.104,122.096 359.159,177.496 352.484,230.226 
				357.824,233.563 391.865,164.146 397.872,89.39 354.486,-9.395 312.436,-11.397 291.077,-28.751 			"/>
			<polygon style="fill:#D9DADB;" points="245.022,179.498 244.355,249.582 166.692,363.941 204.974,234.23 			"/>
			<polygon style="fill:#D9DADB;" points="188.287,142.787 203.639,208.867 145.333,392.42 134.063,383.559 141.773,308.764 
				148.893,260.706 			"/>
			<polygon style="fill:#D9DADB;" points="510.08,-378.503 508.745,-451.257 474.037,-492.64 424.644,-501.985 372.582,-492.64 
				337.874,-451.257 336.539,-378.503 318.517,-373.164 325.192,-335.118 339.876,-326.441 357.898,-328.443 373.917,-292.4 
				395.276,-320.434 424.645,-329.138 451.343,-320.434 472.702,-292.4 488.721,-328.443 506.743,-326.441 521.427,-335.118 
				528.102,-373.164 			"/>
			<polygon style="fill:#D9DADB;" points="461.282,-294.403 467.289,-231.661 546.717,-194.283 463.284,-184.271 426.574,-212.304 
				433.916,-316.429 			"/>
			<g>
				<polygon style="fill:#D9DADB;" points="320.446,-153.567 315.106,-137.548 290.41,-126.201 277.728,-81.481 219.658,-33.424 
					218.991,-128.871 253.699,-182.268 282.4,-188.943 				"/>
				<polygon style="fill:#D9DADB;" points="305.094,-180.266 338.467,-151.565 362.496,-12.065 411.889,87.388 411.889,-143.555 
					374.51,-171.589 				"/>
				<polygon style="fill:#D9DADB;" points="331.793,-136.213 353.819,-22.077 305.094,-26.081 273.723,-63.459 293.08,-84.151 
					297.752,-112.184 				"/>
				<polygon style="fill:#D9DADB;" points="524.691,-153.567 530.031,-137.548 554.727,-126.201 567.409,-81.481 625.478,-33.424 
					626.146,-128.871 591.438,-182.268 562.737,-188.943 				"/>
				<polygon style="fill:#D9DADB;" points="540.043,-180.266 506.669,-151.565 482.641,-12.065 433.248,87.388 433.248,-143.555 
					470.626,-171.589 				"/>
				<polygon style="fill:#D9DADB;" points="513.344,-136.213 491.318,-22.077 540.043,-26.081 571.414,-63.459 552.057,-84.151 
					547.385,-112.184 				"/>
			</g>
			<polygon style="fill:#D9DADB;" points="585.43,-52.78 567.409,-34.091 570.746,90.058 612.129,179.498 640.83,166.816 
				650.175,76.041 634.155,-19.407 			"/>
			<polygon style="fill:#D9DADB;" points="557.397,-28.084 558.732,12.632 532.033,122.096 485.978,177.496 492.653,230.226 
				487.313,233.563 453.272,164.146 447.265,89.39 490.65,-9.395 532.701,-11.397 554.06,-28.751 			"/>
			<polygon style="fill:#D9DADB;" points="114.718,371.066 126.446,399.032 160.727,404.445 163.433,454.964 145.391,527.134 
				133.663,526.232 145.052,478.194 132.874,477.855 113.816,528.938 99.382,527.134 117.312,475.487 104.795,473.119 
				80.437,528.036 62.395,526.232 87.203,469.06 78.633,463.985 47.961,512.7 32.625,510.896 78.633,423.39 74.123,416.173 
				30.821,434.215 28.114,424.292 63.297,392.717 			"/>
			<polygon style="fill:#D9DADB;" points="733.089,371.066 721.361,399.032 687.08,404.445 684.374,454.964 702.416,527.134 
				714.144,526.232 702.755,478.194 714.933,477.855 733.991,528.938 748.425,527.134 730.495,475.487 743.012,473.119 
				767.369,528.036 785.412,526.232 760.603,469.06 769.174,463.985 799.846,512.7 815.182,510.896 769.174,423.39 773.684,416.173 
				816.986,434.215 819.693,424.292 784.51,392.717 			"/>
			<polygon style="fill:#D9DADB;" points="602.785,179.498 603.452,249.582 681.115,363.941 642.833,234.23 			"/>
			<polygon style="fill:#D9DADB;" points="659.519,142.787 644.168,208.867 702.474,392.42 713.744,383.559 706.034,308.764 
				698.914,260.706 			"/>
			<polygon style="fill:#D9DADB;" points="515.128,1382.646 498.608,1396.688 501.086,1418.99 534.652,1375.658 530.289,1370.517 
							"/>
			<polygon style="fill:#D9DADB;" points="529.632,1368.121 508.068,1360.898 500.566,1376.985 496.667,1392.552 498.032,1394.326 
							"/>
			<polygon style="fill:#D9DADB;" points="474.693,1392.95 474.693,1390.368 473.06,1382.969 463.092,1390.957 461.528,1400.287 
				462.682,1411.169 			"/>
			<polygon style="fill:#D9DADB;" points="331.121,1381.893 347.641,1395.935 345.163,1418.238 311.597,1374.905 315.961,1369.765 
							"/>
			<polygon style="fill:#D9DADB;" points="316.617,1367.369 338.181,1360.146 345.683,1376.233 349.582,1391.799 348.217,1393.574 
							"/>
			<polygon style="fill:#D9DADB;" points="371.556,1392.198 371.556,1389.616 373.189,1382.216 383.157,1390.204 384.721,1399.534 
				383.567,1410.417 			"/>
		</g>
		<polygon style="clip-path:url(#SVGID_2_);fill:#D9DADB;" points="311.101,144.122 349.147,201.525 337.132,226.888 
			295.082,231.56 		"/>
		<polygon style="clip-path:url(#SVGID_2_);fill:#D9DADB;" points="347.812,239.57 397.204,292.967 380.518,291.632 
			321.113,293.635 254.367,343.695 289.075,245.577 		"/>
		<polygon style="clip-path:url(#SVGID_2_);fill:#D9DADB;" points="534.036,144.122 495.99,201.525 508.004,226.888 550.055,231.56 
					"/>
		<polygon style="clip-path:url(#SVGID_2_);fill:#D9DADB;" points="440.428,165.481 423.074,114.754 404.385,165.036 
			374.808,238.903 424.868,298.252 472.258,238.903 		"/>
		<polygon style="clip-path:url(#SVGID_2_);fill:#D9DADB;" points="497.325,239.57 447.932,292.967 464.619,291.632 
			524.024,293.635 590.77,343.695 556.062,245.577 		"/>
		<polygon style="clip-path:url(#SVGID_2_);fill:#E0AF12;" points="272.388,530.585 320.446,504.554 394.534,485.865 
			409.219,443.815 407.884,336.353 381.853,300.977 334.462,300.309 264.379,359.046 263.711,390.063 250.241,453.857 
			254.367,512.23 		"/>
		<polygon style="clip-path:url(#SVGID_2_);fill:#D9DADB;" points="572.746,530.585 524.689,504.554 450.6,485.865 435.916,443.815 
			437.251,336.353 463.282,300.977 510.672,300.309 580.756,359.046 581.423,390.063 594.894,453.857 590.768,512.23 		"/>
		<polygon style="clip-path:url(#SVGID_2_);fill:#D9DADB;" points="322.448,525.245 312.436,690.11 328.455,764.866 
			297.084,854.974 263.711,696.784 280.398,537.26 		"/>
		<polygon style="clip-path:url(#SVGID_2_);fill:#D9DADB;" points="359.826,515.901 380.518,570.633 388.527,714.806 
			411.221,575.973 408.551,488.535 		"/>
		<polygon style="clip-path:url(#SVGID_2_);fill:#D9DADB;" points="344.474,521.241 319.778,688.107 347.811,828.939 
			385.857,908.368 389.862,739.502 363.163,670.753 361.828,565.961 		"/>
		<polygon style="clip-path:url(#SVGID_2_);fill:#D9DADB;" points="263.711,635.569 272.486,539.647 250.241,523.884 
			250.241,550.161 		"/>
		<polygon style="clip-path:url(#SVGID_2_);fill:#D9DADB;" points="522.689,525.245 532.701,690.11 516.681,764.866 
			548.052,854.974 581.426,696.784 564.739,537.26 		"/>
		<polygon style="clip-path:url(#SVGID_2_);fill:#D9DADB;" points="501.404,521.241 526.1,688.107 498.067,828.939 460.021,908.368 
			456.016,739.502 482.715,670.753 484.05,565.961 		"/>
		<polygon style="clip-path:url(#SVGID_2_);fill:#D9DADB;" points="485.311,515.901 464.619,570.633 456.61,714.806 
			433.916,575.973 436.586,488.535 		"/>
		<polygon style="clip-path:url(#SVGID_2_);fill:#D9DADB;" points="582.823,635.569 574.048,539.647 596.294,523.884 
			596.294,550.161 		"/>
		<polygon style="clip-path:url(#SVGID_2_);fill:#D9DADB;" points="349.486,1419.43 383.155,1417.239 367.988,1393.276 
			377.166,1345.75 357.143,1352.202 340.172,1350.503 353.125,1396.301 		"/>
		<polygon style="clip-path:url(#SVGID_2_);fill:#D9DADB;" points="496.351,1419.43 462.682,1417.239 477.848,1393.276 
			468.671,1345.75 488.693,1352.202 505.665,1350.503 492.711,1396.301 		"/>
		<polygon style="clip-path:url(#SVGID_2_);fill:#D9DADB;" points="347.159,874.463 351.496,1098.108 389.906,1141.474 
			408.491,1113.596 409.73,1053.503 393.003,963.673 		"/>
		<polygon style="clip-path:url(#SVGID_2_);fill:#D9DADB;" points="335.388,861.453 332.91,1044.21 343.442,1113.596 
			325.476,1128.464 293.881,1064.035 301.935,939.512 317.422,888.712 318.661,852.161 		"/>
		<polygon style="clip-path:url(#SVGID_2_);fill:#D9DADB;" points="348.398,1121.649 330.432,1137.757 357.691,1267.235 
			359.53,1345.75 377.611,1340.633 379.374,1268.474 392.384,1176.786 388.667,1155.723 		"/>
		<polygon style="clip-path:url(#SVGID_2_);fill:#D9DADB;" points="334.149,1212.099 350.876,1295.114 351.779,1313.553 
			355.141,1346.862 340.172,1345.75 331.926,1313.878 326.096,1279.626 326.096,1202.186 		"/>
		<polygon style="clip-path:url(#SVGID_2_);fill:#D9DADB;" points="499.522,874.463 495.185,1098.108 456.775,1141.474 
			438.19,1113.596 436.951,1053.503 453.678,963.673 		"/>
		<polygon style="clip-path:url(#SVGID_2_);fill:#D9DADB;" points="511.293,861.453 513.771,1044.21 503.239,1113.596 
			521.205,1128.464 552.8,1064.035 544.747,939.512 529.259,888.712 528.02,852.161 		"/>
		<polygon style="clip-path:url(#SVGID_2_);fill:#D9DADB;" points="497.439,1121.649 515.405,1137.757 488.146,1267.235 
			486.307,1345.75 468.226,1340.633 466.463,1268.474 453.453,1176.786 457.17,1155.723 		"/>
		<polygon style="clip-path:url(#SVGID_2_);fill:#D9DADB;" points="511.688,1212.099 494.961,1295.114 494.058,1313.553 
			490.696,1346.862 505.665,1345.75 513.911,1313.878 519.741,1279.626 519.741,1202.186 		"/>
	</g>
</g>
<g id="Layer_1">
</g>
</svg>
