<?xml version="1.0" encoding="iso-8859-1"?>
<!-- Generator: Adobe Illustrator 22.0.1, SVG Export Plug-In . SVG Version: 6.00 Build 0)  -->
<svg version="1.1" xmlns="http://www.w3.org/2000/svg" xmlns:xlink="http://www.w3.org/1999/xlink" x="0px" y="0px"
	 viewBox="0 0 875.427 877.828" style="enable-background:new 0 0 875.427 877.828;" xml:space="preserve">
<g id="Back_Left_Hamstrings">
	<circle style="fill:#F7F7F7;" cx="437.339" cy="437.339" r="437.339"/>
	<g>
		<defs>
			<circle id="SVGID_1_" cx="437.339" cy="437.339" r="437.339"/>
		</defs>
		<clipPath id="SVGID_2_">
			<use xlink:href="#SVGID_1_"  style="overflow:visible;"/>
		</clipPath>
		<g style="clip-path:url(#SVGID_2_);">
			<polygon style="fill:#D9DADB;" points="399.735,-458.734 393.728,-395.992 314.299,-358.614 397.733,-348.602 434.443,-376.636 
				427.101,-480.76 			"/>
			<polygon style="fill:#D9DADB;" points="275.586,-217.111 293.608,-198.422 290.271,-74.274 248.888,15.167 220.187,2.485 
				210.842,-88.29 226.861,-183.738 			"/>
			<polygon style="fill:#D9DADB;" points="303.62,-192.415 302.285,-151.7 328.984,-42.235 375.039,13.165 368.364,65.894 
				373.704,69.232 407.745,-0.185 413.752,-74.941 370.367,-173.726 328.316,-175.728 306.957,-193.082 			"/>
			<polygon style="fill:#D9DADB;" points="260.902,15.167 260.235,85.251 182.572,199.61 220.854,69.899 			"/>
			<polygon style="fill:#D9DADB;" points="204.168,-21.544 219.519,44.535 161.213,228.089 149.943,219.227 157.653,144.433 
				164.773,96.375 			"/>
			<polygon style="fill:#D9DADB;" points="525.96,-542.835 524.625,-615.589 489.917,-656.971 440.525,-666.316 388.462,-656.971 
				353.754,-615.589 352.419,-542.835 334.397,-537.495 341.072,-499.449 355.756,-490.772 373.778,-492.775 389.797,-456.732 
				411.156,-484.765 440.525,-493.47 467.223,-484.765 488.582,-456.732 504.601,-492.775 522.623,-490.772 537.307,-499.449 
				543.982,-537.495 			"/>
			<polygon style="fill:#D9DADB;" points="477.162,-458.734 483.169,-395.992 562.598,-358.614 479.164,-348.602 442.454,-376.636 
				449.796,-480.76 			"/>
			<g>
				<polygon style="fill:#D9DADB;" points="336.326,-317.899 330.986,-301.879 306.29,-290.533 293.608,-245.812 235.538,-197.755 
					234.871,-293.202 269.579,-346.6 298.28,-353.274 				"/>
				<polygon style="fill:#D9DADB;" points="320.974,-344.597 354.347,-315.896 378.376,-176.396 427.769,-76.943 427.769,-307.887 
					390.391,-335.92 				"/>
				<polygon style="fill:#D9DADB;" points="347.673,-300.544 369.699,-186.408 320.974,-190.413 289.603,-227.791 308.96,-248.482 
					313.632,-276.516 				"/>
				<polygon style="fill:#D9DADB;" points="540.571,-317.899 545.911,-301.879 570.607,-290.533 583.289,-245.812 641.359,-197.755 
					642.026,-293.202 607.318,-346.6 578.617,-353.274 				"/>
				<polygon style="fill:#D9DADB;" points="555.923,-344.597 522.549,-315.896 498.521,-176.396 449.128,-76.943 449.128,-307.887 
					486.506,-335.92 				"/>
				<polygon style="fill:#D9DADB;" points="529.224,-300.544 507.198,-186.408 555.923,-190.413 587.294,-227.791 567.937,-248.482 
					563.265,-276.516 				"/>
			</g>
			<polygon style="fill:#D9DADB;" points="601.311,-217.111 583.289,-198.422 586.626,-74.274 628.009,15.167 656.71,2.485 
				666.055,-88.29 650.036,-183.738 			"/>
			<polygon style="fill:#D9DADB;" points="573.277,-192.415 574.612,-151.7 547.913,-42.235 501.858,13.165 508.533,65.894 
				503.193,69.232 469.152,-0.185 463.145,-74.941 506.53,-173.726 548.581,-175.728 569.94,-193.082 			"/>
			<polygon style="fill:#D9DADB;" points="130.598,206.735 142.326,234.701 176.607,240.114 179.313,290.633 161.271,362.803 
				149.543,361.901 160.932,313.863 148.754,313.524 129.696,364.607 115.262,362.803 133.192,311.156 120.675,308.788 
				96.318,363.705 78.275,361.901 103.084,304.728 94.513,299.654 63.841,348.369 48.505,346.565 94.513,259.058 90.003,251.841 
				46.701,269.884 43.994,259.96 79.177,228.386 			"/>
			<polygon style="fill:#D9DADB;" points="748.969,206.735 737.241,234.701 702.96,240.114 700.254,290.633 718.296,362.803 
				730.024,361.901 718.635,313.863 730.813,313.524 749.871,364.607 764.305,362.803 746.375,311.156 758.892,308.788 
				783.25,363.705 801.292,361.901 776.484,304.728 785.054,299.654 815.726,348.369 831.062,346.565 785.054,259.058 
				789.564,251.841 832.866,269.884 835.573,259.96 800.39,228.386 			"/>
			<polygon style="fill:#D9DADB;" points="618.665,15.167 619.332,85.251 696.995,199.61 658.713,69.899 			"/>
			<polygon style="fill:#D9DADB;" points="675.4,-21.544 660.048,44.535 718.354,228.089 729.624,219.227 721.914,144.433 
				714.794,96.375 			"/>
			<polygon style="fill:#D9DADB;" points="531.008,1218.314 514.488,1232.357 516.966,1254.659 550.532,1211.326 546.169,1206.186 
							"/>
			<polygon style="fill:#D9DADB;" points="545.512,1203.79 523.948,1196.567 516.446,1212.654 512.547,1228.221 513.912,1229.995 
							"/>
			<polygon style="fill:#D9DADB;" points="490.573,1228.619 490.573,1226.037 488.94,1218.637 478.973,1226.625 477.408,1235.955 
				478.562,1246.838 			"/>
			<polygon style="fill:#D9DADB;" points="347.001,1217.562 363.521,1231.604 361.043,1253.907 327.477,1210.574 331.841,1205.434 
							"/>
			<polygon style="fill:#D9DADB;" points="332.497,1203.037 354.061,1195.815 361.563,1211.902 365.462,1227.468 364.098,1229.242 
							"/>
			<polygon style="fill:#D9DADB;" points="387.436,1227.867 387.436,1225.284 389.069,1217.885 399.037,1225.873 400.601,1235.203 
				399.447,1246.086 			"/>
		</g>
		<polygon style="clip-path:url(#SVGID_2_);fill:#D9DADB;" points="326.981,-20.209 365.027,37.193 353.012,62.557 310.962,67.229 
					"/>
		<polygon style="clip-path:url(#SVGID_2_);fill:#D9DADB;" points="363.692,75.239 413.084,128.636 396.398,127.301 
			336.993,129.304 270.247,179.364 304.955,81.246 		"/>
		<polygon style="clip-path:url(#SVGID_2_);fill:#D9DADB;" points="549.916,-20.209 511.87,37.193 523.885,62.557 565.935,67.229 		
			"/>
		<polygon style="clip-path:url(#SVGID_2_);fill:#D9DADB;" points="456.308,1.15 438.954,-49.577 420.265,0.705 390.688,74.571 
			440.748,133.921 488.138,74.571 		"/>
		<polygon style="clip-path:url(#SVGID_2_);fill:#D9DADB;" points="513.205,75.239 463.813,128.636 480.499,127.301 
			539.904,129.304 606.65,179.364 571.942,81.246 		"/>
		<polygon style="clip-path:url(#SVGID_2_);fill:#D9DADB;" points="288.268,366.254 336.326,340.223 410.415,321.534 
			425.099,279.483 423.764,172.021 397.733,136.646 350.343,135.978 280.259,194.715 279.591,225.732 266.121,289.525 
			270.247,347.899 		"/>
		<polygon style="clip-path:url(#SVGID_2_);fill:#D9DADB;" points="588.626,366.254 540.569,340.223 466.48,321.534 
			451.796,279.483 453.131,172.021 479.162,136.646 526.552,135.978 596.636,194.715 597.303,225.732 610.774,289.525 
			606.648,347.899 		"/>
		<g style="clip-path:url(#SVGID_2_);">
			<polygon style="fill:#E0AF12;" points="338.328,360.914 328.316,525.778 344.335,600.534 312.964,690.642 279.591,532.453 
				296.278,372.929 			"/>
			<polygon style="fill:#E0AF12;" points="375.706,351.57 396.398,406.302 404.407,550.475 427.101,411.642 424.431,324.204 			"/>
			<polygon style="fill:#E0AF12;" points="360.354,356.91 335.658,523.776 363.691,664.608 401.737,744.036 405.742,575.171 
				379.043,506.422 377.708,401.63 			"/>
			<polygon style="fill:#E0AF12;" points="279.591,471.238 288.366,375.316 266.121,359.553 266.121,385.829 			"/>
		</g>
		<polygon style="clip-path:url(#SVGID_2_);fill:#D9DADB;" points="538.569,360.914 548.581,525.778 532.562,600.534 
			563.932,690.642 597.306,532.453 580.619,372.929 		"/>
		<polygon style="clip-path:url(#SVGID_2_);fill:#D9DADB;" points="517.284,356.91 541.98,523.776 513.947,664.608 475.901,744.036 
			471.896,575.171 498.595,506.422 499.93,401.63 		"/>
		<polygon style="clip-path:url(#SVGID_2_);fill:#D9DADB;" points="501.191,351.57 480.499,406.302 472.49,550.475 449.796,411.642 
			452.466,324.204 		"/>
		<polygon style="clip-path:url(#SVGID_2_);fill:#D9DADB;" points="598.703,471.238 589.928,375.316 612.174,359.553 
			612.174,385.829 		"/>
		<polygon style="clip-path:url(#SVGID_2_);fill:#D9DADB;" points="365.366,1255.098 399.035,1252.908 383.868,1228.945 
			393.046,1181.419 373.024,1187.87 356.052,1186.171 369.006,1231.97 		"/>
		<polygon style="clip-path:url(#SVGID_2_);fill:#D9DADB;" points="512.231,1255.098 478.562,1252.908 493.729,1228.945 
			484.551,1181.419 504.573,1187.87 521.545,1186.171 508.591,1231.97 		"/>
		<polygon style="clip-path:url(#SVGID_2_);fill:#D9DADB;" points="363.039,710.132 367.376,933.777 405.786,977.143 
			424.371,949.265 425.61,889.172 408.883,799.342 		"/>
		<polygon style="clip-path:url(#SVGID_2_);fill:#D9DADB;" points="351.268,697.122 348.79,879.879 359.322,949.265 
			341.356,964.133 309.761,899.703 317.815,775.181 333.302,724.381 334.542,687.829 		"/>
		<polygon style="clip-path:url(#SVGID_2_);fill:#D9DADB;" points="364.278,957.318 346.312,973.426 373.571,1102.904 
			375.41,1181.419 393.491,1176.302 395.254,1104.143 408.264,1012.455 404.547,991.392 		"/>
		<polygon style="clip-path:url(#SVGID_2_);fill:#D9DADB;" points="350.029,1047.767 366.756,1130.782 367.659,1149.222 
			371.021,1182.531 356.052,1181.419 347.806,1149.547 341.976,1115.295 341.976,1037.855 		"/>
		<polygon style="clip-path:url(#SVGID_2_);fill:#D9DADB;" points="515.402,710.132 511.065,933.777 472.656,977.143 
			454.07,949.265 452.831,889.172 469.558,799.342 		"/>
		<polygon style="clip-path:url(#SVGID_2_);fill:#D9DADB;" points="527.173,697.122 529.651,879.879 519.119,949.265 
			537.085,964.133 568.68,899.703 560.627,775.181 545.139,724.381 543.9,687.829 		"/>
		<polygon style="clip-path:url(#SVGID_2_);fill:#D9DADB;" points="513.319,957.318 531.285,973.426 504.026,1102.904 
			502.187,1181.419 484.106,1176.302 482.343,1104.143 469.333,1012.455 473.05,991.392 		"/>
		<polygon style="clip-path:url(#SVGID_2_);fill:#D9DADB;" points="527.568,1047.767 510.841,1130.782 509.938,1149.222 
			506.576,1182.531 521.545,1181.419 529.791,1149.547 535.621,1115.295 535.621,1037.855 		"/>
	</g>
</g>
<g id="Layer_1">
</g>
</svg>
