<?xml version="1.0" encoding="iso-8859-1"?>
<!-- Generator: Adobe Illustrator 22.0.1, SVG Export Plug-In . SVG Version: 6.00 Build 0)  -->
<svg version="1.1" xmlns="http://www.w3.org/2000/svg" xmlns:xlink="http://www.w3.org/1999/xlink" x="0px" y="0px"
	 viewBox="0 0 875.427 877.828" style="enable-background:new 0 0 875.427 877.828;" xml:space="preserve">
<g id="Front_Left_Knee">
	<g>
		<defs>
			<circle id="SVGID_1_" cx="390.295" cy="390.295" r="390.295"/>
		</defs>
		<clipPath id="SVGID_2_">
			<use xlink:href="#SVGID_1_"  style="overflow:visible;"/>
		</clipPath>
		<circle style="clip-path:url(#SVGID_2_);fill:#F7F7F7;" cx="390.295" cy="390.295" r="390.295"/>
		<g style="clip-path:url(#SVGID_2_);">
			<polygon style="fill:#D9DADB;" points="337.97,-941.515 369.906,-893.122 385.697,-837.521 348.901,-866.866 334.133,-919.345 
							"/>
			<polygon style="fill:#D9DADB;" points="322.653,-906.25 330.529,-869.491 284.143,-858.113 254.386,-868.616 			"/>
			<polygon style="fill:#D9DADB;" points="292.895,-844.985 256.136,-779.344 215.876,-759.214 240.382,-739.959 259.637,-683.945 
				304.273,-665.566 375.399,-700.713 357.661,-838.859 			"/>
			<path style="fill:#D9DADB;" d="M220.672-600.702c0.524-0.417,1.069-0.713,1.62-0.956l14.589-108.544l-28.007-40.26l-28.882,42.01
				l-24.506,147.037l2.249,19.737C177.487-562.65,198.094-582.74,220.672-600.702z"/>
			<path style="fill:#D9DADB;" d="M161.339-526.226c-0.537,0.58-1.111,0.986-1.694,1.313l3.719,32.64l51.638-55.138l4.78-35.561
				C199.014-565.428,179.833-546.176,161.339-526.226z"/>
			<polygon style="fill:#D9DADB;" points="166.864,-476.518 94.953,-282.357 117.865,-277.07 193.996,-433.633 207.999,-521.155 			
				"/>
			<polygon style="fill:#D9DADB;" points="145.859,-551.787 156.361,-477.394 87.903,-294.694 77.329,-301.744 103.765,-442.738 			
				"/>
			<polygon style="fill:#D9DADB;" points="165.989,-715.453 152.86,-575.418 144.108,-679.569 			"/>
			<polygon style="fill:#D9DADB;" points="472.704,-1053.525 472.704,-1105.043 445.54,-1151.878 387.436,-1170.743 
				329.39,-1151.878 302.226,-1105.043 302.226,-1053.525 289.113,-1050.715 294.733,-1005.754 316.277,-998.261 339.694,-949.553 
				387.692,-929.047 435.236,-949.553 458.654,-998.261 480.198,-1005.754 485.818,-1050.715 			"/>
			<polygon style="fill:#D9DADB;" points="65.047,-296.901 76.503,-269.583 109.989,-264.296 112.633,-214.948 95.008,-144.451 
				83.553,-145.332 94.678,-192.257 82.782,-192.587 64.166,-142.689 50.067,-144.451 67.581,-194.901 55.354,-197.214 
				31.561,-143.57 13.937,-145.332 38.17,-201.179 29.799,-206.136 -0.162,-158.551 -15.143,-160.313 29.799,-245.791 
				25.393,-252.84 -16.905,-235.216 -19.549,-244.909 14.818,-275.752 			"/>
			<polygon style="fill:#D9DADB;" points="454.154,-906.25 446.277,-869.491 492.663,-858.113 522.421,-868.616 			"/>
			<polygon style="fill:#D9DADB;" points="483.911,-844.985 520.67,-779.344 560.93,-759.214 536.424,-739.959 517.169,-683.945 
				472.533,-665.566 401.407,-700.713 419.145,-838.859 			"/>
			<path style="fill:#D9DADB;" d="M556.135-600.702c-0.524-0.417-1.069-0.713-1.62-0.956l-14.589-108.544l28.007-40.26l28.882,42.01
				l24.506,147.037l-2.249,19.737C599.32-562.65,578.712-582.74,556.135-600.702z"/>
			<path style="fill:#D9DADB;" d="M615.468-526.226c0.537,0.58,1.111,0.986,1.694,1.313l-3.718,32.64l-51.638-55.138l-4.78-35.561
				C577.792-565.428,596.973-546.176,615.468-526.226z"/>
			<polygon style="fill:#D9DADB;" points="609.943,-476.518 681.853,-282.357 658.942,-277.07 582.811,-433.633 568.807,-521.155 
							"/>
			<polygon style="fill:#D9DADB;" points="630.948,-551.787 620.445,-477.394 688.903,-294.694 699.477,-301.744 673.041,-442.738 
							"/>
			<polygon style="fill:#D9DADB;" points="610.818,-715.453 623.946,-575.418 632.698,-679.569 			"/>
			<polygon style="fill:#D9DADB;" points="711.759,-296.901 700.303,-269.583 666.817,-264.296 664.174,-214.948 681.798,-144.451 
				693.253,-145.332 682.128,-192.257 694.025,-192.587 712.64,-142.689 726.74,-144.451 709.226,-194.901 721.452,-197.214 
				745.245,-143.57 762.869,-145.332 738.636,-201.179 747.008,-206.136 776.969,-158.551 791.949,-160.313 747.008,-245.791 
				751.414,-252.84 793.712,-235.216 796.355,-244.909 761.988,-275.752 			"/>
			<path style="fill:#D9DADB;" d="M538.705-864.283l16.098-8.709l50.384,55.739l0.276,21.223
				C605.463-796.031,539.677-863.789,538.705-864.283z"/>
			<path style="fill:#D9DADB;" d="M533.589-861.975c-0.027,1.112,70.717,75.344,70.717,75.344l2.135,65.927l-24.506-42.011
				l-47.262-20.13l-33.258-61.265L533.589-861.975z"/>
			<path style="fill:#D9DADB;" d="M238.101-864.283l-16.098-8.709l-50.384,55.739l-0.276,21.223
				C171.343-796.031,237.129-863.789,238.101-864.283z"/>
			<path style="fill:#D9DADB;" d="M243.217-861.975c0.027,1.112-70.717,75.344-70.717,75.344l-2.135,65.927l24.506-42.011
				l47.262-20.13l33.258-61.265L243.217-861.975z"/>
			<polygon style="fill:#D9DADB;" points="438.022,-941.515 406.086,-893.122 390.295,-837.521 427.091,-866.866 439.87,-920.198 
							"/>
			<polygon style="fill:#D9DADB;" points="337.287,278.971 331.119,298.358 317.901,380.311 316.138,489.581 334.644,596.208 
				333.762,459.62 353.149,404.985 355.793,345.062 			"/>
			<polygon style="fill:#D9DADB;" points="439.519,278.971 445.688,298.358 458.906,380.311 460.668,489.581 442.163,596.208 
				443.044,459.62 423.657,404.985 421.014,345.062 			"/>
		</g>
		<polygon style="clip-path:url(#SVGID_2_);fill:#D9DADB;" points="358.131,656.651 355.793,721.34 349.624,746.895 
			331.119,746.895 325.831,729.271 319.663,728.39 320.985,746.014 297.633,738.964 291.464,735.439 265.028,729.711 
			264.147,709.003 289.702,665.823 303.252,648.885 332.013,665.246 		"/>
		<polygon style="clip-path:url(#SVGID_2_);fill:#D9DADB;" points="418.014,656.651 420.352,721.34 426.52,746.895 445.026,746.895 
			450.313,729.271 456.482,728.39 455.16,746.014 478.512,738.964 484.68,735.439 511.117,729.711 511.998,709.003 486.443,665.823 
			472.892,648.885 444.132,665.246 		"/>
		<polygon style="clip-path:url(#SVGID_2_);fill:#D9DADB;" points="296.345,608.445 295.349,618.648 307.046,641.543 
			331.434,657.47 356.486,649.258 348.606,625.394 		"/>
		<polygon style="clip-path:url(#SVGID_2_);fill:#D9DADB;" points="479.8,608.445 480.795,618.648 469.099,641.543 444.71,657.47 
			419.658,649.258 427.539,625.394 		"/>
		<polygon style="clip-path:url(#SVGID_2_);fill:#D9DADB;" points="294.989,328.319 299.395,492.225 331.099,611.115 
			294.531,599.947 232.423,376.786 254.453,232.267 		"/>
		<polygon style="clip-path:url(#SVGID_2_);fill:#D9DADB;" points="481.155,328.319 476.749,492.225 445.045,611.115 
			481.613,599.947 543.721,376.786 521.691,232.267 		"/>
		<g style="clip-path:url(#SVGID_2_);">
			<polygon style="fill:#E0AF12;" points="270.315,159.126 267.671,182.919 286.177,205.831 292.345,241.96 304.682,247.248 
				315.257,192.612 322.307,173.226 316.138,160.889 			"/>
			<polygon style="fill:#E0AF12;" points="352.268,160.889 339.05,197.9 310.851,252.535 317.901,302.764 338.168,246.366 
				354.911,214.643 			"/>
		</g>
		<polygon style="clip-path:url(#SVGID_2_);fill:#D9DADB;" points="506.491,159.126 509.135,182.919 490.629,205.831 
			484.461,241.96 472.124,247.248 461.549,192.612 454.5,173.226 460.668,160.889 		"/>
		<polygon style="clip-path:url(#SVGID_2_);fill:#D9DADB;" points="424.538,160.889 437.757,197.9 465.955,252.535 458.906,302.764 
			438.638,246.366 421.895,214.643 		"/>
		<polygon style="clip-path:url(#SVGID_2_);fill:#D9DADB;" points="251.612,-279.92 309.536,-152.402 322.706,-49.126 
			298.012,96.16 244.509,-51.752 241.217,-204.04 250.936,-279.827 		"/>
		<polygon style="clip-path:url(#SVGID_2_);fill:#D9DADB;" points="244.217,-7.526 236.809,-43 287.842,97.035 280.142,116.859 
			257.455,55.856 		"/>
		<polygon style="clip-path:url(#SVGID_2_);fill:#D9DADB;" points="325.333,-94.887 326.706,-91.609 352.465,-30.121 
			335.836,122.167 309.579,108.164 332.335,-33.622 		"/>
		<polygon style="clip-path:url(#SVGID_2_);fill:#D9DADB;" points="451.473,-94.887 450.1,-91.609 424.342,-30.121 440.971,122.167 
			467.227,108.164 444.472,-33.622 		"/>
		<polygon style="clip-path:url(#SVGID_2_);fill:#D9DADB;" points="524.858,-277.92 466.933,-150.402 453.763,-47.126 
			478.457,98.16 531.96,-49.752 535.252,-202.04 525.533,-277.827 		"/>
		<polygon style="clip-path:url(#SVGID_2_);fill:#D9DADB;" points="532.252,-5.526 539.661,-41 488.627,99.035 496.328,118.859 
			519.015,57.856 		"/>
		<polygon style="clip-path:url(#SVGID_2_);fill:#D9DADB;" points="236.538,-393.895 205.867,-281.797 220.933,-279.344 
			250.561,-285.959 290.827,-289.708 310.97,-314.535 301.066,-339.27 276.498,-346.64 		"/>
		<polygon style="clip-path:url(#SVGID_2_);fill:#D9DADB;" points="539.931,-391.895 570.603,-279.797 555.536,-277.344 
			525.908,-283.959 485.643,-287.708 465.499,-312.535 475.403,-337.27 499.971,-344.64 		"/>
		<polygon style="clip-path:url(#SVGID_2_);fill:#D9DADB;" points="293.65,-283.953 260.889,-281.059 318.883,-166.655 
			358.393,-44.124 354.278,-129.021 		"/>
		<polygon style="clip-path:url(#SVGID_2_);fill:#D9DADB;" points="357.822,-259.189 358.293,-259.779 355.134,-267.817 
			316.794,-309.793 303.74,-291.625 328.047,-228.98 		"/>
		<polygon style="clip-path:url(#SVGID_2_);fill:#D9DADB;" points="332.915,-216.433 360.039,-146.525 369.094,-232.296 
			363.74,-245.92 		"/>
		<polygon style="clip-path:url(#SVGID_2_);fill:#D9DADB;" points="443.891,-216.433 416.767,-146.525 407.712,-232.296 
			413.067,-245.92 		"/>
		<polygon style="clip-path:url(#SVGID_2_);fill:#D9DADB;" points="482.82,-281.953 515.581,-279.059 457.586,-164.655 
			418.076,-42.124 422.192,-127.021 		"/>
		<polygon style="clip-path:url(#SVGID_2_);fill:#D9DADB;" points="418.647,-257.189 418.176,-257.779 421.335,-265.817 
			459.676,-307.793 472.729,-289.625 448.422,-226.98 		"/>
		<polygon style="clip-path:url(#SVGID_2_);fill:#D9DADB;" points="219.517,-270.947 239.686,-277.07 232.032,-211.729 
			230.806,-44.124 257.34,84.838 257.046,145.977 264.982,220.049 254.681,216.222 243.819,241.667 244.259,70.735 218.989,-44.124 
			201.999,-274.307 		"/>
		<polygon style="clip-path:url(#SVGID_2_);fill:#D9DADB;" points="556.952,-268.947 536.783,-275.07 544.438,-209.729 
			545.664,-42.124 519.129,86.838 519.423,147.977 511.487,222.049 521.788,218.222 532.65,243.667 532.21,72.735 557.48,-42.124 
			574.47,-272.307 		"/>
		<g style="clip-path:url(#SVGID_2_);">
			<polygon style="fill:#D9DADB;" points="274.172,-617.814 301.647,-602.55 298.474,-638.721 			"/>
			<polygon style="fill:#D9DADB;" points="296.53,-652.466 243.883,-674.318 263.705,-620.963 			"/>
			<polygon style="fill:#D9DADB;" points="264.013,-615.696 299.897,-593.816 306.023,-550.055 271.015,-572.811 			"/>
			<polygon style="fill:#D9DADB;" points="272.765,-562.29 304.273,-540.409 308.649,-495.773 273.64,-523.78 			"/>
			<polygon style="fill:#D9DADB;" points="307.762,-472.047 269.252,-500.929 265.908,-462.124 238.591,-411.895 280.642,-353.988 
				302.522,-350.487 310.399,-432.758 			"/>
			<polygon style="fill:#D9DADB;" points="502.634,-617.814 475.159,-602.55 478.332,-638.721 			"/>
			<polygon style="fill:#D9DADB;" points="480.276,-652.466 532.923,-674.318 513.101,-620.963 			"/>
			<polygon style="fill:#D9DADB;" points="512.793,-615.696 476.909,-593.816 470.783,-550.055 505.792,-572.811 			"/>
			<polygon style="fill:#D9DADB;" points="504.041,-562.29 472.533,-540.409 468.157,-495.773 503.166,-523.78 			"/>
			<polygon style="fill:#D9DADB;" points="469.044,-472.047 507.554,-500.929 510.898,-462.124 538.216,-411.895 496.164,-353.988 
				474.284,-350.487 466.407,-432.758 			"/>
			<g>
				<polygon style="fill:#D9DADB;" points="315.256,-653.127 381.347,-682.868 379.364,-634.622 319.882,-604.22 				"/>
				<polygon style="fill:#D9DADB;" points="325.831,-592.324 327.152,-557.956 376.06,-568.531 378.703,-615.455 				"/>
				<polygon style="fill:#D9DADB;" points="383.991,-255.921 371.114,-381.049 370.789,-462.515 324.403,-485.271 319.152,-336.484 
									"/>
				<polygon style="fill:#D9DADB;" points="329.135,-541.434 328.474,-499.135 375.399,-486.578 376.06,-552.669 				"/>
				<polygon style="fill:#D9DADB;" points="461.55,-653.127 395.459,-682.868 397.442,-634.622 456.924,-604.22 				"/>
				<polygon style="fill:#D9DADB;" points="450.976,-592.324 449.654,-557.956 400.746,-568.531 398.103,-615.455 				"/>
				<polygon style="fill:#D9DADB;" points="392.815,-255.921 405.692,-381.049 406.017,-462.515 452.403,-485.271 457.655,-336.484 
									"/>
				<polygon style="fill:#D9DADB;" points="447.671,-541.434 448.332,-499.135 401.407,-486.578 400.746,-552.669 				"/>
			</g>
		</g>
	</g>
</g>
<g id="Layer_1">
</g>
</svg>
