<svg xmlns="http://www.w3.org/2000/svg" xmlns:xlink="http://www.w3.org/1999/xlink" viewBox="0 0 874.68 875.04"><defs><style>.cls-1{fill:none;}.cls-2{clip-path:url(#clip-path);}.cls-3{fill:#d9dadb;}.cls-4{clip-path:url(#clip-path-2);}.cls-5{clip-path:url(#clip-path-3);}.cls-6{clip-path:url(#clip-path-4);}.cls-7{fill:#f7f7f7;}.cls-8{fill:#e0af12;}</style><clipPath id="clip-path"><circle class="cls-1" cx="-88.2" cy="3270.82" r="437.34"/></clipPath><clipPath id="clip-path-2"><circle class="cls-1" cx="842.44" cy="3270.81" r="437.34"/></clipPath><clipPath id="clip-path-3"><circle class="cls-1" cx="-42.55" cy="1362.03" r="437.34"/></clipPath><clipPath id="clip-path-4"><circle class="cls-1" cx="437.34" cy="437.34" r="437.34"/></clipPath></defs><title>L Quad</title><g id="Front_Right_Ankle" data-name="Front Right Ankle"><g class="cls-2"><polygon class="cls-3" points="75.18 145.17 75.18 48.43 24.17 -39.51 -84.93 -74.93 -193.92 -39.51 -244.92 48.43 -244.92 145.17 -269.55 150.44 -258.99 234.87 -218.54 248.94 -174.57 340.39 -84.45 378.9 4.83 340.39 48.8 248.94 89.25 234.87 99.8 150.44 75.18 145.17"/><polygon class="cls-3" points="40.35 421.7 25.56 490.72 112.66 512.09 168.53 492.37 40.35 421.7"/><polygon class="cls-3" points="96.22 536.74 165.24 659.99 240.84 697.79 194.82 733.94 158.67 839.12 74.86 873.63 -58.69 807.63 -25.39 548.24 96.22 536.74"/><path class="cls-3" d="M231.83,995.42a13.65,13.65,0,0,0-3-1.8L201.4,789.81,254,714.22l54.23,78.88,46,276.09L350,1106.25C312.92,1066.87,274.23,1029.15,231.83,995.42Z"/><polygon class="cls-3" points="334.51 779.96 359.16 1042.89 375.6 847.33 334.51 779.96"/><path class="cls-3" d="M199.11,500.5l30.22-16.35,94.61,104.66.52,39.85S200.93,501.43,199.11,500.5Z"/><path class="cls-3" d="M189.5,504.84c-.05,2.08,132.78,141.47,132.78,141.47l4,123.78-46-78.88-88.74-37.8-62.45-115Z"/><polygon class="cls-3" points="10.06 355.48 -49.91 446.35 -79.56 550.75 -10.47 495.65 13.53 395.51 10.06 355.48"/><polygon class="cls-3" points="89.4 898.22 188.25 857.19 151.03 957.38 89.4 898.22"/><polygon class="cls-3" points="54.23 896.98 -69.86 841.14 -66.14 931.73 45.55 988.81 54.23 896.98"/></g></g><g id="Front_Left_Foot" data-name="Front Left Foot"><g class="cls-4"><polygon class="cls-3" points="744.19 355.52 804.16 446.39 833.81 550.79 764.72 495.69 736.99 397.15 744.19 355.52"/><polygon class="cls-3" points="715.43 421.74 730.22 490.76 643.12 512.12 587.25 492.4 715.43 421.74"/><polygon class="cls-3" points="659.56 536.77 590.54 660.02 514.94 697.82 560.96 733.97 597.11 839.15 680.92 873.66 814.47 807.66 781.16 548.27 659.56 536.77"/><path class="cls-3" d="M524,995.45a13.28,13.28,0,0,1,3-1.8l27.39-203.8-52.58-75.6-54.24,78.88-46,276.09,4.22,37.06C442.86,1066.9,481.55,1029.17,524,995.45Z"/><polygon class="cls-3" points="421.27 779.99 396.62 1042.92 380.19 847.36 421.27 779.99"/><polygon class="cls-3" points="997.17 145.21 997.17 48.47 946.17 -39.47 837.07 -74.89 728.08 -39.47 677.08 48.47 677.08 145.21 652.46 150.48 663.01 234.9 703.46 248.97 747.43 340.43 837.55 378.93 926.82 340.43 970.79 248.97 1011.25 234.9 1021.8 150.48 997.17 145.21"/><polygon class="cls-3" points="1018.22 536.77 1087.24 660.02 1162.83 697.82 1116.82 733.97 1080.66 839.15 996.85 873.66 863.3 807.66 896.61 548.27 1018.22 536.77"/><path class="cls-3" d="M556.67,500.54l-30.22-16.36L431.84,588.84l-.52,39.85S554.85,501.46,556.67,500.54Z"/><path class="cls-3" d="M566.28,504.87C566.33,507,433.5,646.34,433.5,646.34l-4,123.79,46-78.88,88.74-37.8,62.45-115Z"/><polygon class="cls-3" points="932.05 355.52 872.09 446.39 842.44 550.79 911.53 495.69 935.52 395.55 932.05 355.52"/><polygon class="cls-3" points="666.38 898.25 567.53 857.22 604.75 957.4 666.38 898.25"/><polygon class="cls-3" points="701.54 897.01 825.64 841.17 821.91 931.76 710.23 988.84 701.54 897.01"/><polygon class="cls-3" points="976.23 897.01 852.14 841.17 855.86 931.76 967.54 988.84 976.23 897.01"/></g></g><g id="Front_Abs" data-name="Front Abs"><g class="cls-5"><polygon class="cls-3" points="41.65 403.03 41.65 351.51 14.48 304.68 -43.62 285.81 -101.67 304.68 -128.83 351.51 -128.83 403.03 -141.95 405.84 -136.33 450.8 -114.78 458.3 -91.36 507.01 -43.37 527.51 4.18 507.01 27.59 458.3 49.14 450.8 54.76 405.84 41.65 403.03"/><polygon class="cls-3" points="23.09 550.31 15.22 587.07 61.6 598.45 91.36 587.94 23.09 550.31"/><polygon class="cls-3" points="52.85 611.57 89.61 677.22 129.87 697.35 105.37 716.6 86.11 772.61 41.48 790.99 -29.65 755.85 -11.91 617.7 52.85 611.57"/><path class="cls-3" d="M125.08,855.86a7.19,7.19,0,0,0-1.62-1L108.87,746.36l28-40.26,28.89,42,24.5,147L188,914.88C168.26,893.91,147.65,873.82,125.08,855.86Z"/><path class="cls-3" d="M184.41,930.33a6.94,6.94,0,0,0,1.69,1.32l-3.72,32.64-51.63-55.14L126,873.59C146.73,891.13,165.91,910.38,184.41,930.33Z"/><polygon class="cls-3" points="179.76 741.11 192.89 881.14 201.64 776.99 179.76 741.11"/><path class="cls-3" d="M107.65,592.28l16.1-8.71,50.38,55.74.27,21.22S108.62,592.77,107.65,592.28Z"/><path class="cls-3" d="M102.53,594.58c0,1.12,70.72,75.35,70.72,75.35l2.13,65.92-24.5-42-47.26-20.13L70.36,612.45Z"/><polygon class="cls-3" points="6.96 515.04 -24.97 563.44 -40.76 619.04 -3.97 589.69 8.81 536.36 6.96 515.04"/><polygon class="cls-3" points="71.58 838.75 44.1 854.01 47.27 817.84 71.58 838.75"/><polygon class="cls-3" points="49.22 804.09 101.86 782.24 82.04 835.6 49.22 804.09"/><polygon class="cls-3" points="81.73 840.86 45.85 862.74 39.72 906.5 74.73 883.75 81.73 840.86"/><polygon class="cls-3" points="30.49 803.43 -35.6 773.69 -33.62 821.94 25.86 852.34 30.49 803.43"/><polygon class="cls-3" points="19.92 864.24 18.59 898.6 -30.31 888.03 -32.96 841.1 19.92 864.24"/></g><g class="cls-6"><circle class="cls-7" cx="438.96" cy="437.34" r="437.34"/><path class="cls-3" d="M211.21,6a6.49,6.49,0,0,1-1.69,1.31L213.24,40l51.63-55.13,4.78-35.57C248.89-33.2,229.71-13.95,211.21,6Z"/><polygon class="cls-3" points="216.74 55.71 144.83 249.87 167.74 255.16 243.87 98.59 257.87 11.07 216.74 55.71"/><polygon class="cls-3" points="195.73 -19.56 206.24 54.83 137.78 237.53 127.2 230.48 153.64 89.49 195.73 -19.56"/><polygon class="cls-3" points="114.92 235.32 126.38 262.64 159.86 267.93 162.51 317.28 144.88 387.77 133.43 386.89 144.55 339.97 132.66 339.64 114.04 389.54 99.94 387.77 117.45 337.33 105.23 335.01 81.44 388.66 63.81 386.89 88.04 331.05 79.67 326.09 49.71 373.68 34.73 371.91 79.67 286.44 75.27 279.39 32.97 297.01 30.32 287.32 64.69 256.47 114.92 235.32"/><path class="cls-3" d="M665.34,6A6.53,6.53,0,0,0,667,7.31L663.32,40,611.68-15.18,606.9-50.75C627.67-33.2,646.85-13.95,665.34,6Z"/><polygon class="cls-3" points="659.82 55.71 731.73 249.87 708.82 255.16 632.68 98.59 618.68 11.07 659.82 55.71"/><polygon class="cls-3" points="680.82 -19.56 670.32 54.83 738.78 237.53 749.35 230.48 722.91 89.49 680.82 -19.56"/><polygon class="cls-3" points="761.63 235.32 750.18 262.64 716.69 267.93 714.05 317.28 731.67 387.77 743.13 386.89 732 339.97 743.9 339.64 762.51 389.54 776.61 387.77 759.1 337.33 771.33 335.01 795.12 388.66 812.74 386.89 788.51 331.05 796.88 326.09 826.84 373.68 841.82 371.91 796.88 286.44 801.29 279.39 843.59 297.01 846.23 287.32 811.86 256.47 761.63 235.32"/><polygon class="cls-3" points="387.16 811.2 380.99 830.58 367.77 912.54 366.01 1021.81 384.52 1128.43 383.64 991.85 403.02 937.21 405.67 877.29 387.16 811.2"/><polygon class="cls-3" points="489.39 811.2 495.56 830.58 508.78 912.54 510.54 1021.81 492.04 1128.43 492.92 991.85 473.53 937.21 470.89 877.29 489.39 811.2"/><polygon class="cls-3" points="344.86 860.54 349.27 1024.45 380.97 1143.34 344.4 1132.17 282.3 909.01 304.33 764.49 344.86 860.54"/><polygon class="cls-3" points="531.03 860.54 526.62 1024.45 494.92 1143.34 531.49 1132.17 593.6 909.01 571.57 764.49 531.03 860.54"/><polygon class="cls-3" points="320.19 691.35 317.55 715.14 336.05 738.06 342.22 774.19 354.56 779.47 365.13 724.84 372.18 705.45 366.01 693.12 320.19 691.35"/><polygon class="cls-3" points="402.14 693.12 388.92 730.13 360.73 784.76 367.77 834.99 388.04 778.59 404.79 746.87 402.14 693.12"/><polygon class="cls-3" points="556.37 691.35 559.01 715.14 540.5 738.06 534.34 774.19 522 779.47 511.42 724.84 504.37 705.45 510.54 693.12 556.37 691.35"/><polygon class="cls-3" points="474.41 693.12 487.63 730.13 515.83 784.76 508.78 834.99 488.51 778.59 471.77 746.87 474.41 693.12"/><polygon class="cls-3" points="301.49 252.31 359.41 379.82 372.58 483.1 347.89 628.39 294.38 480.47 291.09 328.19 300.81 252.4 301.49 252.31"/><polygon class="cls-3" points="294.09 524.7 286.68 489.23 337.72 629.26 330.02 649.09 307.33 588.08 294.09 524.7"/><polygon class="cls-3" points="375.21 437.34 376.58 440.62 402.34 502.11 385.71 654.39 359.45 640.39 382.21 498.6 375.21 437.34"/><polygon class="cls-8" points="501.35 437.34 499.97 440.62 474.22 502.11 490.85 654.39 517.1 640.39 494.35 498.6 501.35 437.34"/><polygon class="cls-8" points="574.73 254.31 516.81 381.82 503.64 485.1 528.33 630.39 581.83 482.47 585.13 330.19 575.41 254.4 574.73 254.31"/><polygon class="cls-8" points="582.13 526.7 589.53 491.23 538.5 631.26 546.2 651.09 568.89 590.08 582.13 526.7"/><polygon class="cls-3" points="286.41 138.33 255.74 250.43 270.81 252.88 300.44 246.27 340.7 242.52 360.84 217.69 350.94 192.96 326.37 185.59 286.41 138.33"/><polygon class="cls-3" points="589.8 140.33 620.48 252.43 605.41 254.88 575.78 248.27 535.52 244.52 515.37 219.69 525.28 194.96 549.85 187.59 589.8 140.33"/><polygon class="cls-3" points="343.52 248.27 310.76 251.17 368.76 365.57 408.27 488.1 404.15 403.21 343.52 248.27"/><polygon class="cls-3" points="407.7 273.04 408.17 272.45 405.01 264.41 366.67 222.43 353.61 240.6 377.92 303.25 407.7 273.04"/><polygon class="cls-3" points="382.79 315.79 409.91 385.7 418.97 299.93 413.61 286.31 382.79 315.79"/><polygon class="cls-3" points="493.76 315.79 466.64 385.7 457.59 299.93 462.94 286.31 493.76 315.79"/><polygon class="cls-3" points="532.69 250.27 565.45 253.17 507.46 367.57 467.95 490.1 472.07 405.21 532.69 250.27"/><polygon class="cls-3" points="468.52 275.04 468.05 274.45 471.21 266.41 509.55 224.43 522.6 242.6 498.3 305.25 468.52 275.04"/><polygon class="cls-3" points="269.39 261.28 289.56 255.16 281.91 320.5 280.68 488.1 307.21 617.06 306.92 678.2 314.86 752.27 304.56 748.45 293.69 773.89 294.13 602.96 268.86 488.1 251.87 257.92 269.39 261.28"/><polygon class="cls-3" points="606.83 263.28 586.66 257.16 594.31 322.5 595.54 490.1 569 619.06 569.3 680.2 561.36 754.27 571.66 750.45 582.52 775.89 582.08 604.96 607.35 490.1 624.34 259.92 606.83 263.28"/><polygon class="cls-3" points="322.64 -30.06 354.15 -8.18 358.52 36.45 323.51 8.45 322.64 -30.06"/><polygon class="cls-3" points="357.64 60.18 319.13 31.3 315.78 70.1 288.46 120.33 330.52 178.24 352.4 181.74 360.27 99.47 357.64 60.18"/><polygon class="cls-3" points="553.91 -30.06 522.41 -8.18 518.03 36.45 553.04 8.45 553.91 -30.06"/><polygon class="cls-3" points="518.92 60.18 557.43 31.3 560.77 70.1 588.09 120.33 546.04 178.24 524.16 181.74 516.28 99.47 518.92 60.18"/><polygon class="cls-3" points="433.87 276.31 420.99 151.18 420.66 69.71 374.28 46.96 369.03 195.74 433.87 276.31"/><polygon class="cls-3" points="379.01 -9.21 378.35 33.09 425.27 45.65 425.93 -20.44 379.01 -9.21"/><polygon class="cls-3" points="442.69 276.31 455.57 151.18 455.89 69.71 502.28 46.96 507.53 195.74 442.69 276.31"/><polygon class="cls-3" points="497.55 -9.21 498.21 33.09 451.28 45.65 450.62 -20.44 497.55 -9.21"/></g></g></svg>