<svg xmlns="http://www.w3.org/2000/svg" xmlns:xlink="http://www.w3.org/1999/xlink" viewBox="0 0 874.68 874.68"><defs><style>.cls-1{fill:none;}.cls-2{clip-path:url(#clip-path);}.cls-3{fill:#d9dadb;}.cls-4{clip-path:url(#clip-path-2);}.cls-5{fill:#f7f7f7;}.cls-6{fill:#e0af12;}.cls-7{clip-path:url(#clip-path-3);}</style><clipPath id="clip-path"><circle class="cls-1" cx="-44.83" cy="1387.3" r="437.34"/></clipPath><clipPath id="clip-path-2"><circle class="cls-1" cx="437.34" cy="437.34" r="437.34"/></clipPath><clipPath id="clip-path-3"><circle class="cls-1" cx="1397.55" cy="437.34" r="430.53"/></clipPath></defs><title>L Shin</title><g id="Front_Left_Shin" data-name="Front Left Shin"><g class="cls-2"><polygon class="cls-3" points="63.25 -67.47 104.44 6.09 149.55 28.64 122.09 50.22 100.51 112.98 50.5 133.58 -29.2 94.19 -9.33 -60.6 63.25 -67.47"/><path class="cls-3" d="M144.17,206.26a7.69,7.69,0,0,0-1.81-1.07L126,83.56l31.38-45.11,32.37,47.07,27.46,164.76L214.7,272.4C192.57,248.9,169.47,226.39,144.17,206.26Z"/><path class="cls-3" d="M210.66,289.71a7.27,7.27,0,0,0,1.9,1.47l-4.17,36.58L150.53,266l-5.36-39.84C168.44,245.79,189.94,267.36,210.66,289.71Z"/><polygon class="cls-3" points="204.47 345.41 285.05 562.98 259.37 568.9 174.07 393.47 158.38 295.4 204.47 345.41"/><polygon class="cls-3" points="228 261.07 216.24 344.43 292.95 549.15 304.8 541.25 275.17 383.26 228 261.07"/><polygon class="cls-3" points="205.45 77.68 220.16 234.59 229.97 117.89 205.45 77.68"/><polygon class="cls-3" points="318.56 546.68 305.72 577.29 268.2 583.22 265.24 638.51 284.99 717.51 297.82 716.52 285.36 663.94 298.69 663.57 319.55 719.48 335.34 717.51 315.72 660.98 329.42 658.38 356.08 718.49 375.83 716.52 348.67 653.94 358.06 648.39 391.63 701.71 408.41 699.73 358.06 603.95 362.99 596.05 410.39 615.8 413.35 604.94 374.84 570.38 318.56 546.68"/><path class="cls-3" d="M118.91-86.51c0,1.25,79.24,84.43,79.24,84.43l2.4,73.87L173.09,24.72l-53-22.56L82.86-66.49Z"/><polygon class="cls-3" points="26.9 773.04 25.36 776.72 -3.5 845.62 15.13 1016.26 44.55 1000.57 19.05 841.69 26.9 773.04"/><polygon class="cls-3" points="109.13 567.95 44.22 710.84 29.46 826.56 57.13 989.36 117.09 823.62 120.78 652.98 109.88 568.05 109.13 567.95"/><polygon class="cls-3" points="117.41 873.18 125.72 833.43 68.53 990.34 77.16 1012.55 102.58 944.2 117.41 873.18"/><polygon class="cls-3" points="126.02 440.24 160.39 565.85 143.5 568.59 110.31 561.18 65.19 556.98 42.61 529.16 53.71 501.45 81.24 493.19 126.02 440.24"/><polygon class="cls-3" points="18.4 636.85 -11.99 715.18 -22.14 619.07 -16.14 603.81 18.4 636.85"/><polygon class="cls-3" points="62.02 563.43 98.73 566.67 33.75 694.87 -10.53 832.17 -5.91 737.04 62.02 563.43"/><polygon class="cls-3" points="-9.89 591.18 -10.41 590.52 -6.87 581.51 36.09 534.48 50.72 554.83 23.48 625.03 -9.89 591.18"/><polygon class="cls-3" points="145.09 578 122.49 571.14 131.07 644.36 132.44 832.17 102.71 976.67 103.04 1045.18 94.14 1128.18 105.69 1123.89 117.86 1152.41 117.37 960.87 145.68 832.17 164.72 574.24 145.09 578"/><polygon class="cls-3" points="84.22 187.09 53.44 204.19 56.99 163.66 84.22 187.09"/><polygon class="cls-3" points="59.17 148.26 118.17 123.77 95.95 183.56 59.17 148.26"/><polygon class="cls-3" points="95.61 189.46 55.4 213.98 48.53 263.01 87.76 237.51 95.61 189.46"/><polygon class="cls-3" points="85.8 249.3 50.5 273.82 45.59 323.84 84.82 292.45 85.8 249.3"/><polygon class="cls-3" points="46.59 350.42 89.74 318.06 93.48 361.54 124.1 417.82 76.98 482.71 52.46 486.63 43.63 394.45 46.59 350.42"/><polygon class="cls-3" points="38.19 147.52 -35.87 114.19 -33.65 168.25 33.01 202.32 38.19 147.52"/><polygon class="cls-3" points="26.34 215.65 24.86 254.16 -29.94 242.31 -32.91 189.73 26.34 215.65"/><polygon class="cls-3" points="-38.83 592.6 -24.4 452.39 -24.04 361.1 27.94 335.61 33.82 502.33 -38.83 592.6"/><polygon class="cls-3" points="22.64 272.67 23.38 320.07 -29.2 334.14 -29.94 260.08 22.64 272.67"/></g></g><g id="Front_Right_Shin" data-name="Front Right Shin"><g class="cls-4"><circle class="cls-5" cx="437.24" cy="437.34" r="437.34"/><polygon class="cls-3" points="378.52 259.6 371.61 281.33 356.8 373.16 354.82 495.6 375.56 615.08 374.57 462.03 396.3 400.81 399.26 333.66 378.52 259.6"/><polygon class="cls-3" points="493.08 259.6 499.99 281.33 514.8 373.16 516.77 495.6 496.04 615.08 497.03 462.03 475.3 400.81 472.34 333.66 493.08 259.6"/><polygon class="cls-3" points="401.88 682.81 399.26 755.29 392.35 783.93 371.61 783.93 365.69 764.18 358.77 763.19 360.25 782.94 334.09 775.04 327.18 771.09 297.55 764.67 296.57 741.47 325.2 693.08 340.38 674.11 372.61 692.44 401.88 682.81"/><polygon class="cls-3" points="468.98 682.81 471.6 755.29 478.51 783.93 499.25 783.93 505.17 764.18 512.08 763.19 510.6 782.94 536.77 775.04 543.68 771.09 573.3 764.67 574.29 741.47 545.66 693.08 530.47 674.11 498.25 692.44 468.98 682.81"/><polygon class="cls-3" points="332.64 628.79 331.53 640.22 344.64 665.88 371.96 683.72 400.04 674.52 391.2 647.78 332.64 628.79"/><polygon class="cls-3" points="538.21 628.79 539.33 640.22 526.22 665.88 498.89 683.72 470.82 674.52 479.65 647.78 538.21 628.79"/><polygon class="cls-3" points="331.13 314.9 336.06 498.56 371.59 631.78 330.61 619.27 261.02 369.21 285.7 207.27 331.13 314.9"/><polygon class="cls-6" points="539.73 314.9 534.79 498.56 499.27 631.78 540.25 619.27 609.84 369.21 585.15 207.27 539.73 314.9"/><polygon class="cls-3" points="303.48 125.31 300.51 151.97 321.25 177.65 328.16 218.13 341.99 224.06 353.84 162.83 361.74 141.11 354.82 127.29 303.48 125.31"/><polygon class="cls-3" points="395.31 127.29 380.5 168.76 348.9 229.98 356.8 286.26 379.51 223.07 398.27 187.52 395.31 127.29"/><polygon class="cls-3" points="568.12 125.31 571.08 151.97 550.35 177.65 543.44 218.13 529.61 224.06 517.76 162.83 509.86 141.11 516.77 127.29 568.12 125.31"/><polygon class="cls-3" points="476.29 127.29 491.1 168.76 522.7 229.98 514.8 286.26 492.09 223.07 473.33 187.52 476.29 127.29"/><polygon class="cls-3" points="282.52 -366.65 347.43 -223.77 362.18 -108.04 334.51 54.76 274.56 -110.98 270.87 -281.63 281.76 -366.55 282.52 -366.65"/><polygon class="cls-3" points="274.23 -61.43 265.93 -101.18 323.12 55.74 314.49 77.95 289.07 9.59 274.23 -61.43"/><polygon class="cls-3" points="365.13 -159.32 366.67 -155.65 395.53 -86.75 376.9 83.9 347.47 68.21 372.97 -90.67 365.13 -159.32"/><polygon class="cls-3" points="506.47 -159.32 504.93 -155.65 476.07 -86.75 494.7 83.9 524.13 68.21 498.63 -90.67 506.47 -159.32"/><polygon class="cls-3" points="588.7 -364.41 523.79 -221.53 509.04 -105.8 536.71 57 596.66 -108.74 600.35 -279.39 589.46 -364.31 588.7 -364.41"/><polygon class="cls-3" points="596.99 -59.19 605.29 -98.94 548.1 57.98 556.73 80.19 582.15 11.84 596.99 -59.19"/><polygon class="cls-3" points="246.56 -356.6 269.16 -363.46 260.58 -290.24 259.21 -102.44 288.94 42.07 288.61 110.58 297.5 193.58 285.96 189.29 273.79 217.8 274.28 26.27 245.97 -102.44 226.93 -360.37 246.56 -356.6"/><polygon class="cls-3" points="624.66 -354.36 602.07 -361.22 610.64 -288 612.02 -100.2 582.28 44.31 582.61 112.82 573.72 195.82 585.26 191.53 597.43 220.04 596.94 28.51 625.26 -100.2 644.29 -358.12 624.66 -354.36"/></g></g><g id="Front_Left_Ankle" data-name="Front Left Ankle"><g class="cls-7"><circle class="cls-5" cx="1317.26" cy="343.26" r="721.44"/></g></g></svg>