<?xml version="1.0" encoding="iso-8859-1"?>
<!-- Generator: Adobe Illustrator 22.0.1, SVG Export Plug-In . SVG Version: 6.00 Build 0)  -->
<svg version="1.1" id="Layer_1" xmlns="http://www.w3.org/2000/svg" xmlns:xlink="http://www.w3.org/1999/xlink" x="0px" y="0px"
	 viewBox="0 0 783.017 780.59" style="enable-background:new 0 0 783.017 780.59;" xml:space="preserve">
<g id="Front_Right_Shin">
	<g>
		<g>
			<defs>
				<circle id="SVGID_1_" cx="390.295" cy="390.295" r="390.295"/>
			</defs>
			<clipPath id="SVGID_2_">
				<use xlink:href="#SVGID_1_"  style="overflow:visible;"/>
			</clipPath>
			<circle style="clip-path:url(#SVGID_2_);fill:#F7F7F7;" cx="390.207" cy="390.295" r="390.295"/>
		</g>
		<g>
			<defs>
				<circle id="SVGID_3_" cx="390.295" cy="390.295" r="390.295"/>
			</defs>
			<clipPath id="SVGID_4_">
				<use xlink:href="#SVGID_3_"  style="overflow:visible;"/>
			</clipPath>
			<g style="clip-path:url(#SVGID_4_);">
				<polygon style="fill:#D9DADB;" points="338.488,-988.81 370.423,-940.416 386.214,-884.815 349.418,-914.16 334.65,-966.639 
									"/>
				<polygon style="fill:#D9DADB;" points="323.17,-953.545 331.047,-916.785 284.66,-905.408 254.903,-915.91 				"/>
				<polygon style="fill:#D9DADB;" points="293.413,-892.279 256.654,-826.638 216.394,-806.508 240.9,-787.253 260.154,-731.239 
					304.79,-712.86 375.916,-748.007 358.179,-886.153 				"/>
				<path style="fill:#D9DADB;" d="M221.189-647.997c0.524-0.417,1.069-0.713,1.62-0.956l14.589-108.544l-28.007-40.26
					l-28.882,42.01L156.003-608.71l2.248,19.737C178.004-609.944,198.612-630.034,221.189-647.997z"/>
				<path style="fill:#D9DADB;" d="M161.856-573.52c-0.537,0.58-1.111,0.986-1.694,1.313l3.718,32.64l51.638-55.139l4.78-35.561
					C199.532-612.722,180.351-593.47,161.856-573.52z"/>
				<polygon style="fill:#D9DADB;" points="167.381,-523.813 95.471,-329.651 118.382,-324.364 194.513,-480.927 208.517,-568.449 
									"/>
				<polygon style="fill:#D9DADB;" points="146.376,-599.081 156.879,-524.688 88.421,-341.988 77.846,-349.038 104.283,-490.032 
									"/>
				<polygon style="fill:#D9DADB;" points="166.506,-762.747 153.378,-622.712 144.626,-726.863 				"/>
				<polygon style="fill:#D9DADB;" points="473.221,-1100.82 473.221,-1152.337 446.057,-1199.172 387.953,-1218.037 
					329.908,-1199.172 302.744,-1152.337 302.744,-1100.82 289.63,-1098.009 295.25,-1053.048 316.794,-1045.555 340.211,-996.847 
					388.21,-976.341 435.754,-996.847 459.171,-1045.555 480.715,-1053.048 486.335,-1098.009 				"/>
				<polygon style="fill:#D9DADB;" points="65.565,-344.195 77.021,-316.878 110.507,-311.59 113.15,-262.242 95.526,-191.745 
					84.07,-192.627 95.196,-239.551 83.299,-239.882 64.684,-189.983 50.584,-191.745 68.098,-242.195 55.872,-244.508 
					32.079,-190.864 14.455,-192.627 38.688,-248.473 30.316,-253.43 0.355,-205.845 -14.625,-207.607 30.316,-293.085 
					25.91,-300.134 -16.388,-282.51 -19.032,-292.204 15.336,-323.046 				"/>
				<polygon style="fill:#D9DADB;" points="454.671,-953.545 446.794,-916.785 493.181,-905.408 522.938,-915.91 				"/>
				<polygon style="fill:#D9DADB;" points="484.429,-892.279 521.188,-826.638 561.448,-806.508 536.942,-787.253 517.687,-731.239 
					473.051,-712.86 401.925,-748.007 419.663,-886.153 				"/>
				<path style="fill:#D9DADB;" d="M556.652-647.997c-0.524-0.417-1.069-0.713-1.62-0.956l-14.589-108.544l28.007-40.26
					l28.882,42.01l24.506,147.037l-2.249,19.737C599.837-609.944,579.23-630.034,556.652-647.997z"/>
				<path style="fill:#D9DADB;" d="M615.985-573.52c0.537,0.58,1.111,0.986,1.694,1.313l-3.718,32.64l-51.638-55.139l-4.78-35.561
					C578.31-612.722,597.491-593.47,615.985-573.52z"/>
				<polygon style="fill:#D9DADB;" points="610.46,-523.813 682.371,-329.651 659.459,-324.364 583.328,-480.927 569.325,-568.449 
									"/>
				<polygon style="fill:#D9DADB;" points="631.465,-599.081 620.963,-524.688 689.42,-341.988 699.995,-349.038 673.559,-490.032 
									"/>
				<polygon style="fill:#D9DADB;" points="611.335,-762.747 624.464,-622.712 633.216,-726.863 				"/>
				<polygon style="fill:#D9DADB;" points="712.277,-344.195 700.821,-316.878 667.335,-311.59 664.691,-262.242 682.315,-191.745 
					693.771,-192.627 682.646,-239.551 694.542,-239.882 713.158,-189.983 727.257,-191.745 709.743,-242.195 721.97,-244.508 
					745.763,-190.864 763.387,-192.627 739.153,-248.473 747.525,-253.43 777.486,-205.845 792.467,-207.607 747.525,-293.085 
					751.931,-300.134 794.229,-282.51 796.873,-292.204 762.506,-323.046 				"/>
				<path style="fill:#D9DADB;" d="M539.223-911.578l16.098-8.709l50.384,55.739l0.276,21.223
					C605.981-843.325,540.194-911.083,539.223-911.578z"/>
				<path style="fill:#D9DADB;" d="M534.107-909.269c-0.027,1.112,70.717,75.344,70.717,75.344l2.135,65.927l-24.506-42.011
					l-47.262-20.13l-33.258-61.265L534.107-909.269z"/>
				<path style="fill:#D9DADB;" d="M238.618-911.578l-16.098-8.709l-50.384,55.739l-0.276,21.223
					C171.861-843.325,237.647-911.083,238.618-911.578z"/>
				<path style="fill:#D9DADB;" d="M243.734-909.269c0.028,1.112-70.717,75.344-70.717,75.344l-2.135,65.927l24.506-42.011
					l47.262-20.13l33.258-61.265L243.734-909.269z"/>
				<polygon style="fill:#D9DADB;" points="438.54,-988.81 406.604,-940.416 390.813,-884.815 427.609,-914.16 440.387,-967.492 
									"/>
				<polygon style="fill:#D9DADB;" points="337.805,231.677 331.636,251.064 318.418,333.016 316.656,442.287 335.161,548.914 
					334.28,412.326 353.667,357.69 356.31,297.768 				"/>
				<polygon style="fill:#D9DADB;" points="440.037,231.677 446.205,251.064 459.423,333.016 461.186,442.287 442.68,548.914 
					443.561,412.326 424.175,357.69 421.531,297.768 				"/>
			</g>
		</g>
		<g>
			<defs>
				<circle id="SVGID_5_" cx="390.295" cy="390.295" r="390.295"/>
			</defs>
			<clipPath id="SVGID_6_">
				<use xlink:href="#SVGID_5_"  style="overflow:visible;"/>
			</clipPath>
			<polygon style="clip-path:url(#SVGID_6_);fill:#D9DADB;" points="358.648,609.357 356.31,674.046 350.142,699.601 
				331.636,699.601 326.349,681.977 320.181,681.095 321.502,698.72 298.15,691.67 291.982,688.145 265.545,682.417 
				264.664,661.709 290.219,618.529 303.77,601.591 332.53,617.952 			"/>
		</g>
		<g>
			<defs>
				<circle id="SVGID_7_" cx="390.295" cy="390.295" r="390.295"/>
			</defs>
			<clipPath id="SVGID_8_">
				<use xlink:href="#SVGID_7_"  style="overflow:visible;"/>
			</clipPath>
			<polygon style="clip-path:url(#SVGID_8_);fill:#D9DADB;" points="418.531,609.357 420.869,674.046 427.038,699.601 
				445.543,699.601 450.831,681.977 456.999,681.095 455.677,698.72 479.029,691.67 485.198,688.145 511.634,682.417 
				512.515,661.709 486.96,618.529 473.41,601.591 444.649,617.952 			"/>
		</g>
		<g>
			<defs>
				<circle id="SVGID_9_" cx="390.295" cy="390.295" r="390.295"/>
			</defs>
			<clipPath id="SVGID_10_">
				<use xlink:href="#SVGID_9_"  style="overflow:visible;"/>
			</clipPath>
			<polygon style="clip-path:url(#SVGID_10_);fill:#D9DADB;" points="296.862,561.15 295.867,571.354 307.564,594.249 
				331.952,610.176 357.004,601.964 349.123,578.1 			"/>
		</g>
		<g>
			<defs>
				<circle id="SVGID_11_" cx="390.295" cy="390.295" r="390.295"/>
			</defs>
			<clipPath id="SVGID_12_">
				<use xlink:href="#SVGID_11_"  style="overflow:visible;"/>
			</clipPath>
			<polygon style="clip-path:url(#SVGID_12_);fill:#D9DADB;" points="480.317,561.15 481.313,571.354 469.616,594.249 
				445.228,610.176 420.176,601.964 428.056,578.1 			"/>
		</g>
		<g>
			<defs>
				<circle id="SVGID_13_" cx="390.295" cy="390.295" r="390.295"/>
			</defs>
			<clipPath id="SVGID_14_">
				<use xlink:href="#SVGID_13_"  style="overflow:visible;"/>
			</clipPath>
			<polygon style="clip-path:url(#SVGID_14_);fill:#D9DADB;" points="295.507,281.025 299.913,444.93 331.617,563.821 
				295.049,552.653 232.941,329.492 254.971,184.973 			"/>
		</g>
		<g>
			<defs>
				<circle id="SVGID_15_" cx="390.295" cy="390.295" r="390.295"/>
			</defs>
			<clipPath id="SVGID_16_">
				<use xlink:href="#SVGID_15_"  style="overflow:visible;"/>
			</clipPath>
			<polygon style="clip-path:url(#SVGID_16_);fill:#E0AF12;" points="481.673,281.025 477.267,444.93 445.563,563.821 
				482.131,552.653 544.239,329.492 522.209,184.973 			"/>
		</g>
		<g>
			<defs>
				<circle id="SVGID_17_" cx="390.295" cy="390.295" r="390.295"/>
			</defs>
			<clipPath id="SVGID_18_">
				<use xlink:href="#SVGID_17_"  style="overflow:visible;"/>
			</clipPath>
			<polygon style="clip-path:url(#SVGID_18_);fill:#D9DADB;" points="270.833,111.832 268.189,135.625 286.694,158.536 
				292.863,194.666 305.2,199.953 315.775,145.318 322.824,125.932 316.656,113.595 			"/>
		</g>
		<g>
			<defs>
				<circle id="SVGID_19_" cx="390.295" cy="390.295" r="390.295"/>
			</defs>
			<clipPath id="SVGID_20_">
				<use xlink:href="#SVGID_19_"  style="overflow:visible;"/>
			</clipPath>
			<polygon style="clip-path:url(#SVGID_20_);fill:#D9DADB;" points="352.785,113.595 339.567,150.605 311.368,205.241 
				318.418,255.47 338.686,199.072 355.429,167.349 			"/>
		</g>
		<g>
			<defs>
				<circle id="SVGID_21_" cx="390.295" cy="390.295" r="390.295"/>
			</defs>
			<clipPath id="SVGID_22_">
				<use xlink:href="#SVGID_21_"  style="overflow:visible;"/>
			</clipPath>
			<polygon style="clip-path:url(#SVGID_22_);fill:#D9DADB;" points="507.009,111.832 509.652,135.625 491.147,158.536 
				484.978,194.666 472.641,199.953 462.067,145.318 455.017,125.932 461.186,113.595 			"/>
		</g>
		<g>
			<defs>
				<circle id="SVGID_23_" cx="390.295" cy="390.295" r="390.295"/>
			</defs>
			<clipPath id="SVGID_24_">
				<use xlink:href="#SVGID_23_"  style="overflow:visible;"/>
			</clipPath>
			<polygon style="clip-path:url(#SVGID_24_);fill:#D9DADB;" points="425.056,113.595 438.274,150.605 466.473,205.241 
				459.423,255.47 439.155,199.072 422.412,167.349 			"/>
		</g>
		<g>
			<defs>
				<circle id="SVGID_25_" cx="390.295" cy="390.295" r="390.295"/>
			</defs>
			<clipPath id="SVGID_26_">
				<use xlink:href="#SVGID_25_"  style="overflow:visible;"/>
			</clipPath>
			<polygon style="clip-path:url(#SVGID_26_);fill:#D9DADB;" points="252.129,-327.214 310.054,-199.696 323.224,-96.42 
				298.53,48.866 245.027,-99.046 241.734,-251.334 251.454,-327.122 			"/>
		</g>
		<g>
			<defs>
				<circle id="SVGID_27_" cx="390.295" cy="390.295" r="390.295"/>
			</defs>
			<clipPath id="SVGID_28_">
				<use xlink:href="#SVGID_27_"  style="overflow:visible;"/>
			</clipPath>
			<polygon style="clip-path:url(#SVGID_28_);fill:#D9DADB;" points="244.734,-54.821 237.326,-90.294 288.36,49.741 
				280.659,69.565 257.972,8.562 			"/>
		</g>
		<g>
			<defs>
				<circle id="SVGID_29_" cx="390.295" cy="390.295" r="390.295"/>
			</defs>
			<clipPath id="SVGID_30_">
				<use xlink:href="#SVGID_29_"  style="overflow:visible;"/>
			</clipPath>
			<polygon style="clip-path:url(#SVGID_30_);fill:#D9DADB;" points="325.85,-142.181 327.224,-138.903 352.982,-77.415 
				336.353,74.873 310.097,60.869 332.852,-80.916 			"/>
		</g>
		<g>
			<defs>
				<circle id="SVGID_31_" cx="390.295" cy="390.295" r="390.295"/>
			</defs>
			<clipPath id="SVGID_32_">
				<use xlink:href="#SVGID_31_"  style="overflow:visible;"/>
			</clipPath>
			<polygon style="clip-path:url(#SVGID_32_);fill:#D9DADB;" points="451.991,-142.181 450.617,-138.903 424.859,-77.415 
				441.488,74.873 467.745,60.869 444.989,-80.916 			"/>
		</g>
		<g>
			<defs>
				<circle id="SVGID_33_" cx="390.295" cy="390.295" r="390.295"/>
			</defs>
			<clipPath id="SVGID_34_">
				<use xlink:href="#SVGID_33_"  style="overflow:visible;"/>
			</clipPath>
			<polygon style="clip-path:url(#SVGID_34_);fill:#D9DADB;" points="525.375,-325.214 467.45,-197.696 454.28,-94.42 
				478.974,50.866 532.477,-97.046 535.77,-249.334 526.05,-325.122 			"/>
		</g>
		<g>
			<defs>
				<circle id="SVGID_35_" cx="390.295" cy="390.295" r="390.295"/>
			</defs>
			<clipPath id="SVGID_36_">
				<use xlink:href="#SVGID_35_"  style="overflow:visible;"/>
			</clipPath>
			<polygon style="clip-path:url(#SVGID_36_);fill:#D9DADB;" points="532.77,-52.821 540.178,-88.294 489.144,51.741 
				496.845,71.565 519.532,10.562 			"/>
		</g>
		<g>
			<defs>
				<circle id="SVGID_37_" cx="390.295" cy="390.295" r="390.295"/>
			</defs>
			<clipPath id="SVGID_38_">
				<use xlink:href="#SVGID_37_"  style="overflow:visible;"/>
			</clipPath>
			<polygon style="clip-path:url(#SVGID_38_);fill:#D9DADB;" points="237.056,-441.189 206.384,-329.091 221.451,-326.638 
				251.079,-333.253 291.344,-337.002 311.488,-361.829 301.584,-386.564 277.016,-393.934 			"/>
		</g>
		<g>
			<defs>
				<circle id="SVGID_39_" cx="390.295" cy="390.295" r="390.295"/>
			</defs>
			<clipPath id="SVGID_40_">
				<use xlink:href="#SVGID_39_"  style="overflow:visible;"/>
			</clipPath>
			<polygon style="clip-path:url(#SVGID_40_);fill:#D9DADB;" points="540.449,-439.189 571.12,-327.091 556.054,-324.638 
				526.426,-331.253 486.16,-335.002 466.016,-359.829 475.92,-384.564 500.488,-391.934 			"/>
		</g>
		<g>
			<defs>
				<circle id="SVGID_41_" cx="390.295" cy="390.295" r="390.295"/>
			</defs>
			<clipPath id="SVGID_42_">
				<use xlink:href="#SVGID_41_"  style="overflow:visible;"/>
			</clipPath>
			<polygon style="clip-path:url(#SVGID_42_);fill:#D9DADB;" points="294.167,-331.247 261.406,-328.353 319.401,-213.949 
				358.911,-91.419 354.795,-176.315 			"/>
		</g>
		<g>
			<defs>
				<circle id="SVGID_43_" cx="390.295" cy="390.295" r="390.295"/>
			</defs>
			<clipPath id="SVGID_44_">
				<use xlink:href="#SVGID_43_"  style="overflow:visible;"/>
			</clipPath>
			<polygon style="clip-path:url(#SVGID_44_);fill:#D9DADB;" points="358.34,-306.483 358.81,-307.073 355.651,-315.111 
				317.311,-357.087 304.258,-338.919 328.564,-276.274 			"/>
		</g>
		<g>
			<defs>
				<circle id="SVGID_45_" cx="390.295" cy="390.295" r="390.295"/>
			</defs>
			<clipPath id="SVGID_46_">
				<use xlink:href="#SVGID_45_"  style="overflow:visible;"/>
			</clipPath>
			<polygon style="clip-path:url(#SVGID_46_);fill:#D9DADB;" points="333.433,-263.727 360.557,-193.819 369.611,-279.59 
				364.257,-293.214 			"/>
		</g>
		<g>
			<defs>
				<circle id="SVGID_47_" cx="390.295" cy="390.295" r="390.295"/>
			</defs>
			<clipPath id="SVGID_48_">
				<use xlink:href="#SVGID_47_"  style="overflow:visible;"/>
			</clipPath>
			<polygon style="clip-path:url(#SVGID_48_);fill:#D9DADB;" points="444.409,-263.727 417.284,-193.819 408.23,-279.59 
				413.584,-293.214 			"/>
		</g>
		<g>
			<defs>
				<circle id="SVGID_49_" cx="390.295" cy="390.295" r="390.295"/>
			</defs>
			<clipPath id="SVGID_50_">
				<use xlink:href="#SVGID_49_"  style="overflow:visible;"/>
			</clipPath>
			<polygon style="clip-path:url(#SVGID_50_);fill:#D9DADB;" points="483.337,-329.247 516.098,-326.353 458.104,-211.949 
				418.594,-89.419 422.709,-174.315 			"/>
		</g>
		<g>
			<defs>
				<circle id="SVGID_51_" cx="390.295" cy="390.295" r="390.295"/>
			</defs>
			<clipPath id="SVGID_52_">
				<use xlink:href="#SVGID_51_"  style="overflow:visible;"/>
			</clipPath>
			<polygon style="clip-path:url(#SVGID_52_);fill:#D9DADB;" points="419.164,-304.483 418.694,-305.073 421.853,-313.111 
				460.193,-355.087 473.246,-336.919 448.94,-274.274 			"/>
		</g>
		<g>
			<defs>
				<circle id="SVGID_53_" cx="390.295" cy="390.295" r="390.295"/>
			</defs>
			<clipPath id="SVGID_54_">
				<use xlink:href="#SVGID_53_"  style="overflow:visible;"/>
			</clipPath>
			<polygon style="clip-path:url(#SVGID_54_);fill:#D9DADB;" points="220.035,-318.241 240.203,-324.364 232.549,-259.023 
				231.323,-91.419 257.857,37.544 257.564,98.682 265.5,172.754 255.199,168.928 244.336,194.373 244.776,23.441 219.506,-91.419 
				202.517,-321.601 			"/>
		</g>
		<g>
			<defs>
				<circle id="SVGID_55_" cx="390.295" cy="390.295" r="390.295"/>
			</defs>
			<clipPath id="SVGID_56_">
				<use xlink:href="#SVGID_55_"  style="overflow:visible;"/>
			</clipPath>
			<polygon style="clip-path:url(#SVGID_56_);fill:#D9DADB;" points="557.47,-316.241 537.301,-322.364 544.955,-257.023 
				546.181,-89.419 519.647,39.544 519.941,100.682 512.004,174.754 522.305,170.928 533.168,196.373 532.728,25.441 
				557.998,-89.419 574.988,-319.601 			"/>
		</g>
		<g>
			<defs>
				<circle id="SVGID_57_" cx="390.295" cy="390.295" r="390.295"/>
			</defs>
			<clipPath id="SVGID_58_">
				<use xlink:href="#SVGID_57_"  style="overflow:visible;"/>
			</clipPath>
			<g style="clip-path:url(#SVGID_58_);">
				<polygon style="fill:#D9DADB;" points="274.69,-665.108 302.165,-649.844 298.992,-686.015 				"/>
				<polygon style="fill:#D9DADB;" points="297.048,-699.761 244.4,-721.612 264.223,-668.257 				"/>
				<polygon style="fill:#D9DADB;" points="264.53,-662.991 300.414,-641.11 306.541,-597.349 271.532,-620.105 				"/>
				<polygon style="fill:#D9DADB;" points="273.283,-609.584 304.79,-587.704 309.167,-543.067 274.158,-571.074 				"/>
				<polygon style="fill:#D9DADB;" points="308.279,-519.341 269.77,-548.223 266.426,-509.419 239.108,-459.19 281.16,-401.282 
					303.04,-397.781 310.917,-480.052 				"/>
				<polygon style="fill:#D9DADB;" points="503.152,-665.108 475.676,-649.844 478.849,-686.015 				"/>
				<polygon style="fill:#D9DADB;" points="480.793,-699.761 533.441,-721.612 513.619,-668.257 				"/>
				<polygon style="fill:#D9DADB;" points="513.311,-662.991 477.427,-641.11 471.3,-597.349 506.309,-620.105 				"/>
				<polygon style="fill:#D9DADB;" points="504.559,-609.584 473.051,-587.704 468.675,-543.067 503.683,-571.074 				"/>
				<polygon style="fill:#D9DADB;" points="469.562,-519.341 508.072,-548.223 511.416,-509.419 538.733,-459.19 496.682,-401.282 
					474.801,-397.781 466.924,-480.052 				"/>
				<g>
					<polygon style="fill:#D9DADB;" points="315.774,-700.421 381.865,-730.162 379.882,-681.916 320.4,-651.514 					"/>
					<polygon style="fill:#D9DADB;" points="326.348,-639.618 327.67,-605.251 376.577,-615.825 379.221,-662.75 					"/>
					<polygon style="fill:#D9DADB;" points="384.508,-303.215 371.632,-428.343 371.307,-509.809 324.921,-532.565 
						319.669,-383.778 					"/>
					<polygon style="fill:#D9DADB;" points="329.653,-588.728 328.992,-546.43 375.916,-533.872 376.577,-599.963 					"/>
					<polygon style="fill:#D9DADB;" points="462.068,-700.421 395.977,-730.162 397.959,-681.916 457.441,-651.514 					"/>
					<polygon style="fill:#D9DADB;" points="451.493,-639.618 450.171,-605.251 401.264,-615.825 398.62,-662.75 					"/>
					<polygon style="fill:#D9DADB;" points="393.333,-303.215 406.21,-428.343 406.534,-509.809 452.921,-532.565 458.172,-383.778 
											"/>
					<polygon style="fill:#D9DADB;" points="448.189,-588.728 448.849,-546.43 401.925,-533.872 401.264,-599.963 					"/>
				</g>
			</g>
		</g>
	</g>
</g>
<g id="Layer_1_1_">
</g>
</svg>
