<?xml version="1.0" encoding="iso-8859-1"?>
<!-- Generator: Adobe Illustrator 22.0.1, SVG Export Plug-In . SVG Version: 6.00 Build 0)  -->
<svg version="1.1" xmlns="http://www.w3.org/2000/svg" xmlns:xlink="http://www.w3.org/1999/xlink" x="0px" y="0px"
	 viewBox="0 0 875.427 877.828" style="enable-background:new 0 0 875.427 877.828;" xml:space="preserve">
<g id="Back_Low_Back">
	<circle style="fill:#F7F7F7;" cx="437.242" cy="437.659" r="437.339"/>
	<g>
		<defs>
			<circle id="SVGID_1_" cx="437.242" cy="437.659" r="437.339"/>
		</defs>
		<clipPath id="SVGID_2_">
			<use xlink:href="#SVGID_1_"  style="overflow:visible;"/>
		</clipPath>
		<g style="clip-path:url(#SVGID_2_);">
			<polygon style="fill:#E0AF12;" points="325.245,238.087 363.291,295.489 351.277,320.852 309.226,325.525 			"/>
			<polygon style="fill:#E0AF12;" points="361.956,333.534 411.349,386.931 394.662,385.597 335.257,387.599 268.511,437.659 
				303.219,339.541 			"/>
			<polygon style="fill:#E0AF12;" points="548.18,238.087 510.134,295.489 522.149,320.852 564.199,325.525 			"/>
			<polygon style="fill:#E0AF12;" points="454.572,259.445 437.218,208.718 418.529,259 388.952,332.867 439.012,392.216 
				486.402,332.867 			"/>
			<polygon style="fill:#E0AF12;" points="511.469,333.534 462.077,386.931 478.763,385.597 538.168,387.599 604.915,437.659 
				570.206,339.541 			"/>
		</g>
		<g style="clip-path:url(#SVGID_2_);">
			<g>
				<polygon style="fill:#D9DADB;" points="397.999,-200.439 391.992,-137.697 312.564,-100.319 395.997,-90.307 432.707,-118.34 
					425.365,-222.465 				"/>
				<polygon style="fill:#D9DADB;" points="273.851,41.184 291.872,59.873 288.535,184.022 247.152,273.462 218.451,260.78 
					209.106,170.005 225.126,74.557 				"/>
				<polygon style="fill:#D9DADB;" points="301.884,65.88 300.549,106.596 327.248,216.06 373.303,271.46 366.628,324.19 
					371.968,327.527 406.009,258.111 412.016,183.354 368.631,84.569 326.58,82.567 305.221,65.213 				"/>
				<polygon style="fill:#D9DADB;" points="259.166,273.462 258.499,343.546 180.836,457.905 219.118,328.194 				"/>
				<polygon style="fill:#D9DADB;" points="202.432,236.752 217.783,302.831 159.477,486.384 148.207,477.523 155.917,402.728 
					163.037,354.671 				"/>
				<polygon style="fill:#D9DADB;" points="524.224,-284.539 522.889,-357.293 488.181,-398.676 438.789,-408.021 386.726,-398.676 
					352.018,-357.293 350.683,-284.539 332.662,-279.2 339.336,-241.154 354.021,-232.477 372.042,-234.479 388.061,-198.436 
					409.42,-226.47 438.789,-235.174 465.487,-226.47 486.846,-198.436 502.865,-234.479 520.887,-232.477 535.571,-241.154 
					542.246,-279.2 				"/>
				<polygon style="fill:#D9DADB;" points="475.426,-200.439 481.433,-137.697 560.862,-100.319 477.429,-90.307 440.718,-118.34 
					448.06,-222.465 				"/>
				<g>
					<polygon style="fill:#D9DADB;" points="334.59,-59.603 329.25,-43.584 304.554,-32.237 291.872,12.483 233.803,60.541 
						233.135,-34.907 267.843,-88.304 296.544,-94.979 					"/>
					<polygon style="fill:#D9DADB;" points="319.238,-86.302 352.612,-57.601 376.64,81.899 426.033,181.352 426.033,-49.591 
						388.655,-77.625 					"/>
					<polygon style="fill:#D9DADB;" points="345.937,-42.249 367.963,71.888 319.238,67.883 287.867,30.505 307.224,9.813 
						311.896,-18.22 					"/>
					<polygon style="fill:#D9DADB;" points="538.835,-59.603 544.175,-43.584 568.871,-32.237 581.553,12.483 639.623,60.541 
						640.29,-34.907 605.582,-88.304 576.881,-94.979 					"/>
					<polygon style="fill:#D9DADB;" points="554.187,-86.302 520.814,-57.601 496.785,81.899 447.393,181.352 447.393,-49.591 
						484.771,-77.625 					"/>
					<polygon style="fill:#D9DADB;" points="527.488,-42.249 505.462,71.888 554.187,67.883 585.558,30.505 566.201,9.813 
						561.529,-18.22 					"/>
				</g>
				<polygon style="fill:#D9DADB;" points="599.575,41.184 581.553,59.873 584.891,184.022 626.273,273.462 654.974,260.78 
					664.319,170.005 648.3,74.557 				"/>
				<polygon style="fill:#D9DADB;" points="571.541,65.88 572.876,106.596 546.178,216.06 500.122,271.46 506.797,324.19 
					501.457,327.527 467.417,258.111 461.409,183.354 504.795,84.569 546.845,82.567 568.204,65.213 				"/>
				<polygon style="fill:#D9DADB;" points="128.863,465.03 140.59,492.996 174.871,498.409 177.577,548.928 159.535,621.098 
					147.807,620.196 159.197,572.158 147.018,571.82 127.96,622.902 113.526,621.098 131.456,569.451 118.939,567.083 94.582,622 
					76.539,620.196 101.348,563.024 92.778,557.949 62.105,606.664 46.769,604.86 92.778,517.354 88.267,510.137 44.965,528.179 
					42.258,518.256 77.441,486.681 				"/>
				<polygon style="fill:#D9DADB;" points="747.233,465.03 735.505,492.996 701.224,498.409 698.518,548.928 716.561,621.098 
					728.288,620.196 716.899,572.158 729.078,571.82 748.135,622.902 762.569,621.098 744.639,569.451 757.156,567.083 781.514,622 
					799.556,620.196 774.748,563.024 783.318,557.949 813.99,606.664 829.326,604.86 783.318,517.354 787.829,510.137 
					831.131,528.179 833.837,518.256 798.654,486.681 				"/>
				<polygon style="fill:#D9DADB;" points="616.929,273.462 617.597,343.546 695.259,457.905 656.977,328.194 				"/>
				<polygon style="fill:#D9DADB;" points="673.664,236.752 658.312,302.831 716.618,486.384 727.888,477.523 720.178,402.728 
					713.058,354.671 				"/>
				<polygon style="fill:#D9DADB;" points="529.273,1476.61 512.752,1490.652 515.23,1512.955 548.796,1469.622 544.433,1464.481 
									"/>
				<polygon style="fill:#D9DADB;" points="543.776,1462.085 522.212,1454.863 514.71,1470.95 510.811,1486.516 512.176,1488.29 
									"/>
				<polygon style="fill:#D9DADB;" points="488.837,1486.914 488.837,1484.332 487.204,1476.932 477.237,1484.921 475.672,1494.251 
					476.827,1505.133 				"/>
				<polygon style="fill:#D9DADB;" points="345.265,1475.857 361.785,1489.9 359.307,1512.202 325.741,1468.869 330.105,1463.729 
									"/>
				<polygon style="fill:#D9DADB;" points="330.762,1461.333 352.325,1454.11 359.828,1470.197 363.727,1485.763 362.362,1487.538 
									"/>
				<polygon style="fill:#D9DADB;" points="385.7,1486.162 385.7,1483.58 387.334,1476.18 397.301,1484.168 398.865,1493.498 
					397.711,1504.381 				"/>
			</g>
			<polygon style="fill:#D9DADB;" points="286.532,624.549 334.59,598.518 408.679,579.829 423.363,537.779 422.028,430.317 
				395.997,394.941 348.607,394.274 278.523,453.011 277.855,484.027 264.385,547.821 268.511,606.194 			"/>
			<polygon style="fill:#D9DADB;" points="586.891,624.549 538.833,598.518 464.744,579.829 450.06,537.779 451.395,430.317 
				477.426,394.941 524.816,394.274 594.9,453.011 595.568,484.027 609.038,547.821 604.912,606.194 			"/>
			<polygon style="fill:#D9DADB;" points="336.592,619.21 326.58,784.074 342.6,858.83 311.229,948.938 277.855,790.748 
				294.542,631.224 			"/>
			<polygon style="fill:#D9DADB;" points="373.97,609.865 394.662,664.597 402.672,808.77 425.365,669.937 422.695,582.499 			"/>
			<polygon style="fill:#D9DADB;" points="358.618,615.205 333.922,782.071 361.955,922.903 400.001,1002.332 404.006,833.466 
				377.308,764.717 375.973,659.925 			"/>
			<polygon style="fill:#D9DADB;" points="277.855,729.533 286.631,633.611 264.385,617.848 264.385,644.125 			"/>
			<polygon style="fill:#D9DADB;" points="536.833,619.21 546.845,784.074 530.826,858.83 562.197,948.938 595.57,790.748 
				578.883,631.224 			"/>
			<polygon style="fill:#D9DADB;" points="515.548,615.205 540.244,782.071 512.211,922.903 474.165,1002.332 470.16,833.466 
				496.859,764.717 498.194,659.925 			"/>
			<polygon style="fill:#D9DADB;" points="499.455,609.865 478.763,664.597 470.754,808.77 448.06,669.937 450.73,582.499 			"/>
			<polygon style="fill:#D9DADB;" points="596.968,729.533 588.192,633.611 610.438,617.848 610.438,644.125 			"/>
			<polygon style="fill:#D9DADB;" points="363.63,1513.394 397.299,1511.203 382.133,1487.24 391.31,1439.714 371.288,1446.166 
				354.316,1444.467 367.27,1490.265 			"/>
			<polygon style="fill:#D9DADB;" points="510.496,1513.394 476.827,1511.203 491.993,1487.24 482.815,1439.714 502.838,1446.166 
				519.809,1444.467 506.856,1490.265 			"/>
			<polygon style="fill:#D9DADB;" points="361.303,968.427 365.64,1192.072 404.05,1235.438 422.635,1207.56 423.874,1147.467 
				407.147,1057.637 			"/>
			<polygon style="fill:#D9DADB;" points="349.533,955.417 347.055,1138.174 357.586,1207.56 339.62,1222.428 308.025,1157.999 
				316.079,1033.476 331.567,982.676 332.806,946.125 			"/>
			<polygon style="fill:#D9DADB;" points="362.542,1215.614 344.576,1231.721 371.835,1361.2 373.674,1439.714 391.755,1434.597 
				393.518,1362.438 406.528,1270.75 402.811,1249.687 			"/>
			<polygon style="fill:#D9DADB;" points="348.294,1306.063 365.02,1389.078 365.923,1407.517 369.285,1440.826 354.316,1439.714 
				346.07,1407.842 340.24,1373.59 340.24,1296.15 			"/>
			<polygon style="fill:#D9DADB;" points="513.666,968.427 509.33,1192.072 470.92,1235.438 452.334,1207.56 451.095,1147.467 
				467.822,1057.637 			"/>
			<polygon style="fill:#D9DADB;" points="525.437,955.417 527.915,1138.174 517.383,1207.56 535.349,1222.428 566.945,1157.999 
				558.891,1033.476 543.403,982.676 542.164,946.125 			"/>
			<polygon style="fill:#D9DADB;" points="511.583,1215.614 529.549,1231.721 502.29,1361.2 500.452,1439.714 482.37,1434.597 
				480.607,1362.438 467.598,1270.75 471.315,1249.687 			"/>
			<polygon style="fill:#D9DADB;" points="525.832,1306.063 509.105,1389.078 508.202,1407.517 504.84,1440.826 519.809,1439.714 
				528.055,1407.842 533.886,1373.59 533.886,1296.15 			"/>
		</g>
	</g>
</g>
<g id="Layer_1">
</g>
</svg>
