<?xml version="1.0" encoding="utf-8"?>
<!-- Generator: Adobe Illustrator 22.0.1, SVG Export Plug-In . SVG Version: 6.00 Build 0)  -->
<svg version="1.1" id="Layer_1" xmlns="http://www.w3.org/2000/svg" xmlns:xlink="http://www.w3.org/1999/xlink" x="0px" y="0px"
	 viewBox="0 0 875.4 877.8" style="enable-background:new 0 0 875.4 877.8;" xml:space="preserve">
<style type="text/css">
	.st0{clip-path:url(#SVGID_2_);fill:#F7F7F7;}
	.st1{clip-path:url(#SVGID_4_);}
	.st2{fill:#D9DADB;}
	.st3{clip-path:url(#SVGID_6_);fill:#D9DADB;}
	.st4{clip-path:url(#SVGID_8_);fill:#D9DADB;}
	.st5{clip-path:url(#SVGID_10_);fill:#D9DADB;}
	.st6{clip-path:url(#SVGID_12_);fill:#D9DADB;}
	.st7{clip-path:url(#SVGID_14_);fill:#D9DADB;}
	.st8{clip-path:url(#SVGID_16_);fill:#D9DADB;}
	.st9{clip-path:url(#SVGID_18_);fill:#D9DADB;}
	.st10{clip-path:url(#SVGID_20_);fill:#D9DADB;}
	.st11{clip-path:url(#SVGID_22_);fill:#D9DADB;}
	.st12{clip-path:url(#SVGID_24_);fill:#D9DADB;}
	.st13{clip-path:url(#SVGID_26_);fill:#E0AF12;}
	.st14{clip-path:url(#SVGID_28_);fill:#E0AF12;}
	.st15{clip-path:url(#SVGID_30_);fill:#E0AF12;}
	.st16{clip-path:url(#SVGID_32_);}
	.st17{fill:#E0AF12;}
	.st18{clip-path:url(#SVGID_34_);fill:#D9DADB;}
	.st19{clip-path:url(#SVGID_36_);fill:#D9DADB;}
	.st20{clip-path:url(#SVGID_38_);fill:#D9DADB;}
	.st21{clip-path:url(#SVGID_40_);fill:#D9DADB;}
	.st22{clip-path:url(#SVGID_42_);fill:#D9DADB;}
	.st23{clip-path:url(#SVGID_44_);fill:#D9DADB;}
	.st24{clip-path:url(#SVGID_46_);fill:#D9DADB;}
	.st25{clip-path:url(#SVGID_48_);fill:#D9DADB;}
	.st26{clip-path:url(#SVGID_50_);fill:#D9DADB;}
	.st27{clip-path:url(#SVGID_52_);fill:#D9DADB;}
	.st28{clip-path:url(#SVGID_54_);}
</style>
<g id="Front_Abs">
	<g>
		<g>
			<defs>
				<circle id="SVGID_1_" cx="437.3" cy="437.3" r="437.3"/>
			</defs>
			<clipPath id="SVGID_2_">
				<use xlink:href="#SVGID_1_"  style="overflow:visible;"/>
			</clipPath>
			<circle class="st0" cx="439" cy="437.3" r="437.3"/>
		</g>
		<g>
			<defs>
				<circle id="SVGID_3_" cx="437.3" cy="437.3" r="437.3"/>
			</defs>
			<clipPath id="SVGID_4_">
				<use xlink:href="#SVGID_3_"  style="overflow:visible;"/>
			</clipPath>
			<g class="st1">
				<polygon class="st2" points="387.8,-409.3 419.8,-360.9 435.6,-305.3 398.8,-334.6 384,-387.1 				"/>
				<polygon class="st2" points="372.5,-374 380.4,-337.3 334,-325.9 304.3,-336.4 				"/>
				<polygon class="st2" points="342.8,-312.8 306,-247.1 265.8,-227 290.3,-207.7 309.5,-151.7 354.1,-133.3 425.3,-168.5 
					407.5,-306.6 				"/>
				<path class="st2" d="M270.5-68.5c0.5-0.4,1.1-0.7,1.6-1L286.8-178l-28-40.3l-28.9,42l-24.5,147l2.2,19.7
					C227.4-30.4,248-50.5,270.5-68.5z"/>
				<path class="st2" d="M211.2,6c-0.5,0.6-1.1,1-1.7,1.3l3.7,32.6l51.6-55.1l4.8-35.6C248.9-33.2,229.7-14,211.2,6z"/>
				<polygon class="st2" points="216.7,55.7 144.8,249.9 167.7,255.2 243.9,98.6 257.9,11.1 				"/>
				<polygon class="st2" points="195.7,-19.6 206.2,54.8 137.8,237.5 127.2,230.5 153.6,89.5 				"/>
				<polygon class="st2" points="215.9,-183.2 202.7,-43.2 194,-147.3 				"/>
				<polygon class="st2" points="522.6,-521.3 522.6,-572.8 495.4,-619.7 437.3,-638.5 379.3,-619.7 352.1,-572.8 352.1,-521.3 
					339,-518.5 344.6,-473.5 366.2,-466 389.6,-417.3 437.6,-396.8 485.1,-417.3 508.5,-466 530.1,-473.5 535.7,-518.5 				"/>
				<polygon class="st2" points="114.9,235.3 126.4,262.6 159.9,267.9 162.5,317.3 144.9,387.8 133.4,386.9 144.6,340 132.7,339.6 
					114,389.5 99.9,387.8 117.5,337.3 105.2,335 81.4,388.7 63.8,386.9 88,331 79.7,326.1 49.7,373.7 34.7,371.9 79.7,286.4 
					75.3,279.4 33,297 30.3,287.3 64.7,256.5 				"/>
				<polygon class="st2" points="504,-374 496.2,-337.3 542.5,-325.9 572.3,-336.4 				"/>
				<polygon class="st2" points="533.8,-312.8 570.5,-247.1 610.8,-227 586.3,-207.7 567,-151.7 522.4,-133.3 451.3,-168.5 
					469,-306.6 				"/>
				<path class="st2" d="M606-68.5c-0.5-0.4-1.1-0.7-1.6-1L589.8-178l28-40.3l28.9,42l24.5,147l-2.2,19.7
					C649.2-30.4,628.6-50.5,606-68.5z"/>
				<path class="st2" d="M665.3,6c0.5,0.6,1.1,1,1.7,1.3L663.3,40l-51.6-55.1l-4.8-35.6C627.7-33.2,646.8-14,665.3,6z"/>
				<polygon class="st2" points="659.8,55.7 731.7,249.9 708.8,255.2 632.7,98.6 618.7,11.1 				"/>
				<polygon class="st2" points="680.8,-19.6 670.3,54.8 738.8,237.5 749.4,230.5 722.9,89.5 				"/>
				<polygon class="st2" points="660.7,-183.2 673.8,-43.2 682.6,-147.3 				"/>
				<polygon class="st2" points="761.6,235.3 750.2,262.6 716.7,267.9 714,317.3 731.7,387.8 743.1,386.9 732,340 743.9,339.6 
					762.5,389.5 776.6,387.8 759.1,337.3 771.3,335 795.1,388.7 812.7,386.9 788.5,331 796.9,326.1 826.8,373.7 841.8,371.9 
					796.9,286.4 801.3,279.4 843.6,297 846.2,287.3 811.9,256.5 				"/>
				<path class="st2" d="M588.6-332.1l16.1-8.7l50.4,55.7l0.3,21.2C655.3-263.8,589.6-331.6,588.6-332.1z"/>
				<path class="st2" d="M583.5-329.7c0,1.1,70.7,75.3,70.7,75.3l2.1,65.9l-24.5-42l-47.3-20.1l-33.3-61.3L583.5-329.7z"/>
				<path class="st2" d="M288-332.1l-16.1-8.7L221.5-285l-0.3,21.2C221.2-263.8,287-331.6,288-332.1z"/>
				<path class="st2" d="M293.1-329.7c0,1.1-70.7,75.3-70.7,75.3l-2.1,65.9l24.5-42l47.3-20.1l33.3-61.3L293.1-329.7z"/>
				<polygon class="st2" points="487.9,-409.3 456,-360.9 440.2,-305.3 477,-334.6 489.7,-388 				"/>
				<polygon class="st2" points="387.2,811.2 381,830.6 367.8,912.5 366,1021.8 384.5,1128.4 383.6,991.8 403,937.2 405.7,877.3 
									"/>
				<polygon class="st2" points="489.4,811.2 495.6,830.6 508.8,912.5 510.5,1021.8 492,1128.4 492.9,991.8 473.5,937.2 
					470.9,877.3 				"/>
			</g>
		</g>
		<g>
			<defs>
				<circle id="SVGID_5_" cx="437.3" cy="437.3" r="437.3"/>
			</defs>
			<clipPath id="SVGID_6_">
				<use xlink:href="#SVGID_5_"  style="overflow:visible;"/>
			</clipPath>
			<polygon class="st3" points="408,1188.9 405.7,1253.6 399.5,1279.1 381,1279.1 375.7,1261.5 369.5,1260.6 370.9,1278.2 
				347.5,1271.2 341.3,1267.7 314.9,1261.9 314,1241.2 339.6,1198.1 353.1,1181.1 381.9,1197.5 			"/>
		</g>
		<g>
			<defs>
				<circle id="SVGID_7_" cx="437.3" cy="437.3" r="437.3"/>
			</defs>
			<clipPath id="SVGID_8_">
				<use xlink:href="#SVGID_7_"  style="overflow:visible;"/>
			</clipPath>
			<polygon class="st4" points="467.9,1188.9 470.2,1253.6 476.4,1279.1 494.9,1279.1 500.2,1261.5 506.4,1260.6 505,1278.2 
				528.4,1271.2 534.6,1267.7 561,1261.9 561.9,1241.2 536.3,1198.1 522.8,1181.1 494,1197.5 			"/>
		</g>
		<g>
			<defs>
				<circle id="SVGID_9_" cx="437.3" cy="437.3" r="437.3"/>
			</defs>
			<clipPath id="SVGID_10_">
				<use xlink:href="#SVGID_9_"  style="overflow:visible;"/>
			</clipPath>
			<polygon class="st5" points="346.2,1140.7 345.2,1150.9 356.9,1173.8 381.3,1189.7 406.4,1181.5 398.5,1157.6 			"/>
		</g>
		<g>
			<defs>
				<circle id="SVGID_11_" cx="437.3" cy="437.3" r="437.3"/>
			</defs>
			<clipPath id="SVGID_12_">
				<use xlink:href="#SVGID_11_"  style="overflow:visible;"/>
			</clipPath>
			<polygon class="st6" points="529.7,1140.7 530.7,1150.9 519,1173.8 494.6,1189.7 469.5,1181.5 477.4,1157.6 			"/>
		</g>
		<g>
			<defs>
				<circle id="SVGID_13_" cx="437.3" cy="437.3" r="437.3"/>
			</defs>
			<clipPath id="SVGID_14_">
				<use xlink:href="#SVGID_13_"  style="overflow:visible;"/>
			</clipPath>
			<polygon class="st7" points="344.9,860.5 349.3,1024.5 381,1143.3 344.4,1132.2 282.3,909 304.3,764.5 			"/>
		</g>
		<g>
			<defs>
				<circle id="SVGID_15_" cx="437.3" cy="437.3" r="437.3"/>
			</defs>
			<clipPath id="SVGID_16_">
				<use xlink:href="#SVGID_15_"  style="overflow:visible;"/>
			</clipPath>
			<polygon class="st8" points="531,860.5 526.6,1024.5 494.9,1143.3 531.5,1132.2 593.6,909 571.6,764.5 			"/>
		</g>
		<g>
			<defs>
				<circle id="SVGID_17_" cx="437.3" cy="437.3" r="437.3"/>
			</defs>
			<clipPath id="SVGID_18_">
				<use xlink:href="#SVGID_17_"  style="overflow:visible;"/>
			</clipPath>
			<polygon class="st9" points="320.2,691.4 317.5,715.1 336.1,738.1 342.2,774.2 354.6,779.5 365.1,724.8 372.2,705.5 366,693.1 
							"/>
		</g>
		<g>
			<defs>
				<circle id="SVGID_19_" cx="437.3" cy="437.3" r="437.3"/>
			</defs>
			<clipPath id="SVGID_20_">
				<use xlink:href="#SVGID_19_"  style="overflow:visible;"/>
			</clipPath>
			<polygon class="st10" points="402.1,693.1 388.9,730.1 360.7,784.8 367.8,835 388,778.6 404.8,746.9 			"/>
		</g>
		<g>
			<defs>
				<circle id="SVGID_21_" cx="437.3" cy="437.3" r="437.3"/>
			</defs>
			<clipPath id="SVGID_22_">
				<use xlink:href="#SVGID_21_"  style="overflow:visible;"/>
			</clipPath>
			<polygon class="st11" points="556.4,691.4 559,715.1 540.5,738.1 534.3,774.2 522,779.5 511.4,724.8 504.4,705.5 510.5,693.1 			
				"/>
		</g>
		<g>
			<defs>
				<circle id="SVGID_23_" cx="437.3" cy="437.3" r="437.3"/>
			</defs>
			<clipPath id="SVGID_24_">
				<use xlink:href="#SVGID_23_"  style="overflow:visible;"/>
			</clipPath>
			<polygon class="st12" points="474.4,693.1 487.6,730.1 515.8,784.8 508.8,835 488.5,778.6 471.8,746.9 			"/>
		</g>
		<g>
			<defs>
				<circle id="SVGID_25_" cx="437.3" cy="437.3" r="437.3"/>
			</defs>
			<clipPath id="SVGID_26_">
				<use xlink:href="#SVGID_25_"  style="overflow:visible;"/>
			</clipPath>
			<polygon class="st13" points="301.5,252.3 359.4,379.8 372.6,483.1 347.9,628.4 294.4,480.5 291.1,328.2 300.8,252.4 			"/>
		</g>
		<g>
			<defs>
				<circle id="SVGID_27_" cx="437.3" cy="437.3" r="437.3"/>
			</defs>
			<clipPath id="SVGID_28_">
				<use xlink:href="#SVGID_27_"  style="overflow:visible;"/>
			</clipPath>
			<polygon class="st14" points="294.1,524.7 286.7,489.2 337.7,629.3 330,649.1 307.3,588.1 			"/>
		</g>
		<g>
			<defs>
				<circle id="SVGID_29_" cx="437.3" cy="437.3" r="437.3"/>
			</defs>
			<clipPath id="SVGID_30_">
				<use xlink:href="#SVGID_29_"  style="overflow:visible;"/>
			</clipPath>
			<polygon class="st15" points="375.2,437.3 376.6,440.6 402.3,502.1 385.7,654.4 359.5,640.4 382.2,498.6 			"/>
		</g>
		<g>
			<defs>
				<circle id="SVGID_31_" cx="437.3" cy="437.3" r="437.3"/>
			</defs>
			<clipPath id="SVGID_32_">
				<use xlink:href="#SVGID_31_"  style="overflow:visible;"/>
			</clipPath>
			<g class="st16">
				<polygon class="st17" points="501.3,437.3 500,440.6 474.2,502.1 490.8,654.4 517.1,640.4 494.3,498.6 				"/>
				<polygon class="st17" points="574.7,254.3 516.8,381.8 503.6,485.1 528.3,630.4 581.8,482.5 585.1,330.2 575.4,254.4 				"/>
				<polygon class="st17" points="582.1,526.7 589.5,491.2 538.5,631.3 546.2,651.1 568.9,590.1 				"/>
			</g>
		</g>
		<g>
			<defs>
				<circle id="SVGID_33_" cx="437.3" cy="437.3" r="437.3"/>
			</defs>
			<clipPath id="SVGID_34_">
				<use xlink:href="#SVGID_33_"  style="overflow:visible;"/>
			</clipPath>
			<polygon class="st18" points="286.4,138.3 255.7,250.4 270.8,252.9 300.4,246.3 340.7,242.5 360.8,217.7 350.9,193 326.4,185.6 
							"/>
		</g>
		<g>
			<defs>
				<circle id="SVGID_35_" cx="437.3" cy="437.3" r="437.3"/>
			</defs>
			<clipPath id="SVGID_36_">
				<use xlink:href="#SVGID_35_"  style="overflow:visible;"/>
			</clipPath>
			<polygon class="st19" points="589.8,140.3 620.5,252.4 605.4,254.9 575.8,248.3 535.5,244.5 515.4,219.7 525.3,195 549.8,187.6 
							"/>
		</g>
		<g>
			<defs>
				<circle id="SVGID_37_" cx="437.3" cy="437.3" r="437.3"/>
			</defs>
			<clipPath id="SVGID_38_">
				<use xlink:href="#SVGID_37_"  style="overflow:visible;"/>
			</clipPath>
			<polygon class="st20" points="343.5,248.3 310.8,251.2 368.8,365.6 408.3,488.1 404.2,403.2 			"/>
		</g>
		<g>
			<defs>
				<circle id="SVGID_39_" cx="437.3" cy="437.3" r="437.3"/>
			</defs>
			<clipPath id="SVGID_40_">
				<use xlink:href="#SVGID_39_"  style="overflow:visible;"/>
			</clipPath>
			<polygon class="st21" points="407.7,273 408.2,272.4 405,264.4 366.7,222.4 353.6,240.6 377.9,303.2 			"/>
		</g>
		<g>
			<defs>
				<circle id="SVGID_41_" cx="437.3" cy="437.3" r="437.3"/>
			</defs>
			<clipPath id="SVGID_42_">
				<use xlink:href="#SVGID_41_"  style="overflow:visible;"/>
			</clipPath>
			<polygon class="st22" points="382.8,315.8 409.9,385.7 419,299.9 413.6,286.3 			"/>
		</g>
		<g>
			<defs>
				<circle id="SVGID_43_" cx="437.3" cy="437.3" r="437.3"/>
			</defs>
			<clipPath id="SVGID_44_">
				<use xlink:href="#SVGID_43_"  style="overflow:visible;"/>
			</clipPath>
			<polygon class="st23" points="493.8,315.8 466.6,385.7 457.6,299.9 462.9,286.3 			"/>
		</g>
		<g>
			<defs>
				<circle id="SVGID_45_" cx="437.3" cy="437.3" r="437.3"/>
			</defs>
			<clipPath id="SVGID_46_">
				<use xlink:href="#SVGID_45_"  style="overflow:visible;"/>
			</clipPath>
			<polygon class="st24" points="532.7,250.3 565.5,253.2 507.5,367.6 468,490.1 472.1,405.2 			"/>
		</g>
		<g>
			<defs>
				<circle id="SVGID_47_" cx="437.3" cy="437.3" r="437.3"/>
			</defs>
			<clipPath id="SVGID_48_">
				<use xlink:href="#SVGID_47_"  style="overflow:visible;"/>
			</clipPath>
			<polygon class="st25" points="468.5,275 468,274.4 471.2,266.4 509.5,224.4 522.6,242.6 498.3,305.2 			"/>
		</g>
		<g>
			<defs>
				<circle id="SVGID_49_" cx="437.3" cy="437.3" r="437.3"/>
			</defs>
			<clipPath id="SVGID_50_">
				<use xlink:href="#SVGID_49_"  style="overflow:visible;"/>
			</clipPath>
			<polygon class="st26" points="269.4,261.3 289.6,255.2 281.9,320.5 280.7,488.1 307.2,617.1 306.9,678.2 314.9,752.3 
				304.6,748.4 293.7,773.9 294.1,603 268.9,488.1 251.9,257.9 			"/>
		</g>
		<g>
			<defs>
				<circle id="SVGID_51_" cx="437.3" cy="437.3" r="437.3"/>
			</defs>
			<clipPath id="SVGID_52_">
				<use xlink:href="#SVGID_51_"  style="overflow:visible;"/>
			</clipPath>
			<polygon class="st27" points="606.8,263.3 586.7,257.2 594.3,322.5 595.5,490.1 569,619.1 569.3,680.2 561.4,754.3 571.7,750.4 
				582.5,775.9 582.1,605 607.4,490.1 624.3,259.9 			"/>
		</g>
		<g>
			<defs>
				<circle id="SVGID_53_" cx="437.3" cy="437.3" r="437.3"/>
			</defs>
			<clipPath id="SVGID_54_">
				<use xlink:href="#SVGID_53_"  style="overflow:visible;"/>
			</clipPath>
			<g class="st28">
				<polygon class="st2" points="324,-85.6 351.5,-70.3 348.3,-106.5 				"/>
				<polygon class="st2" points="346.4,-120.2 293.8,-142.1 313.6,-88.7 				"/>
				<polygon class="st2" points="313.9,-83.5 349.8,-61.6 355.9,-17.8 320.9,-40.6 				"/>
				<polygon class="st2" points="322.6,-30.1 354.1,-8.2 358.5,36.5 323.5,8.4 				"/>
				<polygon class="st2" points="357.6,60.2 319.1,31.3 315.8,70.1 288.5,120.3 330.5,178.2 352.4,181.7 360.3,99.5 				"/>
				<polygon class="st2" points="552.5,-85.6 525,-70.3 528.2,-106.5 				"/>
				<polygon class="st2" points="530.2,-120.2 582.8,-142.1 563,-88.7 				"/>
				<polygon class="st2" points="562.7,-83.5 526.8,-61.6 520.7,-17.8 555.7,-40.6 				"/>
				<polygon class="st2" points="553.9,-30.1 522.4,-8.2 518,36.5 553,8.4 				"/>
				<polygon class="st2" points="518.9,60.2 557.4,31.3 560.8,70.1 588.1,120.3 546,178.2 524.2,181.7 516.3,99.5 				"/>
				<g>
					<polygon class="st2" points="365.1,-120.9 431.2,-150.6 429.2,-102.4 369.8,-72 					"/>
					<polygon class="st2" points="375.7,-60.1 377,-25.7 425.9,-36.3 428.6,-83.2 					"/>
					<polygon class="st2" points="433.9,276.3 421,151.2 420.7,69.7 374.3,47 369,195.7 					"/>
					<polygon class="st2" points="379,-9.2 378.3,33.1 425.3,45.6 425.9,-20.4 					"/>
					<polygon class="st2" points="511.4,-120.9 445.3,-150.6 447.3,-102.4 506.8,-72 					"/>
					<polygon class="st2" points="500.9,-60.1 499.5,-25.7 450.6,-36.3 448,-83.2 					"/>
					<polygon class="st2" points="442.7,276.3 455.6,151.2 455.9,69.7 502.3,47 507.5,195.7 					"/>
					<polygon class="st2" points="497.5,-9.2 498.2,33.1 451.3,45.6 450.6,-20.4 					"/>
				</g>
			</g>
		</g>
	</g>
</g>
<g id="Layer_1_1_">
</g>
</svg>
