<?xml version="1.0" encoding="iso-8859-1"?>
<!-- Generator: Adobe Illustrator 22.0.1, SVG Export Plug-In . SVG Version: 6.00 Build 0)  -->
<svg version="1.1" id="Layer_1" xmlns="http://www.w3.org/2000/svg" xmlns:xlink="http://www.w3.org/1999/xlink" x="0px" y="0px"
	 viewBox="0 0 466.536 467.834" style="enable-background:new 0 0 466.536 467.834;" xml:space="preserve">
<g id="Front_Left_Ankle">
	<g>
		<g>
			<defs>
				<circle id="SVGID_1_" cx="233.192" cy="232.917" r="232.917"/>
			</defs>
			<clipPath id="SVGID_2_">
				<use xlink:href="#SVGID_1_"  style="overflow:visible;"/>
			</clipPath>
			<circle style="clip-path:url(#SVGID_2_);fill:#F7F7F7;" cx="189.756" cy="182.02" r="390.295"/>
		</g>
		<g>
			<defs>
				<circle id="SVGID_3_" cx="233.192" cy="232.917" r="232.917"/>
			</defs>
			<clipPath id="SVGID_4_">
				<use xlink:href="#SVGID_3_"  style="overflow:visible;"/>
			</clipPath>
			<g style="clip-path:url(#SVGID_4_);">
				<polygon style="fill:#D9DADB;" points="185.882,-1315.755 217.818,-1267.361 233.609,-1211.76 196.813,-1241.105 
					182.045,-1293.584 				"/>
				<polygon style="fill:#D9DADB;" points="170.565,-1280.49 178.442,-1243.731 132.055,-1232.353 102.298,-1242.855 				"/>
				<polygon style="fill:#D9DADB;" points="140.807,-1219.224 104.048,-1153.583 63.788,-1133.453 88.294,-1114.198 
					107.549,-1058.184 152.185,-1039.805 223.311,-1074.952 205.574,-1213.098 				"/>
				<path style="fill:#D9DADB;" d="M68.584-974.942c0.524-0.417,1.069-0.713,1.62-0.956l14.589-108.544l-28.007-40.26l-28.882,42.01
					L3.398-935.654l2.248,19.737C25.399-936.889,46.007-956.979,68.584-974.942z"/>
				<path style="fill:#D9DADB;" d="M9.251-900.465c-0.537,0.579-1.111,0.985-1.694,1.313l3.718,32.64l51.638-55.138l4.78-35.561
					C46.926-939.667,27.746-920.415,9.251-900.465z"/>
				<polygon style="fill:#D9DADB;" points="14.776,-850.758 -57.135,-656.596 -34.223,-651.309 41.908,-807.872 55.911,-895.394 
									"/>
				<polygon style="fill:#D9DADB;" points="-6.229,-926.027 4.273,-851.633 -64.184,-668.933 -74.759,-675.983 -48.323,-816.977 
									"/>
				<polygon style="fill:#D9DADB;" points="13.901,-1089.692 0.773,-949.657 -7.98,-1053.808 				"/>
				<polygon style="fill:#D9DADB;" points="320.616,-1427.765 320.616,-1479.283 293.452,-1526.117 235.348,-1544.983 
					177.303,-1526.117 150.138,-1479.283 150.138,-1427.765 137.025,-1424.955 142.645,-1379.993 164.189,-1372.5 
					187.606,-1323.792 235.604,-1303.286 283.149,-1323.792 306.566,-1372.5 328.11,-1379.993 333.73,-1424.955 				"/>
				<polygon style="fill:#D9DADB;" points="-87.04,-671.14 -75.585,-643.823 -42.099,-638.535 -39.455,-589.187 -57.079,-518.69 
					-68.535,-519.572 -57.41,-566.496 -69.306,-566.827 -87.922,-516.928 -102.021,-518.69 -84.507,-569.14 -96.734,-571.453 
					-120.527,-517.809 -138.151,-519.572 -113.917,-575.419 -122.289,-580.375 -152.25,-532.79 -167.231,-534.552 -122.289,-620.03 
					-126.695,-627.08 -168.993,-609.455 -171.637,-619.149 -137.27,-649.991 				"/>
				<polygon style="fill:#D9DADB;" points="302.066,-1280.49 294.189,-1243.731 340.576,-1232.353 370.333,-1242.855 				"/>
				<polygon style="fill:#D9DADB;" points="331.823,-1219.224 368.583,-1153.583 408.843,-1133.453 384.336,-1114.198 
					365.082,-1058.184 320.446,-1039.805 249.32,-1074.952 267.057,-1213.098 				"/>
				<path style="fill:#D9DADB;" d="M404.047-974.942c-0.524-0.417-1.069-0.713-1.62-0.956l-14.589-108.544l28.007-40.26
					l28.882,42.01l24.506,147.037l-2.249,19.737C447.232-936.889,426.624-956.979,404.047-974.942z"/>
				<path style="fill:#D9DADB;" d="M463.38-900.465c0.537,0.579,1.111,0.985,1.694,1.313l-3.718,32.64l-51.638-55.138l-4.78-35.561
					C425.704-939.667,444.885-920.415,463.38-900.465z"/>
				<polygon style="fill:#D9DADB;" points="457.855,-850.758 529.766,-656.596 506.854,-651.309 430.723,-807.872 416.719,-895.394 
									"/>
				<polygon style="fill:#D9DADB;" points="478.86,-926.027 468.357,-851.633 536.815,-668.933 547.39,-675.983 520.953,-816.977 
									"/>
				<polygon style="fill:#D9DADB;" points="458.73,-1089.692 471.858,-949.657 480.61,-1053.808 				"/>
				<polygon style="fill:#D9DADB;" points="559.671,-671.14 548.216,-643.823 514.729,-638.535 512.086,-589.187 529.71,-518.69 
					541.166,-519.572 530.041,-566.496 541.937,-566.827 560.553,-516.928 574.652,-518.69 557.138,-569.14 569.365,-571.453 
					593.157,-517.809 610.782,-519.572 586.548,-575.419 594.92,-580.375 624.881,-532.79 639.862,-534.552 594.92,-620.03 
					599.326,-627.08 641.624,-609.455 644.268,-619.149 609.9,-649.991 				"/>
				<path style="fill:#D9DADB;" d="M386.618-1238.523l16.098-8.708l50.384,55.739l0.276,21.223
					C453.376-1170.27,387.589-1238.029,386.618-1238.523z"/>
				<path style="fill:#D9DADB;" d="M381.502-1236.214c-0.027,1.112,70.717,75.344,70.717,75.344l2.135,65.927l-24.506-42.011
					l-47.262-20.13l-33.258-61.265L381.502-1236.214z"/>
				<path style="fill:#D9DADB;" d="M86.013-1238.523l-16.098-8.708l-50.384,55.739l-0.276,21.223
					C19.255-1170.27,85.042-1238.029,86.013-1238.523z"/>
				<path style="fill:#D9DADB;" d="M91.129-1236.214c0.028,1.112-70.717,75.344-70.717,75.344l-2.135,65.927l24.506-42.011
					l47.262-20.13l33.258-61.265L91.129-1236.214z"/>
				<polygon style="fill:#D9DADB;" points="285.934,-1315.755 253.998,-1267.361 238.208,-1211.76 275.004,-1241.105 
					287.782,-1294.437 				"/>
				<polygon style="fill:#D9DADB;" points="185.2,-95.268 179.031,-75.881 165.813,6.071 164.05,115.342 182.556,221.968 
					181.675,85.38 201.061,30.745 203.705,-29.177 				"/>
				<polygon style="fill:#D9DADB;" points="287.431,-95.268 293.6,-75.881 306.818,6.071 308.58,115.342 290.075,221.968 
					290.956,85.38 271.57,30.745 268.926,-29.177 				"/>
			</g>
		</g>
		<g>
			<defs>
				<circle id="SVGID_5_" cx="233.192" cy="232.917" r="232.917"/>
			</defs>
			<clipPath id="SVGID_6_">
				<use xlink:href="#SVGID_5_"  style="overflow:visible;"/>
			</clipPath>
			<polygon style="clip-path:url(#SVGID_6_);fill:#D9DADB;" points="206.043,282.412 203.705,347.101 197.536,372.656 
				179.031,372.656 173.744,355.031 167.575,354.15 168.897,371.775 145.545,364.725 139.376,361.2 112.94,355.472 112.059,334.764 
				137.614,291.584 151.165,274.646 179.925,291.007 			"/>
		</g>
		<g>
			<defs>
				<circle id="SVGID_7_" cx="233.192" cy="232.917" r="232.917"/>
			</defs>
			<clipPath id="SVGID_8_">
				<use xlink:href="#SVGID_7_"  style="overflow:visible;"/>
			</clipPath>
			<polygon style="clip-path:url(#SVGID_8_);fill:#D9DADB;" points="265.926,282.412 268.264,347.101 274.433,372.656 
				292.938,372.656 298.225,355.031 304.394,354.15 303.072,371.775 326.424,364.725 332.593,361.2 359.029,355.472 359.91,334.764 
				334.355,291.584 320.805,274.646 292.044,291.007 			"/>
		</g>
		<g>
			<defs>
				<circle id="SVGID_9_" cx="233.192" cy="232.917" r="232.917"/>
			</defs>
			<clipPath id="SVGID_10_">
				<use xlink:href="#SVGID_9_"  style="overflow:visible;"/>
			</clipPath>
			<polygon style="clip-path:url(#SVGID_10_);fill:#E0AF12;" points="144.257,234.205 143.262,244.409 154.958,267.304 
				179.347,283.231 204.398,275.019 196.518,251.155 			"/>
		</g>
		<g>
			<defs>
				<circle id="SVGID_11_" cx="233.192" cy="232.917" r="232.917"/>
			</defs>
			<clipPath id="SVGID_12_">
				<use xlink:href="#SVGID_11_"  style="overflow:visible;"/>
			</clipPath>
			<polygon style="clip-path:url(#SVGID_12_);fill:#D9DADB;" points="327.712,234.205 328.707,244.409 317.011,267.304 
				292.622,283.231 267.571,275.019 275.451,251.155 			"/>
		</g>
		<g>
			<defs>
				<circle id="SVGID_13_" cx="233.192" cy="232.917" r="232.917"/>
			</defs>
			<clipPath id="SVGID_14_">
				<use xlink:href="#SVGID_13_"  style="overflow:visible;"/>
			</clipPath>
			<polygon style="clip-path:url(#SVGID_14_);fill:#D9DADB;" points="142.901,-45.92 147.307,117.985 179.012,236.876 
				142.443,225.708 80.335,2.547 102.366,-141.972 			"/>
		</g>
		<g>
			<defs>
				<circle id="SVGID_15_" cx="233.192" cy="232.917" r="232.917"/>
			</defs>
			<clipPath id="SVGID_16_">
				<use xlink:href="#SVGID_15_"  style="overflow:visible;"/>
			</clipPath>
			<polygon style="clip-path:url(#SVGID_16_);fill:#D9DADB;" points="329.068,-45.92 324.662,117.985 292.958,236.876 
				329.526,225.708 391.634,2.547 369.603,-141.972 			"/>
		</g>
		<g>
			<defs>
				<circle id="SVGID_17_" cx="233.192" cy="232.917" r="232.917"/>
			</defs>
			<clipPath id="SVGID_18_">
				<use xlink:href="#SVGID_17_"  style="overflow:visible;"/>
			</clipPath>
			<g style="clip-path:url(#SVGID_18_);">
				<polygon style="fill:#D9DADB;" points="118.227,-215.113 115.584,-191.32 134.089,-168.409 140.258,-132.279 152.595,-126.992 
					163.169,-181.627 170.219,-201.014 164.05,-213.351 				"/>
				<polygon style="fill:#D9DADB;" points="200.18,-213.351 186.962,-176.34 158.763,-121.704 165.813,-71.475 186.081,-127.873 
					202.824,-159.597 				"/>
			</g>
		</g>
		<g>
			<defs>
				<circle id="SVGID_19_" cx="233.192" cy="232.917" r="232.917"/>
			</defs>
			<clipPath id="SVGID_20_">
				<use xlink:href="#SVGID_19_"  style="overflow:visible;"/>
			</clipPath>
			<polygon style="clip-path:url(#SVGID_20_);fill:#D9DADB;" points="354.404,-215.113 357.047,-191.32 338.542,-168.409 
				332.373,-132.279 320.036,-126.992 309.462,-181.627 302.412,-201.014 308.58,-213.351 			"/>
		</g>
		<g>
			<defs>
				<circle id="SVGID_21_" cx="233.192" cy="232.917" r="232.917"/>
			</defs>
			<clipPath id="SVGID_22_">
				<use xlink:href="#SVGID_21_"  style="overflow:visible;"/>
			</clipPath>
			<polygon style="clip-path:url(#SVGID_22_);fill:#D9DADB;" points="272.451,-213.351 285.669,-176.34 313.868,-121.704 
				306.818,-71.475 286.55,-127.873 269.807,-159.597 			"/>
		</g>
		<g>
			<defs>
				<circle id="SVGID_23_" cx="233.192" cy="232.917" r="232.917"/>
			</defs>
			<clipPath id="SVGID_24_">
				<use xlink:href="#SVGID_23_"  style="overflow:visible;"/>
			</clipPath>
			<polygon style="clip-path:url(#SVGID_24_);fill:#D9DADB;" points="99.524,-654.159 157.449,-526.641 170.619,-423.365 
				145.925,-278.079 92.422,-425.991 89.129,-578.279 98.849,-654.067 			"/>
		</g>
		<g>
			<defs>
				<circle id="SVGID_25_" cx="233.192" cy="232.917" r="232.917"/>
			</defs>
			<clipPath id="SVGID_26_">
				<use xlink:href="#SVGID_25_"  style="overflow:visible;"/>
			</clipPath>
			<polygon style="clip-path:url(#SVGID_26_);fill:#D9DADB;" points="92.129,-381.766 84.721,-417.239 135.755,-277.204 
				128.054,-257.38 105.367,-318.383 			"/>
		</g>
		<g>
			<defs>
				<circle id="SVGID_27_" cx="233.192" cy="232.917" r="232.917"/>
			</defs>
			<clipPath id="SVGID_28_">
				<use xlink:href="#SVGID_27_"  style="overflow:visible;"/>
			</clipPath>
			<polygon style="clip-path:url(#SVGID_28_);fill:#D9DADB;" points="173.245,-469.126 174.619,-465.848 200.377,-404.36 
				183.748,-252.072 157.491,-266.076 180.247,-407.861 			"/>
		</g>
		<g>
			<defs>
				<circle id="SVGID_29_" cx="233.192" cy="232.917" r="232.917"/>
			</defs>
			<clipPath id="SVGID_30_">
				<use xlink:href="#SVGID_29_"  style="overflow:visible;"/>
			</clipPath>
			<polygon style="clip-path:url(#SVGID_30_);fill:#D9DADB;" points="299.386,-469.126 298.012,-465.848 272.254,-404.36 
				288.883,-252.072 315.14,-266.076 292.384,-407.861 			"/>
		</g>
		<g>
			<defs>
				<circle id="SVGID_31_" cx="233.192" cy="232.917" r="232.917"/>
			</defs>
			<clipPath id="SVGID_32_">
				<use xlink:href="#SVGID_31_"  style="overflow:visible;"/>
			</clipPath>
			<polygon style="clip-path:url(#SVGID_32_);fill:#D9DADB;" points="372.77,-652.159 314.845,-524.641 301.675,-421.365 
				326.369,-276.079 379.872,-423.991 383.165,-576.279 373.445,-652.067 			"/>
		</g>
		<g>
			<defs>
				<circle id="SVGID_33_" cx="233.192" cy="232.917" r="232.917"/>
			</defs>
			<clipPath id="SVGID_34_">
				<use xlink:href="#SVGID_33_"  style="overflow:visible;"/>
			</clipPath>
			<polygon style="clip-path:url(#SVGID_34_);fill:#D9DADB;" points="380.165,-379.766 387.573,-415.239 336.539,-275.204 
				344.24,-255.38 366.927,-316.383 			"/>
		</g>
		<g>
			<defs>
				<circle id="SVGID_35_" cx="233.192" cy="232.917" r="232.917"/>
			</defs>
			<clipPath id="SVGID_36_">
				<use xlink:href="#SVGID_35_"  style="overflow:visible;"/>
			</clipPath>
			<polygon style="clip-path:url(#SVGID_36_);fill:#D9DADB;" points="84.45,-768.134 53.779,-656.036 68.845,-653.584 
				98.473,-660.198 138.739,-663.947 158.883,-688.775 148.979,-713.509 124.411,-720.879 			"/>
		</g>
		<g>
			<defs>
				<circle id="SVGID_37_" cx="233.192" cy="232.917" r="232.917"/>
			</defs>
			<clipPath id="SVGID_38_">
				<use xlink:href="#SVGID_37_"  style="overflow:visible;"/>
			</clipPath>
			<polygon style="clip-path:url(#SVGID_38_);fill:#D9DADB;" points="387.843,-766.134 418.515,-654.036 403.448,-651.584 
				373.82,-658.198 333.555,-661.947 313.411,-686.775 323.315,-711.509 347.883,-718.879 			"/>
		</g>
		<g>
			<defs>
				<circle id="SVGID_39_" cx="233.192" cy="232.917" r="232.917"/>
			</defs>
			<clipPath id="SVGID_40_">
				<use xlink:href="#SVGID_39_"  style="overflow:visible;"/>
			</clipPath>
			<polygon style="clip-path:url(#SVGID_40_);fill:#D9DADB;" points="141.562,-658.192 108.801,-655.298 166.795,-540.894 
				206.305,-418.364 202.19,-503.26 			"/>
		</g>
		<g>
			<defs>
				<circle id="SVGID_41_" cx="233.192" cy="232.917" r="232.917"/>
			</defs>
			<clipPath id="SVGID_42_">
				<use xlink:href="#SVGID_41_"  style="overflow:visible;"/>
			</clipPath>
			<polygon style="clip-path:url(#SVGID_42_);fill:#D9DADB;" points="205.735,-633.429 206.205,-634.019 203.046,-642.056 
				164.706,-684.032 151.653,-665.864 175.959,-603.219 			"/>
		</g>
		<g>
			<defs>
				<circle id="SVGID_43_" cx="233.192" cy="232.917" r="232.917"/>
			</defs>
			<clipPath id="SVGID_44_">
				<use xlink:href="#SVGID_43_"  style="overflow:visible;"/>
			</clipPath>
			<polygon style="clip-path:url(#SVGID_44_);fill:#D9DADB;" points="180.827,-590.672 207.952,-520.764 217.006,-606.536 
				211.652,-620.159 			"/>
		</g>
		<g>
			<defs>
				<circle id="SVGID_45_" cx="233.192" cy="232.917" r="232.917"/>
			</defs>
			<clipPath id="SVGID_46_">
				<use xlink:href="#SVGID_45_"  style="overflow:visible;"/>
			</clipPath>
			<polygon style="clip-path:url(#SVGID_46_);fill:#D9DADB;" points="291.804,-590.672 264.679,-520.764 255.625,-606.536 
				260.979,-620.159 			"/>
		</g>
		<g>
			<defs>
				<circle id="SVGID_47_" cx="233.192" cy="232.917" r="232.917"/>
			</defs>
			<clipPath id="SVGID_48_">
				<use xlink:href="#SVGID_47_"  style="overflow:visible;"/>
			</clipPath>
			<polygon style="clip-path:url(#SVGID_48_);fill:#D9DADB;" points="330.732,-656.192 363.493,-653.298 305.498,-538.894 
				265.988,-416.364 270.104,-501.26 			"/>
		</g>
		<g>
			<defs>
				<circle id="SVGID_49_" cx="233.192" cy="232.917" r="232.917"/>
			</defs>
			<clipPath id="SVGID_50_">
				<use xlink:href="#SVGID_49_"  style="overflow:visible;"/>
			</clipPath>
			<polygon style="clip-path:url(#SVGID_50_);fill:#D9DADB;" points="266.559,-631.429 266.089,-632.019 269.248,-640.056 
				307.588,-682.032 320.641,-663.864 296.335,-601.219 			"/>
		</g>
		<g>
			<defs>
				<circle id="SVGID_51_" cx="233.192" cy="232.917" r="232.917"/>
			</defs>
			<clipPath id="SVGID_52_">
				<use xlink:href="#SVGID_51_"  style="overflow:visible;"/>
			</clipPath>
			<polygon style="clip-path:url(#SVGID_52_);fill:#D9DADB;" points="67.429,-645.187 87.598,-651.309 79.944,-585.968 
				78.718,-418.364 105.252,-289.401 104.958,-228.263 112.895,-154.191 102.594,-158.018 91.731,-132.573 92.171,-303.504 
				66.901,-418.364 49.911,-648.546 			"/>
		</g>
		<g>
			<defs>
				<circle id="SVGID_53_" cx="233.192" cy="232.917" r="232.917"/>
			</defs>
			<clipPath id="SVGID_54_">
				<use xlink:href="#SVGID_53_"  style="overflow:visible;"/>
			</clipPath>
			<polygon style="clip-path:url(#SVGID_54_);fill:#D9DADB;" points="404.864,-643.187 384.696,-649.309 392.35,-583.968 
				393.576,-416.364 367.042,-287.401 367.335,-226.263 359.399,-152.191 369.7,-156.018 380.563,-130.573 380.123,-301.504 
				405.393,-416.364 422.382,-646.546 			"/>
		</g>
		<g>
			<defs>
				<circle id="SVGID_55_" cx="233.192" cy="232.917" r="232.917"/>
			</defs>
			<clipPath id="SVGID_56_">
				<use xlink:href="#SVGID_55_"  style="overflow:visible;"/>
			</clipPath>
			<g style="clip-path:url(#SVGID_56_);">
				<polygon style="fill:#D9DADB;" points="122.085,-992.053 149.56,-976.789 146.387,-1012.96 				"/>
				<polygon style="fill:#D9DADB;" points="144.443,-1026.706 91.795,-1048.557 111.617,-995.202 				"/>
				<polygon style="fill:#D9DADB;" points="111.925,-989.936 147.809,-968.055 153.936,-924.294 118.927,-947.05 				"/>
				<polygon style="fill:#D9DADB;" points="120.677,-936.529 152.185,-914.649 156.561,-870.013 121.553,-898.02 				"/>
				<polygon style="fill:#D9DADB;" points="155.674,-846.286 117.165,-875.168 113.821,-836.364 86.503,-786.135 128.554,-728.227 
					150.435,-724.726 158.312,-806.997 				"/>
				<polygon style="fill:#D9DADB;" points="350.546,-992.053 323.071,-976.789 326.244,-1012.96 				"/>
				<polygon style="fill:#D9DADB;" points="328.188,-1026.706 380.836,-1048.557 361.013,-995.202 				"/>
				<polygon style="fill:#D9DADB;" points="360.706,-989.936 324.822,-968.055 318.695,-924.294 353.704,-947.05 				"/>
				<polygon style="fill:#D9DADB;" points="351.953,-936.529 320.446,-914.649 316.07,-870.013 351.078,-898.02 				"/>
				<polygon style="fill:#D9DADB;" points="316.957,-846.286 355.466,-875.168 358.81,-836.364 386.128,-786.135 344.076,-728.227 
					322.196,-724.726 314.319,-806.997 				"/>
				<g>
					<polygon style="fill:#D9DADB;" points="163.168,-1027.367 229.259,-1057.108 227.277,-1008.861 167.795,-978.459 					"/>
					<polygon style="fill:#D9DADB;" points="173.743,-966.563 175.065,-932.196 223.972,-942.77 226.616,-989.695 					"/>
					<polygon style="fill:#D9DADB;" points="231.903,-630.16 219.026,-755.288 218.702,-836.754 172.315,-859.51 167.064,-710.723 
											"/>
					<polygon style="fill:#D9DADB;" points="177.048,-915.673 176.387,-873.375 223.311,-860.817 223.972,-926.908 					"/>
					<polygon style="fill:#D9DADB;" points="309.462,-1027.367 243.372,-1057.108 245.354,-1008.861 304.836,-978.459 					"/>
					<polygon style="fill:#D9DADB;" points="298.888,-966.563 297.566,-932.196 248.659,-942.77 246.015,-989.695 					"/>
					<polygon style="fill:#D9DADB;" points="240.728,-630.16 253.605,-755.288 253.929,-836.754 300.316,-859.51 305.567,-710.723 
											"/>
					<polygon style="fill:#D9DADB;" points="295.583,-915.673 296.244,-873.375 249.32,-860.817 248.659,-926.908 					"/>
				</g>
			</g>
		</g>
	</g>
</g>
<g id="Layer_1_1_">
</g>
</svg>
