<svg xmlns="http://www.w3.org/2000/svg" xmlns:xlink="http://www.w3.org/1999/xlink" viewBox="0 0 874.68 861.07"><defs><style>.cls-1{fill:none;}.cls-2{clip-path:url(#clip-path);}.cls-3{fill:#f7f7f7;}.cls-4{fill:#d9dadb;}.cls-5{clip-path:url(#clip-path-2);}.cls-6{fill:#e0af12;}.cls-7{clip-path:url(#clip-path-3);}</style><clipPath id="clip-path"><circle class="cls-1" cx="932.96" cy="1380.49" r="430.53"/></clipPath><clipPath id="clip-path-2"><circle class="cls-1" cx="441.02" cy="430.53" r="430.53"/></clipPath><clipPath id="clip-path-3"><circle class="cls-1" cx="1400.19" cy="430.53" r="437.34"/></clipPath></defs><title>R Ankle</title><g id="Front_Left_Ankle" data-name="Front Left Ankle"><g class="cls-2"><circle class="cls-3" cx="852.68" cy="1286.41" r="721.44"/><polygon class="cls-4" points="844.25 773.86 832.85 809.69 808.42 961.18 805.16 1163.16 839.37 1360.26 837.74 1107.78 873.57 1006.79 878.46 896.02 844.25 773.86"/><polygon class="cls-4" points="766.07 865.08 774.21 1168.05 832.82 1387.81 765.22 1367.17 650.42 954.66 691.14 687.53 766.07 865.08"/><polygon class="cls-4" points="720.46 552.33 715.57 596.31 749.78 638.66 761.18 705.45 783.98 715.22 803.53 614.23 816.56 578.39 805.16 555.59 720.46 552.33"/><polygon class="cls-4" points="871.94 555.59 847.51 624 795.39 724.99 808.42 817.84 845.88 713.59 876.83 654.95 871.94 555.59"/><polygon class="cls-4" points="685.89 -259.22 792.96 -23.51 817.3 167.39 771.65 435.94 672.76 162.53 666.67 -118.96 684.64 -259.05 685.89 -259.22"/><polygon class="cls-4" points="672.22 244.28 658.52 178.71 752.86 437.56 738.62 474.2 696.69 361.44 672.22 244.28"/><polygon class="cls-4" points="822.16 82.8 824.7 88.86 872.31 202.52 841.57 484.01 793.04 458.13 835.1 196.05 822.16 82.8"/><polygon class="cls-4" points="763.59 -266.68 703.03 -261.33 810.23 -49.86 883.27 176.63 875.66 19.71 763.59 -266.68"/><polygon class="cls-4" points="626.56 -242.64 663.84 -253.96 649.69 -133.18 647.43 176.63 696.47 415.01 695.93 528.02 710.6 664.94 691.56 657.87 671.48 704.9 672.29 388.94 625.58 176.63 594.18 -248.85 626.56 -242.64"/></g><g class="cls-5"><circle class="cls-3" cx="360.73" cy="336.46" r="721.44"/><polygon class="cls-4" points="352.31 -176.1 340.91 -140.26 316.48 11.22 313.22 213.2 347.42 410.3 345.8 157.82 381.63 56.83 386.52 -53.93 352.31 -176.1"/><polygon class="cls-4" points="541.28 -176.1 552.68 -140.26 577.12 11.22 580.37 213.2 546.17 410.3 547.8 157.82 511.96 56.83 507.07 -53.93 541.28 -176.1"/><polygon class="cls-4" points="390.84 522.02 386.52 641.6 375.12 688.84 340.91 688.84 331.13 656.26 319.73 654.63 322.18 687.21 279.01 674.18 267.61 667.66 218.74 657.07 217.11 618.79 264.35 538.98 289.4 507.67 342.56 537.91 390.84 522.02"/><polygon class="cls-4" points="501.53 522.02 505.85 641.6 517.25 688.84 551.46 688.84 561.23 656.26 572.63 654.63 570.19 687.21 613.36 674.18 624.76 667.66 673.63 657.07 675.25 618.79 628.02 538.98 602.97 507.67 549.81 537.91 501.53 522.02"/><polygon class="cls-6" points="276.63 432.92 274.79 451.78 296.41 494.1 341.49 523.54 387.8 508.36 373.23 464.25 276.63 432.92"/><polygon class="cls-4" points="615.74 432.92 617.58 451.78 595.96 494.1 550.88 523.54 504.57 508.36 519.14 464.25 615.74 432.92"/><polygon class="cls-4" points="274.12 -84.88 282.27 218.09 340.87 437.85 273.28 417.21 158.47 4.71 199.2 -262.43 274.12 -84.88"/><polygon class="cls-4" points="618.24 -84.88 610.1 218.09 551.5 437.85 619.09 417.21 733.89 4.71 693.17 -262.43 618.24 -84.88"/></g></g><g id="Front_Right_Ankle" data-name="Front Right Ankle"><g class="cls-7"><circle class="cls-3" cx="1356.05" cy="342.33" r="732.85"/></g></g></svg>