<?xml version="1.0" encoding="iso-8859-1"?>
<!-- Generator: Adobe Illustrator 22.0.1, SVG Export Plug-In . SVG Version: 6.00 Build 0)  -->
<svg version="1.1" id="Layer_1" xmlns="http://www.w3.org/2000/svg" xmlns:xlink="http://www.w3.org/1999/xlink" x="0px" y="0px"
	 viewBox="0 0 781.017 780.731" style="enable-background:new 0 0 781.017 780.731;" xml:space="preserve">
<g id="Back_Right_Calf">
	<circle style="fill:#F7F7F7;" cx="390.295" cy="390.295" r="390.295"/>
	<g>
		<g>
			<defs>
				<circle id="SVGID_1_" cx="390.295" cy="390.295" r="390.295"/>
			</defs>
			<clipPath id="SVGID_2_">
				<use xlink:href="#SVGID_1_"  style="overflow:visible;"/>
			</clipPath>
			<g style="clip-path:url(#SVGID_2_);">
				<polygon style="fill:#D9DADB;" points="350.617,-1002.576 344.61,-939.834 265.182,-902.456 348.615,-892.444 385.326,-920.478 
					377.983,-1024.602 				"/>
				<polygon style="fill:#D9DADB;" points="226.469,-760.953 244.49,-742.264 241.153,-618.116 199.77,-528.675 171.069,-541.357 
					161.724,-632.132 177.744,-727.58 				"/>
				<polygon style="fill:#D9DADB;" points="254.502,-736.257 253.167,-695.542 279.866,-586.077 325.921,-530.677 319.246,-477.948 
					324.586,-474.61 358.627,-544.027 364.634,-618.783 321.249,-717.568 279.198,-719.57 257.84,-736.924 				"/>
				<polygon style="fill:#D9DADB;" points="211.784,-528.675 211.117,-458.591 133.454,-344.232 171.736,-473.943 				"/>
				<polygon style="fill:#D9DADB;" points="155.05,-565.386 170.401,-499.307 112.095,-315.754 100.825,-324.615 108.535,-399.409 
					115.655,-447.467 				"/>
				<polygon style="fill:#D9DADB;" points="476.842,-1086.677 475.508,-1159.431 440.799,-1200.813 391.407,-1210.158 
					339.344,-1200.813 304.636,-1159.431 303.301,-1086.677 285.28,-1081.337 291.954,-1043.291 306.639,-1034.614 
					324.66,-1036.617 340.679,-1000.574 362.038,-1028.607 391.407,-1037.312 418.105,-1028.607 439.464,-1000.574 
					455.483,-1036.617 473.505,-1034.614 488.189,-1043.291 494.864,-1081.337 				"/>
				<polygon style="fill:#D9DADB;" points="428.044,-1002.576 434.051,-939.834 513.48,-902.456 430.047,-892.444 393.336,-920.478 
					400.678,-1024.602 				"/>
				<g>
					<polygon style="fill:#D9DADB;" points="287.208,-861.741 281.868,-845.721 257.172,-834.375 244.49,-789.654 186.421,-741.597 
						185.753,-837.044 220.461,-890.442 249.162,-897.116 					"/>
					<polygon style="fill:#D9DADB;" points="271.856,-888.439 305.23,-859.738 329.258,-720.238 378.651,-620.785 378.651,-851.729 
						341.273,-879.762 					"/>
					<polygon style="fill:#D9DADB;" points="298.555,-844.386 320.581,-730.25 271.856,-734.255 240.485,-771.633 259.842,-792.324 
						264.514,-820.358 					"/>
					<polygon style="fill:#D9DADB;" points="491.453,-861.741 496.793,-845.721 521.489,-834.375 534.171,-789.654 
						592.241,-741.597 592.908,-837.044 558.2,-890.442 529.499,-897.116 					"/>
					<polygon style="fill:#D9DADB;" points="506.805,-888.439 473.432,-859.738 449.403,-720.238 400.011,-620.785 
						400.011,-851.729 437.389,-879.762 					"/>
					<polygon style="fill:#D9DADB;" points="480.107,-844.386 458.08,-730.25 506.805,-734.255 538.176,-771.633 518.82,-792.324 
						514.147,-820.358 					"/>
				</g>
				<polygon style="fill:#D9DADB;" points="552.193,-760.953 534.171,-742.264 537.509,-618.116 578.891,-528.675 607.592,-541.357 
					616.937,-632.132 600.918,-727.58 				"/>
				<polygon style="fill:#D9DADB;" points="524.159,-736.257 525.494,-695.542 498.796,-586.077 452.74,-530.677 459.415,-477.948 
					454.075,-474.61 420.035,-544.027 414.027,-618.783 457.413,-717.568 499.463,-719.57 520.822,-736.924 				"/>
				<polygon style="fill:#D9DADB;" points="81.481,-337.107 93.208,-309.141 127.489,-303.728 130.195,-253.209 112.153,-181.039 
					100.425,-181.941 111.815,-229.979 99.636,-230.318 80.578,-179.235 66.144,-181.039 84.074,-232.686 71.557,-235.054 
					47.2,-180.137 29.157,-181.941 53.966,-239.114 45.396,-244.188 14.723,-195.473 -0.613,-197.277 45.396,-284.784 
					40.885,-292.001 -2.417,-273.958 -5.124,-283.882 30.059,-315.456 				"/>
				<polygon style="fill:#D9DADB;" points="699.851,-337.107 688.123,-309.141 653.842,-303.728 651.136,-253.209 669.179,-181.039 
					680.906,-181.941 669.517,-229.979 681.696,-230.318 700.753,-179.235 715.187,-181.039 697.257,-232.686 709.774,-235.054 
					734.132,-180.137 752.174,-181.941 727.366,-239.114 735.936,-244.188 766.608,-195.473 781.944,-197.277 735.936,-284.784 
					740.447,-292.001 783.749,-273.958 786.455,-283.882 751.272,-315.456 				"/>
				<polygon style="fill:#D9DADB;" points="569.547,-528.675 570.215,-458.591 647.877,-344.232 609.595,-473.943 				"/>
				<polygon style="fill:#D9DADB;" points="626.282,-565.386 610.93,-499.307 669.236,-315.754 680.506,-324.615 672.796,-399.409 
					665.677,-447.467 				"/>
				<polygon style="fill:#D9DADB;" points="481.891,674.472 465.37,688.515 467.848,710.817 501.414,667.484 497.051,662.344 				
					"/>
				<polygon style="fill:#D9DADB;" points="496.394,659.948 474.83,652.725 467.328,668.812 463.429,684.379 464.794,686.153 				
					"/>
				<polygon style="fill:#D9DADB;" points="441.455,684.777 441.455,682.195 439.822,674.795 429.855,682.783 428.29,692.113 
					429.445,702.996 				"/>
				<polygon style="fill:#D9DADB;" points="297.883,673.72 314.404,687.762 311.926,710.065 278.359,666.732 282.723,661.592 				
					"/>
				<polygon style="fill:#D9DADB;" points="283.38,659.195 304.943,651.973 312.446,668.06 316.345,683.626 314.98,685.4 				"/>
				<polygon style="fill:#D9DADB;" points="338.318,684.025 338.318,681.442 339.952,674.043 349.919,682.031 351.483,691.361 
					350.329,702.244 				"/>
			</g>
		</g>
		<g>
			<defs>
				<circle id="SVGID_3_" cx="390.295" cy="390.295" r="390.295"/>
			</defs>
			<clipPath id="SVGID_4_">
				<use xlink:href="#SVGID_3_"  style="overflow:visible;"/>
			</clipPath>
			<polygon style="clip-path:url(#SVGID_4_);fill:#D9DADB;" points="277.863,-564.051 315.909,-506.649 303.895,-481.285 
				261.844,-476.613 			"/>
		</g>
		<g>
			<defs>
				<circle id="SVGID_5_" cx="390.295" cy="390.295" r="390.295"/>
			</defs>
			<clipPath id="SVGID_6_">
				<use xlink:href="#SVGID_5_"  style="overflow:visible;"/>
			</clipPath>
			<polygon style="clip-path:url(#SVGID_6_);fill:#D9DADB;" points="314.574,-468.603 363.967,-415.206 347.28,-416.541 
				287.875,-414.538 221.129,-364.478 255.837,-462.596 			"/>
		</g>
		<g>
			<defs>
				<circle id="SVGID_7_" cx="390.295" cy="390.295" r="390.295"/>
			</defs>
			<clipPath id="SVGID_8_">
				<use xlink:href="#SVGID_7_"  style="overflow:visible;"/>
			</clipPath>
			<polygon style="clip-path:url(#SVGID_8_);fill:#D9DADB;" points="500.798,-564.051 462.752,-506.649 474.767,-481.285 
				516.817,-476.613 			"/>
		</g>
		<g>
			<defs>
				<circle id="SVGID_9_" cx="390.295" cy="390.295" r="390.295"/>
			</defs>
			<clipPath id="SVGID_10_">
				<use xlink:href="#SVGID_9_"  style="overflow:visible;"/>
			</clipPath>
			<polygon style="clip-path:url(#SVGID_10_);fill:#D9DADB;" points="407.19,-542.692 389.836,-593.419 371.147,-543.137 
				341.57,-469.271 391.63,-409.921 439.02,-469.271 			"/>
		</g>
		<g>
			<defs>
				<circle id="SVGID_11_" cx="390.295" cy="390.295" r="390.295"/>
			</defs>
			<clipPath id="SVGID_12_">
				<use xlink:href="#SVGID_11_"  style="overflow:visible;"/>
			</clipPath>
			<polygon style="clip-path:url(#SVGID_12_);fill:#D9DADB;" points="464.087,-468.603 414.695,-415.206 431.382,-416.541 
				490.786,-414.538 557.533,-364.478 522.824,-462.596 			"/>
		</g>
		<g>
			<defs>
				<circle id="SVGID_13_" cx="390.295" cy="390.295" r="390.295"/>
			</defs>
			<clipPath id="SVGID_14_">
				<use xlink:href="#SVGID_13_"  style="overflow:visible;"/>
			</clipPath>
			<polygon style="clip-path:url(#SVGID_14_);fill:#D9DADB;" points="239.15,-177.588 287.208,-203.619 361.297,-222.308 
				375.981,-264.359 374.646,-371.821 348.615,-407.196 301.225,-407.864 231.141,-349.127 230.473,-318.11 217.003,-254.317 
				221.129,-195.943 			"/>
		</g>
		<g>
			<defs>
				<circle id="SVGID_15_" cx="390.295" cy="390.295" r="390.295"/>
			</defs>
			<clipPath id="SVGID_16_">
				<use xlink:href="#SVGID_15_"  style="overflow:visible;"/>
			</clipPath>
			<polygon style="clip-path:url(#SVGID_16_);fill:#D9DADB;" points="539.509,-177.588 491.451,-203.619 417.362,-222.308 
				402.678,-264.359 404.013,-371.821 430.044,-407.196 477.434,-407.864 547.518,-349.127 548.186,-318.11 561.656,-254.317 
				557.53,-195.943 			"/>
		</g>
		<g>
			<defs>
				<circle id="SVGID_17_" cx="390.295" cy="390.295" r="390.295"/>
			</defs>
			<clipPath id="SVGID_18_">
				<use xlink:href="#SVGID_17_"  style="overflow:visible;"/>
			</clipPath>
			<polygon style="clip-path:url(#SVGID_18_);fill:#D9DADB;" points="289.21,-182.928 279.198,-18.064 295.218,56.693 
				263.847,146.8 230.473,-11.389 247.16,-170.913 			"/>
		</g>
		<g>
			<defs>
				<circle id="SVGID_19_" cx="390.295" cy="390.295" r="390.295"/>
			</defs>
			<clipPath id="SVGID_20_">
				<use xlink:href="#SVGID_19_"  style="overflow:visible;"/>
			</clipPath>
			<polygon style="clip-path:url(#SVGID_20_);fill:#D9DADB;" points="326.589,-192.272 347.28,-137.54 355.29,6.633 377.983,-132.2 
				375.314,-219.638 			"/>
		</g>
		<g>
			<defs>
				<circle id="SVGID_21_" cx="390.295" cy="390.295" r="390.295"/>
			</defs>
			<clipPath id="SVGID_22_">
				<use xlink:href="#SVGID_21_"  style="overflow:visible;"/>
			</clipPath>
			<polygon style="clip-path:url(#SVGID_22_);fill:#D9DADB;" points="311.237,-186.932 286.54,-20.066 314.573,120.766 
				352.619,200.195 356.624,31.329 329.926,-37.42 328.591,-142.212 			"/>
		</g>
		<g>
			<defs>
				<circle id="SVGID_23_" cx="390.295" cy="390.295" r="390.295"/>
			</defs>
			<clipPath id="SVGID_24_">
				<use xlink:href="#SVGID_23_"  style="overflow:visible;"/>
			</clipPath>
			<polygon style="clip-path:url(#SVGID_24_);fill:#D9DADB;" points="230.473,-72.604 239.249,-168.526 217.003,-184.289 
				217.003,-158.013 			"/>
		</g>
		<g>
			<defs>
				<circle id="SVGID_25_" cx="390.295" cy="390.295" r="390.295"/>
			</defs>
			<clipPath id="SVGID_26_">
				<use xlink:href="#SVGID_25_"  style="overflow:visible;"/>
			</clipPath>
			<polygon style="clip-path:url(#SVGID_26_);fill:#D9DADB;" points="489.451,-182.928 499.463,-18.064 483.444,56.693 
				514.815,146.8 548.188,-11.389 531.501,-170.913 			"/>
		</g>
		<g>
			<defs>
				<circle id="SVGID_27_" cx="390.295" cy="390.295" r="390.295"/>
			</defs>
			<clipPath id="SVGID_28_">
				<use xlink:href="#SVGID_27_"  style="overflow:visible;"/>
			</clipPath>
			<polygon style="clip-path:url(#SVGID_28_);fill:#D9DADB;" points="468.166,-186.932 492.862,-20.066 464.829,120.766 
				426.784,200.195 422.778,31.329 449.477,-37.42 450.812,-142.212 			"/>
		</g>
		<g>
			<defs>
				<circle id="SVGID_29_" cx="390.295" cy="390.295" r="390.295"/>
			</defs>
			<clipPath id="SVGID_30_">
				<use xlink:href="#SVGID_29_"  style="overflow:visible;"/>
			</clipPath>
			<polygon style="clip-path:url(#SVGID_30_);fill:#D9DADB;" points="452.073,-192.272 431.382,-137.54 423.372,6.633 
				400.678,-132.2 403.348,-219.638 			"/>
		</g>
		<g>
			<defs>
				<circle id="SVGID_31_" cx="390.295" cy="390.295" r="390.295"/>
			</defs>
			<clipPath id="SVGID_32_">
				<use xlink:href="#SVGID_31_"  style="overflow:visible;"/>
			</clipPath>
			<polygon style="clip-path:url(#SVGID_32_);fill:#D9DADB;" points="549.586,-72.604 540.81,-168.526 563.056,-184.289 
				563.056,-158.013 			"/>
		</g>
		<g>
			<defs>
				<circle id="SVGID_33_" cx="390.295" cy="390.295" r="390.295"/>
			</defs>
			<clipPath id="SVGID_34_">
				<use xlink:href="#SVGID_33_"  style="overflow:visible;"/>
			</clipPath>
			<polygon style="clip-path:url(#SVGID_34_);fill:#D9DADB;" points="316.248,711.256 349.917,709.066 334.751,685.103 
				343.929,637.577 323.906,644.028 306.934,642.329 319.888,688.128 			"/>
		</g>
		<g>
			<defs>
				<circle id="SVGID_35_" cx="390.295" cy="390.295" r="390.295"/>
			</defs>
			<clipPath id="SVGID_36_">
				<use xlink:href="#SVGID_35_"  style="overflow:visible;"/>
			</clipPath>
			<polygon style="clip-path:url(#SVGID_36_);fill:#D9DADB;" points="463.114,711.256 429.445,709.066 444.611,685.103 
				435.433,637.577 455.456,644.028 472.427,642.329 459.474,688.128 			"/>
		</g>
		<g>
			<defs>
				<circle id="SVGID_37_" cx="390.295" cy="390.295" r="390.295"/>
			</defs>
			<clipPath id="SVGID_38_">
				<use xlink:href="#SVGID_37_"  style="overflow:visible;"/>
			</clipPath>
			<polygon style="clip-path:url(#SVGID_38_);fill:#D9DADB;" points="313.921,166.29 318.258,389.935 356.668,433.301 
				375.253,405.423 376.492,345.33 359.766,255.5 			"/>
		</g>
		<g>
			<defs>
				<circle id="SVGID_39_" cx="390.295" cy="390.295" r="390.295"/>
			</defs>
			<clipPath id="SVGID_40_">
				<use xlink:href="#SVGID_39_"  style="overflow:visible;"/>
			</clipPath>
			<polygon style="clip-path:url(#SVGID_40_);fill:#D9DADB;" points="302.151,153.28 299.673,336.037 310.204,405.423 
				292.238,420.291 260.643,355.861 268.697,231.339 284.185,180.539 285.424,143.987 			"/>
		</g>
		<g>
			<defs>
				<circle id="SVGID_41_" cx="390.295" cy="390.295" r="390.295"/>
			</defs>
			<clipPath id="SVGID_42_">
				<use xlink:href="#SVGID_41_"  style="overflow:visible;"/>
			</clipPath>
			<polygon style="clip-path:url(#SVGID_42_);fill:#D9DADB;" points="315.16,413.476 297.194,429.584 324.453,559.062 
				326.292,637.577 344.373,632.46 346.136,560.301 359.146,468.613 355.429,447.549 			"/>
		</g>
		<g>
			<defs>
				<circle id="SVGID_43_" cx="390.295" cy="390.295" r="390.295"/>
			</defs>
			<clipPath id="SVGID_44_">
				<use xlink:href="#SVGID_43_"  style="overflow:visible;"/>
			</clipPath>
			<polygon style="clip-path:url(#SVGID_44_);fill:#D9DADB;" points="300.912,503.925 317.638,586.94 318.541,605.38 
				321.904,638.689 306.934,637.577 298.688,605.705 292.858,571.453 292.858,494.013 			"/>
		</g>
		<g>
			<defs>
				<circle id="SVGID_45_" cx="390.295" cy="390.295" r="390.295"/>
			</defs>
			<clipPath id="SVGID_46_">
				<use xlink:href="#SVGID_45_"  style="overflow:visible;"/>
			</clipPath>
			<g style="clip-path:url(#SVGID_46_);">
				<polygon style="fill:#E0AF12;" points="466.284,166.29 461.948,389.935 423.538,433.301 404.952,405.423 403.713,345.33 
					420.44,255.5 				"/>
				<polygon style="fill:#E0AF12;" points="478.055,153.28 480.533,336.037 470.001,405.423 487.967,420.291 519.563,355.861 
					511.509,231.339 496.021,180.539 494.782,143.987 				"/>
				<polygon style="fill:#E0AF12;" points="464.201,413.476 482.167,429.584 454.908,559.062 453.07,637.577 434.988,632.46 
					433.225,560.301 420.216,468.613 423.933,447.549 				"/>
				<polygon style="fill:#E0AF12;" points="478.45,503.925 461.723,586.94 460.82,605.38 457.458,638.689 472.427,637.577 
					480.673,605.705 486.504,571.453 486.504,494.013 				"/>
			</g>
		</g>
	</g>
</g>
<g id="Layer_1_1_">
</g>
</svg>
