<svg xmlns="http://www.w3.org/2000/svg" xmlns:xlink="http://www.w3.org/1999/xlink" viewBox="0 0 874.68 874.68"><defs><style>.cls-1{fill:none;}.cls-2{clip-path:url(#clip-path);}.cls-3{fill:#f7f7f7;}.cls-4{clip-path:url(#clip-path-2);}.cls-5{fill:#d9dadb;}.cls-6{clip-path:url(#clip-path-3);}.cls-7{fill:#e0af12;}.cls-8{clip-path:url(#clip-path-4);}</style><clipPath id="clip-path"><circle class="cls-1" cx="-493.3" cy="437.34" r="437.34"/></clipPath><clipPath id="clip-path-2"><circle class="cls-1" cx="874.68" cy="1387.29" r="437.34"/></clipPath><clipPath id="clip-path-3"><circle class="cls-1" cx="437.34" cy="437.34" r="437.34"/></clipPath><clipPath id="clip-path-4"><circle class="cls-1" cx="1366.98" cy="437.34" r="437.34"/></clipPath></defs><title>R Foot</title><g id="Front_Right_Ankle" data-name="Front Right Ankle"><g class="cls-2"><circle class="cls-3" cx="-537.45" cy="349.13" r="732.85"/></g></g><g id="Front_Left_Foot" data-name="Front Left Foot"><g class="cls-4"><circle class="cls-3" cx="814.29" cy="1305.17" r="732.84"/><polygon class="cls-5" points="775.15 763.64 763.57 800.04 738.75 953.92 735.44 1159.09 770.19 1359.3 768.53 1102.84 804.93 1000.25 809.9 887.74 775.15 763.64"/><polygon class="cls-5" points="695.73 856.3 704 1164.06 763.53 1387.29 694.87 1366.32 578.25 947.3 619.62 675.95 695.73 856.3"/><polygon class="cls-5" points="649.4 538.62 644.44 583.29 679.18 626.31 690.76 694.15 713.93 704.08 733.78 601.49 747.02 565.09 735.44 541.93 649.4 538.62"/><polygon class="cls-5" points="803.28 541.93 778.46 611.42 725.51 714 738.75 808.32 776.8 702.42 808.24 642.86 803.28 541.93"/><polygon class="cls-5" points="614.28 -285.76 723.04 -46.32 747.77 147.59 701.4 420.39 600.95 142.66 594.76 -143.28 613.01 -285.58 614.28 -285.76"/><polygon class="cls-5" points="600.4 225.7 586.49 159.09 682.31 422.03 667.85 459.25 625.25 344.71 600.4 225.7"/><polygon class="cls-5" points="752.7 61.67 755.28 67.83 803.65 183.28 772.42 469.22 723.12 442.93 765.85 176.7 752.7 61.67"/><polygon class="cls-5" points="693.21 -293.33 631.7 -287.9 740.59 -73.09 814.78 156.98 807.05 -2.42 693.21 -293.33"/><polygon class="cls-5" points="554.02 -268.91 591.89 -280.41 577.52 -157.72 575.22 156.98 625.04 399.13 624.49 513.93 639.39 653.01 620.04 645.82 599.65 693.6 600.48 372.65 553.03 156.98 521.13 -275.22 554.02 -268.91"/></g><g class="cls-6"><circle class="cls-3" cx="376.95" cy="355.22" r="732.84"/><polygon class="cls-5" points="337.81 -186.31 326.23 -149.91 301.41 3.96 298.1 209.14 332.85 409.34 331.19 152.88 367.59 50.29 372.56 -62.22 337.81 -186.31"/><polygon class="cls-5" points="529.76 -186.31 541.35 -149.91 566.17 3.96 569.48 209.14 534.73 409.34 536.38 152.88 499.98 50.29 495.02 -62.22 529.76 -186.31"/><polygon class="cls-7" points="376.95 522.84 372.56 644.3 360.97 692.28 326.23 692.28 316.3 659.19 304.72 657.53 307.2 690.63 263.35 677.39 251.77 670.77 202.13 660.02 200.48 621.13 248.46 540.06 273.9 508.25 327.91 538.97 376.95 522.84"/><polygon class="cls-5" points="489.38 522.84 493.78 644.3 505.36 692.28 540.1 692.28 550.03 659.19 561.61 657.53 559.13 690.63 602.98 677.39 614.56 670.77 664.2 660.02 665.86 621.13 617.87 540.06 592.43 508.25 538.43 538.97 489.38 522.84"/><polygon class="cls-5" points="260.93 432.32 259.06 451.48 281.03 494.47 326.82 524.37 373.86 508.95 359.06 464.14 260.93 432.32"/><polygon class="cls-5" points="605.4 432.32 607.27 451.48 585.3 494.47 539.51 524.37 492.47 508.95 507.27 464.14 605.4 432.32"/><polygon class="cls-5" points="258.39 -93.66 266.66 214.1 326.19 437.33 257.53 416.36 140.91 -2.65 182.28 -274.01 258.39 -93.66"/><polygon class="cls-5" points="607.94 -93.66 599.67 214.1 540.14 437.33 608.8 416.36 725.42 -2.65 684.05 -274.01 607.94 -93.66"/></g></g><g id="Front_Right_Foot" data-name="Front Right Foot"><g class="cls-8"><circle class="cls-3" cx="1280.57" cy="315.34" r="732.85"/></g></g></svg>