<?xml version="1.0" encoding="iso-8859-1"?>
<!-- Generator: Adobe Illustrator 22.0.1, SVG Export Plug-In . SVG Version: 6.00 Build 0)  -->
<svg version="1.1" id="Layer_1" xmlns="http://www.w3.org/2000/svg" xmlns:xlink="http://www.w3.org/1999/xlink" x="0px" y="0px"
	 viewBox="0 0 465.823 466.274" style="enable-background:new 0 0 465.823 466.274;" xml:space="preserve">
<g id="Front_Right_Foot">
	<g>
		<g>
			<defs>
				<circle id="SVGID_1_" cx="232.917" cy="232.917" r="232.917"/>
			</defs>
			<clipPath id="SVGID_2_">
				<use xlink:href="#SVGID_1_"  style="overflow:visible;"/>
			</clipPath>
			<circle style="clip-path:url(#SVGID_2_);fill:#F7F7F7;" cx="186.9" cy="167.945" r="390.295"/>
		</g>
		<g>
			<defs>
				<circle id="SVGID_3_" cx="232.917" cy="232.917" r="232.917"/>
			</defs>
			<clipPath id="SVGID_4_">
				<use xlink:href="#SVGID_3_"  style="overflow:visible;"/>
			</clipPath>
			<g style="clip-path:url(#SVGID_4_);">
				<polygon style="fill:#D9DADB;" points="183.421,-1319.714 215.357,-1271.321 231.148,-1215.72 194.352,-1245.065 
					179.584,-1297.544 				"/>
				<polygon style="fill:#D9DADB;" points="168.104,-1284.449 175.981,-1247.69 129.594,-1236.312 99.837,-1246.815 				"/>
				<polygon style="fill:#D9DADB;" points="138.347,-1223.184 101.587,-1157.543 61.327,-1137.413 85.833,-1118.158 
					105.088,-1062.144 149.724,-1043.764 220.85,-1078.912 203.113,-1217.057 				"/>
				<path style="fill:#D9DADB;" d="M66.123-978.901c0.524-0.417,1.069-0.713,1.62-0.956l14.589-108.544l-28.007-40.26l-28.882,42.01
					L0.937-939.613l2.248,19.737C22.938-940.848,43.546-960.939,66.123-978.901z"/>
				<path style="fill:#D9DADB;" d="M6.79-904.424c-0.537,0.579-1.111,0.985-1.694,1.313l3.719,32.64l51.638-55.138l4.78-35.561
					C44.466-943.627,25.285-924.375,6.79-904.424z"/>
				<polygon style="fill:#D9DADB;" points="12.315,-854.717 -59.596,-660.556 -36.684,-655.269 39.447,-811.832 53.45,-899.353 				
					"/>
				<polygon style="fill:#D9DADB;" points="-8.69,-929.986 1.813,-855.593 -66.645,-672.893 -77.22,-679.943 -50.783,-820.937 				
					"/>
				<polygon style="fill:#D9DADB;" points="11.44,-1093.652 -1.688,-953.617 -10.441,-1057.768 				"/>
				<polygon style="fill:#D9DADB;" points="318.155,-1431.724 318.155,-1483.242 290.991,-1530.077 232.887,-1548.942 
					174.842,-1530.077 147.678,-1483.242 147.678,-1431.724 134.564,-1428.914 140.184,-1383.953 161.728,-1376.459 
					185.145,-1327.752 233.143,-1307.246 280.688,-1327.752 304.105,-1376.459 325.649,-1383.953 331.269,-1428.914 				"/>
				<polygon style="fill:#D9DADB;" points="-89.501,-675.1 -78.046,-647.782 -44.559,-642.495 -41.916,-593.147 -59.54,-522.65 
					-70.996,-523.531 -59.871,-570.456 -71.767,-570.786 -90.383,-520.888 -104.482,-522.65 -86.968,-573.099 -99.195,-575.413 
					-122.987,-521.769 -140.612,-523.531 -116.378,-579.378 -124.75,-584.335 -154.711,-536.749 -169.692,-538.512 
					-124.75,-623.989 -129.156,-631.039 -171.454,-613.415 -174.098,-623.108 -139.73,-653.951 				"/>
				<polygon style="fill:#D9DADB;" points="299.605,-1284.449 291.728,-1247.69 338.115,-1236.312 367.872,-1246.815 				"/>
				<polygon style="fill:#D9DADB;" points="329.362,-1223.184 366.122,-1157.543 406.382,-1137.413 381.876,-1118.158 
					362.621,-1062.144 317.985,-1043.764 246.859,-1078.912 264.596,-1217.057 				"/>
				<path style="fill:#D9DADB;" d="M401.586-978.901c-0.524-0.417-1.069-0.713-1.62-0.956l-14.589-108.544l28.007-40.26
					l28.882,42.01l24.506,147.037l-2.248,19.737C444.771-940.848,424.163-960.939,401.586-978.901z"/>
				<path style="fill:#D9DADB;" d="M460.919-904.424c0.537,0.579,1.111,0.985,1.694,1.313l-3.718,32.64l-51.638-55.138l-4.78-35.561
					C423.243-943.627,442.424-924.375,460.919-904.424z"/>
				<polygon style="fill:#D9DADB;" points="455.394,-854.717 527.305,-660.556 504.393,-655.269 428.262,-811.832 414.259,-899.353 
									"/>
				<polygon style="fill:#D9DADB;" points="476.399,-929.986 465.896,-855.593 534.354,-672.893 544.929,-679.943 518.492,-820.937 
									"/>
				<polygon style="fill:#D9DADB;" points="456.269,-1093.652 469.397,-953.617 478.149,-1057.768 				"/>
				<polygon style="fill:#D9DADB;" points="557.21,-675.1 545.755,-647.782 512.268,-642.495 509.625,-593.147 527.249,-522.65 
					538.705,-523.531 527.58,-570.456 539.476,-570.786 558.092,-520.888 572.191,-522.65 554.677,-573.099 566.904,-575.413 
					590.696,-521.769 608.321,-523.531 584.087,-579.378 592.459,-584.335 622.42,-536.749 637.401,-538.512 592.459,-623.989 
					596.865,-631.039 639.163,-613.415 641.807,-623.108 607.439,-653.951 				"/>
				<path style="fill:#D9DADB;" d="M384.157-1242.482l16.098-8.708l50.384,55.739l0.276,21.223
					C450.915-1174.229,385.128-1241.988,384.157-1242.482z"/>
				<path style="fill:#D9DADB;" d="M379.041-1240.174c-0.027,1.112,70.717,75.344,70.717,75.344l2.135,65.927l-24.506-42.011
					l-47.262-20.13l-33.258-61.265L379.041-1240.174z"/>
				<path style="fill:#D9DADB;" d="M83.552-1242.482l-16.098-8.708l-50.384,55.739l-0.276,21.223
					C16.794-1174.229,82.581-1241.988,83.552-1242.482z"/>
				<path style="fill:#D9DADB;" d="M88.668-1240.174c0.028,1.112-70.717,75.344-70.717,75.344l-2.135,65.927l24.506-42.011
					l47.262-20.13l33.258-61.265L88.668-1240.174z"/>
				<polygon style="fill:#D9DADB;" points="283.473,-1319.714 251.537,-1271.321 235.747,-1215.72 272.543,-1245.065 
					285.321,-1298.396 				"/>
				<polygon style="fill:#D9DADB;" points="182.739,-99.228 176.57,-79.841 163.352,2.112 161.59,111.382 180.095,218.009 
					179.214,81.421 198.6,26.786 201.244,-33.137 				"/>
				<polygon style="fill:#D9DADB;" points="284.97,-99.228 291.139,-79.841 304.357,2.112 306.119,111.382 287.614,218.009 
					288.495,81.421 269.109,26.786 266.465,-33.137 				"/>
			</g>
		</g>
		<g>
			<defs>
				<circle id="SVGID_5_" cx="232.917" cy="232.917" r="232.917"/>
			</defs>
			<clipPath id="SVGID_6_">
				<use xlink:href="#SVGID_5_"  style="overflow:visible;"/>
			</clipPath>
			<polygon style="clip-path:url(#SVGID_6_);fill:#D9DADB;" points="203.582,278.452 201.244,343.141 195.076,368.696 
				176.57,368.696 171.283,351.072 165.114,350.191 166.436,367.815 143.084,360.765 136.916,357.24 110.479,351.512 
				109.598,330.804 135.153,287.625 148.704,270.686 177.464,287.047 			"/>
		</g>
		<g>
			<defs>
				<circle id="SVGID_7_" cx="232.917" cy="232.917" r="232.917"/>
			</defs>
			<clipPath id="SVGID_8_">
				<use xlink:href="#SVGID_7_"  style="overflow:visible;"/>
			</clipPath>
			<polygon style="clip-path:url(#SVGID_8_);fill:#E0AF12;" points="263.465,278.452 265.803,343.141 271.972,368.696 
				290.477,368.696 295.764,351.072 301.933,350.191 300.611,367.815 323.963,360.765 330.132,357.24 356.568,351.512 
				357.449,330.804 331.894,287.625 318.344,270.686 289.583,287.047 			"/>
		</g>
		<g>
			<defs>
				<circle id="SVGID_9_" cx="232.917" cy="232.917" r="232.917"/>
			</defs>
			<clipPath id="SVGID_10_">
				<use xlink:href="#SVGID_9_"  style="overflow:visible;"/>
			</clipPath>
			<polygon style="clip-path:url(#SVGID_10_);fill:#D9DADB;" points="141.796,230.246 140.801,240.449 152.497,263.344 
				176.886,279.271 201.938,271.059 194.057,247.195 			"/>
		</g>
		<g>
			<defs>
				<circle id="SVGID_11_" cx="232.917" cy="232.917" r="232.917"/>
			</defs>
			<clipPath id="SVGID_12_">
				<use xlink:href="#SVGID_11_"  style="overflow:visible;"/>
			</clipPath>
			<polygon style="clip-path:url(#SVGID_12_);fill:#D9DADB;" points="325.251,230.246 326.246,240.449 314.55,263.344 
				290.161,279.271 265.11,271.059 272.99,247.195 			"/>
		</g>
		<g>
			<defs>
				<circle id="SVGID_13_" cx="232.917" cy="232.917" r="232.917"/>
			</defs>
			<clipPath id="SVGID_14_">
				<use xlink:href="#SVGID_13_"  style="overflow:visible;"/>
			</clipPath>
			<polygon style="clip-path:url(#SVGID_14_);fill:#D9DADB;" points="140.44,-49.88 144.846,114.026 176.551,232.917 
				139.982,221.748 77.874,-1.413 99.905,-145.932 			"/>
		</g>
		<g>
			<defs>
				<circle id="SVGID_15_" cx="232.917" cy="232.917" r="232.917"/>
			</defs>
			<clipPath id="SVGID_16_">
				<use xlink:href="#SVGID_15_"  style="overflow:visible;"/>
			</clipPath>
			<polygon style="clip-path:url(#SVGID_16_);fill:#D9DADB;" points="326.607,-49.88 322.201,114.026 290.497,232.917 
				327.065,221.748 389.173,-1.413 367.143,-145.932 			"/>
		</g>
		<g>
			<defs>
				<circle id="SVGID_17_" cx="232.917" cy="232.917" r="232.917"/>
			</defs>
			<clipPath id="SVGID_18_">
				<use xlink:href="#SVGID_17_"  style="overflow:visible;"/>
			</clipPath>
			<g style="clip-path:url(#SVGID_18_);">
				<polygon style="fill:#D9DADB;" points="115.766,-219.073 113.123,-195.28 131.628,-172.368 137.797,-136.239 150.134,-130.951 
					160.708,-185.587 167.758,-204.973 161.59,-217.31 				"/>
				<polygon style="fill:#D9DADB;" points="197.719,-217.31 184.501,-180.299 156.302,-125.664 163.352,-75.435 183.62,-131.833 
					200.363,-163.556 				"/>
			</g>
		</g>
		<g>
			<defs>
				<circle id="SVGID_19_" cx="232.917" cy="232.917" r="232.917"/>
			</defs>
			<clipPath id="SVGID_20_">
				<use xlink:href="#SVGID_19_"  style="overflow:visible;"/>
			</clipPath>
			<polygon style="clip-path:url(#SVGID_20_);fill:#D9DADB;" points="351.943,-219.073 354.586,-195.28 336.081,-172.368 
				329.912,-136.239 317.575,-130.951 307.001,-185.587 299.951,-204.973 306.119,-217.31 			"/>
		</g>
		<g>
			<defs>
				<circle id="SVGID_21_" cx="232.917" cy="232.917" r="232.917"/>
			</defs>
			<clipPath id="SVGID_22_">
				<use xlink:href="#SVGID_21_"  style="overflow:visible;"/>
			</clipPath>
			<polygon style="clip-path:url(#SVGID_22_);fill:#D9DADB;" points="269.99,-217.31 283.208,-180.299 311.407,-125.664 
				304.357,-75.435 284.089,-131.833 267.346,-163.556 			"/>
		</g>
		<g>
			<defs>
				<circle id="SVGID_23_" cx="232.917" cy="232.917" r="232.917"/>
			</defs>
			<clipPath id="SVGID_24_">
				<use xlink:href="#SVGID_23_"  style="overflow:visible;"/>
			</clipPath>
			<polygon style="clip-path:url(#SVGID_24_);fill:#D9DADB;" points="97.063,-658.119 154.988,-530.601 168.158,-427.325 
				143.464,-282.039 89.961,-429.951 86.668,-582.239 96.388,-658.026 			"/>
		</g>
		<g>
			<defs>
				<circle id="SVGID_25_" cx="232.917" cy="232.917" r="232.917"/>
			</defs>
			<clipPath id="SVGID_26_">
				<use xlink:href="#SVGID_25_"  style="overflow:visible;"/>
			</clipPath>
			<polygon style="clip-path:url(#SVGID_26_);fill:#D9DADB;" points="89.668,-385.725 82.26,-421.198 133.294,-281.164 
				125.593,-261.339 102.906,-322.342 			"/>
		</g>
		<g>
			<defs>
				<circle id="SVGID_27_" cx="232.917" cy="232.917" r="232.917"/>
			</defs>
			<clipPath id="SVGID_28_">
				<use xlink:href="#SVGID_27_"  style="overflow:visible;"/>
			</clipPath>
			<polygon style="clip-path:url(#SVGID_28_);fill:#D9DADB;" points="170.784,-473.086 172.158,-469.807 197.916,-408.32 
				181.287,-256.032 155.03,-270.035 177.786,-411.821 			"/>
		</g>
		<g>
			<defs>
				<circle id="SVGID_29_" cx="232.917" cy="232.917" r="232.917"/>
			</defs>
			<clipPath id="SVGID_30_">
				<use xlink:href="#SVGID_29_"  style="overflow:visible;"/>
			</clipPath>
			<polygon style="clip-path:url(#SVGID_30_);fill:#D9DADB;" points="296.925,-473.086 295.551,-469.807 269.793,-408.32 
				286.422,-256.032 312.679,-270.035 289.923,-411.821 			"/>
		</g>
		<g>
			<defs>
				<circle id="SVGID_31_" cx="232.917" cy="232.917" r="232.917"/>
			</defs>
			<clipPath id="SVGID_32_">
				<use xlink:href="#SVGID_31_"  style="overflow:visible;"/>
			</clipPath>
			<polygon style="clip-path:url(#SVGID_32_);fill:#D9DADB;" points="370.309,-656.119 312.384,-528.601 299.214,-425.325 
				323.908,-280.039 377.411,-427.951 380.704,-580.239 370.984,-656.026 			"/>
		</g>
		<g>
			<defs>
				<circle id="SVGID_33_" cx="232.917" cy="232.917" r="232.917"/>
			</defs>
			<clipPath id="SVGID_34_">
				<use xlink:href="#SVGID_33_"  style="overflow:visible;"/>
			</clipPath>
			<polygon style="clip-path:url(#SVGID_34_);fill:#D9DADB;" points="377.704,-383.725 385.112,-419.198 334.078,-279.164 
				341.779,-259.339 364.466,-320.342 			"/>
		</g>
		<g>
			<defs>
				<circle id="SVGID_35_" cx="232.917" cy="232.917" r="232.917"/>
			</defs>
			<clipPath id="SVGID_36_">
				<use xlink:href="#SVGID_35_"  style="overflow:visible;"/>
			</clipPath>
			<polygon style="clip-path:url(#SVGID_36_);fill:#D9DADB;" points="81.989,-772.094 51.318,-659.996 66.385,-657.543 
				96.012,-664.158 136.278,-667.907 156.422,-692.734 146.518,-717.469 121.95,-724.839 			"/>
		</g>
		<g>
			<defs>
				<circle id="SVGID_37_" cx="232.917" cy="232.917" r="232.917"/>
			</defs>
			<clipPath id="SVGID_38_">
				<use xlink:href="#SVGID_37_"  style="overflow:visible;"/>
			</clipPath>
			<polygon style="clip-path:url(#SVGID_38_);fill:#D9DADB;" points="385.383,-770.094 416.054,-657.996 400.987,-655.543 
				371.36,-662.158 331.094,-665.907 310.95,-690.734 320.854,-715.469 345.422,-722.839 			"/>
		</g>
		<g>
			<defs>
				<circle id="SVGID_39_" cx="232.917" cy="232.917" r="232.917"/>
			</defs>
			<clipPath id="SVGID_40_">
				<use xlink:href="#SVGID_39_"  style="overflow:visible;"/>
			</clipPath>
			<polygon style="clip-path:url(#SVGID_40_);fill:#D9DADB;" points="139.101,-662.152 106.34,-659.258 164.335,-544.854 
				203.845,-422.323 199.729,-507.219 			"/>
		</g>
		<g>
			<defs>
				<circle id="SVGID_41_" cx="232.917" cy="232.917" r="232.917"/>
			</defs>
			<clipPath id="SVGID_42_">
				<use xlink:href="#SVGID_41_"  style="overflow:visible;"/>
			</clipPath>
			<polygon style="clip-path:url(#SVGID_42_);fill:#D9DADB;" points="203.274,-637.388 203.744,-637.978 200.585,-646.016 
				162.245,-687.992 149.192,-669.824 173.498,-607.179 			"/>
		</g>
		<g>
			<defs>
				<circle id="SVGID_43_" cx="232.917" cy="232.917" r="232.917"/>
			</defs>
			<clipPath id="SVGID_44_">
				<use xlink:href="#SVGID_43_"  style="overflow:visible;"/>
			</clipPath>
			<polygon style="clip-path:url(#SVGID_44_);fill:#D9DADB;" points="178.366,-594.632 205.491,-524.724 214.545,-610.495 
				209.191,-624.119 			"/>
		</g>
		<g>
			<defs>
				<circle id="SVGID_45_" cx="232.917" cy="232.917" r="232.917"/>
			</defs>
			<clipPath id="SVGID_46_">
				<use xlink:href="#SVGID_45_"  style="overflow:visible;"/>
			</clipPath>
			<polygon style="clip-path:url(#SVGID_46_);fill:#D9DADB;" points="289.343,-594.632 262.218,-524.724 253.164,-610.495 
				258.518,-624.119 			"/>
		</g>
		<g>
			<defs>
				<circle id="SVGID_47_" cx="232.917" cy="232.917" r="232.917"/>
			</defs>
			<clipPath id="SVGID_48_">
				<use xlink:href="#SVGID_47_"  style="overflow:visible;"/>
			</clipPath>
			<polygon style="clip-path:url(#SVGID_48_);fill:#D9DADB;" points="328.271,-660.152 361.032,-657.258 303.037,-542.854 
				263.527,-420.323 267.643,-505.219 			"/>
		</g>
		<g>
			<defs>
				<circle id="SVGID_49_" cx="232.917" cy="232.917" r="232.917"/>
			</defs>
			<clipPath id="SVGID_50_">
				<use xlink:href="#SVGID_49_"  style="overflow:visible;"/>
			</clipPath>
			<polygon style="clip-path:url(#SVGID_50_);fill:#D9DADB;" points="264.098,-635.388 263.628,-635.978 266.787,-644.016 
				305.127,-685.992 318.18,-667.824 293.874,-605.179 			"/>
		</g>
		<g>
			<defs>
				<circle id="SVGID_51_" cx="232.917" cy="232.917" r="232.917"/>
			</defs>
			<clipPath id="SVGID_52_">
				<use xlink:href="#SVGID_51_"  style="overflow:visible;"/>
			</clipPath>
			<polygon style="clip-path:url(#SVGID_52_);fill:#D9DADB;" points="64.969,-649.146 85.137,-655.269 77.483,-589.927 
				76.257,-422.323 102.791,-293.361 102.497,-232.222 110.434,-158.15 100.133,-161.977 89.27,-136.532 89.71,-307.464 
				64.44,-422.323 47.451,-652.506 			"/>
		</g>
		<g>
			<defs>
				<circle id="SVGID_53_" cx="232.917" cy="232.917" r="232.917"/>
			</defs>
			<clipPath id="SVGID_54_">
				<use xlink:href="#SVGID_53_"  style="overflow:visible;"/>
			</clipPath>
			<polygon style="clip-path:url(#SVGID_54_);fill:#D9DADB;" points="402.403,-647.146 382.235,-653.269 389.889,-587.927 
				391.115,-420.323 364.581,-291.361 364.875,-230.222 356.938,-156.15 367.239,-159.977 378.102,-134.532 377.662,-305.464 
				402.932,-420.323 419.921,-650.506 			"/>
		</g>
		<g>
			<defs>
				<circle id="SVGID_55_" cx="232.917" cy="232.917" r="232.917"/>
			</defs>
			<clipPath id="SVGID_56_">
				<use xlink:href="#SVGID_55_"  style="overflow:visible;"/>
			</clipPath>
			<g style="clip-path:url(#SVGID_56_);">
				<polygon style="fill:#D9DADB;" points="119.624,-996.013 147.099,-980.749 143.926,-1016.919 				"/>
				<polygon style="fill:#D9DADB;" points="141.982,-1030.665 89.334,-1052.517 109.157,-999.162 				"/>
				<polygon style="fill:#D9DADB;" points="109.464,-993.895 145.348,-972.015 151.475,-928.254 116.466,-951.01 				"/>
				<polygon style="fill:#D9DADB;" points="118.217,-940.489 149.724,-918.608 154.1,-873.972 119.092,-901.979 				"/>
				<polygon style="fill:#D9DADB;" points="153.213,-850.245 114.704,-879.128 111.36,-840.323 84.042,-790.094 126.094,-732.187 
					147.974,-728.686 155.851,-810.956 				"/>
				<polygon style="fill:#D9DADB;" points="348.085,-996.013 320.61,-980.749 323.783,-1016.919 				"/>
				<polygon style="fill:#D9DADB;" points="325.727,-1030.665 378.375,-1052.517 358.552,-999.162 				"/>
				<polygon style="fill:#D9DADB;" points="358.245,-993.895 322.361,-972.015 316.234,-928.254 351.243,-951.01 				"/>
				<polygon style="fill:#D9DADB;" points="349.492,-940.489 317.985,-918.608 313.609,-873.972 348.617,-901.979 				"/>
				<polygon style="fill:#D9DADB;" points="314.496,-850.245 353.005,-879.128 356.349,-840.323 383.667,-790.094 341.615,-732.187 
					319.735,-728.686 311.858,-810.956 				"/>
				<g>
					<polygon style="fill:#D9DADB;" points="160.708,-1031.326 226.798,-1061.067 224.816,-1012.821 165.334,-982.419 					"/>
					<polygon style="fill:#D9DADB;" points="171.282,-970.523 172.604,-936.155 221.511,-946.73 224.155,-993.654 					"/>
					<polygon style="fill:#D9DADB;" points="229.442,-634.12 216.565,-759.247 216.241,-840.714 169.854,-863.469 164.603,-714.683 
											"/>
					<polygon style="fill:#D9DADB;" points="174.587,-919.633 173.926,-877.334 220.85,-864.777 221.511,-930.868 					"/>
					<polygon style="fill:#D9DADB;" points="307.001,-1031.326 240.911,-1061.067 242.893,-1012.821 302.375,-982.419 					"/>
					<polygon style="fill:#D9DADB;" points="296.427,-970.523 295.105,-936.155 246.198,-946.73 243.554,-993.654 					"/>
					<polygon style="fill:#D9DADB;" points="238.267,-634.12 251.144,-759.247 251.468,-840.714 297.855,-863.469 303.106,-714.683 
											"/>
					<polygon style="fill:#D9DADB;" points="293.122,-919.633 293.783,-877.334 246.859,-864.777 246.198,-930.868 					"/>
				</g>
			</g>
		</g>
	</g>
</g>
<g id="Layer_1_1_">
</g>
</svg>
