<?xml version="1.0" encoding="iso-8859-1"?>
<!-- Generator: Adobe Illustrator 22.0.1, SVG Export Plug-In . SVG Version: 6.00 Build 0)  -->
<svg version="1.1" xmlns="http://www.w3.org/2000/svg" xmlns:xlink="http://www.w3.org/1999/xlink" x="0px" y="0px"
	 viewBox="0 0 875.427 877.828" style="enable-background:new 0 0 875.427 877.828;" xml:space="preserve">
<g id="Back_Right_Glutes">
	<circle style="fill:#F7F7F7;" cx="437.339" cy="437.339" r="437.339"/>
	<g>
		<defs>
			<circle id="SVGID_1_" cx="437.339" cy="437.339" r="437.339"/>
		</defs>
		<clipPath id="SVGID_2_">
			<use xlink:href="#SVGID_1_"  style="overflow:visible;"/>
		</clipPath>
		<g style="clip-path:url(#SVGID_2_);">
			<polygon style="fill:#D9DADB;" points="397.885,-295.483 391.877,-232.742 312.449,-195.363 395.882,-185.351 432.593,-213.385 
				425.251,-317.51 			"/>
			<polygon style="fill:#D9DADB;" points="273.736,-53.861 291.757,-35.172 288.42,88.977 247.037,178.418 218.336,165.736 
				208.992,74.96 225.011,-20.487 			"/>
			<polygon style="fill:#D9DADB;" points="301.769,-29.164 300.435,11.551 327.133,121.015 373.188,176.415 366.514,229.145 
				371.853,232.482 405.894,163.066 411.901,88.31 368.516,-10.475 326.466,-12.478 305.107,-29.832 			"/>
			<polygon style="fill:#D9DADB;" points="259.052,178.418 258.384,248.501 180.721,362.861 219.004,233.15 			"/>
			<polygon style="fill:#D9DADB;" points="202.317,141.707 217.669,207.786 159.363,391.339 148.093,382.478 155.803,307.683 
				162.922,259.626 			"/>
			<polygon style="fill:#D9DADB;" points="524.11,-379.584 522.775,-452.338 488.067,-493.721 438.674,-503.065 386.612,-493.721 
				351.903,-452.338 350.569,-379.584 332.547,-374.244 339.222,-336.199 353.906,-327.522 371.927,-329.524 387.947,-293.481 
				409.306,-321.514 438.674,-330.219 465.373,-321.514 486.732,-293.481 502.751,-329.524 520.772,-327.522 535.457,-336.199 
				542.131,-374.244 			"/>
			<polygon style="fill:#D9DADB;" points="475.311,-295.483 481.319,-232.742 560.747,-195.363 477.314,-185.351 440.603,-213.385 
				447.945,-317.51 			"/>
			<g>
				<polygon style="fill:#D9DADB;" points="334.475,-154.648 329.136,-138.629 304.439,-127.282 291.757,-82.562 233.688,-34.504 
					233.02,-129.952 267.729,-183.349 296.43,-190.024 				"/>
				<polygon style="fill:#D9DADB;" points="319.124,-181.347 352.497,-152.646 376.526,-13.145 425.918,86.307 425.918,-144.636 
					388.54,-172.67 				"/>
				<polygon style="fill:#D9DADB;" points="345.822,-137.294 367.849,-23.157 319.124,-27.162 287.753,-64.54 307.109,-85.232 
					311.781,-113.265 				"/>
				<polygon style="fill:#D9DADB;" points="538.721,-154.648 544.06,-138.629 568.757,-127.282 581.438,-82.562 639.508,-34.504 
					640.176,-129.952 605.467,-183.349 576.766,-190.024 				"/>
				<polygon style="fill:#D9DADB;" points="554.072,-181.347 520.699,-152.646 496.67,-13.145 447.278,86.307 447.278,-144.636 
					484.656,-172.67 				"/>
				<polygon style="fill:#D9DADB;" points="527.374,-137.294 505.347,-23.157 554.072,-27.162 585.443,-64.54 566.087,-85.232 
					561.415,-113.265 				"/>
			</g>
			<polygon style="fill:#D9DADB;" points="599.46,-53.861 581.438,-35.172 584.776,88.977 626.159,178.418 654.86,165.736 
				664.204,74.96 648.185,-20.487 			"/>
			<polygon style="fill:#D9DADB;" points="571.427,-29.164 572.761,11.551 546.063,121.015 500.008,176.415 506.682,229.145 
				501.343,232.482 467.302,163.066 461.295,88.31 504.68,-10.475 546.73,-12.478 568.089,-29.832 			"/>
			<polygon style="fill:#D9DADB;" points="128.748,369.986 140.476,397.952 174.756,403.364 177.463,453.883 159.42,526.053 
				147.693,525.151 159.082,477.113 146.903,476.775 127.846,527.858 113.412,526.053 131.341,474.407 118.824,472.039 
				94.467,526.956 76.425,525.151 101.233,467.979 92.663,462.905 61.991,511.619 46.654,509.815 92.663,422.309 88.152,415.092 
				44.85,433.134 42.144,423.211 77.327,391.637 			"/>
			<polygon style="fill:#D9DADB;" points="747.118,369.986 735.391,397.952 701.11,403.364 698.403,453.883 716.446,526.053 
				728.174,525.151 716.784,477.113 728.963,476.775 748.02,527.858 762.454,526.053 744.525,474.407 757.042,472.039 
				781.399,526.956 799.442,525.151 774.633,467.979 783.203,462.905 813.876,511.619 829.212,509.815 783.203,422.309 
				787.714,415.092 831.016,433.134 833.722,423.211 798.539,391.637 			"/>
			<polygon style="fill:#D9DADB;" points="616.814,178.418 617.482,248.501 695.145,362.861 656.862,233.15 			"/>
			<polygon style="fill:#D9DADB;" points="673.549,141.707 658.197,207.786 716.504,391.339 727.773,382.478 720.063,307.683 
				712.944,259.626 			"/>
			<polygon style="fill:#D9DADB;" points="529.158,1381.565 512.638,1395.607 515.116,1417.91 548.682,1374.577 544.318,1369.437 
							"/>
			<polygon style="fill:#D9DADB;" points="543.661,1367.041 522.098,1359.818 514.596,1375.905 510.696,1391.471 512.061,1393.246 
							"/>
			<polygon style="fill:#D9DADB;" points="488.723,1391.87 488.723,1389.288 487.089,1381.888 477.122,1389.876 475.558,1399.206 
				476.712,1410.089 			"/>
			<polygon style="fill:#D9DADB;" points="345.15,1380.812 361.671,1394.855 359.193,1417.157 325.627,1373.824 329.99,1368.684 			
				"/>
			<polygon style="fill:#D9DADB;" points="330.647,1366.288 352.211,1359.065 359.713,1375.152 363.612,1390.719 362.247,1392.493 
							"/>
			<polygon style="fill:#D9DADB;" points="385.586,1391.117 385.586,1388.535 387.219,1381.135 397.186,1389.123 398.751,1398.453 
				397.596,1409.336 			"/>
		</g>
		<polygon style="clip-path:url(#SVGID_2_);fill:#D9DADB;" points="325.131,143.042 363.176,200.444 351.162,225.808 
			309.112,230.48 		"/>
		<polygon style="clip-path:url(#SVGID_2_);fill:#D9DADB;" points="361.841,238.489 411.234,291.887 394.547,290.552 
			335.143,292.554 268.396,342.614 303.104,244.497 		"/>
		<polygon style="clip-path:url(#SVGID_2_);fill:#D9DADB;" points="548.065,143.042 510.02,200.444 522.034,225.808 564.084,230.48 
					"/>
		<polygon style="clip-path:url(#SVGID_2_);fill:#D9DADB;" points="454.457,164.401 437.103,113.673 418.414,163.956 
			388.838,237.822 438.897,297.171 486.288,237.822 		"/>
		<polygon style="clip-path:url(#SVGID_2_);fill:#D9DADB;" points="511.355,238.489 461.962,291.887 478.649,290.552 
			538.053,292.554 604.8,342.614 570.092,244.497 		"/>
		<polygon style="clip-path:url(#SVGID_2_);fill:#D9DADB;" points="286.418,529.505 334.475,503.473 408.564,484.784 
			423.248,442.734 421.913,335.272 395.882,299.896 348.492,299.229 278.408,357.966 277.741,388.983 264.27,452.776 
			268.396,511.149 		"/>
		<polygon style="clip-path:url(#SVGID_2_);fill:#E0AF12;" points="586.776,529.505 538.718,503.473 464.63,484.784 
			449.945,442.734 451.28,335.272 477.311,299.896 524.702,299.229 594.785,357.966 595.453,388.983 608.923,452.776 
			604.797,511.149 		"/>
		<polygon style="clip-path:url(#SVGID_2_);fill:#D9DADB;" points="336.478,524.165 326.466,689.029 342.485,763.785 
			311.114,853.893 277.741,695.704 294.427,536.179 		"/>
		<polygon style="clip-path:url(#SVGID_2_);fill:#D9DADB;" points="373.856,514.82 394.547,569.552 402.557,713.725 
			425.251,574.892 422.581,487.454 		"/>
		<polygon style="clip-path:url(#SVGID_2_);fill:#D9DADB;" points="358.504,520.16 333.808,687.026 361.841,827.859 
			399.886,907.287 403.891,738.421 377.193,669.672 375.858,564.88 		"/>
		<polygon style="clip-path:url(#SVGID_2_);fill:#D9DADB;" points="277.741,634.488 286.516,538.567 264.27,522.803 264.27,549.08 
					"/>
		<polygon style="clip-path:url(#SVGID_2_);fill:#D9DADB;" points="536.718,524.165 546.73,689.029 530.711,763.785 
			562.082,853.893 595.455,695.704 578.769,536.179 		"/>
		<polygon style="clip-path:url(#SVGID_2_);fill:#D9DADB;" points="515.433,520.16 540.129,687.026 512.096,827.859 
			474.051,907.287 470.046,738.421 496.744,669.672 498.079,564.88 		"/>
		<polygon style="clip-path:url(#SVGID_2_);fill:#D9DADB;" points="499.34,514.82 478.649,569.552 470.639,713.725 447.945,574.892 
			450.615,487.454 		"/>
		<polygon style="clip-path:url(#SVGID_2_);fill:#D9DADB;" points="596.853,634.488 588.078,538.567 610.323,522.803 
			610.323,549.08 		"/>
		<polygon style="clip-path:url(#SVGID_2_);fill:#D9DADB;" points="363.515,1418.349 397.184,1416.158 382.018,1392.196 
			391.196,1344.669 371.173,1351.121 354.202,1349.422 367.155,1395.22 		"/>
		<polygon style="clip-path:url(#SVGID_2_);fill:#D9DADB;" points="510.381,1418.349 476.712,1416.158 491.878,1392.196 
			482.7,1344.669 502.723,1351.121 519.695,1349.422 506.741,1395.22 		"/>
		<polygon style="clip-path:url(#SVGID_2_);fill:#D9DADB;" points="361.189,873.382 365.525,1097.027 403.935,1140.393 
			422.521,1112.515 423.76,1052.422 407.033,962.593 		"/>
		<polygon style="clip-path:url(#SVGID_2_);fill:#D9DADB;" points="349.418,860.373 346.94,1043.129 357.472,1112.515 
			339.506,1127.384 307.91,1062.954 315.964,938.432 331.452,887.631 332.691,851.08 		"/>
		<polygon style="clip-path:url(#SVGID_2_);fill:#D9DADB;" points="362.428,1120.569 344.462,1136.676 371.72,1266.155 
			373.559,1344.669 391.641,1339.552 393.403,1267.394 406.413,1175.706 402.696,1154.642 		"/>
		<polygon style="clip-path:url(#SVGID_2_);fill:#D9DADB;" points="348.179,1211.018 364.906,1294.033 365.808,1312.472 
			369.171,1345.781 354.202,1344.669 345.955,1312.798 340.125,1278.545 340.125,1201.106 		"/>
		<polygon style="clip-path:url(#SVGID_2_);fill:#D9DADB;" points="513.552,873.382 509.215,1097.027 470.805,1140.393 
			452.22,1112.515 450.981,1052.422 467.707,962.593 		"/>
		<polygon style="clip-path:url(#SVGID_2_);fill:#D9DADB;" points="525.322,860.373 527.8,1043.129 517.269,1112.515 
			535.235,1127.384 566.83,1062.954 558.776,938.432 543.288,887.631 542.049,851.08 		"/>
		<polygon style="clip-path:url(#SVGID_2_);fill:#D9DADB;" points="511.468,1120.569 529.434,1136.676 502.176,1266.155 
			500.337,1344.669 482.255,1339.552 480.493,1267.394 467.483,1175.706 471.2,1154.642 		"/>
		<polygon style="clip-path:url(#SVGID_2_);fill:#D9DADB;" points="525.717,1211.018 508.99,1294.033 508.088,1312.472 
			504.725,1345.781 519.695,1344.669 527.941,1312.798 533.771,1278.545 533.771,1201.106 		"/>
	</g>
</g>
<g id="Layer_1">
</g>
</svg>
