<?xml version="1.0" encoding="iso-8859-1"?>
<!-- Generator: Adobe Illustrator 22.0.1, SVG Export Plug-In . SVG Version: 6.00 Build 0)  -->
<svg version="1.1" xmlns="http://www.w3.org/2000/svg" xmlns:xlink="http://www.w3.org/1999/xlink" x="0px" y="0px"
	 viewBox="0 0 875.427 877.828" style="enable-background:new 0 0 875.427 877.828;" xml:space="preserve">
<g id="Back_Right_Hamstrings">
	<circle style="fill:#F7F7F7;" cx="437.339" cy="437.339" r="437.339"/>
	<g>
		<defs>
			<circle id="SVGID_1_" cx="437.339" cy="437.339" r="437.339"/>
		</defs>
		<clipPath id="SVGID_2_">
			<use xlink:href="#SVGID_1_"  style="overflow:visible;"/>
		</clipPath>
		<g style="clip-path:url(#SVGID_2_);">
			<polygon style="fill:#D9DADB;" points="397.159,-458.734 391.152,-395.992 311.723,-358.614 395.156,-348.602 431.867,-376.636 
				424.525,-480.76 			"/>
			<polygon style="fill:#D9DADB;" points="273.01,-217.111 291.032,-198.422 287.694,-74.274 246.311,15.167 217.61,2.485 
				208.266,-88.29 224.285,-183.738 			"/>
			<polygon style="fill:#D9DADB;" points="301.044,-192.415 299.709,-151.7 326.407,-42.235 372.463,13.165 365.788,65.894 
				371.128,69.232 405.168,-0.185 411.176,-74.941 367.79,-173.726 325.74,-175.728 304.381,-193.082 			"/>
			<polygon style="fill:#D9DADB;" points="258.326,15.167 257.658,85.251 179.996,199.61 218.278,69.899 			"/>
			<polygon style="fill:#D9DADB;" points="201.591,-21.544 216.943,44.535 158.637,228.089 147.367,219.227 155.077,144.433 
				162.197,96.375 			"/>
			<polygon style="fill:#D9DADB;" points="523.384,-542.835 522.049,-615.589 487.341,-656.971 437.948,-666.316 385.886,-656.971 
				351.178,-615.589 349.843,-542.835 331.821,-537.495 338.496,-499.449 353.18,-490.772 371.202,-492.775 387.221,-456.732 
				408.58,-484.765 437.948,-493.47 464.647,-484.765 486.006,-456.732 502.025,-492.775 520.047,-490.772 534.731,-499.449 
				541.405,-537.495 			"/>
			<polygon style="fill:#D9DADB;" points="474.586,-458.734 480.593,-395.992 560.021,-358.614 476.588,-348.602 439.877,-376.636 
				447.22,-480.76 			"/>
			<g>
				<polygon style="fill:#D9DADB;" points="333.749,-317.899 328.41,-301.879 303.714,-290.533 291.032,-245.812 232.962,-197.755 
					232.295,-293.202 267.003,-346.6 295.704,-353.274 				"/>
				<polygon style="fill:#D9DADB;" points="318.398,-344.597 351.771,-315.896 375.8,-176.396 425.192,-76.943 425.192,-307.887 
					387.814,-335.92 				"/>
				<polygon style="fill:#D9DADB;" points="345.096,-300.544 367.123,-186.408 318.398,-190.413 287.027,-227.791 306.383,-248.482 
					311.056,-276.516 				"/>
				<polygon style="fill:#D9DADB;" points="537.995,-317.899 543.335,-301.879 568.031,-290.533 580.713,-245.812 638.782,-197.755 
					639.45,-293.202 604.741,-346.6 576.04,-353.274 				"/>
				<polygon style="fill:#D9DADB;" points="553.347,-344.597 519.973,-315.896 495.945,-176.396 446.552,-76.943 446.552,-307.887 
					483.93,-335.92 				"/>
				<polygon style="fill:#D9DADB;" points="526.648,-300.544 504.622,-186.408 553.347,-190.413 584.717,-227.791 565.361,-248.482 
					560.689,-276.516 				"/>
			</g>
			<polygon style="fill:#D9DADB;" points="598.734,-217.111 580.713,-198.422 584.05,-74.274 625.433,15.167 654.134,2.485 
				663.478,-88.29 647.459,-183.738 			"/>
			<polygon style="fill:#D9DADB;" points="570.701,-192.415 572.036,-151.7 545.337,-42.235 499.282,13.165 505.957,65.894 
				500.617,69.232 466.576,-0.185 460.569,-74.941 503.954,-173.726 546.004,-175.728 567.363,-193.082 			"/>
			<polygon style="fill:#D9DADB;" points="128.022,206.735 139.75,234.701 174.031,240.114 176.737,290.633 158.694,362.803 
				146.967,361.901 158.356,313.863 146.177,313.524 127.12,364.607 112.686,362.803 130.616,311.156 118.099,308.788 
				93.741,363.705 75.699,361.901 100.507,304.728 91.937,299.654 61.265,348.369 45.929,346.565 91.937,259.058 87.426,251.841 
				44.124,269.884 41.418,259.96 76.601,228.386 			"/>
			<polygon style="fill:#D9DADB;" points="746.392,206.735 734.665,234.701 700.384,240.114 697.678,290.633 715.72,362.803 
				727.448,361.901 716.058,313.863 728.237,313.524 747.295,364.607 761.729,362.803 743.799,311.156 756.316,308.788 
				780.673,363.705 798.716,361.901 773.907,304.728 782.477,299.654 813.15,348.369 828.486,346.565 782.477,259.058 
				786.988,251.841 830.29,269.884 832.997,259.96 797.814,228.386 			"/>
			<polygon style="fill:#D9DADB;" points="616.089,15.167 616.756,85.251 694.419,199.61 656.137,69.899 			"/>
			<polygon style="fill:#D9DADB;" points="672.823,-21.544 657.472,44.535 715.778,228.089 727.048,219.227 719.338,144.433 
				712.218,96.375 			"/>
			<polygon style="fill:#D9DADB;" points="528.432,1218.314 511.912,1232.357 514.39,1254.659 547.956,1211.326 543.592,1206.186 
							"/>
			<polygon style="fill:#D9DADB;" points="542.935,1203.79 521.372,1196.567 513.87,1212.654 509.971,1228.221 511.335,1229.995 			
				"/>
			<polygon style="fill:#D9DADB;" points="487.997,1228.619 487.997,1226.037 486.364,1218.637 476.396,1226.625 474.832,1235.955 
				475.986,1246.838 			"/>
			<polygon style="fill:#D9DADB;" points="344.425,1217.562 360.945,1231.604 358.467,1253.907 324.901,1210.574 329.264,1205.434 
							"/>
			<polygon style="fill:#D9DADB;" points="329.921,1203.037 351.485,1195.815 358.987,1211.902 362.886,1227.468 361.521,1229.242 
							"/>
			<polygon style="fill:#D9DADB;" points="384.86,1227.867 384.86,1225.284 386.493,1217.885 396.46,1225.873 398.025,1235.203 
				396.871,1246.086 			"/>
		</g>
		<polygon style="clip-path:url(#SVGID_2_);fill:#D9DADB;" points="324.405,-20.209 362.451,37.193 350.436,62.557 308.386,67.229 
					"/>
		<polygon style="clip-path:url(#SVGID_2_);fill:#D9DADB;" points="361.116,75.239 410.508,128.636 393.821,127.301 
			334.417,129.304 267.67,179.364 302.379,81.246 		"/>
		<polygon style="clip-path:url(#SVGID_2_);fill:#D9DADB;" points="547.339,-20.209 509.294,37.193 521.308,62.557 563.359,67.229 
					"/>
		<polygon style="clip-path:url(#SVGID_2_);fill:#D9DADB;" points="453.732,1.15 436.377,-49.577 417.688,0.705 388.112,74.571 
			438.172,133.921 485.562,74.571 		"/>
		<polygon style="clip-path:url(#SVGID_2_);fill:#D9DADB;" points="510.629,75.239 461.236,128.636 477.923,127.301 
			537.327,129.304 604.074,179.364 569.366,81.246 		"/>
		<polygon style="clip-path:url(#SVGID_2_);fill:#D9DADB;" points="285.692,366.254 333.749,340.223 407.838,321.534 
			422.522,279.483 421.188,172.021 395.156,136.646 347.766,135.978 277.682,194.715 277.015,225.732 263.544,289.525 
			267.67,347.899 		"/>
		<polygon style="clip-path:url(#SVGID_2_);fill:#D9DADB;" points="586.05,366.254 537.993,340.223 463.904,321.534 449.22,279.483 
			450.554,172.021 476.586,136.646 523.976,135.978 594.06,194.715 594.727,225.732 608.198,289.525 604.072,347.899 		"/>
		<polygon style="clip-path:url(#SVGID_2_);fill:#D9DADB;" points="335.752,360.914 325.74,525.778 341.759,600.534 
			310.388,690.642 277.015,532.453 293.702,372.929 		"/>
		<polygon style="clip-path:url(#SVGID_2_);fill:#D9DADB;" points="373.13,351.57 393.821,406.302 401.831,550.475 424.525,411.642 
			421.855,324.204 		"/>
		<polygon style="clip-path:url(#SVGID_2_);fill:#D9DADB;" points="357.778,356.91 333.082,523.776 361.115,664.608 399.16,744.036 
			403.166,575.171 376.467,506.422 375.132,401.63 		"/>
		<polygon style="clip-path:url(#SVGID_2_);fill:#D9DADB;" points="277.015,471.238 285.79,375.316 263.544,359.553 
			263.544,385.829 		"/>
		<g style="clip-path:url(#SVGID_2_);">
			<polygon style="fill:#E0AF12;" points="535.992,360.914 546.004,525.778 529.985,600.534 561.356,690.642 594.729,532.453 
				578.043,372.929 			"/>
			<polygon style="fill:#E0AF12;" points="514.707,356.91 539.404,523.776 511.371,664.608 473.325,744.036 469.32,575.171 
				496.018,506.422 497.353,401.63 			"/>
			<polygon style="fill:#E0AF12;" points="498.614,351.57 477.923,406.302 469.913,550.475 447.22,411.642 449.889,324.204 			"/>
			<polygon style="fill:#E0AF12;" points="596.127,471.238 587.352,375.316 609.598,359.553 609.598,385.829 			"/>
		</g>
		<polygon style="clip-path:url(#SVGID_2_);fill:#D9DADB;" points="362.789,1255.098 396.458,1252.908 381.292,1228.945 
			390.47,1181.419 370.447,1187.87 353.476,1186.171 366.429,1231.97 		"/>
		<polygon style="clip-path:url(#SVGID_2_);fill:#D9DADB;" points="509.655,1255.098 475.986,1252.908 491.152,1228.945 
			481.975,1181.419 501.997,1187.87 518.969,1186.171 506.015,1231.97 		"/>
		<polygon style="clip-path:url(#SVGID_2_);fill:#D9DADB;" points="360.463,710.132 364.799,933.777 403.209,977.143 
			421.795,949.265 423.034,889.172 406.307,799.342 		"/>
		<polygon style="clip-path:url(#SVGID_2_);fill:#D9DADB;" points="348.692,697.122 346.214,879.879 356.746,949.265 
			338.78,964.133 307.185,899.703 315.238,775.181 330.726,724.381 331.965,687.829 		"/>
		<polygon style="clip-path:url(#SVGID_2_);fill:#D9DADB;" points="361.702,957.318 343.736,973.426 370.995,1102.904 
			372.833,1181.419 390.915,1176.302 392.678,1104.143 405.687,1012.455 401.97,991.392 		"/>
		<polygon style="clip-path:url(#SVGID_2_);fill:#D9DADB;" points="347.453,1047.767 364.18,1130.782 365.083,1149.222 
			368.445,1182.531 353.476,1181.419 345.23,1149.547 339.399,1115.295 339.399,1037.855 		"/>
		<polygon style="clip-path:url(#SVGID_2_);fill:#D9DADB;" points="512.826,710.132 508.489,933.777 470.079,977.143 
			451.494,949.265 450.255,889.172 466.982,799.342 		"/>
		<polygon style="clip-path:url(#SVGID_2_);fill:#D9DADB;" points="524.597,697.122 527.075,879.879 516.543,949.265 
			534.509,964.133 566.104,899.703 558.05,775.181 542.562,724.381 541.323,687.829 		"/>
		<polygon style="clip-path:url(#SVGID_2_);fill:#D9DADB;" points="510.743,957.318 528.709,973.426 501.45,1102.904 
			499.611,1181.419 481.53,1176.302 479.767,1104.143 466.757,1012.455 470.474,991.392 		"/>
		<polygon style="clip-path:url(#SVGID_2_);fill:#D9DADB;" points="524.991,1047.767 508.265,1130.782 507.362,1149.222 
			504,1182.531 518.969,1181.419 527.215,1149.547 533.045,1115.295 533.045,1037.855 		"/>
	</g>
</g>
<g id="Layer_1">
</g>
</svg>
