<svg xmlns="http://www.w3.org/2000/svg" xmlns:xlink="http://www.w3.org/1999/xlink" viewBox="0 0 874.68 874.68"><defs><style>.cls-1{fill:none;}.cls-2{clip-path:url(#clip-path);}.cls-3{fill:#d9dadb;}.cls-4{fill:#f7f7f7;}.cls-5{clip-path:url(#clip-path-2);}.cls-6{fill:#e0af12;}</style><clipPath id="clip-path"><circle class="cls-1" cx="37.23" cy="1369.79" r="437.34"/></clipPath><clipPath id="clip-path-2"><circle class="cls-1" cx="437.34" cy="437.34" r="437.34"/></clipPath></defs><title>R Hamstring</title><g id="Back_Left_Hamstrings" data-name="Back Left Hamstrings"><g class="cls-2"><polygon class="cls-3" points="-0.37 473.72 -6.38 536.46 -85.81 573.84 -2.38 583.85 34.33 555.82 26.99 451.69 -0.37 473.72"/><polygon class="cls-3" points="-96.49 740.04 -97.82 780.75 -71.13 890.22 -25.07 945.62 -31.75 998.35 -26.41 1001.68 7.64 932.27 13.64 857.51 -29.74 758.73 -71.79 756.73 -93.15 739.37 -96.49 740.04"/><polygon class="cls-3" points="125.85 389.62 124.52 316.87 89.81 275.48 40.42 266.14 -11.65 275.48 -46.35 316.87 -47.69 389.62 -65.71 394.96 -59.04 433 -44.35 441.68 -26.33 439.68 -10.31 475.72 11.05 447.69 40.42 438.98 67.11 447.69 88.47 475.72 104.49 439.68 122.51 441.68 137.2 433 143.87 394.96 125.85 389.62"/><polygon class="cls-3" points="77.05 473.72 83.06 536.46 162.49 573.84 79.06 583.85 42.34 555.82 49.69 451.69 77.05 473.72"/><polygon class="cls-3" points="-79.14 587.86 -45.76 616.56 -21.73 756.06 27.66 855.51 27.66 624.57 -9.72 596.53 -79.14 587.86"/><polygon class="cls-3" points="140.46 614.55 145.8 630.57 170.5 641.92 183.18 686.64 241.25 734.7 241.92 639.25 207.21 585.85 178.51 579.18 140.46 614.55"/><polygon class="cls-3" points="155.81 587.86 122.44 616.56 98.41 756.06 49.02 855.51 49.02 624.57 86.4 596.53 155.81 587.86"/><polygon class="cls-3" points="129.12 631.91 107.09 746.05 155.81 742.04 187.19 704.66 167.83 683.97 163.16 655.94 129.12 631.91"/><polygon class="cls-3" points="201.2 715.34 183.18 734.03 186.52 858.18 227.9 947.62 256.6 934.94 265.95 844.16 249.93 748.72 201.2 715.34"/><polygon class="cls-3" points="173.17 740.04 174.5 780.75 147.8 890.22 101.75 945.62 108.42 998.35 103.08 1001.68 69.04 932.27 63.04 857.51 106.42 758.73 148.47 756.73 169.83 739.37 173.17 740.04"/></g></g><g id="Back_Right_Hamstrings" data-name="Back Right Hamstrings"><circle class="cls-4" cx="437.34" cy="437.34" r="437.34"/><g class="cls-5"><polygon class="cls-3" points="273.01 -217.11 291.03 -198.42 287.69 -74.27 246.31 15.17 217.61 2.48 208.27 -88.29 224.28 -183.74 273.01 -217.11"/><polygon class="cls-3" points="301.04 -192.41 299.71 -151.7 326.41 -42.23 372.46 13.16 365.79 65.89 371.13 69.23 405.17 -0.18 411.18 -74.94 367.79 -173.73 325.74 -175.73 304.38 -193.08 301.04 -192.41"/><polygon class="cls-3" points="258.33 15.17 257.66 85.25 180 199.61 218.28 69.9 258.33 15.17"/><polygon class="cls-3" points="201.59 -21.54 216.94 44.53 158.64 228.09 147.37 219.23 155.08 144.43 162.2 96.38 201.59 -21.54"/><polygon class="cls-3" points="598.73 -217.11 580.71 -198.42 584.05 -74.27 625.43 15.17 654.13 2.48 663.48 -88.29 647.46 -183.74 598.73 -217.11"/><polygon class="cls-3" points="570.7 -192.41 572.04 -151.7 545.34 -42.23 499.28 13.16 505.96 65.89 500.62 69.23 466.58 -0.18 460.57 -74.94 503.95 -173.73 546 -175.73 567.36 -193.08 570.7 -192.41"/><polygon class="cls-3" points="128.02 206.74 139.75 234.7 174.03 240.11 176.74 290.63 158.69 362.8 146.97 361.9 158.36 313.86 146.18 313.52 127.12 364.61 112.69 362.8 130.62 311.16 118.1 308.79 93.74 363.7 75.7 361.9 100.51 304.73 91.94 299.65 61.27 348.37 45.93 346.56 91.94 259.06 87.43 251.84 44.12 269.88 41.42 259.96 76.6 228.39 128.02 206.74"/><polygon class="cls-3" points="746.39 206.74 734.66 234.7 700.38 240.11 697.68 290.63 715.72 362.8 727.45 361.9 716.06 313.86 728.24 313.52 747.29 364.61 761.73 362.8 743.8 311.16 756.32 308.79 780.67 363.7 798.72 361.9 773.91 304.73 782.48 299.65 813.15 348.37 828.49 346.56 782.48 259.06 786.99 251.84 830.29 269.88 833 259.96 797.81 228.39 746.39 206.74"/><polygon class="cls-3" points="616.09 15.17 616.76 85.25 694.42 199.61 656.14 69.9 616.09 15.17"/><polygon class="cls-3" points="672.82 -21.54 657.47 44.53 715.78 228.09 727.05 219.23 719.34 144.43 712.22 96.38 672.82 -21.54"/><polygon class="cls-3" points="324.4 -20.21 362.45 37.19 350.44 62.56 308.39 67.23 324.4 -20.21"/><polygon class="cls-3" points="361.12 75.24 410.51 128.64 393.82 127.3 334.42 129.3 267.67 179.36 302.38 81.25 361.12 75.24"/><polygon class="cls-3" points="547.34 -20.21 509.29 37.19 521.31 62.56 563.36 67.23 547.34 -20.21"/><polygon class="cls-3" points="453.73 1.15 436.38 -49.58 417.69 0.7 388.11 74.57 438.17 133.92 485.56 74.57 453.73 1.15"/><polygon class="cls-3" points="510.63 75.24 461.24 128.64 477.92 127.3 537.33 129.3 604.07 179.36 569.37 81.25 510.63 75.24"/><polygon class="cls-3" points="285.69 366.25 333.75 340.22 407.84 321.53 422.52 279.48 421.19 172.02 395.16 136.65 347.77 135.98 277.68 194.72 277.01 225.73 263.54 289.52 267.67 347.9 285.69 366.25"/><polygon class="cls-3" points="586.05 366.25 537.99 340.22 463.9 321.53 449.22 279.48 450.55 172.02 476.59 136.65 523.98 135.98 594.06 194.72 594.73 225.73 608.2 289.52 604.07 347.9 586.05 366.25"/><polygon class="cls-3" points="335.75 360.91 325.74 525.78 341.76 600.53 310.39 690.64 277.01 532.45 293.7 372.93 335.75 360.91"/><polygon class="cls-3" points="373.13 351.57 393.82 406.3 401.83 550.48 424.52 411.64 421.86 324.2 373.13 351.57"/><polygon class="cls-3" points="357.78 356.91 333.08 523.78 361.12 664.61 399.16 744.04 403.17 575.17 376.47 506.42 375.13 401.63 357.78 356.91"/><polygon class="cls-3" points="277.01 471.24 285.79 375.32 263.54 359.55 263.54 385.83 277.01 471.24"/><polygon class="cls-6" points="535.99 360.91 546 525.78 529.99 600.53 561.36 690.64 594.73 532.45 578.04 372.93 535.99 360.91"/><polygon class="cls-6" points="514.71 356.91 539.4 523.78 511.37 664.61 473.32 744.04 469.32 575.17 496.02 506.42 497.35 401.63 514.71 356.91"/><polygon class="cls-6" points="498.61 351.57 477.92 406.3 469.91 550.48 447.22 411.64 449.89 324.2 498.61 351.57"/><polygon class="cls-6" points="596.13 471.24 587.35 375.32 609.6 359.55 609.6 385.83 596.13 471.24"/><polygon class="cls-3" points="360.46 710.13 364.8 933.78 403.21 977.14 421.8 949.26 423.03 889.17 406.31 799.34 360.46 710.13"/><polygon class="cls-3" points="348.69 697.12 346.21 879.88 356.75 949.26 338.78 964.13 307.19 899.7 315.24 775.18 330.73 724.38 331.96 687.83 348.69 697.12"/><polygon class="cls-3" points="512.83 710.13 508.49 933.78 470.08 977.14 451.49 949.26 450.25 889.17 466.98 799.34 512.83 710.13"/><polygon class="cls-3" points="524.6 697.12 527.08 879.88 516.54 949.26 534.51 964.13 566.1 899.7 558.05 775.18 542.56 724.38 541.32 687.83 524.6 697.12"/></g></g></svg>