<?xml version="1.0" encoding="iso-8859-1"?>
<!-- Generator: Adobe Illustrator 22.0.1, SVG Export Plug-In . SVG Version: 6.00 Build 0)  -->
<svg version="1.1" id="Layer_1" xmlns="http://www.w3.org/2000/svg" xmlns:xlink="http://www.w3.org/1999/xlink" x="0px" y="0px"
	 viewBox="0 0 784.017 780.59" style="enable-background:new 0 0 784.017 780.59;" xml:space="preserve">
<g id="Front_Right_Knee">
	<g>
		<g>
			<defs>
				<circle id="SVGID_1_" cx="390.295" cy="390.295" r="390.295"/>
			</defs>
			<clipPath id="SVGID_2_">
				<use xlink:href="#SVGID_1_"  style="overflow:visible;"/>
			</clipPath>
			<circle style="clip-path:url(#SVGID_2_);fill:#F7F7F7;" cx="390.295" cy="390.295" r="390.295"/>
		</g>
		<g>
			<defs>
				<circle id="SVGID_3_" cx="390.295" cy="390.295" r="390.295"/>
			</defs>
			<clipPath id="SVGID_4_">
				<use xlink:href="#SVGID_3_"  style="overflow:visible;"/>
			</clipPath>
			<g style="clip-path:url(#SVGID_4_);">
				<polygon style="fill:#D9DADB;" points="339.862,-938.407 371.798,-890.014 387.589,-834.413 350.793,-863.758 336.025,-916.237 
									"/>
				<polygon style="fill:#D9DADB;" points="324.545,-903.142 332.422,-866.383 286.035,-855.005 256.278,-865.508 				"/>
				<polygon style="fill:#D9DADB;" points="294.787,-841.877 258.028,-776.236 217.768,-756.106 242.274,-736.851 261.529,-680.837 
					306.165,-662.458 377.291,-697.605 359.553,-835.751 				"/>
				<path style="fill:#D9DADB;" d="M222.564-597.594c0.524-0.417,1.069-0.713,1.62-0.956l14.589-108.544l-28.007-40.26
					l-28.882,42.01l-24.506,147.037l2.249,19.737C179.379-559.542,199.986-579.632,222.564-597.594z"/>
				<path style="fill:#D9DADB;" d="M163.231-523.118c-0.537,0.579-1.111,0.985-1.694,1.313l3.719,32.64l51.638-55.139l4.78-35.561
					C200.906-562.32,181.725-543.068,163.231-523.118z"/>
				<polygon style="fill:#D9DADB;" points="168.756,-473.41 96.845,-279.249 119.757,-273.962 195.888,-430.525 209.891,-518.047 
									"/>
				<polygon style="fill:#D9DADB;" points="147.751,-548.679 158.253,-474.286 89.795,-291.586 79.221,-298.636 105.657,-439.63 
									"/>
				<polygon style="fill:#D9DADB;" points="167.881,-712.345 154.752,-572.31 146,-676.461 				"/>
				<polygon style="fill:#D9DADB;" points="474.596,-1050.417 474.596,-1101.935 447.432,-1148.77 389.328,-1167.635 
					331.282,-1148.77 304.118,-1101.935 304.118,-1050.417 291.005,-1047.607 296.625,-1002.646 318.169,-995.153 341.586,-946.445 
					389.584,-925.939 437.129,-946.445 460.546,-995.153 482.09,-1002.646 487.71,-1047.607 				"/>
				<polygon style="fill:#D9DADB;" points="66.939,-293.793 78.395,-266.475 111.881,-261.188 114.525,-211.84 96.901,-141.343 
					85.445,-142.224 96.57,-189.149 84.674,-189.479 66.058,-139.581 51.959,-141.343 69.473,-191.793 57.246,-194.106 
					33.453,-140.462 15.829,-142.224 40.062,-198.071 31.691,-203.028 1.73,-155.443 -13.251,-157.205 31.691,-242.683 
					27.285,-249.732 -15.013,-232.108 -17.657,-241.801 16.71,-272.644 				"/>
				<polygon style="fill:#D9DADB;" points="456.046,-903.142 448.169,-866.383 494.555,-855.005 524.313,-865.508 				"/>
				<polygon style="fill:#D9DADB;" points="485.803,-841.877 522.562,-776.236 562.822,-756.106 538.316,-736.851 519.062,-680.837 
					474.425,-662.458 403.3,-697.605 421.037,-835.751 				"/>
				<path style="fill:#D9DADB;" d="M558.027-597.594c-0.524-0.417-1.069-0.713-1.62-0.956l-14.589-108.544l28.007-40.26
					l28.882,42.01l24.506,147.037l-2.249,19.737C601.212-559.542,580.604-579.632,558.027-597.594z"/>
				<path style="fill:#D9DADB;" d="M617.36-523.118c0.537,0.579,1.111,0.985,1.694,1.313l-3.718,32.64l-51.638-55.139l-4.78-35.561
					C579.684-562.32,598.865-543.068,617.36-523.118z"/>
				<polygon style="fill:#D9DADB;" points="611.835,-473.41 683.745,-279.249 660.834,-273.962 584.703,-430.525 570.699,-518.047 
									"/>
				<polygon style="fill:#D9DADB;" points="632.84,-548.679 622.337,-474.286 690.795,-291.586 701.37,-298.636 674.933,-439.63 
									"/>
				<polygon style="fill:#D9DADB;" points="612.71,-712.345 625.838,-572.31 634.59,-676.461 				"/>
				<polygon style="fill:#D9DADB;" points="713.651,-293.793 702.195,-266.475 668.709,-261.188 666.066,-211.84 683.69,-141.343 
					695.146,-142.224 684.02,-189.149 695.917,-189.479 714.532,-139.581 728.632,-141.343 711.118,-191.793 723.344,-194.106 
					747.137,-140.462 764.761,-142.224 740.528,-198.071 748.9,-203.028 778.861,-155.443 793.841,-157.205 748.9,-242.683 
					753.306,-249.732 795.604,-232.108 798.248,-241.801 763.88,-272.644 				"/>
				<path style="fill:#D9DADB;" d="M540.597-861.175l16.098-8.709l50.384,55.739l0.276,21.223
					C607.355-792.923,541.569-860.681,540.597-861.175z"/>
				<path style="fill:#D9DADB;" d="M535.481-858.867c-0.027,1.112,70.717,75.344,70.717,75.344l2.135,65.927l-24.506-42.011
					l-47.262-20.13l-33.258-61.265L535.481-858.867z"/>
				<path style="fill:#D9DADB;" d="M239.993-861.175l-16.098-8.709l-50.384,55.739l-0.276,21.223
					C173.235-792.923,239.022-860.681,239.993-861.175z"/>
				<path style="fill:#D9DADB;" d="M245.109-858.867c0.027,1.112-70.717,75.344-70.717,75.344l-2.135,65.927l24.506-42.011
					l47.262-20.13l33.258-61.265L245.109-858.867z"/>
				<polygon style="fill:#D9DADB;" points="439.914,-938.407 407.978,-890.014 392.187,-834.413 428.984,-863.758 441.762,-917.09 
									"/>
				<polygon style="fill:#D9DADB;" points="339.179,282.079 333.011,301.466 319.793,383.419 318.03,492.689 336.536,599.316 
					335.655,462.728 355.041,408.093 357.685,348.17 				"/>
				<polygon style="fill:#D9DADB;" points="441.411,282.079 447.58,301.466 460.798,383.419 462.56,492.689 444.055,599.316 
					444.936,462.728 425.549,408.093 422.906,348.17 				"/>
			</g>
		</g>
		<g>
			<defs>
				<circle id="SVGID_5_" cx="390.295" cy="390.295" r="390.295"/>
			</defs>
			<clipPath id="SVGID_6_">
				<use xlink:href="#SVGID_5_"  style="overflow:visible;"/>
			</clipPath>
			<polygon style="clip-path:url(#SVGID_6_);fill:#D9DADB;" points="360.023,659.759 357.685,724.448 351.516,750.003 
				333.011,750.003 327.724,732.379 321.555,731.498 322.877,749.122 299.525,742.072 293.356,738.547 266.92,732.819 
				266.039,712.111 291.594,668.931 305.144,651.993 333.905,668.354 			"/>
		</g>
		<g>
			<defs>
				<circle id="SVGID_7_" cx="390.295" cy="390.295" r="390.295"/>
			</defs>
			<clipPath id="SVGID_8_">
				<use xlink:href="#SVGID_7_"  style="overflow:visible;"/>
			</clipPath>
			<polygon style="clip-path:url(#SVGID_8_);fill:#D9DADB;" points="419.906,659.759 422.244,724.448 428.412,750.003 
				446.918,750.003 452.205,732.379 458.374,731.498 457.052,749.122 480.404,742.072 486.572,738.547 513.009,732.819 
				513.89,712.111 488.335,668.931 474.784,651.993 446.024,668.354 			"/>
		</g>
		<g>
			<defs>
				<circle id="SVGID_9_" cx="390.295" cy="390.295" r="390.295"/>
			</defs>
			<clipPath id="SVGID_10_">
				<use xlink:href="#SVGID_9_"  style="overflow:visible;"/>
			</clipPath>
			<polygon style="clip-path:url(#SVGID_10_);fill:#D9DADB;" points="298.237,611.553 297.242,621.756 308.938,644.651 
				333.327,660.578 358.378,652.366 350.498,628.502 			"/>
		</g>
		<g>
			<defs>
				<circle id="SVGID_11_" cx="390.295" cy="390.295" r="390.295"/>
			</defs>
			<clipPath id="SVGID_12_">
				<use xlink:href="#SVGID_11_"  style="overflow:visible;"/>
			</clipPath>
			<polygon style="clip-path:url(#SVGID_12_);fill:#D9DADB;" points="481.692,611.553 482.687,621.756 470.991,644.651 
				446.602,660.578 421.55,652.366 429.431,628.502 			"/>
		</g>
		<g>
			<defs>
				<circle id="SVGID_13_" cx="390.295" cy="390.295" r="390.295"/>
			</defs>
			<clipPath id="SVGID_14_">
				<use xlink:href="#SVGID_13_"  style="overflow:visible;"/>
			</clipPath>
			<polygon style="clip-path:url(#SVGID_14_);fill:#D9DADB;" points="296.881,331.427 301.287,495.333 332.991,614.223 
				296.423,603.055 234.315,379.894 256.345,235.375 			"/>
		</g>
		<g>
			<defs>
				<circle id="SVGID_15_" cx="390.295" cy="390.295" r="390.295"/>
			</defs>
			<clipPath id="SVGID_16_">
				<use xlink:href="#SVGID_15_"  style="overflow:visible;"/>
			</clipPath>
			<polygon style="clip-path:url(#SVGID_16_);fill:#D9DADB;" points="483.048,331.427 478.642,495.333 446.937,614.223 
				483.506,603.055 545.614,379.894 523.583,235.375 			"/>
		</g>
		<g>
			<defs>
				<circle id="SVGID_17_" cx="390.295" cy="390.295" r="390.295"/>
			</defs>
			<clipPath id="SVGID_18_">
				<use xlink:href="#SVGID_17_"  style="overflow:visible;"/>
			</clipPath>
			<polygon style="clip-path:url(#SVGID_18_);fill:#D9DADB;" points="272.207,162.234 269.564,186.027 288.069,208.939 
				294.238,245.068 306.575,250.356 317.149,195.72 324.199,176.334 318.03,163.997 			"/>
		</g>
		<g>
			<defs>
				<circle id="SVGID_19_" cx="390.295" cy="390.295" r="390.295"/>
			</defs>
			<clipPath id="SVGID_20_">
				<use xlink:href="#SVGID_19_"  style="overflow:visible;"/>
			</clipPath>
			<polygon style="clip-path:url(#SVGID_20_);fill:#D9DADB;" points="354.16,163.997 340.942,201.008 312.743,255.643 
				319.793,305.872 340.061,249.474 356.804,217.751 			"/>
		</g>
		<g>
			<defs>
				<circle id="SVGID_21_" cx="390.295" cy="390.295" r="390.295"/>
			</defs>
			<clipPath id="SVGID_22_">
				<use xlink:href="#SVGID_21_"  style="overflow:visible;"/>
			</clipPath>
			<g style="clip-path:url(#SVGID_22_);">
				<polygon style="fill:#E0AF12;" points="508.383,162.234 511.027,186.027 492.521,208.939 486.353,245.068 474.016,250.356 
					463.441,195.72 456.392,176.334 462.56,163.997 				"/>
				<polygon style="fill:#E0AF12;" points="426.431,163.997 439.649,201.008 467.848,255.643 460.798,305.872 440.53,249.474 
					423.787,217.751 				"/>
			</g>
		</g>
		<g>
			<defs>
				<circle id="SVGID_23_" cx="390.295" cy="390.295" r="390.295"/>
			</defs>
			<clipPath id="SVGID_24_">
				<use xlink:href="#SVGID_23_"  style="overflow:visible;"/>
			</clipPath>
			<polygon style="clip-path:url(#SVGID_24_);fill:#D9DADB;" points="253.504,-276.812 311.428,-149.294 324.598,-46.018 
				299.905,99.268 246.401,-48.644 243.109,-200.932 252.829,-276.719 			"/>
		</g>
		<g>
			<defs>
				<circle id="SVGID_25_" cx="390.295" cy="390.295" r="390.295"/>
			</defs>
			<clipPath id="SVGID_26_">
				<use xlink:href="#SVGID_25_"  style="overflow:visible;"/>
			</clipPath>
			<polygon style="clip-path:url(#SVGID_26_);fill:#D9DADB;" points="246.109,-4.418 238.701,-39.892 289.735,100.143 
				282.034,119.967 259.347,58.964 			"/>
		</g>
		<g>
			<defs>
				<circle id="SVGID_27_" cx="390.295" cy="390.295" r="390.295"/>
			</defs>
			<clipPath id="SVGID_28_">
				<use xlink:href="#SVGID_27_"  style="overflow:visible;"/>
			</clipPath>
			<polygon style="clip-path:url(#SVGID_28_);fill:#D9DADB;" points="327.225,-91.779 328.599,-88.501 354.357,-27.013 
				337.728,125.275 311.471,111.272 334.227,-30.514 			"/>
		</g>
		<g>
			<defs>
				<circle id="SVGID_29_" cx="390.295" cy="390.295" r="390.295"/>
			</defs>
			<clipPath id="SVGID_30_">
				<use xlink:href="#SVGID_29_"  style="overflow:visible;"/>
			</clipPath>
			<polygon style="clip-path:url(#SVGID_30_);fill:#D9DADB;" points="453.365,-91.779 451.992,-88.501 426.234,-27.013 
				442.863,125.275 469.119,111.272 446.364,-30.514 			"/>
		</g>
		<g>
			<defs>
				<circle id="SVGID_31_" cx="390.295" cy="390.295" r="390.295"/>
			</defs>
			<clipPath id="SVGID_32_">
				<use xlink:href="#SVGID_31_"  style="overflow:visible;"/>
			</clipPath>
			<polygon style="clip-path:url(#SVGID_32_);fill:#D9DADB;" points="526.75,-274.812 468.825,-147.294 455.655,-44.018 
				480.349,101.268 533.852,-46.644 537.145,-198.932 527.425,-274.719 			"/>
		</g>
		<g>
			<defs>
				<circle id="SVGID_33_" cx="390.295" cy="390.295" r="390.295"/>
			</defs>
			<clipPath id="SVGID_34_">
				<use xlink:href="#SVGID_33_"  style="overflow:visible;"/>
			</clipPath>
			<polygon style="clip-path:url(#SVGID_34_);fill:#D9DADB;" points="534.145,-2.418 541.553,-37.892 490.519,102.143 
				498.22,121.967 520.907,60.964 			"/>
		</g>
		<g>
			<defs>
				<circle id="SVGID_35_" cx="390.295" cy="390.295" r="390.295"/>
			</defs>
			<clipPath id="SVGID_36_">
				<use xlink:href="#SVGID_35_"  style="overflow:visible;"/>
			</clipPath>
			<polygon style="clip-path:url(#SVGID_36_);fill:#D9DADB;" points="238.43,-390.787 207.759,-278.689 222.825,-276.236 
				252.453,-282.851 292.719,-286.6 312.863,-311.427 302.959,-336.162 278.39,-343.532 			"/>
		</g>
		<g>
			<defs>
				<circle id="SVGID_37_" cx="390.295" cy="390.295" r="390.295"/>
			</defs>
			<clipPath id="SVGID_38_">
				<use xlink:href="#SVGID_37_"  style="overflow:visible;"/>
			</clipPath>
			<polygon style="clip-path:url(#SVGID_38_);fill:#D9DADB;" points="541.823,-388.787 572.495,-276.689 557.428,-274.236 
				527.8,-280.851 487.535,-284.6 467.391,-309.427 477.295,-334.162 501.863,-341.532 			"/>
		</g>
		<g>
			<defs>
				<circle id="SVGID_39_" cx="390.295" cy="390.295" r="390.295"/>
			</defs>
			<clipPath id="SVGID_40_">
				<use xlink:href="#SVGID_39_"  style="overflow:visible;"/>
			</clipPath>
			<polygon style="clip-path:url(#SVGID_40_);fill:#D9DADB;" points="295.542,-280.845 262.781,-277.951 320.775,-163.547 
				360.285,-41.016 356.17,-125.913 			"/>
		</g>
		<g>
			<defs>
				<circle id="SVGID_41_" cx="390.295" cy="390.295" r="390.295"/>
			</defs>
			<clipPath id="SVGID_42_">
				<use xlink:href="#SVGID_41_"  style="overflow:visible;"/>
			</clipPath>
			<polygon style="clip-path:url(#SVGID_42_);fill:#D9DADB;" points="359.715,-256.081 360.185,-256.671 357.026,-264.709 
				318.686,-306.685 305.633,-288.517 329.939,-225.872 			"/>
		</g>
		<g>
			<defs>
				<circle id="SVGID_43_" cx="390.295" cy="390.295" r="390.295"/>
			</defs>
			<clipPath id="SVGID_44_">
				<use xlink:href="#SVGID_43_"  style="overflow:visible;"/>
			</clipPath>
			<polygon style="clip-path:url(#SVGID_44_);fill:#D9DADB;" points="334.807,-213.325 361.932,-143.417 370.986,-229.188 
				365.632,-242.812 			"/>
		</g>
		<g>
			<defs>
				<circle id="SVGID_45_" cx="390.295" cy="390.295" r="390.295"/>
			</defs>
			<clipPath id="SVGID_46_">
				<use xlink:href="#SVGID_45_"  style="overflow:visible;"/>
			</clipPath>
			<polygon style="clip-path:url(#SVGID_46_);fill:#D9DADB;" points="445.783,-213.325 418.659,-143.417 409.605,-229.188 
				414.959,-242.812 			"/>
		</g>
		<g>
			<defs>
				<circle id="SVGID_47_" cx="390.295" cy="390.295" r="390.295"/>
			</defs>
			<clipPath id="SVGID_48_">
				<use xlink:href="#SVGID_47_"  style="overflow:visible;"/>
			</clipPath>
			<polygon style="clip-path:url(#SVGID_48_);fill:#D9DADB;" points="484.712,-278.845 517.473,-275.951 459.478,-161.547 
				419.968,-39.016 424.084,-123.913 			"/>
		</g>
		<g>
			<defs>
				<circle id="SVGID_49_" cx="390.295" cy="390.295" r="390.295"/>
			</defs>
			<clipPath id="SVGID_50_">
				<use xlink:href="#SVGID_49_"  style="overflow:visible;"/>
			</clipPath>
			<polygon style="clip-path:url(#SVGID_50_);fill:#D9DADB;" points="420.539,-254.081 420.068,-254.671 423.227,-262.709 
				461.568,-304.685 474.621,-286.517 450.315,-223.872 			"/>
		</g>
		<g>
			<defs>
				<circle id="SVGID_51_" cx="390.295" cy="390.295" r="390.295"/>
			</defs>
			<clipPath id="SVGID_52_">
				<use xlink:href="#SVGID_51_"  style="overflow:visible;"/>
			</clipPath>
			<polygon style="clip-path:url(#SVGID_52_);fill:#D9DADB;" points="221.409,-267.839 241.578,-273.962 233.924,-208.621 
				232.698,-41.016 259.232,87.946 258.938,149.085 266.874,223.157 256.573,219.33 245.711,244.775 246.151,73.843 
				220.881,-41.016 203.891,-271.199 			"/>
		</g>
		<g>
			<defs>
				<circle id="SVGID_53_" cx="390.295" cy="390.295" r="390.295"/>
			</defs>
			<clipPath id="SVGID_54_">
				<use xlink:href="#SVGID_53_"  style="overflow:visible;"/>
			</clipPath>
			<polygon style="clip-path:url(#SVGID_54_);fill:#D9DADB;" points="558.844,-265.839 538.676,-271.962 546.33,-206.621 
				547.556,-39.016 521.021,89.946 521.315,151.085 513.379,225.157 523.68,221.33 534.542,246.775 534.103,75.843 559.373,-39.016 
				576.362,-269.199 			"/>
		</g>
		<g>
			<defs>
				<circle id="SVGID_55_" cx="390.295" cy="390.295" r="390.295"/>
			</defs>
			<clipPath id="SVGID_56_">
				<use xlink:href="#SVGID_55_"  style="overflow:visible;"/>
			</clipPath>
			<g style="clip-path:url(#SVGID_56_);">
				<polygon style="fill:#D9DADB;" points="276.064,-614.706 303.539,-599.442 300.367,-635.613 				"/>
				<polygon style="fill:#D9DADB;" points="298.423,-649.358 245.775,-671.21 265.597,-617.855 				"/>
				<polygon style="fill:#D9DADB;" points="265.905,-612.588 301.789,-590.708 307.916,-546.947 272.907,-569.703 				"/>
				<polygon style="fill:#D9DADB;" points="274.657,-559.182 306.165,-537.301 310.541,-492.665 275.533,-520.672 				"/>
				<polygon style="fill:#D9DADB;" points="309.654,-468.939 271.144,-497.821 267.8,-459.016 240.483,-408.787 282.534,-350.88 
					304.415,-347.379 312.292,-429.65 				"/>
				<polygon style="fill:#D9DADB;" points="504.526,-614.706 477.051,-599.442 480.224,-635.613 				"/>
				<polygon style="fill:#D9DADB;" points="482.168,-649.358 534.815,-671.21 514.993,-617.855 				"/>
				<polygon style="fill:#D9DADB;" points="514.685,-612.588 478.802,-590.708 472.675,-546.947 507.684,-569.703 				"/>
				<polygon style="fill:#D9DADB;" points="505.933,-559.182 474.425,-537.301 470.049,-492.665 505.058,-520.672 				"/>
				<polygon style="fill:#D9DADB;" points="470.937,-468.939 509.446,-497.821 512.79,-459.016 540.108,-408.787 498.056,-350.88 
					476.176,-347.379 468.299,-429.65 				"/>
				<g>
					<polygon style="fill:#D9DADB;" points="317.148,-650.019 383.239,-679.76 381.257,-631.514 321.775,-601.112 					"/>
					<polygon style="fill:#D9DADB;" points="327.723,-589.216 329.045,-554.848 377.952,-565.423 380.596,-612.347 					"/>
					<polygon style="fill:#D9DADB;" points="385.883,-252.813 373.006,-377.941 372.682,-459.407 326.295,-482.163 
						321.044,-333.376 					"/>
					<polygon style="fill:#D9DADB;" points="331.027,-538.326 330.366,-496.027 377.291,-483.47 377.952,-549.561 					"/>
					<polygon style="fill:#D9DADB;" points="463.442,-650.019 397.351,-679.76 399.334,-631.514 458.816,-601.112 					"/>
					<polygon style="fill:#D9DADB;" points="452.868,-589.216 451.546,-554.848 402.639,-565.423 399.995,-612.347 					"/>
					<polygon style="fill:#D9DADB;" points="394.708,-252.813 407.584,-377.941 407.909,-459.407 454.295,-482.163 
						459.547,-333.376 					"/>
					<polygon style="fill:#D9DADB;" points="449.563,-538.326 450.224,-496.027 403.3,-483.47 402.639,-549.561 					"/>
				</g>
			</g>
		</g>
	</g>
</g>
<g id="Layer_1_1_">
</g>
</svg>
