<?xml version="1.0" encoding="iso-8859-1"?>
<!-- Generator: Adobe Illustrator 22.0.1, SVG Export Plug-In . SVG Version: 6.00 Build 0)  -->
<svg version="1.1" xmlns="http://www.w3.org/2000/svg" xmlns:xlink="http://www.w3.org/1999/xlink" x="0px" y="0px"
	 viewBox="0 0 875.427 877.828" style="enable-background:new 0 0 875.427 877.828;" xml:space="preserve">
<g id="Front_Left_Shin">
	<g>
		<defs>
			<circle id="SVGID_1_" cx="390.295" cy="390.295" r="390.295"/>
		</defs>
		<clipPath id="SVGID_2_">
			<use xlink:href="#SVGID_1_"  style="overflow:visible;"/>
		</clipPath>
		<circle style="clip-path:url(#SVGID_2_);fill:#F7F7F7;" cx="390.295" cy="390.295" r="390.295"/>
		<g style="clip-path:url(#SVGID_2_);">
			<polygon style="fill:#D9DADB;" points="340.8,-1004.511 372.736,-956.118 388.527,-900.517 351.731,-929.861 336.963,-982.341 
							"/>
			<polygon style="fill:#D9DADB;" points="325.483,-969.246 333.36,-932.487 286.973,-921.109 257.216,-931.612 			"/>
			<polygon style="fill:#D9DADB;" points="295.725,-907.981 258.966,-842.34 218.706,-822.21 243.212,-802.955 262.467,-746.941 
				307.103,-728.561 378.229,-763.708 360.491,-901.854 			"/>
			<path style="fill:#D9DADB;" d="M223.502-663.698c0.524-0.417,1.069-0.713,1.62-0.956l14.589-108.544l-28.007-40.26l-28.882,42.01
				L158.316-624.41l2.249,19.737C180.317-625.645,200.924-645.736,223.502-663.698z"/>
			<path style="fill:#D9DADB;" d="M164.169-589.221c-0.537,0.58-1.111,0.986-1.694,1.313l3.719,32.64l51.638-55.138l4.78-35.561
				C201.844-628.424,182.663-609.172,164.169-589.221z"/>
			<polygon style="fill:#D9DADB;" points="169.694,-539.514 97.783,-345.353 120.695,-340.066 196.826,-496.629 210.829,-584.15 			
				"/>
			<polygon style="fill:#D9DADB;" points="148.689,-614.783 159.191,-540.389 90.733,-357.69 80.159,-364.74 106.595,-505.734 			
				"/>
			<polygon style="fill:#D9DADB;" points="168.819,-778.449 155.69,-638.414 146.938,-742.565 			"/>
			<polygon style="fill:#D9DADB;" points="475.534,-1116.521 475.534,-1168.039 448.37,-1214.874 390.266,-1233.739 
				332.22,-1214.874 305.056,-1168.039 305.056,-1116.521 291.943,-1113.711 297.563,-1068.75 319.107,-1061.256 342.524,-1012.549 
				390.522,-992.043 438.067,-1012.549 461.484,-1061.256 483.028,-1068.75 488.648,-1113.711 			"/>
			<polygon style="fill:#D9DADB;" points="67.877,-359.897 79.333,-332.579 112.819,-327.292 115.463,-277.944 97.839,-207.447 
				86.383,-208.328 97.508,-255.253 85.612,-255.583 66.996,-205.685 52.897,-207.447 70.411,-257.896 58.184,-260.21 
				34.391,-206.566 16.767,-208.328 41,-264.175 32.629,-269.132 2.668,-221.546 -12.313,-223.309 32.629,-308.786 28.223,-315.836 
				-14.075,-298.212 -16.719,-307.905 17.648,-338.748 			"/>
			<polygon style="fill:#D9DADB;" points="456.984,-969.246 449.107,-932.487 495.493,-921.109 525.251,-931.612 			"/>
			<polygon style="fill:#D9DADB;" points="486.741,-907.981 523.5,-842.34 563.76,-822.21 539.254,-802.955 520,-746.941 
				475.363,-728.561 404.238,-763.708 421.975,-901.854 			"/>
			<path style="fill:#D9DADB;" d="M558.965-663.698c-0.524-0.417-1.069-0.713-1.62-0.956l-14.589-108.544l28.007-40.26l28.882,42.01
				L624.15-624.41l-2.248,19.737C602.15-625.645,581.542-645.736,558.965-663.698z"/>
			<path style="fill:#D9DADB;" d="M618.298-589.221c0.537,0.58,1.111,0.986,1.694,1.313l-3.718,32.64l-51.638-55.138l-4.78-35.561
				C580.622-628.424,599.803-609.172,618.298-589.221z"/>
			<polygon style="fill:#D9DADB;" points="612.773,-539.514 684.683,-345.353 661.772,-340.066 585.641,-496.629 571.637,-584.15 
							"/>
			<polygon style="fill:#D9DADB;" points="633.778,-614.783 623.275,-540.389 691.733,-357.69 702.308,-364.74 675.871,-505.734 			
				"/>
			<polygon style="fill:#D9DADB;" points="613.648,-778.449 626.776,-638.414 635.528,-742.565 			"/>
			<polygon style="fill:#D9DADB;" points="714.589,-359.897 703.133,-332.579 669.647,-327.292 667.004,-277.944 684.628,-207.447 
				696.084,-208.328 684.958,-255.253 696.855,-255.583 715.47,-205.685 729.57,-207.447 712.056,-257.896 724.282,-260.21 
				748.075,-206.566 765.699,-208.328 741.466,-264.175 749.838,-269.132 779.799,-221.546 794.779,-223.309 749.838,-308.786 
				754.244,-315.836 796.542,-298.212 799.186,-307.905 764.818,-338.748 			"/>
			<path style="fill:#D9DADB;" d="M541.535-927.279l16.098-8.709l50.384,55.739l0.276,21.223
				C608.293-859.026,542.507-926.785,541.535-927.279z"/>
			<path style="fill:#D9DADB;" d="M536.419-924.97c-0.027,1.112,70.717,75.344,70.717,75.344l2.135,65.927l-24.506-42.011
				l-47.262-20.13l-33.258-61.265L536.419-924.97z"/>
			<path style="fill:#D9DADB;" d="M240.931-927.279l-16.098-8.709l-50.384,55.739l-0.276,21.223
				C174.173-859.026,239.96-926.785,240.931-927.279z"/>
			<path style="fill:#D9DADB;" d="M246.047-924.97c0.027,1.112-70.717,75.344-70.717,75.344l-2.135,65.927l24.506-42.011
				l47.262-20.13l33.258-61.265L246.047-924.97z"/>
			<polygon style="fill:#D9DADB;" points="440.852,-1004.511 408.916,-956.118 393.125,-900.517 429.922,-929.861 442.7,-983.193 
							"/>
			<polygon style="fill:#D9DADB;" points="340.117,215.975 333.949,235.362 320.731,317.315 318.968,426.585 337.474,533.212 
				336.593,396.624 355.979,341.989 358.623,282.066 			"/>
			<polygon style="fill:#D9DADB;" points="442.349,215.975 448.518,235.362 461.736,317.315 463.498,426.585 444.993,533.212 
				445.874,396.624 426.487,341.989 423.844,282.066 			"/>
		</g>
		<polygon style="clip-path:url(#SVGID_2_);fill:#D9DADB;" points="360.961,593.655 358.623,658.344 352.454,683.899 
			333.949,683.899 328.662,666.275 322.493,665.394 323.815,683.018 300.463,675.968 294.294,672.443 267.858,666.716 
			266.977,646.007 292.532,602.828 306.082,585.89 334.843,602.25 		"/>
		<polygon style="clip-path:url(#SVGID_2_);fill:#D9DADB;" points="420.844,593.655 423.182,658.344 429.35,683.899 
			447.856,683.899 453.143,666.275 459.312,665.394 457.99,683.018 481.342,675.968 487.51,672.443 513.947,666.716 
			514.828,646.007 489.273,602.828 475.722,585.89 446.962,602.25 		"/>
		<polygon style="clip-path:url(#SVGID_2_);fill:#D9DADB;" points="299.175,545.449 298.18,555.652 309.876,578.547 
			334.265,594.475 359.316,586.262 351.436,562.398 		"/>
		<polygon style="clip-path:url(#SVGID_2_);fill:#D9DADB;" points="482.63,545.449 483.625,555.652 471.929,578.547 447.54,594.475 
			422.488,586.262 430.369,562.398 		"/>
		<polygon style="clip-path:url(#SVGID_2_);fill:#E0AF12;" points="297.819,265.323 302.225,429.229 333.929,548.12 
			297.361,536.951 235.253,313.79 257.283,169.271 		"/>
		<polygon style="clip-path:url(#SVGID_2_);fill:#D9DADB;" points="483.986,265.323 479.58,429.229 447.875,548.12 484.444,536.951 
			546.552,313.79 524.521,169.271 		"/>
		<polygon style="clip-path:url(#SVGID_2_);fill:#D9DADB;" points="273.145,96.131 270.502,119.923 289.007,142.835 
			295.176,178.964 307.513,184.252 318.087,129.617 325.137,110.23 318.968,97.893 		"/>
		<polygon style="clip-path:url(#SVGID_2_);fill:#D9DADB;" points="355.098,97.893 341.88,134.904 313.681,189.539 320.731,239.768 
			340.999,183.371 357.742,151.647 		"/>
		<polygon style="clip-path:url(#SVGID_2_);fill:#D9DADB;" points="509.321,96.131 511.965,119.923 493.459,142.835 
			487.291,178.964 474.954,184.252 464.379,129.617 457.33,110.23 463.498,97.893 		"/>
		<polygon style="clip-path:url(#SVGID_2_);fill:#D9DADB;" points="427.369,97.893 440.587,134.904 468.786,189.539 
			461.736,239.768 441.468,183.371 424.725,151.647 		"/>
		<polygon style="clip-path:url(#SVGID_2_);fill:#D9DADB;" points="254.442,-342.916 312.366,-215.398 325.536,-112.122 
			300.843,33.164 247.339,-114.748 244.047,-267.035 253.767,-342.823 		"/>
		<polygon style="clip-path:url(#SVGID_2_);fill:#D9DADB;" points="247.047,-70.522 239.639,-105.995 290.673,34.039 
			282.972,53.864 260.285,-7.139 		"/>
		<polygon style="clip-path:url(#SVGID_2_);fill:#D9DADB;" points="328.163,-157.883 329.537,-154.604 355.295,-93.117 
			338.666,59.171 312.409,45.168 335.165,-96.618 		"/>
		<polygon style="clip-path:url(#SVGID_2_);fill:#D9DADB;" points="454.303,-157.883 452.93,-154.604 427.172,-93.117 
			443.801,59.171 470.057,45.168 447.302,-96.618 		"/>
		<polygon style="clip-path:url(#SVGID_2_);fill:#D9DADB;" points="527.688,-340.916 469.763,-213.398 456.593,-110.122 
			481.287,35.164 534.79,-112.748 538.083,-265.035 528.363,-340.823 		"/>
		<polygon style="clip-path:url(#SVGID_2_);fill:#D9DADB;" points="535.083,-68.522 542.491,-103.995 491.457,36.039 
			499.158,55.864 521.845,-5.139 		"/>
		<polygon style="clip-path:url(#SVGID_2_);fill:#D9DADB;" points="239.368,-456.891 208.697,-344.793 223.763,-342.34 
			253.391,-348.954 293.657,-352.704 313.801,-377.531 303.897,-402.265 279.328,-409.636 		"/>
		<polygon style="clip-path:url(#SVGID_2_);fill:#D9DADB;" points="542.761,-454.891 573.433,-342.793 558.366,-340.34 
			528.738,-346.954 488.473,-350.704 468.329,-375.531 478.233,-400.265 502.801,-407.636 		"/>
		<polygon style="clip-path:url(#SVGID_2_);fill:#D9DADB;" points="296.48,-346.948 263.719,-344.055 321.713,-229.651 
			361.223,-107.12 357.108,-192.016 		"/>
		<polygon style="clip-path:url(#SVGID_2_);fill:#D9DADB;" points="360.653,-322.185 361.123,-322.775 357.964,-330.812 
			319.624,-372.789 306.571,-354.621 330.877,-291.976 		"/>
		<polygon style="clip-path:url(#SVGID_2_);fill:#D9DADB;" points="335.745,-279.429 362.87,-209.521 371.924,-295.292 
			366.57,-308.916 		"/>
		<polygon style="clip-path:url(#SVGID_2_);fill:#D9DADB;" points="446.721,-279.429 419.597,-209.521 410.543,-295.292 
			415.897,-308.916 		"/>
		<polygon style="clip-path:url(#SVGID_2_);fill:#D9DADB;" points="485.65,-344.948 518.411,-342.055 460.416,-227.651 
			420.906,-105.12 425.022,-190.016 		"/>
		<polygon style="clip-path:url(#SVGID_2_);fill:#D9DADB;" points="421.477,-320.185 421.006,-320.775 424.165,-328.812 
			462.506,-370.789 475.559,-352.621 451.253,-289.976 		"/>
		<polygon style="clip-path:url(#SVGID_2_);fill:#D9DADB;" points="222.347,-333.943 242.516,-340.066 234.862,-274.724 
			233.636,-107.12 260.17,21.842 259.876,82.981 267.812,157.053 257.511,153.226 246.649,178.671 247.089,7.739 221.819,-107.12 
			204.829,-337.302 		"/>
		<polygon style="clip-path:url(#SVGID_2_);fill:#D9DADB;" points="559.782,-331.943 539.614,-338.066 547.268,-272.724 
			548.494,-105.12 521.959,23.842 522.253,84.981 514.317,159.053 524.618,155.226 535.48,180.671 535.041,9.739 560.311,-105.12 
			577.3,-335.302 		"/>
		<g style="clip-path:url(#SVGID_2_);">
			<polygon style="fill:#D9DADB;" points="277.002,-680.81 304.477,-665.545 301.305,-701.716 			"/>
			<polygon style="fill:#D9DADB;" points="299.361,-715.462 246.713,-737.313 266.535,-683.959 			"/>
			<polygon style="fill:#D9DADB;" points="266.843,-678.692 302.727,-656.812 308.854,-613.051 273.845,-635.806 			"/>
			<polygon style="fill:#D9DADB;" points="275.595,-625.286 307.103,-603.405 311.479,-558.769 276.471,-586.776 			"/>
			<polygon style="fill:#D9DADB;" points="310.592,-535.042 272.082,-563.924 268.738,-525.12 241.421,-474.891 283.472,-416.984 
				305.353,-413.483 313.23,-495.753 			"/>
			<polygon style="fill:#D9DADB;" points="505.464,-680.81 477.989,-665.545 481.162,-701.716 			"/>
			<polygon style="fill:#D9DADB;" points="483.106,-715.462 535.753,-737.313 515.931,-683.959 			"/>
			<polygon style="fill:#D9DADB;" points="515.623,-678.692 479.74,-656.812 473.613,-613.051 508.622,-635.806 			"/>
			<polygon style="fill:#D9DADB;" points="506.871,-625.286 475.363,-603.405 470.987,-558.769 505.996,-586.776 			"/>
			<polygon style="fill:#D9DADB;" points="471.875,-535.042 510.384,-563.924 513.728,-525.12 541.046,-474.891 498.994,-416.984 
				477.114,-413.483 469.237,-495.753 			"/>
			<g>
				<polygon style="fill:#D9DADB;" points="318.086,-716.123 384.177,-745.864 382.195,-697.618 322.713,-667.216 				"/>
				<polygon style="fill:#D9DADB;" points="328.661,-655.319 329.983,-620.952 378.89,-631.527 381.534,-678.451 				"/>
				<polygon style="fill:#D9DADB;" points="386.821,-318.917 373.944,-444.044 373.62,-525.511 327.233,-548.266 321.982,-399.479 
									"/>
				<polygon style="fill:#D9DADB;" points="331.965,-604.429 331.304,-562.131 378.229,-549.574 378.89,-615.665 				"/>
				<polygon style="fill:#D9DADB;" points="464.38,-716.123 398.289,-745.864 400.272,-697.618 459.754,-667.216 				"/>
				<polygon style="fill:#D9DADB;" points="453.806,-655.319 452.484,-620.952 403.577,-631.527 400.933,-678.451 				"/>
				<polygon style="fill:#D9DADB;" points="395.646,-318.917 408.522,-444.044 408.847,-525.511 455.233,-548.266 460.485,-399.479 
									"/>
				<polygon style="fill:#D9DADB;" points="450.501,-604.429 451.162,-562.131 404.238,-549.574 403.577,-615.665 				"/>
			</g>
		</g>
	</g>
</g>
<g id="Layer_1">
</g>
</svg>
