<?xml version="1.0" encoding="utf-8"?>
<!-- Generator: Adobe Illustrator 22.0.1, SVG Export Plug-In . SVG Version: 6.00 Build 0)  -->
<svg version="1.1" id="Layer_1" xmlns="http://www.w3.org/2000/svg" xmlns:xlink="http://www.w3.org/1999/xlink" x="0px" y="0px"
	 viewBox="0 0 783 780.6" style="enable-background:new 0 0 783 780.6;" xml:space="preserve">
<style type="text/css">
	.st0{clip-path:url(#SVGID_2_);fill:#F7F7F7;}
	.st1{clip-path:url(#SVGID_4_);}
	.st2{fill:#D9DADB;}
	.st3{clip-path:url(#SVGID_6_);fill:#D9DADB;}
	.st4{clip-path:url(#SVGID_8_);fill:#D9DADB;}
	.st5{clip-path:url(#SVGID_10_);fill:#D9DADB;}
	.st6{clip-path:url(#SVGID_12_);fill:#D9DADB;}
	.st7{clip-path:url(#SVGID_14_);fill:#E0AF12;}
	.st8{clip-path:url(#SVGID_16_);fill:#E0AF12;}
	.st9{clip-path:url(#SVGID_18_);fill:#D9DADB;}
	.st10{clip-path:url(#SVGID_20_);fill:#D9DADB;}
	.st11{clip-path:url(#SVGID_22_);fill:#D9DADB;}
	.st12{clip-path:url(#SVGID_24_);fill:#D9DADB;}
	.st13{clip-path:url(#SVGID_26_);fill:#D9DADB;}
	.st14{clip-path:url(#SVGID_28_);fill:#D9DADB;}
	.st15{clip-path:url(#SVGID_30_);fill:#D9DADB;}
	.st16{clip-path:url(#SVGID_32_);fill:#D9DADB;}
	.st17{clip-path:url(#SVGID_34_);fill:#D9DADB;}
	.st18{clip-path:url(#SVGID_36_);fill:#D9DADB;}
	.st19{clip-path:url(#SVGID_38_);fill:#D9DADB;}
	.st20{clip-path:url(#SVGID_40_);fill:#D9DADB;}
	.st21{clip-path:url(#SVGID_42_);fill:#D9DADB;}
	.st22{clip-path:url(#SVGID_44_);fill:#D9DADB;}
	.st23{clip-path:url(#SVGID_46_);fill:#D9DADB;}
	.st24{clip-path:url(#SVGID_48_);fill:#D9DADB;}
	.st25{clip-path:url(#SVGID_50_);fill:#D9DADB;}
	.st26{clip-path:url(#SVGID_52_);fill:#D9DADB;}
	.st27{clip-path:url(#SVGID_54_);fill:#D9DADB;}
	.st28{clip-path:url(#SVGID_56_);fill:#D9DADB;}
	.st29{clip-path:url(#SVGID_58_);}
</style>
<g id="Front_Right_Shin">
	<g>
		<g>
			<g>
				<defs>
					<circle id="SVGID_1_" cx="390.3" cy="390.3" r="390.3"/>
				</defs>
				<clipPath id="SVGID_2_">
					<use xlink:href="#SVGID_1_"  style="overflow:visible;"/>
				</clipPath>
				<circle class="st0" cx="390.2" cy="390.3" r="390.3"/>
			</g>
		</g>
		<g>
			<g>
				<defs>
					<circle id="SVGID_3_" cx="390.3" cy="390.3" r="390.3"/>
				</defs>
				<clipPath id="SVGID_4_">
					<use xlink:href="#SVGID_3_"  style="overflow:visible;"/>
				</clipPath>
				<g class="st1">
					<polygon class="st2" points="338.5,-988.8 370.4,-940.4 386.2,-884.8 349.4,-914.2 334.6,-966.6 					"/>
					<polygon class="st2" points="323.2,-953.5 331,-916.8 284.7,-905.4 254.9,-915.9 					"/>
					<polygon class="st2" points="293.4,-892.3 256.7,-826.6 216.4,-806.5 240.9,-787.3 260.2,-731.2 304.8,-712.9 375.9,-748 
						358.2,-886.2 					"/>
					<path class="st2" d="M221.2-648c0.5-0.4,1.1-0.7,1.6-1l14.6-108.5l-28-40.3l-28.9,42l-24.5,147l2.2,19.7
						C178-609.9,198.6-630,221.2-648z"/>
					<path class="st2" d="M161.9-573.5c-0.5,0.6-1.1,1-1.7,1.3l3.7,32.6l51.6-55.1l4.8-35.6C199.5-612.7,180.4-593.5,161.9-573.5z"
						/>
					<polygon class="st2" points="167.4,-523.8 95.5,-329.7 118.4,-324.4 194.5,-480.9 208.5,-568.4 					"/>
					<polygon class="st2" points="146.4,-599.1 156.9,-524.7 88.4,-342 77.8,-349 104.3,-490 					"/>
					<polygon class="st2" points="166.5,-762.7 153.4,-622.7 144.6,-726.9 					"/>
					<polygon class="st2" points="473.2,-1100.8 473.2,-1152.3 446.1,-1199.2 388,-1218 329.9,-1199.2 302.7,-1152.3 302.7,-1100.8 
						289.6,-1098 295.2,-1053 316.8,-1045.6 340.2,-996.8 388.2,-976.3 435.8,-996.8 459.2,-1045.6 480.7,-1053 486.3,-1098 					
						"/>
					<polygon class="st2" points="65.6,-344.2 77,-316.9 110.5,-311.6 113.2,-262.2 95.5,-191.7 84.1,-192.6 95.2,-239.6 
						83.3,-239.9 64.7,-190 50.6,-191.7 68.1,-242.2 55.9,-244.5 32.1,-190.9 14.5,-192.6 38.7,-248.5 30.3,-253.4 0.4,-205.8 
						-14.6,-207.6 30.3,-293.1 25.9,-300.1 -16.4,-282.5 -19,-292.2 15.3,-323 					"/>
					<polygon class="st2" points="454.7,-953.5 446.8,-916.8 493.2,-905.4 522.9,-915.9 					"/>
					<polygon class="st2" points="484.4,-892.3 521.2,-826.6 561.4,-806.5 536.9,-787.3 517.7,-731.2 473.1,-712.9 401.9,-748 
						419.7,-886.2 					"/>
					<path class="st2" d="M556.7-648c-0.5-0.4-1.1-0.7-1.6-1l-14.6-108.5l28-40.3l28.9,42l24.5,147l-2.2,19.7
						C599.8-609.9,579.2-630,556.7-648z"/>
					<path class="st2" d="M616-573.5c0.5,0.6,1.1,1,1.7,1.3l-3.7,32.6l-51.6-55.1l-4.8-35.6C578.3-612.7,597.5-593.5,616-573.5z"/>
					<polygon class="st2" points="610.5,-523.8 682.4,-329.7 659.5,-324.4 583.3,-480.9 569.3,-568.4 					"/>
					<polygon class="st2" points="631.5,-599.1 621,-524.7 689.4,-342 700,-349 673.6,-490 					"/>
					<polygon class="st2" points="611.3,-762.7 624.5,-622.7 633.2,-726.9 					"/>
					<polygon class="st2" points="712.3,-344.2 700.8,-316.9 667.3,-311.6 664.7,-262.2 682.3,-191.7 693.8,-192.6 682.6,-239.6 
						694.5,-239.9 713.2,-190 727.3,-191.7 709.7,-242.2 722,-244.5 745.8,-190.9 763.4,-192.6 739.2,-248.5 747.5,-253.4 
						777.5,-205.8 792.5,-207.6 747.5,-293.1 751.9,-300.1 794.2,-282.5 796.9,-292.2 762.5,-323 					"/>
					<path class="st2" d="M539.2-911.6l16.1-8.7l50.4,55.7l0.3,21.2C606-843.3,540.2-911.1,539.2-911.6z"/>
					<path class="st2" d="M534.1-909.3c0,1.1,70.7,75.3,70.7,75.3L607-768l-24.5-42l-47.3-20.1l-33.3-61.3L534.1-909.3z"/>
					<path class="st2" d="M238.6-911.6l-16.1-8.7l-50.4,55.7l-0.3,21.2C171.9-843.3,237.6-911.1,238.6-911.6z"/>
					<path class="st2" d="M243.7-909.3c0,1.1-70.7,75.3-70.7,75.3l-2.1,65.9l24.5-42l47.3-20.1l33.3-61.3L243.7-909.3z"/>
					<polygon class="st2" points="438.5,-988.8 406.6,-940.4 390.8,-884.8 427.6,-914.2 440.4,-967.5 					"/>
					<polygon class="st2" points="337.8,231.7 331.6,251.1 318.4,333 316.7,442.3 335.2,548.9 334.3,412.3 353.7,357.7 356.3,297.8 
											"/>
					<polygon class="st2" points="440,231.7 446.2,251.1 459.4,333 461.2,442.3 442.7,548.9 443.6,412.3 424.2,357.7 421.5,297.8 
											"/>
				</g>
			</g>
		</g>
		<g>
			<g>
				<defs>
					<circle id="SVGID_5_" cx="390.3" cy="390.3" r="390.3"/>
				</defs>
				<clipPath id="SVGID_6_">
					<use xlink:href="#SVGID_5_"  style="overflow:visible;"/>
				</clipPath>
				<polygon class="st3" points="358.6,609.4 356.3,674 350.1,699.6 331.6,699.6 326.3,682 320.2,681.1 321.5,698.7 298.1,691.7 
					292,688.1 265.5,682.4 264.7,661.7 290.2,618.5 303.8,601.6 332.5,618 				"/>
			</g>
		</g>
		<g>
			<g>
				<defs>
					<circle id="SVGID_7_" cx="390.3" cy="390.3" r="390.3"/>
				</defs>
				<clipPath id="SVGID_8_">
					<use xlink:href="#SVGID_7_"  style="overflow:visible;"/>
				</clipPath>
				<polygon class="st4" points="418.5,609.4 420.9,674 427,699.6 445.5,699.6 450.8,682 457,681.1 455.7,698.7 479,691.7 
					485.2,688.1 511.6,682.4 512.5,661.7 487,618.5 473.4,601.6 444.6,618 				"/>
			</g>
		</g>
		<g>
			<g>
				<defs>
					<circle id="SVGID_9_" cx="390.3" cy="390.3" r="390.3"/>
				</defs>
				<clipPath id="SVGID_10_">
					<use xlink:href="#SVGID_9_"  style="overflow:visible;"/>
				</clipPath>
				<polygon class="st5" points="296.9,561.2 295.9,571.4 307.6,594.2 332,610.2 357,602 349.1,578.1 				"/>
			</g>
		</g>
		<g>
			<g>
				<defs>
					<circle id="SVGID_11_" cx="390.3" cy="390.3" r="390.3"/>
				</defs>
				<clipPath id="SVGID_12_">
					<use xlink:href="#SVGID_11_"  style="overflow:visible;"/>
				</clipPath>
				<polygon class="st6" points="480.3,561.2 481.3,571.4 469.6,594.2 445.2,610.2 420.2,602 428.1,578.1 				"/>
			</g>
		</g>
		<g>
			<g>
				<defs>
					<circle id="SVGID_13_" cx="390.3" cy="390.3" r="390.3"/>
				</defs>
				<clipPath id="SVGID_14_">
					<use xlink:href="#SVGID_13_"  style="overflow:visible;"/>
				</clipPath>
				<polygon class="st7" points="295.5,281 299.9,444.9 331.6,563.8 295,552.7 232.9,329.5 255,185 				"/>
			</g>
		</g>
		<g>
			<g>
				<defs>
					<circle id="SVGID_15_" cx="390.3" cy="390.3" r="390.3"/>
				</defs>
				<clipPath id="SVGID_16_">
					<use xlink:href="#SVGID_15_"  style="overflow:visible;"/>
				</clipPath>
				<polygon class="st8" points="481.7,281 477.3,444.9 445.6,563.8 482.1,552.7 544.2,329.5 522.2,185 				"/>
			</g>
		</g>
		<g>
			<g>
				<defs>
					<circle id="SVGID_17_" cx="390.3" cy="390.3" r="390.3"/>
				</defs>
				<clipPath id="SVGID_18_">
					<use xlink:href="#SVGID_17_"  style="overflow:visible;"/>
				</clipPath>
				<polygon class="st9" points="270.8,111.8 268.2,135.6 286.7,158.5 292.9,194.7 305.2,200 315.8,145.3 322.8,125.9 316.7,113.6 
									"/>
			</g>
		</g>
		<g>
			<g>
				<defs>
					<circle id="SVGID_19_" cx="390.3" cy="390.3" r="390.3"/>
				</defs>
				<clipPath id="SVGID_20_">
					<use xlink:href="#SVGID_19_"  style="overflow:visible;"/>
				</clipPath>
				<polygon class="st10" points="352.8,113.6 339.6,150.6 311.4,205.2 318.4,255.5 338.7,199.1 355.4,167.3 				"/>
			</g>
		</g>
		<g>
			<g>
				<defs>
					<circle id="SVGID_21_" cx="390.3" cy="390.3" r="390.3"/>
				</defs>
				<clipPath id="SVGID_22_">
					<use xlink:href="#SVGID_21_"  style="overflow:visible;"/>
				</clipPath>
				<polygon class="st11" points="507,111.8 509.7,135.6 491.1,158.5 485,194.7 472.6,200 462.1,145.3 455,125.9 461.2,113.6 				
					"/>
			</g>
		</g>
		<g>
			<g>
				<defs>
					<circle id="SVGID_23_" cx="390.3" cy="390.3" r="390.3"/>
				</defs>
				<clipPath id="SVGID_24_">
					<use xlink:href="#SVGID_23_"  style="overflow:visible;"/>
				</clipPath>
				<polygon class="st12" points="425.1,113.6 438.3,150.6 466.5,205.2 459.4,255.5 439.2,199.1 422.4,167.3 				"/>
			</g>
		</g>
		<g>
			<g>
				<defs>
					<circle id="SVGID_25_" cx="390.3" cy="390.3" r="390.3"/>
				</defs>
				<clipPath id="SVGID_26_">
					<use xlink:href="#SVGID_25_"  style="overflow:visible;"/>
				</clipPath>
				<polygon class="st13" points="252.1,-327.2 310.1,-199.7 323.2,-96.4 298.5,48.9 245,-99 241.7,-251.3 251.5,-327.1 				"/>
			</g>
		</g>
		<g>
			<g>
				<defs>
					<circle id="SVGID_27_" cx="390.3" cy="390.3" r="390.3"/>
				</defs>
				<clipPath id="SVGID_28_">
					<use xlink:href="#SVGID_27_"  style="overflow:visible;"/>
				</clipPath>
				<polygon class="st14" points="244.7,-54.8 237.3,-90.3 288.4,49.7 280.7,69.6 258,8.6 				"/>
			</g>
		</g>
		<g>
			<g>
				<defs>
					<circle id="SVGID_29_" cx="390.3" cy="390.3" r="390.3"/>
				</defs>
				<clipPath id="SVGID_30_">
					<use xlink:href="#SVGID_29_"  style="overflow:visible;"/>
				</clipPath>
				<polygon class="st15" points="325.9,-142.2 327.2,-138.9 353,-77.4 336.4,74.9 310.1,60.9 332.9,-80.9 				"/>
			</g>
		</g>
		<g>
			<g>
				<defs>
					<circle id="SVGID_31_" cx="390.3" cy="390.3" r="390.3"/>
				</defs>
				<clipPath id="SVGID_32_">
					<use xlink:href="#SVGID_31_"  style="overflow:visible;"/>
				</clipPath>
				<polygon class="st16" points="452,-142.2 450.6,-138.9 424.9,-77.4 441.5,74.9 467.7,60.9 445,-80.9 				"/>
			</g>
		</g>
		<g>
			<g>
				<defs>
					<circle id="SVGID_33_" cx="390.3" cy="390.3" r="390.3"/>
				</defs>
				<clipPath id="SVGID_34_">
					<use xlink:href="#SVGID_33_"  style="overflow:visible;"/>
				</clipPath>
				<polygon class="st17" points="525.4,-325.2 467.5,-197.7 454.3,-94.4 479,50.9 532.5,-97 535.8,-249.3 526,-325.1 				"/>
			</g>
		</g>
		<g>
			<g>
				<defs>
					<circle id="SVGID_35_" cx="390.3" cy="390.3" r="390.3"/>
				</defs>
				<clipPath id="SVGID_36_">
					<use xlink:href="#SVGID_35_"  style="overflow:visible;"/>
				</clipPath>
				<polygon class="st18" points="532.8,-52.8 540.2,-88.3 489.1,51.7 496.8,71.6 519.5,10.6 				"/>
			</g>
		</g>
		<g>
			<g>
				<defs>
					<circle id="SVGID_37_" cx="390.3" cy="390.3" r="390.3"/>
				</defs>
				<clipPath id="SVGID_38_">
					<use xlink:href="#SVGID_37_"  style="overflow:visible;"/>
				</clipPath>
				<polygon class="st19" points="237.1,-441.2 206.4,-329.1 221.5,-326.6 251.1,-333.3 291.3,-337 311.5,-361.8 301.6,-386.6 
					277,-393.9 				"/>
			</g>
		</g>
		<g>
			<g>
				<defs>
					<circle id="SVGID_39_" cx="390.3" cy="390.3" r="390.3"/>
				</defs>
				<clipPath id="SVGID_40_">
					<use xlink:href="#SVGID_39_"  style="overflow:visible;"/>
				</clipPath>
				<polygon class="st20" points="540.4,-439.2 571.1,-327.1 556.1,-324.6 526.4,-331.3 486.2,-335 466,-359.8 475.9,-384.6 
					500.5,-391.9 				"/>
			</g>
		</g>
		<g>
			<g>
				<defs>
					<circle id="SVGID_41_" cx="390.3" cy="390.3" r="390.3"/>
				</defs>
				<clipPath id="SVGID_42_">
					<use xlink:href="#SVGID_41_"  style="overflow:visible;"/>
				</clipPath>
				<polygon class="st21" points="294.2,-331.2 261.4,-328.4 319.4,-213.9 358.9,-91.4 354.8,-176.3 				"/>
			</g>
		</g>
		<g>
			<g>
				<defs>
					<circle id="SVGID_43_" cx="390.3" cy="390.3" r="390.3"/>
				</defs>
				<clipPath id="SVGID_44_">
					<use xlink:href="#SVGID_43_"  style="overflow:visible;"/>
				</clipPath>
				<polygon class="st22" points="358.3,-306.5 358.8,-307.1 355.7,-315.1 317.3,-357.1 304.3,-338.9 328.6,-276.3 				"/>
			</g>
		</g>
		<g>
			<g>
				<defs>
					<circle id="SVGID_45_" cx="390.3" cy="390.3" r="390.3"/>
				</defs>
				<clipPath id="SVGID_46_">
					<use xlink:href="#SVGID_45_"  style="overflow:visible;"/>
				</clipPath>
				<polygon class="st23" points="333.4,-263.7 360.6,-193.8 369.6,-279.6 364.3,-293.2 				"/>
			</g>
		</g>
		<g>
			<g>
				<defs>
					<circle id="SVGID_47_" cx="390.3" cy="390.3" r="390.3"/>
				</defs>
				<clipPath id="SVGID_48_">
					<use xlink:href="#SVGID_47_"  style="overflow:visible;"/>
				</clipPath>
				<polygon class="st24" points="444.4,-263.7 417.3,-193.8 408.2,-279.6 413.6,-293.2 				"/>
			</g>
		</g>
		<g>
			<g>
				<defs>
					<circle id="SVGID_49_" cx="390.3" cy="390.3" r="390.3"/>
				</defs>
				<clipPath id="SVGID_50_">
					<use xlink:href="#SVGID_49_"  style="overflow:visible;"/>
				</clipPath>
				<polygon class="st25" points="483.3,-329.2 516.1,-326.4 458.1,-211.9 418.6,-89.4 422.7,-174.3 				"/>
			</g>
		</g>
		<g>
			<g>
				<defs>
					<circle id="SVGID_51_" cx="390.3" cy="390.3" r="390.3"/>
				</defs>
				<clipPath id="SVGID_52_">
					<use xlink:href="#SVGID_51_"  style="overflow:visible;"/>
				</clipPath>
				<polygon class="st26" points="419.2,-304.5 418.7,-305.1 421.9,-313.1 460.2,-355.1 473.2,-336.9 448.9,-274.3 				"/>
			</g>
		</g>
		<g>
			<g>
				<defs>
					<circle id="SVGID_53_" cx="390.3" cy="390.3" r="390.3"/>
				</defs>
				<clipPath id="SVGID_54_">
					<use xlink:href="#SVGID_53_"  style="overflow:visible;"/>
				</clipPath>
				<polygon class="st27" points="220,-318.2 240.2,-324.4 232.5,-259 231.3,-91.4 257.9,37.5 257.6,98.7 265.5,172.8 255.2,168.9 
					244.3,194.4 244.8,23.4 219.5,-91.4 202.5,-321.6 				"/>
			</g>
		</g>
		<g>
			<g>
				<defs>
					<circle id="SVGID_55_" cx="390.3" cy="390.3" r="390.3"/>
				</defs>
				<clipPath id="SVGID_56_">
					<use xlink:href="#SVGID_55_"  style="overflow:visible;"/>
				</clipPath>
				<polygon class="st28" points="557.5,-316.2 537.3,-322.4 545,-257 546.2,-89.4 519.6,39.5 519.9,100.7 512,174.8 522.3,170.9 
					533.2,196.4 532.7,25.4 558,-89.4 575,-319.6 				"/>
			</g>
		</g>
		<g>
			<g>
				<defs>
					<circle id="SVGID_57_" cx="390.3" cy="390.3" r="390.3"/>
				</defs>
				<clipPath id="SVGID_58_">
					<use xlink:href="#SVGID_57_"  style="overflow:visible;"/>
				</clipPath>
				<g class="st29">
					<polygon class="st2" points="274.7,-665.1 302.2,-649.8 299,-686 					"/>
					<polygon class="st2" points="297,-699.8 244.4,-721.6 264.2,-668.3 					"/>
					<polygon class="st2" points="264.5,-663 300.4,-641.1 306.5,-597.3 271.5,-620.1 					"/>
					<polygon class="st2" points="273.3,-609.6 304.8,-587.7 309.2,-543.1 274.2,-571.1 					"/>
					<polygon class="st2" points="308.3,-519.3 269.8,-548.2 266.4,-509.4 239.1,-459.2 281.2,-401.3 303,-397.8 310.9,-480.1 					
						"/>
					<polygon class="st2" points="503.2,-665.1 475.7,-649.8 478.8,-686 					"/>
					<polygon class="st2" points="480.8,-699.8 533.4,-721.6 513.6,-668.3 					"/>
					<polygon class="st2" points="513.3,-663 477.4,-641.1 471.3,-597.3 506.3,-620.1 					"/>
					<polygon class="st2" points="504.6,-609.6 473.1,-587.7 468.7,-543.1 503.7,-571.1 					"/>
					<polygon class="st2" points="469.6,-519.3 508.1,-548.2 511.4,-509.4 538.7,-459.2 496.7,-401.3 474.8,-397.8 466.9,-480.1 
											"/>
					<g>
						<polygon class="st2" points="315.8,-700.4 381.9,-730.2 379.9,-681.9 320.4,-651.5 						"/>
						<polygon class="st2" points="326.3,-639.6 327.7,-605.3 376.6,-615.8 379.2,-662.8 						"/>
						<polygon class="st2" points="384.5,-303.2 371.6,-428.3 371.3,-509.8 324.9,-532.6 319.7,-383.8 						"/>
						<polygon class="st2" points="329.7,-588.7 329,-546.4 375.9,-533.9 376.6,-600 						"/>
						<polygon class="st2" points="462.1,-700.4 396,-730.2 398,-681.9 457.4,-651.5 						"/>
						<polygon class="st2" points="451.5,-639.6 450.2,-605.3 401.3,-615.8 398.6,-662.8 						"/>
						<polygon class="st2" points="393.3,-303.2 406.2,-428.3 406.5,-509.8 452.9,-532.6 458.2,-383.8 						"/>
						<polygon class="st2" points="448.2,-588.7 448.8,-546.4 401.9,-533.9 401.3,-600 						"/>
					</g>
				</g>
			</g>
		</g>
	</g>
</g>
<g id="Layer_1_1_">
</g>
</svg>
